<svg width="40" height="40" viewBox="0 0 40 40" fill="none" xmlns="http://www.w3.org/2000/svg">
<path fill-rule="evenodd" clip-rule="evenodd" d="M8.95243 9.04757C9.23027 8.76973 9.60508 8.61164 9.99442 8.60807C10.3838 8.6045 10.7557 8.75574 11.0285 9.02852L31.5989 29.5989C31.8717 29.8717 32.0229 30.2437 32.0193 30.633C32.0158 31.0223 31.8577 31.3971 31.5798 31.675C31.302 31.9528 30.9272 32.1109 30.5379 32.1145C30.1485 32.118 29.7765 31.9668 29.5038 31.694L8.93339 11.1236C8.66061 10.8509 8.50937 10.4789 8.51294 10.0896C8.51651 9.70021 8.6746 9.3254 8.95243 9.04757Z" fill="#8E62D3"/>
<path fill-rule="evenodd" clip-rule="evenodd" d="M31.9524 8.95243C32.2303 9.23027 32.3884 9.60508 32.3919 9.99442C32.3955 10.3838 32.2443 10.7557 31.9715 11.0285L11.4011 31.5989C11.1283 31.8717 10.7563 32.0229 10.367 32.0193C9.97766 32.0158 9.60285 31.8577 9.32502 31.5798C9.04719 31.302 8.88909 30.9272 8.88552 30.5379C8.88195 30.1485 9.03319 29.7765 9.30597 29.5038L29.8764 8.93339C30.1491 8.66061 30.5211 8.50937 30.9104 8.51294C31.2998 8.51651 31.6746 8.6746 31.9524 8.95243Z" fill="#8E62D3"/>
</svg>
