<svg width="150" height="35" viewBox="0 0 150 35" fill="none" xmlns="http://www.w3.org/2000/svg">
<path d="M0 6.59341V2.3557C0 0.645805 2.00666 -0.275593 3.3035 0.838835L6.6267 3.69459C8.80322 5.56496 11.578 6.59341 14.4477 6.59341H75H138C144.627 6.59341 150 11.966 150 18.5934V23C150 29.6274 144.627 35 138 35H12C5.37258 35 0 29.6274 0 23V6.59341Z" fill="#F8F5FF"/>
<path d="M0.5 6.59341V2.3557C0.5 1.07328 2.005 0.38223 2.97763 1.21805L6.30083 4.07381C8.56803 6.02211 11.4584 7.09341 14.4477 7.09341H75H138C144.351 7.09341 149.5 12.2421 149.5 18.5934V23C149.5 29.3513 144.351 34.5 138 34.5H12C5.64872 34.5 0.5 29.3513 0.5 23V6.59341Z" stroke="#4700B5" stroke-opacity="0.2"/>
</svg>
