<svg width="131" height="30" viewBox="0 0 131 30" fill="none" xmlns="http://www.w3.org/2000/svg">
<path d="M6.97738 14.4613H8.0904C8.52758 14.4614 8.95433 14.3311 9.31338 14.0879C9.67243 13.8447 9.94661 13.5001 10.0991 13.1006L12.644 6.43366V2.7615C12.6435 2.15262 12.3958 1.56872 11.955 1.13744C11.5143 0.706153 10.9164 0.462578 10.292 0.459961H1.15234V0.533246C1.65835 0.661358 2.10641 0.949682 2.42622 1.35297C2.74603 1.75626 2.91948 2.25169 2.91935 2.7615V27.5001C2.91913 28.0098 2.74555 28.505 2.4258 28.9083C2.10604 29.3115 1.65818 29.5999 1.15234 29.7283V29.8016H10.292C10.9182 29.8016 11.5187 29.5592 11.9616 29.1276C12.4045 28.696 12.6536 28.1106 12.6542 27.5001V23.8437L10.0889 17.1629C9.93875 16.7633 9.66633 16.4183 9.30853 16.1746C8.95073 15.9309 8.52481 15.8002 8.08837 15.8002H6.97738C6.79531 15.8002 6.6207 15.7297 6.49196 15.6042C6.36322 15.4786 6.29089 15.3083 6.29089 15.1308C6.29089 14.9532 6.36322 14.7829 6.49196 14.6574C6.6207 14.5318 6.79531 14.4613 6.97738 14.4613Z" fill="#F8F7FF"/>
<path d="M10.2917 29.892H1.15197C1.12754 29.8915 1.1043 29.8817 1.08721 29.8646C1.07013 29.8476 1.06056 29.8247 1.06057 29.8009V29.7276C1.0604 29.7076 1.06712 29.6882 1.07964 29.6724C1.09216 29.6566 1.10977 29.6453 1.12963 29.6405C1.61573 29.5168 2.04599 29.2392 2.35292 28.8514C2.65985 28.4635 2.82608 27.9873 2.82555 27.4974V2.76081C2.82598 2.27115 2.65967 1.7952 2.35272 1.40768C2.04577 1.02016 1.61557 0.743003 1.12963 0.619709C1.10977 0.614828 1.09216 0.603584 1.07964 0.58778C1.06712 0.571977 1.0604 0.552531 1.06057 0.53256V0.459275C1.0603 0.447404 1.06246 0.435601 1.06694 0.424558C1.07141 0.413515 1.0781 0.403454 1.08661 0.394966C1.09512 0.386479 1.10529 0.379736 1.11651 0.375133C1.12774 0.370531 1.13979 0.368161 1.15197 0.368164H10.2917C10.9424 0.368688 11.5664 0.620875 12.0267 1.06941C12.487 1.51795 12.7461 2.12622 12.7472 2.76081V6.42505C12.7493 6.43551 12.7493 6.44628 12.7472 6.45674L10.1881 13.1237C10.0284 13.5411 9.74204 13.9012 9.36722 14.1559C8.9924 14.4107 8.54689 14.5481 8.09002 14.5498H6.97701C6.81918 14.5498 6.66781 14.6109 6.55621 14.7197C6.44461 14.8286 6.38191 14.9762 6.38191 15.1301C6.38191 15.284 6.44461 15.4316 6.55621 15.5404C6.66781 15.6493 6.81918 15.7104 6.97701 15.7104H8.09002C8.5448 15.7123 8.98818 15.8494 9.36091 16.1035C9.73364 16.3576 10.018 16.7166 10.1759 17.1325L12.7289 23.8114C12.7307 23.8219 12.7307 23.8326 12.7289 23.8431V27.4974C12.7284 28.1292 12.472 28.7353 12.0156 29.1838C11.5592 29.6323 10.9396 29.8868 10.2917 29.892ZM1.49318 29.7118H10.2917C10.8936 29.7107 11.4705 29.4771 11.8961 29.062C12.3217 28.647 12.5613 28.0844 12.5624 27.4974V23.8609L10.0033 17.1939C9.85894 16.8122 9.59825 16.4827 9.25622 16.2497C8.91419 16.0167 8.50723 15.8914 8.09002 15.8907H6.97701C6.77016 15.8907 6.57178 15.8105 6.42552 15.6679C6.27925 15.5253 6.19709 15.3318 6.19709 15.1301C6.19709 14.9284 6.27925 14.7349 6.42552 14.5923C6.57178 14.4496 6.77016 14.3695 6.97701 14.3695H8.09002C8.5079 14.3686 8.91557 14.2435 9.2588 14.0111C9.60203 13.7786 9.86453 13.4497 10.0114 13.0682L12.5543 6.4092V2.76081C12.5532 2.17539 12.3147 1.61416 11.8908 1.19965C11.4668 0.78514 10.892 0.55102 10.2917 0.548405H1.48506C1.93401 0.729449 2.3178 1.0363 2.58787 1.43012C2.85794 1.82394 3.00215 2.28704 3.00225 2.76081V27.4974C3.00255 27.9715 2.85853 28.435 2.58844 28.8292C2.31834 29.2234 1.93433 29.5306 1.48506 29.7118H1.49318Z" fill="white"/>
<path d="M16.677 0.460071C16.1626 0.459951 15.6605 0.613185 15.238 0.899228C14.8154 1.18527 14.4926 1.59045 14.3129 2.06045L12.6454 6.41792L10.1005 13.0928C9.94801 13.4923 9.67383 13.8368 9.31478 14.0801C8.95573 14.3233 8.52898 14.4536 8.0918 14.4535H18.5253C18.9897 14.4528 19.4428 14.314 19.8242 14.0557C20.2056 13.7974 20.4971 13.4317 20.6599 13.0076L24.9434 1.81485C25.0489 1.52711 25.2192 1.26606 25.4417 1.05083C25.6641 0.835596 25.9332 0.671643 26.229 0.570988V0.452148L16.677 0.460071Z" fill="#D7D0FF"/>
<path d="M18.5231 14.5498H8.08959C8.0763 14.5517 8.06275 14.5508 8.04985 14.5472C8.03695 14.5435 8.02501 14.5372 8.01484 14.5287C8.00466 14.5201 7.9965 14.5095 7.99091 14.4976C7.98532 14.4857 7.98242 14.4728 7.98242 14.4597C7.98242 14.4466 7.98532 14.4336 7.99091 14.4217C7.9965 14.4098 8.00466 14.3992 8.01484 14.3907C8.02501 14.3821 8.03695 14.3758 8.04985 14.3721C8.06275 14.3685 8.0763 14.3676 8.08959 14.3695C8.50747 14.3686 8.91514 14.2435 9.25837 14.0111C9.6016 13.7786 9.8641 13.4498 10.011 13.0682L14.2274 2.02799C14.4146 1.54154 14.7493 1.12219 15.1868 0.825703C15.6243 0.529216 16.1441 0.369638 16.6768 0.368187H26.2228C26.2351 0.367916 26.2474 0.370087 26.2588 0.37457C26.2703 0.379053 26.2807 0.385754 26.2894 0.394269C26.2982 0.402784 26.305 0.412937 26.3096 0.424114C26.3142 0.43529 26.3165 0.447258 26.3162 0.459297V0.578138C26.316 0.596934 26.3098 0.615208 26.2986 0.630455C26.2873 0.645703 26.2715 0.657178 26.2532 0.663307C25.9709 0.760667 25.7142 0.917695 25.5014 1.12315C25.2886 1.3286 25.1251 1.57739 25.0224 1.85171L20.741 13.0464C20.5708 13.4865 20.2676 13.8658 19.8716 14.1342C19.4756 14.4027 19.0053 14.5476 18.5231 14.5498ZM8.97715 14.3695H18.5231C18.9683 14.3684 19.4026 14.2351 19.7683 13.9874C20.134 13.7398 20.4137 13.3895 20.5704 12.9831L24.8538 1.79031C24.9554 1.51442 25.1139 1.26183 25.3197 1.0482C25.5255 0.834567 25.7741 0.664458 26.0501 0.548427H16.6768C16.1815 0.549525 15.6983 0.697772 15.2916 0.973421C14.8848 1.24907 14.5738 1.63903 14.4 2.09137L10.1877 13.1237C10.0822 13.4006 9.92039 13.6539 9.71202 13.8683C9.50366 14.0828 9.25301 14.2539 8.97512 14.3715L8.97715 14.3695Z" fill="white"/>
<path d="M24.9333 28.4345L20.7169 17.4022C20.536 16.9327 20.213 16.5281 19.7907 16.2419C19.3685 15.9557 18.8669 15.8015 18.3527 15.7998H8.08984C8.52594 15.8002 8.95141 15.931 9.30881 16.1747C9.66621 16.4184 9.93832 16.7632 10.0884 17.1625L12.6434 23.8433L14.3698 28.3553C14.5321 28.7797 14.8235 29.1457 15.2051 29.4041C15.5866 29.6625 16.04 29.801 16.5045 29.8012H26.225V29.6823C25.9292 29.5793 25.6601 29.4141 25.4369 29.1985C25.2137 28.9829 25.0418 28.7221 24.9333 28.4345Z" fill="#CBC2FF"/>
<path d="M26.2268 29.8925H16.5062C16.0232 29.8908 15.5523 29.7459 15.1558 29.4771C14.7593 29.2082 14.456 28.8281 14.2862 28.3872L10.0028 17.1945C9.85845 16.8127 9.59775 16.4832 9.25572 16.2502C8.9137 16.0172 8.50673 15.8919 8.08952 15.8912C8.06491 15.8907 8.04144 15.8809 8.02403 15.8639C8.00662 15.847 7.99661 15.8241 7.99609 15.8001C7.99662 15.7762 8.0067 15.7536 8.02417 15.7369C8.04163 15.7203 8.06509 15.7109 8.08952 15.7109H18.3524C18.8854 15.7125 19.4053 15.8722 19.8432 16.1686C20.281 16.465 20.616 16.8843 20.8039 17.3707L25.0183 28.411C25.1231 28.6857 25.2886 28.9346 25.5031 29.1399C25.7175 29.3453 25.9757 29.5022 26.2593 29.5994C26.2774 29.6053 26.2932 29.6168 26.3042 29.6322C26.3151 29.6475 26.3207 29.6659 26.3202 29.6846V29.8034C26.3197 29.8272 26.3096 29.8499 26.2921 29.8665C26.2747 29.8832 26.2512 29.8925 26.2268 29.8925ZM8.97303 15.8912C9.24946 16.0076 9.49864 16.1778 9.70537 16.3914C9.9121 16.6049 10.072 16.8572 10.1754 17.1331L14.4589 28.3238C14.6158 28.7301 14.8956 29.0802 15.2612 29.3278C15.6269 29.5755 16.061 29.7088 16.5062 29.7103H26.0521C25.7757 29.5936 25.5263 29.4236 25.319 29.2105C25.1117 28.9975 24.9507 28.7457 24.8457 28.4704L20.6292 17.4341C20.4554 16.9818 20.1445 16.5918 19.7377 16.3162C19.3309 16.0405 18.8477 15.8923 18.3524 15.8912H8.97303Z" fill="white"/>
<path d="M35.8822 5.38574V9.70954H34.8667V6.1998H32.8661V9.70954H31.8506V5.38574H35.8822Z" fill="white"/>
<path d="M41.0049 6.95443C41.0049 7.91704 40.2636 8.51718 39.0795 8.51718H38.1858V9.70558H37.1602V5.38574H39.0795C40.2636 5.38574 41.0049 5.98391 41.0049 6.95443ZM39.965 6.95443C39.965 6.47907 39.6482 6.1998 39.0226 6.1998H38.1858V7.70114H39.0226C39.6482 7.70114 39.965 7.42385 39.965 6.95443Z" fill="white"/>
<path d="M41.8965 5.38574H42.912V8.20225L45.0284 5.38574H45.9911V9.70954H44.9755V6.89897L42.8653 9.70954H41.8965V5.38574Z" fill="white"/>
<path d="M53.5669 5.38574V9.70954H52.5513V6.1998H50.5487V9.70954H49.5332V5.38574H53.5669Z" fill="white"/>
<path d="M54.5459 7.54672C54.5459 6.26325 55.5716 5.31055 56.973 5.31055C58.3744 5.31055 59.3981 6.25136 59.3981 7.54672C59.3981 8.84208 58.3663 9.7829 56.973 9.7829C55.5797 9.7829 54.5459 8.82623 54.5459 7.54672ZM58.3602 7.54672C58.3534 7.2807 58.2663 7.02254 58.1098 6.80454C57.9533 6.58655 57.7344 6.41841 57.4804 6.32116C57.2264 6.22392 56.9486 6.20188 56.6818 6.25782C56.415 6.31376 56.1711 6.44519 55.9805 6.63565C55.79 6.82612 55.6612 7.06716 55.6105 7.32861C55.5597 7.59007 55.5891 7.86033 55.695 8.10556C55.801 8.3508 55.9787 8.56012 56.206 8.70733C56.4333 8.85455 56.7001 8.93311 56.973 8.93319C57.1595 8.93807 57.345 8.90529 57.5178 8.83689C57.6907 8.7685 57.8472 8.66598 57.9775 8.53577C58.1078 8.40556 58.209 8.25047 58.2749 8.08027C58.3407 7.91006 58.3698 7.7284 58.3602 7.54672Z" fill="white"/>
<path d="M64.9263 8.89345V10.6087H63.9778V9.70949H60.848V10.6087H59.8975V8.89741H60.0742C60.651 8.87959 60.7972 7.95263 60.8419 6.74245L60.8927 5.38965H64.317V8.89345H64.9263ZM61.3111 8.89345H63.3015V6.19974H61.7802L61.762 6.83158C61.7153 7.75061 61.6137 8.54287 61.3111 8.89345Z" fill="white"/>
<path d="M70.6132 8.89345V10.6087H69.6626V9.70949H66.5267V10.6087H65.5762V8.89741H65.7529C66.3297 8.87959 66.4739 7.95263 66.5186 6.74245L66.5694 5.38965H69.9774V8.89345H70.6132ZM66.9959 8.89345H68.9782V6.19974H67.4589L67.4386 6.83158C67.396 7.75061 67.2944 8.54287 66.9898 8.89345H66.9959Z" fill="white"/>
<path d="M74.9413 8.90539V9.70954H71.5088V5.38574H74.86V6.18791H72.5284V7.12675H74.5879V7.90515H72.5284V8.90539H74.9413Z" fill="white"/>
<path d="M79.8428 6.95443C79.8428 7.91704 79.1015 8.51718 77.9174 8.51718H77.0237V9.70558H75.998V5.38574H77.9255C79.1015 5.38574 79.8428 5.98391 79.8428 6.95443ZM78.8049 6.95443C78.8049 6.47907 78.4881 6.1998 77.8605 6.1998H77.0237V7.70114H77.8605C78.4881 7.70114 78.8049 7.42385 78.8049 6.95443Z" fill="white"/>
<path d="M84.6458 7.96667H83.9999V9.70965H82.9844V7.96667H82.3263L81.3311 9.70965H80.1592L81.4855 7.43981L80.2364 5.37793H81.3209L82.3141 7.12488H83.0026V5.38585H84.0182V7.1328H84.6762L85.6775 5.38585H86.7601L85.5008 7.43981L86.8251 9.70173H85.643L84.6458 7.96667Z" fill="white"/>
<path d="M89.3992 7.96656H88.6903V9.70954H87.6748V5.38574H88.6903V7.13269H89.4256L90.5914 5.38574H91.6739L90.2238 7.47337L91.7186 9.70954H90.5528L89.3992 7.96656Z" fill="white"/>
<path d="M95.9854 8.90539V9.70954H92.5488V5.38574H95.9001V6.18791H93.5644V7.12675H95.6238V7.90515H93.5644V8.90539H95.9854Z" fill="white"/>
<path d="M35.8822 12.7988V17.1246H34.8667V13.6149H32.8661V17.1246H31.8506V12.7988H35.8822Z" fill="white"/>
<path d="M41.0049 14.3715C41.0049 15.3361 40.2636 15.9362 39.0795 15.9362H38.1858V17.1246H37.1602V12.7988H39.0795C40.2636 12.7988 41.0049 13.399 41.0049 14.3715ZM39.965 14.3715C39.965 13.8961 39.6482 13.6188 39.0226 13.6188H38.1858V15.1202H39.0226C39.6482 15.1162 39.965 14.8389 39.965 14.3715Z" fill="white"/>
<path d="M45.329 16.3205V17.1246H41.8965V12.7988H45.2477V13.603H42.9161V14.5418H44.9755V15.3202H42.9161V16.3106L45.329 16.3205Z" fill="white"/>
<path d="M49.8156 15.9128C49.8156 16.7288 48.9036 17.1982 47.8394 17.1982C47.2196 17.1992 46.6101 17.0436 46.0703 16.7466L46.3872 16.0296C46.7905 16.2606 47.2498 16.3823 47.7175 16.3822C48.3004 16.3822 48.7757 16.1722 48.7757 15.7701C48.7757 15.4433 48.473 15.2829 48.01 15.2829H46.9274V14.5303H47.9328C48.3512 14.5303 48.5929 14.35 48.5929 14.0668C48.5929 13.7142 48.1988 13.528 47.6992 13.528C47.2822 13.532 46.8729 13.6382 46.509 13.837L46.1983 13.0586C46.6694 12.8266 47.1897 12.7059 47.7175 12.7061C48.7452 12.7061 49.6307 13.1636 49.6307 13.9479C49.6309 14.1463 49.5701 14.3401 49.456 14.5043C49.3419 14.6685 49.1799 14.7956 48.991 14.8689C49.2263 14.9315 49.4342 15.0674 49.583 15.2558C49.7319 15.4442 49.8135 15.6749 49.8156 15.9128Z" fill="white"/>
<path d="M50.8272 12.7988H51.8427V15.6153L53.9591 12.7988H54.9238V17.1246H53.9083V14.3121L51.794 17.1246H50.8252L50.8272 12.7988Z" fill="white"/>
<path d="M60.8034 16.3086V18.0199H59.8488V17.1246H56.723V18.0199H55.7725V16.3086H55.9492C56.526 16.2888 56.6702 15.3638 56.7149 14.1516L56.7656 12.7988H60.1737V16.3086H60.8034ZM57.1861 16.3086H59.1684V13.6149H57.6492L57.6288 14.2447C57.5923 15.1637 57.4907 15.956 57.1861 16.3086Z" fill="white"/>
<path d="M65.1297 16.3205V17.1246H61.6973V12.7988H65.0485V13.603H62.725V14.5418H64.7845V15.3202H62.725V16.3106L65.1297 16.3205Z" fill="white"/>
<path d="M70.2605 12.7988V17.1246H69.2348V15.342H67.22V17.1246H66.1943V12.7988H67.22V14.5042H69.2348V12.7988H70.2605Z" fill="white"/>
<path d="M74.9576 13.6149H73.5359V17.1246H72.5204V13.6149H71.0986V12.7988H74.9434L74.9576 13.6149Z" fill="white"/>
<path d="M75.4541 14.9659C75.4541 13.6626 76.4798 12.7297 77.8609 12.7297C78.2051 12.7149 78.5483 12.7762 78.8648 12.9089C79.1814 13.0417 79.463 13.2424 79.6888 13.4962L79.0308 14.0904C78.8952 13.9304 78.7248 13.8019 78.5319 13.7141C78.3391 13.6264 78.1286 13.5818 77.9157 13.5834C77.5387 13.5834 77.177 13.7294 76.9104 13.9894C76.6438 14.2495 76.494 14.6021 76.494 14.9698C76.494 15.3375 76.6438 15.6902 76.9104 15.9502C77.177 16.2102 77.5387 16.3563 77.9157 16.3563C78.1292 16.3579 78.3402 16.3126 78.5332 16.2238C78.7263 16.135 78.8963 16.005 79.0308 15.8433L79.6888 16.4375C79.4641 16.6929 79.1828 16.8952 78.8661 17.0291C78.5494 17.1629 78.2057 17.2247 77.8609 17.21C76.4798 17.1981 75.4541 16.2652 75.4541 14.9659Z" fill="white"/>
<path d="M82.2694 15.3816H81.5585V17.1246H80.543V12.7988H81.5585V14.5478H82.2937L83.4595 12.7988H84.5421L83.0919 14.8865L84.5868 17.1246H83.421L82.2694 15.3816Z" fill="white"/>
<path d="M84.9023 14.9657C84.9023 13.6802 85.9179 12.7295 87.3274 12.7295C88.737 12.7295 89.7545 13.6743 89.7545 14.9657C89.7545 16.2571 88.7207 17.2018 87.3274 17.2018C85.9341 17.2018 84.9023 16.2472 84.9023 14.9657ZM88.7146 14.9657C88.7078 14.6996 88.6207 14.4415 88.4642 14.2235C88.3077 14.0055 88.0888 13.8374 87.8348 13.7401C87.5808 13.6429 87.303 13.6208 87.0362 13.6768C86.7695 13.7327 86.5255 13.8641 86.335 14.0546C86.1444 14.2451 86.0157 14.4861 85.9649 14.7476C85.9141 15.009 85.9435 15.2793 86.0494 15.5245C86.1554 15.7697 86.3331 15.9791 86.5604 16.1263C86.7878 16.2735 87.0545 16.3521 87.3274 16.3521C87.5139 16.357 87.6994 16.3242 87.8723 16.2558C88.0451 16.1874 88.2016 16.0849 88.3319 15.9547C88.4622 15.8245 88.5634 15.6694 88.6293 15.4992C88.6952 15.329 88.7242 15.1474 88.7146 14.9657Z" fill="white"/>
<path d="M93.8572 13.6149H91.747V17.1246H90.7314V12.7988H93.8613L93.8572 13.6149Z" fill="white"/>
<path d="M94.3398 14.9657C94.3398 13.6802 95.3655 12.7295 96.7649 12.7295C98.1643 12.7295 99.2022 13.6743 99.2022 14.9657C99.2022 16.2571 98.1684 17.2018 96.7649 17.2018C95.3615 17.2018 94.3398 16.2472 94.3398 14.9657ZM98.1521 14.9657C98.1453 14.6996 98.0582 14.4415 97.9017 14.2235C97.7452 14.0055 97.5263 13.8374 97.2723 13.7401C97.0183 13.6429 96.7405 13.6208 96.4737 13.6768C96.207 13.7327 95.963 13.8641 95.7725 14.0546C95.5819 14.2451 95.4532 14.4861 95.4024 14.7476C95.3516 15.009 95.381 15.2793 95.4869 15.5245C95.5929 15.7697 95.7706 15.9791 95.9979 16.1263C96.2252 16.2735 96.492 16.3521 96.7649 16.3521C96.9514 16.357 97.1369 16.3242 97.3098 16.2558C97.4826 16.1874 97.6391 16.0849 97.7694 15.9547C97.8997 15.8245 98.0009 15.6694 98.0668 15.4992C98.1327 15.329 98.1617 15.1474 98.1521 14.9657Z" fill="white"/>
<path d="M105.344 16.8459V17.3154H104.4V16.84C102.899 16.7529 102.076 16.0794 102.076 14.9504C102.076 13.8215 102.899 13.1461 104.4 13.0589V12.6152H105.344V13.053C106.839 13.1401 107.664 13.8195 107.664 14.9504C107.664 16.0814 106.845 16.7727 105.344 16.8459ZM104.4 16.0537V13.8353C103.5 13.9165 103.069 14.2691 103.069 14.9425C103.069 15.6159 103.545 15.9744 104.4 16.0616V16.0537ZM106.674 14.9366C106.674 14.2691 106.226 13.9106 105.344 13.8353V16.0537C106.238 15.9824 106.674 15.6159 106.674 14.9445V14.9366Z" fill="white"/>
<path d="M108.424 14.9657C108.424 13.6802 109.45 12.7295 110.849 12.7295C112.248 12.7295 113.276 13.6743 113.276 14.9657C113.276 16.2571 112.25 17.1979 110.849 17.1979C109.447 17.1979 108.424 16.2472 108.424 14.9657ZM112.236 14.9657C112.229 14.6996 112.142 14.4415 111.986 14.2235C111.829 14.0055 111.61 13.8374 111.356 13.7401C111.102 13.6429 110.825 13.6208 110.558 13.6768C110.291 13.7327 110.047 13.8641 109.856 14.0546C109.666 14.2451 109.537 14.4861 109.486 14.7476C109.436 15.009 109.465 15.2793 109.571 15.5245C109.677 15.7697 109.855 15.9791 110.082 16.1263C110.309 16.2735 110.576 16.3521 110.849 16.3521C111.035 16.357 111.221 16.3242 111.394 16.2558C111.567 16.1874 111.723 16.0849 111.853 15.9547C111.984 15.8245 112.085 15.6694 112.151 15.4992C112.217 15.329 112.246 15.1474 112.236 14.9657Z" fill="white"/>
<path d="M118.323 12.7988V17.1246H117.307V15.342H115.292V17.1246H114.265V12.7988H115.292V14.5042H117.307V12.7988H118.323Z" fill="white"/>
<path d="M124.205 16.3086V18.0199H123.254V17.1246H120.124V18.0199H119.174V16.3086H119.359C119.933 16.2888 120.08 15.3638 120.124 14.1516L120.175 12.7988H123.583V16.3086H124.205ZM120.587 16.3086H122.57V13.6149H121.048L121.03 14.2447C120.983 15.1637 120.89 15.956 120.587 16.3086Z" fill="white"/>
<path d="M128.336 16.1977H126.277L125.885 17.1246H124.843L126.819 12.7988H127.834L129.817 17.1246H128.74L128.336 16.1977ZM128.013 15.4371L127.308 13.7773L126.606 15.4331L128.013 15.4371Z" fill="white"/>
<path d="M33.5613 22.7957H32.8524V24.5386H31.8369V20.2148H32.8524V21.9618H33.5856L34.7515 20.2148H35.836L34.3838 22.2945L35.8828 24.5386H34.719L33.5613 22.7957Z" fill="white"/>
<path d="M40.9601 20.2148L39.0712 23.6374C38.7036 24.3049 38.1776 24.6377 37.5825 24.6377C37.3344 24.6349 37.0894 24.5844 36.8614 24.4891L37.1072 23.7286C37.2506 23.7768 37.4004 23.8041 37.552 23.8098C37.6784 23.8074 37.8017 23.7717 37.909 23.7065C38.0163 23.6413 38.1034 23.549 38.1613 23.4394L38.1999 23.3899L36.4512 20.2208H37.5479L38.7259 22.5441L39.9446 20.2208L40.9601 20.2148Z" fill="white"/>
<path d="M45.4409 20.2148V24.5386H44.4254V21.0289H42.9061L42.8736 21.9321C42.8168 23.6315 42.571 24.606 41.5311 24.606C41.3604 24.6027 41.1907 24.5801 41.0254 24.5386L41.0884 23.6929C41.1478 23.7095 41.2093 23.7175 41.2711 23.7167C41.7911 23.7167 41.9251 23.0749 41.9678 21.9697L42.0328 20.2148H45.4409Z" fill="white"/>
<path d="M50.5444 23.0314C50.5444 24.0217 49.86 24.5386 48.7165 24.5386H46.7139V20.2148H47.7294V21.635H48.8587C49.9371 21.635 50.5444 22.0965 50.5444 23.0314ZM49.5126 23.0492C49.5126 22.5738 49.1958 22.3758 48.6637 22.3758H47.7375V23.7979H48.6637C49.1897 23.7979 49.5126 23.5384 49.5126 23.0492Z" fill="white"/>
<path d="M54.4791 21.0289H53.0574V24.5386H52.0418V21.0289H50.6201V20.2148H54.4649L54.4791 21.0289Z" fill="white"/>
<path d="M59.5827 20.2148L57.6958 23.6374C57.3282 24.3049 56.8022 24.6377 56.2071 24.6377C55.9584 24.6347 55.7128 24.5842 55.484 24.4891L55.7318 23.7286C55.8745 23.7766 56.0237 23.804 56.1746 23.8098C56.303 23.8093 56.4288 23.7745 56.5384 23.7092C56.6479 23.6439 56.7371 23.5506 56.7961 23.4394L56.8347 23.3899L55.0859 20.2208H56.1929L57.3709 22.5441L58.5895 20.2208L59.5827 20.2148Z" fill="white"/>
<path d="M64.2461 21.7835C64.2461 22.7481 63.5068 23.3463 62.3207 23.3463H61.4291V24.5347H60.4014V20.2148H62.3207C63.5048 20.2148 64.2461 20.813 64.2461 21.7835ZM63.2083 21.7835C63.2083 21.3082 62.8914 21.0289 62.2638 21.0289H61.4291V22.5302H62.2638C62.8955 22.5302 63.2083 22.253 63.2083 21.7835Z" fill="white"/>
<path d="M69.2058 20.2148V24.5386H68.1761V22.756H66.1653V24.5386H65.1396V20.2148H66.1653V21.9202H68.1761V20.2148H69.2058Z" fill="white"/>
<path d="M74.3081 23.0314C74.3081 24.0217 73.6236 24.5386 72.4802 24.5386H70.4775V20.2148H71.4931V21.635H72.6203C73.7008 21.635 74.3081 22.0965 74.3081 23.0314ZM73.2763 23.0492C73.2763 22.5738 72.9595 22.3758 72.4273 22.3758H71.5032V23.7979H72.4273C72.9534 23.7979 73.2763 23.5384 73.2763 23.0492ZM74.8788 20.2148H75.8943V24.5386H74.8788V20.2148Z" fill="white"/>
<path d="M78.0147 20.2148L78.9347 21.5241L79.8528 20.2148H81.0551L79.5806 22.2945L81.175 24.5386H79.9564L78.9408 23.1046L77.9253 24.5386H76.7412L78.3254 22.3262L76.8428 20.2148H78.0147Z" fill="white"/>
<path d="M84.2217 20.2148H85.2372V23.0314L87.3515 20.2148H88.3142V24.5386H87.2987V21.7281L85.1844 24.5386H84.2217V20.2148Z" fill="white"/>
<path d="M93.6576 20.2148V24.5386H92.642V22.756H90.6272V24.5386H89.6016V20.2148H90.6272V21.9202H92.642V20.2148H93.6576Z" fill="white"/>
<path d="M94.9357 20.2148H95.9512V23.0314L98.0655 20.2148H99.0303V24.5386H98.0148V21.7281L95.9004 24.5386H94.9316L94.9357 20.2148Z" fill="white"/>
<path d="M104.957 23.7226V25.4636H104.012V24.5485H100.308V20.2148H101.323V23.7226H103.314V20.2148H104.329V23.7226H104.957Z" fill="white"/>
<path d="M105.853 20.2148H106.868V23.0314L108.984 20.2148H109.947V24.5386H108.932V21.7281L106.815 24.5386H105.853V20.2148Z" fill="white"/>
<path d="M114.281 23.6117H112.223L111.829 24.5386H110.779L112.756 20.2148H113.771L115.753 24.5386H114.677L114.281 23.6117ZM113.958 22.8531L113.265 21.1973L112.563 22.8531H113.958Z" fill="white"/>
<path d="M119.464 21.0289H118.042V24.5386H117.027V21.0289H115.615V20.2148H119.46L119.464 21.0289Z" fill="white"/>
<path d="M120.31 20.2148H121.325V23.0314L123.442 20.2148H124.404V24.5386H123.389V21.7281L121.273 24.5386H120.304L120.31 20.2148Z" fill="white"/>
<path d="M129.591 23.3225C129.591 24.0752 128.982 24.5386 127.867 24.5386H125.682V20.2148H127.747C128.773 20.2148 129.382 20.611 129.382 21.3319C129.386 21.5335 129.328 21.7316 129.217 21.9012C129.105 22.0708 128.944 22.2043 128.755 22.2846C128.997 22.3336 129.214 22.4646 129.367 22.6545C129.521 22.8444 129.6 23.0811 129.591 23.3225ZM126.701 22.0054H127.658C128.103 22.0054 128.336 21.8271 128.336 21.4805C128.336 21.1339 128.103 20.9556 127.658 20.9556H126.701V22.0054ZM128.552 23.2413C128.552 22.8769 128.306 22.7045 127.83 22.7045H126.701V23.7979H127.83C128.306 23.7979 128.552 23.6176 128.552 23.2413Z" fill="white"/>
</svg>
