<svg width="197" height="60" viewBox="0 0 197 60" fill="none" xmlns="http://www.w3.org/2000/svg">
<g clip-path="url(#clip0_516_5014)">
<mask id="mask0_516_5014" style="mask-type:luminance" maskUnits="userSpaceOnUse" x="0" y="-10" width="197" height="80">
<path d="M196.902 -9.13086H0.0986328V69.13H196.902V-9.13086Z" fill="white"/>
</mask>
<g mask="url(#mask0_516_5014)">
<mask id="mask1_516_5014" style="mask-type:luminance" maskUnits="userSpaceOnUse" x="0" y="-10" width="197" height="80">
<path d="M196.811 -9.13086H0.0986328V69.13H196.811V-9.13086Z" fill="white"/>
</mask>
<g mask="url(#mask1_516_5014)">
<path d="M176.631 34.3213C176.834 33.3234 176.936 32.3139 176.981 31.293H170.87C171.039 32.2004 171.13 33.1419 171.13 34.072C171.13 36.4879 170.543 38.7677 169.517 40.7864C170.758 41.6711 171.581 43.1229 171.581 44.7675C171.581 47.4671 169.405 49.6561 166.722 49.6561C165.087 49.6561 163.644 48.8281 162.753 47.5806C160.747 48.6011 158.481 49.2022 156.079 49.2022C155.144 49.2022 154.219 49.1118 153.317 48.9416V59.002C154.231 59.1041 155.155 59.1609 156.079 59.1609C162.956 59.1609 169.179 56.3251 173.666 51.7656C178.153 47.2969 180.949 41.1268 181.016 34.3099H176.631V34.3213Z" fill="white"/>
<path d="M169.517 40.7965C168.728 40.2295 167.77 39.9004 166.721 39.9004C164.038 39.9004 161.862 42.0897 161.862 44.789C161.862 45.8439 162.201 46.8081 162.753 47.6017C164.207 46.8644 165.537 45.9007 166.665 44.7436C167.826 43.5982 168.784 42.2596 169.517 40.7965Z" fill="white"/>
<path d="M178.085 9.402C172.764 3.92374 165.358 0.509766 157.162 0.509766C155.865 0.509766 154.591 0.611857 153.317 0.781957V7.47385C155.313 6.95212 157.399 6.66854 159.552 6.66854V10.6383C162.381 10.9899 165.019 11.954 167.342 13.3944C167.466 13.2357 167.579 13.0769 167.725 12.9294C169.619 11.024 172.697 11.024 174.591 12.9294C176.485 14.8349 176.485 17.9313 174.591 19.8368C174.444 19.9842 174.275 20.0977 174.117 20.2338C175.955 23.2054 177.037 26.6988 177.037 30.4529C177.037 30.7366 177.003 31.0089 176.992 31.2922H180.881C180.983 32.211 181.039 33.1411 181.039 34.0713C181.039 34.1507 181.039 34.2301 181.028 34.3096H186.665C186.834 33.0277 186.935 31.7461 186.935 30.4415C186.924 22.2187 183.531 14.7555 178.085 9.402Z" fill="white"/>
<path d="M167.331 13.3945C165.843 15.3113 165.956 18.0788 167.714 19.8368C169.461 21.5949 172.201 21.7083 174.106 20.2338C173.249 18.8501 172.246 17.5684 171.096 16.4456C169.969 15.2773 168.706 14.2565 167.331 13.3945Z" fill="white"/>
<path d="M159.551 10.6375C158.762 10.5354 157.973 10.4787 157.161 10.4787C155.865 10.4787 154.58 10.6262 153.317 10.8757V7.48438C149.067 8.60726 145.256 10.8643 142.246 13.8927C137.816 18.3502 135.065 24.509 135.065 31.3028H144.964C144.964 29.0118 145.505 26.8454 146.44 24.9173C145.2 24.0326 144.389 22.5808 144.389 20.9362C144.389 18.2368 146.564 16.0477 149.247 16.0477C150.882 16.0477 152.314 16.8644 153.204 18.112C155.132 17.1706 157.274 16.6262 159.551 16.6262V10.6375Z" fill="white"/>
<path d="M146.44 24.9069C147.23 25.474 148.199 25.8142 149.247 25.8142C151.931 25.8142 154.106 23.6252 154.106 20.9258C154.106 19.871 153.768 18.8955 153.204 18.1016C151.728 18.8161 150.386 19.7689 149.247 20.9258C148.098 22.0827 147.151 23.4324 146.44 24.9069Z" fill="white"/>
<path d="M9.91699 44.7677V37.9512H12.9271C13.2427 37.9512 13.5246 37.9852 13.7951 38.042C14.0544 38.11 14.2912 38.2231 14.4941 38.3933C14.6519 38.5182 14.7872 38.6884 14.8999 38.904C15.0127 39.1079 15.069 39.3689 15.069 39.6639C15.0803 39.9813 15.024 40.2536 14.8999 40.5033C14.7872 40.7525 14.5843 40.9568 14.3024 41.1157C14.5053 41.1724 14.6745 41.2632 14.8097 41.3763C14.945 41.4897 15.0578 41.6259 15.1479 41.7848C15.2381 41.9436 15.2945 42.1025 15.3396 42.2837C15.3734 42.4653 15.396 42.6468 15.3847 42.8397C15.3734 43.1457 15.2945 43.4294 15.1367 43.6904C14.9901 43.951 14.7872 44.1553 14.5505 44.3255C14.2686 44.5294 13.953 44.6542 13.6035 44.6996C13.254 44.7563 12.9158 44.779 12.5776 44.779H9.91699V44.7677ZM12.5325 40.7185C12.6678 40.7185 12.8143 40.7071 12.9496 40.6958C13.0849 40.6844 13.2202 40.639 13.3442 40.5713C13.4456 40.5033 13.5358 40.4238 13.6035 40.3103C13.6711 40.1969 13.7162 40.072 13.7162 39.9245C13.7275 39.766 13.6937 39.6412 13.6373 39.5504C13.5809 39.4483 13.5133 39.3802 13.4231 39.3235C13.3216 39.2554 13.1976 39.2213 13.0736 39.21C12.9383 39.1987 12.803 39.1987 12.6565 39.1987H11.3037V40.7185H12.5325ZM11.3037 43.5429H12.5663C12.7467 43.5429 12.9496 43.5316 13.1525 43.5089C13.3554 43.4862 13.5358 43.4181 13.6824 43.316C13.7726 43.2479 13.8402 43.1571 13.9079 43.055C13.9642 42.9528 13.9981 42.817 13.9981 42.6582C13.9981 42.5107 13.9642 42.3858 13.9079 42.2837C13.8402 42.1816 13.7613 42.1025 13.6711 42.0571C13.5584 41.989 13.4344 41.9436 13.2991 41.9323C13.1638 41.921 13.0173 41.9096 12.8707 41.9096L11.3149 41.921V43.5429H11.3037Z" fill="white"/>
<path d="M18.2593 41.3423C18.2593 41.6256 18.2931 41.9093 18.3721 42.1813C18.451 42.4536 18.5525 42.6919 18.7103 42.8962C18.8568 43.1001 19.0485 43.2703 19.2852 43.3951C19.522 43.5199 19.7925 43.588 20.1194 43.588C20.5253 43.588 20.8635 43.4973 21.1341 43.3157C21.3934 43.1341 21.5625 42.8735 21.6301 42.5558H22.9717C22.9379 42.9303 22.8364 43.2703 22.6786 43.554C22.5095 43.8373 22.2953 44.0756 22.036 44.2685C21.7767 44.4614 21.4723 44.6086 21.1454 44.6993C20.8184 44.7901 20.469 44.8469 20.1082 44.8469C19.5783 44.8469 19.1161 44.7561 18.7103 44.5859C18.3044 44.416 17.9662 44.1777 17.6844 43.86C17.4025 43.5426 17.1996 43.1909 17.0531 42.76C16.9178 42.3402 16.8389 41.8753 16.8389 41.365C16.8389 40.8657 16.9065 40.4122 17.0531 39.981C17.1996 39.5502 17.4138 39.187 17.6844 38.8697C17.9662 38.5633 18.3044 38.3136 18.7103 38.1438C19.1161 37.9622 19.5783 37.8828 20.1082 37.8828C20.4802 37.8828 20.8297 37.9282 21.1454 38.019C21.4723 38.1098 21.7654 38.2456 22.0134 38.4271C22.2727 38.6087 22.4756 38.8583 22.6448 39.1416C22.8026 39.4367 22.9041 39.7771 22.9491 40.1852H21.6076C21.5399 39.8562 21.3708 39.5956 21.1116 39.4026C20.8522 39.2097 20.514 39.1189 20.1082 39.1189C19.7813 39.1189 19.4994 39.1757 19.2739 39.3005C19.0372 39.4253 18.8456 39.5842 18.699 39.7998C18.5525 40.0037 18.4397 40.242 18.3608 40.5143C18.2931 40.7749 18.2593 41.0586 18.2593 41.3423Z" fill="white"/>
<path d="M29.5444 37.9512V39.1873H26.0947V40.7752H29.1047V42.0231H26.0947V43.5316H29.5444V44.7677H24.708V37.9512H29.5444Z" fill="white"/>
<path d="M32.8812 37.9512L34.9105 41.161L36.9059 37.9512H38.394V44.7677H37.0074V40.0607L35.2036 43.0096H34.5835L32.7572 40.0607V44.7677H31.3818V37.9512H32.8812Z" fill="white"/>
<path d="M41.8778 42.3518L45.1923 37.9512H46.3086V44.7677H44.9216V40.4125L41.6075 44.7677H40.4912V37.9512H41.8778V42.3518Z" fill="white"/>
<path d="M51.0209 37.9504C51.427 37.9504 51.7988 37.9958 52.1259 38.0753C52.453 38.166 52.7346 38.3018 52.9715 38.4834C53.2083 38.6763 53.3771 38.9146 53.5012 39.2206C53.6253 39.527 53.6817 39.9011 53.6817 40.3436C53.6704 40.7291 53.6027 41.0695 53.4786 41.3642C53.3546 41.6592 53.1745 41.9089 52.9489 42.1131C52.7233 42.317 52.453 42.4645 52.1372 42.578C51.8214 42.6801 51.4834 42.7369 51.1112 42.7369H49.8036V44.7443H48.417V37.9277H51.0209V37.9504ZM51.0322 41.523C51.2014 41.523 51.3706 41.5003 51.5172 41.4549C51.6751 41.4096 51.7988 41.3419 51.9229 41.2397C52.0357 41.1376 52.1259 41.0241 52.2049 40.8879C52.2725 40.7518 52.3177 40.5816 52.3177 40.389C52.3289 39.9578 52.2161 39.6405 51.968 39.4703C51.7315 39.2887 51.4044 39.1979 51.0209 39.1979H49.7923V41.523H51.0322Z" fill="white"/>
<path d="M56.7469 40.7866H59.6103V37.9625H60.9972V44.779H59.6103V42.0231H56.7469V44.7677H55.3604V37.9512H56.7469V40.7866Z" fill="white"/>
<path d="M63.1064 44.7677V37.9512H64.493V40.4011H65.7897C66.2405 40.4011 66.6236 40.4579 66.962 40.56C67.3004 40.6617 67.5707 40.8433 67.7737 41.093C67.9091 41.2632 68.0219 41.467 68.1008 41.694C68.1794 41.921 68.2245 42.2043 68.2245 42.522C68.2132 42.9755 68.1346 43.3613 67.9655 43.6564C67.7963 43.9624 67.5707 44.1893 67.2891 44.3596C67.0522 44.5067 66.7702 44.6088 66.4548 44.6656C66.139 44.7223 65.801 44.7563 65.4401 44.7563H63.1064V44.7677ZM64.493 43.5429H65.4062C65.5867 43.5429 65.7672 43.5316 65.936 43.5089C66.1164 43.4862 66.2631 43.4408 66.4097 43.3613C66.5451 43.2819 66.6575 43.1798 66.7477 43.055C66.8379 42.9188 66.8718 42.749 66.8718 42.5333C66.8718 42.3404 66.8379 42.1816 66.759 42.0685C66.68 41.955 66.5902 41.8642 66.4774 41.7961C66.3646 41.7394 66.218 41.694 66.06 41.6713C65.9021 41.6486 65.7446 41.6373 65.5754 41.6373L64.4817 41.6486V43.5429H64.493ZM69.0926 37.9512H70.4796V44.7677H69.0926V37.9512Z" fill="white"/>
<path d="M73.9618 42.3518L77.2763 37.9511H78.3922V44.7677H77.0056V40.4124L73.6911 44.7677H72.5752V37.9511H73.9618V42.3518ZM75.5739 37.4972C75.0555 37.4972 74.6268 37.3728 74.2889 37.1118C73.9505 36.8508 73.7587 36.4654 73.6911 35.9434H74.8637C74.9539 36.3178 75.1904 36.4994 75.5852 36.4994C75.7657 36.4994 75.9232 36.454 76.0472 36.3519C76.1713 36.2611 76.2503 36.1136 76.2841 35.9434H77.4677C77.4004 36.4654 77.1861 36.8508 76.8477 37.1118C76.5097 37.3728 76.0811 37.4972 75.5739 37.4972Z" fill="white"/>
<path d="M86.4645 38.6412V37.6543H87.8511V38.6412H88.2007C88.6064 38.6412 88.9786 38.6979 89.3279 38.8114C89.6662 38.9249 89.9591 39.0833 90.196 39.3103C90.4328 39.5259 90.6246 39.7983 90.7483 40.1269C90.8836 40.456 90.94 40.8188 90.94 41.2386C90.9287 42.1007 90.6923 42.7471 90.2185 43.2006C89.7452 43.6432 89.0914 43.8698 88.2345 43.8811H87.8398V44.9474H86.4532V43.8811H86.1036C85.6866 43.8811 85.3144 43.8244 84.9764 43.7113C84.638 43.5978 84.3452 43.439 84.1083 43.212C83.8714 42.9964 83.6801 42.7244 83.556 42.3953C83.4207 42.0666 83.3643 41.7035 83.3643 41.284C83.3643 40.422 83.6124 39.7756 84.0857 39.3216C84.5591 38.8795 85.2133 38.6525 86.0697 38.6412H86.4645ZM86.4645 42.679V39.8092H86.0584C85.5964 39.8092 85.2471 39.9454 85.0328 40.2177C84.8185 40.4901 84.717 40.8528 84.7283 41.2954C84.7395 41.7149 84.8636 42.0439 85.1118 42.2932C85.3482 42.5429 85.6753 42.6677 86.1036 42.6677H86.4645V42.679ZM87.8623 39.8092V42.679H88.2684C88.7304 42.679 89.0801 42.5429 89.294 42.2705C89.5083 41.9986 89.6098 41.6468 89.5986 41.1933C89.5873 40.7734 89.4632 40.4447 89.2263 40.1837C88.9899 39.934 88.6628 39.7983 88.2345 39.7983H87.8623V39.8092Z" fill="white"/>
<path d="M97.48 37.9512V39.1873H94.0301V40.7752H97.0401V42.0231H94.0301V43.5316H97.48V44.7677H92.6436V37.9512H97.48Z" fill="white"/>
<path d="M100.263 41.3423C100.263 41.6256 100.297 41.9093 100.376 42.1813C100.455 42.4536 100.556 42.6919 100.714 42.8962C100.861 43.1001 101.052 43.2703 101.289 43.3951C101.526 43.5199 101.796 43.588 102.123 43.588C102.529 43.588 102.868 43.4973 103.138 43.3157C103.397 43.1341 103.566 42.8735 103.634 42.5558H104.976C104.942 42.9303 104.84 43.2703 104.683 43.554C104.513 43.8373 104.299 44.0756 104.04 44.2685C103.781 44.4614 103.476 44.6086 103.149 44.6993C102.822 44.7901 102.473 44.8469 102.112 44.8469C101.582 44.8469 101.12 44.7561 100.714 44.5859C100.308 44.416 99.9703 44.1777 99.6883 43.86C99.4064 43.5426 99.2037 43.1909 99.0571 42.76C98.9217 42.3402 98.8428 41.8753 98.8428 41.365C98.8428 40.8657 98.9104 40.4122 99.0571 39.981C99.2037 39.5502 99.4176 39.187 99.6883 38.8697C99.9703 38.5633 100.308 38.3136 100.714 38.1438C101.12 37.9622 101.582 37.8828 102.112 37.8828C102.484 37.8828 102.834 37.9282 103.149 38.019C103.476 38.1098 103.769 38.2456 104.017 38.4271C104.277 38.6087 104.48 38.8583 104.649 39.1416C104.806 39.4367 104.908 39.7771 104.953 40.1852H103.612C103.544 39.8562 103.375 39.5956 103.116 39.4026C102.856 39.2097 102.518 39.1189 102.112 39.1189C101.785 39.1189 101.503 39.1757 101.278 39.3005C101.041 39.4253 100.849 39.5842 100.703 39.7998C100.556 40.0037 100.444 40.242 100.365 40.5143C100.297 40.7749 100.263 41.0586 100.263 41.3423Z" fill="white"/>
<path d="M106.216 39.1971V37.9609H111.852V39.1971H109.733V44.7661H108.346V39.1971H106.216Z" fill="white"/>
<path d="M114.773 42.3518L118.087 37.9512H119.203V44.7677H117.817V40.4125L114.502 44.7677H113.386V37.9512H114.773V42.3518Z" fill="white"/>
<path d="M121.3 44.7677V37.9512H124.299C124.614 37.9512 124.896 37.9852 125.167 38.042C125.437 38.11 125.663 38.2231 125.866 38.3933C126.023 38.5182 126.159 38.6884 126.272 38.904C126.384 39.1079 126.441 39.3689 126.441 39.6639C126.441 39.9813 126.396 40.2536 126.272 40.5033C126.148 40.7525 125.956 40.9568 125.674 41.1157C125.866 41.1724 126.046 41.2632 126.181 41.3763C126.317 41.4897 126.43 41.6259 126.519 41.7848C126.61 41.9436 126.666 42.1025 126.711 42.2837C126.745 42.4653 126.768 42.6468 126.756 42.8397C126.745 43.1457 126.666 43.4294 126.508 43.6904C126.362 43.951 126.159 44.1553 125.922 44.3255C125.64 44.5294 125.313 44.6542 124.975 44.6996C124.637 44.7563 124.287 44.779 123.949 44.779H121.3V44.7677ZM123.915 40.7185C124.051 40.7185 124.197 40.7071 124.332 40.6958C124.468 40.6844 124.603 40.639 124.727 40.5713C124.829 40.5033 124.919 40.4238 124.986 40.3103C125.054 40.1969 125.099 40.072 125.099 39.9245C125.11 39.766 125.076 39.6412 125.02 39.5504C124.964 39.4483 124.896 39.3802 124.806 39.3235C124.705 39.2554 124.581 39.2213 124.456 39.21C124.321 39.1987 124.186 39.1987 124.051 39.1987H122.686V40.7185H123.915ZM122.686 43.5429H123.949C124.13 43.5429 124.332 43.5316 124.535 43.5089C124.738 43.4862 124.919 43.4181 125.065 43.316C125.155 43.2479 125.223 43.1571 125.291 43.055C125.347 42.9528 125.381 42.817 125.381 42.6582C125.381 42.5107 125.347 42.3858 125.291 42.2837C125.223 42.1816 125.144 42.1025 125.054 42.0571C124.941 41.989 124.817 41.9436 124.682 41.9323C124.547 41.921 124.4 41.9096 124.253 41.9096L122.698 41.921V43.5429H122.686Z" fill="white"/>
<path d="M129.811 43.4732L129.326 44.7775H127.815L130.442 37.9609H132.009L134.591 44.7775H133.069L132.595 43.4732H129.811ZM130.217 42.2367H132.189L131.209 39.4354L130.217 42.2367Z" fill="white"/>
<path d="M138.267 39.1983C138.256 39.6181 138.245 40.049 138.245 40.4802C138.245 40.911 138.233 41.3422 138.211 41.7617C138.199 41.9206 138.199 42.0908 138.188 42.272C138.177 42.4535 138.166 42.6351 138.143 42.8167C138.12 42.9978 138.087 43.1794 138.042 43.361C137.997 43.5425 137.929 43.7124 137.85 43.8712C137.76 44.0415 137.636 44.189 137.5 44.3025C137.365 44.4159 137.219 44.5063 137.05 44.5858C136.892 44.6538 136.711 44.7106 136.531 44.7333C136.351 44.7673 136.159 44.7787 135.967 44.7787H135.765V43.5425H135.888C136.012 43.5425 136.114 43.5198 136.215 43.4745C136.306 43.4291 136.396 43.3723 136.464 43.3042C136.531 43.2361 136.587 43.1567 136.632 43.0659C136.677 42.9752 136.711 42.8961 136.723 42.8053C136.756 42.6578 136.79 42.4876 136.813 42.2947C136.835 42.1021 136.847 41.9092 136.847 41.705C136.858 41.5007 136.858 41.3082 136.869 41.1153C136.869 40.9224 136.881 40.7521 136.892 40.5933C136.903 40.1738 136.914 39.743 136.903 39.3231C136.903 38.8923 136.903 38.4384 136.914 37.9395H141.706V44.756H140.319V39.1869H138.267V39.1983Z" fill="white"/>
<path d="M143.813 44.7677V37.9512H145.2V40.4011H146.778C147.23 40.4011 147.613 40.4579 147.951 40.56C148.278 40.6617 148.548 40.8433 148.751 41.0816C148.887 41.2518 149 41.4557 149.089 41.694C149.168 41.9323 149.214 42.2043 149.214 42.522C149.202 42.9755 149.123 43.3613 148.954 43.6564C148.785 43.9624 148.56 44.1893 148.278 44.3596C148.041 44.5067 147.759 44.6088 147.444 44.6656C147.128 44.7223 146.79 44.7563 146.44 44.7563H143.813V44.7677ZM145.2 43.5429H146.395C146.576 43.5429 146.745 43.5316 146.925 43.5089C147.094 43.4862 147.252 43.4408 147.399 43.3613C147.534 43.2819 147.646 43.1798 147.737 43.055C147.816 42.9188 147.861 42.749 147.861 42.5333C147.861 42.3404 147.827 42.1816 147.748 42.0685C147.669 41.955 147.579 41.8642 147.455 41.7961C147.331 41.728 147.196 41.694 147.038 41.6713C146.88 41.6486 146.722 41.6373 146.564 41.6373L145.2 41.6486V43.5429Z" fill="white"/>
<path d="M11.4393 48.9531L13.4686 52.163L15.464 48.9531H16.9521V55.7696H15.5655V51.0626L13.7617 54.0115H13.1417L11.3154 51.0626V55.7696H9.92871V48.9531H11.4393Z" fill="white"/>
<path d="M22.0597 48.873C22.5783 48.873 23.0406 48.9525 23.4577 49.1227C23.8748 49.2925 24.2243 49.5308 24.5061 49.8259C24.7879 50.1319 25.0134 50.495 25.16 50.9145C25.3178 51.3344 25.3855 51.8106 25.3855 52.3208C25.3855 52.8201 25.3066 53.285 25.16 53.7162C25.0021 54.147 24.7879 54.5215 24.5061 54.8275C24.2243 55.1453 23.8635 55.3836 23.4464 55.5647C23.0293 55.7463 22.5558 55.8257 22.0259 55.8144C21.4961 55.8144 21.0226 55.7236 20.6167 55.5534C20.1996 55.3722 19.8614 55.1339 19.5795 54.8275C19.2977 54.5215 19.0835 54.1584 18.9257 53.7276C18.7791 53.3077 18.7002 52.8428 18.7002 52.3435C18.7002 51.8333 18.7791 51.3571 18.9369 50.9372C19.0948 50.5064 19.3203 50.1432 19.6021 49.8372C19.8952 49.5308 20.2447 49.2925 20.6618 49.1227C21.0789 48.9525 21.5412 48.873 22.0597 48.873ZM20.1207 52.3322C20.1207 52.6272 20.1658 52.9109 20.2447 53.1715C20.3236 53.4325 20.4363 53.6708 20.5942 53.8747C20.752 54.079 20.955 54.2492 21.1917 54.374C21.4284 54.4988 21.7216 54.5669 22.0485 54.5669C22.3641 54.5783 22.6347 54.5215 22.8827 54.3967C23.1195 54.2832 23.3224 54.113 23.4802 53.9087C23.638 53.7049 23.762 53.4552 23.841 53.1829C23.9199 52.9109 23.965 52.6272 23.965 52.3322C23.965 52.0489 23.9199 51.7652 23.841 51.4932C23.762 51.2209 23.638 50.9826 23.4915 50.7783C23.3337 50.5744 23.1308 50.4042 22.894 50.2794C22.6573 50.1546 22.3641 50.0978 22.0485 50.0978C21.7328 50.0978 21.451 50.1546 21.2029 50.2794C20.9662 50.4042 20.7633 50.5631 20.6055 50.767C20.4476 50.9712 20.3236 51.2095 20.2447 51.4705C20.1658 51.7538 20.1207 52.0375 20.1207 52.3322Z" fill="white"/>
<path d="M28.9803 50.2002C28.969 50.6201 28.9578 51.0509 28.9578 51.4821C28.9578 51.913 28.9465 52.3438 28.9239 52.7637C28.9126 52.9225 28.9126 53.0928 28.9014 53.2739C28.8901 53.4555 28.8788 53.6371 28.8563 53.8186C28.8337 53.9998 28.7999 54.1814 28.7548 54.3629C28.7097 54.5445 28.6421 54.7143 28.5632 54.8732C28.473 55.0434 28.349 55.1909 28.2137 55.3044C28.0784 55.4179 27.9319 55.5083 27.7628 55.5877C27.6049 55.6558 27.4245 55.7125 27.2442 55.7352C27.0638 55.7693 26.8721 55.7806 26.6805 55.7806H26.4775V54.5445H26.6016C26.7256 54.5445 26.827 54.5218 26.9285 54.4764C27.0299 54.431 27.1089 54.3743 27.1765 54.3062C27.2442 54.2381 27.3005 54.1587 27.3456 54.0679C27.3907 53.9771 27.4245 53.8977 27.4358 53.8073C27.4696 53.6598 27.5034 53.4895 27.526 53.2966C27.5486 53.1041 27.5598 52.9112 27.5598 52.7069C27.5711 52.5027 27.5711 52.3101 27.5824 52.1172C27.5824 51.9243 27.5936 51.7541 27.6049 51.5952C27.6162 51.1758 27.6275 50.7449 27.6162 50.3251C27.6162 49.8942 27.6162 49.4403 27.6275 48.9414H32.4187V55.7579H31.0321V50.1889H28.9803V50.2002Z" fill="white"/>
<path d="M37.5363 48.873C38.0549 48.873 38.5171 48.9525 38.9342 49.1227C39.3515 49.2925 39.7008 49.5308 39.9828 49.8259C40.2644 50.1319 40.4899 50.495 40.6366 50.9145C40.7945 51.3344 40.8621 51.8106 40.8621 52.3208C40.8621 52.8201 40.7832 53.285 40.6366 53.7162C40.4787 54.147 40.2644 54.5215 39.9828 54.8275C39.7008 55.1453 39.3402 55.3836 38.9229 55.5647C38.5058 55.7463 38.0323 55.8257 37.5025 55.8144C36.9726 55.8144 36.4991 55.7236 36.0933 55.5534C35.6761 55.3722 35.3379 55.1339 35.0561 54.8275C34.7742 54.5215 34.5601 54.1584 34.4022 53.7276C34.2557 53.3077 34.1768 52.8428 34.1768 52.3435C34.1768 51.8333 34.2557 51.3571 34.4135 50.9372C34.5713 50.5064 34.7968 50.1432 35.0786 49.8372C35.3717 49.5308 35.7212 49.2925 36.1384 49.1227C36.5555 48.9525 37.029 48.873 37.5363 48.873ZM35.6085 52.3322C35.6085 52.6272 35.6536 52.9109 35.7325 53.1715C35.8114 53.4325 35.9241 53.6708 36.082 53.8747C36.2398 54.079 36.4428 54.2492 36.6795 54.374C36.9162 54.4988 37.2094 54.5669 37.5363 54.5669C37.852 54.5783 38.1225 54.5215 38.3705 54.3967C38.6073 54.2832 38.8102 54.113 38.968 53.9087C39.1259 53.7049 39.25 53.4552 39.329 53.1829C39.4075 52.9109 39.4526 52.6272 39.4526 52.3322C39.4526 52.0489 39.4075 51.7652 39.329 51.4932C39.25 51.2209 39.1259 50.9826 38.9793 50.7783C38.8215 50.5744 38.6186 50.4042 38.3818 50.2794C38.1451 50.1546 37.852 50.0978 37.5363 50.0978C37.2206 50.0978 36.9388 50.1546 36.6907 50.2794C36.454 50.4042 36.2511 50.5631 36.0933 50.767C35.9354 50.9712 35.8114 51.2095 35.7325 51.4705C35.6423 51.7538 35.6085 52.0375 35.6085 52.3322Z" fill="white"/>
<path d="M48.8789 57.4937H47.5149V55.7696H43.3435V57.4937H41.9795V54.5449H42.2276C42.3404 54.5449 42.4419 54.5335 42.5205 54.5108C42.5995 54.4881 42.6784 54.4541 42.7461 54.3973C42.7912 54.352 42.8363 54.2952 42.8702 54.2158C42.904 54.1363 42.9266 54.0569 42.9491 53.9775C42.9717 53.8984 42.983 53.8076 42.9942 53.7282C43.0055 53.6488 43.0168 53.5693 43.0281 53.5013C43.0619 53.0818 43.0957 52.6392 43.107 52.197C43.1183 51.7545 43.1409 51.3237 43.1521 50.8924C43.1747 50.2573 43.186 49.6109 43.186 48.9531H48.0672V54.5335H48.8902V57.4937H48.8789ZM46.6693 54.5449V50.2006H44.4936L44.4372 52.3896C44.4372 52.5371 44.4372 52.7073 44.4259 52.9002C44.4146 53.0931 44.4034 53.2857 44.3921 53.4899C44.3695 53.6942 44.347 53.8871 44.3131 54.0683C44.2793 54.2498 44.2342 54.42 44.1778 54.5449H46.6693Z" fill="white"/>
<path d="M55.2827 48.9522V50.1883H51.8329V51.7762H54.8432V53.0241H51.8329V54.5326H55.2827V55.7687H50.4463V48.9522H55.2827ZM51.7543 46.8086C51.9908 46.8086 52.1938 46.8763 52.3517 47.0238C52.5096 47.16 52.5769 47.3529 52.5769 47.6025C52.5769 47.8405 52.4983 48.0447 52.3517 48.1809C52.1938 48.3284 52.002 48.3965 51.7543 48.3965C51.5174 48.3965 51.3144 48.3284 51.1565 48.1809C50.999 48.0334 50.9313 47.8405 50.9313 47.6025C50.9313 47.3642 51.0099 47.1713 51.1565 47.0238C51.3144 46.8763 51.5174 46.8086 51.7543 46.8086ZM54.0766 46.8086C54.3131 46.8086 54.5161 46.8763 54.6741 47.0238C54.832 47.16 54.8992 47.3529 54.8992 47.6025C54.8992 47.8405 54.8207 48.0447 54.6741 48.1809C54.5161 48.3284 54.3244 48.3965 54.0766 48.3965C53.8285 48.3965 53.6255 48.3284 53.4788 48.1809C53.3213 48.0334 53.2537 47.8405 53.2537 47.6025C53.2537 47.3642 53.3326 47.1713 53.4788 47.0238C53.6255 46.8763 53.8172 46.8086 54.0766 46.8086Z" fill="white"/>
<path d="M61.8431 53.0023V55.7696H60.4561V53.0023H59.6557L58.1789 55.7696H56.6006L58.5737 52.2197L56.6344 48.9531H58.224L59.7685 51.7658H60.4561V48.9531H61.8431V51.7658H62.5195L64.0752 48.9531H65.6535L63.7256 52.2197L65.6874 55.7696H64.1091L62.6323 53.0023H61.8431Z" fill="white"/>
<path d="M68.5848 53.3537L71.8993 48.9531H73.0152V55.7696H71.6286V51.4144L68.3141 55.7696H67.1982V48.9531H68.5848V53.3537Z" fill="white"/>
<path d="M79.69 53.0577C79.8475 52.9329 79.9942 52.7967 80.1521 52.6492C80.31 52.5017 80.4566 52.3428 80.6029 52.1843C80.7495 52.0368 80.8736 51.8779 80.9751 51.7077C81.0766 51.5375 81.133 51.345 81.1443 51.1294C81.1556 50.7889 81.0653 50.5397 80.8736 50.3694C80.6818 50.1992 80.4228 50.1198 80.107 50.1311C79.825 50.1425 79.5885 50.1992 79.408 50.3354C79.2276 50.4602 79.1261 50.6531 79.0922 50.8911H77.7959C77.8072 50.517 77.8974 50.1879 78.0666 49.9046C78.2354 49.6209 78.461 49.4053 78.743 49.235C78.946 49.1106 79.1712 49.0198 79.408 48.9744C79.6449 48.9177 79.9039 48.895 80.1746 48.895C80.8961 48.8837 81.4597 49.0766 81.877 49.4734C82.0575 49.6436 82.2037 49.8478 82.3053 50.0971C82.418 50.3467 82.4632 50.6304 82.4632 50.9705C82.4632 51.2088 82.4406 51.4471 82.3842 51.6623C82.3278 51.8779 82.2489 52.0822 82.1248 52.2637C82.0462 52.3882 81.9673 52.513 81.877 52.6151C81.7868 52.7173 81.7078 52.8194 81.6176 52.9102C81.5274 53.001 81.4371 53.0914 81.336 53.1821C81.2345 53.2729 81.1217 53.3751 81.0089 53.4772C80.7721 53.6814 80.5469 53.874 80.3326 54.0442C80.1182 54.2144 79.9152 54.3846 79.7239 54.5548H82.3729V55.791H77.8185V54.6566L79.69 53.0577Z" fill="white"/>
<path d="M86.7574 48.873C87.1518 48.873 87.5015 48.9411 87.8394 49.0773C88.1665 49.2131 88.4481 49.4174 88.685 49.7124C88.9219 49.9957 89.1023 50.3588 89.226 50.7897C89.3614 51.2209 89.4178 51.7425 89.4178 52.3435C89.4178 52.9563 89.3501 53.4779 89.226 53.9087C89.1023 54.34 88.9219 54.7027 88.6963 54.9864C88.4707 55.2701 88.1891 55.474 87.862 55.6101C87.5353 55.7463 87.1631 55.8144 86.7687 55.8144C86.3626 55.8144 86.0017 55.7463 85.675 55.6101C85.3479 55.474 85.0663 55.2701 84.8294 54.9864C84.5926 54.7027 84.4125 54.34 84.2884 53.9087C84.1644 53.4779 84.0967 52.945 84.0967 52.3435C84.0967 51.7425 84.1644 51.2209 84.2884 50.7897C84.4125 50.3588 84.5926 49.9957 84.8294 49.7124C85.0663 49.4287 85.3479 49.2131 85.675 49.0773C86.0017 48.9411 86.3626 48.873 86.7574 48.873ZM86.7574 54.5896C87.1631 54.5896 87.4902 54.4194 87.7154 54.0676C87.941 53.7162 88.065 53.1488 88.065 52.3435C88.065 51.5496 87.9522 50.9712 87.7154 50.6312C87.4902 50.2794 87.1631 50.1092 86.7574 50.1092C86.3401 50.1092 86.0243 50.2794 85.7991 50.6312C85.5735 50.9826 85.4607 51.5496 85.4607 52.3435C85.4607 53.1488 85.5735 53.7162 85.7991 54.0676C86.0243 54.4194 86.3514 54.5896 86.7574 54.5896Z" fill="white"/>
<path d="M92.6646 53.0577C92.8225 52.9329 92.9692 52.7967 93.1267 52.6492C93.2846 52.5017 93.4312 52.3428 93.5779 52.1843C93.7245 52.0368 93.8482 51.8779 93.9497 51.7077C94.0512 51.5375 94.1076 51.345 94.1189 51.1294C94.1302 50.7889 94.0399 50.5397 93.8482 50.3694C93.6568 50.1992 93.3974 50.1198 93.0816 50.1311C92.8 50.1425 92.5631 50.1992 92.3827 50.3354C92.2026 50.4602 92.1011 50.6531 92.0672 50.8911H90.7705C90.7818 50.517 90.872 50.1879 91.0412 49.9046C91.2104 49.6209 91.436 49.4053 91.7176 49.235C91.9206 49.1106 92.1462 49.0198 92.3827 48.9744C92.6195 48.9177 92.8789 48.895 93.1493 48.895C93.8707 48.8837 94.4347 49.0766 94.8516 49.4734C95.0321 49.6436 95.1787 49.8478 95.2803 50.0971C95.3927 50.3467 95.4378 50.6304 95.4378 50.9705C95.4378 51.2088 95.4152 51.4471 95.3588 51.6623C95.3028 51.8779 95.2239 52.0822 95.0998 52.2637C95.0208 52.3882 94.9419 52.513 94.8516 52.6151C94.7614 52.7173 94.6825 52.8194 94.5922 52.9102C94.5024 53.001 94.4121 53.0914 94.3106 53.1821C94.2091 53.2729 94.0963 53.3751 93.9835 53.4772C93.7471 53.6814 93.5215 53.874 93.3072 54.0442C93.0929 54.2144 92.8902 54.3846 92.6985 54.5548H95.3475V55.791H90.8495V54.6566L92.6646 53.0577Z" fill="white"/>
<path d="M101.594 53.297H102.36V54.4995H101.594V55.7696H100.23V54.4995H96.915V53.524L99.9367 48.9531H101.582V53.297H101.594ZM98.5046 53.297H100.241V50.5637L98.5046 53.297Z" fill="white"/>
</g>
</g>
</g>
<defs>
<clipPath id="clip0_516_5014">
<rect width="197" height="60" fill="white"/>
</clipPath>
</defs>
</svg>
