<svg width="243" height="40" viewBox="0 0 243 40" fill="none" xmlns="http://www.w3.org/2000/svg">
<path d="M78.4828 32.5574H81.4286V33.0529H78.4828V35.9804H77.9263V33.0529H74.9805V32.5574H77.9263V29.6299H78.4828V32.5574Z" fill="white"/>
<path d="M91.2847 30.6631L89.2245 36.7005H88.3112L86.62 31.8912L84.9288 36.7005H84.0309L81.9707 30.6631H83.0162L84.4952 35.4845L86.1465 30.6631H87.112L88.7632 35.4845L90.23 30.6631H91.2847Z" fill="white"/>
<path d="M98.1814 33.683C98.1814 35.5526 96.7946 36.8963 94.8759 36.8963C92.9725 36.8963 91.5703 35.5496 91.5703 33.683C91.5703 31.8134 92.9725 30.4697 94.8759 30.4697C96.7916 30.4667 98.1814 31.8134 98.1814 33.683ZM92.5758 33.683C92.5758 35.0693 93.5537 35.9691 94.8759 35.9691C96.1981 35.9691 97.1759 35.0662 97.1759 33.683C97.1759 32.2968 96.1981 31.3969 94.8759 31.3969C93.5537 31.3969 92.5758 32.2968 92.5758 33.683Z" fill="white"/>
<path d="M102.523 31.5637H102.339C101.044 31.5637 100.315 32.3754 100.315 33.865V36.7013H99.3652V30.6639H100.315V32.0227H100.343C100.595 31.1198 101.333 30.4814 102.366 30.4814H102.526V31.5637H102.523Z" fill="white"/>
<path d="M104.401 36.7011H103.451V27.5537H104.401V36.7011Z" fill="white"/>
<path d="M105.619 33.6832C105.619 31.6829 106.966 30.4699 108.645 30.4699C109.755 30.4699 110.536 30.9807 110.957 31.7376H110.985V27.5576H111.935V36.705H110.985V35.6349H110.957C110.533 36.3919 109.755 36.9026 108.645 36.9026C106.966 36.8965 105.619 35.6805 105.619 33.6832ZM111.037 33.6832C111.037 32.3517 110.164 31.3971 108.829 31.3971C107.495 31.3971 106.622 32.3517 106.622 33.6832C106.622 35.0147 107.495 35.9693 108.829 35.9693C110.164 35.9693 111.037 35.0147 111.037 33.6832Z" fill="white"/>
<path d="M81.2174 7.06934C84.7197 7.06934 87.5548 9.60773 87.5548 13.0703C87.5548 16.4994 84.6705 19.1047 81.3988 19.1047C79.8644 19.1047 78.3792 18.6761 77.263 17.4236H77.1308V26.1636H74.7969V14.0279C74.7969 9.79013 77.2661 7.06934 81.2174 7.06934ZM81.1866 17.0801C83.5051 17.0801 85.0887 15.2652 85.0887 13.0733C85.0887 10.8967 83.5389 9.10005 81.1866 9.10005C78.8189 9.10005 77.2169 10.8815 77.2169 13.0581C77.2169 15.2652 78.8496 17.0801 81.1866 17.0801Z" fill="white"/>
<path d="M89.7266 13.0885C89.7266 9.62597 92.6631 7.06934 96.1132 7.06934C99.5664 7.06934 102.5 9.62597 102.5 13.0885C102.5 16.5511 99.5633 19.1077 96.1132 19.1077C92.6601 19.1077 89.7266 16.5511 89.7266 13.0885ZM96.1132 17.0801C98.4471 17.0801 100.034 15.2986 100.034 13.0885C100.034 10.8785 98.4502 9.09701 96.1132 9.09701C93.7793 9.09701 92.1927 10.8602 92.1927 13.0885C92.1927 15.2986 93.7793 17.0801 96.1132 17.0801Z" fill="white"/>
<path d="M111.124 19.1077C107.456 19.1077 104.67 16.5693 104.67 13.0885C104.67 9.62597 107.388 7.06934 111.041 7.06934C113.842 7.06934 116.462 8.57109 117.13 11.4226H114.728C114.144 9.89045 112.745 9.09701 111.109 9.09701C108.64 9.09701 107.139 10.9119 107.139 13.1189C107.139 15.3625 108.689 17.077 111.158 17.077C112.76 17.077 114.211 16.3505 114.777 14.6845H117.194C116.327 17.7215 113.824 19.1077 111.124 19.1077Z" fill="white"/>
<path d="M125.849 17.4425L122.012 9.51118H121.944V18.8622H119.693V7.31934H123.279L127.082 15.2173H127.15L130.954 7.31934H134.539V18.8622H132.288V9.51118H132.221L128.386 17.4425H125.849Z" fill="white"/>
<path d="M137.043 13.0885C137.043 9.62597 139.98 7.06934 143.43 7.06934C146.883 7.06934 149.816 9.62597 149.816 13.0885C149.816 16.5511 146.88 19.1077 143.43 19.1077C139.976 19.1077 137.043 16.5511 137.043 13.0885ZM143.43 17.0801C145.764 17.0801 147.35 15.2986 147.35 13.0885C147.35 10.8785 145.767 9.09701 143.43 9.09701C141.096 9.09701 139.509 10.8602 139.509 13.0885C139.509 15.2986 141.096 17.0801 143.43 17.0801Z" fill="white"/>
<path d="M151.004 18.9584V16.569H151.053C151.502 16.569 152.052 16.3714 152.388 15.9914C152.821 15.5141 153.04 14.6568 153.27 13.4013L153.602 11.553C153.987 9.425 154.752 7.2666 157.99 7.2666H162.544V18.8581H160.21V9.4098H158.393C156.576 9.4098 156.191 9.90532 155.758 12.3616L155.456 14.0944C155.189 15.6783 154.789 17.0463 153.956 17.9188C153.322 18.5784 152.437 18.9584 151.253 18.9584H151.004Z" fill="white"/>
<path d="M165.129 13.0885C165.129 9.62597 168.065 7.06934 171.516 7.06934C174.969 7.06934 177.902 9.62597 177.902 13.0885C177.902 16.5511 174.966 19.1077 171.516 19.1077C168.065 19.1077 165.129 16.5511 165.129 13.0885ZM171.516 17.0801C173.849 17.0801 175.436 15.2986 175.436 13.0885C175.436 10.8785 173.853 9.09701 171.516 9.09701C169.179 9.09701 167.595 10.8602 167.595 13.0885C167.598 15.2986 169.182 17.0801 171.516 17.0801Z" fill="white"/>
<path d="M180.608 21.6649H178.357V16.7188H179.876C180.544 15.9771 180.894 14.8735 181.211 13.5359L181.712 11.3927C182.195 9.33163 183.096 7.27051 185.983 7.27051H190.519V16.7188H192.204V21.6649H189.953V18.862H180.611V21.6649H180.608ZM188.213 16.7675V9.38026H186.026C184.609 9.38026 184.126 10.502 183.84 11.6876L183.323 13.9129C183.041 15.1502 182.607 16.1716 182.173 16.6003V16.7644H188.213V16.7675Z" fill="white"/>
<path d="M200.356 19.1084C196.635 19.1084 193.936 16.57 193.936 13.0892C193.936 9.6266 196.654 7.06996 200.273 7.06996C203.074 7.06996 206.444 8.88484 206.444 13.2685V13.7458H196.269C196.518 15.6762 198.038 17.0776 200.338 17.0776C201.706 17.0776 203.339 16.5821 203.791 15.4117H206.192C205.457 17.9532 202.739 19.1084 200.356 19.1084ZM196.303 3.09668H198.72V5.48612H196.303V3.09668ZM204.009 11.9856C203.643 10.2376 202.275 9.06724 200.239 9.06724C198.204 9.06724 196.804 10.3197 196.371 11.9856H204.009ZM201.555 3.09668H203.972V5.48612H201.555V3.09668Z" fill="white"/>
<path d="M217.45 7.31934V11.9037H219.403L222.155 7.31934H224.722L221.303 12.8278L225.005 18.8622H222.385L219.433 13.9982H217.45V18.8622H215.248V13.9982H213.265L210.313 18.8622H207.693L211.396 12.8278L207.976 7.31934H210.544L213.296 11.9037H215.248V7.31934H217.45Z" fill="white"/>
<path d="M226.641 13.6669L226.607 7.31934H228.941L228.957 10.5995H229.024C230.008 9.41086 231.26 8.8363 232.76 8.8363C235.629 8.8363 237.948 10.9461 237.948 13.8979C237.948 16.8832 235.58 19.1085 232.327 19.1085C229.058 19.1085 226.657 16.8163 226.641 13.6669ZM232.278 17.0808C234.129 17.0808 235.479 15.7949 235.479 13.9982C235.479 12.2016 234.129 10.8822 232.278 10.8822C230.442 10.8822 229.092 12.2016 229.092 13.9982C229.092 15.7949 230.445 17.0808 232.278 17.0808Z" fill="white"/>
<path d="M47.8263 7.47168L46.8362 8.45056V10.5573C46.8362 10.5938 46.8362 10.6302 46.8393 10.6667C46.8177 18.2485 41.0737 24.4106 34.0137 24.4106C26.9536 24.4106 21.2096 18.2485 21.1881 10.6667V8.45056L20.1979 7.47168H5.05078V36.7013H11.2929V13.6429H15.1612C16.5541 23.2189 24.4783 30.5818 34.0106 30.5818C43.5429 30.5818 51.467 23.2189 52.86 13.6429H56.7283V36.7013H62.9704V7.47168H47.8263Z" fill="white"/>
</svg>
