<svg width="56" height="30" viewBox="0 0 56 30" fill="none" xmlns="http://www.w3.org/2000/svg">
<g clip-path="url(#clip0_593_3061)">
<mask id="mask0_593_3061" style="mask-type:luminance" maskUnits="userSpaceOnUse" x="-11" y="-11" width="78" height="52">
<path d="M66.5544 -10.165H-10.5V40.2734H66.5544V-10.165Z" fill="white"/>
</mask>
<g mask="url(#mask0_593_3061)">
<path d="M14.5811 10.0438V6.54797C14.3227 6.60995 13.8061 6.73391 12.9224 6.83557C12.6283 6.86904 12.0387 6.93722 11.129 6.93722C10.6742 6.93722 9.76455 6.93722 9.05758 6.52317C8.82151 6.38557 8.35061 6.10912 8.35061 5.40003C8.35061 5.16325 8.35061 4.69094 9.00691 4.32772C9.22567 4.20623 9.6632 3.96449 10.8423 3.96449C11.202 3.96449 11.9201 3.96449 12.9138 4.11697C13.245 4.1678 13.9075 4.26945 14.5811 4.48887V0.856642C14.2943 0.71532 13.7221 0.433915 12.737 0.240526C12.4095 0.176064 11.752 0.0458984 10.4888 0.0458984C10.0735 0.0458984 9.24297 0.0458984 8.24061 0.426477C7.90691 0.552923 7.23949 0.807056 6.53994 1.51615C6.30758 1.75292 5.84162 2.22524 5.46219 3.23929C5.33612 3.57772 5.08398 4.2521 5.08398 5.53639C5.08398 5.92441 5.08398 6.70168 5.45477 7.65623C5.57837 7.97482 5.82556 8.61077 6.5659 9.30251C6.79207 9.51449 7.22837 9.91987 8.15533 10.2781L14.523 10.0761C14.5427 10.0637 14.5638 10.0538 14.5811 10.0438Z" fill="white"/>
</g>
<mask id="mask1_593_3061" style="mask-type:luminance" maskUnits="userSpaceOnUse" x="-11" y="-11" width="78" height="52">
<path d="M66.5544 -10.165H-10.5V40.2734H66.5544V-10.165Z" fill="white"/>
</mask>
<g mask="url(#mask1_593_3061)">
<path d="M24.5863 9.43542C24.836 9.216 25.3353 8.77715 25.7481 7.81393C25.8853 7.49286 26.1609 6.85195 26.1609 5.58501C26.1609 5.15112 26.1609 4.28459 25.7481 3.2631C25.6109 2.92219 25.3353 2.24162 24.595 1.52385C24.3478 1.28459 23.8546 0.806079 22.8016 0.4255C22.4506 0.299054 21.7498 0.0449219 20.4533 0.0449219C20.0269 0.0449219 19.1741 0.0449218 18.121 0.4255C17.77 0.551947 17.0692 0.806079 16.319 1.51517C16.0694 1.75195 15.57 2.22426 15.1659 3.24575C15.0312 3.58666 14.7617 4.26724 14.7617 5.55153C14.7617 5.95691 14.7617 6.76765 15.1745 7.72963C15.3117 8.05071 15.5873 8.69286 16.3277 9.36848C16.4846 9.51228 16.743 9.74658 17.1817 9.98955L24.1636 9.76765C24.3021 9.67219 24.443 9.56186 24.5863 9.43542ZM22.1873 6.48872C22.0749 6.55319 21.8499 6.68335 21.405 6.77633C21.2567 6.80732 20.9588 6.8693 20.4533 6.8693C20.2852 6.8693 19.9478 6.8693 19.5016 6.76765C19.3533 6.73418 19.0554 6.666 18.7106 6.48005C18.5957 6.41806 18.3658 6.2941 18.1631 6.01517C18.0963 5.9222 17.9604 5.73624 17.9604 5.36558C17.9604 5.24162 17.9604 4.99368 18.1631 4.72343C18.2298 4.63294 18.3645 4.45319 18.7106 4.26724C18.8255 4.20525 19.0554 4.08129 19.5103 3.98831C19.6623 3.95732 19.9651 3.89533 20.4533 3.89533C20.6164 3.89533 20.9415 3.89533 21.3963 3.98831C21.5483 4.0193 21.8512 4.08129 22.1873 4.25856C22.2998 4.31806 22.5235 4.43583 22.7262 4.71476C22.7942 4.80773 22.9289 4.99368 22.9289 5.36434C22.9289 5.48831 22.9289 5.73624 22.7262 6.01393C22.6595 6.10938 22.5248 6.2941 22.1873 6.48872Z" fill="white"/>
</g>
<mask id="mask2_593_3061" style="mask-type:luminance" maskUnits="userSpaceOnUse" x="-11" y="-11" width="78" height="52">
<path d="M66.5544 -10.165H-10.5V40.2734H66.5544V-10.165Z" fill="white"/>
</mask>
<g mask="url(#mask2_593_3061)">
<path d="M40.6462 7.64533C40.7673 7.3069 41.0083 6.63252 41.0083 5.34823C41.0083 4.50401 41.0083 2.81558 39.6018 1.42963C39.1334 0.968475 38.1953 0.0449219 35.6876 0.0449219C35.3514 0.0449219 34.6778 0.044922 33.8781 0.289137C33.6112 0.370955 33.0785 0.534591 32.4642 0.973434C32.259 1.11971 31.8499 1.41228 31.4285 2.03707C31.2876 2.24534 31.007 2.66186 30.7722 3.40567H30.1319V0.214757H26.5625V9.69079L30.1319 9.57798V7.32426H30.7376C30.8673 7.80649 31.1096 8.70029 31.9624 9.51971L39.6921 9.27426C39.9368 9.01269 40.3273 8.53914 40.6462 7.64533ZM37.3549 6.6412C37.1361 6.77385 36.6986 7.0379 35.6876 7.0379C35.3563 7.0379 34.6938 7.0379 34.0289 6.62385C33.8077 6.48624 33.364 6.2098 33.364 5.43253C33.364 5.16228 33.364 4.62178 34.0128 4.25856C34.2291 4.13707 34.6617 3.89533 35.6888 3.89533C36.0373 3.89533 36.7332 3.89534 37.3722 4.28335C37.586 4.41228 38.0124 4.67137 38.0124 5.43128C38.0112 5.70401 38.0112 6.24451 37.3549 6.6412Z" fill="white"/>
</g>
<mask id="mask3_593_3061" style="mask-type:luminance" maskUnits="userSpaceOnUse" x="-11" y="-11" width="78" height="52">
<path d="M66.5544 -10.165H-10.5V40.2734H66.5544V-10.165Z" fill="white"/>
</mask>
<g mask="url(#mask3_593_3061)">
<path d="M50.3349 6.21866C50.2534 6.11453 50.0902 5.90627 49.7627 5.72899C49.6527 5.66949 49.4339 5.55172 49.1138 5.43395C49.3276 5.30999 49.754 5.06205 50.1582 4.51412C50.2929 4.33065 50.5623 3.96494 50.5623 3.05379C50.5623 2.75503 50.5623 2.15875 50.1582 1.58478C50.0235 1.39387 49.754 1.01081 49.0644 0.664944C48.8345 0.549655 48.3747 0.319077 47.465 0.183953C47.1622 0.139324 46.5554 0.0488281 45.5283 0.0488281C45.0685 0.0488281 44.1477 0.0488285 43.1454 0.294283C42.8117 0.376101 42.143 0.539738 41.3359 0.826101V3.69718C41.4645 3.65751 41.7228 3.57941 42.2196 3.48643C42.3853 3.45544 42.7165 3.39346 43.2294 3.32651C43.4012 3.3042 43.7423 3.25833 44.2318 3.22486C44.3949 3.2137 44.72 3.19139 45.0908 3.19139C45.3157 3.19139 45.7644 3.19139 46.2105 3.22486C46.3589 3.23602 46.6567 3.25833 46.9175 3.34263C47.004 3.37114 47.1783 3.42693 47.2883 3.56205C47.3254 3.60668 47.3983 3.69718 47.3983 3.9166C47.3983 3.98354 47.3983 4.11866 47.2883 4.24635C47.2525 4.2885 47.1795 4.3728 46.9941 4.4323C46.9323 4.45213 46.8087 4.4918 46.5653 4.5166C46.4837 4.52527 46.3205 4.54139 46.0511 4.54139H43.0205V6.56825H46.0177C46.1858 6.56825 46.5232 6.56825 46.8434 6.63519C46.9496 6.65751 47.1635 6.70214 47.3402 6.80379C47.3995 6.83726 47.517 6.90544 47.5763 7.02321C47.5961 7.06288 47.6356 7.14098 47.6356 7.24263C47.6356 7.29842 47.6356 7.41122 47.5429 7.54635C47.512 7.59098 47.4502 7.68147 47.2055 7.78313C47.1239 7.8166 46.9608 7.88478 46.5319 7.9356C46.3885 7.95296 46.103 7.98643 45.4121 7.98643C45.0759 7.98643 44.4023 7.98643 43.3827 7.91081C43.0428 7.88602 42.3643 7.83519 41.3372 7.59841V9.22486L50.5043 8.93354C50.5994 8.71784 50.6748 8.46866 50.7156 8.17238C50.749 7.9418 50.8169 7.47941 50.6983 7.00709C50.6575 6.84718 50.5784 6.53106 50.3349 6.21866Z" fill="white"/>
</g>
<mask id="mask4_593_3061" style="mask-type:luminance" maskUnits="userSpaceOnUse" x="-11" y="-11" width="78" height="52">
<path d="M66.5544 -10.165H-10.5V40.2734H66.5544V-10.165Z" fill="white"/>
</mask>
<g mask="url(#mask4_593_3061)">
<path d="M16.2858 10.666L10.9193 10.8359L10.1283 13.9189H9.70682L8.93188 10.8991L3.50975 11.0701L2.7002 19.0474L6.2548 19.1032L6.59222 15.321H7.01368L7.7639 19.1268L12.0588 19.1949L12.8227 15.321H13.2429L13.5914 19.2197L17.1596 19.2755L16.2858 10.666Z" fill="white"/>
</g>
<mask id="mask5_593_3061" style="mask-type:luminance" maskUnits="userSpaceOnUse" x="-11" y="-11" width="78" height="52">
<path d="M66.5544 -10.165H-10.5V40.2734H66.5544V-10.165Z" fill="white"/>
</mask>
<g mask="url(#mask5_593_3061)">
<path d="M18.2288 16.4448C18.1052 16.425 17.858 16.3853 17.5725 16.2502V19.2824L22.3445 19.3581C22.6547 19.099 23.0849 18.649 23.4828 17.7874L26.8632 10.332L23.0366 10.4535L21.9169 13.5824H21.4966L20.3571 10.5378L16.6641 10.6543L19.4573 16.4535C19.3906 16.4709 19.2559 16.5043 18.8678 16.5043C18.7788 16.5043 18.5983 16.5043 18.2288 16.4448Z" fill="white"/>
</g>
<mask id="mask6_593_3061" style="mask-type:luminance" maskUnits="userSpaceOnUse" x="-11" y="-11" width="78" height="52">
<path d="M66.5544 -10.165H-10.5V40.2734H66.5544V-10.165Z" fill="white"/>
</mask>
<g mask="url(#mask6_593_3061)">
<path d="M33.1908 10.1318L27.3336 10.3165L24.9482 19.3996L28.645 19.4579L30.0676 14.4261H30.5051L31.9413 19.5099L35.6689 19.5682L33.1908 10.1318Z" fill="white"/>
</g>
<mask id="mask7_593_3061" style="mask-type:luminance" maskUnits="userSpaceOnUse" x="-11" y="-11" width="78" height="52">
<path d="M66.5544 -10.165H-10.5V40.2734H66.5544V-10.165Z" fill="white"/>
</mask>
<g mask="url(#mask7_593_3061)">
<path d="M44.2853 18.8432C44.7005 18.48 45.5311 17.7535 45.5311 15.8457C45.5311 15.4688 45.5311 14.7138 45.1442 13.9539C45.0157 13.701 44.7574 13.194 44.0838 12.7378C43.8589 12.5853 43.4102 12.2816 42.5092 12.0882C42.2089 12.0238 41.6082 11.8936 40.565 11.8936H40.1189C40.0435 11.8936 39.8914 11.8936 39.622 11.9271V9.92871L36.0859 10.0403V19.5758L42.744 19.6812C43.2656 19.5225 43.802 19.2647 44.2853 18.8432ZM41.9691 16.5795C41.8146 16.6614 41.5056 16.825 40.4451 16.825C40.3895 16.825 40.2771 16.825 40.083 16.8076C40.0187 16.8014 39.889 16.7903 39.6195 16.7568V14.9667C39.6925 14.9605 39.8383 14.9494 40.0323 14.9419C40.0966 14.9395 40.2264 14.9333 40.4958 14.9333C40.8048 14.9333 41.4216 14.9333 41.9271 15.144C42.0951 15.2147 42.4326 15.3547 42.4326 15.8444C42.4326 16.008 42.4326 16.3353 41.9691 16.5795Z" fill="white"/>
</g>
<mask id="mask8_593_3061" style="mask-type:luminance" maskUnits="userSpaceOnUse" x="-11" y="-11" width="78" height="52">
<path d="M66.5544 -10.165H-10.5V40.2734H66.5544V-10.165Z" fill="white"/>
</mask>
<g mask="url(#mask8_593_3061)">
<path d="M45.0371 9.75613V13.1094H48.017V19.764L51.5704 19.8198V13.1094H54.701V9.45117L45.0371 9.75613Z" fill="white"/>
</g>
<mask id="mask9_593_3061" style="mask-type:luminance" maskUnits="userSpaceOnUse" x="-11" y="-11" width="78" height="52">
<path d="M66.5544 -10.165H-10.5V40.2734H66.5544V-10.165Z" fill="white"/>
</mask>
<g mask="url(#mask9_593_3061)">
<path d="M1.98469 28.1221C2.20345 28.3192 2.64098 28.7134 3.52469 29.0506C3.82008 29.1634 4.4084 29.389 5.41941 29.4894V30.0622H8.95547V29.4894C9.27559 29.456 9.91457 29.3878 10.7909 29.0593C11.0826 28.9502 11.6659 28.7295 12.3482 28.1394C12.5756 27.9423 13.0304 27.5481 13.4346 26.6791C13.5693 26.389 13.8387 25.8089 13.8387 24.6275C13.8387 24.2332 13.8387 23.4448 13.4346 22.5584C13.2999 22.2634 13.0304 21.6721 12.3482 21.0547C12.1208 20.8489 11.6659 20.4386 10.7909 20.0841C10.65 20.027 10.4399 19.9427 10.1556 19.8597L4.51345 19.7754C4.23165 19.8411 3.90783 19.9378 3.54199 20.0841C3.24783 20.2018 2.65828 20.4386 1.99334 21.0461C1.7721 21.2494 1.3284 21.6535 0.941541 22.5411C0.813002 22.8361 0.554688 23.4275 0.554688 24.6101C0.554688 25.0043 0.554687 25.7927 0.941541 26.6618C1.07008 26.9506 1.3284 27.5308 1.98469 28.1221ZM8.97278 23.1907C9.14087 23.1907 9.47828 23.1907 9.80581 23.301C9.91457 23.337 10.1346 23.4113 10.3274 23.6047C10.3917 23.6692 10.5214 23.7994 10.6055 24.0436C10.6339 24.1254 10.6895 24.2878 10.6895 24.5419C10.6895 24.7787 10.6895 25.251 10.252 25.6824C10.1061 25.8262 9.81446 26.1126 8.97278 26.1126V23.1907ZM3.78671 24.0944C3.81514 24.0076 3.87076 23.8328 4.07345 23.6295C4.14143 23.5626 4.27491 23.4262 4.60368 23.3084C4.71368 23.2688 4.9312 23.1907 5.42064 23.1907V26.0952C5.2575 26.0952 4.93244 26.0952 4.60368 25.9775C4.49368 25.9378 4.27491 25.8597 4.07345 25.6564C4.00547 25.5882 3.87075 25.4531 3.78671 25.1915C3.75828 25.1047 3.70267 24.9299 3.70267 24.6423C3.70267 24.5469 3.70266 24.356 3.78671 24.0944Z" fill="white"/>
</g>
<mask id="mask10_593_3061" style="mask-type:luminance" maskUnits="userSpaceOnUse" x="-11" y="-11" width="78" height="52">
<path d="M66.5544 -10.165H-10.5V40.2734H66.5544V-10.165Z" fill="white"/>
</mask>
<g mask="url(#mask10_593_3061)">
<path d="M14.126 19.918V29.6791H17.6114L19.778 25.4903H20.1265V29.6791H23.3252V20.0543L19.4381 19.9961L17.6719 23.3965H17.3382V19.9651L14.126 19.918Z" fill="white"/>
</g>
<mask id="mask11_593_3061" style="mask-type:luminance" maskUnits="userSpaceOnUse" x="-11" y="-11" width="78" height="52">
<path d="M66.5544 -10.165H-10.5V40.2734H66.5544V-10.165Z" fill="white"/>
</mask>
<g mask="url(#mask11_593_3061)">
<path d="M23.752 29.6789H27.0853L28.4647 24.2578H28.8589L30.2382 29.6789H33.5716L31.3259 20.1731L26.0162 20.0938L23.752 29.6789Z" fill="white"/>
</g>
<mask id="mask12_593_3061" style="mask-type:luminance" maskUnits="userSpaceOnUse" x="-11" y="-11" width="78" height="52">
<path d="M66.5544 -10.165H-10.5V40.2734H66.5544V-10.165Z" fill="white"/>
</mask>
<g mask="url(#mask12_593_3061)">
<path d="M33.957 20.2119V29.4599C34.6084 29.5615 35.9123 29.7636 38.0493 29.7636C38.7711 29.7636 40.2159 29.7636 41.3382 28.6739C41.7114 28.3107 42.4592 27.5842 42.4592 25.6764C42.4592 25.2995 42.4592 24.5446 42.1106 23.7846C41.9944 23.5317 41.7621 23.0247 41.1565 22.5685C40.9538 22.416 40.5509 22.1123 39.7388 21.9189C39.4682 21.8545 38.928 21.7243 37.9887 21.7243H37.587C37.5191 21.7243 37.3831 21.7243 37.1396 21.7578V20.259L33.957 20.2119ZM37.5104 24.7727C37.5685 24.7702 37.6847 24.764 37.9269 24.764C38.205 24.764 38.7599 24.764 39.2148 24.9747C39.3668 25.0454 39.6696 25.1855 39.6696 25.6751C39.6696 25.8388 39.6696 26.1648 39.2531 26.4103C39.1147 26.4921 38.8366 26.6557 37.8812 26.6557C37.8305 26.6557 37.7292 26.6557 37.5549 26.6384C37.4968 26.6322 37.3806 26.621 37.1384 26.5875V24.7975C37.2051 24.7925 37.3361 24.7813 37.5104 24.7727Z" fill="white"/>
</g>
<mask id="mask13_593_3061" style="mask-type:luminance" maskUnits="userSpaceOnUse" x="-11" y="-10" width="78" height="51">
<path d="M66.5544 -10H-10.5V40.4384H66.5544V-10Z" fill="white"/>
</mask>
<g mask="url(#mask13_593_3061)">
<path d="M42.3623 29.6794H45.5746L45.9392 25.1533H46.3174L47.1207 29.6794H50.7421L51.5454 25.1533H51.9249L52.2883 29.6794H55.5005L54.665 20.5194L49.8843 20.4488L49.1217 23.7513H48.7423L47.9723 20.4203L43.2139 20.3496L42.3623 29.6794Z" fill="white"/>
</g>
</g>
<defs>
<clipPath id="clip0_593_3061">
<rect width="55" height="30" fill="white" transform="translate(0.5)"/>
</clipPath>
</defs>
</svg>
