<svg width="169" height="60" viewBox="0 0 169 60" fill="none" xmlns="http://www.w3.org/2000/svg">
<g clip-path="url(#clip0_672_1592)">
<mask id="mask0_672_1592" style="mask-type:luminance" maskUnits="userSpaceOnUse" x="-44" y="-30" width="251" height="125">
<path d="M206.999 -29.4863H-43.2285V94.2474H206.999V-29.4863Z" fill="white"/>
</mask>
<g mask="url(#mask0_672_1592)">
<path d="M0.862846 58.502H18.9108C19.2674 58.502 19.5588 58.7934 19.5588 59.1499C19.5588 59.5065 19.2674 59.798 18.9108 59.798H0.862846C0.502846 59.798 0.214844 59.5065 0.214844 59.1499C0.214844 58.7934 0.506275 58.502 0.862846 58.502Z" fill="white"/>
</g>
<mask id="mask1_672_1592" style="mask-type:luminance" maskUnits="userSpaceOnUse" x="-44" y="-30" width="251" height="125">
<path d="M206.999 -29.4863H-43.2285V94.2474H206.999V-29.4863Z" fill="white"/>
</mask>
<g mask="url(#mask1_672_1592)">
<path d="M1.35008 48.3088L18.7672 53.0402C19.1135 53.1328 19.3158 53.4893 19.2232 53.8356C19.1306 54.1819 18.7741 54.3842 18.4278 54.2916L1.01065 49.5602C0.664361 49.4676 0.462074 49.111 0.554646 48.7648C0.647217 48.4185 1.00379 48.2128 1.35008 48.3088Z" fill="white"/>
</g>
<mask id="mask2_672_1592" style="mask-type:luminance" maskUnits="userSpaceOnUse" x="-44" y="-30" width="251" height="125">
<path d="M206.999 -29.4863H-43.2285V94.2474H206.999V-29.4863Z" fill="white"/>
</mask>
<g mask="url(#mask2_672_1592)">
<path d="M2.74472 36.672L17.755 46.7005C18.0533 46.8994 18.1322 47.3005 17.9333 47.5988C17.7344 47.8971 17.3333 47.976 17.035 47.7771L2.02815 37.752C1.72987 37.5531 1.65101 37.1485 1.84987 36.8537C2.04529 36.552 2.44644 36.4731 2.74472 36.672Z" fill="white"/>
</g>
<mask id="mask3_672_1592" style="mask-type:luminance" maskUnits="userSpaceOnUse" x="-44" y="-30" width="251" height="125">
<path d="M206.999 -29.4863H-43.2285V94.2474H206.999V-29.4863Z" fill="white"/>
</mask>
<g mask="url(#mask3_672_1592)">
<path d="M4.80626 23.2561L15.0303 38.1293C15.2325 38.4241 15.1571 38.8287 14.8623 39.031C14.5674 39.2332 14.1628 39.1578 13.9605 38.863L3.73654 23.9898C3.53426 23.695 3.60969 23.2904 3.90455 23.0881C4.1994 22.8858 4.60398 22.9613 4.80626 23.2561Z" fill="white"/>
</g>
<mask id="mask4_672_1592" style="mask-type:luminance" maskUnits="userSpaceOnUse" x="-44" y="-30" width="251" height="125">
<path d="M206.999 -29.4863H-43.2285V94.2474H206.999V-29.4863Z" fill="white"/>
</mask>
<g mask="url(#mask4_672_1592)">
<path d="M12.2215 12.6209L16.6718 30.1135C16.761 30.4598 16.5518 30.8129 16.2055 30.9021C15.8592 30.9912 15.5061 30.7786 15.417 30.4323L10.9667 12.9398C10.881 12.5935 11.0867 12.2403 11.4364 12.1512C11.7792 12.062 12.1324 12.2746 12.2215 12.6209Z" fill="white"/>
</g>
<mask id="mask5_672_1592" style="mask-type:luminance" maskUnits="userSpaceOnUse" x="-44" y="-30" width="251" height="125">
<path d="M206.999 -29.4863H-43.2285V94.2474H206.999V-29.4863Z" fill="white"/>
</mask>
<g mask="url(#mask5_672_1592)">
<path d="M20.8894 0.690998L20.838 18.739C20.838 19.0956 20.5466 19.387 20.1866 19.3836C19.83 19.3836 19.5386 19.0921 19.542 18.7356L19.59 0.687572C19.59 0.331 19.8814 0.0395701 20.2414 0.0429987C20.6014 0.0395701 20.8894 0.330999 20.8894 0.690998Z" fill="white"/>
</g>
<mask id="mask6_672_1592" style="mask-type:luminance" maskUnits="userSpaceOnUse" x="-44" y="-30" width="251" height="125">
<path d="M206.999 -29.4863H-43.2285V94.2474H206.999V-29.4863Z" fill="white"/>
</mask>
<g mask="url(#mask6_672_1592)">
<path d="M37.0954 18.1395C37.0954 18.647 36.6703 19.0687 36.1663 19.0687H34.7914C34.284 19.0687 33.8623 18.6435 33.8623 18.1395V5.84125C33.8623 5.33725 34.2874 4.91211 34.7914 4.91211H41.1206C41.628 4.91211 42.0497 5.33725 42.0497 5.84125V7.01382C42.0497 7.52125 41.6246 7.94639 41.1206 7.94639H37.0954V10.9395H40.5137C41.0212 10.9395 41.4429 11.3647 41.4429 11.8687V13.0413C41.4429 13.5487 41.0177 13.9704 40.5137 13.9704H37.0954V18.1395Z" fill="white"/>
</g>
<mask id="mask7_672_1592" style="mask-type:luminance" maskUnits="userSpaceOnUse" x="-44" y="-30" width="251" height="125">
<path d="M206.999 -29.4863H-43.2285V94.2474H206.999V-29.4863Z" fill="white"/>
</mask>
<g mask="url(#mask7_672_1592)">
<path d="M51.4408 4.66992C55.7505 4.66992 58.9665 7.48135 58.9665 11.9934C58.9665 16.2825 55.7505 19.3168 51.4408 19.3168C47.131 19.3168 43.915 16.5054 43.915 11.9934C43.915 7.88592 46.9322 4.66992 51.4408 4.66992ZM51.4408 16.2825C54.1322 16.2825 55.5276 14.3796 55.5276 11.9934C55.5276 9.40478 53.7276 7.70421 51.4408 7.70421C49.0956 7.70421 47.3539 9.40135 47.3539 11.9934C47.3539 14.4208 49.1745 16.2825 51.4408 16.2825Z" fill="white"/>
</g>
<mask id="mask8_672_1592" style="mask-type:luminance" maskUnits="userSpaceOnUse" x="-44" y="-30" width="251" height="125">
<path d="M206.999 -29.4863H-43.2285V94.2474H206.999V-29.4863Z" fill="white"/>
</mask>
<g mask="url(#mask8_672_1592)">
<path d="M70.1163 5.84125C70.1163 5.33725 70.5415 4.91211 71.0455 4.91211H72.4203C72.9243 4.91211 73.3495 5.33725 73.3495 5.84125V13.2264C73.3495 17.5533 70.5997 19.3155 67.5655 19.3155C63.9243 19.3155 61.3975 17.231 61.3975 13.0858V5.84468C61.3975 5.34068 61.8226 4.91554 62.3266 4.91554H63.7015C64.2055 4.91554 64.6306 5.34068 64.6306 5.84468V12.4001C64.6306 14.6047 65.2992 16.2847 67.5655 16.2847C69.5266 16.2847 70.1129 14.8481 70.1129 12.5818V5.84125H70.1163Z" fill="white"/>
</g>
<mask id="mask9_672_1592" style="mask-type:luminance" maskUnits="userSpaceOnUse" x="-44" y="-30" width="251" height="125">
<path d="M206.999 -29.4863H-43.2285V94.2474H206.999V-29.4863Z" fill="white"/>
</mask>
<g mask="url(#mask9_672_1592)">
<path d="M87.798 4.91359C88.302 4.91359 88.7271 5.33873 88.7271 5.84273V18.141C88.7271 18.6484 88.302 19.0702 87.798 19.0702H86.8483C86.4231 19.0702 85.9568 18.8473 85.6962 18.5044L79.4254 10.5742V18.1376C79.4254 18.645 79.0002 19.0667 78.4962 19.0667H77.3237C76.8162 19.0667 76.3945 18.6416 76.3945 18.1376V5.8393C76.3945 5.3353 76.8197 4.91016 77.3237 4.91016H78.2734C78.6985 4.91016 79.1614 5.13301 79.4254 5.47587L85.6962 13.4439V5.8393C85.6962 5.3353 86.1214 4.91016 86.6288 4.91016H87.798V4.91359Z" fill="white"/>
</g>
<mask id="mask10_672_1592" style="mask-type:luminance" maskUnits="userSpaceOnUse" x="-44" y="-30" width="251" height="125">
<path d="M206.999 -29.4863H-43.2285V94.2474H206.999V-29.4863Z" fill="white"/>
</mask>
<g mask="url(#mask10_672_1592)">
<path d="M96.4416 4.85156C102.106 4.85156 104.389 8.10871 104.389 11.8698C104.389 15.8367 101.677 19.111 96.277 19.111C95.6701 19.111 94.3159 19.0904 92.8999 19.0698C92.3924 19.0698 91.9707 18.6447 91.9707 18.1201V5.86299C91.9707 5.33842 92.3959 4.91328 92.8999 4.91328C94.093 4.89271 95.7318 4.85156 96.4416 4.85156ZM95.2073 16.039C95.6324 16.0801 95.9136 16.0801 96.3799 16.0801C99.1707 16.0801 100.95 14.5647 100.95 11.8733C100.95 9.26413 99.0301 7.88928 96.4004 7.88928C96.0576 7.88928 95.6118 7.88928 95.2073 7.95099V16.039Z" fill="white"/>
</g>
<mask id="mask11_672_1592" style="mask-type:luminance" maskUnits="userSpaceOnUse" x="-44" y="-30" width="251" height="125">
<path d="M206.999 -29.4863H-43.2285V94.2474H206.999V-29.4863Z" fill="white"/>
</mask>
<g mask="url(#mask11_672_1592)">
<path d="M109.107 16.0961L108.195 18.4035C108.033 18.8081 107.649 19.0721 107.224 19.0721H105.99C105.483 19.0721 105.119 18.647 105.119 18.2012C105.119 18.0812 105.14 17.9578 105.181 17.8584L110.279 5.58068C110.461 5.17611 110.845 4.91211 111.27 4.91211H112.748C113.173 4.91211 113.557 5.17611 113.739 5.58068L118.837 17.8584C118.878 17.9578 118.899 18.0812 118.899 18.2012C118.899 18.647 118.535 19.0721 118.028 19.0721H116.591C116.166 19.0721 115.782 18.8081 115.621 18.4035L114.712 16.0961H109.107ZM110.32 13.0653H113.495L111.918 9.06068L110.32 13.0653Z" fill="white"/>
</g>
<mask id="mask12_672_1592" style="mask-type:luminance" maskUnits="userSpaceOnUse" x="-44" y="-30" width="251" height="125">
<path d="M206.999 -29.4863H-43.2285V94.2474H206.999V-29.4863Z" fill="white"/>
</mask>
<g mask="url(#mask12_672_1592)">
<path d="M123.592 19.0726C123.088 19.0726 122.663 18.6474 122.663 18.1434V7.9503H119.347C118.843 7.9503 118.418 7.52516 118.418 7.01773V5.84516C118.418 5.34116 118.843 4.91602 119.347 4.91602H129.218C129.722 4.91602 130.147 5.34116 130.147 5.84516V7.01773C130.147 7.52516 129.722 7.9503 129.218 7.9503H125.899V18.1434C125.899 18.6509 125.474 19.0726 124.97 19.0726H123.592Z" fill="white"/>
</g>
<mask id="mask13_672_1592" style="mask-type:luminance" maskUnits="userSpaceOnUse" x="-44" y="-30" width="251" height="125">
<path d="M206.999 -29.4863H-43.2285V94.2474H206.999V-29.4863Z" fill="white"/>
</mask>
<g mask="url(#mask13_672_1592)">
<path d="M136.013 18.1395C136.013 18.647 135.588 19.0687 135.084 19.0687H133.709C133.202 19.0687 132.78 18.6435 132.78 18.1395V5.84125C132.78 5.33725 133.205 4.91211 133.709 4.91211H135.084C135.592 4.91211 136.013 5.33725 136.013 5.84125V18.1395Z" fill="white"/>
</g>
<mask id="mask14_672_1592" style="mask-type:luminance" maskUnits="userSpaceOnUse" x="-44" y="-30" width="251" height="125">
<path d="M206.999 -29.4863H-43.2285V94.2474H206.999V-29.4863Z" fill="white"/>
</mask>
<g mask="url(#mask14_672_1592)">
<path d="M146.371 4.66992C150.681 4.66992 153.897 7.48135 153.897 11.9934C153.897 16.2825 150.681 19.3168 146.371 19.3168C142.062 19.3168 138.846 16.5054 138.846 11.9934C138.849 7.88592 141.863 4.66992 146.371 4.66992ZM146.371 16.2825C149.063 16.2825 150.458 14.3796 150.458 11.9934C150.458 9.40478 148.658 7.70421 146.371 7.70421C144.026 7.70421 142.285 9.40135 142.285 11.9934C142.288 14.4208 144.109 16.2825 146.371 16.2825Z" fill="white"/>
</g>
<mask id="mask15_672_1592" style="mask-type:luminance" maskUnits="userSpaceOnUse" x="-44" y="-30" width="251" height="125">
<path d="M206.999 -29.4863H-43.2285V94.2474H206.999V-29.4863Z" fill="white"/>
</mask>
<g mask="url(#mask15_672_1592)">
<path d="M167.941 4.91359C168.445 4.91359 168.87 5.33873 168.87 5.84273V18.141C168.87 18.6484 168.445 19.0702 167.941 19.0702H166.991C166.566 19.0702 166.099 18.8473 165.839 18.5044L159.568 10.5742V18.1376C159.568 18.645 159.143 19.0667 158.639 19.0667H157.466C156.959 19.0667 156.537 18.6416 156.537 18.1376V5.8393C156.537 5.3353 156.962 4.91016 157.466 4.91016H158.416C158.841 4.91016 159.304 5.13301 159.568 5.47587L165.839 13.4439V5.8393C165.839 5.3353 166.264 4.91016 166.771 4.91016H167.941V4.91359Z" fill="white"/>
</g>
<mask id="mask16_672_1592" style="mask-type:luminance" maskUnits="userSpaceOnUse" x="-44" y="-30" width="251" height="125">
<path d="M206.999 -29.4863H-43.2285V94.2474H206.999V-29.4863Z" fill="white"/>
</mask>
<g mask="url(#mask16_672_1592)">
<path d="M34.6034 56.2763C34.7851 55.9918 35.0697 55.8512 35.3508 55.8512C35.5737 55.8512 35.776 55.9129 35.9783 56.0535C36.808 56.5986 37.7783 57.0032 38.5291 57.0032C39.3794 57.0032 39.8628 56.5781 39.8628 55.9095C39.8628 53.7838 33.9554 54.0478 33.9554 49.4775C33.9554 47.2935 35.6937 45.3906 38.5291 45.3906C39.9863 45.3906 41.0148 45.6752 42.0263 46.3198C42.2903 46.4809 42.4103 46.8066 42.4103 47.1083C42.4103 47.2695 42.3691 47.4512 42.2902 47.5952L41.7623 48.4866C41.56 48.8089 41.2754 48.9735 40.9531 48.9735C40.792 48.9735 40.5897 48.9118 40.408 48.8123C39.9211 48.5689 39.3965 48.4283 38.8103 48.4283C37.9223 48.4283 37.3942 48.8329 37.3942 49.4809C37.3942 51.8261 43.3017 51.2603 43.3017 55.8718C43.3017 58.3403 41.176 60.0375 38.4468 60.0375C37.0308 60.0375 35.536 59.4923 34.1577 58.4192C33.9554 58.2581 33.8525 57.9735 33.8525 57.7095C33.8525 57.4866 33.8937 57.2843 34.0137 57.1232L34.6034 56.2763Z" fill="white"/>
</g>
<mask id="mask17_672_1592" style="mask-type:luminance" maskUnits="userSpaceOnUse" x="-44" y="-30" width="251" height="125">
<path d="M206.999 -29.4863H-43.2285V94.2474H206.999V-29.4863Z" fill="white"/>
</mask>
<g mask="url(#mask17_672_1592)">
<path d="M54.1056 46.5698C54.1056 46.0658 54.5307 45.6406 55.0347 45.6406H56.4096C56.9136 45.6406 57.3387 46.0658 57.3387 46.5698V53.9549C57.3387 58.2818 54.589 60.0441 51.5547 60.0441C47.9136 60.0441 45.3867 57.9595 45.3867 53.8143V46.5732C45.3867 46.0692 45.8119 45.6441 46.3159 45.6441H47.6907C48.1947 45.6441 48.6199 46.0692 48.6199 46.5732V53.1286C48.6199 55.3332 49.2884 57.0132 51.5547 57.0132C53.5159 57.0132 54.1022 55.5766 54.1022 53.3103V46.5698H54.1056Z" fill="white"/>
</g>
<mask id="mask18_672_1592" style="mask-type:luminance" maskUnits="userSpaceOnUse" x="-44" y="-30" width="251" height="125">
<path d="M206.999 -29.4863H-43.2285V94.2474H206.999V-29.4863Z" fill="white"/>
</mask>
<g mask="url(#mask18_672_1592)">
<path d="M70.1888 50.2899C70.1888 52.8168 68.2276 55.0419 64.9499 55.0419C64.6448 55.0419 63.8768 55.0419 63.3728 54.9836V58.8682C63.3728 59.3756 62.9476 59.7973 62.4436 59.7973H61.0688C60.5614 59.7973 60.1396 59.3722 60.1396 58.8682V46.5905C60.1396 46.0659 60.5648 45.6408 61.0688 45.6408C62.1419 45.6202 63.6779 45.5996 64.4665 45.5996C68.7728 45.5996 70.1888 47.8419 70.1888 50.2899ZM63.3728 51.9082C63.8391 51.9699 64.3842 52.011 64.8471 52.011C65.6974 52.011 66.7499 51.6476 66.7499 50.2728C66.7499 49.0179 65.9408 48.6339 64.7888 48.6339C64.3636 48.6339 64.0414 48.6545 63.3728 48.675V51.9082Z" fill="white"/>
</g>
<mask id="mask19_672_1592" style="mask-type:luminance" maskUnits="userSpaceOnUse" x="-44" y="-30" width="251" height="125">
<path d="M206.999 -29.4863H-43.2285V94.2474H206.999V-29.4863Z" fill="white"/>
</mask>
<g mask="url(#mask19_672_1592)">
<path d="M82.7513 50.2899C82.7513 52.8168 80.7901 55.0419 77.5124 55.0419C77.2073 55.0419 76.4393 55.0419 75.9353 54.9836V58.8682C75.9353 59.3756 75.5101 59.7973 75.0061 59.7973H73.6313C73.1239 59.7973 72.7021 59.3722 72.7021 58.8682V46.5905C72.7021 46.0659 73.1273 45.6408 73.6313 45.6408C74.7044 45.6202 76.2404 45.5996 77.029 45.5996C81.3353 45.5996 82.7513 47.8419 82.7513 50.2899ZM75.9353 51.9082C76.4016 51.9699 76.9467 52.011 77.4096 52.011C78.2599 52.011 79.3124 51.6476 79.3124 50.2728C79.3124 49.0179 78.5033 48.6339 77.3513 48.6339C76.9261 48.6339 76.6039 48.6545 75.9353 48.675V51.9082Z" fill="white"/>
</g>
<mask id="mask20_672_1592" style="mask-type:luminance" maskUnits="userSpaceOnUse" x="-44" y="-30" width="251" height="125">
<path d="M206.999 -29.4863H-43.2285V94.2474H206.999V-29.4863Z" fill="white"/>
</mask>
<g mask="url(#mask20_672_1592)">
<path d="M92.1448 45.3945C96.4546 45.3945 99.6706 48.206 99.6706 52.718C99.6706 57.0071 96.4546 60.0414 92.1448 60.0414C87.8351 60.0414 84.6191 57.23 84.6191 52.718C84.6226 48.614 87.6363 45.3945 92.1448 45.3945ZM92.1448 57.0071C94.8363 57.0071 96.2317 55.1042 96.2317 52.718C96.2317 50.1294 94.4317 48.4288 92.1448 48.4288C89.7997 48.4288 88.058 50.126 88.058 52.718C88.0614 55.1454 89.8786 57.0071 92.1448 57.0071Z" fill="white"/>
</g>
<mask id="mask21_672_1592" style="mask-type:luminance" maskUnits="userSpaceOnUse" x="-44" y="-30" width="251" height="125">
<path d="M206.999 -29.4863H-43.2285V94.2474H206.999V-29.4863Z" fill="white"/>
</mask>
<g mask="url(#mask21_672_1592)">
<path d="M106.552 54.843H105.359V58.8682C105.359 59.3756 104.934 59.7973 104.43 59.7973H103.055C102.548 59.7973 102.126 59.3722 102.126 58.8682V46.5699C102.126 46.0659 102.551 45.6408 103.055 45.6408C104.43 45.6202 106.635 45.5996 106.94 45.5996C110.804 45.5996 112.179 47.5196 112.179 50.1288C112.179 52.7585 110.56 53.8316 109.792 54.2156L112.909 58.4225C113.029 58.5836 113.091 58.7653 113.091 58.9265C113.091 59.3722 112.727 59.7973 112.203 59.7973H110.708C110.283 59.7973 109.837 59.5745 109.593 59.211L106.552 54.843ZM106.532 51.8088C107.766 51.8088 108.736 51.363 108.736 50.1699C108.736 49.3813 108.332 48.6339 106.775 48.6339C106.288 48.6339 106.028 48.6545 105.359 48.675V51.8088H106.532Z" fill="white"/>
</g>
<mask id="mask22_672_1592" style="mask-type:luminance" maskUnits="userSpaceOnUse" x="-44" y="-30" width="251" height="125">
<path d="M206.999 -29.4863H-43.2285V94.2474H206.999V-29.4863Z" fill="white"/>
</mask>
<g mask="url(#mask22_672_1592)">
<path d="M119.282 59.7972C118.778 59.7972 118.353 59.3721 118.353 58.8681V48.6749H115.038C114.534 48.6749 114.108 48.2498 114.108 47.7423V46.5698C114.108 46.0658 114.534 45.6406 115.038 45.6406H124.908C125.412 45.6406 125.838 46.0658 125.838 46.5698V47.7423C125.838 48.2498 125.412 48.6749 124.908 48.6749H121.59V58.8681C121.59 59.3755 121.164 59.7972 120.66 59.7972H119.282Z" fill="white"/>
</g>
<mask id="mask23_672_1592" style="mask-type:luminance" maskUnits="userSpaceOnUse" x="-44" y="-30" width="251" height="125">
<path d="M206.999 -29.4863H-43.2285V94.2474H206.999V-29.4863Z" fill="white"/>
</mask>
<g mask="url(#mask23_672_1592)">
<path d="M33.7637 39.912V25.7246H41.1214V26.7703H34.9328V33.1372H40.0757V34.1829H34.9328V39.912H33.7637Z" fill="white"/>
</g>
<mask id="mask24_672_1592" style="mask-type:luminance" maskUnits="userSpaceOnUse" x="-44" y="-30" width="251" height="125">
<path d="M206.999 -29.4863H-43.2285V94.2474H206.999V-29.4863Z" fill="white"/>
</mask>
<g mask="url(#mask24_672_1592)">
<path d="M46.5831 40.0865C45.318 40.0865 44.3614 39.6716 43.7169 38.8351C43.0723 38.0019 42.75 36.7676 42.75 35.1356V30.5585C42.75 28.9025 43.0757 27.6545 43.7271 26.8076C44.3786 25.9608 45.3351 25.5391 46.6003 25.5391C47.8654 25.5391 48.8151 25.9608 49.4563 26.8076C50.094 27.6511 50.4129 28.9025 50.4129 30.5585V35.1356C50.4129 36.7676 50.0906 37.9985 49.446 38.8351C48.8014 39.6716 47.8483 40.0865 46.5831 40.0865ZM46.5831 39.0408C47.5397 39.0408 48.222 38.7322 48.63 38.1185C49.038 37.5048 49.2437 36.5173 49.2437 35.1562V30.5482C49.2437 29.1665 49.0414 28.1619 48.63 27.5345C48.222 26.9071 47.5397 26.5951 46.5831 26.5951C45.6266 26.5951 44.9409 26.9071 44.5329 27.5345C44.1249 28.1619 43.9191 29.1665 43.9191 30.5482V35.1596C43.9191 36.5208 44.1249 37.5082 44.5329 38.1219C44.9409 38.7356 45.6266 39.0408 46.5831 39.0408Z" fill="white"/>
</g>
<mask id="mask25_672_1592" style="mask-type:luminance" maskUnits="userSpaceOnUse" x="-44" y="-30" width="251" height="125">
<path d="M206.999 -29.4863H-43.2285V94.2474H206.999V-29.4863Z" fill="white"/>
</mask>
<g mask="url(#mask25_672_1592)">
<path d="M54.6369 39.912H53.4678V25.7246H57.7603C58.9295 25.7246 59.8038 26.04 60.3832 26.6743C60.9626 27.3086 61.2541 28.2378 61.2541 29.4686V30.5692C61.2541 31.704 61.0175 32.5852 60.5444 33.2126C60.0712 33.84 59.3683 34.2035 58.4358 34.3098L61.4323 39.9155H60.1363L57.1398 34.3475H54.6403V39.912H54.6369ZM54.6369 33.3155H57.7226C58.5626 33.3155 59.1661 33.0995 59.5398 32.6675C59.9135 32.2355 60.0986 31.5292 60.0986 30.5486V29.5029C60.0986 28.536 59.9135 27.8332 59.5398 27.4012C59.1661 26.9692 58.5592 26.7532 57.7226 26.7532H54.6369V33.3155Z" fill="white"/>
</g>
<mask id="mask26_672_1592" style="mask-type:luminance" maskUnits="userSpaceOnUse" x="-44" y="-30" width="251" height="125">
<path d="M206.999 -29.4863H-43.2285V94.2474H206.999V-29.4863Z" fill="white"/>
</mask>
<g mask="url(#mask26_672_1592)">
<path d="M73.9669 39.912L72.8492 35.568H68.6287L67.4938 39.912H66.3418L70.1887 25.7246H71.3064L75.1909 39.912H73.9669ZM72.5818 34.5189L70.7372 27.408L68.8927 34.5189H72.5818Z" fill="white"/>
</g>
<mask id="mask27_672_1592" style="mask-type:luminance" maskUnits="userSpaceOnUse" x="-44" y="-30" width="251" height="125">
<path d="M206.999 -29.4863H-43.2285V94.2474H206.999V-29.4863Z" fill="white"/>
</mask>
<g mask="url(#mask27_672_1592)">
<path d="M83.42 39.912L78.932 27.6583V39.912H77.8691V25.7246H79.3057L83.8966 38.2458V25.7246H84.9594V39.912H83.42Z" fill="white"/>
</g>
<mask id="mask28_672_1592" style="mask-type:luminance" maskUnits="userSpaceOnUse" x="-44" y="-30" width="251" height="125">
<path d="M206.999 -29.4863H-43.2285V94.2474H206.999V-29.4863Z" fill="white"/>
</mask>
<g mask="url(#mask28_672_1592)">
<path d="M88.0791 39.912V38.8663H91.0414V26.7703H88.0791V25.7246H95.1728V26.7703H92.2105V38.8663H95.1728V39.912H88.0791Z" fill="white"/>
</g>
<mask id="mask29_672_1592" style="mask-type:luminance" maskUnits="userSpaceOnUse" x="-44" y="-30" width="251" height="125">
<path d="M206.999 -29.4863H-43.2285V94.2474H206.999V-29.4863Z" fill="white"/>
</mask>
<g mask="url(#mask29_672_1592)">
<path d="M101.536 36.4012L99.122 27.7098V39.912H98.042V25.7246H99.5643L102.119 34.9475L104.656 25.7246H106.127V39.912H105.047V27.7269L102.633 36.4012H101.536Z" fill="white"/>
</g>
<mask id="mask30_672_1592" style="mask-type:luminance" maskUnits="userSpaceOnUse" x="-44" y="-30" width="251" height="125">
<path d="M206.999 -29.4863H-43.2285V94.2474H206.999V-29.4863Z" fill="white"/>
</mask>
<g mask="url(#mask30_672_1592)">
<path d="M116.183 39.912L115.065 35.568H110.844L109.71 39.912H108.558L112.404 25.7246H113.522L117.407 39.912H116.183ZM114.801 34.5189L112.956 27.408L111.112 34.5189H114.801Z" fill="white"/>
</g>
<mask id="mask31_672_1592" style="mask-type:luminance" maskUnits="userSpaceOnUse" x="-44" y="-30" width="251" height="125">
<path d="M206.999 -29.4863H-43.2285V94.2474H206.999V-29.4863Z" fill="white"/>
</mask>
<g mask="url(#mask31_672_1592)">
<path d="M121.212 39.912V26.7703H117.558V25.7246H126.054V26.7703H122.382V39.912H121.212Z" fill="white"/>
</g>
<mask id="mask32_672_1592" style="mask-type:luminance" maskUnits="userSpaceOnUse" x="-44" y="-30" width="251" height="125">
<path d="M206.999 -29.4863H-43.2285V94.2474H206.999V-29.4863Z" fill="white"/>
</mask>
<g mask="url(#mask32_672_1592)">
<path d="M128.817 39.912V38.8663H131.78V26.7703H128.817V25.7246H135.911V26.7703H132.952V38.8663H135.911V39.912H128.817Z" fill="white"/>
</g>
<mask id="mask33_672_1592" style="mask-type:luminance" maskUnits="userSpaceOnUse" x="-44" y="-30" width="251" height="125">
<path d="M206.999 -29.4863H-43.2285V94.2474H206.999V-29.4863Z" fill="white"/>
</mask>
<g mask="url(#mask33_672_1592)">
<path d="M142.329 40.0865C141.064 40.0865 140.108 39.6716 139.463 38.8351C138.818 38.0019 138.496 36.7676 138.496 35.1356V30.5585C138.496 28.9025 138.822 27.6545 139.473 26.8076C140.125 25.9608 141.081 25.5391 142.346 25.5391C143.612 25.5391 144.561 25.9608 145.202 26.8076C145.84 27.6511 146.159 28.9025 146.159 30.5585V35.1356C146.159 36.7676 145.837 37.9985 145.192 38.8351C144.548 39.6716 143.594 40.0865 142.329 40.0865ZM142.329 39.0408C143.286 39.0408 143.968 38.7322 144.376 38.1185C144.784 37.5048 144.99 36.5173 144.99 35.1562V30.5482C144.99 29.1665 144.788 28.1619 144.376 27.5345C143.968 26.9071 143.286 26.5951 142.329 26.5951C141.373 26.5951 140.687 26.9071 140.279 27.5345C139.871 28.1619 139.665 29.1665 139.665 30.5482V35.1596C139.665 36.5208 139.871 37.5082 140.279 38.1219C140.687 38.7356 141.369 39.0408 142.329 39.0408Z" fill="white"/>
</g>
<mask id="mask34_672_1592" style="mask-type:luminance" maskUnits="userSpaceOnUse" x="-44" y="-30" width="251" height="125">
<path d="M206.999 -29.4863H-43.2285V94.2474H206.999V-29.4863Z" fill="white"/>
</mask>
<g mask="url(#mask34_672_1592)">
<path d="M154.761 39.912L150.277 27.6583V39.912H149.214V25.7246H150.647L155.241 38.2458V25.7246H156.304V39.912H154.761Z" fill="white"/>
</g>
</g>
<defs>
<clipPath id="clip0_672_1592">
<rect width="168.686" height="60" fill="white" transform="translate(0.314453)"/>
</clipPath>
</defs>
</svg>
