<svg width="149" height="60" viewBox="0 0 149 60" fill="none" xmlns="http://www.w3.org/2000/svg">
<g clip-path="url(#clip0_593_2233)">
<path d="M60.8337 44.3934L59.2684 50.4423H58.5891L57.0369 44.4391L48.7574 44.5434L47.1855 59.8891H52.9283L53.5781 52.676H54.2574L55.6915 59.8891H62.166L63.6034 52.676H64.2794L64.9291 59.8891H70.6719L69.0738 44.2891L60.8337 44.3934Z" fill="white"/>
<path d="M7.8073 45.0611L3.75781 59.8915H9.17573L9.69094 58.0328H15.6503L16.1655 59.8915H21.5834L17.5011 44.9404L7.8073 45.0611ZM11.312 52.972L12.3129 49.4176H13.0185L14.0194 52.972H11.312Z" fill="white"/>
<path d="M40.1602 44.6541V59.8791H45.88V44.5791L40.1602 44.6541Z" fill="white"/>
<path d="M32.9636 44.7417V49.8743H32.3697L29.4064 44.7873L22.2656 44.8786V59.8884H27.9822V53.2134H28.6024L32.478 59.8884H38.7064V44.6699L32.9636 44.7417Z" fill="white"/>
<path d="M140.154 43.3921L140.141 49.8812H139.544L135.812 43.4475L129.453 43.5257L129.42 59.8725L135.136 59.8855L135.15 53.2073L135.773 53.2105L139.632 59.8953L145.861 59.9051L145.897 43.3203L140.154 43.3921Z" fill="white"/>
<path d="M126.132 45.3132C125.741 44.9415 124.967 44.2012 123.349 43.6045L115.345 43.7056C114.728 43.9436 113.809 44.3708 112.818 45.3001C112.415 45.6751 111.614 46.4317 110.964 48.0588C110.748 48.6034 110.314 49.686 110.314 51.7338C110.314 52.3795 110.314 53.6708 110.977 55.2067C111.197 55.7186 111.64 56.7393 112.831 57.8186C113.229 58.1773 114.023 58.8947 115.716 59.4621C116.28 59.6512 117.409 60.0262 119.467 60.0262C120.153 60.0262 121.524 60.0262 123.218 59.5012C123.782 59.3251 124.911 58.9762 126.115 57.9262C126.516 57.5773 127.32 56.8762 127.986 55.3436C128.206 54.8317 128.649 53.8078 128.649 51.7893C128.649 51.098 128.649 49.7154 127.986 48.0882C127.766 47.5436 127.326 46.4578 126.132 45.3132ZM123.126 52.4741C123.018 52.6208 122.801 52.9175 122.259 53.2273C122.079 53.3317 121.718 53.5371 120.999 53.6838C120.76 53.7328 120.281 53.8306 119.47 53.8306C119.198 53.8306 118.656 53.8306 117.941 53.6675C117.701 53.6121 117.222 53.5077 116.668 53.211C116.484 53.1132 116.113 52.9143 115.788 52.4708C115.68 52.3241 115.463 52.0273 115.463 51.4338C115.463 51.2382 115.463 50.8436 115.788 50.4099C115.896 50.2664 116.113 49.9795 116.668 49.6827C116.851 49.5849 117.222 49.386 117.954 49.2393C118.197 49.1904 118.686 49.0925 119.47 49.0925C119.733 49.0925 120.254 49.0925 120.986 49.2393C121.229 49.2882 121.718 49.386 122.259 49.6697C122.44 49.7643 122.801 49.9534 123.126 50.3969C123.234 50.5436 123.451 50.8404 123.451 51.4338C123.451 51.636 123.451 52.0306 123.126 52.4741Z" fill="white"/>
<path d="M87.1309 44.0609V49.1381H91.9253V59.8794H97.6418V49.1381H102.679V43.8652L87.1309 44.0609Z" fill="white"/>
<path d="M103.811 43.8523V59.8795H109.53V43.7773L103.811 43.8523Z" fill="white"/>
<path d="M75.47 44.2072L71.1875 59.8888H76.6054L77.1206 58.0301H83.08L83.5952 59.8888H89.0131L84.6978 44.0898L75.47 44.2072ZM78.745 52.9725L79.7459 49.4181H80.4515L81.4523 52.9725H78.745Z" fill="white"/>
<path d="M81.7841 0.991211L76.6123 20.9575H74.7385L69.5634 0.991211H47.8951L43.6191 42.7564L59.4758 42.5803L60.8672 27.1434H62.741L65.7995 42.5119L85.594 42.2934L88.6098 27.1434H90.4836L91.8422 42.2249L107.66 42.0521L103.452 0.991211H81.7841Z" fill="white"/>
<path d="M143.123 33.1179V21.1114H125.14V14.8571H148.669V1.00488H109.404V42.0331L125.14 41.8603V33.1179H143.123Z" fill="white"/>
<path d="M29.4584 19.3143L18.2452 17.5535C16.1647 17.1915 15.1966 15.9752 15.3968 14.8991C15.6068 13.7643 16.4567 13.0665 19.3084 13.0665C28.5232 13.0665 36.6221 14.26 41.4887 15.6752V4.27847C36.5434 1.96977 29.6488 0.257812 21.4809 0.257812C6.78915 0.257812 0.787109 5.61868 0.787109 13.96C0.787109 21.8285 4.57407 26.9122 14.619 28.4219L25.8323 30.1828C27.9128 30.5448 28.8809 31.7611 28.684 32.8372C28.4739 33.9719 27.624 34.6698 24.7723 34.6698C15.5576 34.6698 7.45859 33.4796 2.59199 32.0611V43.2067L39.6346 42.7991C42.1483 40.4904 43.2936 37.4187 43.2936 33.7763C43.2903 25.9078 39.5034 20.8241 29.4584 19.3143Z" fill="white"/>
</g>
<defs>
<clipPath id="clip0_593_2233">
<rect width="148" height="60" fill="white" transform="translate(0.65625)"/>
</clipPath>
</defs>
</svg>
