<svg width="243" height="40" viewBox="0 0 243 40" fill="none" xmlns="http://www.w3.org/2000/svg">
<path d="M78.4838 32.5584H81.4296V33.0539H78.4838V35.9814H77.9272V33.0539H74.9814V32.5584H77.9272V29.6309H78.4838V32.5584Z" fill="white"/>
<path d="M91.2857 30.6641L89.2255 36.7015H88.3122L86.621 31.8922L84.9298 36.7015H84.0319L81.9717 30.6641H83.0172L84.4962 35.4855L86.1474 30.6641H87.113L88.7642 35.4855L90.231 30.6641H91.2857Z" fill="white"/>
<path d="M98.1824 33.684C98.1824 35.5536 96.7956 36.8973 94.8769 36.8973C92.9735 36.8973 91.5713 35.5505 91.5713 33.684C91.5713 31.8144 92.9735 30.4707 94.8769 30.4707C96.7925 30.4677 98.1824 31.8144 98.1824 33.684ZM92.5768 33.684C92.5768 35.0702 93.5546 35.9701 94.8769 35.9701C96.1991 35.9701 97.1769 35.0672 97.1769 33.684C97.1769 32.2978 96.1991 31.3979 94.8769 31.3979C93.5546 31.3979 92.5768 32.2978 92.5768 33.684Z" fill="white"/>
<path d="M102.524 31.5647H102.34C101.045 31.5647 100.316 32.3763 100.316 33.8659V36.7023H99.3662V30.6648H100.316V32.0237H100.344C100.596 31.1208 101.334 30.4824 102.367 30.4824H102.527V31.5647H102.524Z" fill="white"/>
<path d="M104.402 36.7021H103.452V27.5547H104.402V36.7021Z" fill="white"/>
<path d="M105.62 33.6842C105.62 31.6839 106.967 30.4709 108.646 30.4709C109.756 30.4709 110.537 30.9816 110.958 31.7386H110.986V27.5586H111.936V36.706H110.986V35.6359H110.958C110.534 36.3928 109.756 36.9036 108.646 36.9036C106.967 36.8975 105.62 35.6815 105.62 33.6842ZM111.038 33.6842C111.038 32.3527 110.165 31.3981 108.83 31.3981C107.496 31.3981 106.623 32.3527 106.623 33.6842C106.623 35.0157 107.496 35.9703 108.83 35.9703C110.165 35.9703 111.038 35.0157 111.038 33.6842Z" fill="white"/>
<path d="M81.2183 7.07031C84.7207 7.07031 87.5558 9.60871 87.5558 13.0713C87.5558 16.5004 84.6715 19.1057 81.3998 19.1057C79.8654 19.1057 78.3802 18.677 77.264 17.4246H77.1317V26.1645H74.7979V14.0289C74.7979 9.79111 77.267 7.07031 81.2183 7.07031ZM81.1876 17.081C83.5061 17.081 85.0897 15.2662 85.0897 13.0743C85.0897 10.8977 83.5399 9.10103 81.1876 9.10103C78.8199 9.10103 77.2178 10.8825 77.2178 13.0591C77.2178 15.2661 78.8506 17.081 81.1876 17.081Z" fill="white"/>
<path d="M89.7275 13.0895C89.7275 9.62695 92.6641 7.07031 96.1142 7.07031C99.5674 7.07031 102.501 9.62695 102.501 13.0895C102.501 16.5521 99.5643 19.1087 96.1142 19.1087C92.661 19.1087 89.7275 16.5521 89.7275 13.0895ZM96.1142 17.081C98.4481 17.081 100.035 15.2996 100.035 13.0895C100.035 10.8794 98.4511 9.09799 96.1142 9.09799C93.7803 9.09799 92.1936 10.8612 92.1936 13.0895C92.1936 15.2996 93.7803 17.081 96.1142 17.081Z" fill="white"/>
<path d="M111.125 19.1087C107.457 19.1087 104.671 16.5703 104.671 13.0895C104.671 9.62695 107.389 7.07031 111.042 7.07031C113.843 7.07031 116.463 8.57207 117.131 11.4236H114.729C114.145 9.89143 112.746 9.09799 111.11 9.09799C108.641 9.09799 107.14 10.9129 107.14 13.1199C107.14 15.3634 108.69 17.078 111.159 17.078C112.761 17.078 114.212 16.3514 114.778 14.6855H117.195C116.328 17.7225 113.825 19.1087 111.125 19.1087Z" fill="white"/>
<path d="M125.85 17.4435L122.013 9.51216H121.945V18.8632H119.694V7.32031H123.28L127.083 15.2182H127.151L130.955 7.32031H134.54V18.8632H132.289V9.51216H132.222L128.387 17.4435H125.85Z" fill="white"/>
<path d="M137.044 13.0895C137.044 9.62695 139.981 7.07031 143.431 7.07031C146.884 7.07031 149.817 9.62695 149.817 13.0895C149.817 16.5521 146.881 19.1087 143.431 19.1087C139.977 19.1087 137.044 16.5521 137.044 13.0895ZM143.431 17.081C145.764 17.081 147.351 15.2996 147.351 13.0895C147.351 10.8794 145.768 9.09799 143.431 9.09799C141.097 9.09799 139.51 10.8612 139.51 13.0895C139.51 15.2996 141.097 17.081 143.431 17.081Z" fill="white"/>
<path d="M151.005 18.9594V16.57H151.054C151.503 16.57 152.053 16.3724 152.389 15.9924C152.822 15.5151 153.04 14.6578 153.271 13.4023L153.603 11.554C153.988 9.42598 154.753 7.26758 157.991 7.26758H162.545V18.8591H160.211V9.41077H158.394C156.577 9.41077 156.192 9.9063 155.759 12.3626L155.457 14.0954C155.19 15.6793 154.79 17.0473 153.957 17.9197C153.323 18.5794 152.438 18.9594 151.254 18.9594H151.005Z" fill="white"/>
<path d="M165.13 13.0895C165.13 9.62695 168.066 7.07031 171.517 7.07031C174.97 7.07031 177.903 9.62695 177.903 13.0895C177.903 16.5521 174.967 19.1087 171.517 19.1087C168.066 19.1087 165.13 16.5521 165.13 13.0895ZM171.517 17.081C173.85 17.081 175.437 15.2996 175.437 13.0895C175.437 10.8794 173.853 9.09799 171.517 9.09799C169.18 9.09799 167.596 10.8612 167.596 13.0895C167.599 15.2996 169.183 17.081 171.517 17.081Z" fill="white"/>
<path d="M180.609 21.6659H178.358V16.7198H179.877C180.545 15.978 180.895 14.8745 181.212 13.5369L181.713 11.3937C182.196 9.3326 183.097 7.27148 185.984 7.27148H190.52V16.7198H192.205V21.6659H189.954V18.863H180.612V21.6659H180.609ZM188.214 16.7684V9.38124H186.027C184.61 9.38124 184.127 10.503 183.841 11.6886L183.324 13.9139C183.042 15.1512 182.608 16.1726 182.174 16.6012V16.7654H188.214V16.7684Z" fill="white"/>
<path d="M200.357 19.1093C196.636 19.1093 193.937 16.5709 193.937 13.0901C193.937 9.62758 196.655 7.07094 200.274 7.07094C203.075 7.07094 206.445 8.88581 206.445 13.2695V13.7468H196.27C196.519 15.6772 198.038 17.0786 200.339 17.0786C201.707 17.0786 203.34 16.5831 203.792 15.4127H206.193C205.458 17.9541 202.74 19.1093 200.357 19.1093ZM196.304 3.09766H198.721V5.48709H196.304V3.09766ZM204.01 11.9866C203.644 10.2386 202.276 9.06821 200.24 9.06821C198.205 9.06821 196.805 10.3207 196.372 11.9866H204.01ZM201.556 3.09766H203.973V5.48709H201.556V3.09766Z" fill="white"/>
<path d="M217.451 7.32031V11.9046H219.404L222.156 7.32031H224.723L221.304 12.8288L225.006 18.8632H222.386L219.434 13.9992H217.451V18.8632H215.249V13.9992H213.266L210.314 18.8632H207.694L211.397 12.8288L207.977 7.32031H210.545L213.297 11.9046H215.249V7.32031H217.451Z" fill="white"/>
<path d="M226.642 13.6678L226.608 7.32031H228.942L228.958 10.6005H229.025C230.009 9.41183 231.261 8.83728 232.761 8.83728C235.63 8.83728 237.949 10.947 237.949 13.8989C237.949 16.8842 235.581 19.1094 232.328 19.1094C229.059 19.1094 226.658 16.8173 226.642 13.6678ZM232.279 17.0818C234.13 17.0818 235.48 15.7958 235.48 13.9992C235.48 12.2026 234.13 10.8832 232.279 10.8832C230.443 10.8832 229.093 12.2026 229.093 13.9992C229.093 15.7958 230.446 17.0818 232.279 17.0818Z" fill="white"/>
<path d="M47.8273 7.47266L46.8372 8.45154V10.5583C46.8372 10.5947 46.8372 10.6312 46.8402 10.6677C46.8187 18.2495 41.0747 24.4115 34.0146 24.4115C26.9546 24.4115 21.2106 18.2495 21.1891 10.6677V8.45154L20.1989 7.47266H5.05176V36.7023H11.2939V13.6439H15.1622C16.5551 23.2199 24.4792 30.5827 34.0116 30.5827C43.5439 30.5827 51.468 23.2199 52.861 13.6439H56.7292V36.7023H62.9714V7.47266H47.8273Z" fill="white"/>
</svg>
