<svg width="90" height="31" viewBox="0 0 90 31" fill="none" xmlns="http://www.w3.org/2000/svg">
<g clip-path="url(#clip0_467_2678)">
<mask id="mask0_467_2678" style="mask-type:luminance" maskUnits="userSpaceOnUse" x="-5" y="-5" width="100" height="41">
<path d="M94.5212 -4.20801H-4.59863V35.208H94.5212V-4.20801Z" fill="white"/>
</mask>
<g mask="url(#mask0_467_2678)">
<mask id="mask1_467_2678" style="mask-type:luminance" maskUnits="userSpaceOnUse" x="-5" y="-5" width="100" height="41">
<path d="M94.4757 -4.20801H-4.59863V35.208H94.4757V-4.20801Z" fill="white"/>
</mask>
<g mask="url(#mask1_467_2678)">
<path d="M84.3123 17.6766C84.4145 17.174 84.4657 16.6655 84.4884 16.1514H81.4108C81.496 16.6084 81.5414 17.0826 81.5414 17.551C81.5414 18.7678 81.2462 19.916 80.7295 20.9327C81.3542 21.3783 81.7687 22.1095 81.7687 22.9378C81.7687 24.2975 80.6727 25.4 79.3214 25.4C78.4981 25.4 77.7714 24.9829 77.3228 24.3546C76.312 24.8686 75.1707 25.1713 73.9613 25.1713C73.4902 25.1713 73.0246 25.1258 72.5703 25.0401V30.107C73.0303 30.1585 73.4959 30.187 73.9613 30.187C77.425 30.187 80.5593 28.7588 82.819 26.4624C85.0788 24.2118 86.487 21.1042 86.5209 17.6709H84.3123V17.6766Z" fill="white"/>
<path d="M80.7293 20.9376C80.3319 20.6521 79.8492 20.4863 79.3213 20.4863C77.9698 20.4863 76.874 21.589 76.874 22.9485C76.874 23.4798 77.0444 23.9654 77.3226 24.3651C78.055 23.9938 78.725 23.5084 79.2929 22.9256C79.8776 22.3487 80.3603 21.6745 80.7293 20.9376Z" fill="white"/>
<path d="M85.0447 5.12603C82.3648 2.36691 78.6344 0.647461 74.5065 0.647461C73.8536 0.647461 73.2118 0.698879 72.5703 0.78455V4.15492C73.5752 3.89215 74.6258 3.74933 75.7102 3.74933V5.74871C77.1353 5.92578 78.464 6.41135 79.6337 7.13682C79.6962 7.05685 79.753 6.97687 79.8268 6.90261C80.7806 5.94293 82.3307 5.94293 83.2847 6.90261C84.2384 7.86232 84.2384 9.42181 83.2847 10.3815C83.2108 10.4558 83.1256 10.5129 83.0461 10.5815C83.9716 12.0781 84.5168 13.8376 84.5168 15.7283C84.5168 15.8712 84.4998 16.0084 84.4941 16.151H86.453C86.5039 16.6138 86.5323 17.0822 86.5323 17.5507C86.5323 17.5907 86.5323 17.6307 86.5266 17.6707H89.3656C89.4508 17.0251 89.502 16.3797 89.502 15.7226C89.4963 11.5811 87.7872 7.82233 85.0447 5.12603Z" fill="white"/>
<path d="M79.6277 7.13672C78.8782 8.10212 78.935 9.49597 79.8208 10.3814C80.7007 11.2668 82.0806 11.324 83.04 10.5813C82.6085 9.88441 82.1033 9.23889 81.5241 8.67337C80.9564 8.08499 80.3203 7.57087 79.6277 7.13672Z" fill="white"/>
<path d="M75.7103 5.74823C75.3129 5.69681 74.9154 5.66825 74.5066 5.66825C73.8537 5.66825 73.2063 5.74251 72.5704 5.86819V4.16016C70.4299 4.7257 68.5106 5.86248 66.9946 7.38772C64.7633 9.63272 63.3779 12.7346 63.3779 16.1563H68.3631C68.3631 15.0024 68.6356 13.9114 69.1069 12.9402C68.4824 12.4947 68.0736 11.7635 68.0736 10.9352C68.0736 9.57559 69.1694 8.47308 70.5206 8.47308C71.3439 8.47308 72.065 8.88439 72.5136 9.51276C73.4846 9.03862 74.5634 8.76443 75.7103 8.76443V5.74823Z" fill="white"/>
<path d="M69.1064 12.9353C69.5039 13.2209 69.9923 13.3923 70.5202 13.3923C71.8716 13.3923 72.9674 12.2898 72.9674 10.9302C72.9674 10.399 72.797 9.90769 72.5132 9.50781C71.7694 9.8677 71.0937 10.3476 70.5202 10.9302C69.9411 11.5129 69.4641 12.1927 69.1064 12.9353Z" fill="white"/>
<path d="M0.34668 22.938V19.5049H1.8627C2.02169 19.5049 2.16363 19.522 2.29991 19.5506C2.43049 19.5849 2.54972 19.6419 2.65194 19.7276C2.73143 19.7905 2.79956 19.8762 2.85633 19.9848C2.91312 20.0875 2.9415 20.2189 2.9415 20.3675C2.94718 20.5273 2.9188 20.6645 2.85633 20.7902C2.79956 20.9158 2.69735 21.0187 2.55541 21.0987C2.6576 21.1272 2.74277 21.173 2.8109 21.2299C2.87905 21.2871 2.93582 21.3557 2.98125 21.4357C3.02667 21.5157 3.05506 21.5957 3.07778 21.687C3.09481 21.7784 3.10617 21.8698 3.10049 21.967C3.09481 22.1211 3.05506 22.264 2.97557 22.3955C2.90176 22.5267 2.79956 22.6296 2.68032 22.7153C2.53836 22.818 2.3794 22.8809 2.20337 22.9037C2.02735 22.9323 1.85702 22.9437 1.68668 22.9437H0.34668V22.938ZM1.66397 20.8986C1.7321 20.8986 1.80591 20.8929 1.87405 20.8872C1.94219 20.8815 2.01033 20.8586 2.07277 20.8245C2.12388 20.7902 2.16931 20.7502 2.20337 20.6931C2.23744 20.6359 2.26016 20.5731 2.26016 20.4988C2.26582 20.4189 2.2488 20.3561 2.22042 20.3103C2.19201 20.2589 2.15795 20.2246 2.11252 20.196C2.06143 20.1618 1.99896 20.1446 1.93651 20.1389C1.86838 20.1332 1.80023 20.1332 1.72642 20.1332H1.04508V20.8986H1.66397ZM1.04508 22.3212H1.681C1.77185 22.3212 1.87405 22.3154 1.97626 22.304C2.07846 22.2926 2.16931 22.2583 2.24312 22.2069C2.28855 22.1726 2.32261 22.1268 2.35668 22.0754C2.38506 22.024 2.4021 21.9556 2.4021 21.8756C2.4021 21.8013 2.38506 21.7384 2.35668 21.687C2.32261 21.6355 2.28287 21.5957 2.23744 21.5728C2.18067 21.5386 2.1182 21.5157 2.05007 21.51C1.98194 21.5043 1.90813 21.4985 1.8343 21.4985L1.05074 21.5043V22.3212H1.04508Z" fill="white"/>
<path d="M4.54841 21.2131C4.54841 21.3558 4.56546 21.4987 4.6052 21.6356C4.64495 21.7728 4.69606 21.8928 4.77555 21.9957C4.84936 22.0984 4.94587 22.1841 5.06511 22.247C5.18435 22.3098 5.32063 22.3441 5.48527 22.3441C5.68968 22.3441 5.86003 22.2984 5.99629 22.207C6.12689 22.1155 6.21206 21.9843 6.24612 21.8242H6.9218C6.90476 22.0128 6.85365 22.1841 6.77418 22.327C6.68901 22.4697 6.58111 22.5897 6.45053 22.6869C6.31994 22.784 6.16663 22.8581 6.00197 22.9038C5.8373 22.9496 5.6613 22.9781 5.47961 22.9781C5.21273 22.9781 4.97994 22.9324 4.77555 22.8467C4.57114 22.7612 4.40079 22.6411 4.25885 22.4811C4.11689 22.3213 4.0147 22.1441 3.94088 21.9271C3.87275 21.7156 3.83301 21.4815 3.83301 21.2245C3.83301 20.973 3.86707 20.7446 3.94088 20.5274C4.0147 20.3105 4.12257 20.1276 4.25885 19.9677C4.40079 19.8134 4.57114 19.6877 4.77555 19.6022C4.97994 19.5107 5.21273 19.4707 5.47961 19.4707C5.66698 19.4707 5.84298 19.4936 6.00197 19.5393C6.16663 19.585 6.31425 19.6534 6.43917 19.7448C6.56977 19.8363 6.67197 19.962 6.75714 20.1047C6.83663 20.2533 6.88774 20.4248 6.91044 20.6303H6.23476C6.2007 20.4646 6.11553 20.3333 5.98495 20.2362C5.85435 20.139 5.684 20.0933 5.47961 20.0933C5.31495 20.0933 5.17299 20.1219 5.05943 20.1847C4.94019 20.2476 4.84368 20.3276 4.76987 20.4362C4.69606 20.5389 4.63927 20.6589 4.59952 20.7961C4.56546 20.9273 4.54841 21.0702 4.54841 21.2131Z" fill="white"/>
<path d="M10.2317 19.5049V20.1275H8.49428V20.9272H10.0103V21.5557H8.49428V22.3154H10.2317V22.938H7.7959V19.5049H10.2317Z" fill="white"/>
<path d="M11.9124 19.5049L12.9344 21.1215L13.9394 19.5049H14.6889V22.938H13.9905V20.5673L13.0821 22.0525H12.7698L11.8499 20.5673V22.938H11.1572V19.5049H11.9124Z" fill="white"/>
<path d="M16.4435 21.7212L18.1128 19.5049H18.675V22.938H17.9765V20.7445L16.3073 22.938H15.7451V19.5049H16.4435V21.7212Z" fill="white"/>
<path d="M21.0488 19.5046C21.2533 19.5046 21.4406 19.5275 21.6053 19.5675C21.77 19.6132 21.9119 19.6816 22.0312 19.773C22.1505 19.8702 22.2355 19.9902 22.298 20.1443C22.3605 20.2986 22.3889 20.487 22.3889 20.7099C22.3832 20.9041 22.3491 21.0755 22.2866 21.2239C22.2241 21.3725 22.1334 21.4983 22.0198 21.6011C21.9062 21.7038 21.77 21.7781 21.611 21.8353C21.4519 21.8867 21.2817 21.9153 21.0942 21.9153H20.4356V22.9263H19.7373V19.4932H21.0488V19.5046ZM21.0545 21.3039C21.1397 21.3039 21.2249 21.2925 21.2987 21.2696C21.3783 21.2468 21.4406 21.2127 21.503 21.1613C21.5599 21.1098 21.6053 21.0527 21.6451 20.9841C21.6791 20.9155 21.7019 20.8298 21.7019 20.7328C21.7076 20.5156 21.6507 20.3558 21.5258 20.2701C21.4067 20.1786 21.2419 20.1329 21.0488 20.1329H20.43V21.3039H21.0545Z" fill="white"/>
<path d="M23.9327 20.9329H25.3749V19.5106H26.0734V22.9437H25.3749V21.5557H23.9327V22.938H23.2344V19.5049H23.9327V20.9329Z" fill="white"/>
<path d="M27.1357 22.938V19.5049H27.8341V20.7388H28.4872C28.7142 20.7388 28.9072 20.7674 29.0776 20.8188C29.248 20.8701 29.3842 20.9615 29.4864 21.0872C29.5546 21.173 29.6114 21.2756 29.6512 21.39C29.6907 21.5043 29.7134 21.6469 29.7134 21.807C29.7078 22.0354 29.6682 22.2297 29.583 22.3783C29.4978 22.5324 29.3842 22.6467 29.2423 22.7325C29.123 22.8066 28.981 22.858 28.8221 22.8866C28.6631 22.9152 28.4929 22.9323 28.3111 22.9323H27.1357V22.938ZM27.8341 22.3212H28.294C28.3849 22.3212 28.4758 22.3154 28.5608 22.304C28.6517 22.2926 28.7256 22.2697 28.7994 22.2297C28.8676 22.1897 28.9242 22.1383 28.9697 22.0754C29.0151 22.0068 29.0321 21.9213 29.0321 21.8127C29.0321 21.7155 29.0151 21.6355 28.9753 21.5786C28.9356 21.5214 28.8903 21.4757 28.8335 21.4414C28.7767 21.4128 28.7029 21.39 28.6233 21.3785C28.5438 21.3671 28.4645 21.3614 28.3792 21.3614L27.8284 21.3671V22.3212H27.8341ZM30.1507 19.5049H30.8492V22.938H30.1507V19.5049Z" fill="white"/>
<path d="M32.6026 21.7207L34.272 19.5044H34.834V22.9375H34.1357V20.744L32.4663 22.9375H31.9043V19.5044H32.6026V21.7207ZM33.4146 19.2758C33.1535 19.2758 32.9376 19.2131 32.7674 19.0816C32.597 18.9502 32.5004 18.7561 32.4663 18.4932H33.0569C33.1024 18.6818 33.2215 18.7732 33.4203 18.7732C33.5112 18.7732 33.5905 18.7504 33.653 18.6989C33.7155 18.6532 33.7553 18.5789 33.7723 18.4932H34.3684C34.3345 18.7561 34.2266 18.9502 34.0561 19.0816C33.8859 19.2131 33.67 19.2758 33.4146 19.2758Z" fill="white"/>
<path d="M38.8993 19.8525V19.3555H39.5977V19.8525H39.7738C39.9781 19.8525 40.1655 19.8811 40.3415 19.9382C40.5119 19.9954 40.6594 20.0752 40.7787 20.1895C40.898 20.2981 40.9945 20.4353 41.0568 20.6008C41.125 20.7666 41.1534 20.9493 41.1534 21.1607C41.1477 21.5949 41.0286 21.9205 40.79 22.1489C40.5516 22.3718 40.2224 22.4859 39.7908 22.4916H39.592V23.0287H38.8936V22.4916H38.7175C38.5075 22.4916 38.3201 22.463 38.1498 22.4061C37.9794 22.3489 37.8319 22.2689 37.7126 22.1546C37.5933 22.046 37.497 21.909 37.4345 21.7433C37.3663 21.5777 37.3379 21.3949 37.3379 21.1836C37.3379 20.7494 37.4629 20.4238 37.7013 20.1952C37.9397 19.9725 38.2691 19.8582 38.7005 19.8525H38.8993ZM38.8993 21.8862V20.4408H38.6948C38.4621 20.4408 38.2862 20.5094 38.1783 20.6465C38.0703 20.7837 38.0192 20.9664 38.0249 21.1893C38.0306 21.4006 38.093 21.5663 38.218 21.6919C38.3371 21.8176 38.5019 21.8805 38.7175 21.8805H38.8993V21.8862ZM39.6033 20.4408V21.8862H39.8079C40.0406 21.8862 40.2167 21.8176 40.3244 21.6804C40.4323 21.5435 40.4835 21.3663 40.4778 21.1379C40.4721 20.9264 40.4096 20.7608 40.2903 20.6294C40.1712 20.5037 40.0065 20.4353 39.7908 20.4353H39.6033V20.4408Z" fill="white"/>
<path d="M44.4476 19.5049V20.1275H42.7101V20.9272H44.226V21.5557H42.7101V22.3154H44.4476V22.938H42.0117V19.5049H44.4476Z" fill="white"/>
<path d="M45.8492 21.2131C45.8492 21.3558 45.8662 21.4987 45.906 21.6356C45.9457 21.7728 45.9969 21.8928 46.0764 21.9957C46.1501 22.0984 46.2466 22.1841 46.3659 22.247C46.4852 22.3098 46.6214 22.3441 46.7861 22.3441C46.9904 22.3441 47.1608 22.2984 47.2972 22.207C47.4276 22.1155 47.5129 21.9843 47.5469 21.8242H48.2226C48.2055 22.0128 48.1544 22.1841 48.0751 22.327C47.9898 22.4697 47.8819 22.5897 47.7513 22.6869C47.6208 22.784 47.4674 22.8581 47.3027 22.9038C47.1381 22.9496 46.962 22.9781 46.7804 22.9781C46.5136 22.9781 46.2807 22.9324 46.0764 22.8467C45.8719 22.7612 45.7017 22.6411 45.5597 22.4811C45.4176 22.3213 45.3156 22.1441 45.2417 21.9271C45.1736 21.7156 45.1338 21.4815 45.1338 21.2245C45.1338 20.973 45.1679 20.7446 45.2417 20.5274C45.3156 20.3105 45.4233 20.1276 45.5597 19.9677C45.7017 19.8134 45.8719 19.6877 46.0764 19.6022C46.2807 19.5107 46.5136 19.4707 46.7804 19.4707C46.9677 19.4707 47.1438 19.4936 47.3027 19.5393C47.4674 19.585 47.6151 19.6534 47.7399 19.7448C47.8706 19.8363 47.9728 19.962 48.058 20.1047C48.1374 20.2533 48.1885 20.4248 48.2112 20.6303H47.5356C47.5015 20.4646 47.4163 20.3333 47.2858 20.2362C47.1552 20.139 46.9847 20.0933 46.7804 20.0933C46.6157 20.0933 46.4739 20.1219 46.3602 20.1847C46.241 20.2476 46.1444 20.3276 46.0707 20.4362C45.9969 20.5389 45.9401 20.6589 45.9003 20.7961C45.8662 20.9273 45.8492 21.0702 45.8492 21.2131Z" fill="white"/>
<path d="M48.8477 20.1323V19.5098H51.6865V20.1323H50.6191V22.9372H49.9207V20.1323H48.8477Z" fill="white"/>
<path d="M53.1575 21.7212L54.8267 19.5049H55.3889V22.938H54.6906V20.7445L53.0212 22.938H52.459V19.5049H53.1575V21.7212Z" fill="white"/>
<path d="M56.4443 22.938V19.5049H57.9546C58.1137 19.5049 58.2557 19.522 58.3919 19.5506C58.5282 19.5849 58.6418 19.6419 58.7439 19.7276C58.8234 19.7905 58.8916 19.8762 58.9484 19.9848C59.0052 20.0875 59.0336 20.2189 59.0336 20.3675C59.0336 20.5273 59.0109 20.6645 58.9484 20.7902C58.8859 20.9158 58.7893 21.0187 58.6475 21.0987C58.7439 21.1272 58.8348 21.173 58.9029 21.2299C58.9711 21.2871 59.0279 21.3557 59.0732 21.4357C59.1186 21.5157 59.147 21.5957 59.1697 21.687C59.1868 21.7784 59.1981 21.8698 59.1925 21.967C59.1868 22.1211 59.147 22.264 59.0675 22.3955C58.9938 22.5267 58.8916 22.6296 58.7723 22.7153C58.6305 22.818 58.4657 22.8809 58.2953 22.9037C58.1251 22.9323 57.949 22.9437 57.7787 22.9437H56.4443V22.938ZM57.7617 20.8986C57.8299 20.8986 57.9035 20.8929 57.9717 20.8872C58.0399 20.8815 58.108 20.8586 58.1705 20.8245C58.2216 20.7902 58.2671 20.7502 58.301 20.6931C58.3351 20.6359 58.3578 20.5731 58.3578 20.4988C58.3635 20.4189 58.3464 20.3561 58.318 20.3103C58.2896 20.2589 58.2557 20.2246 58.2103 20.196C58.1592 20.1618 58.0967 20.1446 58.0342 20.1389C57.966 20.1332 57.8978 20.1332 57.8299 20.1332H57.1427V20.8986H57.7617ZM57.1427 22.3212H57.7787C57.8696 22.3212 57.9717 22.3154 58.0739 22.304C58.1762 22.2926 58.2671 22.2583 58.3407 22.2069C58.3862 22.1726 58.4203 22.1268 58.4544 22.0754C58.4828 22.024 58.4998 21.9556 58.4998 21.8756C58.4998 21.8013 58.4828 21.7384 58.4544 21.687C58.4203 21.6355 58.3805 21.5957 58.3351 21.5728C58.2784 21.5386 58.216 21.5157 58.1478 21.51C58.0796 21.5043 58.0058 21.4985 57.9319 21.4985L57.1484 21.5043V22.3212H57.1427Z" fill="white"/>
<path d="M60.7315 22.286L60.4874 22.9429H59.7266L61.0494 19.5098H61.8386L63.1389 22.9429H62.3724L62.134 22.286H60.7315ZM60.936 21.6633H61.9295L61.4355 20.2524L60.936 21.6633Z" fill="white"/>
<path d="M64.9898 20.133C64.9842 20.3445 64.9785 20.5615 64.9785 20.7787C64.9785 20.9957 64.9728 21.2128 64.9614 21.4241C64.9558 21.5041 64.9558 21.5898 64.9501 21.6811C64.9444 21.7725 64.9387 21.864 64.9274 21.9554C64.916 22.0467 64.8991 22.1381 64.8764 22.2296C64.8537 22.321 64.8196 22.4066 64.7798 22.4866C64.7344 22.5723 64.6719 22.6466 64.6037 22.7037C64.5356 22.7609 64.4619 22.8064 64.3767 22.8464C64.2972 22.8807 64.2063 22.9093 64.1156 22.9207C64.0247 22.9379 63.9281 22.9436 63.8315 22.9436H63.7295V22.321H63.7918C63.8543 22.321 63.9054 22.3096 63.9565 22.2867C64.002 22.2639 64.0474 22.2353 64.0815 22.201C64.1156 22.1667 64.1438 22.1267 64.1665 22.081C64.1892 22.0353 64.2063 21.9954 64.212 21.9497C64.229 21.8754 64.246 21.7897 64.2574 21.6925C64.2688 21.5956 64.2745 21.4984 64.2745 21.3955C64.2801 21.2927 64.2801 21.1957 64.2858 21.0985C64.2858 21.0014 64.2915 20.9156 64.2972 20.8356C64.3029 20.6244 64.3085 20.4074 64.3029 20.1959C64.3029 19.9789 64.3029 19.7503 64.3085 19.499H66.7217V22.9322H66.0234V20.1273H64.9898V20.133Z" fill="white"/>
<path d="M67.7832 22.938V19.5049H68.4815V20.7388H69.2765C69.5037 20.7388 69.6966 20.7674 69.8671 20.8188C70.0316 20.8701 70.168 20.9615 70.2702 21.0815C70.3384 21.1673 70.3952 21.2699 70.4404 21.39C70.4802 21.51 70.5029 21.6469 70.5029 21.807C70.4972 22.0354 70.4575 22.2297 70.3725 22.3783C70.2873 22.5324 70.1736 22.6467 70.0316 22.7325C69.9125 22.8066 69.7705 22.858 69.6116 22.8866C69.4526 22.9152 69.2821 22.9323 69.1062 22.9323H67.7832V22.938ZM68.4815 22.3212H69.0835C69.1744 22.3212 69.2594 22.3154 69.3503 22.304C69.4355 22.2926 69.5151 22.2697 69.5889 22.2297C69.6569 22.1897 69.7137 22.1383 69.7591 22.0754C69.7989 22.0068 69.8216 21.9213 69.8216 21.8127C69.8216 21.7155 69.8046 21.6355 69.7648 21.5786C69.725 21.5214 69.6796 21.4757 69.6171 21.4414C69.5548 21.4071 69.4867 21.39 69.4071 21.3785C69.3276 21.3671 69.2481 21.3614 69.1687 21.3614L68.4815 21.3671V22.3212Z" fill="white"/>
<path d="M1.11337 25.0459L2.1354 26.6625L3.14041 25.0459H3.88988V28.479H3.1915V26.1084L2.28302 27.5936H1.97074L1.05092 26.1084V28.479H0.352539V25.0459H1.11337Z" fill="white"/>
<path d="M6.46254 25.0059C6.72374 25.0059 6.95653 25.0459 7.1666 25.1316C7.37669 25.2171 7.5527 25.3372 7.69466 25.4858C7.8366 25.6399 7.95016 25.8228 8.02397 26.034C8.10346 26.2455 8.13755 26.4853 8.13755 26.7423C8.13755 26.9938 8.0978 27.2279 8.02397 27.4451C7.94448 27.6621 7.8366 27.8507 7.69466 28.0048C7.5527 28.1649 7.37101 28.2849 7.16092 28.3761C6.95085 28.4676 6.71237 28.5076 6.44552 28.5019C6.17866 28.5019 5.94018 28.4561 5.73577 28.3704C5.52568 28.2792 5.35535 28.1591 5.21339 28.0048C5.07145 27.8507 4.96358 27.6678 4.88408 27.4508C4.81025 27.2394 4.77051 27.0052 4.77051 26.7538C4.77051 26.4968 4.81027 26.2569 4.88975 26.0455C4.96924 25.8285 5.08281 25.6456 5.22475 25.4915C5.37238 25.3372 5.5484 25.2171 5.75847 25.1316C5.96856 25.0459 6.20136 25.0059 6.46254 25.0059ZM5.48593 26.7481C5.48593 26.8966 5.50866 27.0395 5.5484 27.1708C5.58815 27.3022 5.64492 27.4223 5.72441 27.5249C5.8039 27.6278 5.90612 27.7135 6.02533 27.7764C6.14457 27.8393 6.29221 27.8736 6.45686 27.8736C6.61584 27.8793 6.75212 27.8507 6.87704 27.7878C6.99628 27.7307 7.09847 27.645 7.17796 27.5421C7.25745 27.4394 7.3199 27.3137 7.35965 27.1765C7.3994 27.0395 7.42212 26.8966 7.42212 26.7481C7.42212 26.6054 7.3994 26.4625 7.35965 26.3255C7.3199 26.1883 7.25746 26.0683 7.18364 25.9654C7.10415 25.8628 7.00196 25.777 6.88272 25.7142C6.76348 25.6513 6.61584 25.6227 6.45686 25.6227C6.29789 25.6227 6.15593 25.6513 6.03101 25.7142C5.91178 25.777 5.80958 25.8571 5.73009 25.9597C5.6506 26.0626 5.58815 26.1826 5.5484 26.3141C5.50866 26.4568 5.48593 26.5996 5.48593 26.7481Z" fill="white"/>
<path d="M9.94801 25.674C9.94235 25.8855 9.93667 26.1025 9.93667 26.3197C9.93667 26.5367 9.93098 26.7537 9.91962 26.9651C9.91394 27.0451 9.91394 27.1309 9.90826 27.2221C9.90258 27.3136 9.89692 27.405 9.88556 27.4964C9.8742 27.5877 9.85717 27.6791 9.83445 27.7706C9.81175 27.862 9.77768 27.9476 9.73794 28.0276C9.69251 28.1133 9.63004 28.1876 9.56191 28.2448C9.49378 28.3019 9.41997 28.3474 9.3348 28.3874C9.2553 28.4217 9.16445 28.4503 9.07362 28.4617C8.98276 28.4789 8.88623 28.4846 8.78972 28.4846H8.6875V27.862H8.74997C8.81242 27.862 8.86353 27.8506 8.91463 27.8277C8.96572 27.8049 9.00547 27.7763 9.03955 27.742C9.07362 27.7077 9.102 27.6677 9.12471 27.622C9.14743 27.5763 9.16445 27.5363 9.17013 27.4907C9.18717 27.4164 9.2042 27.3307 9.21556 27.2335C9.22692 27.1366 9.2326 27.0394 9.2326 26.9365C9.23826 26.8337 9.23826 26.7367 9.24394 26.6395C9.24394 26.5424 9.24962 26.4567 9.2553 26.3766C9.26099 26.1654 9.26667 25.9484 9.26099 25.7369C9.26099 25.5199 9.26099 25.2913 9.26667 25.04H11.6798V28.4732H10.9814V25.6683H9.94801V25.674Z" fill="white"/>
<path d="M14.2575 25.0059C14.5186 25.0059 14.7514 25.0459 14.9615 25.1316C15.1717 25.2171 15.3476 25.3372 15.4896 25.4858C15.6314 25.6399 15.7451 25.8228 15.8189 26.034C15.8984 26.2455 15.9325 26.4853 15.9325 26.7423C15.9325 26.9938 15.8928 27.2279 15.8189 27.4451C15.7394 27.6621 15.6314 27.8507 15.4896 28.0048C15.3476 28.1649 15.166 28.2849 14.9558 28.3761C14.7458 28.4676 14.5073 28.5076 14.2404 28.5019C13.9736 28.5019 13.7351 28.4561 13.5307 28.3704C13.3206 28.2792 13.1503 28.1591 13.0083 28.0048C12.8664 27.8507 12.7585 27.6678 12.679 27.4508C12.6052 27.2394 12.5654 27.0052 12.5654 26.7538C12.5654 26.4968 12.6052 26.2569 12.6847 26.0455C12.7642 25.8285 12.8777 25.6456 13.0197 25.4915C13.1673 25.3372 13.3433 25.2171 13.5534 25.1316C13.7635 25.0459 14.0019 25.0059 14.2575 25.0059ZM13.2865 26.7481C13.2865 26.8966 13.3092 27.0395 13.349 27.1708C13.3887 27.3022 13.4455 27.4223 13.525 27.5249C13.6045 27.6278 13.7067 27.7135 13.8259 27.7764C13.9452 27.8393 14.0928 27.8736 14.2575 27.8736C14.4164 27.8793 14.5527 27.8507 14.6776 27.7878C14.7969 27.7307 14.8991 27.645 14.9785 27.5421C15.0581 27.4394 15.1206 27.3137 15.1603 27.1765C15.1999 27.0395 15.2226 26.8966 15.2226 26.7481C15.2226 26.6054 15.1999 26.4625 15.1603 26.3255C15.1206 26.1883 15.0581 26.0683 14.9842 25.9654C14.9047 25.8628 14.8025 25.777 14.6833 25.7142C14.5641 25.6513 14.4164 25.6227 14.2575 25.6227C14.0985 25.6227 13.9565 25.6513 13.8316 25.7142C13.7124 25.777 13.6102 25.8571 13.5307 25.9597C13.4512 26.0626 13.3887 26.1826 13.349 26.3141C13.3036 26.4568 13.2865 26.5996 13.2865 26.7481Z" fill="white"/>
<path d="M19.97 29.3474H19.283V28.479H17.1821V29.3474H16.4951V27.8622H16.6201C16.6769 27.8622 16.728 27.8565 16.7676 27.845C16.8074 27.8336 16.8471 27.8165 16.8812 27.7879C16.9039 27.765 16.9267 27.7364 16.9437 27.6964C16.9607 27.6564 16.9721 27.6164 16.9835 27.5764C16.9948 27.5366 17.0005 27.4909 17.0062 27.4509C17.0119 27.4109 17.0176 27.3709 17.0232 27.3366C17.0403 27.1253 17.0573 26.9024 17.063 26.6797C17.0687 26.4568 17.08 26.2398 17.0857 26.0226C17.0971 25.7028 17.1028 25.3772 17.1028 25.0459H19.5612V27.8565H19.9757V29.3474H19.97ZM18.8571 27.8622V25.6742H17.7613L17.7329 26.7767C17.7329 26.851 17.7329 26.9367 17.7273 27.0338C17.7216 27.131 17.7159 27.228 17.7102 27.3308C17.6989 27.4337 17.6875 27.5309 17.6705 27.6221C17.6534 27.7136 17.6307 27.7993 17.6023 27.8622H18.8571Z" fill="white"/>
<path d="M23.1947 25.0454V25.668H21.4571V26.4678H22.9733V27.0962H21.4571V27.856H23.1947V28.4786H20.7588V25.0454H23.1947ZM21.4176 23.9658C21.5367 23.9658 21.6389 23.9999 21.7184 24.0742C21.798 24.1428 21.8319 24.24 21.8319 24.3657C21.8319 24.4855 21.7923 24.5884 21.7184 24.657C21.6389 24.7313 21.5423 24.7656 21.4176 24.7656C21.2983 24.7656 21.196 24.7313 21.1165 24.657C21.0371 24.5827 21.0031 24.4855 21.0031 24.3657C21.0031 24.2457 21.0426 24.1485 21.1165 24.0742C21.196 23.9999 21.2983 23.9658 21.4176 23.9658ZM22.5872 23.9658C22.7063 23.9658 22.8086 23.9999 22.8881 24.0742C22.9676 24.1428 23.0015 24.24 23.0015 24.3657C23.0015 24.4855 22.962 24.5884 22.8881 24.657C22.8086 24.7313 22.712 24.7656 22.5872 24.7656C22.4622 24.7656 22.36 24.7313 22.2861 24.657C22.2068 24.5827 22.1727 24.4855 22.1727 24.3657C22.1727 24.2457 22.2125 24.1485 22.2861 24.0742C22.36 23.9999 22.4566 23.9658 22.5872 23.9658Z" fill="white"/>
<path d="M26.4988 27.0853V28.479H25.8002V27.0853H25.3971L24.6533 28.479H23.8584L24.8521 26.6911L23.8754 25.0459H24.676L25.4539 26.4625H25.8002V25.0459H26.4988V26.4625H26.8394L27.623 25.0459H28.4179L27.4469 26.6911L28.435 28.479H27.64L26.8962 27.0853H26.4988Z" fill="white"/>
<path d="M29.8946 27.2623L31.564 25.0459H32.126V28.479H31.4277V26.2855L29.7583 28.479H29.1963V25.0459H29.8946V27.2623Z" fill="white"/>
<path d="M35.4882 27.1134C35.5675 27.0505 35.6413 26.9819 35.7209 26.9076C35.8004 26.8333 35.8743 26.7533 35.9479 26.6735C36.0218 26.5992 36.0842 26.5192 36.1354 26.4335C36.1865 26.3477 36.2149 26.2508 36.2206 26.1422C36.2263 25.9707 36.1808 25.8452 36.0842 25.7594C35.9877 25.6737 35.8572 25.6337 35.6982 25.6394C35.5561 25.6451 35.437 25.6737 35.3461 25.7423C35.2552 25.8052 35.2041 25.9023 35.1871 26.0221H34.5342C34.5399 25.8337 34.5853 25.668 34.6705 25.5253C34.7555 25.3824 34.8691 25.2738 35.0112 25.1881C35.1134 25.1254 35.2268 25.0797 35.3461 25.0568C35.4654 25.0283 35.5959 25.0168 35.7322 25.0168C36.0956 25.0111 36.3795 25.1083 36.5896 25.3081C36.6805 25.3939 36.7542 25.4967 36.8053 25.6223C36.8621 25.748 36.8848 25.8909 36.8848 26.0622C36.8848 26.1822 36.8735 26.3022 36.8451 26.4106C36.8167 26.5192 36.7769 26.6221 36.7144 26.7135C36.6749 26.7762 36.6351 26.839 36.5896 26.8905C36.5442 26.9419 36.5044 26.9934 36.459 27.0391C36.4135 27.0848 36.3681 27.1303 36.3172 27.1761C36.266 27.2218 36.2092 27.2732 36.1524 27.3247C36.0331 27.4275 35.9197 27.5245 35.8118 27.6102C35.7038 27.696 35.6016 27.7817 35.5052 27.8674H36.8394V28.49H34.5455V27.9187L35.4882 27.1134Z" fill="white"/>
<path d="M39.0471 25.0059C39.2457 25.0059 39.4218 25.0402 39.5921 25.1087C39.7568 25.1771 39.8986 25.28 40.0179 25.4286C40.1372 25.5713 40.2281 25.7542 40.2904 25.9712C40.3586 26.1883 40.387 26.451 40.387 26.7538C40.387 27.0624 40.3529 27.3251 40.2904 27.5421C40.2281 27.7593 40.1372 27.942 40.0236 28.0848C39.91 28.2277 39.7682 28.3304 39.6034 28.399C39.4389 28.4676 39.2514 28.5019 39.0528 28.5019C38.8483 28.5019 38.6665 28.4676 38.502 28.399C38.3372 28.3304 38.1954 28.2277 38.0761 28.0848C37.9568 27.942 37.8661 27.7593 37.8036 27.5421C37.7411 27.3251 37.707 27.0567 37.707 26.7538C37.707 26.451 37.7411 26.1883 37.8036 25.9712C37.8661 25.7542 37.9568 25.5713 38.0761 25.4286C38.1954 25.2857 38.3372 25.1771 38.502 25.1087C38.6665 25.0402 38.8483 25.0059 39.0471 25.0059ZM39.0471 27.885C39.2514 27.885 39.4162 27.7993 39.5296 27.6221C39.6432 27.4451 39.7057 27.1594 39.7057 26.7538C39.7057 26.3539 39.6489 26.0626 39.5296 25.8913C39.4162 25.7142 39.2514 25.6284 39.0471 25.6284C38.8369 25.6284 38.6779 25.7142 38.5644 25.8913C38.4508 26.0683 38.394 26.3539 38.394 26.7538C38.394 27.1594 38.4508 27.4451 38.5644 27.6221C38.6779 27.7993 38.8426 27.885 39.0471 27.885Z" fill="white"/>
<path d="M42.0223 27.1134C42.1019 27.0505 42.1757 26.9819 42.2551 26.9076C42.3346 26.8333 42.4084 26.7533 42.4823 26.6735C42.5561 26.5992 42.6184 26.5192 42.6696 26.4335C42.7207 26.3477 42.7491 26.2508 42.7548 26.1422C42.7604 25.9707 42.715 25.8452 42.6184 25.7594C42.522 25.6737 42.3914 25.6337 42.2323 25.6394C42.0905 25.6451 41.9712 25.6737 41.8803 25.7423C41.7896 25.8052 41.7385 25.9023 41.7215 26.0221H41.0684C41.074 25.8337 41.1195 25.668 41.2047 25.5253C41.2899 25.3824 41.4035 25.2738 41.5453 25.1881C41.6476 25.1254 41.7612 25.0797 41.8803 25.0568C41.9996 25.0283 42.1303 25.0168 42.2664 25.0168C42.6298 25.0111 42.9138 25.1083 43.1238 25.3081C43.2147 25.3939 43.2886 25.4967 43.3397 25.6223C43.3963 25.748 43.419 25.8909 43.419 26.0622C43.419 26.1822 43.4077 26.3022 43.3793 26.4106C43.3511 26.5192 43.3113 26.6221 43.2488 26.7135C43.209 26.7762 43.1693 26.839 43.1238 26.8905C43.0784 26.9419 43.0386 26.9934 42.9932 27.0391C42.9479 27.0848 42.9025 27.1303 42.8513 27.1761C42.8002 27.2218 42.7434 27.2732 42.6866 27.3247C42.5675 27.4275 42.4539 27.5245 42.3459 27.6102C42.238 27.696 42.136 27.7817 42.0394 27.8674H43.3736V28.49H41.1081V27.9187L42.0223 27.1134Z" fill="white"/>
<path d="M46.5194 27.2337H46.9055V27.8393H46.5194V28.479H45.8325V27.8393H44.1631V27.348L45.6849 25.0459H46.5138V27.2337H46.5194ZM44.9637 27.2337H45.8381V25.8571L44.9637 27.2337Z" fill="white"/>
</g>
</g>
</g>
<defs>
<clipPath id="clip0_467_2678">
<rect width="90" height="30.219" fill="white" transform="translate(0 0.390625)"/>
</clipPath>
</defs>
</svg>
