<svg width="110" height="60" viewBox="0 0 110 60" fill="none" xmlns="http://www.w3.org/2000/svg">
<g clip-path="url(#clip0_593_4134)">
<mask id="mask0_593_4134" style="mask-type:luminance" maskUnits="userSpaceOnUse" x="-22" y="-21" width="155" height="102">
<path d="M132.109 -20.3311H-22V80.5458H132.109V-20.3311Z" fill="white"/>
</mask>
<g mask="url(#mask0_593_4134)">
<path d="M28.1621 20.0867V13.095C27.6455 13.2189 26.6122 13.4669 24.8448 13.6702C24.2565 13.7371 23.0774 13.8735 21.2581 13.8735C20.3484 13.8735 18.5291 13.8735 17.1152 13.0454C16.643 12.7702 15.7012 12.2173 15.7012 10.7991C15.7012 10.3255 15.7012 9.3809 17.0138 8.65446C17.4513 8.41148 18.3264 7.92801 20.6846 7.92801C21.4039 7.92801 22.8401 7.92801 24.8275 8.23297C25.49 8.33462 26.8149 8.53793 28.1621 8.97677V1.71231C27.5886 1.42966 26.4441 0.866853 24.474 0.480076C23.819 0.351151 22.5039 0.0908203 19.9776 0.0908203C19.1471 0.0908203 17.4859 0.0908203 15.4812 0.851977C14.8138 1.10487 13.479 1.61313 12.0799 3.03132C11.6152 3.50487 10.6832 4.4495 9.92437 6.4776C9.67224 7.15446 9.16797 8.50322 9.16797 11.0718C9.16797 11.8478 9.16797 13.4024 9.90954 15.3115C10.1567 15.9487 10.6511 17.2206 12.1318 18.604C12.5841 19.028 13.4567 19.8388 15.3107 20.5553L28.0459 20.1511C28.0855 20.1264 28.1275 20.1065 28.1621 20.0867Z" fill="white"/>
</g>
<mask id="mask1_593_4134" style="mask-type:luminance" maskUnits="userSpaceOnUse" x="-22" y="-21" width="155" height="102">
<path d="M132.109 -20.3311H-22V80.5458H132.109V-20.3311Z" fill="white"/>
</mask>
<g mask="url(#mask1_593_4134)">
<path d="M48.1727 18.8699C48.672 18.431 49.6706 17.5533 50.4962 15.6269C50.7706 14.9847 51.3219 13.7029 51.3219 11.169C51.3219 10.3013 51.3219 8.56821 50.4962 6.52523C50.2219 5.84341 49.6706 4.48226 48.19 3.04672C47.6956 2.56821 46.7093 1.61118 44.6032 0.850024C43.9012 0.597132 42.4996 0.0888672 39.9066 0.0888672C39.0538 0.0888672 37.3482 0.0888671 35.2421 0.850024C34.5401 1.10292 33.1385 1.61118 31.638 3.02936C31.1387 3.50292 30.1401 4.44755 29.3318 6.49052C29.0623 7.17234 28.5234 8.53349 28.5234 11.1021C28.5234 11.9128 28.5234 13.5343 29.3491 15.4583C29.6234 16.1004 30.1747 17.3847 31.6553 18.736C31.9693 19.0236 32.4859 19.4922 33.3634 19.9781L47.3273 19.5343C47.6041 19.3434 47.8859 19.1228 48.1727 18.8699ZM43.3747 12.9765C43.1497 13.1054 42.6998 13.3657 41.81 13.5517C41.5133 13.6137 40.9176 13.7376 39.9066 13.7376C39.5704 13.7376 38.8956 13.7376 38.0032 13.5343C37.7066 13.4674 37.1109 13.331 36.4212 12.9591C36.1913 12.8351 35.7315 12.5872 35.3261 12.0294C35.1927 11.8434 34.9207 11.4715 34.9207 10.7302C34.9207 10.4823 34.9207 9.98639 35.3261 9.44589C35.4596 9.2649 35.7291 8.9054 36.4212 8.53349C36.6511 8.40953 37.1109 8.16159 38.0205 7.97564C38.3246 7.91366 38.9302 7.78969 39.9066 7.78969C40.2329 7.78969 40.883 7.78969 41.7927 7.97564C42.0967 8.03763 42.7023 8.16159 43.3747 8.51614C43.5996 8.63515 44.047 8.87069 44.4524 9.42854C44.5884 9.61449 44.8578 9.98639 44.8578 10.7277C44.8578 10.9756 44.8578 11.4715 44.4524 12.0269C44.3189 12.2178 44.0495 12.5872 43.3747 12.9765Z" fill="white"/>
</g>
<mask id="mask2_593_4134" style="mask-type:luminance" maskUnits="userSpaceOnUse" x="-22" y="-21" width="155" height="102">
<path d="M132.109 -20.3311H-22V80.5458H132.109V-20.3311Z" fill="white"/>
</mask>
<g mask="url(#mask2_593_4134)">
<path d="M80.2924 15.2897C80.5347 14.6128 81.0167 13.2641 81.0167 10.6955C81.0167 9.00705 81.0167 5.63019 78.2036 2.85829C77.2668 1.93597 75.3906 0.0888672 70.3751 0.0888672C69.7028 0.0888672 68.3556 0.0888675 66.7562 0.577297C66.2223 0.740934 65.1569 1.06821 63.9284 1.94589C63.518 2.23845 62.6998 2.82358 61.8569 4.07316C61.5751 4.48969 61.014 5.32275 60.5443 6.81035H59.2639V0.428537H52.125V19.3806L59.2639 19.155V14.6475H60.4751C60.7347 15.612 61.2192 17.3996 62.9248 19.0385L78.3841 18.5475C78.8735 18.0244 79.6547 17.0773 80.2924 15.2897ZM73.7097 13.2814C73.2722 13.5467 72.3971 14.0748 70.3751 14.0748C69.7126 14.0748 68.3877 14.0748 67.0578 13.2467C66.6153 12.9715 65.7279 12.4186 65.7279 10.8641C65.7279 10.3236 65.7279 9.24259 67.0257 8.51614C67.4583 8.27316 68.3234 7.78969 70.3776 7.78969C71.0747 7.78969 72.4663 7.78969 73.7443 8.56573C74.172 8.82358 75.0248 9.34176 75.0248 10.8616C75.0223 11.407 75.0223 12.488 73.7097 13.2814Z" fill="white"/>
</g>
<mask id="mask3_593_4134" style="mask-type:luminance" maskUnits="userSpaceOnUse" x="-22" y="-21" width="155" height="102">
<path d="M132.109 -20.3311H-22V80.5458H132.109V-20.3311Z" fill="white"/>
</mask>
<g mask="url(#mask3_593_4134)">
<path d="M99.6699 12.4354C99.5067 12.2271 99.1804 11.8106 98.5254 11.456C98.3054 11.337 97.8678 11.1015 97.2276 10.866C97.6552 10.618 98.5081 10.1222 99.3164 9.02628C99.5858 8.65934 100.125 7.92793 100.125 6.10562C100.125 5.5081 100.125 4.31554 99.3164 3.1676C99.0469 2.78579 98.5081 2.01967 97.1287 1.32793C96.669 1.09736 95.7494 0.6362 93.9301 0.365952C93.3245 0.276696 92.1108 0.0957031 90.0566 0.0957031C89.137 0.0957031 87.2955 0.095704 85.2908 0.586613C84.6233 0.750249 83.286 1.07752 81.6719 1.65025V7.3924C81.929 7.31306 82.4456 7.15686 83.4393 6.97091C83.7705 6.90893 84.433 6.78496 85.4588 6.65108C85.8024 6.60645 86.4847 6.51471 87.4636 6.44777C87.7899 6.42546 88.44 6.38083 89.1815 6.38083C89.6314 6.38083 90.5287 6.38083 91.4211 6.44777C91.7177 6.47008 92.3134 6.51471 92.835 6.68331C93.0081 6.74033 93.3566 6.8519 93.5766 7.12215C93.6508 7.21141 93.7966 7.3924 93.7966 7.83124C93.7966 7.96512 93.7966 8.23537 93.5766 8.49074C93.5049 8.57504 93.3591 8.74364 92.9883 8.86265C92.8647 8.90232 92.6175 8.98165 92.1305 9.03124C91.9674 9.0486 91.6411 9.08083 91.1022 9.08083H85.0411V13.1345H91.0355C91.3717 13.1345 92.0465 13.1345 92.6867 13.2684C92.8993 13.3131 93.3269 13.4023 93.6804 13.6056C93.7991 13.6726 94.0339 13.8089 94.1526 14.0445C94.1921 14.1238 94.2712 14.28 94.2712 14.4833C94.2712 14.5949 94.2712 14.8205 94.0858 15.0907C94.024 15.18 93.9004 15.361 93.411 15.5643C93.2478 15.6312 92.9215 15.7676 92.0638 15.8693C91.777 15.904 91.206 15.9709 89.8242 15.9709C89.1519 15.9709 87.8047 15.9709 85.7654 15.8197C85.0856 15.7701 83.7285 15.6684 81.6743 15.1949V18.4478L100.009 17.8651C100.199 17.4337 100.35 16.9354 100.431 16.3428C100.498 15.8817 100.634 14.9569 100.397 14.0122C100.315 13.6924 100.157 13.0602 99.6699 12.4354Z" fill="white"/>
</g>
<mask id="mask4_593_4134" style="mask-type:luminance" maskUnits="userSpaceOnUse" x="-22" y="-21" width="155" height="102">
<path d="M132.109 -20.3311H-22V80.5458H132.109V-20.3311Z" fill="white"/>
</mask>
<g mask="url(#mask4_593_4134)">
<path d="M31.5716 21.332L20.8386 21.6717L19.2566 27.8378H18.4136L16.8638 21.7981L6.01949 22.1403L4.40039 38.0948L11.5096 38.2064L12.1844 30.6419H13.0274L14.5278 38.2535L23.1177 38.3899L24.6453 30.6419H25.4858L26.1829 38.4395L33.3193 38.551L31.5716 21.332Z" fill="white"/>
</g>
<mask id="mask5_593_4134" style="mask-type:luminance" maskUnits="userSpaceOnUse" x="-22" y="-21" width="155" height="102">
<path d="M132.109 -20.3311H-22V80.5458H132.109V-20.3311Z" fill="white"/>
</mask>
<g mask="url(#mask5_593_4134)">
<path d="M35.4576 32.8877C35.2104 32.8481 34.716 32.7687 34.145 32.4985V38.5629L43.689 38.7142C44.3095 38.196 45.1697 37.296 45.9657 35.5729L52.7263 20.6621L45.0733 20.9051L42.8337 27.1629H41.9933L39.7142 21.0737L32.3281 21.3067L37.9146 32.9051C37.7812 32.9398 37.5117 33.0067 36.7355 33.0067C36.5576 33.0067 36.1967 33.0067 35.4576 32.8877Z" fill="white"/>
</g>
<mask id="mask6_593_4134" style="mask-type:luminance" maskUnits="userSpaceOnUse" x="-22" y="-21" width="155" height="102">
<path d="M132.109 -20.3311H-22V80.5458H132.109V-20.3311Z" fill="white"/>
</mask>
<g mask="url(#mask6_593_4134)">
<path d="M65.3817 20.2637L53.6673 20.6331L48.8965 38.7992L56.29 38.9157L59.1351 28.8521H60.0102L62.8826 39.0199L70.3378 39.1364L65.3817 20.2637Z" fill="white"/>
</g>
<mask id="mask7_593_4134" style="mask-type:luminance" maskUnits="userSpaceOnUse" x="-22" y="-21" width="155" height="102">
<path d="M132.109 -20.3311H-22V80.5458H132.109V-20.3311Z" fill="white"/>
</mask>
<g mask="url(#mask7_593_4134)">
<path d="M87.5705 37.6854C88.4011 36.9589 90.0622 35.506 90.0622 31.6903C90.0622 30.9366 90.0622 29.4267 89.2885 27.9069C89.0314 27.4011 88.5148 26.387 87.1676 25.4746C86.7177 25.1697 85.8204 24.5622 84.0184 24.1755C83.4177 24.0465 82.2164 23.7862 80.1301 23.7862H79.2377C79.0869 23.7862 78.7829 23.7862 78.244 23.8531V19.8564L71.1719 20.0796V39.1507L84.4881 39.3614C85.5312 39.044 86.604 38.5283 87.5705 37.6854ZM82.9382 33.1581C82.6292 33.3217 82.0112 33.649 79.8903 33.649C79.7791 33.649 79.5541 33.649 79.166 33.6143C79.0375 33.6019 78.7779 33.5796 78.2391 33.5126V29.9325C78.3849 29.9201 78.6766 29.8978 79.0647 29.8829C79.1932 29.8779 79.4528 29.8655 79.9916 29.8655C80.6096 29.8655 81.8431 29.8655 82.8541 30.287C83.1903 30.4283 83.8651 30.7085 83.8651 31.6879C83.8651 32.0151 83.8651 32.6697 82.9382 33.1581Z" fill="white"/>
</g>
<mask id="mask8_593_4134" style="mask-type:luminance" maskUnits="userSpaceOnUse" x="-22" y="-21" width="155" height="102">
<path d="M132.109 -20.3311H-22V80.5458H132.109V-20.3311Z" fill="white"/>
</mask>
<g mask="url(#mask8_593_4134)">
<path d="M89.0742 19.5123V26.2189H95.034V39.528L102.141 39.6395V26.2189H108.402V18.9023L89.0742 19.5123Z" fill="white"/>
</g>
<mask id="mask9_593_4134" style="mask-type:luminance" maskUnits="userSpaceOnUse" x="-22" y="-21" width="155" height="102">
<path d="M132.109 -20.3311H-22V80.5458H132.109V-20.3311Z" fill="white"/>
</mask>
<g mask="url(#mask9_593_4134)">
<path d="M2.96937 56.2432C3.4069 56.6374 4.28196 57.4258 6.04937 58.1002C6.64016 58.3258 7.81679 58.7771 9.83881 58.9779V60.1234H16.9109V58.9779C17.5512 58.911 18.8291 58.7746 20.5817 58.1176C21.1651 57.8994 22.3318 57.4581 23.6963 56.2779C24.1512 55.8837 25.0608 55.0953 25.8691 53.3572C26.1386 52.7771 26.6775 51.6167 26.6775 49.2539C26.6775 48.4655 26.6775 46.8886 25.8691 45.1159C25.5997 44.5258 25.0608 43.3432 23.6963 42.1085C23.2415 41.6969 22.3318 40.8762 20.5817 40.1672C20.2999 40.0531 19.8797 39.8845 19.3112 39.7184L8.0269 39.5498C7.46331 39.6812 6.81567 39.8746 6.08398 40.1672C5.49567 40.4027 4.31657 40.8763 2.98668 42.0911C2.54421 42.4977 1.65679 43.306 0.883082 45.0812C0.626004 45.6713 0.109375 46.8539 0.109375 49.2192C0.109375 50.0077 0.109374 51.5845 0.883082 53.3225C1.14016 53.9002 1.65679 55.0605 2.96937 56.2432ZM16.9456 46.3804C17.2817 46.3804 17.9566 46.3804 18.6116 46.601C18.8291 46.6729 19.2691 46.8217 19.6548 47.2085C19.7833 47.3374 20.0429 47.5977 20.2109 48.0862C20.2678 48.2498 20.379 48.5746 20.379 49.0829C20.379 49.5564 20.379 50.501 19.504 51.3639C19.2123 51.6515 18.6289 52.2242 16.9456 52.2242V46.3804ZM6.57342 48.1878C6.63027 48.0143 6.74151 47.6647 7.1469 47.2581C7.28286 47.1242 7.54982 46.8515 8.20735 46.6159C8.42735 46.5366 8.86241 46.3804 9.84128 46.3804V52.1895C9.51499 52.1895 8.86488 52.1895 8.20735 51.9539C7.98735 51.8746 7.54982 51.7184 7.1469 51.3118C7.01095 51.1754 6.74151 50.9052 6.57342 50.382C6.51656 50.2085 6.40533 49.8589 6.40533 49.2837C6.40533 49.0928 6.40533 48.711 6.57342 48.1878Z" fill="white"/>
</g>
<mask id="mask10_593_4134" style="mask-type:luminance" maskUnits="userSpaceOnUse" x="-22" y="-21" width="155" height="102">
<path d="M132.109 -20.3311H-22V80.5458H132.109V-20.3311Z" fill="white"/>
</mask>
<g mask="url(#mask10_593_4134)">
<path d="M27.252 39.835V59.3573H34.2227L38.556 50.9796H39.2531V59.3573H45.6504V40.1077L37.8762 39.9912L34.3439 46.792H33.6764V39.9292L27.252 39.835Z" fill="white"/>
</g>
<mask id="mask11_593_4134" style="mask-type:luminance" maskUnits="userSpaceOnUse" x="-22" y="-21" width="155" height="102">
<path d="M132.109 -20.3311H-22V80.5458H132.109V-20.3311Z" fill="white"/>
</mask>
<g mask="url(#mask11_593_4134)">
<path d="M46.5039 59.3577H53.1706L55.9293 48.5156H56.7178L59.4765 59.3577H66.1432L61.6518 40.3462L51.0324 40.1875L46.5039 59.3577Z" fill="white"/>
</g>
<mask id="mask12_593_4134" style="mask-type:luminance" maskUnits="userSpaceOnUse" x="-22" y="-21" width="155" height="102">
<path d="M132.109 -20.3311H-22V80.5458H132.109V-20.3311Z" fill="white"/>
</mask>
<g mask="url(#mask12_593_4134)">
<path d="M66.9141 40.4229V58.9187C68.2168 59.122 70.8246 59.5262 75.0986 59.5262C76.5421 59.5262 79.4318 59.5262 81.6763 57.3468C82.4228 56.6204 83.9183 55.1675 83.9183 51.3518C83.9183 50.5981 83.9183 49.0881 83.2213 47.5683C82.9889 47.0625 82.5242 46.0485 81.3129 45.1361C80.9075 44.8311 80.1017 44.2237 78.4777 43.8369C77.9363 43.708 76.8561 43.4476 74.9774 43.4476H74.1741C74.0381 43.4476 73.7662 43.4476 73.2792 43.5146V40.5171L66.9141 40.4229ZM74.0208 49.5443C74.137 49.5394 74.3693 49.527 74.8538 49.527C75.41 49.527 76.5199 49.527 77.4296 49.9485C77.7336 50.0898 78.3392 50.37 78.3392 51.3493C78.3392 51.6766 78.3392 52.3286 77.5062 52.8195C77.2293 52.9832 76.6732 53.3105 74.7624 53.3105C74.661 53.3105 74.4583 53.3105 74.1098 53.2757C73.9936 53.2634 73.7613 53.241 73.2768 53.1741V49.5939C73.4102 49.584 73.6723 49.5617 74.0208 49.5443Z" fill="white"/>
</g>
<mask id="mask13_593_4134" style="mask-type:luminance" maskUnits="userSpaceOnUse" x="-22" y="-21" width="155" height="102">
<path d="M132.109 -20.001H-22V80.8759H132.109V-20.001Z" fill="white"/>
</mask>
<g mask="url(#mask13_593_4134)">
<path d="M83.7246 59.3577H90.1491L90.8783 50.3057H91.6347L93.2415 59.3577H100.484L102.091 50.3057H102.85L103.577 59.3577H110.001L108.33 41.0379L98.7687 40.8966L97.2435 47.5015H96.4846L94.9446 40.8396L85.4278 40.6982L83.7246 59.3577Z" fill="white"/>
</g>
</g>
<defs>
<clipPath id="clip0_593_4134">
<rect width="110" height="60" fill="white"/>
</clipPath>
</defs>
</svg>
