<svg width="85" height="30" viewBox="0 0 85 30" fill="none" xmlns="http://www.w3.org/2000/svg">
<g clip-path="url(#clip0_640_739)">
<mask id="mask0_640_739" style="mask-type:luminance" maskUnits="userSpaceOnUse" x="-22" y="-15" width="126" height="63">
<path d="M103.999 -14.7432H-21.1144V47.1237H103.999V-14.7432Z" fill="white"/>
</mask>
<g mask="url(#mask0_640_739)">
<path d="M0.931301 29.251H9.9553C10.1336 29.251 10.2793 29.3967 10.2793 29.575C10.2793 29.7533 10.1336 29.899 9.9553 29.899H0.931301C0.751301 29.899 0.6073 29.7533 0.6073 29.575C0.6073 29.3967 0.753015 29.251 0.931301 29.251Z" fill="white"/>
</g>
<mask id="mask1_640_739" style="mask-type:luminance" maskUnits="userSpaceOnUse" x="-22" y="-15" width="126" height="63">
<path d="M103.999 -14.7432H-21.1144V47.1237H103.999V-14.7432Z" fill="white"/>
</mask>
<g mask="url(#mask1_640_739)">
<path d="M1.17479 24.1544L9.88337 26.5201C10.0565 26.5664 10.1576 26.7447 10.1114 26.9178C10.0651 27.091 9.88679 27.1921 9.71365 27.1458L1.00508 24.7801C0.831936 24.7338 0.730793 24.5555 0.777079 24.3824C0.823364 24.2092 1.00165 24.1064 1.17479 24.1544Z" fill="white"/>
</g>
<mask id="mask2_640_739" style="mask-type:luminance" maskUnits="userSpaceOnUse" x="-22" y="-15" width="126" height="63">
<path d="M103.999 -14.7432H-21.1144V47.1237H103.999V-14.7432Z" fill="white"/>
</mask>
<g mask="url(#mask2_640_739)">
<path d="M1.87248 18.336L9.37763 23.3503C9.52677 23.4497 9.5662 23.6503 9.46677 23.7994C9.36734 23.9485 9.16677 23.988 9.01763 23.8885L1.5142 18.876C1.36506 18.7765 1.32563 18.5743 1.42505 18.4268C1.52277 18.276 1.72334 18.2365 1.87248 18.336Z" fill="white"/>
</g>
<mask id="mask3_640_739" style="mask-type:luminance" maskUnits="userSpaceOnUse" x="-22" y="-15" width="126" height="63">
<path d="M103.999 -14.7432H-21.1144V47.1237H103.999V-14.7432Z" fill="white"/>
</mask>
<g mask="url(#mask3_640_739)">
<path d="M2.90289 11.6281L8.01489 19.0646C8.11603 19.2121 8.07831 19.4143 7.93088 19.5155C7.78346 19.6166 7.58117 19.5789 7.48003 19.4315L2.36803 11.9949C2.26689 11.8475 2.3046 11.6452 2.45203 11.5441C2.59946 11.4429 2.80174 11.4806 2.90289 11.6281Z" fill="white"/>
</g>
<mask id="mask4_640_739" style="mask-type:luminance" maskUnits="userSpaceOnUse" x="-22" y="-15" width="126" height="63">
<path d="M103.999 -14.7432H-21.1144V47.1237H103.999V-14.7432Z" fill="white"/>
</mask>
<g mask="url(#mask4_640_739)">
<path d="M6.61076 6.31045L8.83591 15.0567C8.88048 15.2299 8.77591 15.4065 8.60276 15.451C8.42962 15.4956 8.25305 15.3893 8.20848 15.2162L5.98334 6.46988C5.94048 6.29674 6.04333 6.12017 6.21819 6.0756C6.38962 6.03102 6.56619 6.13731 6.61076 6.31045Z" fill="white"/>
</g>
<mask id="mask5_640_739" style="mask-type:luminance" maskUnits="userSpaceOnUse" x="-22" y="-15" width="126" height="63">
<path d="M103.999 -14.7432H-21.1144V47.1237H103.999V-14.7432Z" fill="white"/>
</mask>
<g mask="url(#mask5_640_739)">
<path d="M10.9445 0.345499L10.9188 9.3695C10.9188 9.54779 10.7731 9.6935 10.5931 9.69178C10.4148 9.69178 10.2691 9.54607 10.2708 9.36778L10.2948 0.343786C10.2948 0.1655 10.4405 0.0197851 10.6205 0.0214993C10.8005 0.0197851 10.9445 0.165499 10.9445 0.345499Z" fill="white"/>
</g>
<mask id="mask6_640_739" style="mask-type:luminance" maskUnits="userSpaceOnUse" x="-22" y="-15" width="126" height="63">
<path d="M103.999 -14.7432H-21.1144V47.1237H103.999V-14.7432Z" fill="white"/>
</mask>
<g mask="url(#mask6_640_739)">
<path d="M19.0478 9.06977C19.0478 9.32348 18.8353 9.53434 18.5833 9.53434H17.8958C17.6421 9.53434 17.4313 9.32177 17.4313 9.06977V2.92063C17.4313 2.66863 17.6438 2.45605 17.8958 2.45605H21.0604C21.3141 2.45605 21.525 2.66863 21.525 2.92063V3.50691C21.525 3.76063 21.3124 3.9732 21.0604 3.9732H19.0478V5.46977H20.757C21.0107 5.46977 21.2216 5.68234 21.2216 5.93434V6.52063C21.2216 6.77434 21.009 6.9852 20.757 6.9852H19.0478V9.06977Z" fill="white"/>
</g>
<mask id="mask7_640_739" style="mask-type:luminance" maskUnits="userSpaceOnUse" x="-22" y="-15" width="126" height="63">
<path d="M103.999 -14.7432H-21.1144V47.1237H103.999V-14.7432Z" fill="white"/>
</mask>
<g mask="url(#mask7_640_739)">
<path d="M26.2205 2.33496C28.3754 2.33496 29.9834 3.74068 29.9834 5.99668C29.9834 8.14125 28.3754 9.65839 26.2205 9.65839C24.0656 9.65839 22.4576 8.25268 22.4576 5.99668C22.4576 3.94296 23.9662 2.33496 26.2205 2.33496ZM26.2205 8.14125C27.5662 8.14125 28.2639 7.18982 28.2639 5.99668C28.2639 4.70239 27.3639 3.8521 26.2205 3.8521C25.0479 3.8521 24.1771 4.70068 24.1771 5.99668C24.1771 7.21039 25.0874 8.14125 26.2205 8.14125Z" fill="white"/>
</g>
<mask id="mask8_640_739" style="mask-type:luminance" maskUnits="userSpaceOnUse" x="-22" y="-15" width="126" height="63">
<path d="M103.999 -14.7432H-21.1144V47.1237H103.999V-14.7432Z" fill="white"/>
</mask>
<g mask="url(#mask8_640_739)">
<path d="M35.5582 2.92063C35.5582 2.66863 35.7707 2.45605 36.0227 2.45605H36.7102C36.9622 2.45605 37.1747 2.66863 37.1747 2.92063V6.6132C37.1747 8.77663 35.7999 9.65777 34.2827 9.65777C32.4622 9.65777 31.1987 8.61548 31.1987 6.54291V2.92234C31.1987 2.67034 31.4113 2.45777 31.6633 2.45777H32.3507C32.6027 2.45777 32.8153 2.67034 32.8153 2.92234V6.20005C32.8153 7.30234 33.1496 8.14234 34.2827 8.14234C35.2633 8.14234 35.5564 7.42405 35.5564 6.29091V2.92063H35.5582Z" fill="white"/>
</g>
<mask id="mask9_640_739" style="mask-type:luminance" maskUnits="userSpaceOnUse" x="-22" y="-15" width="126" height="63">
<path d="M103.999 -14.7432H-21.1144V47.1237H103.999V-14.7432Z" fill="white"/>
</mask>
<g mask="url(#mask9_640_739)">
<path d="M44.3989 2.45679C44.6509 2.45679 44.8634 2.66936 44.8634 2.92136V9.07051C44.8634 9.32422 44.6509 9.53508 44.3989 9.53508H43.924C43.7114 9.53508 43.4783 9.42365 43.348 9.25222L40.2126 5.28708V9.06879C40.2126 9.32251 40 9.53336 39.748 9.53336H39.1617C38.908 9.53336 38.6971 9.32079 38.6971 9.06879V2.91965C38.6971 2.66765 38.9097 2.45508 39.1617 2.45508H39.6366C39.8491 2.45508 40.0806 2.56651 40.2126 2.73794L43.348 6.72194V2.91965C43.348 2.66765 43.5606 2.45508 43.8143 2.45508H44.3989V2.45679Z" fill="white"/>
</g>
<mask id="mask10_640_739" style="mask-type:luminance" maskUnits="userSpaceOnUse" x="-22" y="-15" width="126" height="63">
<path d="M103.999 -14.7432H-21.1144V47.1237H103.999V-14.7432Z" fill="white"/>
</mask>
<g mask="url(#mask10_640_739)">
<path d="M48.7205 2.42578C51.5525 2.42578 52.6943 4.05435 52.6943 5.93492C52.6943 7.91835 51.3383 9.5555 48.6383 9.5555C48.3348 9.5555 47.6577 9.54521 46.9497 9.53492C46.696 9.53492 46.4851 9.32235 46.4851 9.06007V2.9315C46.4851 2.66921 46.6977 2.45664 46.9497 2.45664C47.5463 2.44635 48.3657 2.42578 48.7205 2.42578ZM48.1034 8.0195C48.316 8.04007 48.4565 8.04007 48.6897 8.04007C50.0851 8.04007 50.9748 7.28235 50.9748 5.93664C50.9748 4.63207 50.0148 3.94464 48.7 3.94464C48.5285 3.94464 48.3057 3.94464 48.1034 3.9755V8.0195Z" fill="white"/>
</g>
<mask id="mask11_640_739" style="mask-type:luminance" maskUnits="userSpaceOnUse" x="-22" y="-15" width="126" height="63">
<path d="M103.999 -14.7432H-21.1144V47.1237H103.999V-14.7432Z" fill="white"/>
</mask>
<g mask="url(#mask11_640_739)">
<path d="M55.053 8.04805L54.597 9.20177C54.5165 9.40405 54.3245 9.53605 54.1119 9.53605H53.4948C53.241 9.53605 53.0593 9.32348 53.0593 9.10062C53.0593 9.04062 53.0696 8.97891 53.0902 8.9292L55.6393 2.79034C55.7302 2.58805 55.9222 2.45605 56.1348 2.45605H56.8736C57.0862 2.45605 57.2782 2.58805 57.369 2.79034L59.9182 8.9292C59.9388 8.97891 59.949 9.04062 59.949 9.10062C59.949 9.32348 59.7673 9.53605 59.5136 9.53605H58.7953C58.5828 9.53605 58.3908 9.40405 58.3102 9.20177L57.8559 8.04805H55.053ZM55.6599 6.53263H57.2473L56.4588 4.53034L55.6599 6.53263Z" fill="white"/>
</g>
<mask id="mask12_640_739" style="mask-type:luminance" maskUnits="userSpaceOnUse" x="-22" y="-15" width="126" height="63">
<path d="M103.999 -14.7432H-21.1144V47.1237H103.999V-14.7432Z" fill="white"/>
</mask>
<g mask="url(#mask12_640_739)">
<path d="M62.2958 9.5363C62.0438 9.5363 61.8313 9.32372 61.8313 9.07172V3.97515H60.1736C59.9216 3.97515 59.709 3.76258 59.709 3.50887V2.92258C59.709 2.67058 59.9216 2.45801 60.1736 2.45801H65.109C65.361 2.45801 65.5736 2.67058 65.5736 2.92258V3.50887C65.5736 3.76258 65.361 3.97515 65.109 3.97515H63.4496V9.07172C63.4496 9.32544 63.237 9.5363 62.985 9.5363H62.2958Z" fill="white"/>
</g>
<mask id="mask13_640_739" style="mask-type:luminance" maskUnits="userSpaceOnUse" x="-22" y="-15" width="126" height="63">
<path d="M103.999 -14.7432H-21.1144V47.1237H103.999V-14.7432Z" fill="white"/>
</mask>
<g mask="url(#mask13_640_739)">
<path d="M68.5068 9.06977C68.5068 9.32348 68.2943 9.53434 68.0423 9.53434H67.3548C67.1011 9.53434 66.8903 9.32177 66.8903 9.06977V2.92063C66.8903 2.66863 67.1028 2.45605 67.3548 2.45605H68.0423C68.296 2.45605 68.5068 2.66863 68.5068 2.92063V9.06977Z" fill="white"/>
</g>
<mask id="mask14_640_739" style="mask-type:luminance" maskUnits="userSpaceOnUse" x="-22" y="-15" width="126" height="63">
<path d="M103.999 -14.7432H-21.1144V47.1237H103.999V-14.7432Z" fill="white"/>
</mask>
<g mask="url(#mask14_640_739)">
<path d="M73.6856 2.33496C75.8404 2.33496 77.4484 3.74068 77.4484 5.99668C77.4484 8.14125 75.8404 9.65839 73.6856 9.65839C71.5307 9.65839 69.9227 8.25268 69.9227 5.99668C69.9244 3.94296 71.4313 2.33496 73.6856 2.33496ZM73.6856 8.14125C75.0313 8.14125 75.729 7.18982 75.729 5.99668C75.729 4.70239 74.829 3.8521 73.6856 3.8521C72.513 3.8521 71.6422 4.70068 71.6422 5.99668C71.6439 7.21039 72.5542 8.14125 73.6856 8.14125Z" fill="white"/>
</g>
<mask id="mask15_640_739" style="mask-type:luminance" maskUnits="userSpaceOnUse" x="-22" y="-15" width="126" height="63">
<path d="M103.999 -14.7432H-21.1144V47.1237H103.999V-14.7432Z" fill="white"/>
</mask>
<g mask="url(#mask15_640_739)">
<path d="M84.4703 2.45679C84.7223 2.45679 84.9348 2.66936 84.9348 2.92136V9.07051C84.9348 9.32422 84.7223 9.53508 84.4703 9.53508H83.9954C83.7828 9.53508 83.5497 9.42365 83.4194 9.25222L80.284 5.28708V9.06879C80.284 9.32251 80.0714 9.53336 79.8194 9.53336H79.2331C78.9794 9.53336 78.7686 9.32079 78.7686 9.06879V2.91965C78.7686 2.66765 78.9811 2.45508 79.2331 2.45508H79.708C79.9206 2.45508 80.152 2.56651 80.284 2.73794L83.4194 6.72194V2.91965C83.4194 2.66765 83.632 2.45508 83.8857 2.45508H84.4703V2.45679Z" fill="white"/>
</g>
<mask id="mask16_640_739" style="mask-type:luminance" maskUnits="userSpaceOnUse" x="-22" y="-15" width="126" height="63">
<path d="M103.999 -14.7432H-21.1144V47.1237H103.999V-14.7432Z" fill="white"/>
</mask>
<g mask="url(#mask16_640_739)">
<path d="M17.8017 28.1382C17.8926 27.9959 18.0348 27.9256 18.1754 27.9256C18.2868 27.9256 18.388 27.9565 18.4891 28.0267C18.904 28.2993 19.3891 28.5016 19.7646 28.5016C20.1897 28.5016 20.4314 28.289 20.4314 27.9547C20.4314 26.8919 17.4777 27.0239 17.4777 24.7387C17.4777 23.6467 18.3468 22.6953 19.7646 22.6953C20.4931 22.6953 21.0074 22.8376 21.5131 23.1599C21.6451 23.2405 21.7051 23.4033 21.7051 23.5542C21.7051 23.6347 21.6846 23.7256 21.6451 23.7976L21.3811 24.2433C21.28 24.4045 21.1377 24.4867 20.9766 24.4867C20.896 24.4867 20.7948 24.4559 20.704 24.4062C20.4606 24.2845 20.1983 24.2142 19.9051 24.2142C19.4611 24.2142 19.1971 24.4165 19.1971 24.7405C19.1971 25.913 22.1508 25.6302 22.1508 27.9359C22.1508 29.1702 21.088 30.0187 19.7234 30.0187C19.0154 30.0187 18.268 29.7462 17.5788 29.2096C17.4777 29.129 17.4263 28.9867 17.4263 28.8547C17.4263 28.7433 17.4468 28.6422 17.5068 28.5616L17.8017 28.1382Z" fill="white"/>
</g>
<mask id="mask17_640_739" style="mask-type:luminance" maskUnits="userSpaceOnUse" x="-22" y="-15" width="126" height="63">
<path d="M103.999 -14.7432H-21.1144V47.1237H103.999V-14.7432Z" fill="white"/>
</mask>
<g mask="url(#mask17_640_739)">
<path d="M27.5524 23.2849C27.5524 23.0329 27.765 22.8203 28.017 22.8203H28.7044C28.9564 22.8203 29.169 23.0329 29.169 23.2849V26.9775C29.169 29.1409 27.7941 30.022 26.277 30.022C24.4564 30.022 23.193 28.9797 23.193 26.9072V23.2866C23.193 23.0346 23.4056 22.822 23.6576 22.822H24.345C24.597 22.822 24.8096 23.0346 24.8096 23.2866V26.5643C24.8096 27.6666 25.1439 28.5066 26.277 28.5066C27.2576 28.5066 27.5507 27.7883 27.5507 26.6552V23.2849H27.5524Z" fill="white"/>
</g>
<mask id="mask18_640_739" style="mask-type:luminance" maskUnits="userSpaceOnUse" x="-22" y="-15" width="126" height="63">
<path d="M103.999 -14.7432H-21.1144V47.1237H103.999V-14.7432Z" fill="white"/>
</mask>
<g mask="url(#mask18_640_739)">
<path d="M35.5943 25.1449C35.5943 26.4084 34.6137 27.5209 32.9748 27.5209C32.8223 27.5209 32.4383 27.5209 32.1863 27.4918V29.4341C32.1863 29.6878 31.9737 29.8987 31.7217 29.8987H31.0343C30.7806 29.8987 30.5697 29.6861 30.5697 29.4341V23.2952C30.5697 23.0329 30.7823 22.8204 31.0343 22.8204C31.5708 22.8101 32.3388 22.7998 32.7331 22.7998C34.8863 22.7998 35.5943 23.9209 35.5943 25.1449ZM32.1863 25.9541C32.4194 25.9849 32.692 26.0055 32.9234 26.0055C33.3486 26.0055 33.8748 25.8238 33.8748 25.1364C33.8748 24.5089 33.4703 24.3169 32.8943 24.3169C32.6817 24.3169 32.5206 24.3272 32.1863 24.3375V25.9541Z" fill="white"/>
</g>
<mask id="mask19_640_739" style="mask-type:luminance" maskUnits="userSpaceOnUse" x="-22" y="-15" width="126" height="63">
<path d="M103.999 -14.7432H-21.1144V47.1237H103.999V-14.7432Z" fill="white"/>
</mask>
<g mask="url(#mask19_640_739)">
<path d="M41.8753 25.1449C41.8753 26.4084 40.8947 27.5209 39.2559 27.5209C39.1033 27.5209 38.7193 27.5209 38.4673 27.4918V29.4341C38.4673 29.6878 38.2547 29.8987 38.0027 29.8987H37.3153C37.0616 29.8987 36.8507 29.6861 36.8507 29.4341V23.2952C36.8507 23.0329 37.0633 22.8204 37.3153 22.8204C37.8518 22.8101 38.6199 22.7998 39.0141 22.7998C41.1673 22.7998 41.8753 23.9209 41.8753 25.1449ZM38.4673 25.9541C38.7004 25.9849 38.973 26.0055 39.2044 26.0055C39.6296 26.0055 40.1559 25.8238 40.1559 25.1364C40.1559 24.5089 39.7513 24.3169 39.1753 24.3169C38.9627 24.3169 38.8016 24.3272 38.4673 24.3375V25.9541Z" fill="white"/>
</g>
<mask id="mask20_640_739" style="mask-type:luminance" maskUnits="userSpaceOnUse" x="-22" y="-15" width="126" height="63">
<path d="M103.999 -14.7432H-21.1144V47.1237H103.999V-14.7432Z" fill="white"/>
</mask>
<g mask="url(#mask20_640_739)">
<path d="M46.5724 22.6973C48.7273 22.6973 50.3353 24.103 50.3353 26.359C50.3353 28.5036 48.7273 30.0207 46.5724 30.0207C44.4176 30.0207 42.8096 28.615 42.8096 26.359C42.8113 24.307 44.3181 22.6973 46.5724 22.6973ZM46.5724 28.5036C47.9181 28.5036 48.6159 27.5521 48.6159 26.359C48.6159 25.0647 47.7159 24.2144 46.5724 24.2144C45.3999 24.2144 44.529 25.063 44.529 26.359C44.5307 27.5727 45.4393 28.5036 46.5724 28.5036Z" fill="white"/>
</g>
<mask id="mask21_640_739" style="mask-type:luminance" maskUnits="userSpaceOnUse" x="-22" y="-15" width="126" height="63">
<path d="M103.999 -14.7432H-21.1144V47.1237H103.999V-14.7432Z" fill="white"/>
</mask>
<g mask="url(#mask21_640_739)">
<path d="M53.7759 27.4215H53.1793V29.4341C53.1793 29.6878 52.9667 29.8987 52.7147 29.8987H52.0273C51.7736 29.8987 51.5627 29.6861 51.5627 29.4341V23.2849C51.5627 23.0329 51.7753 22.8204 52.0273 22.8204C52.7147 22.8101 53.817 22.7998 53.9696 22.7998C55.9016 22.7998 56.589 23.7598 56.589 25.0644C56.589 26.3792 55.7799 26.9158 55.3959 27.1078L56.9542 29.2112C57.0142 29.2918 57.045 29.3827 57.045 29.4632C57.045 29.6861 56.8633 29.8987 56.601 29.8987H55.8536C55.641 29.8987 55.4182 29.7872 55.2965 29.6055L53.7759 27.4215ZM53.7656 25.9044C54.3827 25.9044 54.8679 25.6815 54.8679 25.0849C54.8679 24.6907 54.6656 24.3169 53.8873 24.3169C53.6439 24.3169 53.5136 24.3272 53.1793 24.3375V25.9044H53.7656Z" fill="white"/>
</g>
<mask id="mask22_640_739" style="mask-type:luminance" maskUnits="userSpaceOnUse" x="-22" y="-15" width="126" height="63">
<path d="M103.999 -14.7432H-21.1144V47.1237H103.999V-14.7432Z" fill="white"/>
</mask>
<g mask="url(#mask22_640_739)">
<path d="M60.1411 29.8986C59.8891 29.8986 59.6765 29.686 59.6765 29.434V24.3375H58.0188C57.7668 24.3375 57.5542 24.1249 57.5542 23.8712V23.2849C57.5542 23.0329 57.7668 22.8203 58.0188 22.8203H62.9542C63.2062 22.8203 63.4188 23.0329 63.4188 23.2849V23.8712C63.4188 24.1249 63.2062 24.3375 62.9542 24.3375H61.2948V29.434C61.2948 29.6877 61.0822 29.8986 60.8302 29.8986H60.1411Z" fill="white"/>
</g>
<mask id="mask23_640_739" style="mask-type:luminance" maskUnits="userSpaceOnUse" x="-22" y="-15" width="126" height="63">
<path d="M103.999 -14.7432H-21.1144V47.1237H103.999V-14.7432Z" fill="white"/>
</mask>
<g mask="url(#mask23_640_739)">
<path d="M17.3816 19.956V12.8623H21.0605V13.3852H17.9662V16.5686H20.5376V17.0914H17.9662V19.956H17.3816Z" fill="white"/>
</g>
<mask id="mask24_640_739" style="mask-type:luminance" maskUnits="userSpaceOnUse" x="-22" y="-15" width="126" height="63">
<path d="M103.999 -14.7432H-21.1144V47.1237H103.999V-14.7432Z" fill="white"/>
</mask>
<g mask="url(#mask24_640_739)">
<path d="M23.7912 20.0432C23.1586 20.0432 22.6803 19.8358 22.3581 19.4175C22.0358 19.001 21.8746 18.3838 21.8746 17.5678V15.2792C21.8746 14.4512 22.0375 13.8272 22.3632 13.4038C22.6889 12.9804 23.1672 12.7695 23.7998 12.7695C24.4323 12.7695 24.9072 12.9804 25.2278 13.4038C25.5466 13.8255 25.7061 14.4512 25.7061 15.2792V17.5678C25.7061 18.3838 25.5449 18.9992 25.2226 19.4175C24.9003 19.8358 24.4238 20.0432 23.7912 20.0432ZM23.7912 19.5204C24.2695 19.5204 24.6106 19.3661 24.8146 19.0592C25.0186 18.7524 25.1215 18.2587 25.1215 17.5781V15.2741C25.1215 14.5832 25.0203 14.081 24.8146 13.7672C24.6106 13.4535 24.2695 13.2975 23.7912 13.2975C23.3129 13.2975 22.9701 13.4535 22.7661 13.7672C22.5621 14.081 22.4592 14.5832 22.4592 15.2741V17.5798C22.4592 18.2604 22.5621 18.7541 22.7661 19.061C22.9701 19.3678 23.3129 19.5204 23.7912 19.5204Z" fill="white"/>
</g>
<mask id="mask25_640_739" style="mask-type:luminance" maskUnits="userSpaceOnUse" x="-22" y="-15" width="126" height="63">
<path d="M103.999 -14.7432H-21.1144V47.1237H103.999V-14.7432Z" fill="white"/>
</mask>
<g mask="url(#mask25_640_739)">
<path d="M27.8182 19.956H27.2336V12.8623H29.3799C29.9645 12.8623 30.4016 13.02 30.6914 13.3372C30.9811 13.6543 31.1268 14.1189 31.1268 14.7343V15.2846C31.1268 15.852 31.0085 16.2926 30.7719 16.6063C30.5354 16.92 30.1839 17.1017 29.7176 17.1549L31.2159 19.9577H30.5679L29.0696 17.1737H27.8199V19.956H27.8182ZM27.8182 16.6577H29.3611C29.7811 16.6577 30.0828 16.5497 30.2696 16.3337C30.4565 16.1177 30.5491 15.7646 30.5491 15.2743V14.7514C30.5491 14.268 30.4565 13.9166 30.2696 13.7006C30.0828 13.4846 29.7794 13.3766 29.3611 13.3766H27.8182V16.6577Z" fill="white"/>
</g>
<mask id="mask26_640_739" style="mask-type:luminance" maskUnits="userSpaceOnUse" x="-22" y="-15" width="126" height="63">
<path d="M103.999 -14.7432H-21.1144V47.1237H103.999V-14.7432Z" fill="white"/>
</mask>
<g mask="url(#mask26_640_739)">
<path d="M37.4834 19.956L36.9245 17.784H34.8142L34.2468 19.956H33.6708L35.5942 12.8623H36.1531L38.0954 19.956H37.4834ZM36.7908 17.2594L35.8685 13.704L34.9462 17.2594H36.7908Z" fill="white"/>
</g>
<mask id="mask27_640_739" style="mask-type:luminance" maskUnits="userSpaceOnUse" x="-22" y="-15" width="126" height="63">
<path d="M103.999 -14.7432H-21.1144V47.1237H103.999V-14.7432Z" fill="white"/>
</mask>
<g mask="url(#mask27_640_739)">
<path d="M42.2096 19.956L39.9656 13.8292V19.956H39.4342V12.8623H40.1525L42.4479 19.1229V12.8623H42.9793V19.956H42.2096Z" fill="white"/>
</g>
<mask id="mask28_640_739" style="mask-type:luminance" maskUnits="userSpaceOnUse" x="-22" y="-15" width="126" height="63">
<path d="M103.999 -14.7432H-21.1144V47.1237H103.999V-14.7432Z" fill="white"/>
</mask>
<g mask="url(#mask28_640_739)">
<path d="M44.5394 19.956V19.4332H46.0206V13.3852H44.5394V12.8623H48.0863V13.3852H46.6051V19.4332H48.0863V19.956H44.5394Z" fill="white"/>
</g>
<mask id="mask29_640_739" style="mask-type:luminance" maskUnits="userSpaceOnUse" x="-22" y="-15" width="126" height="63">
<path d="M103.999 -14.7432H-21.1144V47.1237H103.999V-14.7432Z" fill="white"/>
</mask>
<g mask="url(#mask29_640_739)">
<path d="M51.2679 18.2006L50.061 13.8549V19.956H49.521V12.8623H50.2821L51.5593 17.4737L52.8278 12.8623H53.5633V19.956H53.0233V13.8634L51.8164 18.2006H51.2679Z" fill="white"/>
</g>
<mask id="mask30_640_739" style="mask-type:luminance" maskUnits="userSpaceOnUse" x="-22" y="-15" width="126" height="63">
<path d="M103.999 -14.7432H-21.1144V47.1237H103.999V-14.7432Z" fill="white"/>
</mask>
<g mask="url(#mask30_640_739)">
<path d="M58.5914 19.956L58.0325 17.784H55.9222L55.3548 19.956H54.7788L56.7022 12.8623H57.2611L59.2034 19.956H58.5914ZM57.9005 17.2594L56.9782 13.704L56.056 17.2594H57.9005Z" fill="white"/>
</g>
<mask id="mask31_640_739" style="mask-type:luminance" maskUnits="userSpaceOnUse" x="-22" y="-15" width="126" height="63">
<path d="M103.999 -14.7432H-21.1144V47.1237H103.999V-14.7432Z" fill="white"/>
</mask>
<g mask="url(#mask31_640_739)">
<path d="M61.1062 19.956V13.3852H59.2788V12.8623H63.5268V13.3852H61.6908V19.956H61.1062Z" fill="white"/>
</g>
<mask id="mask32_640_739" style="mask-type:luminance" maskUnits="userSpaceOnUse" x="-22" y="-15" width="126" height="63">
<path d="M103.999 -14.7432H-21.1144V47.1237H103.999V-14.7432Z" fill="white"/>
</mask>
<g mask="url(#mask32_640_739)">
<path d="M64.9084 19.956V19.4332H66.3896V13.3852H64.9084V12.8623H68.4553V13.3852H66.9759V19.4332H68.4553V19.956H64.9084Z" fill="white"/>
</g>
<mask id="mask33_640_739" style="mask-type:luminance" maskUnits="userSpaceOnUse" x="-22" y="-15" width="126" height="63">
<path d="M103.999 -14.7432H-21.1144V47.1237H103.999V-14.7432Z" fill="white"/>
</mask>
<g mask="url(#mask33_640_739)">
<path d="M71.6645 20.0432C71.0319 20.0432 70.5536 19.8358 70.2313 19.4175C69.9091 19.001 69.7479 18.3838 69.7479 17.5678V15.2792C69.7479 14.4512 69.9108 13.8272 70.2365 13.4038C70.5622 12.9804 71.0405 12.7695 71.6731 12.7695C72.3056 12.7695 72.7805 12.9804 73.1011 13.4038C73.4199 13.8255 73.5793 14.4512 73.5793 15.2792V17.5678C73.5793 18.3838 73.4182 18.9992 73.0959 19.4175C72.7736 19.8358 72.2971 20.0432 71.6645 20.0432ZM71.6645 19.5204C72.1428 19.5204 72.4839 19.3661 72.6879 19.0592C72.8919 18.7524 72.9948 18.2587 72.9948 17.5781V15.2741C72.9948 14.5832 72.8936 14.081 72.6879 13.7672C72.4839 13.4535 72.1428 13.2975 71.6645 13.2975C71.1862 13.2975 70.8433 13.4535 70.6393 13.7672C70.4353 14.081 70.3325 14.5832 70.3325 15.2741V17.5798C70.3325 18.2604 70.4353 18.7541 70.6393 19.061C70.8433 19.3678 71.1845 19.5204 71.6645 19.5204Z" fill="white"/>
</g>
<mask id="mask34_640_739" style="mask-type:luminance" maskUnits="userSpaceOnUse" x="-22" y="-15" width="126" height="63">
<path d="M103.999 -14.7432H-21.1144V47.1237H103.999V-14.7432Z" fill="white"/>
</mask>
<g mask="url(#mask34_640_739)">
<path d="M77.8805 19.956L75.6382 13.8292V19.956H75.1068V12.8623H75.8234L78.1205 19.1229V12.8623H78.652V19.956H77.8805Z" fill="white"/>
</g>
</g>
<defs>
<clipPath id="clip0_640_739">
<rect width="84.3429" height="30" fill="white" transform="translate(0.657104)"/>
</clipPath>
</defs>
</svg>
