<svg width="250" height="58" viewBox="0 0 250 58" fill="none" xmlns="http://www.w3.org/2000/svg">
<g clip-path="url(#clip0_516_4843)">
<path d="M12.4559 27.9638H14.5963C15.437 27.964 16.2577 27.7134 16.9482 27.2456C17.6387 26.7779 18.1659 26.1154 18.4592 25.347L23.3532 12.526V5.46412C23.3522 4.2932 22.8759 3.17031 22.0283 2.34092C21.1808 1.51153 20.0309 1.04312 18.8303 1.03809H1.25391V1.17902C2.22699 1.42539 3.08866 1.97986 3.70367 2.75541C4.31869 3.53097 4.65225 4.48371 4.652 5.46412V53.0383C4.65158 54.0185 4.31777 54.9709 3.70286 55.7463C3.08794 56.5218 2.22666 57.0764 1.25391 57.3234V57.4643H18.8303C20.0343 57.4643 21.1891 56.9981 22.0409 56.1682C22.8927 55.3382 23.3717 54.2125 23.3728 53.0383V46.0069L18.4397 33.1592C18.1508 32.3907 17.627 31.7272 16.9389 31.2586C16.2508 30.7899 15.4317 30.5386 14.5924 30.5386H12.4559C12.1058 30.5386 11.77 30.403 11.5224 30.1615C11.2748 29.9201 11.1357 29.5926 11.1357 29.2512C11.1357 28.9097 11.2748 28.5823 11.5224 28.3408C11.77 28.0994 12.1058 27.9638 12.4559 27.9638Z" fill="#F8F7FF"/>
<path d="M18.8303 57.6399H1.25393C1.20696 57.6389 1.16226 57.62 1.1294 57.5873C1.09655 57.5545 1.07816 57.5105 1.07817 57.4647V57.3238C1.07785 57.2854 1.09077 57.248 1.11485 57.2176C1.13893 57.1872 1.17278 57.1656 1.21097 57.1562C2.14579 56.9183 2.97321 56.3846 3.56345 55.6387C4.1537 54.8928 4.47338 53.977 4.47236 53.0349V5.46453C4.47319 4.52286 4.15336 3.60758 3.56308 2.86235C2.97279 2.11712 2.14547 1.58413 1.21097 1.34702C1.17278 1.33763 1.13893 1.31601 1.11485 1.28562C1.09077 1.25523 1.07785 1.21783 1.07817 1.17943V1.03849C1.07765 1.01567 1.08181 0.992968 1.09041 0.971731C1.09901 0.950494 1.11187 0.931146 1.12825 0.914824C1.14462 0.898502 1.16417 0.885535 1.18576 0.876684C1.20734 0.867833 1.23052 0.863276 1.25393 0.863281H18.8303C20.0817 0.864288 21.2816 1.34926 22.1669 2.21184C23.0521 3.07441 23.5504 4.24416 23.5525 5.46453V12.5111C23.5566 12.5313 23.5566 12.552 23.5525 12.5721L18.6311 25.3931C18.3239 26.1959 17.7733 26.8883 17.0525 27.3783C16.3317 27.8682 15.4749 28.1324 14.5963 28.1356H12.4559C12.1524 28.1356 11.8613 28.2531 11.6467 28.4624C11.4321 28.6717 11.3115 28.9556 11.3115 29.2516C11.3115 29.5476 11.4321 29.8315 11.6467 30.0408C11.8613 30.25 12.1524 30.3676 12.4559 30.3676H14.5963C15.4709 30.3712 16.3236 30.6349 17.0404 31.1236C17.7572 31.6123 18.3039 32.3027 18.6077 33.1025L23.5173 45.9464C23.5207 45.9665 23.5207 45.9871 23.5173 46.0073V53.0349C23.5163 54.25 23.0233 55.4155 22.1455 56.278C21.2678 57.1404 20.0763 57.6299 18.8303 57.6399ZM1.91012 57.2933H18.8303C19.9878 57.2913 21.0973 56.842 21.9158 56.0438C22.7342 55.2456 23.195 54.1636 23.197 53.0349V46.0416L18.2757 33.2206C17.9981 32.4864 17.4968 31.8528 16.839 31.4047C16.1813 30.9567 15.3987 30.7157 14.5963 30.7142H12.4559C12.0581 30.7142 11.6767 30.5601 11.3954 30.2858C11.1141 30.0115 10.9561 29.6395 10.9561 29.2516C10.9561 28.8637 11.1141 28.4916 11.3954 28.2173C11.6767 27.943 12.0581 27.7889 12.4559 27.7889H14.5963C15.4 27.7871 16.1839 27.5467 16.844 27.0996C17.504 26.6526 18.0089 26.0201 18.2913 25.2865L23.1814 12.4807V5.46453C23.1794 4.33872 22.7207 3.25943 21.9054 2.46229C21.0902 1.66516 19.9847 1.21493 18.8303 1.2099H1.89449C2.75786 1.55806 3.49593 2.14815 4.01529 2.9055C4.53466 3.66286 4.81198 4.55343 4.81217 5.46453V53.0349C4.81275 53.9466 4.53579 54.838 4.01638 55.5961C3.49696 56.3542 2.75848 56.9449 1.89449 57.2933H1.91012Z" fill="white"/>
<path d="M31.1097 1.03867C30.1205 1.03844 29.1549 1.33312 28.3423 1.88321C27.5296 2.43329 26.9089 3.21248 26.5633 4.11633L23.3565 12.4961L18.4625 25.3323C18.1692 26.1007 17.642 26.7632 16.9515 27.231C16.261 27.6987 15.4403 27.9493 14.5996 27.9491H34.664C35.557 27.9478 36.4284 27.6809 37.1619 27.1841C37.8954 26.6873 38.456 25.9842 38.7691 25.1686L47.0065 3.64401C47.2095 3.09067 47.5369 2.58865 47.9647 2.17474C48.3925 1.76084 48.9099 1.44554 49.4789 1.25198V1.02344L31.1097 1.03867Z" fill="#D7D0FF"/>
<path d="M34.6601 28.1356H14.5957C14.5702 28.1393 14.5441 28.1376 14.5193 28.1306C14.4945 28.1236 14.4715 28.1114 14.452 28.095C14.4324 28.0785 14.4167 28.0582 14.406 28.0353C14.3952 28.0124 14.3896 27.9875 14.3896 27.9623C14.3896 27.9371 14.3952 27.9122 14.406 27.8893C14.4167 27.8664 14.4324 27.8461 14.452 27.8296C14.4715 27.8132 14.4945 27.801 14.5193 27.794C14.5441 27.787 14.5702 27.7853 14.5957 27.789C15.3994 27.7871 16.1833 27.5467 16.8434 27.0997C17.5034 26.6526 18.0083 26.0202 18.2907 25.2865L26.3992 4.05525C26.7593 3.11977 27.4028 2.31333 28.2442 1.74316C29.0856 1.173 30.0851 0.866115 31.1097 0.863325H49.4672C49.491 0.862804 49.5146 0.86698 49.5366 0.875601C49.5587 0.884222 49.5787 0.897109 49.5955 0.913484C49.6123 0.929859 49.6255 0.949383 49.6343 0.970876C49.6432 0.992369 49.6474 1.01539 49.6469 1.03854V1.26708C49.6465 1.30322 49.6347 1.33837 49.613 1.36769C49.5913 1.39701 49.5609 1.41908 49.5258 1.43086C48.9829 1.61809 48.4892 1.92007 48.08 2.31517C47.6708 2.71027 47.3563 3.18872 47.1589 3.71625L38.9253 25.2446C38.598 26.0908 38.015 26.8203 37.2534 27.3365C36.4919 27.8527 35.5876 28.1314 34.6601 28.1356ZM16.3026 27.789H34.6601C35.5163 27.7867 36.3515 27.5304 37.0548 27.0542C37.758 26.5779 38.296 25.9043 38.5972 25.1227L46.8347 3.59817C47.0299 3.06763 47.3349 2.58187 47.7306 2.17104C48.1263 1.76021 48.6044 1.43308 49.1352 1.20994H31.1097C30.1572 1.21205 29.2279 1.49714 28.4457 2.02724C27.6634 2.55733 27.0654 3.30726 26.7312 4.17714L18.6305 25.3931C18.4276 25.9257 18.1165 26.4128 17.7158 26.8251C17.3151 27.2375 16.8331 27.5666 16.2987 27.7928L16.3026 27.789Z" fill="white"/>
<path d="M46.987 54.8365L38.8784 33.6205C38.5306 32.7178 37.9094 31.9396 37.0974 31.3892C36.2854 30.8388 35.3209 30.5423 34.332 30.5391H14.5957C15.4343 30.5398 16.2526 30.7915 16.9399 31.2601C17.6272 31.7287 18.1505 32.3918 18.4391 33.1596L23.3526 46.0073L26.6726 54.6842C26.9847 55.5004 27.5451 56.2042 28.2788 56.7011C29.0125 57.1981 29.8844 57.4645 30.7777 57.4647H49.4711V57.2362C48.9021 57.0381 48.3846 56.7204 47.9554 56.3058C47.5261 55.8911 47.1955 55.3895 46.987 54.8365Z" fill="#CBC2FF"/>
<path d="M49.475 57.6395H30.7816C29.8529 57.6362 28.9471 57.3576 28.1846 56.8405C27.4221 56.3235 26.8389 55.5925 26.5125 54.7446L18.275 33.2201C17.9975 32.486 17.4961 31.8523 16.8384 31.4043C16.1806 30.9562 15.398 30.7153 14.5957 30.7138C14.5483 30.7128 14.5032 30.6941 14.4697 30.6614C14.4363 30.6288 14.417 30.5848 14.416 30.5386C14.417 30.4928 14.4364 30.4492 14.47 30.4172C14.5036 30.3851 14.5487 30.3672 14.5957 30.3672H34.332C35.357 30.3703 36.3568 30.6772 37.1988 31.2473C38.0408 31.8174 38.6851 32.6236 39.0464 33.5591L47.151 54.7904C47.3526 55.3187 47.6709 55.7972 48.0833 56.1922C48.4957 56.5871 48.9922 56.8888 49.5375 57.0757C49.5724 57.0872 49.6027 57.1093 49.6238 57.1388C49.6449 57.1682 49.6557 57.2036 49.6547 57.2395V57.4681C49.6536 57.5139 49.6343 57.5575 49.6007 57.5895C49.5671 57.6215 49.522 57.6395 49.475 57.6395ZM16.2947 30.7138C16.8263 30.9378 17.3055 31.2651 17.7031 31.6757C18.1006 32.0863 18.4082 32.5716 18.607 33.102L26.8445 54.6228C27.1462 55.404 27.6843 56.0774 28.3874 56.5536C29.0906 57.0297 29.9255 57.2862 30.7816 57.289H49.1391C48.6075 57.0646 48.128 56.7377 47.7293 56.328C47.3306 55.9182 47.0209 55.4341 46.819 54.9046L38.7104 33.681C38.3763 32.8111 37.7782 32.0612 36.996 31.5311C36.2138 31.001 35.2845 30.7159 34.332 30.7138H16.2947Z" fill="white"/>
<path d="M68.0432 10.5117V18.8267H66.0902V12.0772H62.243V18.8267H60.29V10.5117H68.0432Z" fill="white"/>
<path d="M77.8938 13.5284C77.8938 15.3796 76.4682 16.5337 74.191 16.5337H72.4725V18.8191H70.5V10.5117H74.191C76.4682 10.5117 77.8938 11.662 77.8938 13.5284ZM75.894 13.5284C75.894 12.6143 75.2847 12.0772 74.0817 12.0772H72.4725V14.9644H74.0817C75.2847 14.9644 75.894 14.4312 75.894 13.5284Z" fill="white"/>
<path d="M79.6094 10.5117H81.5623V15.9281L85.6322 10.5117H87.4836V18.8267H85.5306V13.4218L81.4725 18.8267H79.6094V10.5117Z" fill="white"/>
<path d="M102.052 10.5117V18.8267H100.099V12.0772H96.2479V18.8267H94.2949V10.5117H102.052Z" fill="white"/>
<path d="M103.935 14.6665C103.935 12.1983 105.907 10.3662 108.602 10.3662C111.297 10.3662 113.266 12.1755 113.266 14.6665C113.266 17.1576 111.281 18.9669 108.602 18.9669C105.923 18.9669 103.935 17.1271 103.935 14.6665ZM111.27 14.6665C111.257 14.155 111.089 13.6585 110.788 13.2393C110.487 12.8201 110.066 12.4967 109.578 12.3097C109.089 12.1227 108.555 12.0803 108.042 12.1879C107.529 12.2955 107.06 12.5482 106.693 12.9145C106.327 13.2808 106.079 13.7443 105.982 14.2471C105.884 14.7499 105.941 15.2696 106.144 15.7412C106.348 16.2128 106.69 16.6154 107.127 16.8985C107.564 17.1816 108.077 17.3327 108.602 17.3328C108.961 17.3422 109.317 17.2792 109.65 17.1476C109.982 17.0161 110.283 16.819 110.534 16.5686C110.784 16.3182 110.979 16.0199 111.106 15.6926C111.232 15.3653 111.288 15.0159 111.27 14.6665Z" fill="white"/>
<path d="M123.897 17.2566V20.5552H122.073V18.8259H116.055V20.5552H114.227V17.2643H114.566C115.676 17.23 115.957 15.4474 116.043 13.1201L116.14 10.5186H122.726V17.2566H123.897ZM116.945 17.2566H120.773V12.0764H117.847L117.812 13.2915C117.722 15.0589 117.527 16.5824 116.945 17.2566Z" fill="white"/>
<path d="M134.834 17.2566V20.5552H133.006V18.8259H126.975V20.5552H125.147V17.2643H125.487C126.597 17.23 126.874 15.4474 126.96 13.1201L127.057 10.5186H133.611V17.2566H134.834ZM127.878 17.2566H131.69V12.0764H128.768L128.729 13.2915C128.647 15.0589 128.452 16.5824 127.866 17.2566H127.878Z" fill="white"/>
<path d="M143.158 17.2803V18.8267H136.557V10.5117H143.001V12.0544H138.517V13.8598H142.478V15.3567H138.517V17.2803H143.158Z" fill="white"/>
<path d="M152.582 13.5284C152.582 15.3796 151.157 16.5337 148.88 16.5337H147.161V18.8191H145.188V10.5117H148.895C151.157 10.5117 152.582 11.662 152.582 13.5284ZM150.586 13.5284C150.586 12.6143 149.977 12.0772 148.77 12.0772H147.161V14.9644H148.77C149.977 14.9644 150.586 14.4312 150.586 13.5284Z" fill="white"/>
<path d="M161.819 15.4744H160.577V18.8263H158.624V15.4744H157.359L155.445 18.8263H153.191L155.742 14.4612L153.34 10.4961H155.426L157.336 13.8556H158.66V10.5113H160.613V13.8708H161.878L163.804 10.5113H165.885L163.464 14.4612L166.01 18.8111H163.737L161.819 15.4744Z" fill="white"/>
<path d="M170.959 15.4748H169.596V18.8267H167.643V10.5117H169.596V13.8712H171.009L173.251 10.5117H175.333L172.544 14.5264L175.419 18.8267H173.177L170.959 15.4748Z" fill="white"/>
<path d="M183.626 17.2803V18.8267H177.018V10.5117H183.462V12.0544H178.971V13.8598H182.931V15.3567H178.971V17.2803H183.626Z" fill="white"/>
<path d="M68.0432 24.7686V33.0874H66.0902V26.3379H62.243V33.0874H60.29V24.7686H68.0432Z" fill="white"/>
<path d="M77.8938 27.7929C77.8938 29.6479 76.4682 30.802 74.191 30.802H72.4725V33.0874H70.5V24.7686H74.191C76.4682 24.7686 77.8938 25.9227 77.8938 27.7929ZM75.894 27.7929C75.894 26.8787 75.2847 26.3455 74.0817 26.3455H72.4725V29.2327H74.0817C75.2847 29.2251 75.894 28.6918 75.894 27.7929Z" fill="white"/>
<path d="M86.2103 31.5409V33.0874H79.6094V24.7686H86.054V26.315H81.5701V28.1205H85.5307V29.6174H81.5701V31.5219L86.2103 31.5409Z" fill="white"/>
<path d="M94.8381 30.7556C94.8381 32.3249 93.0844 33.2276 91.0377 33.2276C89.8459 33.2295 88.6738 32.9303 87.6357 32.3592L88.2451 30.9803C89.0207 31.4245 89.9039 31.6585 90.8034 31.6583C91.9244 31.6583 92.8383 31.2546 92.8383 30.4814C92.8383 29.8529 92.2564 29.5443 91.3658 29.5443H89.284V28.0969H91.2174C92.022 28.0969 92.4868 27.7503 92.4868 27.2056C92.4868 26.5276 91.7291 26.1696 90.7682 26.1696C89.9662 26.1771 89.1791 26.3815 88.4794 26.7638L87.8818 25.2669C88.7877 24.8207 89.7885 24.5885 90.8034 24.5889C92.7797 24.5889 94.4827 25.4687 94.4827 26.9771C94.4831 27.3585 94.366 27.7313 94.1466 28.0471C93.9273 28.3629 93.6157 28.6071 93.2524 28.7483C93.7049 28.8686 94.1047 29.1299 94.391 29.4922C94.6772 29.8546 94.8342 30.2982 94.8381 30.7556Z" fill="white"/>
<path d="M96.7832 24.7686H98.7361V30.1849L102.806 24.7686H104.661V33.0874H102.708V27.6786L98.6424 33.0874H96.7793L96.7832 24.7686Z" fill="white"/>
<path d="M115.969 31.5181V34.809H114.133V33.0874H108.122V34.809H106.294V31.5181H106.634C107.743 31.48 108.02 29.7012 108.106 27.3701L108.204 24.7686H114.758V31.5181H115.969ZM109.012 31.5181H112.825V26.3379H109.903L109.864 27.5491C109.794 29.3165 109.598 30.8401 109.012 31.5181Z" fill="white"/>
<path d="M124.288 31.5409V33.0874H117.688V24.7686H124.132V26.315H119.664V28.1205H123.624V29.6174H119.664V31.5219L124.288 31.5409Z" fill="white"/>
<path d="M134.154 24.7686V33.0874H132.182V29.6593H128.307V33.0874H126.335V24.7686H128.307V28.0481H132.182V24.7686H134.154Z" fill="white"/>
<path d="M143.189 26.3379H140.455V33.0874H138.502V26.3379H135.768V24.7686H143.161L143.189 26.3379Z" fill="white"/>
<path d="M144.142 28.9353C144.142 26.429 146.114 24.635 148.77 24.635C149.432 24.6066 150.092 24.7244 150.701 24.9797C151.309 25.2349 151.851 25.621 152.285 26.1091L151.02 27.2518C150.759 26.9441 150.431 26.6969 150.061 26.5282C149.69 26.3595 149.285 26.2736 148.876 26.2767C148.15 26.2767 147.455 26.5576 146.942 27.0576C146.429 27.5576 146.141 28.2358 146.141 28.943C146.141 29.6501 146.429 30.3283 146.942 30.8283C147.455 31.3283 148.15 31.6092 148.876 31.6092C149.286 31.6123 149.692 31.5252 150.063 31.3544C150.434 31.1837 150.761 30.9336 151.02 30.6227L152.285 31.7654C151.853 32.2566 151.312 32.6456 150.703 32.903C150.094 33.1604 149.433 33.2793 148.77 33.2509C146.114 33.2281 144.142 31.434 144.142 28.9353Z" fill="white"/>
<path d="M157.25 29.7355H155.883V33.0874H153.93V24.7686H155.883V28.1319H157.297L159.538 24.7686H161.62L158.832 28.7832L161.706 33.0874H159.464L157.25 29.7355Z" fill="white"/>
<path d="M162.312 28.9351C162.312 26.4631 164.264 24.6348 166.975 24.6348C169.686 24.6348 171.643 26.4516 171.643 28.9351C171.643 31.4186 169.655 33.2354 166.975 33.2354C164.296 33.2354 162.312 31.3995 162.312 28.9351ZM169.643 28.9351C169.63 28.4235 169.462 27.9271 169.161 27.5078C168.86 27.0886 168.439 26.7653 167.951 26.5783C167.462 26.3912 166.928 26.3489 166.415 26.4565C165.902 26.564 165.433 26.8168 165.067 27.183C164.7 27.5493 164.453 28.0129 164.355 28.5157C164.257 29.0185 164.314 29.5382 164.517 30.0098C164.721 30.4814 165.063 30.8839 165.5 31.167C165.937 31.4501 166.45 31.6012 166.975 31.6014C167.334 31.6108 167.69 31.5477 168.023 31.4162C168.355 31.2847 168.656 31.0875 168.907 30.8371C169.157 30.5867 169.352 30.2885 169.479 29.9611C169.605 29.6338 169.661 29.2845 169.643 28.9351Z" fill="white"/>
<path d="M179.533 26.3379H175.474V33.0874H173.521V24.7686H179.54L179.533 26.3379Z" fill="white"/>
<path d="M180.462 28.9351C180.462 26.4631 182.434 24.6348 185.126 24.6348C187.817 24.6348 189.813 26.4516 189.813 28.9351C189.813 31.4186 187.824 33.2354 185.126 33.2354C182.427 33.2354 180.462 31.3995 180.462 28.9351ZM187.793 28.9351C187.78 28.4235 187.613 27.9271 187.312 27.5078C187.011 27.0886 186.59 26.7653 186.101 26.5783C185.613 26.3912 185.079 26.3489 184.566 26.4565C184.053 26.564 183.583 26.8168 183.217 27.183C182.85 27.5493 182.603 28.0129 182.505 28.5157C182.408 29.0185 182.464 29.5382 182.668 30.0098C182.872 30.4814 183.213 30.8839 183.651 31.167C184.088 31.4501 184.601 31.6012 185.126 31.6014C185.484 31.6108 185.841 31.5477 186.173 31.4162C186.506 31.2847 186.807 31.0875 187.057 30.8371C187.308 30.5867 187.502 30.2885 187.629 29.9611C187.756 29.6338 187.812 29.2845 187.793 28.9351Z" fill="white"/>
<path d="M201.623 32.55V33.4528H199.807V32.5386C196.921 32.371 195.339 31.076 195.339 28.9048C195.339 26.7337 196.921 25.4349 199.807 25.2673V24.4141H201.623V25.2558C204.498 25.4234 206.084 26.7299 206.084 28.9048C206.084 31.0798 204.51 32.4091 201.623 32.55ZM199.807 31.0264V26.7604C198.077 26.9166 197.249 27.5946 197.249 28.8896C197.249 30.1847 198.163 30.8741 199.807 31.0417V31.0264ZM204.182 28.8782C204.182 27.5946 203.319 26.9051 201.623 26.7604V31.0264C203.342 30.8893 204.182 30.1847 204.182 28.8934V28.8782Z" fill="white"/>
<path d="M207.545 28.9351C207.545 26.4631 209.517 24.6348 212.209 24.6348C214.9 24.6348 216.876 26.4516 216.876 28.9351C216.876 31.4186 214.904 33.2278 212.209 33.2278C209.513 33.2278 207.545 31.3995 207.545 28.9351ZM214.876 28.9351C214.863 28.4235 214.696 27.9271 214.395 27.5078C214.094 27.0886 213.673 26.7653 213.184 26.5783C212.696 26.3912 212.162 26.3489 211.649 26.4565C211.136 26.564 210.666 26.8168 210.3 27.183C209.933 27.5493 209.686 28.0129 209.588 28.5157C209.491 29.0185 209.547 29.5382 209.751 30.0098C209.955 30.4814 210.296 30.8839 210.734 31.167C211.171 31.4501 211.684 31.6012 212.209 31.6014C212.567 31.6108 212.924 31.5477 213.256 31.4162C213.589 31.2847 213.89 31.0875 214.14 30.8371C214.391 30.5867 214.585 30.2885 214.712 29.9611C214.839 29.6338 214.895 29.2845 214.876 28.9351Z" fill="white"/>
<path d="M226.582 24.7686V33.0874H224.629V29.6593H220.755V33.0874H218.778V24.7686H220.755V28.0481H224.629V24.7686H226.582Z" fill="white"/>
<path d="M237.894 31.5181V34.809H236.066V33.0874H230.047V34.809H228.219V31.5181H228.574C229.68 31.48 229.961 29.7012 230.047 27.3701L230.144 24.7686H236.698V31.5181H237.894ZM230.937 31.5181H234.749V26.3379H231.824L231.789 27.5491C231.699 29.3165 231.519 30.8401 230.937 31.5181Z" fill="white"/>
<path d="M245.838 31.3048H241.878L241.124 33.0874H239.12L242.921 24.7686H244.873L248.686 33.0874H246.615L245.838 31.3048ZM245.217 29.8421L243.862 26.6502L242.51 29.8345L245.217 29.8421Z" fill="white"/>
<path d="M63.5788 43.9924H62.2156V47.3443H60.2627V39.0293H62.2156V42.3888H63.6256L65.8676 39.0293H67.9533L65.1606 43.0287L68.0432 47.3443H65.8051L63.5788 43.9924Z" fill="white"/>
<path d="M77.8077 39.0293L74.1753 45.6112C73.4683 46.8948 72.4567 47.5347 71.3123 47.5347C70.8353 47.5294 70.3641 47.4323 69.9257 47.2491L70.3983 45.7864C70.674 45.8792 70.9622 45.9318 71.2537 45.9426C71.4967 45.938 71.7339 45.8693 71.9402 45.7439C72.1465 45.6185 72.3142 45.4411 72.4254 45.2303L72.4997 45.1351L69.1367 39.0407H71.2459L73.5113 43.5087L75.8548 39.0407L77.8077 39.0293Z" fill="white"/>
<path d="M86.4249 39.0293V47.3443H84.472V40.5948H81.5504L81.4879 42.3317C81.3786 45.5998 80.9059 47.4738 78.9061 47.4738C78.5779 47.4674 78.2516 47.424 77.9336 47.3443L78.0547 45.7179C78.1689 45.7498 78.2874 45.7652 78.4062 45.7636C79.4061 45.7636 79.6639 44.5295 79.7459 42.4041L79.8709 39.0293H86.4249Z" fill="white"/>
<path d="M96.2395 44.4457C96.2395 46.3502 94.9232 47.3443 92.7242 47.3443H88.873V39.0293H90.826V41.7603H92.9976C95.0717 41.7603 96.2395 42.6478 96.2395 44.4457ZM94.2553 44.4799C94.2553 43.5658 93.646 43.1849 92.6227 43.1849H90.8416V45.9197H92.6227C93.6343 45.9197 94.2553 45.4208 94.2553 44.4799Z" fill="white"/>
<path d="M103.806 40.5948H101.072V47.3443H99.1189V40.5948H96.3848V39.0293H103.779L103.806 40.5948Z" fill="white"/>
<path d="M113.621 39.0293L109.993 45.6112C109.286 46.8948 108.274 47.5347 107.13 47.5347C106.651 47.529 106.179 47.432 105.739 47.2491L106.216 45.7864C106.49 45.8789 106.777 45.9315 107.067 45.9426C107.314 45.9417 107.556 45.8748 107.767 45.7492C107.977 45.6237 108.149 45.4442 108.262 45.2303L108.337 45.1351L104.974 39.0407H107.102L109.368 43.5087L111.711 39.0407L113.621 39.0293Z" fill="white"/>
<path d="M122.589 42.046C122.589 43.901 121.167 45.0513 118.886 45.0513H117.172V47.3367H115.195V39.0293H118.886C121.163 39.0293 122.589 40.1796 122.589 42.046ZM120.593 42.046C120.593 41.1319 119.984 40.5948 118.777 40.5948H117.172V43.482H118.777C119.992 43.482 120.593 42.9487 120.593 42.046Z" fill="white"/>
<path d="M132.127 39.0293V47.3443H130.147V43.9162H126.28V47.3443H124.308V39.0293H126.28V42.3088H130.147V39.0293H132.127Z" fill="white"/>
<path d="M141.939 44.4457C141.939 46.3502 140.622 47.3443 138.423 47.3443H134.572V39.0293H136.525V41.7603H138.693C140.771 41.7603 141.939 42.6478 141.939 44.4457ZM139.955 44.4799C139.955 43.5658 139.345 43.1849 138.322 43.1849H136.545V45.9197H138.322C139.334 45.9197 139.955 45.4208 139.955 44.4799ZM143.036 39.0293H144.989V47.3443H143.036V39.0293Z" fill="white"/>
<path d="M149.067 39.0293L150.836 41.547L152.602 39.0293H154.914L152.079 43.0287L155.145 47.3443H152.801L150.848 44.5866L148.895 47.3443H146.618L149.665 43.0897L146.813 39.0293H149.067Z" fill="white"/>
<path d="M161.003 39.0293H162.956V44.4457L167.022 39.0293H168.873V47.3443H166.92V41.9394L162.854 47.3443H161.003V39.0293Z" fill="white"/>
<path d="M179.15 39.0293V47.3443H177.197V43.9162H173.322V47.3443H171.35V39.0293H173.322V42.3088H177.197V39.0293H179.15Z" fill="white"/>
<path d="M181.606 39.0293H183.559V44.4457L187.625 39.0293H189.481V47.3443H187.528V41.9394L183.462 47.3443H181.599L181.606 39.0293Z" fill="white"/>
<path d="M200.878 45.775V49.1231H199.062V47.3633H191.938V39.0293H193.89V45.775H197.718V39.0293H199.671V45.775H200.878Z" fill="white"/>
<path d="M202.601 39.0293H204.554V44.4457L208.623 39.0293H210.475V47.3443H208.522V41.9394L204.452 47.3443H202.601V39.0293Z" fill="white"/>
<path d="M218.81 45.5617H214.853L214.095 47.3443H212.076L215.877 39.0293H217.829L221.642 47.3443H219.572L218.81 45.5617ZM218.189 44.1029L216.857 40.9186L215.506 44.1029H218.189Z" fill="white"/>
<path d="M228.778 40.5948H226.043V47.3443H224.091V40.5948H221.376V39.0293H228.77L228.778 40.5948Z" fill="white"/>
<path d="M230.402 39.0293H232.355V44.4457L236.425 39.0293H238.277V47.3443H236.324V41.9394L232.254 47.3443H230.391L230.402 39.0293Z" fill="white"/>
<path d="M248.252 45.0056C248.252 46.453 247.08 47.3443 244.936 47.3443H240.733V39.0293H244.706C246.678 39.0293 247.85 39.7911 247.85 41.1776C247.857 41.5652 247.747 41.9462 247.532 42.2724C247.317 42.5985 247.008 42.8551 246.643 43.0097C247.11 43.1038 247.527 43.3557 247.821 43.721C248.116 44.0862 248.268 44.5412 248.252 45.0056ZM242.694 42.4726H244.534C245.389 42.4726 245.838 42.1298 245.838 41.4632C245.838 40.7967 245.389 40.4539 244.534 40.4539H242.694V42.4726ZM246.252 44.8494C246.252 44.1486 245.78 43.8172 244.866 43.8172H242.694V45.9197H244.866C245.78 45.9197 246.252 45.5731 246.252 44.8494Z" fill="white"/>
</g>
<defs>
<clipPath id="clip0_516_4843">
<rect width="250" height="57.6923" fill="white" transform="translate(0 0.154297)"/>
</clipPath>
</defs>
</svg>
