<svg width="149" height="60" viewBox="0 0 149 60" fill="none" xmlns="http://www.w3.org/2000/svg">
<g clip-path="url(#clip0_672_1425)">
<path d="M60.8357 44.3934L59.2703 50.4423H58.5911L57.0389 44.4391L48.7594 44.5434L47.1875 59.8891H52.9303L53.5801 52.676H54.2593L55.6934 59.8891H62.168L63.6053 52.676H64.2813L64.9311 59.8891H70.6739L69.0757 44.2891L60.8357 44.3934Z" fill="white"/>
<path d="M7.80828 45.0621L3.75879 59.8925H9.17671L9.69192 58.0338H15.6513L16.1665 59.8925H21.5844L17.5021 44.9414L7.80828 45.0621ZM11.313 52.9729L12.3139 49.4186H13.0195L14.0203 52.9729H11.313Z" fill="white"/>
<path d="M40.1611 44.6551V59.8801H45.881V44.5801L40.1611 44.6551Z" fill="white"/>
<path d="M32.9656 44.7417V49.8743H32.3716L29.4083 44.7873L22.2676 44.8786V59.8884H27.9841V53.2134H28.6043L32.4799 59.8884H38.7084V44.6699L32.9656 44.7417Z" fill="white"/>
<path d="M140.155 43.3921L140.142 49.8812H139.545L135.813 43.4475L129.454 43.5257L129.421 59.8725L135.137 59.8855L135.151 53.2073L135.774 53.2105L139.633 59.8953L145.862 59.9051L145.898 43.3203L140.155 43.3921Z" fill="white"/>
<path d="M126.133 45.3122C125.742 44.9405 124.968 44.2003 123.35 43.6035L115.346 43.7046C114.729 43.9426 113.81 44.3698 112.819 45.2992C112.416 45.6742 111.615 46.4307 110.965 48.0579C110.749 48.6024 110.315 49.685 110.315 51.7329C110.315 52.3785 110.315 53.6698 110.978 55.2057C111.198 55.7176 111.641 56.7383 112.832 57.8176C113.229 58.1763 114.024 58.8937 115.717 59.4611C116.281 59.6503 117.41 60.0252 119.468 60.0252C120.154 60.0252 121.525 60.0253 123.219 59.5003C123.783 59.3242 124.912 58.9753 126.116 57.9253C126.517 57.5763 127.321 56.8753 127.987 55.3426C128.207 54.8307 128.65 53.8068 128.65 51.7883C128.65 51.097 128.65 49.7144 127.987 48.0872C127.767 47.5426 127.327 46.4568 126.133 45.3122ZM123.127 52.4731C123.018 52.6198 122.802 52.9166 122.26 53.2263C122.08 53.3307 121.719 53.5361 121 53.6829C120.761 53.7318 120.282 53.8296 119.471 53.8296C119.199 53.8296 118.657 53.8296 117.942 53.6666C117.702 53.6111 117.223 53.5068 116.669 53.21C116.485 53.1122 116.114 52.9133 115.789 52.4698C115.681 52.3231 115.464 52.0263 115.464 51.4329C115.464 51.2372 115.464 50.8426 115.789 50.4089C115.897 50.2655 116.114 49.9785 116.669 49.6818C116.852 49.5839 117.223 49.385 117.955 49.2383C118.198 49.1894 118.687 49.0916 119.471 49.0916C119.734 49.0916 120.255 49.0916 120.987 49.2383C121.23 49.2872 121.719 49.385 122.26 49.6687C122.441 49.7633 122.802 49.9524 123.127 50.3959C123.235 50.5426 123.452 50.8394 123.452 51.4329C123.452 51.635 123.452 52.0296 123.127 52.4731Z" fill="white"/>
<path d="M87.1309 44.0609V49.1381H91.9253V59.8794H97.6418V49.1381H102.679V43.8652L87.1309 44.0609Z" fill="white"/>
<path d="M103.812 43.8523V59.8795H109.531V43.7773L103.812 43.8523Z" fill="white"/>
<path d="M75.4719 44.2072L71.1895 59.8888H76.6074L77.1226 58.0301H83.082L83.5972 59.8888H89.0151L84.6998 44.0898L75.4719 44.2072ZM78.747 52.9725L79.7479 49.4181H80.4534L81.4543 52.9725H78.747Z" fill="white"/>
<path d="M81.7851 0.992188L76.6133 20.9585H74.7395L69.5644 0.992188H47.896L43.6201 42.7574L59.4768 42.5813L60.8682 27.1444H62.742L65.8004 42.5128L85.595 42.2944L88.6108 27.1444H90.4846L91.8432 42.2259L107.66 42.0531L103.453 0.992188H81.7851Z" fill="white"/>
<path d="M143.125 33.117V21.1104H125.141V14.8561H148.671V1.00391H109.406V42.0322L125.141 41.8593V33.117H143.125Z" fill="white"/>
<path d="M29.4604 19.3143L18.2472 17.5535C16.1666 17.1915 15.1986 15.9752 15.3987 14.8991C15.6088 13.7643 16.4587 13.0665 19.3104 13.0665C28.5251 13.0665 36.6241 14.26 41.4907 15.6752V4.27847C36.5453 1.96977 29.6507 0.257812 21.4828 0.257812C6.7911 0.257812 0.789062 5.61868 0.789062 13.96C0.789062 21.8285 4.57603 26.9122 14.621 28.4219L25.8342 30.1828C27.9147 30.5448 28.8828 31.7611 28.6859 32.8372C28.4759 33.9719 27.626 34.6698 24.7743 34.6698C15.5595 34.6698 7.46055 33.4796 2.59394 32.0611V43.2067L39.6366 42.7991C42.1503 40.4904 43.2956 37.4187 43.2956 33.7763C43.2923 25.9078 39.5053 20.8241 29.4604 19.3143Z" fill="white"/>
</g>
<defs>
<clipPath id="clip0_672_1425">
<rect width="148" height="60" fill="white" transform="translate(0.657227)"/>
</clipPath>
</defs>
</svg>
