<svg width="250" height="58" viewBox="0 0 250 58" fill="none" xmlns="http://www.w3.org/2000/svg">
<g clip-path="url(#clip0_467_3314)">
<path d="M12.4559 27.9638H14.5963C15.437 27.964 16.2577 27.7134 16.9482 27.2456C17.6387 26.7779 18.1659 26.1154 18.4592 25.347L23.3532 12.526V5.46412C23.3522 4.2932 22.8759 3.17031 22.0283 2.34092C21.1808 1.51153 20.0309 1.04312 18.8303 1.03809H1.25391V1.17902C2.22699 1.42539 3.08866 1.97986 3.70367 2.75541C4.31869 3.53097 4.65225 4.48371 4.652 5.46412V53.0383C4.65158 54.0185 4.31777 54.9709 3.70286 55.7463C3.08794 56.5218 2.22666 57.0764 1.25391 57.3234V57.4643H18.8303C20.0343 57.4643 21.1891 56.9981 22.0409 56.1682C22.8927 55.3382 23.3717 54.2125 23.3728 53.0383V46.0069L18.4397 33.1592C18.1508 32.3907 17.627 31.7272 16.9389 31.2586C16.2508 30.7899 15.4317 30.5386 14.5924 30.5386H12.4559C12.1058 30.5386 11.77 30.403 11.5224 30.1615C11.2748 29.9201 11.1357 29.5926 11.1357 29.2512C11.1357 28.9097 11.2748 28.5823 11.5224 28.3408C11.77 28.0994 12.1058 27.9638 12.4559 27.9638Z" fill="#F8F7FF"/>
<path d="M18.8303 57.6399H1.25393C1.20696 57.6389 1.16226 57.62 1.1294 57.5873C1.09655 57.5545 1.07816 57.5105 1.07817 57.4647V57.3238C1.07785 57.2854 1.09077 57.248 1.11485 57.2176C1.13893 57.1872 1.17278 57.1656 1.21097 57.1562C2.14579 56.9183 2.97321 56.3846 3.56345 55.6387C4.1537 54.8928 4.47338 53.977 4.47236 53.0349V5.46453C4.47319 4.52286 4.15336 3.60758 3.56308 2.86235C2.97279 2.11712 2.14547 1.58413 1.21097 1.34702C1.17278 1.33763 1.13893 1.31601 1.11485 1.28562C1.09077 1.25523 1.07785 1.21783 1.07817 1.17943V1.03849C1.07765 1.01567 1.08181 0.992968 1.09041 0.971731C1.09901 0.950494 1.11187 0.931146 1.12825 0.914824C1.14462 0.898502 1.16417 0.885535 1.18576 0.876684C1.20734 0.867833 1.23052 0.863276 1.25393 0.863281H18.8303C20.0817 0.864288 21.2816 1.34926 22.1669 2.21184C23.0521 3.07441 23.5504 4.24416 23.5525 5.46453V12.5111C23.5566 12.5313 23.5566 12.552 23.5525 12.5721L18.6311 25.3931C18.3239 26.1959 17.7733 26.8883 17.0525 27.3783C16.3317 27.8682 15.4749 28.1324 14.5963 28.1356H12.4559C12.1524 28.1356 11.8613 28.2531 11.6467 28.4624C11.4321 28.6717 11.3115 28.9556 11.3115 29.2516C11.3115 29.5476 11.4321 29.8315 11.6467 30.0408C11.8613 30.25 12.1524 30.3676 12.4559 30.3676H14.5963C15.4709 30.3712 16.3236 30.6349 17.0404 31.1236C17.7572 31.6123 18.3039 32.3027 18.6077 33.1025L23.5173 45.9464C23.5207 45.9665 23.5207 45.9871 23.5173 46.0073V53.0349C23.5163 54.25 23.0233 55.4155 22.1455 56.278C21.2678 57.1404 20.0763 57.6299 18.8303 57.6399ZM1.91012 57.2933H18.8303C19.9878 57.2913 21.0973 56.842 21.9158 56.0438C22.7342 55.2456 23.195 54.1636 23.197 53.0349V46.0416L18.2757 33.2206C17.9981 32.4864 17.4968 31.8528 16.839 31.4047C16.1813 30.9567 15.3987 30.7157 14.5963 30.7142H12.4559C12.0581 30.7142 11.6767 30.5601 11.3954 30.2858C11.1141 30.0115 10.9561 29.6395 10.9561 29.2516C10.9561 28.8637 11.1141 28.4916 11.3954 28.2173C11.6767 27.943 12.0581 27.7889 12.4559 27.7889H14.5963C15.4 27.7871 16.1839 27.5467 16.844 27.0996C17.504 26.6526 18.0089 26.0201 18.2913 25.2865L23.1814 12.4807V5.46453C23.1794 4.33872 22.7207 3.25943 21.9054 2.46229C21.0902 1.66516 19.9847 1.21493 18.8303 1.2099H1.89449C2.75786 1.55806 3.49593 2.14815 4.01529 2.9055C4.53466 3.66286 4.81198 4.55343 4.81217 5.46453V53.0349C4.81275 53.9466 4.53579 54.838 4.01638 55.5961C3.49696 56.3542 2.75848 56.9449 1.89449 57.2933H1.91012Z" fill="white"/>
<path d="M31.1097 1.03867C30.1205 1.03844 29.1549 1.33312 28.3423 1.88321C27.5296 2.43329 26.9089 3.21248 26.5633 4.11633L23.3565 12.4961L18.4625 25.3323C18.1692 26.1007 17.642 26.7632 16.9515 27.231C16.261 27.6987 15.4403 27.9493 14.5996 27.9491H34.664C35.557 27.9478 36.4284 27.6809 37.1619 27.1841C37.8954 26.6873 38.456 25.9842 38.7691 25.1686L47.0065 3.64401C47.2095 3.09067 47.5369 2.58865 47.9647 2.17474C48.3925 1.76084 48.9099 1.44554 49.4789 1.25198V1.02344L31.1097 1.03867Z" fill="#D7D0FF"/>
<path d="M34.6611 28.1356H14.5967C14.5712 28.1393 14.5451 28.1376 14.5203 28.1306C14.4955 28.1236 14.4725 28.1114 14.453 28.095C14.4334 28.0785 14.4177 28.0582 14.4069 28.0353C14.3962 28.0124 14.3906 27.9875 14.3906 27.9623C14.3906 27.9371 14.3962 27.9122 14.4069 27.8893C14.4177 27.8664 14.4334 27.8461 14.453 27.8296C14.4725 27.8132 14.4955 27.801 14.5203 27.794C14.5451 27.787 14.5712 27.7853 14.5967 27.789C15.4003 27.7871 16.1843 27.5467 16.8444 27.0997C17.5044 26.6526 18.0092 26.0202 18.2917 25.2865L26.4002 4.05525C26.7603 3.11977 27.4038 2.31333 28.2452 1.74316C29.0866 1.173 30.0861 0.866115 31.1107 0.863325H49.4682C49.4919 0.862804 49.5156 0.86698 49.5376 0.875601C49.5596 0.884222 49.5796 0.897109 49.5964 0.913484C49.6132 0.929859 49.6264 0.949383 49.6353 0.970876C49.6441 0.992369 49.6484 1.01539 49.6479 1.03854V1.26708C49.6475 1.30322 49.6356 1.33837 49.614 1.36769C49.5923 1.39701 49.5618 1.41908 49.5268 1.43086C48.9839 1.61809 48.4902 1.92007 48.081 2.31517C47.6718 2.71027 47.3572 3.18872 47.1598 3.71625L38.9263 25.2446C38.599 26.0908 38.016 26.8203 37.2544 27.3365C36.4928 27.8527 35.5886 28.1314 34.6611 28.1356ZM16.3036 27.789H34.6611C35.5173 27.7867 36.3525 27.5304 37.0557 27.0542C37.759 26.5779 38.297 25.9043 38.5982 25.1227L46.8357 3.59817C47.0309 3.06763 47.3358 2.58187 47.7316 2.17104C48.1273 1.76021 48.6054 1.43308 49.1362 1.20994H31.1107C30.1581 1.21205 29.2289 1.49714 28.4466 2.02724C27.6644 2.55733 27.0664 3.30726 26.7322 4.17714L18.6315 25.3931C18.4286 25.9257 18.1175 26.4128 17.7168 26.8251C17.3161 27.2375 16.8341 27.5666 16.2997 27.7928L16.3036 27.789Z" fill="white"/>
<path d="M46.987 54.8365L38.8784 33.6205C38.5306 32.7178 37.9094 31.9396 37.0974 31.3892C36.2854 30.8388 35.3209 30.5423 34.332 30.5391H14.5957C15.4343 30.5398 16.2526 30.7915 16.9399 31.2601C17.6272 31.7287 18.1505 32.3918 18.4391 33.1596L23.3526 46.0073L26.6726 54.6842C26.9847 55.5004 27.5451 56.2042 28.2788 56.7011C29.0125 57.1981 29.8844 57.4645 30.7777 57.4647H49.4711V57.2362C48.9021 57.0381 48.3846 56.7204 47.9554 56.3058C47.5261 55.8911 47.1955 55.3895 46.987 54.8365Z" fill="#CBC2FF"/>
<path d="M49.475 57.6395H30.7816C29.8529 57.6362 28.9471 57.3576 28.1846 56.8405C27.4221 56.3235 26.8389 55.5925 26.5125 54.7446L18.275 33.2201C17.9975 32.486 17.4961 31.8523 16.8384 31.4043C16.1806 30.9562 15.398 30.7153 14.5957 30.7138C14.5483 30.7128 14.5032 30.6941 14.4697 30.6614C14.4363 30.6288 14.417 30.5848 14.416 30.5386C14.417 30.4928 14.4364 30.4492 14.47 30.4172C14.5036 30.3851 14.5487 30.3672 14.5957 30.3672H34.332C35.357 30.3703 36.3568 30.6772 37.1988 31.2473C38.0408 31.8174 38.6851 32.6236 39.0464 33.5591L47.151 54.7904C47.3526 55.3187 47.6709 55.7972 48.0833 56.1922C48.4957 56.5871 48.9922 56.8888 49.5375 57.0757C49.5724 57.0872 49.6027 57.1093 49.6238 57.1388C49.6449 57.1682 49.6557 57.2036 49.6547 57.2395V57.4681C49.6536 57.5139 49.6343 57.5575 49.6007 57.5895C49.5671 57.6215 49.522 57.6395 49.475 57.6395ZM16.2947 30.7138C16.8263 30.9378 17.3055 31.2651 17.7031 31.6757C18.1006 32.0863 18.4082 32.5716 18.607 33.102L26.8445 54.6228C27.1462 55.404 27.6843 56.0774 28.3874 56.5536C29.0906 57.0297 29.9255 57.2862 30.7816 57.289H49.1391C48.6075 57.0646 48.128 56.7377 47.7293 56.328C47.3306 55.9182 47.0209 55.4341 46.819 54.9046L38.7104 33.681C38.3763 32.8111 37.7782 32.0612 36.996 31.5311C36.2138 31.001 35.2845 30.7159 34.332 30.7138H16.2947Z" fill="white"/>
<path d="M68.0441 10.5117V18.8267H66.0912V12.0772H62.2439V18.8267H60.291V10.5117H68.0441Z" fill="white"/>
<path d="M77.8938 13.5284C77.8938 15.3796 76.4682 16.5337 74.191 16.5337H72.4725V18.8191H70.5V10.5117H74.191C76.4682 10.5117 77.8938 11.662 77.8938 13.5284ZM75.894 13.5284C75.894 12.6143 75.2847 12.0772 74.0817 12.0772H72.4725V14.9644H74.0817C75.2847 14.9644 75.894 14.4312 75.894 13.5284Z" fill="white"/>
<path d="M79.6094 10.5117H81.5623V15.9281L85.6322 10.5117H87.4836V18.8267H85.5306V13.4218L81.4725 18.8267H79.6094V10.5117Z" fill="white"/>
<path d="M102.052 10.5117V18.8267H100.099V12.0772H96.2479V18.8267H94.2949V10.5117H102.052Z" fill="white"/>
<path d="M103.936 14.6665C103.936 12.1983 105.908 10.3662 108.603 10.3662C111.298 10.3662 113.267 12.1755 113.267 14.6665C113.267 17.1576 111.282 18.9669 108.603 18.9669C105.924 18.9669 103.936 17.1271 103.936 14.6665ZM111.271 14.6665C111.258 14.155 111.09 13.6585 110.789 13.2393C110.488 12.8201 110.067 12.4967 109.579 12.3097C109.09 12.1227 108.556 12.0803 108.043 12.1879C107.53 12.2955 107.061 12.5482 106.694 12.9145C106.328 13.2808 106.08 13.7443 105.983 14.2471C105.885 14.7499 105.942 15.2696 106.145 15.7412C106.349 16.2128 106.691 16.6154 107.128 16.8985C107.565 17.1816 108.078 17.3327 108.603 17.3328C108.962 17.3422 109.318 17.2792 109.651 17.1476C109.983 17.0161 110.284 16.819 110.535 16.5686C110.785 16.3182 110.98 16.0199 111.107 15.6926C111.233 15.3653 111.289 15.0159 111.271 14.6665Z" fill="white"/>
<path d="M123.897 17.2566V20.5552H122.073V18.8259H116.055V20.5552H114.227V17.2643H114.566C115.676 17.23 115.957 15.4474 116.043 13.1201L116.14 10.5186H122.726V17.2566H123.897ZM116.945 17.2566H120.773V12.0764H117.847L117.812 13.2915C117.722 15.0589 117.527 16.5824 116.945 17.2566Z" fill="white"/>
<path d="M134.833 17.2566V20.5552H133.005V18.8259H126.974V20.5552H125.146V17.2643H125.486C126.596 17.23 126.873 15.4474 126.959 13.1201L127.056 10.5186H133.61V17.2566H134.833ZM127.877 17.2566H131.689V12.0764H128.767L128.728 13.2915C128.646 15.0589 128.451 16.5824 127.865 17.2566H127.877Z" fill="white"/>
<path d="M143.158 17.2803V18.8267H136.557V10.5117H143.001V12.0544H138.517V13.8598H142.478V15.3567H138.517V17.2803H143.158Z" fill="white"/>
<path d="M152.581 13.5284C152.581 15.3796 151.156 16.5337 148.879 16.5337H147.16V18.8191H145.188V10.5117H148.894C151.156 10.5117 152.581 11.662 152.581 13.5284ZM150.585 13.5284C150.585 12.6143 149.976 12.0772 148.769 12.0772H147.16V14.9644H148.769C149.976 14.9644 150.585 14.4312 150.585 13.5284Z" fill="white"/>
<path d="M161.819 15.4744H160.577V18.8263H158.624V15.4744H157.359L155.445 18.8263H153.191L155.742 14.4612L153.34 10.4961H155.426L157.336 13.8556H158.66V10.5113H160.613V13.8708H161.878L163.804 10.5113H165.885L163.464 14.4612L166.01 18.8111H163.737L161.819 15.4744Z" fill="white"/>
<path d="M170.959 15.4748H169.596V18.8267H167.643V10.5117H169.596V13.8712H171.009L173.251 10.5117H175.333L172.544 14.5264L175.419 18.8267H173.177L170.959 15.4748Z" fill="white"/>
<path d="M183.626 17.2803V18.8267H177.018V10.5117H183.462V12.0544H178.971V13.8598H182.931V15.3567H178.971V17.2803H183.626Z" fill="white"/>
<path d="M68.0441 24.7686V33.0874H66.0912V26.3379H62.2439V33.0874H60.291V24.7686H68.0441Z" fill="white"/>
<path d="M77.8938 27.7929C77.8938 29.6479 76.4682 30.802 74.191 30.802H72.4725V33.0874H70.5V24.7686H74.191C76.4682 24.7686 77.8938 25.9227 77.8938 27.7929ZM75.894 27.7929C75.894 26.8787 75.2847 26.3455 74.0817 26.3455H72.4725V29.2327H74.0817C75.2847 29.2251 75.894 28.6918 75.894 27.7929Z" fill="white"/>
<path d="M86.2103 31.5409V33.0874H79.6094V24.7686H86.054V26.315H81.5701V28.1205H85.5307V29.6174H81.5701V31.5219L86.2103 31.5409Z" fill="white"/>
<path d="M94.8372 30.7556C94.8372 32.3249 93.0834 33.2276 91.0368 33.2276C89.8449 33.2295 88.6728 32.9303 87.6348 32.3592L88.2441 30.9803C89.0197 31.4245 89.9029 31.6585 90.8024 31.6583C91.9234 31.6583 92.8374 31.2546 92.8374 30.4814C92.8374 29.8529 92.2554 29.5443 91.3649 29.5443H89.283V28.0969H91.2164C92.021 28.0969 92.4858 27.7503 92.4858 27.2056C92.4858 26.5276 91.7281 26.1696 90.7673 26.1696C89.9653 26.1771 89.1781 26.3815 88.4784 26.7638L87.8808 25.2669C88.7868 24.8207 89.7875 24.5885 90.8024 24.5889C92.7788 24.5889 94.4817 25.4687 94.4817 26.9771C94.4821 27.3585 94.365 27.7313 94.1457 28.0471C93.9263 28.3629 93.6148 28.6071 93.2514 28.7483C93.7039 28.8686 94.1037 29.1299 94.39 29.4922C94.6762 29.8546 94.8333 30.2982 94.8372 30.7556Z" fill="white"/>
<path d="M96.7832 24.7686H98.7361V30.1849L102.806 24.7686H104.661V33.0874H102.708V27.6786L98.6424 33.0874H96.7793L96.7832 24.7686Z" fill="white"/>
<path d="M115.968 31.5181V34.809H114.132V33.0874H108.121V34.809H106.293V31.5181H106.633C107.742 31.48 108.019 29.7012 108.105 27.3701L108.203 24.7686H114.757V31.5181H115.968ZM109.011 31.5181H112.824V26.3379H109.902L109.863 27.5491C109.793 29.3165 109.597 30.8401 109.011 31.5181Z" fill="white"/>
<path d="M124.288 31.5409V33.0874H117.688V24.7686H124.132V26.315H119.664V28.1205H123.624V29.6174H119.664V31.5219L124.288 31.5409Z" fill="white"/>
<path d="M134.154 24.7686V33.0874H132.181V29.6593H128.306V33.0874H126.334V24.7686H128.306V28.0481H132.181V24.7686H134.154Z" fill="white"/>
<path d="M143.189 26.3379H140.455V33.0874H138.502V26.3379H135.768V24.7686H143.161L143.189 26.3379Z" fill="white"/>
<path d="M144.143 28.9353C144.143 26.429 146.115 24.635 148.771 24.635C149.433 24.6066 150.093 24.7244 150.702 24.9797C151.31 25.2349 151.852 25.621 152.286 26.1091L151.021 27.2518C150.76 26.9441 150.432 26.6969 150.062 26.5282C149.691 26.3595 149.286 26.2736 148.876 26.2767C148.151 26.2767 147.456 26.5576 146.943 27.0576C146.43 27.5576 146.142 28.2358 146.142 28.943C146.142 29.6501 146.43 30.3283 146.943 30.8283C147.456 31.3283 148.151 31.6092 148.876 31.6092C149.287 31.6123 149.693 31.5252 150.064 31.3544C150.435 31.1837 150.762 30.9336 151.021 30.6227L152.286 31.7654C151.854 32.2566 151.313 32.6456 150.704 32.903C150.095 33.1604 149.434 33.2793 148.771 33.2509C146.115 33.2281 144.143 31.434 144.143 28.9353Z" fill="white"/>
<path d="M157.25 29.7355H155.883V33.0874H153.93V24.7686H155.883V28.1319H157.297L159.538 24.7686H161.62L158.832 28.7832L161.706 33.0874H159.464L157.25 29.7355Z" fill="white"/>
<path d="M162.312 28.9351C162.312 26.4631 164.265 24.6348 166.976 24.6348C169.687 24.6348 171.644 26.4516 171.644 28.9351C171.644 31.4186 169.656 33.2354 166.976 33.2354C164.297 33.2354 162.312 31.3995 162.312 28.9351ZM169.644 28.9351C169.631 28.4235 169.463 27.9271 169.162 27.5078C168.861 27.0886 168.44 26.7653 167.952 26.5783C167.463 26.3912 166.929 26.3489 166.416 26.4565C165.903 26.564 165.434 26.8168 165.068 27.183C164.701 27.5493 164.453 28.0129 164.356 28.5157C164.258 29.0185 164.315 29.5382 164.518 30.0098C164.722 30.4814 165.064 30.8839 165.501 31.167C165.938 31.4501 166.451 31.6012 166.976 31.6014C167.335 31.6108 167.691 31.5477 168.024 31.4162C168.356 31.2847 168.657 31.0875 168.908 30.8371C169.158 30.5867 169.353 30.2885 169.48 29.9611C169.606 29.6338 169.662 29.2845 169.644 28.9351Z" fill="white"/>
<path d="M179.533 26.3379H175.474V33.0874H173.521V24.7686H179.54L179.533 26.3379Z" fill="white"/>
<path d="M180.461 28.9351C180.461 26.4631 182.433 24.6348 185.125 24.6348C187.816 24.6348 189.812 26.4516 189.812 28.9351C189.812 31.4186 187.823 33.2354 185.125 33.2354C182.426 33.2354 180.461 31.3995 180.461 28.9351ZM187.792 28.9351C187.779 28.4235 187.612 27.9271 187.311 27.5078C187.01 27.0886 186.589 26.7653 186.1 26.5783C185.612 26.3912 185.078 26.3489 184.565 26.4565C184.052 26.564 183.582 26.8168 183.216 27.183C182.849 27.5493 182.602 28.0129 182.504 28.5157C182.407 29.0185 182.463 29.5382 182.667 30.0098C182.871 30.4814 183.212 30.8839 183.65 31.167C184.087 31.4501 184.6 31.6012 185.125 31.6014C185.483 31.6108 185.84 31.5477 186.172 31.4162C186.505 31.2847 186.806 31.0875 187.056 30.8371C187.307 30.5867 187.501 30.2885 187.628 29.9611C187.755 29.6338 187.811 29.2845 187.792 28.9351Z" fill="white"/>
<path d="M201.624 32.55V33.4528H199.808V32.5386C196.922 32.371 195.34 31.076 195.34 28.9048C195.34 26.7337 196.922 25.4349 199.808 25.2673V24.4141H201.624V25.2558C204.499 25.4234 206.085 26.7299 206.085 28.9048C206.085 31.0798 204.511 32.4091 201.624 32.55ZM199.808 31.0264V26.7604C198.078 26.9166 197.25 27.5946 197.25 28.8896C197.25 30.1847 198.164 30.8741 199.808 31.0417V31.0264ZM204.183 28.8782C204.183 27.5946 203.32 26.9051 201.624 26.7604V31.0264C203.343 30.8893 204.183 30.1847 204.183 28.8934V28.8782Z" fill="white"/>
<path d="M207.545 28.9351C207.545 26.4631 209.517 24.6348 212.209 24.6348C214.9 24.6348 216.876 26.4516 216.876 28.9351C216.876 31.4186 214.904 33.2278 212.209 33.2278C209.513 33.2278 207.545 31.3995 207.545 28.9351ZM214.876 28.9351C214.863 28.4235 214.696 27.9271 214.395 27.5078C214.094 27.0886 213.673 26.7653 213.184 26.5783C212.696 26.3912 212.162 26.3489 211.649 26.4565C211.136 26.564 210.666 26.8168 210.3 27.183C209.933 27.5493 209.686 28.0129 209.588 28.5157C209.491 29.0185 209.547 29.5382 209.751 30.0098C209.955 30.4814 210.296 30.8839 210.734 31.167C211.171 31.4501 211.684 31.6012 212.209 31.6014C212.567 31.6108 212.924 31.5477 213.256 31.4162C213.589 31.2847 213.89 31.0875 214.14 30.8371C214.391 30.5867 214.585 30.2885 214.712 29.9611C214.839 29.6338 214.895 29.2845 214.876 28.9351Z" fill="white"/>
<path d="M226.583 24.7686V33.0874H224.63V29.6593H220.756V33.0874H218.779V24.7686H220.756V28.0481H224.63V24.7686H226.583Z" fill="white"/>
<path d="M237.894 31.5181V34.809H236.066V33.0874H230.047V34.809H228.219V31.5181H228.574C229.68 31.48 229.961 29.7012 230.047 27.3701L230.144 24.7686H236.698V31.5181H237.894ZM230.937 31.5181H234.749V26.3379H231.824L231.789 27.5491C231.699 29.3165 231.519 30.8401 230.937 31.5181Z" fill="white"/>
<path d="M245.837 31.3048H241.877L241.123 33.0874H239.119L242.92 24.7686H244.872L248.685 33.0874H246.614L245.837 31.3048ZM245.216 29.8421L243.861 26.6502L242.509 29.8345L245.216 29.8421Z" fill="white"/>
<path d="M63.5797 43.9924H62.2166V47.3443H60.2637V39.0293H62.2166V42.3888H63.6266L65.8686 39.0293H67.9543L65.1616 43.0287L68.0441 47.3443H65.8061L63.5797 43.9924Z" fill="white"/>
<path d="M77.8077 39.0293L74.1753 45.6112C73.4683 46.8948 72.4567 47.5347 71.3123 47.5347C70.8353 47.5294 70.3641 47.4323 69.9257 47.2491L70.3983 45.7864C70.674 45.8792 70.9622 45.9318 71.2537 45.9426C71.4967 45.938 71.7339 45.8693 71.9402 45.7439C72.1465 45.6185 72.3142 45.4411 72.4254 45.2303L72.4997 45.1351L69.1367 39.0407H71.2459L73.5113 43.5087L75.8548 39.0407L77.8077 39.0293Z" fill="white"/>
<path d="M86.4249 39.0293V47.3443H84.472V40.5948H81.5504L81.4879 42.3317C81.3786 45.5998 80.9059 47.4738 78.9061 47.4738C78.5779 47.4674 78.2516 47.424 77.9336 47.3443L78.0547 45.7179C78.1689 45.7498 78.2874 45.7652 78.4062 45.7636C79.4061 45.7636 79.6639 44.5295 79.7459 42.4041L79.8709 39.0293H86.4249Z" fill="white"/>
<path d="M96.2395 44.4457C96.2395 46.3502 94.9232 47.3443 92.7242 47.3443H88.873V39.0293H90.826V41.7603H92.9976C95.0717 41.7603 96.2395 42.6478 96.2395 44.4457ZM94.2553 44.4799C94.2553 43.5658 93.646 43.1849 92.6227 43.1849H90.8416V45.9197H92.6227C93.6343 45.9197 94.2553 45.4208 94.2553 44.4799Z" fill="white"/>
<path d="M103.806 40.5948H101.072V47.3443H99.1189V40.5948H96.3848V39.0293H103.779L103.806 40.5948Z" fill="white"/>
<path d="M113.62 39.0293L109.992 45.6112C109.285 46.8948 108.273 47.5347 107.129 47.5347C106.651 47.529 106.178 47.432 105.738 47.2491L106.215 45.7864C106.489 45.8789 106.776 45.9315 107.066 45.9426C107.313 45.9417 107.555 45.8748 107.766 45.7492C107.977 45.6237 108.148 45.4442 108.261 45.2303L108.336 45.1351L104.973 39.0407H107.101L109.367 43.5087L111.71 39.0407L113.62 39.0293Z" fill="white"/>
<path d="M122.589 42.046C122.589 43.901 121.167 45.0513 118.886 45.0513H117.172V47.3367H115.195V39.0293H118.886C121.163 39.0293 122.589 40.1796 122.589 42.046ZM120.593 42.046C120.593 41.1319 119.984 40.5948 118.777 40.5948H117.172V43.482H118.777C119.992 43.482 120.593 42.9487 120.593 42.046Z" fill="white"/>
<path d="M132.128 39.0293V47.3443H130.148V43.9162H126.281V47.3443H124.309V39.0293H126.281V42.3088H130.148V39.0293H132.128Z" fill="white"/>
<path d="M141.939 44.4457C141.939 46.3502 140.622 47.3443 138.423 47.3443H134.572V39.0293H136.525V41.7603H138.693C140.771 41.7603 141.939 42.6478 141.939 44.4457ZM139.955 44.4799C139.955 43.5658 139.345 43.1849 138.322 43.1849H136.545V45.9197H138.322C139.334 45.9197 139.955 45.4208 139.955 44.4799ZM143.036 39.0293H144.989V47.3443H143.036V39.0293Z" fill="white"/>
<path d="M149.066 39.0293L150.836 41.547L152.601 39.0293H154.913L152.078 43.0287L155.144 47.3443H152.8L150.847 44.5866L148.894 47.3443H146.617L149.664 43.0897L146.812 39.0293H149.066Z" fill="white"/>
<path d="M161.004 39.0293H162.957V44.4457L167.023 39.0293H168.874V47.3443H166.921V41.9394L162.855 47.3443H161.004V39.0293Z" fill="white"/>
<path d="M179.15 39.0293V47.3443H177.197V43.9162H173.322V47.3443H171.35V39.0293H173.322V42.3088H177.197V39.0293H179.15Z" fill="white"/>
<path d="M181.607 39.0293H183.56V44.4457L187.626 39.0293H189.482V47.3443H187.529V41.9394L183.463 47.3443H181.6L181.607 39.0293Z" fill="white"/>
<path d="M200.878 45.775V49.1231H199.062V47.3633H191.938V39.0293H193.89V45.775H197.718V39.0293H199.671V45.775H200.878Z" fill="white"/>
<path d="M202.6 39.0293H204.553V44.4457L208.622 39.0293H210.474V47.3443H208.521V41.9394L204.451 47.3443H202.6V39.0293Z" fill="white"/>
<path d="M218.81 45.5617H214.853L214.095 47.3443H212.076L215.877 39.0293H217.829L221.642 47.3443H219.572L218.81 45.5617ZM218.189 44.1029L216.857 40.9186L215.506 44.1029H218.189Z" fill="white"/>
<path d="M228.777 40.5948H226.043V47.3443H224.09V40.5948H221.375V39.0293H228.769L228.777 40.5948Z" fill="white"/>
<path d="M230.402 39.0293H232.355V44.4457L236.425 39.0293H238.277V47.3443H236.324V41.9394L232.254 47.3443H230.391L230.402 39.0293Z" fill="white"/>
<path d="M248.253 45.0056C248.253 46.453 247.081 47.3443 244.937 47.3443H240.734V39.0293H244.707C246.679 39.0293 247.851 39.7911 247.851 41.1776C247.858 41.5652 247.748 41.9462 247.533 42.2724C247.318 42.5985 247.009 42.8551 246.644 43.0097C247.111 43.1038 247.528 43.3557 247.822 43.721C248.117 44.0862 248.269 44.5412 248.253 45.0056ZM242.695 42.4726H244.535C245.39 42.4726 245.839 42.1298 245.839 41.4632C245.839 40.7967 245.39 40.4539 244.535 40.4539H242.695V42.4726ZM246.253 44.8494C246.253 44.1486 245.781 43.8172 244.867 43.8172H242.695V45.9197H244.867C245.781 45.9197 246.253 45.5731 246.253 44.8494Z" fill="white"/>
</g>
<defs>
<clipPath id="clip0_467_3314">
<rect width="250" height="57.6923" fill="white" transform="translate(0 0.154297)"/>
</clipPath>
</defs>
</svg>
