<svg width="161" height="66" viewBox="0 0 161 66" fill="none" xmlns="http://www.w3.org/2000/svg">
<g clip-path="url(#clip0_460_2807)">
<g clip-path="url(#clip1_460_2807)">
<mask id="mask0_460_2807" style="mask-type:luminance" maskUnits="userSpaceOnUse" x="0" y="-10" width="161" height="87">
<path d="M160.955 -9.90039H0V76.9996H160.955V-9.90039Z" fill="white"/>
</mask>
<g mask="url(#mask0_460_2807)">
<path d="M137.729 38.2851C137.958 37.1763 138.072 36.0544 138.123 34.9199H131.24C131.43 35.9284 131.532 36.9742 131.532 38.0079C131.532 40.6927 130.871 43.2258 129.716 45.4691C131.113 46.4524 132.04 48.0657 132.04 49.8932C132.04 52.893 129.589 55.3253 126.566 55.3253C124.725 55.3253 123.099 54.4055 122.096 53.019C119.836 54.1531 117.283 54.8213 114.578 54.8213C113.524 54.8213 112.483 54.7205 111.467 54.5315V65.7108C112.496 65.8242 113.537 65.8872 114.578 65.8872C122.325 65.8872 129.335 62.7362 134.389 57.6695C139.444 52.704 142.593 45.8476 142.669 38.2725H137.729V38.2851Z" fill="white"/>
<path d="M129.728 45.4818C128.839 44.8517 127.76 44.4863 126.579 44.4863C123.557 44.4863 121.105 46.9187 121.105 49.9184C121.105 51.0907 121.487 52.1618 122.108 53.0442C123.747 52.2248 125.246 51.1537 126.515 49.868C127.823 48.595 128.903 47.1077 129.728 45.4818Z" fill="white"/>
<path d="M139.381 10.5952C133.387 4.50767 125.043 0.726562 115.811 0.726562C114.35 0.726562 112.915 0.84001 111.48 1.02906V8.46523C113.728 7.88547 116.078 7.57037 118.503 7.57037V11.9816C121.691 12.3723 124.663 13.4437 127.279 15.0443C127.418 14.8679 127.545 14.6914 127.71 14.5276C129.844 12.4102 133.311 12.4102 135.444 14.5276C137.578 16.645 137.578 20.0858 135.444 22.2032C135.279 22.3671 135.089 22.4931 134.911 22.6444C136.981 25.9465 138.2 29.8284 138.2 34.0003C138.2 34.3153 138.162 34.6177 138.149 34.9328H142.53C142.645 35.9538 142.708 36.9875 142.708 38.0207C142.708 38.1089 142.708 38.1972 142.696 38.2854H149.045C149.236 36.8611 149.35 35.4372 149.35 33.9877C149.325 24.8374 145.515 16.5441 139.381 10.5952Z" fill="white"/>
<path d="M127.265 15.0312C125.589 17.1613 125.716 20.2366 127.697 22.1901C129.665 24.1437 132.751 24.2697 134.897 22.6312C133.933 21.0936 132.802 19.6694 131.507 18.4216C130.237 17.1235 128.814 15.9891 127.265 15.0312Z" fill="white"/>
<path d="M118.503 11.9687C117.614 11.8552 116.725 11.7922 115.811 11.7922C114.35 11.7922 112.902 11.9561 111.48 12.2333V8.46484C106.693 9.7126 102.4 12.2207 99.0093 15.5859C94.0184 20.5391 90.9199 27.3829 90.9199 34.9324H102.07C102.07 32.3865 102.679 29.9793 103.734 27.8366C102.337 26.8536 101.422 25.2403 101.422 23.4128C101.422 20.4131 103.873 17.9806 106.896 17.9806C108.737 17.9806 110.35 18.8881 111.353 20.2745C113.512 19.2284 115.925 18.6234 118.503 18.6234V11.9687Z" fill="white"/>
<path d="M103.721 27.8239C104.61 28.4541 105.702 28.8322 106.883 28.8322C109.905 28.8322 112.356 26.3997 112.356 23.4C112.356 22.2279 111.975 21.144 111.34 20.2617C109.676 21.0557 108.166 22.1144 106.883 23.4C105.587 24.6856 104.533 26.1854 103.721 27.8239Z" fill="white"/>
<path d="M15.8658 49.8552L13.9355 42.3184H15.7135L16.958 48.1033L18.1263 42.3184H20.2217L21.3647 48.1033L22.533 42.3184H24.2093L22.406 49.8678H20.3487L19.155 43.9821L17.9739 49.8678H15.8658V49.8552Z" fill="white"/>
<path d="M29.175 42.2178C29.7592 42.2178 30.2799 42.306 30.7371 42.495C31.2069 42.684 31.6006 42.936 31.9181 43.2762C32.2356 43.6164 32.4896 44.0201 32.6547 44.4863C32.8198 44.9525 32.9086 45.4691 32.9086 46.0366C32.9086 46.591 32.8198 47.1076 32.6547 47.5869C32.4896 48.0657 32.2356 48.4689 31.9181 48.8217C31.6006 49.175 31.1943 49.4396 30.7371 49.6412C30.2672 49.8302 29.7338 49.931 29.1369 49.9184C28.5401 49.9184 28.0194 49.8176 27.5495 49.6286C27.0796 49.4396 26.6987 49.1624 26.3812 48.8217C26.0637 48.4815 25.8224 48.0783 25.6446 47.6121C25.4668 47.1454 25.3906 46.6288 25.3906 46.0744C25.3906 45.5069 25.4795 44.9903 25.6573 44.5115C25.8351 44.0327 26.0764 43.629 26.4066 43.2888C26.7368 42.9486 27.1304 42.684 27.5876 42.495C28.0702 42.3186 28.5909 42.2178 29.175 42.2178ZM27.0035 46.0618C27.0035 46.3894 27.0543 46.7044 27.1432 46.9942C27.232 47.284 27.3591 47.5491 27.5368 47.7759C27.7146 48.0027 27.9305 48.1917 28.2099 48.3303C28.4766 48.4689 28.7941 48.5445 29.1623 48.5445C29.5179 48.5571 29.8227 48.4941 30.1021 48.3555C30.3815 48.2169 30.5974 48.0405 30.7752 47.8137C30.953 47.5869 31.0927 47.3218 31.1815 47.0194C31.2704 46.717 31.3212 46.402 31.3212 46.0744C31.3212 45.7594 31.2704 45.4439 31.1815 45.1415C31.0927 44.8391 30.9656 44.5745 30.7878 44.3477C30.6101 44.1209 30.3942 43.9319 30.1148 43.7928C29.8481 43.6542 29.5179 43.5912 29.1623 43.5912C28.8068 43.5912 28.4893 43.6542 28.2226 43.7928C27.9559 43.9319 27.7273 44.1083 27.5495 44.3351C27.3717 44.5619 27.232 44.8265 27.1432 45.1163C27.0415 45.4187 27.0035 45.7342 27.0035 46.0618Z" fill="white"/>
<path d="M38.0391 42.3184C38.2423 42.3184 38.4455 42.3184 38.636 42.331C38.8392 42.3436 39.0296 42.3688 39.2201 42.4066C39.4106 42.4444 39.6011 42.5074 39.7789 42.5956C39.9567 42.6712 40.1345 42.7846 40.2869 42.9358C40.5409 43.1626 40.7187 43.4398 40.8202 43.7548C40.9218 44.0703 40.9726 44.3979 40.9726 44.7129C40.9599 45.1539 40.8837 45.5319 40.744 45.8348C40.5916 46.1372 40.4012 46.4018 40.1471 46.616C39.9186 46.805 39.6519 46.931 39.3471 47.0066L41.0361 49.8678H39.2963L37.7597 47.1578H36.5406V49.8678H34.9785V42.3184H38.0391ZM38.0391 45.86C38.2296 45.86 38.4201 45.8474 38.5851 45.8096C38.7629 45.7718 38.9026 45.7214 39.0296 45.6327C39.1566 45.5445 39.2582 45.4437 39.3344 45.3051C39.4106 45.1665 39.4487 44.9901 39.4614 44.7759C39.4741 44.5491 39.436 44.3601 39.3598 44.2215C39.2836 44.0829 39.182 43.9695 39.055 43.8934C38.9281 43.8178 38.7883 43.7674 38.6233 43.7422C38.4582 43.717 38.2677 43.7044 38.0645 43.7044H36.5532V45.8726H38.0391V45.86Z" fill="white"/>
<path d="M44.6939 48.4939H48.4147V49.8552H43.1445V42.3184H44.6939V48.4939Z" fill="white"/>
<path d="M50.2695 49.8552V42.3184H53.0759C53.4443 42.3184 53.8 42.3436 54.1553 42.4066C54.5109 42.4696 54.8412 42.583 55.1587 42.7468C55.7302 43.0366 56.1622 43.465 56.4542 44.0325C56.7463 44.5995 56.8858 45.2925 56.8858 46.0868C56.8858 47.2964 56.5683 48.2293 55.9332 48.8719C55.2986 49.515 54.3715 49.8426 53.1523 49.8426H50.2695V49.8552ZM53.165 48.4939C53.2667 48.4939 53.368 48.4813 53.4825 48.4687C53.5965 48.4561 53.711 48.4309 53.8255 48.4057C53.9395 48.3805 54.0412 48.3553 54.143 48.3175C54.2443 48.2797 54.3333 48.2419 54.3969 48.2041C54.689 48.0025 54.9048 47.7253 55.057 47.3594C55.2096 46.994 55.2732 46.5782 55.2732 46.0994C55.2732 45.7214 55.235 45.3807 55.146 45.0783C55.057 44.7759 54.9302 44.5113 54.7522 44.2971C54.5491 44.0577 54.2952 43.906 53.9904 43.8178C53.6856 43.7296 53.368 43.6918 53.0759 43.6918H51.8313V48.4939H53.165Z" fill="white"/>
<path d="M67.1593 42.3184H68.9245L66.1177 47.0444V49.8678H64.5559V47.0696L61.7109 42.3184H63.5016L65.3432 45.5823L67.1593 42.3184Z" fill="white"/>
<path d="M73.5344 42.2178C74.1186 42.2178 74.6392 42.306 75.0962 42.495C75.5663 42.684 75.9597 42.936 76.2772 43.2762C76.5948 43.6164 76.8487 44.0201 77.014 44.4863C77.1789 44.9525 77.268 45.4691 77.268 46.0366C77.268 46.591 77.1789 47.1076 77.014 47.5869C76.8487 48.0657 76.5948 48.4689 76.2772 48.8217C75.9597 49.175 75.5536 49.4396 75.0962 49.6412C74.6265 49.8302 74.0932 49.931 73.4963 49.9184C72.8994 49.9184 72.3788 49.8176 71.9086 49.6286C71.4389 49.4396 71.0578 49.1624 70.7403 48.8217C70.4228 48.4815 70.1816 48.0783 70.0039 47.6121C69.8263 47.1454 69.75 46.6288 69.75 46.0744C69.75 45.5069 69.839 44.9903 70.0167 44.5115C70.1943 44.0327 70.4355 43.629 70.7657 43.2888C71.096 42.9486 71.4898 42.684 71.9468 42.495C72.4297 42.3186 72.9502 42.2178 73.5344 42.2178ZM71.3626 46.0618C71.3626 46.3894 71.4135 46.7044 71.5025 46.9942C71.5911 47.284 71.7183 47.5491 71.8959 47.7759C72.074 48.0027 72.2898 48.1917 72.5691 48.3303C72.8358 48.4689 73.1533 48.5445 73.5217 48.5445C73.8774 48.5571 74.1822 48.4941 74.4616 48.3555C74.7409 48.2169 74.9567 48.0405 75.1343 47.8137C75.3124 47.5869 75.4518 47.3218 75.5409 47.0194C75.6299 46.717 75.6803 46.402 75.6803 46.0744C75.6803 45.7594 75.6299 45.4439 75.5409 45.1415C75.4518 44.8391 75.3251 44.5745 75.147 44.3477C74.9694 44.1209 74.7536 43.9319 74.4743 43.7928C74.2072 43.6542 73.8774 43.5912 73.5217 43.5912C73.166 43.5912 72.8485 43.6542 72.5818 43.7928C72.3152 43.9319 72.0867 44.1083 71.9086 44.3351C71.731 44.5619 71.5911 44.8265 71.5025 45.1163C71.4008 45.4187 71.3626 45.7342 71.3626 46.0618Z" fill="white"/>
<path d="M82.5627 49.9434C81.9658 49.9434 81.4575 49.8552 81.0387 49.6914C80.6194 49.5276 80.2765 49.2756 80.0225 48.9727C79.7559 48.6577 79.5782 48.2797 79.4511 47.8513C79.337 47.4103 79.2734 46.9184 79.2734 46.3766V42.3184H80.8352V46.4774C80.8352 46.7546 80.8606 47.0192 80.9242 47.2712C80.9878 47.5237 81.0768 47.7505 81.2163 47.9395C81.3562 48.1285 81.5338 48.2797 81.7496 48.4057C81.9658 48.5191 82.2452 48.5821 82.5877 48.5821C82.918 48.5821 83.1973 48.5191 83.4135 48.4057C83.6293 48.2923 83.8069 48.1285 83.9468 47.9395C84.0736 47.7379 84.1753 47.5237 84.2262 47.2712C84.2771 47.0192 84.3025 46.7546 84.3025 46.49V42.331H85.8516V46.3766C85.8516 46.9058 85.788 47.3972 85.6739 47.8387C85.5595 48.2797 85.3691 48.6577 85.1025 48.9727C84.8358 49.2882 84.5056 49.5276 84.0863 49.6914C83.6548 49.8552 83.1592 49.9434 82.5627 49.9434Z" fill="white"/>
<path d="M87.5547 43.6918V42.3184H93.8793V43.6918H91.4917V49.8678H89.9295V43.6918H87.5547Z" fill="white"/>
<path d="M97.1545 45.4437H100.52V42.3184H102.082V49.8678H100.52V46.8302H97.1545V49.8678H95.6055V42.3184H97.1672V45.4437H97.1545Z" fill="white"/>
<path d="M20.0066 54.5439V55.9174H16.2603V57.8713H19.4097V59.2196H16.2603V62.0808H14.7109V54.5439H20.0066Z" fill="white"/>
<path d="M27.3084 54.5439V55.9174H23.4351V57.6819H26.8131V59.0558H23.4351V60.7195H27.3084V62.0808H21.873V54.5439H27.3084Z" fill="white"/>
<path d="M33.3403 56.7116C33.3021 56.3966 33.1497 56.1572 32.9084 56.0181C32.6672 55.8795 32.3624 55.8039 31.9941 55.7913C31.8671 55.7913 31.7274 55.8039 31.5877 55.8291C31.448 55.8543 31.321 55.8921 31.194 55.9551C31.0671 56.0181 30.9782 56.1063 30.8893 56.2076C30.8131 56.3084 30.775 56.447 30.775 56.5982C30.7622 56.762 30.8131 56.9006 30.902 57.014C30.9908 57.1274 31.1178 57.2156 31.2575 57.2912C31.3591 57.3416 31.4861 57.3794 31.6004 57.4298C31.7147 57.4802 31.8544 57.5054 31.9687 57.5306C32.0957 57.5684 32.21 57.5936 32.3243 57.6062C32.4386 57.6314 32.5402 57.644 32.6291 57.6692C32.9339 57.7322 33.2386 57.8078 33.518 57.8965C33.8101 57.9847 34.0641 58.0981 34.28 58.2493C34.4959 58.4005 34.6864 58.6021 34.8134 58.8415C34.9403 59.0809 35.0166 59.4085 35.0292 59.8122C35.0292 60.2406 34.953 60.6186 34.788 60.921C34.6228 61.2234 34.407 61.4759 34.1276 61.6523C33.8609 61.8413 33.5561 61.9673 33.2005 62.0555C32.845 62.1311 32.464 62.1689 32.0449 62.1563C31.6385 62.1437 31.2575 62.0933 30.902 61.9925C30.5464 61.8917 30.2289 61.7405 29.9495 61.5389C29.6701 61.3369 29.4542 61.0974 29.2891 60.795C29.1241 60.4926 29.0352 60.1398 29.0098 59.7366H30.5972C30.6353 59.9256 30.7115 60.0768 30.8131 60.1902C30.9146 60.3036 31.0289 60.4044 31.1686 60.4926C31.3084 60.5682 31.4607 60.6312 31.6258 60.6564C31.7909 60.6942 31.9687 60.7068 32.1338 60.7194C32.3116 60.732 32.4894 60.7194 32.6545 60.6942C32.8195 60.669 32.9593 60.6312 33.0862 60.5682C33.2132 60.5052 33.3148 60.4296 33.3783 60.3162C33.4545 60.2154 33.4799 60.0768 33.4799 59.913C33.4799 59.6862 33.4037 59.5219 33.264 59.4085C33.1243 59.2951 32.9719 59.2321 32.8069 59.1817C32.6926 59.1565 32.591 59.1313 32.5021 59.1061C32.4132 59.0809 32.3243 59.0557 32.2354 59.0431C32.1465 59.0305 32.0576 59.0053 31.9687 58.9801C31.8798 58.9549 31.7655 58.9297 31.6512 58.9045C31.3845 58.8289 31.0924 58.7533 30.8131 58.6651C30.521 58.5769 30.267 58.4509 30.0384 58.2871C29.759 58.0981 29.5558 57.8456 29.4161 57.5558C29.2764 57.2534 29.213 56.9258 29.2256 56.5604C29.251 56.1315 29.3526 55.7787 29.5304 55.5015C29.7082 55.2243 29.9368 54.9975 30.2162 54.8337C30.4956 54.6699 30.8004 54.5565 31.1432 54.4935C31.4734 54.4305 31.8163 54.4053 32.1465 54.4053C32.5148 54.4053 32.8576 54.4683 33.1878 54.5565C33.518 54.6447 33.7847 54.7959 34.026 54.9723C34.2673 55.1613 34.4578 55.3881 34.6102 55.6779C34.7626 55.9677 34.8515 56.2958 34.8895 56.6738H33.3403V56.7116Z" fill="white"/>
<path d="M36.4648 55.9174V54.5439H42.7891V55.9174H40.4016V62.0934H38.8396V55.9174H36.4648Z" fill="white"/>
<path d="M46.0657 62.0808H44.5039V54.5439H46.0657V62.0808Z" fill="white"/>
<path d="M53.5447 54.5439H55.2214L52.3387 62.0934H50.662L47.7793 54.5439H49.5064L51.5383 60.2407L53.5447 54.5439Z" fill="white"/>
<path d="M57.8121 60.6438L57.2661 62.0807H55.5645L58.5103 54.5312H60.2756L63.171 62.0807H61.4694L60.9488 60.6438H57.8121ZM58.2564 59.2825H60.4663L59.3739 56.1698L58.2564 59.2825Z" fill="white"/>
<path d="M66.4104 60.7195H70.1312V62.0808H64.8613V54.5439H66.4104V60.7195Z" fill="white"/>
<path d="M77.4842 59.0809C77.6618 58.9423 77.8271 58.791 78.0047 58.6272C78.1828 58.4634 78.3477 58.2996 78.513 58.1106C78.6779 57.9468 78.8174 57.77 78.9319 57.581C79.0463 57.392 79.1095 57.1777 79.1222 56.9383C79.1349 56.5603 79.0336 56.2831 78.8174 56.0941C78.6016 55.9047 78.3095 55.8165 77.9539 55.8291C77.6368 55.8417 77.3697 55.9047 77.1794 56.0563C76.9763 56.1949 76.8618 56.4091 76.8364 56.6737H75.3887C75.4014 56.2579 75.5031 55.8921 75.6935 55.5771C75.8843 55.262 76.1382 55.0226 76.4557 54.8336C76.6842 54.695 76.9381 54.6068 77.2048 54.5438C77.4714 54.4808 77.7635 54.4556 78.0683 54.4556C78.881 54.443 79.5161 54.6572 79.973 55.0982C80.1765 55.2872 80.3287 55.514 80.4559 55.7787C80.5827 56.0563 80.6335 56.3713 80.6335 56.7493C80.6335 57.0139 80.6081 57.2786 80.5449 57.518C80.4813 57.7574 80.3923 57.9846 80.2528 58.1862C80.1638 58.3248 80.0748 58.4634 79.973 58.5768C79.8717 58.6902 79.7827 58.8036 79.681 58.9044C79.5796 59.0053 79.4779 59.1061 79.3639 59.2069C79.2494 59.3077 79.1222 59.4211 78.9955 59.5349C78.7288 59.7617 78.4749 59.9759 78.2332 60.1649C77.992 60.3539 77.7635 60.543 77.5477 60.732H80.5195V62.0932H75.4141V60.8328L77.4842 59.0809Z" fill="white"/>
<path d="M85.421 54.4434C85.8526 54.4434 86.2591 54.519 86.6275 54.6702C86.9955 54.8214 87.313 55.0482 87.5669 55.3632C87.8336 55.6782 88.0371 56.0814 88.1766 56.5607C88.3292 57.0395 88.3923 57.6191 88.3923 58.2874C88.3923 58.9678 88.3165 59.5474 88.1766 60.0267C88.0371 60.5055 87.8336 60.9087 87.5797 61.2237C87.3257 61.5392 87.0082 61.766 86.6398 61.9172C86.2718 62.0684 85.8653 62.144 85.4083 62.144C84.9509 62.144 84.5448 62.0684 84.1764 61.9172C83.808 61.766 83.4904 61.5392 83.2365 61.2237C82.9698 60.9087 82.7795 60.5181 82.6396 60.0267C82.5001 59.5474 82.4238 58.9678 82.4238 58.2874C82.4238 57.6191 82.5001 57.0395 82.6396 56.5607C82.7795 56.0814 82.9826 55.6782 83.2492 55.3632C83.5159 55.0482 83.8334 54.8214 84.1891 54.6702C84.5702 54.519 84.9763 54.4434 85.421 54.4434ZM85.421 60.7701C85.878 60.7701 86.2337 60.5811 86.5003 60.1905C86.7543 59.8125 86.8815 59.1694 86.8815 58.2874C86.8815 57.4049 86.7543 56.7749 86.5003 56.3843C86.2464 55.9932 85.8907 55.8042 85.421 55.8042C84.9509 55.8042 84.5956 55.9932 84.3413 56.3843C84.0873 56.7749 83.9606 57.4049 83.9606 58.2874C83.9606 59.1694 84.0873 59.8125 84.3413 60.1905C84.5956 60.5811 84.9509 60.7701 85.421 60.7701Z" fill="white"/>
<path d="M92.0506 59.0809C92.2282 58.9423 92.3935 58.791 92.5711 58.6272C92.7492 58.4634 92.9141 58.2996 93.079 58.1106C93.2444 57.9468 93.3838 57.77 93.4983 57.581C93.6128 57.392 93.6759 57.1777 93.6886 56.9383C93.7013 56.5603 93.6 56.2831 93.3838 56.0941C93.168 55.9047 92.876 55.8165 92.5203 55.8291C92.2027 55.8417 91.9361 55.9047 91.7458 56.0563C91.5427 56.1949 91.4282 56.4091 91.4028 56.6737H89.9551C89.9678 56.2579 90.0695 55.8921 90.2599 55.5771C90.4502 55.262 90.7046 55.0226 91.0217 54.8336C91.2506 54.695 91.5045 54.6068 91.7712 54.5438C92.0378 54.4808 92.3299 54.4556 92.6347 54.4556C93.4474 54.443 94.0825 54.6572 94.5395 55.0982C94.7429 55.2872 94.8951 55.514 95.0223 55.7787C95.1491 56.0563 95.1999 56.3713 95.1999 56.7493C95.1999 57.0139 95.1745 57.2786 95.1109 57.518C95.0478 57.7574 94.9587 57.9846 94.8188 58.1862C94.7302 58.3248 94.6412 58.4634 94.5395 58.5768C94.4381 58.6902 94.3491 58.8036 94.2474 58.9044C94.1461 59.0053 94.0443 59.1061 93.9298 59.2069C93.8158 59.3077 93.6886 59.4211 93.5619 59.5349C93.2952 59.7617 93.0413 59.9759 92.7996 60.1649C92.5584 60.3539 92.3299 60.543 92.1142 60.732H95.0855V62.0932H89.9805V60.8328L92.0506 59.0809Z" fill="white"/>
<path d="M102.057 59.3456H102.921V60.6817H102.057V62.0934H100.533V60.6817H96.8125V59.6106L100.203 54.5439H102.045V59.3456H102.057ZM98.5905 59.3456H100.533V56.321L98.5905 59.3456Z" fill="white"/>
</g>
</g>
</g>
<defs>
<clipPath id="clip0_460_2807">
<rect width="161" height="66" fill="white"/>
</clipPath>
<clipPath id="clip1_460_2807">
<rect width="160.955" height="86.9" fill="white" transform="translate(0 -9.90039)"/>
</clipPath>
</defs>
</svg>
