<svg width="71" height="30" viewBox="0 0 71 30" fill="none" xmlns="http://www.w3.org/2000/svg">
<g clip-path="url(#clip0_640_667)">
<path d="M22.0723 5.78536L17.7807 10.0559C17.682 10.154 17.6498 10.3015 17.7035 10.4294C17.994 11.1171 18.15 11.8744 18.1375 12.6703C18.0909 15.5768 15.7514 17.9895 12.8339 18.1323C9.52968 18.2941 6.81601 15.597 6.97202 12.3098C7.10949 9.42055 9.50756 7.09286 12.4131 7.02208C13.2045 7.00304 13.9582 7.14878 14.6456 7.42599C14.7729 7.47714 14.9194 7.44383 15.0168 7.34746L19.318 3.06685C19.6336 2.75217 19.5762 2.22512 19.1973 1.98896C17.1955 0.742134 14.8153 0.0413888 12.2667 0.0979006C5.6379 0.244236 0.223121 5.57775 0.0133197 12.1736C-0.216804 19.3904 5.70903 25.2879 12.9606 25.0588C19.6019 24.8489 24.9665 19.4386 25.095 12.8267C25.1446 10.2772 24.4249 7.89771 23.153 5.90195C22.9145 5.52779 22.3873 5.47187 22.0723 5.78536Z" fill="white"/>
<path d="M32.4798 17.517C31.7464 17.3052 31.157 17.0298 30.7129 16.6907L31.4929 14.9674C31.9191 15.2779 32.4248 15.5278 33.0117 15.7158C33.5981 15.9043 34.1851 15.9983 34.7714 15.9983C35.4247 15.9983 35.9071 15.9019 36.2191 15.7086C36.5317 15.5159 36.6877 15.2589 36.6877 14.9389C36.6877 14.7039 36.5951 14.5082 36.411 14.3529C36.2263 14.1977 35.9896 14.0727 35.7015 13.9788C35.4128 13.8848 35.0225 13.7807 34.5306 13.6676C33.7732 13.4892 33.154 13.3101 32.671 13.1311C32.1887 12.9526 31.7744 12.6647 31.4296 12.2697C31.0841 11.8741 30.9113 11.3471 30.9113 10.6874C30.9113 10.1134 31.0673 9.59285 31.3794 9.12708C31.692 8.66071 32.1624 8.2913 32.7918 8.01826C33.4206 7.74522 34.1898 7.6084 35.0984 7.6084C35.732 7.6084 36.3518 7.68395 36.9573 7.83445C37.5628 7.98495 38.0924 8.20147 38.5467 8.48403L37.8372 10.2216C36.9191 9.7035 36.0015 9.44473 35.084 9.44473C34.4403 9.44473 33.9651 9.54824 33.6579 9.75584C33.35 9.96226 33.1964 10.2359 33.1964 10.575C33.1964 10.9134 33.374 11.1657 33.7284 11.3304C34.0835 11.4952 34.625 11.6576 35.3536 11.8176C36.1103 11.9967 36.7302 12.1757 37.2125 12.3542C37.6955 12.5332 38.1091 12.8158 38.4546 13.2019C38.8001 13.5879 38.9728 14.1108 38.9728 14.7699C38.9728 15.3344 38.8138 15.8502 38.497 16.316C38.1803 16.7823 37.7045 17.1517 37.0709 17.4248C36.4367 17.6978 35.6656 17.8346 34.7577 17.8346C33.9723 17.8346 33.2126 17.7288 32.4798 17.517Z" fill="white"/>
<path d="M40.3916 10.0672H42.6056V17.666H40.3916V10.0672ZM40.5052 8.65442C40.2494 8.41945 40.1221 8.12737 40.1221 7.77879C40.1221 7.4302 40.2494 7.13872 40.5052 6.90315C40.7604 6.66759 41.0916 6.5498 41.4986 6.5498C41.9051 6.5498 42.2368 6.66342 42.492 6.88888C42.7473 7.11492 42.8752 7.39748 42.8752 7.73655C42.8752 8.10358 42.7473 8.40755 42.492 8.64728C42.2368 8.88761 41.9051 9.00777 41.4986 9.00777C41.0916 9.00777 40.7604 8.88999 40.5052 8.65442Z" fill="white"/>
<path d="M47.8499 10.2361C48.2994 10.0481 48.8176 9.9541 49.404 9.9541V11.9879C49.1583 11.9689 48.9928 11.9594 48.9073 11.9594C48.2737 11.9594 47.777 12.136 47.4172 12.4894C47.0573 12.8427 46.878 13.3722 46.878 14.0783V17.6659H44.6641V10.0671H46.7788V11.0701C47.0436 10.7024 47.4004 10.4252 47.8499 10.2361Z" fill="white"/>
<path d="M50.7813 10.0672H52.9953V17.666H50.7813V10.0672ZM50.8949 8.65442C50.639 8.41945 50.5117 8.12737 50.5117 7.77879C50.5117 7.4302 50.639 7.13872 50.8949 6.90315C51.1501 6.66759 51.4812 6.5498 51.8883 6.5498C52.2947 6.5498 52.6259 6.66342 52.8817 6.88888C53.1369 7.11492 53.2648 7.39748 53.2648 7.73655C53.2648 8.10358 53.1369 8.40755 52.8817 8.64728C52.6259 8.88761 52.2947 9.00777 51.8883 9.00777C51.4812 9.00777 51.1501 8.88999 50.8949 8.65442Z" fill="white"/>
<path d="M62.7449 10.0664V17.6652H60.6445V16.7616C60.351 17.0911 60.0008 17.3427 59.5943 17.517C59.1873 17.6907 58.7473 17.7782 58.2739 17.7782C57.2716 17.7782 56.4766 17.4909 55.8896 16.9162C55.3032 16.3422 55.0098 15.4897 55.0098 14.3601V10.0664H57.2237V14.0353C57.2237 15.2595 57.7396 15.8716 58.7706 15.8716C59.3008 15.8716 59.7264 15.6997 60.048 15.3559C60.3696 15.0121 60.5309 14.5011 60.5309 13.8235V10.0664H62.7449Z" fill="white"/>
<path d="M65.5121 17.5457C64.906 17.3905 64.4237 17.1947 64.0645 16.9598L64.8026 15.378C65.1427 15.5946 65.5546 15.7712 66.0369 15.9075C66.5199 16.0437 66.9927 16.1121 67.4565 16.1121C68.3932 16.1121 68.8612 15.8819 68.8612 15.4203C68.8612 15.2037 68.7339 15.0485 68.478 14.9539C68.2228 14.8599 67.8301 14.7796 67.2999 14.7136C66.6759 14.6202 66.1601 14.5113 65.753 14.3888C65.3466 14.2668 64.9939 14.0497 64.6956 13.7392C64.398 13.4287 64.2491 12.9861 64.2491 12.4115C64.2491 11.9314 64.3884 11.5055 64.6676 11.1337C64.9467 10.7613 65.3531 10.4716 65.8881 10.2646C66.4225 10.0576 67.0543 9.9541 67.7829 9.9541C68.322 9.9541 68.8588 10.013 69.3938 10.1302C69.9281 10.248 70.3704 10.411 70.7207 10.618L69.9825 12.1854C69.3107 11.8089 68.5779 11.6203 67.7829 11.6203C67.3095 11.6203 66.9544 11.6869 66.7183 11.8184C66.4816 11.9499 66.3633 12.12 66.3633 12.327C66.3633 12.5626 66.4912 12.7273 66.747 12.8213C67.0023 12.9153 67.4087 13.0045 67.967 13.0896C68.5916 13.1931 69.1027 13.3038 69.5002 13.4215C69.8976 13.5393 70.2425 13.7535 70.536 14.064C70.8295 14.3751 70.9759 14.8082 70.9759 15.3638C70.9759 15.8343 70.8343 16.2537 70.5504 16.6207C70.2664 16.9877 69.8522 17.2727 69.3083 17.4749C68.7644 17.6778 68.1188 17.7789 67.3711 17.7789C66.7369 17.7789 66.117 17.701 65.5121 17.5457Z" fill="white"/>
<path d="M53.3313 29.7279H53.1748V21.8662H53.3313V29.7279Z" fill="white"/>
<path d="M55.8988 22.5185C55.8456 22.5745 55.8193 22.6572 55.8193 22.7678V22.9766H56.3668V23.1782H55.8259V24.7469H55.5862V23.1782H55.2676V22.9766H55.5862V22.7577C55.5862 22.5959 55.6328 22.468 55.726 22.374C55.8199 22.2794 55.952 22.2324 56.1235 22.2324C56.1911 22.2324 56.2562 22.2419 56.3196 22.261C56.3829 22.28 56.4355 22.3074 56.4786 22.3431L56.3973 22.5221C56.3273 22.4632 56.2395 22.4341 56.1337 22.4341C56.0297 22.4341 55.9514 22.462 55.8988 22.5185Z" fill="white"/>
<path d="M58.2095 23.9355H56.7217C56.7349 24.1199 56.806 24.268 56.9345 24.3816C57.063 24.4953 57.225 24.5518 57.4217 24.5518C57.5322 24.5518 57.6333 24.5315 57.7259 24.4923C57.8186 24.4536 57.8986 24.3953 57.9662 24.3192L58.1013 24.4744C58.0224 24.5684 57.9238 24.6398 57.8054 24.6898C57.6871 24.7391 57.5568 24.7635 57.4151 24.7635C57.2322 24.7635 57.0708 24.7249 56.9291 24.6475C56.7887 24.5696 56.6787 24.4631 56.5998 24.3263C56.5209 24.1889 56.4814 24.0342 56.4814 23.8617C56.4814 23.6886 56.5191 23.534 56.5944 23.3971C56.6697 23.2603 56.7737 23.1532 56.9058 23.0771C57.0379 23.001 57.1862 22.9629 57.3505 22.9629C57.5155 22.9629 57.6625 23.001 57.7934 23.0771C57.9244 23.1532 58.0272 23.2591 58.1013 23.3954C58.176 23.531 58.2131 23.6862 58.2131 23.8617L58.2095 23.9355ZM56.919 23.3311C56.803 23.44 56.7373 23.5821 56.7217 23.757H57.9829C57.9674 23.5821 57.901 23.44 57.7851 23.3311C57.6691 23.2228 57.5239 23.1681 57.3505 23.1681C57.179 23.1681 57.0355 23.2228 56.919 23.3311Z" fill="white"/>
<path d="M60.3276 22.249V24.7468H60.0975V24.3965C60.0252 24.5154 59.9301 24.6065 59.8118 24.6695C59.6934 24.732 59.5595 24.7635 59.4107 24.7635C59.244 24.7635 59.0927 24.7254 58.9576 24.6493C58.822 24.5731 58.7162 24.4661 58.6397 24.3293C58.5631 24.1924 58.5243 24.0366 58.5243 23.8617C58.5243 23.6862 58.5631 23.5304 58.6397 23.3935C58.7162 23.2567 58.822 23.1508 58.9576 23.0753C59.0927 23.0003 59.244 22.9629 59.4107 22.9629C59.5548 22.9629 59.6851 22.9926 59.801 23.0515C59.9176 23.1116 60.0126 23.1984 60.0873 23.3126V22.249H60.3276ZM59.7676 24.4655C59.868 24.4084 59.9469 24.3269 60.0043 24.2216C60.0616 24.1163 60.0903 23.9961 60.0903 23.8617C60.0903 23.7267 60.0616 23.6071 60.0043 23.5012C59.9469 23.3959 59.868 23.3144 59.7676 23.2573C59.6671 23.2002 59.5548 23.1717 59.431 23.1717C59.3043 23.1717 59.1914 23.2002 59.0909 23.2573C58.9905 23.3144 58.9116 23.3959 58.8542 23.5012C58.7969 23.6071 58.7682 23.7267 58.7682 23.8617C58.7682 23.9961 58.7969 24.1163 58.8542 24.2216C58.9116 24.3269 58.9905 24.4084 59.0909 24.4655C59.1914 24.5232 59.3043 24.5517 59.431 24.5517C59.5548 24.5517 59.6671 24.5232 59.7676 24.4655Z" fill="white"/>
<path d="M62.546 23.9355H61.0577C61.0708 24.1199 61.1419 24.268 61.2705 24.3816C61.3996 24.4953 61.5615 24.5518 61.7576 24.5518C61.8682 24.5518 61.9692 24.5315 62.0624 24.4923C62.1545 24.4536 62.2346 24.3953 62.3021 24.3192L62.4372 24.4744C62.3583 24.5684 62.2597 24.6398 62.1413 24.6898C62.023 24.7391 61.8927 24.7635 61.751 24.7635C61.5681 24.7635 61.4067 24.7249 61.2657 24.6475C61.1246 24.5696 61.0146 24.4631 60.9357 24.3263C60.8568 24.1889 60.8174 24.0342 60.8174 23.8617C60.8174 23.6886 60.855 23.534 60.931 23.3971C61.0063 23.2603 61.1103 23.1532 61.2418 23.0771C61.3739 23.001 61.5221 22.9629 61.6865 22.9629C61.8508 22.9629 61.9991 23.001 62.13 23.0771C62.2609 23.1532 62.3631 23.2591 62.4372 23.3954C62.5119 23.531 62.549 23.6862 62.549 23.8617L62.546 23.9355ZM61.2555 23.3311C61.139 23.44 61.0732 23.5821 61.0577 23.757H62.3189C62.3033 23.5821 62.237 23.44 62.121 23.3311C62.0051 23.2228 61.8598 23.1681 61.6865 23.1681C61.5155 23.1681 61.3715 23.2228 61.2555 23.3311Z" fill="white"/>
<path d="M63.5214 23.0533C63.6332 22.9926 63.7713 22.9629 63.9356 22.9629V23.1949L63.8783 23.1919C63.6912 23.1919 63.5441 23.249 63.4383 23.3632C63.3325 23.478 63.2793 23.6381 63.2793 23.8445V24.7469H63.0391V22.976H63.2692V23.3228C63.326 23.2044 63.4097 23.1146 63.5214 23.0533Z" fill="white"/>
<path d="M65.5222 23.1356C65.6466 23.251 65.7081 23.4223 65.7081 23.649V24.7465H65.4786V24.4699C65.4242 24.5627 65.3447 24.6341 65.2401 24.6858C65.1349 24.737 65.0106 24.7632 64.8665 24.7632C64.6675 24.7632 64.5097 24.7162 64.3925 24.6216C64.2754 24.5276 64.2168 24.4027 64.2168 24.248C64.2168 24.0981 64.2712 23.9767 64.3806 23.8845C64.49 23.7929 64.6645 23.7465 64.903 23.7465H65.4684V23.6389C65.4684 23.4866 65.4254 23.37 65.3393 23.2903C65.2538 23.2112 65.1289 23.1707 64.964 23.1707C64.851 23.1707 64.7434 23.1892 64.6394 23.2266C64.536 23.2635 64.4463 23.3147 64.3722 23.3795L64.264 23.201C64.3543 23.1249 64.4625 23.066 64.5886 23.0244C64.7147 22.9833 64.848 22.9619 64.9879 22.9619C65.2198 22.9619 65.3979 23.0202 65.5222 23.1356ZM65.2515 24.4818C65.3489 24.4199 65.4206 24.3313 65.4684 24.2147V23.925H64.9102C64.6053 23.925 64.4535 24.0303 64.4535 24.2415C64.4535 24.3444 64.4929 24.4259 64.5718 24.4854C64.6507 24.5448 64.7613 24.5746 64.903 24.5746C65.0387 24.5746 65.1546 24.5436 65.2515 24.4818Z" fill="white"/>
<path d="M66.3613 24.7468H66.6016V22.249H66.3613V24.7468Z" fill="white"/>
<path d="M56.4822 29.17C56.4367 29.2105 56.3805 29.2414 56.3148 29.2628C56.2478 29.2836 56.1785 29.2949 56.1068 29.2949C55.9394 29.2949 55.8109 29.2497 55.7213 29.1599C55.631 29.0701 55.5856 28.9434 55.5856 28.7798V27.709H55.2676V27.5074H55.5856V27.1201H55.8259V27.5074H56.3668V27.709H55.8259V28.7661C55.8259 28.872 55.8522 28.9517 55.9053 29.0064C55.9579 29.0617 56.0345 29.0891 56.1337 29.0891C56.1833 29.0891 56.2311 29.0814 56.2771 29.0659C56.3238 29.0498 56.3632 29.0278 56.3973 28.9981L56.4822 29.17Z" fill="white"/>
<path d="M58.4034 28.4667H56.9151C56.9282 28.6505 57 28.7999 57.1285 28.9129C57.257 29.0265 57.419 29.083 57.615 29.083C57.7256 29.083 57.8272 29.0634 57.9193 29.0241C58.0119 28.9849 58.092 28.9272 58.1596 28.8504L58.2952 29.0057C58.2163 29.0997 58.1177 29.1716 57.9988 29.221C57.881 29.2704 57.7501 29.2954 57.6084 29.2954C57.4261 29.2954 57.2642 29.2561 57.1231 29.1788C56.982 29.1015 56.8721 28.9944 56.7932 28.8576C56.7143 28.7207 56.6748 28.5661 56.6748 28.393C56.6748 28.2205 56.7131 28.0652 56.7884 27.9284C56.8637 27.7916 56.9677 27.6851 57.0992 27.6089C57.2313 27.5322 57.3795 27.4941 57.5439 27.4941C57.7089 27.4941 57.8565 27.5322 57.9874 27.6089C58.1183 27.6851 58.2205 27.791 58.2952 27.9266C58.3694 28.0628 58.407 28.2181 58.407 28.393L58.4034 28.4667ZM57.1129 27.863C56.997 27.9718 56.9312 28.1134 56.9151 28.2889H58.1769C58.1613 28.1134 58.095 27.9718 57.9784 27.863C57.8625 27.7541 57.7178 27.6994 57.5439 27.6994C57.3729 27.6994 57.2289 27.7541 57.1129 27.863Z" fill="white"/>
<path d="M59.3782 27.5852C59.49 27.5245 59.6281 27.4941 59.7925 27.4941V27.7267L59.7351 27.7232C59.548 27.7232 59.4016 27.7803 59.2952 27.8951C59.1894 28.0093 59.1362 28.1693 59.1362 28.3763V29.2781H58.8965V27.5078H59.1266V27.854C59.1828 27.7357 59.2671 27.6458 59.3782 27.5852Z" fill="white"/>
<path d="M60.7079 27.5852C60.8197 27.5245 60.9578 27.4941 61.1222 27.4941V27.7267L61.0648 27.7232C60.8777 27.7232 60.7307 27.7803 60.6249 27.8951C60.5191 28.0093 60.4659 28.1693 60.4659 28.3763V29.2781H60.2256V27.5078H60.4557V27.854C60.5125 27.7357 60.5962 27.6458 60.7079 27.5852Z" fill="white"/>
<path d="M61.5518 27.0694C61.5177 27.0361 61.501 26.9956 61.501 26.9486C61.501 26.9034 61.5177 26.8641 61.5518 26.8302C61.5853 26.7969 61.6271 26.7803 61.6767 26.7803C61.7263 26.7803 61.7682 26.7963 61.8022 26.8285C61.8357 26.8612 61.853 26.8998 61.853 26.945C61.853 26.9944 61.8357 27.0361 61.8022 27.0694C61.7682 27.1033 61.7263 27.1199 61.6767 27.1199C61.6271 27.1199 61.5853 27.1033 61.5518 27.0694ZM61.5554 27.5072H61.7957V29.2781H61.5554V27.5072Z" fill="white"/>
<path d="M63.4015 29.17C63.3566 29.2105 63.3005 29.2414 63.2341 29.2628C63.1678 29.2836 63.0984 29.2949 63.0261 29.2949C62.8587 29.2949 62.7302 29.2497 62.6406 29.1599C62.5503 29.0701 62.5055 28.9434 62.5055 28.7798V27.709H62.1875V27.5074H62.5055V27.1201H62.7458V27.5074H63.2861V27.709H62.7458V28.7661C62.7458 28.872 62.7721 28.9517 62.8247 29.0064C62.8779 29.0617 62.9538 29.0891 63.053 29.0891C63.1026 29.0891 63.1504 29.0814 63.1971 29.0659C63.2431 29.0498 63.2831 29.0278 63.3166 28.9981L63.4015 29.17Z" fill="white"/>
<path d="M64.0376 29.1788C63.8996 29.1015 63.792 28.9944 63.7125 28.8576C63.6342 28.7207 63.5947 28.5661 63.5947 28.393C63.5947 28.2199 63.6342 28.0652 63.7125 27.9284C63.792 27.7916 63.8996 27.6851 64.0376 27.6084C64.1751 27.5328 64.3299 27.4941 64.5009 27.4941C64.6724 27.4941 64.8266 27.5328 64.9641 27.6084C65.1016 27.6851 65.2098 27.7916 65.2875 27.9284C65.3652 28.0652 65.404 28.2199 65.404 28.393C65.404 28.5661 65.3652 28.7207 65.2875 28.8576C65.2098 28.9944 65.1016 29.1015 64.9641 29.1788C64.8266 29.2561 64.6724 29.2954 64.5009 29.2954C64.3299 29.2954 64.1751 29.2561 64.0376 29.1788ZM64.8404 28.9974C64.9408 28.9397 65.0197 28.8588 65.0759 28.7529C65.1327 28.6476 65.1602 28.5274 65.1602 28.393C65.1602 28.2579 65.1327 28.1384 65.0759 28.0331C65.0197 27.9272 64.9408 27.8457 64.8404 27.7886C64.7406 27.7315 64.627 27.7029 64.5009 27.7029C64.3748 27.7029 64.2612 27.7315 64.1608 27.7886C64.0604 27.8457 63.9815 27.9272 63.9241 28.0331C63.8667 28.1384 63.838 28.2579 63.838 28.393C63.838 28.5274 63.8667 28.6476 63.9241 28.7529C63.9815 28.8588 64.0604 28.9397 64.1608 28.9974C64.2612 29.0545 64.3748 29.083 64.5009 29.083C64.627 29.083 64.7406 29.0545 64.8404 28.9974Z" fill="white"/>
<path d="M66.3769 27.5852C66.4881 27.5245 66.6267 27.4941 66.7911 27.4941V27.7267L66.7337 27.7232C66.5466 27.7232 66.3996 27.7803 66.2938 27.8951C66.188 28.0093 66.1348 28.1693 66.1348 28.3763V29.2781H65.8945V27.5078H66.1247V27.854C66.1814 27.7357 66.2651 27.6458 66.3769 27.5852Z" fill="white"/>
<path d="M68.7957 27.5078L67.9063 29.4905C67.8346 29.6564 67.7509 29.7742 67.6565 29.8438C67.5614 29.9134 67.4479 29.9479 67.3146 29.9479C67.2291 29.9479 67.1484 29.9348 67.0743 29.9075C67.0002 29.8807 66.9356 29.8403 66.8818 29.7867L66.993 29.6083C67.0833 29.6981 67.1915 29.7427 67.3182 29.7427C67.3995 29.7427 67.4682 29.7201 67.5256 29.6755C67.5836 29.6303 67.6374 29.5541 67.6864 29.4465L67.7647 29.2745L66.9697 27.5078H67.2195L67.8896 29.0122L68.559 27.5078H68.7957Z" fill="white"/>
</g>
<defs>
<clipPath id="clip0_640_667">
<rect width="71" height="30" fill="white"/>
</clipPath>
</defs>
</svg>
