<svg width="126" height="60" viewBox="0 0 126 60" fill="none" xmlns="http://www.w3.org/2000/svg">
<g clip-path="url(#clip0_692_3390)">
<mask id="mask0_692_3390" style="mask-type:luminance" maskUnits="userSpaceOnUse" x="-11" y="-10" width="146" height="80">
<path d="M134.005 -9.13086H-10.501V69.13H134.005V-9.13086Z" fill="white"/>
</mask>
<g mask="url(#mask0_692_3390)">
<path d="M113.153 34.2631C113.358 33.2645 113.461 32.2541 113.506 31.2324H107.326C107.497 32.1406 107.589 33.0825 107.589 34.0134C107.589 36.4313 106.996 38.7126 105.958 40.7329C107.213 41.6184 108.045 43.0713 108.045 44.7172C108.045 47.4187 105.844 49.6093 103.131 49.6093C101.478 49.6093 100.018 48.7809 99.1175 47.5322C97.0878 48.5535 94.7961 49.1553 92.3675 49.1553C91.4213 49.1553 90.4865 49.0646 89.5742 48.8943V58.9622C90.498 59.0643 91.4327 59.1211 92.3675 59.1211C99.3227 59.1211 105.616 56.2833 110.154 51.7203C114.692 47.2485 117.519 41.0737 117.588 34.2517H113.153V34.2631Z" fill="white"/>
<path d="M105.971 40.7441C105.173 40.1767 104.204 39.8477 103.143 39.8477C100.43 39.8477 98.2295 42.0382 98.2295 44.7397C98.2295 45.7955 98.5717 46.7601 99.13 47.5548C100.601 46.8168 101.946 45.8522 103.086 44.6944C104.261 43.5478 105.23 42.2084 105.971 40.7441Z" fill="white"/>
<path d="M114.635 9.32703C109.254 3.84466 101.763 0.439453 93.4738 0.439453C92.1626 0.439453 90.8743 0.541622 89.5859 0.711879V7.40878C91.6039 6.88666 93.7132 6.60289 95.8911 6.60289V10.5756C98.7528 10.9275 101.421 11.8923 103.77 13.3338C103.895 13.1749 104.009 13.016 104.157 12.8685C106.073 10.9615 109.185 10.9615 111.1 12.8685C113.016 14.7754 113.016 17.8741 111.1 19.781C110.952 19.9286 110.782 20.0421 110.622 20.1783C112.48 23.1522 113.575 26.6482 113.575 30.4053C113.575 30.689 113.541 30.9613 113.529 31.245H117.463C117.565 32.1646 117.622 33.0955 117.622 34.026C117.622 34.1055 117.622 34.1849 117.611 34.2644H123.312C123.483 32.9817 123.585 31.6993 123.585 30.394C123.563 22.1533 120.142 14.6845 114.635 9.32703Z" fill="white"/>
<path d="M103.757 13.3242C102.252 15.2425 102.366 18.012 104.144 19.7714C105.911 21.5307 108.682 21.6442 110.609 20.1686C109.743 18.7839 108.728 17.5012 107.565 16.3775C106.424 15.2084 105.148 14.1868 103.757 13.3242Z" fill="white"/>
<path d="M95.8911 10.5637C95.0929 10.4615 94.2948 10.4048 93.4738 10.4048C92.1626 10.4048 90.8629 10.5523 89.5859 10.802V7.4082C85.2878 8.53191 81.4337 10.7907 78.3897 13.8213C73.9088 18.2821 71.127 24.4456 71.127 31.2445H81.1373C81.1373 28.9517 81.6846 26.7838 82.6311 24.8542C81.3771 23.9688 80.5561 22.5159 80.5561 20.8701C80.5561 18.1686 82.7564 15.9779 85.4701 15.9779C87.1234 15.9779 88.5713 16.7952 89.4718 18.0438C91.4102 17.1017 93.5766 16.5568 95.8911 16.5568V10.5637Z" fill="white"/>
<path d="M82.6201 24.8436C83.4182 25.4111 84.3987 25.7516 85.4591 25.7516C88.1728 25.7516 90.3731 23.561 90.3731 20.8595C90.3731 19.8039 90.0309 18.8277 89.4611 18.0332C87.9672 18.7483 86.6108 19.7017 85.4591 20.8595C84.2959 22.0173 83.3497 23.368 82.6201 24.8436Z" fill="white"/>
<path d="M3.74375 44.6841L2.01074 37.8965H3.60697L4.72431 43.1063L5.77326 37.8965H7.65448L8.68063 43.1063L9.72958 37.8965H11.2346L9.61555 44.6954H7.76851L6.69676 39.3948L5.63643 44.6954H3.74375V44.6841Z" fill="white"/>
<path d="M15.6945 37.8047C16.219 37.8047 16.6865 37.8841 17.0969 38.0543C17.5188 38.2246 17.8722 38.4515 18.1573 38.7579C18.4423 39.0643 18.6703 39.4278 18.8186 39.8477C18.9668 40.2676 19.0466 40.7328 19.0466 41.2439C19.0466 41.7432 18.9668 42.2084 18.8186 42.64C18.6703 43.0713 18.4423 43.4344 18.1573 43.7521C17.8722 44.0703 17.5074 44.3086 17.0969 44.4901C16.6751 44.6603 16.1962 44.7511 15.6603 44.7398C15.1245 44.7398 14.657 44.649 14.2351 44.4788C13.8133 44.3086 13.4712 44.0589 13.1862 43.7521C12.9012 43.4457 12.6845 43.0826 12.5249 42.6627C12.3653 42.2425 12.2969 41.7772 12.2969 41.2779C12.2969 40.7669 12.3767 40.3016 12.5363 39.8704C12.6959 39.4392 12.9126 39.0756 13.209 38.7693C13.5055 38.4629 13.8589 38.2246 14.2694 38.0543C14.7026 37.8955 15.1701 37.8047 15.6945 37.8047ZM13.7449 41.2666C13.7449 41.5616 13.7905 41.8453 13.8703 42.1063C13.9501 42.3673 14.0641 42.606 14.2237 42.8103C14.3834 43.0145 14.5772 43.1847 14.828 43.3096C15.0675 43.4344 15.3525 43.5025 15.6831 43.5025C16.0024 43.5138 16.276 43.4571 16.5269 43.3323C16.7777 43.2074 16.9715 43.0486 17.1311 42.8443C17.2908 42.64 17.4162 42.4013 17.496 42.129C17.5758 41.8566 17.6214 41.573 17.6214 41.2779C17.6214 40.9942 17.5758 40.7101 17.496 40.4378C17.4162 40.1654 17.3021 39.9271 17.1425 39.7229C16.9829 39.5186 16.7891 39.3484 16.5383 39.2232C16.2988 39.0983 16.0024 39.0416 15.6831 39.0416C15.3639 39.0416 15.0789 39.0983 14.8394 39.2232C14.6 39.3484 14.3948 39.5073 14.2351 39.7115C14.0755 39.9158 13.9501 40.1541 13.8703 40.4151C13.7791 40.6874 13.7449 40.9715 13.7449 41.2666Z" fill="white"/>
<path d="M23.6531 37.8965C23.8355 37.8965 24.0179 37.8965 24.189 37.9078C24.3714 37.9192 24.5424 37.9419 24.7134 37.9759C24.8844 38.01 25.0554 38.0667 25.2151 38.1461C25.3747 38.2142 25.5343 38.3164 25.6711 38.4525C25.8992 38.6568 26.0588 38.9064 26.15 39.1901C26.2412 39.4742 26.2868 39.7693 26.2868 40.053C26.2754 40.4501 26.207 40.7906 26.0816 41.0633C25.9448 41.3357 25.7738 41.574 25.5457 41.7669C25.3405 41.9371 25.1011 42.0506 24.8274 42.1187L26.3438 44.6954H24.7818L23.4022 42.2548H22.3077V44.6954H20.9053V37.8965H23.6531ZM23.6531 41.086C23.8241 41.086 23.9951 41.0747 24.1433 41.0406C24.3029 41.0066 24.4284 40.9612 24.5424 40.8814C24.6564 40.8019 24.7476 40.7111 24.816 40.5863C24.8844 40.4615 24.9186 40.3026 24.93 40.1097C24.9414 39.9054 24.9072 39.7352 24.8388 39.6104C24.7704 39.4856 24.6792 39.3834 24.5652 39.315C24.4512 39.2469 24.3257 39.2015 24.1775 39.1788C24.0293 39.1561 23.8583 39.1447 23.6759 39.1447H22.3191V41.0974H23.6531V41.086Z" fill="white"/>
<path d="M29.6244 43.4581H32.965V44.6841H28.2334V37.8965H29.6244V43.4581Z" fill="white"/>
<path d="M34.6309 44.6841V37.8965H37.1505C37.4812 37.8965 37.8005 37.9192 38.1195 37.9759C38.4388 38.0327 38.7353 38.1348 39.0204 38.2823C39.5334 38.5433 39.9213 38.9291 40.1835 39.4402C40.4458 39.9508 40.571 40.575 40.571 41.2903C40.571 42.3797 40.2859 43.2198 39.7157 43.7985C39.146 44.3777 38.3136 44.6727 37.219 44.6727H34.6309V44.6841ZM37.2304 43.4581C37.3217 43.4581 37.4127 43.4467 37.5155 43.4354C37.6178 43.4241 37.7206 43.4014 37.8234 43.3787C37.9258 43.356 38.0171 43.3333 38.1085 43.2992C38.1994 43.2652 38.2793 43.2311 38.3364 43.1971C38.5987 43.0155 38.7924 42.7659 38.929 42.4364C39.0661 42.1073 39.1232 41.7328 39.1232 41.3016C39.1232 40.9612 39.0889 40.6544 39.009 40.382C38.929 40.1097 38.8152 39.8714 38.6554 39.6785C38.4731 39.4629 38.2451 39.3263 37.9714 39.2469C37.6978 39.1674 37.4127 39.1334 37.1505 39.1334H36.033V43.4581H37.2304Z" fill="white"/>
<path d="M49.7949 37.8965H51.3797L48.8597 42.1527V44.6954H47.4576V42.1754L44.9033 37.8965H46.511L48.1644 40.836L49.7949 37.8965Z" fill="white"/>
<path d="M55.5178 37.8047C56.0423 37.8047 56.5096 37.8841 56.9199 38.0543C57.342 38.2246 57.6952 38.4515 57.9803 38.7579C58.2654 39.0643 58.4934 39.4278 58.6418 39.8477C58.7899 40.2676 58.8698 40.7328 58.8698 41.2439C58.8698 41.7432 58.7899 42.2084 58.6418 42.64C58.4934 43.0713 58.2654 43.4344 57.9803 43.7521C57.6952 44.0703 57.3306 44.3086 56.9199 44.4901C56.4982 44.6603 56.0194 44.7511 55.4835 44.7398C54.9476 44.7398 54.4803 44.649 54.0582 44.4788C53.6364 44.3086 53.2943 44.0589 53.0092 43.7521C52.7241 43.4457 52.5076 43.0826 52.3481 42.6627C52.1886 42.2425 52.1201 41.7772 52.1201 41.2779C52.1201 40.7669 52.2 40.3016 52.3595 39.8704C52.519 39.4392 52.7355 39.0756 53.032 38.7693C53.3285 38.4629 53.6821 38.2246 54.0924 38.0543C54.5259 37.8955 54.9933 37.8047 55.5178 37.8047ZM53.5679 41.2666C53.5679 41.5616 53.6136 41.8453 53.6935 42.1063C53.7731 42.3673 53.8873 42.606 54.0467 42.8103C54.2066 43.0145 54.4003 43.1847 54.6511 43.3096C54.8905 43.4344 55.1756 43.5025 55.5064 43.5025C55.8257 43.5138 56.0994 43.4571 56.3502 43.3323C56.601 43.2074 56.7947 43.0486 56.9542 42.8443C57.114 42.64 57.2393 42.4013 57.3192 42.129C57.3991 41.8566 57.4444 41.573 57.4444 41.2779C57.4444 40.9942 57.3991 40.7101 57.3192 40.4378C57.2393 40.1654 57.1255 39.9271 56.9656 39.7229C56.8061 39.5186 56.6124 39.3484 56.3616 39.2232C56.1218 39.0983 55.8257 39.0416 55.5064 39.0416C55.187 39.0416 54.902 39.0983 54.6626 39.2232C54.4232 39.3484 54.218 39.5073 54.0582 39.7115C53.8987 39.9158 53.7731 40.1541 53.6935 40.4151C53.6022 40.6874 53.5679 40.9715 53.5679 41.2666Z" fill="white"/>
<path d="M63.625 44.7635C63.0891 44.7635 62.6328 44.684 62.2567 44.5365C61.8803 44.389 61.5724 44.162 61.3444 43.8893C61.105 43.6056 60.9455 43.2652 60.8313 42.8794C60.729 42.4822 60.6719 42.0392 60.6719 41.5513V37.8965H62.074V41.642C62.074 41.8917 62.0969 42.13 62.154 42.357C62.211 42.5843 62.291 42.7886 62.4162 42.9588C62.5418 43.129 62.7013 43.2652 62.895 43.3787C63.0891 43.4808 63.3399 43.5375 63.6474 43.5375C63.9439 43.5375 64.1948 43.4808 64.3889 43.3787C64.5826 43.2765 64.7421 43.129 64.8677 42.9588C64.9815 42.7772 65.0728 42.5843 65.1185 42.357C65.1642 42.13 65.187 41.8917 65.187 41.6534V37.9078H66.5777V41.5513C66.5777 42.0279 66.5206 42.4704 66.4183 42.868C66.3155 43.2652 66.1446 43.6056 65.9052 43.8893C65.6658 44.1734 65.3693 44.389 64.9929 44.5365C64.6054 44.684 64.1605 44.7635 63.625 44.7635Z" fill="white"/>
<path d="M68.1045 39.1334V37.8965H73.7828V39.1334H71.6392V44.6954H70.2367V39.1334H68.1045Z" fill="white"/>
<path d="M76.7257 40.7111H79.7473V37.8965H81.1495V44.6954H79.7473V41.9598H76.7257V44.6954H75.335V37.8965H76.7371V40.7111H76.7257Z" fill="white"/>
<path d="M7.46051 48.9062V50.1432H4.09706V51.9029H6.92465V53.1171H4.09706V55.6938H2.70605V48.9062H7.46051Z" fill="white"/>
<path d="M14.0185 48.9082V50.1451H10.5411V51.7342H13.5739V52.9715H10.5411V54.4698H14.0185V55.6958H9.13867V48.9082H14.0185Z" fill="white"/>
<path d="M19.4319 50.8583C19.3977 50.5746 19.2608 50.359 19.0442 50.2338C18.8276 50.1089 18.5539 50.0409 18.2233 50.0295C18.1093 50.0295 17.9839 50.0409 17.8584 50.0636C17.733 50.0862 17.619 50.1203 17.505 50.177C17.391 50.2338 17.3112 50.3132 17.2314 50.4044C17.163 50.4952 17.1287 50.62 17.1287 50.7562C17.1173 50.9037 17.163 51.0285 17.2428 51.1306C17.3226 51.2328 17.4366 51.3122 17.562 51.3803C17.6532 51.4257 17.7672 51.4597 17.8699 51.5051C17.9725 51.5505 18.0979 51.5732 18.2005 51.5959C18.3145 51.6299 18.4171 51.6526 18.5197 51.664C18.6224 51.6867 18.7136 51.698 18.7934 51.7207C19.067 51.7775 19.3406 51.8456 19.5915 51.9254C19.8537 52.0048 20.0818 52.1069 20.2756 52.2431C20.4694 52.3793 20.6404 52.5609 20.7544 52.7765C20.8684 52.9921 20.9369 53.2871 20.9482 53.6506C20.9482 54.0365 20.8798 54.3769 20.7316 54.6493C20.5834 54.9216 20.3896 55.1489 20.1387 55.3078C19.8993 55.478 19.6257 55.5915 19.3064 55.6709C18.9872 55.739 18.6452 55.7731 18.2689 55.7617C17.904 55.7504 17.562 55.705 17.2428 55.6142C16.9235 55.5234 16.6385 55.3872 16.3876 55.2057C16.1368 55.0237 15.943 54.8081 15.7948 54.5358C15.6466 54.2634 15.5667 53.9457 15.5439 53.5826H16.9691C17.0033 53.7528 17.0717 53.8889 17.163 53.9911C17.2542 54.0932 17.3568 54.184 17.4822 54.2634C17.6076 54.3315 17.7444 54.3882 17.8927 54.4109C18.0409 54.445 18.2005 54.4563 18.3487 54.4677C18.5083 54.479 18.668 54.4677 18.8162 54.445C18.9644 54.4223 19.0898 54.3883 19.2038 54.3315C19.3178 54.2748 19.409 54.2067 19.466 54.1046C19.5345 54.0138 19.5573 53.8889 19.5573 53.7414C19.5573 53.5372 19.4888 53.3892 19.3634 53.2871C19.238 53.185 19.1012 53.1282 18.953 53.0829C18.8504 53.0602 18.7591 53.0375 18.6793 53.0148C18.5996 52.9921 18.5197 52.9694 18.4399 52.958C18.3601 52.9467 18.2803 52.924 18.2005 52.9013C18.1207 52.8786 18.0181 52.8559 17.9155 52.8332C17.676 52.7651 17.4138 52.697 17.163 52.6176C16.9007 52.5382 16.6727 52.4247 16.4674 52.2772C16.2166 52.1069 16.0342 51.8796 15.9088 51.6186C15.7833 51.3463 15.7264 51.0512 15.7377 50.7221C15.7605 50.3359 15.8518 50.0182 16.0114 49.7685C16.171 49.5189 16.3763 49.3146 16.6271 49.1671C16.8779 49.0196 17.1515 48.9174 17.4594 48.8607C17.7558 48.8039 18.0637 48.7812 18.3601 48.7812C18.6908 48.7812 18.9986 48.838 19.295 48.9174C19.5915 48.9969 19.8309 49.133 20.0475 49.2919C20.2642 49.4621 20.4352 49.6664 20.572 49.9274C20.7088 50.1884 20.7887 50.4838 20.8228 50.8242H19.4319V50.8583Z" fill="white"/>
<path d="M22.2373 50.1432V48.9062H27.9153V50.1432H25.7718V55.7052H24.3694V50.1432H22.2373Z" fill="white"/>
<path d="M30.8562 55.6958H29.4541V48.9082H30.8562V55.6958Z" fill="white"/>
<path d="M37.5727 48.9062H39.078L36.4899 55.7052H34.9846L32.3965 48.9062H33.9471L35.7713 54.0366L37.5727 48.9062Z" fill="white"/>
<path d="M41.4027 54.3994L40.9125 55.6934H39.3848L42.0296 48.8945H43.6144L46.214 55.6934H44.6862L44.2188 54.3994H41.4027ZM41.8016 53.1734H43.7857L42.8049 50.3701L41.8016 53.1734Z" fill="white"/>
<path d="M49.1222 54.4679H52.4627V55.6938H47.7314V48.9062H49.1222V54.4679Z" fill="white"/>
<path d="M59.064 52.9921C59.2234 52.8673 59.3719 52.7311 59.5313 52.5836C59.6912 52.436 59.8392 52.2885 59.9877 52.1183C60.1357 51.9708 60.261 51.8115 60.3637 51.6413C60.4665 51.4711 60.5232 51.2782 60.5346 51.0626C60.546 50.7221 60.4551 50.4725 60.261 50.3023C60.0672 50.1316 59.805 50.0522 59.4857 50.0636C59.201 50.0749 58.9612 50.1316 58.7903 50.2682C58.608 50.393 58.5052 50.5859 58.4824 50.8243H57.1826C57.194 50.4498 57.2854 50.1203 57.4563 49.8366C57.6276 49.5529 57.8555 49.3373 58.1406 49.1671C58.3458 49.0423 58.5737 48.9628 58.8131 48.9061C59.0525 48.8493 59.3148 48.8266 59.5884 48.8266C60.318 48.8153 60.8882 49.0082 61.2985 49.4054C61.4812 49.5756 61.6178 49.7799 61.732 50.0182C61.8458 50.2682 61.8915 50.5519 61.8915 50.8923C61.8915 51.1306 61.8686 51.369 61.8119 51.5846C61.7548 51.8002 61.6749 52.0048 61.5497 52.1864C61.4698 52.3112 61.3898 52.436 61.2985 52.5382C61.2075 52.6403 61.1276 52.7424 61.0362 52.8332C60.9453 52.924 60.8539 53.0148 60.7516 53.1056C60.6488 53.1963 60.5346 53.2985 60.4208 53.401C60.1814 53.6053 59.9534 53.7982 59.7365 53.9684C59.5199 54.1386 59.3148 54.3088 59.121 54.479H61.7891V55.705H57.2055V54.5698L59.064 52.9921Z" fill="white"/>
<path d="M66.1899 48.8164C66.5774 48.8164 66.9424 48.8845 67.2731 49.0207C67.6035 49.1568 67.8886 49.3611 68.1165 49.6448C68.3559 49.9285 68.5386 50.2916 68.6638 50.7232C68.8009 51.1544 68.8576 51.6764 68.8576 52.2783C68.8576 52.8911 68.7895 53.4131 68.6638 53.8447C68.5386 54.2759 68.3559 54.639 68.1279 54.9227C67.9 55.2068 67.6149 55.4111 67.2841 55.5472C66.9538 55.6834 66.5888 55.7515 66.1785 55.7515C65.7678 55.7515 65.4032 55.6834 65.0724 55.5472C64.7417 55.4111 64.4566 55.2068 64.2286 54.9227C63.9892 54.639 63.8184 54.2872 63.6928 53.8447C63.5675 53.4131 63.499 52.8911 63.499 52.2783C63.499 51.6764 63.5675 51.1544 63.6928 50.7232C63.8184 50.2916 64.0007 49.9285 64.2401 49.6448C64.4795 49.3611 64.7645 49.1568 65.0839 49.0207C65.426 48.8845 65.7906 48.8164 66.1899 48.8164ZM66.1899 54.5142C66.6002 54.5142 66.9195 54.344 67.1589 53.9922C67.3869 53.6517 67.5011 53.0726 67.5011 52.2783C67.5011 51.4835 67.3869 50.9161 67.1589 50.5644C66.9309 50.2122 66.6116 50.042 66.1899 50.042C65.7678 50.042 65.4489 50.2122 65.2205 50.5644C64.9925 50.9161 64.8787 51.4835 64.8787 52.2783C64.8787 53.0726 64.9925 53.6517 65.2205 53.9922C65.4489 54.344 65.7678 54.5142 66.1899 54.5142Z" fill="white"/>
<path d="M72.1421 52.9921C72.3015 52.8673 72.45 52.7311 72.6095 52.5836C72.7693 52.436 72.9174 52.2885 73.0654 52.1183C73.2139 51.9708 73.3391 51.8115 73.4418 51.6413C73.5446 51.4711 73.6013 51.2782 73.6127 51.0626C73.6242 50.7221 73.5332 50.4725 73.3391 50.3023C73.1454 50.1316 72.8831 50.0522 72.5638 50.0636C72.2787 50.0749 72.0393 50.1316 71.8684 50.2682C71.6861 50.393 71.5833 50.5859 71.5605 50.8243H70.2607C70.2722 50.4498 70.3635 50.1203 70.5344 49.8366C70.7053 49.5529 70.9337 49.3373 71.2183 49.1671C71.4239 49.0423 71.6519 48.9628 71.8913 48.9061C72.1307 48.8493 72.3929 48.8266 72.6666 48.8266C73.3962 48.8153 73.9663 49.0082 74.3766 49.4054C74.5593 49.5756 74.6959 49.7799 74.8101 50.0182C74.9239 50.2682 74.9696 50.5519 74.9696 50.8923C74.9696 51.1306 74.9468 51.369 74.8897 51.5846C74.833 51.8002 74.753 52.0048 74.6274 52.1864C74.5479 52.3112 74.468 52.436 74.3766 52.5382C74.2857 52.6403 74.2057 52.7424 74.1144 52.8332C74.0234 52.924 73.9321 53.0148 73.8293 53.1056C73.7269 53.1963 73.6127 53.2985 73.4989 53.401C73.2595 53.6053 73.0316 53.7982 72.8146 53.9684C72.598 54.1386 72.3929 54.3088 72.1992 54.479H74.8668V55.705H70.2836V54.5698L72.1421 52.9921Z" fill="white"/>
<path d="M81.1249 53.2325H81.9002V54.4358H81.1249V55.7071H79.7566V54.4358H76.416V53.4712L79.4601 48.9082H81.1135V53.2325H81.1249ZM78.0123 53.2325H79.7566V50.5086L78.0123 53.2325Z" fill="white"/>
</g>
</g>
<defs>
<clipPath id="clip0_692_3390">
<rect width="126" height="60" fill="white"/>
</clipPath>
</defs>
</svg>
