<svg width="168" height="60" viewBox="0 0 168 60" fill="none" xmlns="http://www.w3.org/2000/svg">
<g clip-path="url(#clip0_460_2853)">
<path d="M43.6385 12.2467L35.1973 20.6867C35.0034 20.8807 34.9399 21.1723 35.0457 21.425C35.6171 22.7841 35.9239 24.2807 35.8992 25.8537C35.8075 31.598 31.206 36.3664 25.4676 36.6486C18.9686 36.9683 13.6312 31.6379 13.938 25.1413C14.2084 19.4311 18.9251 14.8308 24.64 14.6909C26.1965 14.6533 27.679 14.9413 29.031 15.4892C29.2815 15.5903 29.5695 15.5244 29.7611 15.334L38.2211 6.87396C38.8419 6.25204 38.729 5.21041 37.9836 4.74368C34.0464 2.27951 29.3649 0.894586 24.3519 1.00627C11.3139 1.29548 0.663689 11.8364 0.251034 24.872C-0.201593 39.1351 11.4538 50.7905 25.7169 50.3379C38.7796 49.9229 49.3311 39.2303 49.5838 26.1629C49.6814 21.1241 48.2659 16.4214 45.7641 12.4771C45.295 11.7376 44.2581 11.6271 43.6385 12.2467Z" fill="white"/>
<path d="M64.108 35.4335C62.6655 35.0149 61.5063 34.4706 60.6328 33.8005L62.167 30.3946C63.0053 31.0083 63.9999 31.5021 65.1544 31.8736C66.3077 32.2463 67.4622 32.432 68.6155 32.432C69.9005 32.432 70.8492 32.2416 71.4629 31.8595C72.0778 31.4786 72.3846 30.9707 72.3846 30.3382C72.3846 29.8738 72.2024 29.487 71.8403 29.1801C71.477 28.8733 71.0115 28.6264 70.4448 28.4407C69.877 28.2549 69.1093 28.0492 68.1417 27.8258C66.6522 27.4731 65.4342 27.1192 64.4843 26.7654C63.5355 26.4127 62.7208 25.8436 62.0424 25.063C61.3629 24.2812 61.0231 23.2396 61.0231 21.9358C61.0231 20.8013 61.33 19.7726 61.9437 18.852C62.5585 17.9303 63.4838 17.2002 64.7217 16.6606C65.9585 16.121 67.4716 15.8506 69.2586 15.8506C70.5048 15.8506 71.7239 15.9999 72.9149 16.2973C74.1058 16.5948 75.1474 17.0227 76.0409 17.5811L74.6454 21.0152C72.8396 19.9912 71.035 19.4798 69.2304 19.4798C67.9642 19.4798 67.0295 19.6844 66.4253 20.0947C65.8198 20.5026 65.5177 21.0434 65.5177 21.7136C65.5177 22.3825 65.8668 22.881 66.564 23.2067C67.2623 23.5323 68.3275 23.8533 69.7606 24.1695C71.249 24.5234 72.4681 24.8773 73.4169 25.23C74.3668 25.5838 75.1804 26.1423 75.8599 26.9053C76.5394 27.6683 76.8792 28.7017 76.8792 30.0043C76.8792 31.12 76.5664 32.1393 75.9434 33.0598C75.3203 33.9815 74.3844 34.7116 73.1382 35.2512C71.8909 35.7908 70.3743 36.0613 68.5885 36.0613C67.0437 36.0613 65.5494 35.852 64.108 35.4335Z" fill="white"/>
<path d="M79.6708 20.7085H84.0255V35.7263H79.6708V20.7085ZM79.8942 17.9163C79.391 17.4519 79.1406 16.8747 79.1406 16.1857C79.1406 15.4968 79.391 14.9207 79.8942 14.4552C80.3962 13.9896 81.0475 13.7568 81.8482 13.7568C82.6476 13.7568 83.3001 13.9814 83.8021 14.427C84.3041 14.8737 84.5557 15.4321 84.5557 16.1023C84.5557 16.8276 84.3041 17.4284 83.8021 17.9022C83.3001 18.3772 82.6476 18.6146 81.8482 18.6146C81.0475 18.6146 80.3962 18.3819 79.8942 17.9163Z" fill="white"/>
<path d="M94.3385 21.0426C95.2226 20.6711 96.2419 20.4854 97.3952 20.4854V24.5049C96.912 24.4673 96.5864 24.4485 96.4182 24.4485C95.172 24.4485 94.1951 24.7976 93.4873 25.496C92.7796 26.1943 92.4269 27.2407 92.4269 28.6362V35.7265H88.0723V20.7087H92.2317V22.6909C92.7525 21.9643 93.4544 21.4165 94.3385 21.0426Z" fill="white"/>
<path d="M100.104 20.7085H104.459V35.7263H100.104V20.7085ZM100.328 17.9163C99.8246 17.4519 99.5742 16.8747 99.5742 16.1857C99.5742 15.4968 99.8246 14.9207 100.328 14.4552C100.83 13.9896 101.481 13.7568 102.282 13.7568C103.081 13.7568 103.733 13.9814 104.236 14.427C104.738 14.8737 104.989 15.4321 104.989 16.1023C104.989 16.8276 104.738 17.4284 104.236 17.9022C103.733 18.3772 103.081 18.6146 102.282 18.6146C101.481 18.6146 100.83 18.3819 100.328 17.9163Z" fill="white"/>
<path d="M123.636 20.709V35.7268H119.505V33.941C118.928 34.5923 118.239 35.0896 117.439 35.434C116.639 35.7773 115.773 35.9502 114.842 35.9502C112.871 35.9502 111.307 35.3823 110.152 34.2466C108.999 33.1121 108.422 31.4274 108.422 29.1949V20.709H112.776V28.5529C112.776 30.9724 113.791 32.1822 115.819 32.1822C116.862 32.1822 117.699 31.8424 118.331 31.1629C118.964 30.4834 119.281 29.4735 119.281 28.1344V20.709H123.636Z" fill="white"/>
<path d="M129.078 35.489C127.886 35.1822 126.937 34.7954 126.23 34.331L127.682 31.205C128.351 31.6329 129.161 31.9821 130.11 32.2513C131.06 32.5205 131.99 32.6557 132.902 32.6557C134.745 32.6557 135.665 32.2007 135.665 31.2884C135.665 30.8605 135.415 30.5537 134.911 30.3667C134.409 30.181 133.637 30.0223 132.594 29.8918C131.367 29.7072 130.352 29.492 129.552 29.2499C128.752 29.0088 128.059 28.5797 127.472 27.966C126.886 27.3523 126.594 26.4777 126.594 25.342C126.594 24.3932 126.868 23.5515 127.417 22.8167C127.966 22.0807 128.765 21.5082 129.817 21.099C130.868 20.6899 132.111 20.4854 133.544 20.4854C134.605 20.4854 135.66 20.6017 136.713 20.8333C137.764 21.0661 138.634 21.3883 139.323 21.7974L137.871 24.8952C136.549 24.151 135.108 23.7784 133.544 23.7784C132.613 23.7784 131.915 23.91 131.45 24.1699C130.985 24.4297 130.752 24.7659 130.752 25.175C130.752 25.6406 131.004 25.9662 131.507 26.152C132.009 26.3378 132.808 26.5141 133.906 26.6822C135.135 26.8868 136.14 27.1055 136.922 27.3382C137.704 27.571 138.382 27.9943 138.959 28.6079C139.537 29.2228 139.825 30.0787 139.825 31.1767C139.825 32.1067 139.546 32.9355 138.987 33.6609C138.429 34.3863 137.614 34.9494 136.544 35.3491C135.475 35.75 134.205 35.9499 132.734 35.9499C131.487 35.9499 130.268 35.7959 129.078 35.489Z" fill="white"/>
<path d="M105.124 59.5648H104.814V44.0273H105.124V59.5648Z" fill="white"/>
<path d="M110.171 45.3174C110.067 45.428 110.015 45.5914 110.015 45.81V46.2227H111.092V46.6212H110.028V49.7214H109.556V46.6212H108.93V46.2227H109.556V45.7901C109.556 45.4703 109.648 45.2175 109.831 45.0318C110.016 44.8448 110.276 44.752 110.613 44.752C110.746 44.752 110.874 44.7708 110.999 44.8084C111.123 44.846 111.227 44.9001 111.312 44.9706L111.152 45.3245C111.014 45.2081 110.841 45.1505 110.633 45.1505C110.429 45.1505 110.275 45.2058 110.171 45.3174Z" fill="white"/>
<path d="M114.715 48.1185H111.789C111.815 48.4829 111.955 48.7757 112.208 49.0002C112.46 49.2248 112.779 49.3365 113.166 49.3365C113.383 49.3365 113.582 49.2965 113.764 49.2189C113.946 49.1425 114.104 49.0273 114.237 48.8768L114.502 49.1836C114.347 49.3694 114.153 49.5105 113.92 49.6092C113.688 49.7068 113.431 49.755 113.153 49.755C112.793 49.755 112.476 49.6786 112.197 49.5257C111.921 49.3717 111.704 49.1613 111.549 48.8909C111.394 48.6193 111.316 48.3136 111.316 47.9727C111.316 47.6306 111.39 47.3249 111.539 47.0545C111.687 46.7841 111.891 46.5725 112.151 46.422C112.411 46.2715 112.703 46.1963 113.026 46.1963C113.35 46.1963 113.639 46.2715 113.897 46.422C114.154 46.5725 114.357 46.7818 114.502 47.051C114.649 47.319 114.722 47.6259 114.722 47.9727L114.715 48.1185ZM112.177 46.924C111.949 47.1392 111.82 47.4201 111.789 47.7658H114.27C114.239 47.4201 114.109 47.1392 113.881 46.924C113.652 46.71 113.367 46.6019 113.026 46.6019C112.688 46.6019 112.406 46.71 112.177 46.924Z" fill="white"/>
<path d="M118.883 44.7852V49.7217H118.43V49.0293C118.288 49.2644 118.101 49.4443 117.868 49.5689C117.636 49.6923 117.372 49.7546 117.079 49.7546C116.751 49.7546 116.454 49.6794 116.188 49.5289C115.921 49.3784 115.713 49.1668 115.563 48.8964C115.412 48.626 115.336 48.318 115.336 47.9724C115.336 47.6255 115.412 47.3175 115.563 47.0471C115.713 46.7767 115.921 46.5674 116.188 46.4181C116.454 46.27 116.751 46.1959 117.079 46.1959C117.363 46.1959 117.619 46.2547 117.847 46.3711C118.076 46.4899 118.263 46.6615 118.41 46.8872V44.7852H118.883ZM117.781 49.1656C117.979 49.0528 118.134 48.8917 118.247 48.6836C118.36 48.4755 118.416 48.2381 118.416 47.9724C118.416 47.7055 118.36 47.4692 118.247 47.2599C118.134 47.0518 117.979 46.8908 117.781 46.7779C117.584 46.665 117.363 46.6086 117.119 46.6086C116.87 46.6086 116.648 46.665 116.45 46.7779C116.253 46.8908 116.098 47.0518 115.985 47.2599C115.872 47.4692 115.816 47.7055 115.816 47.9724C115.816 48.2381 115.872 48.4755 115.985 48.6836C116.098 48.8917 116.253 49.0528 116.45 49.1656C116.648 49.2797 116.87 49.3361 117.119 49.3361C117.363 49.3361 117.584 49.2797 117.781 49.1656Z" fill="white"/>
<path d="M123.246 48.1185H120.318C120.344 48.4829 120.484 48.7757 120.737 49.0002C120.991 49.2248 121.309 49.3365 121.695 49.3365C121.913 49.3365 122.111 49.2965 122.295 49.2189C122.476 49.1425 122.633 49.0273 122.766 48.8768L123.032 49.1836C122.877 49.3694 122.683 49.5105 122.45 49.6092C122.217 49.7068 121.961 49.755 121.682 49.755C121.322 49.755 121.005 49.6786 120.727 49.5257C120.45 49.3717 120.234 49.1613 120.078 48.8909C119.923 48.6193 119.846 48.3136 119.846 47.9727C119.846 47.6306 119.92 47.3249 120.069 47.0545C120.217 46.7841 120.422 46.5725 120.68 46.422C120.94 46.2715 121.232 46.1963 121.555 46.1963C121.878 46.1963 122.17 46.2715 122.427 46.422C122.685 46.5725 122.886 46.7818 123.032 47.051C123.179 47.319 123.252 47.6259 123.252 47.9727L123.246 48.1185ZM120.707 46.924C120.478 47.1392 120.349 47.4201 120.318 47.7658H122.799C122.768 47.4201 122.638 47.1392 122.41 46.924C122.182 46.71 121.896 46.6019 121.555 46.6019C121.219 46.6019 120.936 46.71 120.707 46.924Z" fill="white"/>
<path d="M125.166 46.375C125.385 46.2551 125.657 46.1963 125.98 46.1963V46.6548L125.867 46.6489C125.499 46.6489 125.21 46.7618 125.002 46.9875C124.794 47.2144 124.689 47.5307 124.689 47.9386V49.7221H124.217V46.2222H124.669V46.9076C124.781 46.6736 124.946 46.4961 125.166 46.375Z" fill="white"/>
<path d="M129.101 46.5386C129.345 46.7667 129.466 47.1053 129.466 47.5532V49.7223H129.015V49.1756C128.908 49.359 128.752 49.5001 128.546 49.6024C128.339 49.7035 128.094 49.7552 127.811 49.7552C127.42 49.7552 127.109 49.6623 126.879 49.4754C126.648 49.2896 126.533 49.0427 126.533 48.7371C126.533 48.4408 126.64 48.201 126.855 48.0188C127.07 47.8377 127.414 47.746 127.883 47.746H128.995V47.5332C128.995 47.2322 128.91 47.0018 128.741 46.8443C128.573 46.6879 128.327 46.608 128.003 46.608C127.781 46.608 127.569 46.6444 127.364 46.7185C127.161 46.7914 126.985 46.8925 126.839 47.0206L126.626 46.6679C126.804 46.5174 127.016 46.4011 127.264 46.3188C127.513 46.2376 127.775 46.1953 128.05 46.1953C128.506 46.1953 128.856 46.3105 129.101 46.5386ZM128.568 49.1991C128.76 49.0768 128.901 48.9017 128.995 48.6712V48.0987H127.897C127.297 48.0987 126.999 48.3068 126.999 48.7241C126.999 48.9275 127.076 49.0886 127.232 49.2062C127.387 49.3237 127.604 49.3825 127.883 49.3825C128.15 49.3825 128.378 49.3214 128.568 49.1991Z" fill="white"/>
<path d="M130.75 49.7217H131.223V44.7852H130.75V49.7217Z" fill="white"/>
<path d="M111.319 58.4634C111.229 58.5434 111.119 58.6045 110.989 58.6468C110.858 58.688 110.721 58.7103 110.58 58.7103C110.251 58.7103 109.998 58.6209 109.822 58.4434C109.644 58.2659 109.555 58.0155 109.555 57.6922V55.576H108.93V55.1775H109.555V54.4121H110.028V55.1775H111.092V55.576H110.028V57.6651C110.028 57.8744 110.079 58.0319 110.184 58.1401C110.288 58.2494 110.438 58.3035 110.633 58.3035C110.731 58.3035 110.825 58.2882 110.915 58.2577C111.007 58.2259 111.085 58.1824 111.152 58.1236L111.319 58.4634Z" fill="white"/>
<path d="M115.097 57.0736H112.17C112.196 57.4368 112.337 57.7319 112.59 57.9553C112.842 58.1799 113.161 58.2915 113.547 58.2915C113.764 58.2915 113.964 58.2527 114.145 58.1751C114.327 58.0976 114.485 57.9835 114.618 57.8319L114.884 58.1387C114.729 58.3245 114.535 58.4667 114.301 58.5643C114.07 58.6619 113.812 58.7112 113.534 58.7112C113.175 58.7112 112.856 58.6337 112.579 58.4808C112.302 58.328 112.085 58.1164 111.93 57.846C111.775 57.5756 111.697 57.2699 111.697 56.9278C111.697 56.5868 111.773 56.28 111.921 56.0096C112.069 55.7392 112.273 55.5288 112.532 55.3783C112.792 55.2266 113.083 55.1514 113.407 55.1514C113.731 55.1514 114.022 55.2266 114.279 55.3783C114.536 55.5288 114.738 55.738 114.884 56.0061C115.03 56.2753 115.104 56.5821 115.104 56.9278L115.097 57.0736ZM112.559 55.8803C112.331 56.0954 112.202 56.3752 112.17 56.722H114.652C114.621 56.3752 114.491 56.0954 114.261 55.8803C114.033 55.6651 113.749 55.557 113.407 55.557C113.07 55.557 112.787 55.6651 112.559 55.8803Z" fill="white"/>
<path d="M117.016 55.3312C117.236 55.2113 117.507 55.1514 117.831 55.1514V55.611L117.718 55.604C117.35 55.604 117.062 55.7169 116.853 55.9438C116.644 56.1695 116.54 56.4857 116.54 56.8949V58.6772H116.068V55.1784H116.521V55.8626C116.631 55.6287 116.797 55.4512 117.016 55.3312Z" fill="white"/>
<path d="M119.63 55.3312C119.85 55.2113 120.122 55.1514 120.445 55.1514V55.611L120.332 55.604C119.964 55.604 119.675 55.7169 119.467 55.9438C119.259 56.1695 119.154 56.4857 119.154 56.8949V58.6772H118.682V55.1784H119.134V55.8626C119.246 55.6287 119.411 55.4512 119.63 55.3312Z" fill="white"/>
<path d="M121.289 54.3136C121.222 54.2477 121.189 54.1678 121.189 54.0749C121.189 53.9855 121.222 53.908 121.289 53.8409C121.355 53.7751 121.438 53.7422 121.535 53.7422C121.633 53.7422 121.715 53.7739 121.782 53.8374C121.848 53.9021 121.882 53.9785 121.882 54.0678C121.882 54.1654 121.848 54.2477 121.782 54.3136C121.715 54.3806 121.633 54.4135 121.535 54.4135C121.438 54.4135 121.355 54.3806 121.289 54.3136ZM121.296 55.1788H121.769V58.6788H121.296V55.1788Z" fill="white"/>
<path d="M124.927 58.4634C124.839 58.5434 124.728 58.6045 124.598 58.6468C124.467 58.688 124.331 58.7103 124.189 58.7103C123.859 58.7103 123.607 58.6209 123.43 58.4434C123.253 58.2659 123.165 58.0155 123.165 57.6922V55.576H122.539V55.1775H123.165V54.4121H123.637V55.1775H124.7V55.576H123.637V57.6651C123.637 57.8744 123.689 58.0319 123.792 58.1401C123.897 58.2494 124.046 58.3035 124.241 58.3035C124.339 58.3035 124.433 58.2882 124.525 58.2577C124.615 58.2259 124.694 58.1824 124.76 58.1236L124.927 58.4634Z" fill="white"/>
<path d="M126.18 58.4808C125.908 58.328 125.697 58.1164 125.54 57.846C125.386 57.5756 125.309 57.2699 125.309 56.9278C125.309 56.5857 125.386 56.28 125.54 56.0096C125.697 55.7392 125.908 55.5288 126.18 55.3771C126.45 55.2278 126.755 55.1514 127.091 55.1514C127.428 55.1514 127.732 55.2278 128.002 55.3771C128.272 55.5288 128.485 55.7392 128.638 56.0096C128.791 56.28 128.867 56.5857 128.867 56.9278C128.867 57.2699 128.791 57.5756 128.638 57.846C128.485 58.1164 128.272 58.328 128.002 58.4808C127.732 58.6337 127.428 58.7112 127.091 58.7112C126.755 58.7112 126.45 58.6337 126.18 58.4808ZM127.759 58.1222C127.956 58.0082 128.111 57.8483 128.222 57.6391C128.334 57.431 128.388 57.1935 128.388 56.9278C128.388 56.6609 128.334 56.4246 128.222 56.2165C128.111 56.0072 127.956 55.8462 127.759 55.7333C127.562 55.6205 127.339 55.564 127.091 55.564C126.843 55.564 126.619 55.6205 126.422 55.7333C126.224 55.8462 126.069 56.0072 125.956 56.2165C125.844 56.4246 125.787 56.6609 125.787 56.9278C125.787 57.1935 125.844 57.431 125.956 57.6391C126.069 57.8483 126.224 58.0082 126.422 58.1222C126.619 58.2351 126.843 58.2915 127.091 58.2915C127.339 58.2915 127.562 58.2351 127.759 58.1222Z" fill="white"/>
<path d="M130.779 55.3312C130.998 55.2113 131.27 55.1514 131.594 55.1514V55.611L131.481 55.604C131.113 55.604 130.824 55.7169 130.615 55.9438C130.407 56.1695 130.303 56.4857 130.303 56.8949V58.6772H129.83V55.1784H130.283V55.8626C130.394 55.6287 130.559 55.4512 130.779 55.3312Z" fill="white"/>
<path d="M135.54 55.1768L133.79 59.0952C133.649 59.4232 133.485 59.656 133.299 59.7936C133.112 59.9311 132.889 59.9993 132.627 59.9993C132.458 59.9993 132.3 59.9734 132.154 59.9193C132.008 59.8664 131.881 59.7865 131.775 59.6807L131.994 59.328C132.172 59.5055 132.384 59.5937 132.634 59.5937C132.794 59.5937 132.929 59.549 133.042 59.4608C133.156 59.3715 133.261 59.221 133.358 59.0082L133.512 58.6684L131.948 55.1768H132.44L133.758 58.15L135.074 55.1768H135.54Z" fill="white"/>
</g>
<defs>
<clipPath id="clip0_460_2853">
<rect width="167.761" height="60" fill="white" transform="translate(0.238281)"/>
</clipPath>
</defs>
</svg>
