<svg width="129" height="31" viewBox="0 0 129 31" fill="none" xmlns="http://www.w3.org/2000/svg">
<g clip-path="url(#clip0_560_740)">
<path d="M6.47738 14.9613H7.5904C8.02758 14.9614 8.45433 14.8311 8.81338 14.5879C9.17243 14.3447 9.44661 14.0001 9.5991 13.6006L12.144 6.93366V3.2615C12.1435 2.65262 11.8958 2.06872 11.455 1.63744C11.0143 1.20615 10.4164 0.962578 9.79205 0.959961H0.652344V1.03325C1.15835 1.16136 1.60641 1.44968 1.92622 1.85297C2.24603 2.25626 2.41948 2.75169 2.41935 3.2615V28.0001C2.41913 28.5098 2.24555 29.005 1.9258 29.4083C1.60604 29.8115 1.15818 30.0999 0.652344 30.2283V30.3016H9.79205C10.4182 30.3016 11.0187 30.0592 11.4616 29.6276C11.9045 29.196 12.1536 28.6106 12.1542 28.0001V24.3437L9.58894 17.6629C9.43875 17.2633 9.16633 16.9183 8.80853 16.6746C8.45073 16.4309 8.02481 16.3002 7.58837 16.3002H6.47738C6.29531 16.3002 6.1207 16.2297 5.99196 16.1042C5.86322 15.9786 5.79089 15.8083 5.79089 15.6308C5.79089 15.4532 5.86322 15.2829 5.99196 15.1574C6.1207 15.0318 6.29531 14.9613 6.47738 14.9613Z" fill="#F8F7FF"/>
<path d="M9.79167 30.392H0.651967C0.627542 30.3915 0.604296 30.3817 0.587212 30.3646C0.570128 30.3476 0.560564 30.3247 0.560569 30.3009V30.2276C0.560403 30.2076 0.56712 30.1882 0.579642 30.1724C0.592164 30.1566 0.609767 30.1453 0.629625 30.1405C1.11573 30.0168 1.54599 29.7392 1.85292 29.3514C2.15985 28.9635 2.32608 28.4873 2.32555 27.9974V3.26081C2.32598 2.77115 2.15967 2.2952 1.85272 1.90768C1.54577 1.52016 1.11557 1.243 0.629625 1.11971C0.609767 1.11483 0.592164 1.10358 0.579642 1.08778C0.56712 1.07198 0.560403 1.05253 0.560569 1.03256V0.959275C0.560299 0.947404 0.562463 0.935601 0.566935 0.924558C0.571407 0.913515 0.578097 0.903454 0.586611 0.894966C0.595125 0.886479 0.605292 0.879736 0.616515 0.875133C0.627738 0.870531 0.639791 0.868161 0.651967 0.868164H9.79167C10.4424 0.868688 11.0664 1.12087 11.5267 1.56941C11.987 2.01795 12.2461 2.62622 12.2472 3.26081V6.92505C12.2493 6.93551 12.2493 6.94628 12.2472 6.95674L9.68809 13.6237C9.52837 14.0411 9.24204 14.4012 8.86722 14.6559C8.4924 14.9107 8.04689 15.0481 7.59002 15.0498H6.47701C6.31918 15.0498 6.16781 15.1109 6.05621 15.2197C5.94461 15.3286 5.88191 15.4762 5.88191 15.6301C5.88191 15.784 5.94461 15.9316 6.05621 16.0404C6.16781 16.1493 6.31918 16.2104 6.47701 16.2104H7.59002C8.0448 16.2123 8.48818 16.3494 8.86091 16.6035C9.23364 16.8576 9.51797 17.2166 9.6759 17.6325L12.2289 24.3114C12.2307 24.3219 12.2307 24.3326 12.2289 24.3431V27.9974C12.2284 28.6292 11.972 29.2353 11.5156 29.6838C11.0592 30.1323 10.4396 30.3868 9.79167 30.392ZM0.993182 30.2118H9.79167C10.3936 30.2107 10.9705 29.9771 11.3961 29.562C11.8217 29.147 12.0613 28.5844 12.0624 27.9974V24.3609L9.50326 17.6939C9.35894 17.3122 9.09825 16.9827 8.75622 16.7497C8.41419 16.5167 8.00723 16.3914 7.59002 16.3907H6.47701C6.27016 16.3907 6.07178 16.3105 5.92552 16.1679C5.77925 16.0253 5.69709 15.8318 5.69709 15.6301C5.69709 15.4284 5.77925 15.2349 5.92552 15.0923C6.07178 14.9496 6.27016 14.8695 6.47701 14.8695H7.59002C8.0079 14.8686 8.41557 14.7435 8.7588 14.5111C9.10203 14.2786 9.36453 13.9497 9.51139 13.5682L12.0543 6.9092V3.26081C12.0532 2.67539 11.8147 2.11416 11.3908 1.69965C10.9668 1.28514 10.392 1.05102 9.79167 1.0484H0.985058C1.43401 1.22945 1.8178 1.5363 2.08787 1.93012C2.35794 2.32394 2.50215 2.78704 2.50225 3.26081V27.9974C2.50255 28.4715 2.35853 28.935 2.08844 29.3292C1.81834 29.7234 1.43433 30.0306 0.985058 30.2118H0.993182Z" fill="white"/>
<path d="M16.177 0.960071C15.6626 0.959951 15.1605 1.11318 14.738 1.39923C14.3154 1.68527 13.9926 2.09045 13.8129 2.56045L12.1454 6.91792L9.6005 13.5928C9.44801 13.9923 9.17383 14.3368 8.81478 14.5801C8.45573 14.8233 8.02898 14.9536 7.5918 14.9535H18.0253C18.4897 14.9528 18.9428 14.814 19.3242 14.5557C19.7056 14.2974 19.9971 13.9317 20.1599 13.5076L24.4434 2.31485C24.5489 2.02711 24.7192 1.76606 24.9417 1.55083C25.1641 1.3356 25.4332 1.17164 25.729 1.07099V0.952148L16.177 0.960071Z" fill="#D7D0FF"/>
<path d="M18.0231 15.0498H7.58959C7.5763 15.0517 7.56275 15.0508 7.54985 15.0472C7.53695 15.0435 7.52501 15.0372 7.51484 15.0287C7.50466 15.0201 7.4965 15.0095 7.49091 14.9976C7.48532 14.9857 7.48242 14.9728 7.48242 14.9597C7.48242 14.9466 7.48532 14.9336 7.49091 14.9217C7.4965 14.9098 7.50466 14.8992 7.51484 14.8907C7.52501 14.8821 7.53695 14.8758 7.54985 14.8721C7.56275 14.8685 7.5763 14.8676 7.58959 14.8695C8.00747 14.8686 8.41514 14.7435 8.75837 14.5111C9.1016 14.2786 9.3641 13.9498 9.51096 13.5682L13.7274 2.52799C13.9146 2.04154 14.2493 1.62219 14.6868 1.3257C15.1243 1.02922 15.6441 0.869638 16.1768 0.868187H25.7228C25.7351 0.867916 25.7474 0.870087 25.7588 0.87457C25.7703 0.879053 25.7807 0.885754 25.7894 0.894269C25.7982 0.902784 25.805 0.912937 25.8096 0.924114C25.8142 0.93529 25.8165 0.947258 25.8162 0.959297V1.07814C25.816 1.09693 25.8098 1.11521 25.7986 1.13046C25.7873 1.1457 25.7715 1.15718 25.7532 1.16331C25.4709 1.26067 25.2142 1.41769 25.0014 1.62315C24.7886 1.8286 24.6251 2.07739 24.5224 2.35171L20.241 13.5464C20.0708 13.9865 19.7676 14.3658 19.3716 14.6342C18.9756 14.9027 18.5053 15.0476 18.0231 15.0498ZM8.47715 14.8695H18.0231C18.4683 14.8684 18.9026 14.7351 19.2683 14.4874C19.634 14.2398 19.9137 13.8895 20.0704 13.4831L24.3538 2.29031C24.4554 2.01442 24.6139 1.76183 24.8197 1.5482C25.0255 1.33457 25.2741 1.16446 25.5501 1.04843H16.1768C15.6815 1.04952 15.1983 1.19777 14.7916 1.47342C14.3848 1.74907 14.0738 2.13903 13.9 2.59137L9.68766 13.6237C9.58217 13.9006 9.42039 14.1539 9.21202 14.3683C9.00366 14.5828 8.75301 14.7539 8.47512 14.8715L8.47715 14.8695Z" fill="white"/>
<path d="M24.4333 28.9345L20.2169 17.9022C20.036 17.4327 19.713 17.0281 19.2907 16.7419C18.8685 16.4557 18.3669 16.3015 17.8527 16.2998H7.58984C8.02594 16.3002 8.45141 16.431 8.80881 16.6747C9.16621 16.9184 9.43832 17.2632 9.58839 17.6625L12.1434 24.3433L13.8698 28.8553C14.0321 29.2797 14.3235 29.6457 14.7051 29.9041C15.0866 30.1625 15.54 30.301 16.0045 30.3012H25.725V30.1823C25.4292 30.0793 25.1601 29.9141 24.9369 29.6985C24.7137 29.4829 24.5418 29.2221 24.4333 28.9345Z" fill="#CBC2FF"/>
<path d="M25.7268 30.3925H16.0062C15.5232 30.3908 15.0523 30.2459 14.6558 29.9771C14.2593 29.7082 13.956 29.3281 13.7862 28.8872L9.50277 17.6945C9.35845 17.3127 9.09775 16.9832 8.75572 16.7502C8.4137 16.5172 8.00673 16.3919 7.58952 16.3912C7.56491 16.3907 7.54144 16.3809 7.52403 16.3639C7.50662 16.347 7.49661 16.3241 7.49609 16.3001C7.49662 16.2762 7.5067 16.2536 7.52417 16.2369C7.54163 16.2203 7.56509 16.2109 7.58952 16.2109H17.8524C18.3854 16.2125 18.9053 16.3722 19.3432 16.6686C19.781 16.965 20.116 17.3843 20.3039 17.8707L24.5183 28.911C24.6231 29.1857 24.7886 29.4346 25.0031 29.6399C25.2175 29.8453 25.4757 30.0022 25.7593 30.0994C25.7774 30.1053 25.7932 30.1168 25.8042 30.1322C25.8151 30.1475 25.8207 30.1659 25.8202 30.1846V30.3034C25.8197 30.3272 25.8096 30.3499 25.7921 30.3665C25.7747 30.3832 25.7512 30.3925 25.7268 30.3925ZM8.47303 16.3912C8.74946 16.5076 8.99864 16.6778 9.20537 16.8914C9.4121 17.1049 9.57203 17.3572 9.67541 17.6331L13.9589 28.8238C14.1158 29.2301 14.3956 29.5802 14.7612 29.8278C15.1269 30.0755 15.561 30.2088 16.0062 30.2103H25.5521C25.2757 30.0936 25.0263 29.9236 24.819 29.7105C24.6117 29.4975 24.4507 29.2457 24.3457 28.9704L20.1292 17.9341C19.9554 17.4818 19.6445 17.0918 19.2377 16.8162C18.8309 16.5405 18.3477 16.3923 17.8524 16.3912H8.47303Z" fill="white"/>
</g>
<path d="M32.6301 10.478C32.3041 10.478 31.9906 10.4256 31.6897 10.3208C31.3929 10.2118 31.163 10.0734 31 9.90569L31.1818 9.5472C31.3365 9.69815 31.5434 9.82603 31.8025 9.93085C32.0659 10.0315 32.3417 10.0818 32.6301 10.0818C32.906 10.0818 33.1296 10.0483 33.301 9.98117C33.4766 9.90989 33.604 9.81555 33.6835 9.69815C33.7671 9.58074 33.8089 9.45076 33.8089 9.30821C33.8089 9.1363 33.7587 8.99793 33.6584 8.89311C33.5622 8.78828 33.4348 8.70652 33.2759 8.64782C33.1171 8.58493 32.9415 8.53042 32.7493 8.4843C32.557 8.43818 32.3647 8.38996 32.1724 8.33964C31.9802 8.28514 31.8025 8.21386 31.6395 8.12581C31.4807 8.03775 31.3511 7.92245 31.2508 7.77989C31.1547 7.63314 31.1066 7.44236 31.1066 7.20756C31.1066 6.98953 31.163 6.79036 31.2759 6.61007C31.3929 6.42558 31.5705 6.27883 31.8088 6.16981C32.047 6.0566 32.3522 6 32.7242 6C32.9708 6 33.2153 6.03564 33.4577 6.10692C33.7002 6.17401 33.9092 6.26835 34.0847 6.38994L33.928 6.76101C33.7399 6.63523 33.5393 6.54298 33.3261 6.48428C33.1171 6.42558 32.9144 6.39623 32.7179 6.39623C32.4546 6.39623 32.2372 6.43187 32.0659 6.50315C31.8945 6.57443 31.767 6.67087 31.6834 6.79246C31.604 6.90986 31.5643 7.04403 31.5643 7.19498C31.5643 7.36689 31.6123 7.50525 31.7085 7.61008C31.8088 7.7149 31.9384 7.79666 32.0972 7.85536C32.2602 7.91406 32.4379 7.96647 32.6301 8.0126C32.8224 8.05872 33.0126 8.10903 33.2007 8.16354C33.393 8.21805 33.5685 8.28933 33.7273 8.37738C33.8904 8.46124 34.0199 8.57445 34.1161 8.71701C34.2164 8.85956 34.2665 9.04615 34.2665 9.27676C34.2665 9.4906 34.208 9.68976 34.091 9.87425C33.974 10.0545 33.7942 10.2013 33.5518 10.3145C33.3135 10.4235 33.0063 10.478 32.6301 10.478Z" fill="white"/>
<path d="M37.1709 10.478C36.6108 10.478 36.1698 10.3166 35.848 9.99375C35.5261 9.67089 35.3652 9.1929 35.3652 8.55977V6.03774H35.8292V8.5409C35.8292 9.06082 35.9462 9.44448 36.1803 9.69186C36.4144 9.93924 36.7446 10.0629 37.1709 10.0629C37.6014 10.0629 37.9337 9.93924 38.1678 9.69186C38.4019 9.44448 38.5189 9.06082 38.5189 8.5409V6.03774H38.9703V8.55977C38.9703 9.1929 38.8094 9.67089 38.4876 9.99375C38.1699 10.3166 37.731 10.478 37.1709 10.478Z" fill="white"/>
<path d="M40.4938 10.4403V6.03774H42.1365C42.5085 6.03774 42.8283 6.09853 43.0958 6.22013C43.3633 6.33753 43.5681 6.50944 43.7102 6.73586C43.8565 6.95808 43.9297 7.22852 43.9297 7.54718C43.9297 7.85746 43.8565 8.12581 43.7102 8.35222C43.5681 8.57445 43.3633 8.74636 43.0958 8.86795C42.8283 8.98954 42.5085 9.05034 42.1365 9.05034H40.7509L40.9578 8.83021V10.4403H40.4938ZM40.9578 8.86795L40.7509 8.64153H42.124C42.5629 8.64153 42.8952 8.54719 43.1209 8.35851C43.3508 8.16564 43.4657 7.8952 43.4657 7.54718C43.4657 7.19498 43.3508 6.92244 43.1209 6.72957C42.8952 6.53669 42.5629 6.44026 42.124 6.44026H40.7509L40.9578 6.22013V8.86795Z" fill="white"/>
<path d="M45.0583 10.4403V6.03774H46.7009C47.0729 6.03774 47.3927 6.09853 47.6602 6.22013C47.9277 6.33753 48.1325 6.50944 48.2746 6.73586C48.4209 6.95808 48.4941 7.22852 48.4941 7.54718C48.4941 7.85746 48.4209 8.12581 48.2746 8.35222C48.1325 8.57445 47.9277 8.74636 47.6602 8.86795C47.3927 8.98954 47.0729 9.05034 46.7009 9.05034H45.3153L45.5222 8.83021V10.4403H45.0583ZM45.5222 8.86795L45.3153 8.64153H46.6884C47.1273 8.64153 47.4596 8.54719 47.6853 8.35851C47.9152 8.16564 48.0301 7.8952 48.0301 7.54718C48.0301 7.19498 47.9152 6.92244 47.6853 6.72957C47.4596 6.53669 47.1273 6.44026 46.6884 6.44026H45.3153L45.5222 6.22013V8.86795Z" fill="white"/>
<path d="M51.6025 10.478C51.2723 10.478 50.965 10.4235 50.6808 10.3145C50.4008 10.2013 50.1562 10.0441 49.9473 9.8428C49.7424 9.63735 49.5815 9.40045 49.4645 9.1321C49.3516 8.85956 49.2952 8.56187 49.2952 8.23901C49.2952 7.91616 49.3516 7.62056 49.4645 7.35221C49.5815 7.07967 49.7424 6.84277 49.9473 6.64152C50.1562 6.43606 50.4008 6.27883 50.6808 6.16981C50.9609 6.0566 51.2681 6 51.6025 6C51.9327 6 52.2378 6.0566 52.5179 6.16981C52.7979 6.27883 53.0403 6.43397 53.2451 6.63523C53.4541 6.83649 53.6151 7.07338 53.7279 7.34592C53.845 7.61846 53.9035 7.91616 53.9035 8.23901C53.9035 8.56187 53.845 8.85956 53.7279 9.1321C53.6151 9.40464 53.4541 9.64154 53.2451 9.8428C53.0403 10.0441 52.7979 10.2013 52.5179 10.3145C52.2378 10.4235 51.9327 10.478 51.6025 10.478ZM51.6025 10.0629C51.8658 10.0629 52.1082 10.0189 52.3298 9.93085C52.5555 9.83861 52.7498 9.71072 52.9129 9.5472C53.08 9.37948 53.2096 9.18661 53.3016 8.96858C53.3935 8.74636 53.4395 8.50317 53.4395 8.23901C53.4395 7.97486 53.3935 7.73377 53.3016 7.51574C53.2096 7.29351 53.08 7.10064 52.9129 6.93712C52.7498 6.7694 52.5555 6.64152 52.3298 6.55346C52.1082 6.46122 51.8658 6.4151 51.6025 6.4151C51.3391 6.4151 51.0946 6.46122 50.8689 6.55346C50.6432 6.64152 50.4467 6.7694 50.2796 6.93712C50.1165 7.10064 49.987 7.29351 49.8908 7.51574C49.7989 7.73377 49.7529 7.97486 49.7529 8.23901C49.7529 8.49897 49.7989 8.74007 49.8908 8.96229C49.987 9.18451 50.1165 9.37948 50.2796 9.5472C50.4467 9.71072 50.6432 9.83861 50.8689 9.93085C51.0946 10.0189 51.3391 10.0629 51.6025 10.0629Z" fill="white"/>
<path d="M55.0688 10.4403V6.03774H56.7115C57.0835 6.03774 57.4033 6.09853 57.6708 6.22013C57.9383 6.33753 58.1431 6.50944 58.2852 6.73586C58.4315 6.95808 58.5046 7.22852 58.5046 7.54718C58.5046 7.85746 58.4315 8.12581 58.2852 8.35222C58.1431 8.57445 57.9383 8.74636 57.6708 8.86795C57.4033 8.98535 57.0835 9.04405 56.7115 9.04405H55.3259L55.5328 8.83021V10.4403H55.0688ZM58.0658 10.4403L56.9372 8.84279H57.4388L58.5736 10.4403H58.0658ZM55.5328 8.86795L55.3259 8.64782H56.6989C57.1378 8.64782 57.4701 8.55139 57.6958 8.35851C57.9257 8.16564 58.0407 7.8952 58.0407 7.54718C58.0407 7.19498 57.9257 6.92244 57.6958 6.72957C57.4701 6.53669 57.1378 6.44026 56.6989 6.44026H55.3259L55.5328 6.22013V8.86795Z" fill="white"/>
<path d="M60.5165 10.4403V6.44026H58.9742V6.03774H62.5229V6.44026H60.9805V10.4403H60.5165Z" fill="white"/>
<path d="M63.8033 8.00631H66.1231V8.40254H63.8033V8.00631ZM63.8534 10.0378H66.493V10.4403H63.3895V6.03774H66.3989V6.44026H63.8534V10.0378Z" fill="white"/>
<path d="M67.709 10.4403V6.03774H69.4959C69.964 6.03774 70.3736 6.13208 70.7247 6.32076C71.08 6.50525 71.3559 6.76311 71.5523 7.09435C71.7488 7.42559 71.847 7.80714 71.847 8.23901C71.847 8.67088 71.7488 9.05244 71.5523 9.38368C71.3559 9.71492 71.08 9.97488 70.7247 10.1636C70.3736 10.348 69.964 10.4403 69.4959 10.4403H67.709ZM68.1729 10.0378H69.4708C69.8595 10.0378 70.196 9.9623 70.4802 9.81135C70.7686 9.65622 70.9923 9.44448 71.1511 9.17613C71.3099 8.90359 71.3893 8.59122 71.3893 8.23901C71.3893 7.88262 71.3099 7.57024 71.1511 7.3019C70.9923 7.03355 70.7686 6.82391 70.4802 6.67296C70.196 6.51782 69.8595 6.44026 69.4708 6.44026H68.1729V10.0378Z" fill="white"/>
<path d="M74.7806 10.4403V6.03774H76.674C77.1631 6.03774 77.5414 6.13627 77.8089 6.33334C78.0806 6.5304 78.2164 6.80923 78.2164 7.16982C78.2164 7.40882 78.16 7.61008 78.0471 7.7736C77.9384 7.93712 77.788 8.06081 77.5957 8.14467C77.4076 8.22853 77.2007 8.27046 76.975 8.27046L77.0816 8.11952C77.3616 8.11952 77.602 8.16354 77.8026 8.25159C78.0074 8.33545 78.1663 8.46333 78.2791 8.63524C78.392 8.80296 78.4484 9.01261 78.4484 9.26418C78.4484 9.63735 78.3105 9.92666 78.0346 10.1321C77.7629 10.3376 77.3512 10.4403 76.7994 10.4403H74.7806ZM75.2445 10.0566H76.7932C77.1777 10.0566 77.4724 9.99165 77.6772 9.86167C77.882 9.7275 77.9844 9.51575 77.9844 9.22644C77.9844 8.94133 77.882 8.73378 77.6772 8.6038C77.4724 8.46962 77.1777 8.40254 76.7932 8.40254H75.1944V8.01889H76.6427C76.9938 8.01889 77.2655 7.9518 77.4578 7.81763C77.6542 7.68345 77.7524 7.48429 77.7524 7.22014C77.7524 6.95179 77.6542 6.75263 77.4578 6.62265C77.2655 6.48847 76.9938 6.42139 76.6427 6.42139H75.2445V10.0566Z" fill="white"/>
<path d="M80.588 10.4403V8.80506L80.6946 9.09437L78.8325 6.03774H79.3278L80.9642 8.72329H80.7009L82.3373 6.03774H82.8012L80.9391 9.09437L81.0457 8.80506V10.4403H80.588Z" fill="white"/>
<path d="M31.2445 18.181V13.6195H33.2128C33.6199 13.6195 33.9707 13.6869 34.2652 13.8215C34.5597 13.9519 34.7871 14.1408 34.9473 14.3885C35.1075 14.6361 35.1877 14.9315 35.1877 15.2747C35.1877 15.6136 35.1075 15.9068 34.9473 16.1544C34.7871 16.4021 34.5597 16.5932 34.2652 16.7279C33.9707 16.8582 33.6199 16.9234 33.2128 16.9234H31.8292L32.2969 16.4477V18.181H31.2445ZM32.2969 16.565L31.8292 16.0632H33.1544C33.4792 16.0632 33.7217 15.9937 33.8819 15.8547C34.0422 15.7157 34.1223 15.5223 34.1223 15.2747C34.1223 15.0227 34.0422 14.8272 33.8819 14.6882C33.7217 14.5492 33.4792 14.4797 33.1544 14.4797H31.8292L32.2969 13.9779V16.565Z" fill="white"/>
<path d="M35.939 18.181V13.6195H37.9073C38.3144 13.6195 38.6652 13.6869 38.9597 13.8215C39.2542 13.9519 39.4815 14.1408 39.6418 14.3885C39.802 14.6361 39.8821 14.9315 39.8821 15.2747C39.8821 15.6136 39.802 15.9068 39.6418 16.1544C39.4815 16.3977 39.2542 16.5845 38.9597 16.7148C38.6652 16.8452 38.3144 16.9103 37.9073 16.9103H36.5236L36.9913 16.4477V18.181H35.939ZM38.8298 18.181L37.6929 16.5259H38.8168L39.9666 18.181H38.8298ZM36.9913 16.565L36.5236 16.0697H37.8488C38.1736 16.0697 38.4162 16.0002 38.5764 15.8612C38.7366 15.7178 38.8168 15.5223 38.8168 15.2747C38.8168 15.0227 38.7366 14.8272 38.5764 14.6882C38.4162 14.5492 38.1736 14.4797 37.8488 14.4797H36.5236L36.9913 13.9779V16.565Z" fill="white"/>
<path d="M41.6838 15.4572H43.873V16.2782H41.6838V15.4572ZM41.7618 17.3339H44.2368V18.181H40.7159V13.6195H44.1524V14.4667H41.7618V17.3339Z" fill="white"/>
<path d="M46.5683 18.2592C46.2045 18.2592 45.8559 18.2115 45.5224 18.1159C45.1889 18.016 44.9204 17.8878 44.7169 17.7314L45.0742 16.9364C45.2691 17.0754 45.4986 17.1905 45.7628 17.2818C46.0313 17.3687 46.3019 17.4121 46.5748 17.4121C46.7827 17.4121 46.9494 17.3926 47.075 17.3535C47.2049 17.31 47.3002 17.2514 47.3608 17.1775C47.4214 17.1037 47.4518 17.0189 47.4518 16.9234C47.4518 16.8017 47.4041 16.7062 47.3088 16.6366C47.2136 16.5628 47.088 16.5041 46.9321 16.4607C46.7762 16.4129 46.6029 16.3695 46.4124 16.3304C46.2261 16.2869 46.0378 16.2348 45.8472 16.174C45.661 16.1132 45.4899 16.035 45.334 15.9394C45.1781 15.8438 45.0503 15.7178 44.9507 15.5614C44.8555 15.405 44.8078 15.2052 44.8078 14.9619C44.8078 14.7013 44.8771 14.4645 45.0157 14.2516C45.1586 14.0344 45.3708 13.8628 45.6523 13.7368C45.9382 13.6065 46.2954 13.5413 46.7242 13.5413C47.01 13.5413 47.2915 13.5761 47.5687 13.6456C47.8459 13.7108 48.0905 13.8107 48.3027 13.9454L47.9779 14.7469C47.7657 14.6252 47.5535 14.5362 47.3413 14.4797C47.1291 14.4189 46.9212 14.3885 46.7177 14.3885C46.5141 14.3885 46.3474 14.4124 46.2175 14.4602C46.0876 14.5079 45.9945 14.5709 45.9382 14.6491C45.8819 14.723 45.8537 14.8099 45.8537 14.9098C45.8537 15.0271 45.9013 15.1227 45.9966 15.1965C46.0919 15.266 46.2175 15.3225 46.3734 15.3659C46.5293 15.4094 46.7004 15.4528 46.8866 15.4963C47.0771 15.5397 47.2655 15.5897 47.4518 15.6461C47.6423 15.7026 47.8155 15.7786 47.9714 15.8742C48.1274 15.9698 48.2529 16.0958 48.3482 16.2522C48.4478 16.4086 48.4976 16.6062 48.4976 16.8452C48.4976 17.1015 48.4262 17.3361 48.2833 17.549C48.1403 17.7618 47.926 17.9334 47.6401 18.0638C47.3586 18.1941 47.0014 18.2592 46.5683 18.2592Z" fill="white"/>
<path d="M49.2167 18.181V13.6195H50.2691V18.181H49.2167Z" fill="white"/>
<path d="M51.3483 18.181V13.6195H53.414C53.9077 13.6195 54.343 13.7151 54.7198 13.9063C55.0965 14.0931 55.391 14.3559 55.6032 14.6947C55.8155 15.0336 55.9216 15.4354 55.9216 15.9003C55.9216 16.3608 55.8155 16.7626 55.6032 17.1058C55.391 17.4447 55.0965 17.7097 54.7198 17.9008C54.343 18.0876 53.9077 18.181 53.414 18.181H51.3483ZM52.4006 17.3144H53.3621C53.6652 17.3144 53.9272 17.2579 54.1481 17.1449C54.3733 17.0276 54.5465 16.8626 54.6678 16.6497C54.7934 16.4368 54.8562 16.187 54.8562 15.9003C54.8562 15.6092 54.7934 15.3594 54.6678 15.1509C54.5465 14.938 54.3733 14.7751 54.1481 14.6622C53.9272 14.5449 53.6652 14.4862 53.3621 14.4862H52.4006V17.3144Z" fill="white"/>
<path d="M57.6831 15.4572H59.8723V16.2782H57.6831V15.4572ZM57.7611 17.3339H60.2361V18.181H56.7152V13.6195H60.1517V14.4667H57.7611V17.3339Z" fill="white"/>
<path d="M61.0734 18.181V13.6195H61.9439L64.6268 16.9038H64.2046V13.6195H65.244V18.181H64.38L61.6906 14.8968H62.1128V18.181H61.0734Z" fill="white"/>
<path d="M67.2618 18.181V14.4797H65.8066V13.6195H69.7693V14.4797H68.3142V18.181H67.2618Z" fill="white"/>
<path d="M70.3355 18.181V13.6195H71.3879V18.181H70.3355Z" fill="white"/>
<path d="M71.8694 18.181L73.8962 13.6195H74.9356L76.9689 18.181H75.8645L74.2015 14.1539H74.6173L72.9478 18.181H71.8694ZM72.8828 17.2036L73.1621 16.4021H75.5008L75.7866 17.2036H72.8828Z" fill="white"/>
<path d="M77.4407 18.181V13.6195H78.493V17.3209H80.7732V18.181H77.4407Z" fill="white"/>
<path d="M84.1753 15.6722H86.358V16.5194H84.1753V15.6722ZM84.2533 18.181H83.2009V13.6195H86.6374V14.4667H84.2533V18.181Z" fill="white"/>
<path d="M89.5141 18.2592C89.1546 18.2592 88.8212 18.2006 88.5137 18.0833C88.2105 17.966 87.9464 17.8009 87.7212 17.588C87.5003 17.3752 87.3271 17.1254 87.2015 16.8387C87.0802 16.5519 87.0196 16.2391 87.0196 15.9003C87.0196 15.5614 87.0802 15.2486 87.2015 14.9619C87.3271 14.6752 87.5025 14.4254 87.7277 14.2125C87.9529 13.9997 88.217 13.8346 88.5202 13.7173C88.8233 13.6 89.1525 13.5413 89.5076 13.5413C89.8671 13.5413 90.1962 13.6 90.495 13.7173C90.7982 13.8346 91.0602 13.9997 91.281 14.2125C91.5062 14.4254 91.6816 14.6752 91.8072 14.9619C91.9328 15.2443 91.9956 15.5571 91.9956 15.9003C91.9956 16.2391 91.9328 16.5541 91.8072 16.8452C91.6816 17.1319 91.5062 17.3817 91.281 17.5946C91.0602 17.8031 90.7982 17.966 90.495 18.0833C90.1962 18.2006 89.8692 18.2592 89.5141 18.2592ZM89.5076 17.36C89.7111 17.36 89.8974 17.3252 90.0663 17.2557C90.2395 17.1862 90.3911 17.0863 90.521 16.956C90.6509 16.8256 90.7505 16.6714 90.8198 16.4933C90.8934 16.3152 90.9303 16.1175 90.9303 15.9003C90.9303 15.6831 90.8934 15.4854 90.8198 15.3073C90.7505 15.1292 90.6509 14.975 90.521 14.8446C90.3954 14.7143 90.246 14.6144 90.0728 14.5449C89.8995 14.4754 89.7111 14.4406 89.5076 14.4406C89.3041 14.4406 89.1157 14.4754 88.9424 14.5449C88.7735 14.6144 88.6241 14.7143 88.4942 14.8446C88.3643 14.975 88.2625 15.1292 88.1889 15.3073C88.1196 15.4854 88.0849 15.6831 88.0849 15.9003C88.0849 16.1132 88.1196 16.3108 88.1889 16.4933C88.2625 16.6714 88.3621 16.8256 88.4877 16.956C88.6176 17.0863 88.7692 17.1862 88.9424 17.2557C89.1157 17.3252 89.3041 17.36 89.5076 17.36Z" fill="white"/>
<path d="M94.8068 18.2592C94.1615 18.2592 93.657 18.079 93.2932 17.7184C92.9294 17.3578 92.7475 16.843 92.7475 16.174V13.6195H93.7999V16.1349C93.7999 16.5693 93.8887 16.8821 94.0663 17.0732C94.2438 17.2644 94.4928 17.36 94.8133 17.36C95.1338 17.36 95.3828 17.2644 95.5604 17.0732C95.7379 16.8821 95.8267 16.5693 95.8267 16.1349V13.6195H96.8661V16.174C96.8661 16.843 96.6842 17.3578 96.3204 17.7184C95.9566 18.079 95.4521 18.2592 94.8068 18.2592Z" fill="white"/>
<path d="M97.906 18.181V13.6195H98.7765L101.459 16.9038H101.037V13.6195H102.077V18.181H101.213L98.5232 14.8968H98.9454V18.181H97.906Z" fill="white"/>
<path d="M103.152 18.181V13.6195H105.218C105.712 13.6195 106.147 13.7151 106.524 13.9063C106.901 14.0931 107.195 14.3559 107.407 14.6947C107.62 15.0336 107.726 15.4354 107.726 15.9003C107.726 16.3608 107.62 16.7626 107.407 17.1058C107.195 17.4447 106.901 17.7097 106.524 17.9008C106.147 18.0876 105.712 18.181 105.218 18.181H103.152ZM104.205 17.3144H105.166C105.469 17.3144 105.731 17.2579 105.952 17.1449C106.177 17.0276 106.351 16.8626 106.472 16.6497C106.598 16.4368 106.66 16.187 106.66 15.9003C106.66 15.6092 106.598 15.3594 106.472 15.1509C106.351 14.938 106.177 14.7751 105.952 14.6622C105.731 14.5449 105.469 14.4862 105.166 14.4862H104.205V17.3144Z" fill="white"/>
<path d="M107.858 18.181L109.885 13.6195H110.924L112.958 18.181H111.853L110.19 14.1539H110.606L108.937 18.181H107.858ZM108.872 17.2036L109.151 16.4021H111.49L111.775 17.2036H108.872Z" fill="white"/>
<path d="M114.143 18.181V14.4797H112.688V13.6195H116.651V14.4797H115.195V18.181H114.143Z" fill="white"/>
<path d="M117.217 18.181V13.6195H118.269V18.181H117.217Z" fill="white"/>
<path d="M121.557 18.2592C121.198 18.2592 120.864 18.2006 120.557 18.0833C120.253 17.966 119.989 17.8009 119.764 17.588C119.543 17.3752 119.37 17.1254 119.244 16.8387C119.123 16.5519 119.063 16.2391 119.063 15.9003C119.063 15.5614 119.123 15.2486 119.244 14.9619C119.37 14.6752 119.545 14.4254 119.771 14.2125C119.996 13.9997 120.26 13.8346 120.563 13.7173C120.866 13.6 121.195 13.5413 121.551 13.5413C121.91 13.5413 122.239 13.6 122.538 13.7173C122.841 13.8346 123.103 13.9997 123.324 14.2125C123.549 14.4254 123.725 14.6752 123.85 14.9619C123.976 15.2443 124.039 15.5571 124.039 15.9003C124.039 16.2391 123.976 16.5541 123.85 16.8452C123.725 17.1319 123.549 17.3817 123.324 17.5946C123.103 17.8031 122.841 17.966 122.538 18.0833C122.239 18.2006 121.912 18.2592 121.557 18.2592ZM121.551 17.36C121.754 17.36 121.94 17.3252 122.109 17.2557C122.282 17.1862 122.434 17.0863 122.564 16.956C122.694 16.8256 122.793 16.6714 122.863 16.4933C122.936 16.3152 122.973 16.1175 122.973 15.9003C122.973 15.6831 122.936 15.4854 122.863 15.3073C122.793 15.1292 122.694 14.975 122.564 14.8446C122.438 14.7143 122.289 14.6144 122.116 14.5449C121.942 14.4754 121.754 14.4406 121.551 14.4406C121.347 14.4406 121.159 14.4754 120.985 14.5449C120.816 14.6144 120.667 14.7143 120.537 14.8446C120.407 14.975 120.305 15.1292 120.232 15.3073C120.163 15.4854 120.128 15.6831 120.128 15.9003C120.128 16.1132 120.163 16.3108 120.232 16.4933C120.305 16.6714 120.405 16.8256 120.531 16.956C120.661 17.0863 120.812 17.1862 120.985 17.2557C121.159 17.3252 121.347 17.36 121.551 17.36Z" fill="white"/>
<path d="M124.829 18.181V13.6195H125.7L128.383 16.9038H127.961V13.6195H129V18.181H128.136L125.447 14.8968H125.869V18.181H124.829Z" fill="white"/>
<path d="M32.2189 23.413H34.4016V24.2601H32.2189V23.413ZM32.2969 25.9218H31.2445V21.3603H34.681V22.2074H32.2969V25.9218Z" fill="white"/>
<path d="M37.5577 26C37.1982 26 36.8648 25.9414 36.5573 25.8241C36.2541 25.7068 35.9899 25.5417 35.7647 25.3288C35.5439 25.1159 35.3706 24.8661 35.2451 24.5794C35.1238 24.2927 35.0632 23.9799 35.0632 23.641C35.0632 23.3022 35.1238 22.9894 35.2451 22.7027C35.3706 22.416 35.546 22.1662 35.7712 21.9533C35.9964 21.7404 36.2606 21.5753 36.5638 21.458C36.8669 21.3407 37.1961 21.2821 37.5512 21.2821C37.9106 21.2821 38.2398 21.3407 38.5386 21.458C38.8418 21.5753 39.1038 21.7404 39.3246 21.9533C39.5498 22.1662 39.7252 22.416 39.8508 22.7027C39.9764 22.9851 40.0392 23.2978 40.0392 23.641C40.0392 23.9799 39.9764 24.2949 39.8508 24.5859C39.7252 24.8727 39.5498 25.1224 39.3246 25.3353C39.1038 25.5438 38.8418 25.7068 38.5386 25.8241C38.2398 25.9414 37.9128 26 37.5577 26ZM37.5512 25.1007C37.7547 25.1007 37.941 25.066 38.1099 24.9965C38.2831 24.927 38.4347 24.827 38.5646 24.6967C38.6945 24.5664 38.7941 24.4122 38.8634 24.234C38.937 24.0559 38.9738 23.8583 38.9738 23.641C38.9738 23.4238 38.937 23.2262 38.8634 23.048C38.7941 22.8699 38.6945 22.7157 38.5646 22.5854C38.439 22.455 38.2896 22.3551 38.1163 22.2856C37.9431 22.2161 37.7547 22.1814 37.5512 22.1814C37.3476 22.1814 37.1593 22.2161 36.986 22.2856C36.8171 22.3551 36.6677 22.455 36.5378 22.5854C36.4079 22.7157 36.3061 22.8699 36.2325 23.048C36.1632 23.2262 36.1285 23.4238 36.1285 23.641C36.1285 23.8539 36.1632 24.0516 36.2325 24.234C36.3061 24.4122 36.4057 24.5664 36.5313 24.6967C36.6612 24.827 36.8128 24.927 36.986 24.9965C37.1593 25.066 37.3476 25.1007 37.5512 25.1007Z" fill="white"/>
<path d="M40.8301 25.9218V21.3603H42.7984C43.2055 21.3603 43.5563 21.4276 43.8508 21.5623C44.1453 21.6926 44.3727 21.8816 44.5329 22.1292C44.6931 22.3769 44.7733 22.6723 44.7733 23.0155C44.7733 23.3543 44.6931 23.6476 44.5329 23.8952C44.3727 24.1385 44.1453 24.3253 43.8508 24.4556C43.5563 24.5859 43.2055 24.6511 42.7984 24.6511H41.4148L41.8825 24.1884V25.9218H40.8301ZM43.7209 25.9218L42.5841 24.2666H43.7079L44.8577 25.9218H43.7209ZM41.8825 24.3057L41.4148 23.8105H42.74C43.0648 23.8105 43.3073 23.741 43.4675 23.6019C43.6278 23.4586 43.7079 23.2631 43.7079 23.0155C43.7079 22.7635 43.6278 22.568 43.4675 22.429C43.3073 22.29 43.0648 22.2205 42.74 22.2205H41.4148L41.8825 21.7187V24.3057Z" fill="white"/>
<path d="M49.623 26C49.2722 26 48.9452 25.9435 48.6421 25.8306C48.3432 25.7133 48.0834 25.5482 47.8625 25.3353C47.6417 25.1224 47.4684 24.8727 47.3428 24.5859C47.2216 24.2992 47.161 23.9842 47.161 23.641C47.161 23.2978 47.2216 22.9829 47.3428 22.6962C47.4684 22.4094 47.6417 22.1596 47.8625 21.9468C48.0877 21.7339 48.3497 21.571 48.6486 21.458C48.9474 21.3407 49.2744 21.2821 49.6295 21.2821C50.0236 21.2821 50.3787 21.3516 50.6948 21.4906C51.0153 21.6253 51.2838 21.8251 51.5004 22.0901L50.8248 22.7157C50.6689 22.5376 50.4956 22.4051 50.3051 22.3182C50.1145 22.227 49.9067 22.1814 49.6815 22.1814C49.4692 22.1814 49.2744 22.2161 49.0968 22.2856C48.9192 22.3551 48.7655 22.455 48.6356 22.5854C48.5057 22.7157 48.4039 22.8699 48.3303 23.048C48.261 23.2262 48.2263 23.4238 48.2263 23.641C48.2263 23.8583 48.261 24.0559 48.3303 24.234C48.4039 24.4122 48.5057 24.5664 48.6356 24.6967C48.7655 24.827 48.9192 24.927 49.0968 24.9965C49.2744 25.066 49.4692 25.1007 49.6815 25.1007C49.9067 25.1007 50.1145 25.0573 50.3051 24.9704C50.4956 24.8792 50.6689 24.7423 50.8248 24.5599L51.5004 25.1854C51.2838 25.4504 51.0153 25.6525 50.6948 25.7915C50.3787 25.9305 50.0214 26 49.623 26Z" fill="white"/>
<path d="M54.206 26C53.5607 26 53.0561 25.8197 52.6924 25.4591C52.3286 25.0986 52.1467 24.5838 52.1467 23.9147V21.3603H53.1991V23.8756C53.1991 24.3101 53.2878 24.6229 53.4654 24.814C53.643 25.0052 53.892 25.1007 54.2125 25.1007C54.5329 25.1007 54.782 25.0052 54.9595 24.814C55.1371 24.6229 55.2259 24.3101 55.2259 23.8756V21.3603H56.2652V23.9147C56.2652 24.5838 56.0833 25.0986 55.7196 25.4591C55.3558 25.8197 54.8512 26 54.206 26Z" fill="white"/>
<path d="M57.3052 25.9218V21.3603H58.3576V25.0616H60.6377V25.9218H57.3052Z" fill="white"/>
<path d="M61.7426 25.9218V22.2205H60.2875V21.3603H64.2501V22.2205H62.795V25.9218H61.7426Z" fill="white"/>
<path d="M66.7605 26C66.1152 26 65.6107 25.8197 65.2469 25.4591C64.8831 25.0986 64.7012 24.5838 64.7012 23.9147V21.3603H65.7536V23.8756C65.7536 24.3101 65.8424 24.6229 66.02 24.814C66.1975 25.0052 66.4465 25.1007 66.767 25.1007C67.0875 25.1007 67.3365 25.0052 67.5141 24.814C67.6916 24.6229 67.7804 24.3101 67.7804 23.8756V21.3603H68.8198V23.9147C68.8198 24.5838 68.6379 25.0986 68.2741 25.4591C67.9103 25.8197 67.4058 26 66.7605 26Z" fill="white"/>
<path d="M69.8597 25.9218V21.3603H71.8281C72.2351 21.3603 72.5859 21.4276 72.8804 21.5623C73.1749 21.6926 73.4023 21.8816 73.5625 22.1292C73.7228 22.3769 73.8029 22.6723 73.8029 23.0155C73.8029 23.3543 73.7228 23.6476 73.5625 23.8952C73.4023 24.1385 73.1749 24.3253 72.8804 24.4556C72.5859 24.5859 72.2351 24.6511 71.8281 24.6511H70.4444L70.9121 24.1884V25.9218H69.8597ZM72.7505 25.9218L71.6137 24.2666H72.7375L73.8873 25.9218H72.7505ZM70.9121 24.3057L70.4444 23.8105H71.7696C72.0944 23.8105 72.3369 23.741 72.4972 23.6019C72.6574 23.4586 72.7375 23.2631 72.7375 23.0155C72.7375 22.7635 72.6574 22.568 72.4972 22.429C72.3369 22.29 72.0944 22.2205 71.7696 22.2205H70.4444L70.9121 21.7187V24.3057Z" fill="white"/>
<path d="M74.039 25.9218L76.0658 21.3603H77.1052L79.1385 25.9218H78.0342L76.3711 21.8946H76.7869L75.1174 25.9218H74.039ZM75.0524 24.9443L75.3318 24.1428H77.6704L77.9562 24.9443H75.0524Z" fill="white"/>
<path d="M79.6103 25.9218V21.3603H80.6627V25.0616H82.9428V25.9218H79.6103Z" fill="white"/>
<path d="M85.3705 25.9218V21.3603H86.4229V25.9218H85.3705Z" fill="white"/>
<path d="M87.5021 25.9218V21.3603H88.3726L91.0555 24.6446H90.6332V21.3603H91.6726V25.9218H90.8086L88.1192 22.6375H88.5415V25.9218H87.5021Z" fill="white"/>
<path d="M92.7485 25.9218V21.3603H93.8008V25.9218H92.7485Z" fill="white"/>
<path d="M95.8219 25.9218V22.2205H94.3668V21.3603H98.3295V22.2205H96.8743V25.9218H95.8219Z" fill="white"/>
<path d="M98.8957 25.9218V21.3603H99.9481V25.9218H98.8957Z" fill="white"/>
<path d="M100.43 25.9218L102.456 21.3603H103.496L105.529 25.9218H104.425L102.762 21.8946H103.177L101.508 25.9218H100.43ZM101.443 24.9443L101.722 24.1428H104.061L104.347 24.9443H101.443Z" fill="white"/>
<path d="M106.714 25.9218V22.2205H105.259V21.3603H109.222V22.2205H107.767V25.9218H106.714Z" fill="white"/>
<path d="M109.788 25.9218V21.3603H110.841V25.9218H109.788Z" fill="white"/>
<path d="M113.265 25.9218L111.303 21.3603H112.44L114.155 25.4005H113.486L115.227 21.3603H116.273L114.304 25.9218H113.265Z" fill="white"/>
<path d="M117.62 23.1979H119.809V24.019H117.62V23.1979ZM117.698 25.0747H120.173V25.9218H116.652V21.3603H120.089V22.2074H117.698V25.0747Z" fill="white"/>
<path d="M122.505 26C122.141 26 121.792 25.9522 121.459 25.8566C121.125 25.7567 120.857 25.6286 120.653 25.4722L121.01 24.6772C121.205 24.8162 121.435 24.9313 121.699 25.0225C121.968 25.1094 122.238 25.1529 122.511 25.1529C122.719 25.1529 122.886 25.1333 123.011 25.0942C123.141 25.0508 123.236 24.9921 123.297 24.9183C123.358 24.8444 123.388 24.7597 123.388 24.6641C123.388 24.5425 123.34 24.4469 123.245 24.3774C123.15 24.3036 123.024 24.2449 122.868 24.2015C122.712 24.1537 122.539 24.1102 122.349 24.0711C122.162 24.0277 121.974 23.9756 121.784 23.9147C121.597 23.8539 121.426 23.7757 121.27 23.6801C121.114 23.5846 120.987 23.4586 120.887 23.3022C120.792 23.1458 120.744 22.946 120.744 22.7027C120.744 22.442 120.813 22.2053 120.952 21.9924C121.095 21.7752 121.307 21.6036 121.589 21.4776C121.874 21.3473 122.232 21.2821 122.66 21.2821C122.946 21.2821 123.228 21.3168 123.505 21.3864C123.782 21.4515 124.027 21.5514 124.239 21.6861L123.914 22.4876C123.702 22.366 123.49 22.2769 123.278 22.2205C123.065 22.1596 122.858 22.1292 122.654 22.1292C122.45 22.1292 122.284 22.1531 122.154 22.2009C122.024 22.2487 121.931 22.3117 121.874 22.3899C121.818 22.4637 121.79 22.5506 121.79 22.6505C121.79 22.7678 121.838 22.8634 121.933 22.9373C122.028 23.0068 122.154 23.0633 122.31 23.1067C122.466 23.1501 122.637 23.1936 122.823 23.237C123.013 23.2805 123.202 23.3304 123.388 23.3869C123.579 23.4434 123.752 23.5194 123.908 23.615C124.064 23.7106 124.189 23.8365 124.285 23.9929C124.384 24.1493 124.434 24.347 124.434 24.5859C124.434 24.8422 124.362 25.0768 124.22 25.2897C124.077 25.5026 123.862 25.6742 123.576 25.8045C123.295 25.9348 122.938 26 122.505 26Z" fill="white"/>
<defs>
<clipPath id="clip0_560_740">
<rect width="26" height="30" fill="white" transform="translate(0 0.5)"/>
</clipPath>
</defs>
</svg>
