<svg width="75" height="30" viewBox="0 0 75 30" fill="none" xmlns="http://www.w3.org/2000/svg">
<g clip-path="url(#clip0_593_975)">
<path d="M30.4169 22.1967L29.6342 25.2212H29.2945L28.5185 22.2195L24.3787 22.2717L23.5928 29.9445H26.4642L26.7891 26.338H27.1287L27.8457 29.9445H31.083L31.8017 26.338H32.1397L32.4646 29.9445H35.336L34.5369 22.1445L30.4169 22.1967Z" fill="white"/>
<path d="M3.90365 22.531L1.87891 29.9462H4.58786L4.84547 29.0169H7.82516L8.08276 29.9462H10.7917L8.75057 22.4707L3.90365 22.531ZM5.65602 26.4865L6.15647 24.7093H6.50924L7.00968 26.4865H5.65602Z" fill="white"/>
<path d="M20.0801 22.3275V29.94H22.94V22.29L20.0801 22.3275Z" fill="white"/>
<path d="M16.4818 22.3708V24.9371H16.1848L14.7032 22.3937L11.1328 22.4393V29.9442H13.9911V26.6067H14.3012L16.239 29.9442H19.3532V22.335L16.4818 22.3708Z" fill="white"/>
<path d="M70.077 21.696L70.0704 24.9406H69.7718L67.9062 21.7237L64.7264 21.7629L64.71 29.9362L67.5682 29.9428L67.5748 26.6036L67.8865 26.6053L69.8161 29.9477L72.9304 29.9525L72.9484 21.6602L70.077 21.696Z" fill="white"/>
<path d="M63.0659 22.6561C62.8706 22.4702 62.4834 22.1001 61.6745 21.8018L57.6726 21.8523C57.3641 21.9713 56.9047 22.1849 56.4092 22.6496C56.2073 22.8371 55.807 23.2153 55.4821 24.0289C55.3738 24.3012 55.1572 24.8425 55.1572 25.8664C55.1572 26.1893 55.1572 26.8349 55.4887 27.6028C55.5986 27.8588 55.8201 28.3691 56.4157 28.9088C56.6143 29.0882 57.0113 29.4469 57.858 29.7306C58.1402 29.8251 58.7046 30.0126 59.7334 30.0126C60.0763 30.0126 60.7622 30.0126 61.6088 29.7501C61.8911 29.6621 62.4555 29.4876 63.0577 28.9626C63.2578 28.7882 63.6598 28.4376 63.9929 27.6713C64.1029 27.4153 64.3244 26.9034 64.3244 25.8941C64.3244 25.5485 64.3244 24.8572 63.9929 24.0436C63.883 23.7713 63.6631 23.2284 63.0659 22.6561ZM61.5629 26.2365C61.5088 26.3099 61.4005 26.4583 61.1297 26.6132C61.0395 26.6653 60.859 26.7681 60.4997 26.8414C60.3799 26.8659 60.1403 26.9148 59.7351 26.9148C59.5989 26.9148 59.3281 26.9148 58.9704 26.8333C58.8507 26.8056 58.6111 26.7534 58.3338 26.605C58.2419 26.5561 58.0565 26.4566 57.8941 26.2349C57.8399 26.1615 57.7316 26.0132 57.7316 25.7164C57.7316 25.6186 57.7316 25.4213 57.8941 25.2045C57.9482 25.1327 58.0565 24.9893 58.3338 24.8409C58.4257 24.792 58.6111 24.6925 58.977 24.6191C59.0984 24.5947 59.3429 24.5458 59.7351 24.5458C59.8663 24.5458 60.1272 24.5458 60.4931 24.6191C60.6145 24.6436 60.859 24.6925 61.1297 24.8344C61.22 24.8816 61.4005 24.9762 61.5629 25.198C61.6171 25.2713 61.7253 25.4197 61.7253 25.7164C61.7253 25.8175 61.7253 26.0148 61.5629 26.2365Z" fill="white"/>
<path d="M43.5654 22.0304V24.569H45.9626V29.9397H48.8209V24.569H51.3395V21.9326L43.5654 22.0304Z" fill="white"/>
<path d="M51.9053 21.9262V29.9398H54.7652V21.8887L51.9053 21.9262Z" fill="white"/>
<path d="M37.735 22.1036L35.5938 29.9444H38.3027L38.5603 29.015H41.54L41.7976 29.9444H44.5066L42.3489 22.0449L37.735 22.1036ZM39.3725 26.4862L39.873 24.709H40.2257L40.7262 26.4862H39.3725Z" fill="white"/>
<path d="M40.8921 0.496094L38.3062 10.4792H37.3693L34.7817 0.496094H23.9475L21.8096 21.3787L29.7379 21.2907L30.4336 13.5722H31.3705L32.8997 21.2564L42.797 21.1472L44.3049 13.5722H45.2418L45.9211 21.1129L53.8298 21.0265L51.7262 0.496094H40.8921Z" fill="white"/>
<path d="M71.5614 16.5585V10.5552H62.5698V7.42804H74.3343V0.501953H54.7021V21.0161L62.5698 20.9297V16.5585H71.5614Z" fill="white"/>
<path d="M14.7292 9.65717L9.1226 8.77673C8.08234 8.59575 7.5983 7.9876 7.69839 7.44956C7.8034 6.88217 8.22836 6.53325 9.65422 6.53325C14.2616 6.53325 18.3111 7.12999 20.7444 7.8376V2.13923C18.2717 0.984885 14.8244 0.128906 10.7404 0.128906C3.39458 0.128906 0.393555 2.80934 0.393555 6.97999C0.393555 10.9142 2.28704 13.4561 7.30952 14.211L12.9161 15.0914C13.9564 15.2724 14.4404 15.8805 14.342 16.4186C14.237 16.986 13.812 17.3349 12.3861 17.3349C7.77879 17.3349 3.7293 16.7398 1.29599 16.0305V21.6034L19.8173 21.3996C21.0742 20.2452 21.6468 18.7093 21.6468 16.8881C21.6452 12.9539 19.7517 10.4121 14.7292 9.65717Z" fill="white"/>
</g>
<defs>
<clipPath id="clip0_593_975">
<rect width="74" height="30" fill="white" transform="translate(0.328125)"/>
</clipPath>
</defs>
</svg>
