<svg width="258" height="61" viewBox="0 0 258 61" fill="none" xmlns="http://www.w3.org/2000/svg">
<path d="M12.9548 28.9226H15.1808C16.0552 28.9228 16.9087 28.6622 17.6268 28.1758C18.3449 27.6893 18.8932 27.0003 19.1982 26.2012L24.288 12.8673V5.523C24.2869 4.30525 23.7915 3.13743 22.9101 2.27487C22.0286 1.41231 20.8328 0.925157 19.5841 0.919922H1.30469V1.06649C2.3167 1.32272 3.21283 1.89936 3.85245 2.70594C4.49206 3.51252 4.83897 4.50337 4.83871 5.523V55.0001C4.83827 56.0196 4.49111 57.0101 3.8516 57.8165C3.21209 58.623 2.31635 59.1998 1.30469 59.4566V59.6032H19.5841C20.8363 59.6032 22.0373 59.1183 22.9232 58.2552C23.809 57.3921 24.3072 56.2213 24.3083 55.0001V47.6875L19.1779 34.3259C18.8775 33.5266 18.3327 32.8366 17.6171 32.3492C16.9015 31.8618 16.0496 31.6004 15.1767 31.6005H12.9548C12.5906 31.6005 12.2414 31.4594 11.9839 31.2083C11.7264 30.9572 11.5818 30.6167 11.5818 30.2616C11.5818 29.9064 11.7264 29.5659 11.9839 29.3148C12.2414 29.0637 12.5906 28.9226 12.9548 28.9226Z" fill="#F8F7FF"/>
<path d="M19.5833 59.784H1.30393C1.25508 59.783 1.20859 59.7633 1.17442 59.7293C1.14026 59.6952 1.12113 59.6494 1.12114 59.6018V59.4552C1.12081 59.4153 1.13424 59.3764 1.15928 59.3448C1.18433 59.3132 1.21953 59.2907 1.25925 59.2809C2.23146 59.0336 3.09198 58.4785 3.70584 57.7028C4.31969 56.9271 4.65216 55.9746 4.6511 54.9948V5.52162C4.65196 4.54229 4.31934 3.5904 3.70544 2.81536C3.09155 2.04032 2.23114 1.48601 1.25925 1.23942C1.21953 1.22966 1.18433 1.20717 1.15928 1.17556C1.13424 1.14395 1.12081 1.10506 1.12114 1.06512V0.918549C1.1206 0.894809 1.12493 0.871203 1.13387 0.849116C1.14281 0.827029 1.15619 0.806907 1.17322 0.789932C1.19025 0.772958 1.21058 0.759472 1.23303 0.750267C1.25548 0.741062 1.27958 0.736322 1.30393 0.736328H19.5833C20.8848 0.737375 22.1327 1.24175 23.0534 2.13883C23.974 3.0359 24.4923 4.25244 24.4944 5.52162V12.8501C24.4987 12.871 24.4987 12.8926 24.4944 12.9135L19.3762 26.2473C19.0567 27.0822 18.4841 27.8024 17.7344 28.3119C16.9848 28.8214 16.0938 29.0962 15.18 29.0995H12.954C12.6384 29.0995 12.3356 29.2218 12.1124 29.4395C11.8892 29.6571 11.7638 29.9523 11.7638 30.2602C11.7638 30.568 11.8892 30.8632 12.1124 31.0809C12.3356 31.2986 12.6384 31.4208 12.954 31.4208H15.18C16.0896 31.4245 16.9764 31.6988 17.7218 32.207C18.4673 32.7153 19.0359 33.4333 19.3518 34.2651L24.4579 47.6227C24.4613 47.6437 24.4613 47.6651 24.4579 47.6861V54.9948C24.4568 56.2585 23.9441 57.4707 23.0312 58.3676C22.1183 59.2645 20.8792 59.7736 19.5833 59.784ZM1.98636 59.4235H19.5833C20.7871 59.4214 21.941 58.9542 22.7922 58.1241C23.6435 57.294 24.1226 56.1687 24.1248 54.9948V47.7218L19.0065 34.3879C18.7179 33.6244 18.1965 32.9654 17.5124 32.4994C16.8284 32.0335 16.0145 31.7829 15.18 31.7813H12.954C12.5403 31.7813 12.1436 31.6211 11.851 31.3358C11.5585 31.0505 11.3942 30.6636 11.3942 30.2602C11.3942 29.8567 11.5585 29.4698 11.851 29.1846C12.1436 28.8993 12.5403 28.739 12.954 28.739H15.18C16.0158 28.7371 16.8311 28.487 17.5176 28.0221C18.2041 27.5572 18.7291 26.8995 19.0228 26.1364L24.1085 12.8184V5.52162C24.1064 4.35079 23.6293 3.22832 22.7815 2.3993C21.9337 1.57028 20.784 1.10204 19.5833 1.09681H1.97012C2.86802 1.4589 3.63561 2.07259 4.17575 2.86024C4.71589 3.64788 5.0043 4.57408 5.0045 5.52162V54.9948C5.00511 55.943 4.71706 56.87 4.17687 57.6585C3.63668 58.4469 2.86866 59.0612 1.97012 59.4235H1.98636Z" fill="white"/>
<path d="M32.3541 0.920141C31.3253 0.919902 30.321 1.22637 29.4759 1.79846C28.6308 2.37054 27.9853 3.1809 27.6258 4.1209L24.2908 12.8358L19.201 26.1856C18.896 26.9847 18.3477 27.6737 17.6296 28.1601C16.9115 28.6466 16.058 28.9072 15.1836 28.907H36.0506C36.9793 28.9056 37.8856 28.6281 38.6484 28.1114C39.4112 27.5947 39.9943 26.8635 40.3198 26.0152L48.8868 3.6297C49.0979 3.05422 49.4384 2.53212 49.8833 2.10165C50.3282 1.67119 50.8663 1.34329 51.4581 1.14198V0.904297L32.3541 0.920141Z" fill="#D7D0FF"/>
<path d="M36.0461 29.0996H15.1792C15.1526 29.1034 15.1255 29.1016 15.0997 29.0943C15.0739 29.087 15.05 29.0744 15.0297 29.0573C15.0093 29.0402 14.993 29.019 14.9818 28.9952C14.9706 28.9714 14.9648 28.9455 14.9648 28.9193C14.9648 28.8931 14.9706 28.8672 14.9818 28.8434C14.993 28.8196 15.0093 28.7984 15.0297 28.7813C15.05 28.7642 15.0739 28.7516 15.0997 28.7443C15.1255 28.737 15.1526 28.7352 15.1792 28.7391C16.0149 28.7371 16.8303 28.4871 17.5167 28.0222C18.2032 27.5573 18.7282 26.8995 19.0219 26.1365L27.4548 4.05597C27.8293 3.08308 28.4985 2.24438 29.3736 1.65141C30.2487 1.05843 31.2881 0.739275 32.3537 0.736373H51.4455C51.4702 0.735832 51.4948 0.740175 51.5177 0.749141C51.5406 0.758107 51.5614 0.771509 51.5789 0.788539C51.5964 0.805569 51.6101 0.825874 51.6193 0.848227C51.6285 0.87058 51.6329 0.894516 51.6324 0.918594V1.15628C51.632 1.19387 51.6197 1.23042 51.5971 1.26091C51.5746 1.29141 51.5429 1.31436 51.5065 1.32661C50.9419 1.52133 50.4284 1.83539 50.0028 2.24629C49.5772 2.6572 49.2501 3.15478 49.0448 3.70342L40.4819 26.0929C40.1415 26.973 39.5352 27.7316 38.7432 28.2685C37.9511 28.8053 37.0107 29.0951 36.0461 29.0996ZM16.9543 28.7391H36.0461C36.9366 28.7367 37.8052 28.4702 38.5365 27.9749C39.2679 27.4796 39.8274 26.779 40.1407 25.9661L48.7077 3.58061C48.9107 3.02885 49.2279 2.52366 49.6394 2.0964C50.051 1.66913 50.5482 1.32892 51.1002 1.09685H32.3537C31.3631 1.09905 30.3966 1.39554 29.5831 1.94684C28.7696 2.49814 28.1476 3.27807 27.8001 4.18274L19.3753 26.2474C19.1643 26.8012 18.8408 27.3078 18.424 27.7366C18.0073 28.1655 17.506 28.5078 16.9502 28.743L16.9543 28.7391Z" fill="white"/>
<path d="M48.8666 56.869L40.4337 34.8043C40.0719 33.8655 39.4259 33.0562 38.5814 32.4838C37.7369 31.9114 36.7339 31.603 35.7054 31.5996H15.1797C16.0519 31.6004 16.9028 31.8621 17.6176 32.3495C18.3324 32.8369 18.8766 33.5264 19.1768 34.325L24.2869 47.6866L27.7397 56.7105C28.0643 57.5594 28.6471 58.2913 29.4101 58.8081C30.1731 59.325 31.0799 59.6021 32.0089 59.6023H51.4501V59.3646C50.8583 59.1586 50.3202 58.8282 49.8738 58.397C49.4273 57.9657 49.0835 57.4441 48.8666 56.869Z" fill="#CBC2FF"/>
<path d="M51.4535 59.785H32.0124C31.0465 59.7817 30.1045 59.4919 29.3115 58.9542C28.5185 58.4164 27.912 57.6562 27.5725 56.7744L19.0055 34.3889C18.7169 33.6254 18.1955 32.9664 17.5114 32.5005C16.8274 32.0345 16.0135 31.7839 15.179 31.7824C15.1298 31.7813 15.0829 31.7618 15.0481 31.7279C15.0132 31.6939 14.9932 31.6481 14.9922 31.6001C14.9932 31.5525 15.0134 31.5072 15.0483 31.4738C15.0833 31.4405 15.1302 31.4219 15.179 31.4219H35.7048C36.7708 31.4251 37.8106 31.7443 38.6863 32.3372C39.562 32.9301 40.2321 33.7686 40.6077 34.7415L49.0366 56.822C49.2462 57.3714 49.5772 57.8691 50.0062 58.2799C50.4351 58.6906 50.9514 59.0043 51.5185 59.1988C51.5549 59.2107 51.5864 59.2336 51.6083 59.2643C51.6303 59.295 51.6415 59.3317 51.6404 59.3691V59.6068C51.6393 59.6544 51.6192 59.6998 51.5842 59.7331C51.5493 59.7664 51.5024 59.7851 51.4535 59.785ZM16.9461 31.7824C17.4989 32.0153 17.9973 32.3557 18.4107 32.7827C18.8242 33.2098 19.1441 33.7145 19.3508 34.2661L27.9178 56.6477C28.2315 57.4602 28.7912 58.1605 29.5224 58.6557C30.2537 59.1509 31.1221 59.4177 32.0124 59.4206H51.1042C50.5514 59.1872 50.0526 58.8472 49.638 58.4211C49.2233 57.9949 48.9013 57.4914 48.6913 56.9408L40.2584 34.8682C39.9108 33.9636 39.2889 33.1836 38.4754 32.6323C37.6619 32.081 36.6954 31.7846 35.7048 31.7824H16.9461Z" fill="white"/>
<path d="M65.2603 19.9561C64.6082 19.9561 63.9812 19.8512 63.3793 19.6416C62.7858 19.4236 62.326 19.1468 62 18.8114L62.3636 18.0944C62.673 18.3963 63.0868 18.6521 63.6051 18.8617C64.1317 19.063 64.6835 19.1636 65.2603 19.1636C65.812 19.1636 66.2593 19.0965 66.602 18.9623C66.9531 18.8198 67.2081 18.6311 67.3669 18.3963C67.5341 18.1615 67.6177 17.9015 67.6177 17.6164C67.6177 17.2726 67.5174 16.9959 67.3168 16.7862C67.1245 16.5766 66.8695 16.413 66.5518 16.2956C66.2342 16.1699 65.8831 16.0608 65.4985 15.9686C65.114 15.8764 64.7294 15.7799 64.3449 15.6793C63.9603 15.5703 63.6051 15.4277 63.279 15.2516C62.9614 15.0755 62.7022 14.8449 62.5016 14.5598C62.3093 14.2663 62.2132 13.8847 62.2132 13.4151C62.2132 12.9791 62.326 12.5807 62.5517 12.2201C62.7858 11.8512 63.1411 11.5577 63.6176 11.3396C64.0941 11.1132 64.7044 11 65.4484 11C65.9416 11 66.4306 11.0713 66.9155 11.2138C67.4004 11.348 67.8183 11.5367 68.1694 11.7799L67.856 12.522C67.4798 12.2705 67.0785 12.086 66.6522 11.9686C66.2342 11.8512 65.8287 11.7925 65.4358 11.7925C64.9092 11.7925 64.4745 11.8637 64.1317 12.0063C63.789 12.1489 63.534 12.3417 63.3668 12.5849C63.208 12.8197 63.1286 13.0881 63.1286 13.39C63.1286 13.7338 63.2247 14.0105 63.417 14.2202C63.6176 14.4298 63.8767 14.5933 64.1944 14.7107C64.5204 14.8281 64.8757 14.9329 65.2603 15.0252C65.6448 15.1174 66.0252 15.2181 66.4014 15.3271C66.7859 15.4361 67.137 15.5787 67.4547 15.7548C67.7807 15.9225 68.0399 16.1489 68.2321 16.434C68.4328 16.7191 68.5331 17.0923 68.5331 17.5535C68.5331 17.9812 68.4161 18.3795 68.182 18.7485C67.9479 19.1091 67.5884 19.4026 67.1036 19.629C66.6271 19.847 66.0126 19.9561 65.2603 19.9561Z" fill="white"/>
<path d="M74.3418 19.9561C73.2216 19.9561 72.3397 19.6332 71.696 18.9875C71.0523 18.3418 70.7304 17.3858 70.7304 16.1195V11.0755H71.6584V16.0818C71.6584 17.1216 71.8924 17.889 72.3606 18.3837C72.8287 18.8785 73.4891 19.1259 74.3418 19.1259C75.2029 19.1259 75.8675 18.8785 76.3356 18.3837C76.8037 17.889 77.0378 17.1216 77.0378 16.0818V11.0755H77.9407V16.1195C77.9407 17.3858 77.6188 18.3418 76.9751 18.9875C76.3398 19.6332 75.462 19.9561 74.3418 19.9561Z" fill="white"/>
<path d="M80.9877 19.8806V11.0755H84.273C85.017 11.0755 85.6565 11.1971 86.1916 11.4403C86.7266 11.6751 87.1362 12.0189 87.4204 12.4717C87.713 12.9162 87.8593 13.457 87.8593 14.0944C87.8593 14.7149 87.713 15.2516 87.4204 15.7044C87.1362 16.1489 86.7266 16.4927 86.1916 16.7359C85.6565 16.9791 85.017 17.1007 84.273 17.1007H81.5018L81.9156 16.6604V19.8806H80.9877ZM81.9156 16.7359L81.5018 16.2831H84.2479C85.1257 16.2831 85.7903 16.0944 86.2417 15.717C86.7015 15.3313 86.9314 14.7904 86.9314 14.0944C86.9314 13.39 86.7015 12.8449 86.2417 12.4591C85.7903 12.0734 85.1257 11.8805 84.2479 11.8805H81.5018L81.9156 11.4403V16.7359Z" fill="white"/>
<path d="M90.1165 19.8806V11.0755H93.4019C94.1459 11.0755 94.7854 11.1971 95.3204 11.4403C95.8554 11.6751 96.2651 12.0189 96.5493 12.4717C96.8419 12.9162 96.9882 13.457 96.9882 14.0944C96.9882 14.7149 96.8419 15.2516 96.5493 15.7044C96.2651 16.1489 95.8554 16.4927 95.3204 16.7359C94.7854 16.9791 94.1459 17.1007 93.4019 17.1007H90.6306L91.0445 16.6604V19.8806H90.1165ZM91.0445 16.7359L90.6306 16.2831H93.3768C94.2546 16.2831 94.9192 16.0944 95.3706 15.717C95.8304 15.3313 96.0603 14.7904 96.0603 14.0944C96.0603 13.39 95.8304 12.8449 95.3706 12.4591C94.9192 12.0734 94.2546 11.8805 93.3768 11.8805H90.6306L91.0445 11.4403V16.7359Z" fill="white"/>
<path d="M103.205 19.9561C102.545 19.9561 101.93 19.847 101.362 19.629C100.802 19.4026 100.312 19.0881 99.8945 18.6856C99.4849 18.2747 99.163 17.8009 98.929 17.2642C98.7033 16.7191 98.5904 16.1237 98.5904 15.478C98.5904 14.8323 98.7033 14.2411 98.929 13.7044C99.163 13.1593 99.4849 12.6855 99.8945 12.283C100.312 11.8721 100.802 11.5577 101.362 11.3396C101.922 11.1132 102.536 11 103.205 11C103.865 11 104.476 11.1132 105.036 11.3396C105.596 11.5577 106.081 11.8679 106.49 12.2705C106.908 12.673 107.23 13.1468 107.456 13.6918C107.69 14.2369 107.807 14.8323 107.807 15.478C107.807 16.1237 107.69 16.7191 107.456 17.2642C107.23 17.8093 106.908 18.2831 106.49 18.6856C106.081 19.0881 105.596 19.4026 105.036 19.629C104.476 19.847 103.865 19.9561 103.205 19.9561ZM103.205 19.1259C103.732 19.1259 104.216 19.0378 104.66 18.8617C105.111 18.6772 105.5 18.4214 105.826 18.0944C106.16 17.759 106.419 17.3732 106.603 16.9372C106.787 16.4927 106.879 16.0063 106.879 15.478C106.879 14.9497 106.787 14.4675 106.603 14.0315C106.419 13.587 106.16 13.2013 105.826 12.8742C105.5 12.5388 105.111 12.283 104.66 12.1069C104.216 11.9224 103.732 11.8302 103.205 11.8302C102.678 11.8302 102.189 11.9224 101.738 12.1069C101.286 12.283 100.893 12.5388 100.559 12.8742C100.233 13.2013 99.9739 13.587 99.7817 14.0315C99.5977 14.4675 99.5058 14.9497 99.5058 15.478C99.5058 15.9979 99.5977 16.4801 99.7817 16.9246C99.9739 17.369 100.233 17.759 100.559 18.0944C100.893 18.4214 101.286 18.6772 101.738 18.8617C102.189 19.0378 102.678 19.1259 103.205 19.1259Z" fill="white"/>
<path d="M110.138 19.8806V11.0755H113.423C114.167 11.0755 114.807 11.1971 115.342 11.4403C115.877 11.6751 116.286 12.0189 116.57 12.4717C116.863 12.9162 117.009 13.457 117.009 14.0944C117.009 14.7149 116.863 15.2516 116.57 15.7044C116.286 16.1489 115.877 16.4927 115.342 16.7359C114.807 16.9707 114.167 17.0881 113.423 17.0881H110.652L111.066 16.6604V19.8806H110.138ZM116.132 19.8806L113.874 16.6856H114.878L117.147 19.8806H116.132ZM111.066 16.7359L110.652 16.2956H113.398C114.276 16.2956 114.94 16.1028 115.392 15.717C115.851 15.3313 116.081 14.7904 116.081 14.0944C116.081 13.39 115.851 12.8449 115.392 12.4591C114.94 12.0734 114.276 11.8805 113.398 11.8805H110.652L111.066 11.4403V16.7359Z" fill="white"/>
<path d="M121.033 19.8806V11.8805H117.948V11.0755H125.046V11.8805H121.961V19.8806H121.033Z" fill="white"/>
<path d="M127.607 15.0126H132.246V15.8051H127.607V15.0126ZM127.707 19.0755H132.986V19.8806H126.779V11.0755H132.798V11.8805H127.707V19.0755Z" fill="white"/>
<path d="M135.418 19.8806V11.0755H138.992C139.928 11.0755 140.747 11.2642 141.449 11.6415C142.16 12.0105 142.712 12.5262 143.105 13.1887C143.498 13.8512 143.694 14.6143 143.694 15.478C143.694 16.3418 143.498 17.1049 143.105 17.7674C142.712 18.4298 142.16 18.9498 141.449 19.3271C140.747 19.6961 139.928 19.8806 138.992 19.8806H135.418ZM136.346 19.0755H138.942C139.719 19.0755 140.392 18.9246 140.96 18.6227C141.537 18.3124 141.985 17.889 142.302 17.3523C142.62 16.8072 142.779 16.1824 142.779 15.478C142.779 14.7652 142.62 14.1405 142.302 13.6038C141.985 13.0671 141.537 12.6478 140.96 12.3459C140.392 12.0356 139.719 11.8805 138.942 11.8805H136.346V19.0755Z" fill="white"/>
<path d="M149.561 19.8806V11.0755H153.348C154.326 11.0755 155.083 11.2725 155.618 11.6667C156.161 12.0608 156.433 12.6185 156.433 13.3396C156.433 13.8176 156.32 14.2202 156.094 14.5472C155.877 14.8742 155.576 15.1216 155.191 15.2893C154.815 15.4571 154.401 15.5409 153.95 15.5409L154.163 15.239C154.723 15.239 155.204 15.3271 155.605 15.5032C156.015 15.6709 156.333 15.9267 156.558 16.2705C156.784 16.6059 156.897 17.0252 156.897 17.5284C156.897 18.2747 156.621 18.8533 156.069 19.2642C155.526 19.6751 154.702 19.8806 153.599 19.8806H149.561ZM150.489 19.1133H153.586C154.355 19.1133 154.945 18.9833 155.354 18.7233C155.764 18.455 155.969 18.0315 155.969 17.4529C155.969 16.8827 155.764 16.4676 155.354 16.2076C154.945 15.9392 154.355 15.8051 153.586 15.8051H150.389V15.0378H153.285C153.988 15.0378 154.531 14.9036 154.916 14.6353C155.308 14.3669 155.505 13.9686 155.505 13.4403C155.505 12.9036 155.308 12.5053 154.916 12.2453C154.531 11.9769 153.988 11.8428 153.285 11.8428H150.489V19.1133Z" fill="white"/>
<path d="M161.176 19.8806V16.6101L161.389 17.1887L157.665 11.0755H158.656L161.928 16.4466H161.402L164.675 11.0755H165.602L161.878 17.1887L162.091 16.6101V19.8806H161.176Z" fill="white"/>
<path d="M62.489 35.3621V26.2391H66.4257C67.2398 26.2391 67.9414 26.3737 68.5304 26.6431C69.1194 26.9037 69.5741 27.2817 69.8946 27.7769C70.2151 28.2722 70.3753 28.863 70.3753 29.5494C70.3753 30.2271 70.2151 30.8136 69.8946 31.3089C69.5741 31.8041 69.1194 32.1864 68.5304 32.4558C67.9414 32.7164 67.2398 32.8467 66.4257 32.8467H63.6583L64.5938 31.8953V35.3621H62.489ZM64.5938 32.1299L63.6583 31.1264H66.3087C66.9583 31.1264 67.4434 30.9874 67.7639 30.7093C68.0843 30.4313 68.2446 30.0447 68.2446 29.5494C68.2446 29.0455 68.0843 28.6545 67.7639 28.3765C67.4434 28.0984 66.9583 27.9594 66.3087 27.9594H63.6583L64.5938 26.9559V32.1299Z" fill="white"/>
<path d="M71.8779 35.3621V26.2391H75.8146C76.6288 26.2391 77.3304 26.3737 77.9194 26.6431C78.5083 26.9037 78.9631 27.2817 79.2835 27.7769C79.604 28.2722 79.7643 28.863 79.7643 29.5494C79.7643 30.2271 79.604 30.8136 79.2835 31.3089C78.9631 31.7954 78.5083 32.169 77.9194 32.4297C77.3304 32.6903 76.6288 32.8207 75.8146 32.8207H73.0473L73.9827 31.8953V35.3621H71.8779ZM77.6595 35.3621L75.3859 32.0517H77.6335L79.9332 35.3621H77.6595ZM73.9827 32.1299L73.0473 31.1394H75.6977C76.3473 31.1394 76.8323 31.0004 77.1528 30.7224C77.4733 30.4357 77.6335 30.0447 77.6335 29.5494C77.6335 29.0455 77.4733 28.6545 77.1528 28.3765C76.8323 28.0984 76.3473 27.9594 75.6977 27.9594H73.0473L73.9827 26.9559V32.1299Z" fill="white"/>
<path d="M83.3677 29.9143H87.7461V31.5565H83.3677V29.9143ZM83.5236 33.6678H88.4737V35.3621H81.4318V26.2391H88.3048V27.9333H83.5236V33.6678Z" fill="white"/>
<path d="M93.1366 35.5185C92.409 35.5185 91.7117 35.4229 91.0448 35.2318C90.3779 35.0319 89.8409 34.7756 89.4338 34.4628L90.1483 32.8728C90.5381 33.1508 90.9972 33.3811 91.5255 33.5636C92.0625 33.7373 92.6039 33.8242 93.1496 33.8242C93.5653 33.8242 93.8988 33.7851 94.15 33.7069C94.4098 33.62 94.6004 33.5027 94.7216 33.355C94.8429 33.2073 94.9035 33.0379 94.9035 32.8467C94.9035 32.6035 94.8082 32.4123 94.6177 32.2733C94.4271 32.1256 94.1759 32.0083 93.8641 31.9214C93.5523 31.8258 93.2059 31.7389 92.8247 31.6607C92.4523 31.5739 92.0755 31.4696 91.6944 31.348C91.322 31.2263 90.9798 31.0699 90.668 30.8788C90.3562 30.6876 90.1007 30.4357 89.9015 30.1229C89.7109 29.8101 89.6157 29.4104 89.6157 28.9238C89.6157 28.4025 89.7542 27.929 90.0314 27.5033C90.3172 27.0688 90.7417 26.7256 91.3046 26.4737C91.8763 26.213 92.5909 26.0827 93.4484 26.0827C94.02 26.0827 94.583 26.1522 95.1374 26.2912C95.6917 26.4215 96.1811 26.6214 96.6055 26.8907L95.9559 28.4938C95.5315 28.2505 95.1071 28.0724 94.6826 27.9594C94.2582 27.8378 93.8425 27.7769 93.4354 27.7769C93.0283 27.7769 92.6948 27.8247 92.435 27.9203C92.1751 28.0159 91.9889 28.1419 91.8763 28.2983C91.7637 28.446 91.7074 28.6197 91.7074 28.8196C91.7074 29.0542 91.8027 29.2453 91.9932 29.393C92.1838 29.532 92.435 29.645 92.7468 29.7319C93.0586 29.8188 93.4007 29.9057 93.7732 29.9925C94.1543 30.0794 94.5311 30.1793 94.9035 30.2923C95.2846 30.4052 95.6311 30.5573 95.9429 30.7484C96.2547 30.9396 96.5059 31.1916 96.6964 31.5044C96.8957 31.8171 96.9953 32.2125 96.9953 32.6903C96.9953 33.203 96.8524 33.6722 96.5665 34.0979C96.2807 34.5236 95.8519 34.8668 95.2803 35.1275C94.7173 35.3882 94.0027 35.5185 93.1366 35.5185Z" fill="white"/>
<path d="M98.4334 35.3621V26.2391H100.538V35.3621H98.4334Z" fill="white"/>
<path d="M102.697 35.3621V26.2391H106.828C107.815 26.2391 108.686 26.4302 109.44 26.8125C110.193 27.1861 110.782 27.7118 111.206 28.3895C111.631 29.0672 111.843 29.8709 111.843 30.8006C111.843 31.7216 111.631 32.5253 111.206 33.2117C110.782 33.8894 110.193 34.4194 109.44 34.8017C108.686 35.1753 107.815 35.3621 106.828 35.3621H102.697ZM104.801 33.6287H106.724C107.33 33.6287 107.854 33.5158 108.296 33.2899C108.747 33.0553 109.093 32.7251 109.336 32.2994C109.587 31.8736 109.712 31.374 109.712 30.8006C109.712 30.2184 109.587 29.7188 109.336 29.3018C109.093 28.8761 108.747 28.5502 108.296 28.3243C107.854 28.0897 107.33 27.9724 106.724 27.9724H104.801V33.6287Z" fill="white"/>
<path d="M115.366 29.9143H119.745V31.5565H115.366V29.9143ZM115.522 33.6678H120.472V35.3621H113.43V26.2391H120.303V27.9333H115.522V33.6678Z" fill="white"/>
<path d="M122.147 35.3621V26.2391H123.888L129.254 32.8076H128.409V26.2391H130.488V35.3621H128.76L123.381 28.7935H124.226V35.3621H122.147Z" fill="white"/>
<path d="M134.524 35.3621V27.9594H131.613V26.2391H139.539V27.9594H136.628V35.3621H134.524Z" fill="white"/>
<path d="M140.671 35.3621V26.2391H142.776V35.3621H140.671Z" fill="white"/>
<path d="M143.739 35.3621L147.792 26.2391H149.871L153.938 35.3621H151.729L148.403 27.3078H149.235L145.896 35.3621H143.739ZM145.766 33.4072L146.324 31.8041H151.002L151.573 33.4072H145.766Z" fill="white"/>
<path d="M154.881 35.3621V26.2391H156.986V33.6418H161.546V35.3621H154.881Z" fill="white"/>
<path d="M168.351 30.3444H172.716V32.0387H168.351V30.3444ZM168.507 35.3621H166.402V26.2391H173.275V27.9333H168.507V35.3621Z" fill="white"/>
<path d="M179.028 35.5185C178.309 35.5185 177.642 35.4012 177.027 35.1666C176.421 34.932 175.893 34.6018 175.442 34.1761C175.001 33.7504 174.654 33.2508 174.403 32.6773C174.16 32.1039 174.039 31.4783 174.039 30.8006C174.039 30.1229 174.16 29.4973 174.403 28.9238C174.654 28.3504 175.005 27.8508 175.455 27.4251C175.906 26.9993 176.434 26.6691 177.04 26.4346C177.647 26.2 178.305 26.0827 179.015 26.0827C179.734 26.0827 180.392 26.2 180.99 26.4346C181.596 26.6691 182.12 26.9993 182.562 27.4251C183.012 27.8508 183.363 28.3504 183.614 28.9238C183.866 29.4886 183.991 30.1142 183.991 30.8006C183.991 31.4783 183.866 32.1082 183.614 32.6903C183.363 33.2638 183.012 33.7634 182.562 34.1891C182.12 34.6062 181.596 34.932 180.99 35.1666C180.392 35.4012 179.738 35.5185 179.028 35.5185ZM179.015 33.7199C179.422 33.7199 179.795 33.6504 180.133 33.5114C180.479 33.3724 180.782 33.1726 181.042 32.9119C181.302 32.6512 181.501 32.3428 181.64 31.9866C181.787 31.6303 181.861 31.235 181.861 30.8006C181.861 30.3661 181.787 29.9708 181.64 29.6146C181.501 29.2583 181.302 28.9499 181.042 28.6892C180.791 28.4286 180.492 28.2287 180.146 28.0897C179.799 27.9507 179.422 27.8812 179.015 27.8812C178.608 27.8812 178.231 27.9507 177.885 28.0897C177.547 28.2287 177.248 28.4286 176.988 28.6892C176.729 28.9499 176.525 29.2583 176.378 29.6146C176.239 29.9708 176.17 30.3661 176.17 30.8006C176.17 31.2263 176.239 31.6216 176.378 31.9866C176.525 32.3428 176.724 32.6512 176.975 32.9119C177.235 33.1726 177.538 33.3724 177.885 33.5114C178.231 33.6504 178.608 33.7199 179.015 33.7199Z" fill="white"/>
<path d="M189.614 35.5185C188.323 35.5185 187.314 35.1579 186.586 34.4368C185.859 33.7156 185.495 32.686 185.495 31.348V26.2391H187.6V31.2698C187.6 32.1386 187.777 32.7642 188.133 33.1465C188.488 33.5288 188.986 33.7199 189.627 33.7199C190.268 33.7199 190.766 33.5288 191.121 33.1465C191.476 32.7642 191.653 32.1386 191.653 31.2698V26.2391H193.732V31.348C193.732 32.686 193.368 33.7156 192.641 34.4368C191.913 35.1579 190.904 35.5185 189.614 35.5185Z" fill="white"/>
<path d="M195.812 35.3621V26.2391H197.553L202.919 32.8076H202.074V26.2391H204.153V35.3621H202.425L197.046 28.7935H197.891V35.3621H195.812Z" fill="white"/>
<path d="M206.305 35.3621V26.2391H210.436C211.424 26.2391 212.294 26.4302 213.048 26.8125C213.801 27.1861 214.39 27.7118 214.815 28.3895C215.239 29.0672 215.451 29.8709 215.451 30.8006C215.451 31.7216 215.239 32.5253 214.815 33.2117C214.39 33.8894 213.801 34.4194 213.048 34.8017C212.294 35.1753 211.424 35.3621 210.436 35.3621H206.305ZM208.41 33.6287H210.332C210.939 33.6287 211.463 33.5158 211.905 33.2899C212.355 33.0553 212.701 32.7251 212.944 32.2994C213.195 31.8736 213.321 31.374 213.321 30.8006C213.321 30.2184 213.195 29.7188 212.944 29.3018C212.701 28.8761 212.355 28.5502 211.905 28.3243C211.463 28.0897 210.939 27.9724 210.332 27.9724H208.41V33.6287Z" fill="white"/>
<path d="M215.717 35.3621L219.77 26.2391H221.849L225.915 35.3621H223.707L220.381 27.3078H221.212L217.873 35.3621H215.717ZM217.743 33.4072L218.302 31.8041H222.979L223.551 33.4072H217.743Z" fill="white"/>
<path d="M228.286 35.3621V27.9594H225.376V26.2391H233.301V27.9594H230.391V35.3621H228.286Z" fill="white"/>
<path d="M234.434 35.3621V26.2391H236.538V35.3621H234.434Z" fill="white"/>
<path d="M243.114 35.5185C242.395 35.5185 241.728 35.4012 241.113 35.1666C240.507 34.932 239.979 34.6018 239.528 34.1761C239.087 33.7504 238.74 33.2508 238.489 32.6773C238.246 32.1039 238.125 31.4783 238.125 30.8006C238.125 30.1229 238.246 29.4973 238.489 28.9238C238.74 28.3504 239.091 27.8508 239.541 27.4251C239.992 26.9993 240.52 26.6691 241.126 26.4346C241.733 26.2 242.391 26.0827 243.101 26.0827C243.82 26.0827 244.478 26.2 245.076 26.4346C245.682 26.6691 246.206 26.9993 246.648 27.4251C247.098 27.8508 247.449 28.3504 247.7 28.9238C247.952 29.4886 248.077 30.1142 248.077 30.8006C248.077 31.4783 247.952 32.1082 247.7 32.6903C247.449 33.2638 247.098 33.7634 246.648 34.1891C246.206 34.6062 245.682 34.932 245.076 35.1666C244.478 35.4012 243.824 35.5185 243.114 35.5185ZM243.101 33.7199C243.508 33.7199 243.881 33.6504 244.218 33.5114C244.565 33.3724 244.868 33.1726 245.128 32.9119C245.388 32.6512 245.587 32.3428 245.726 31.9866C245.873 31.6303 245.946 31.235 245.946 30.8006C245.946 30.3661 245.873 29.9708 245.726 29.6146C245.587 29.2583 245.388 28.9499 245.128 28.6892C244.877 28.4286 244.578 28.2287 244.231 28.0897C243.885 27.9507 243.508 27.8812 243.101 27.8812C242.694 27.8812 242.317 27.9507 241.971 28.0897C241.633 28.2287 241.334 28.4286 241.074 28.6892C240.814 28.9499 240.611 29.2583 240.464 29.6146C240.325 29.9708 240.256 30.3661 240.256 30.8006C240.256 31.2263 240.325 31.6216 240.464 31.9866C240.611 32.3428 240.81 32.6512 241.061 32.9119C241.321 33.1726 241.624 33.3724 241.971 33.5114C242.317 33.6504 242.694 33.7199 243.101 33.7199Z" fill="white"/>
<path d="M249.659 35.3621V26.2391H251.4L256.766 32.8076H255.921V26.2391H258V35.3621H256.272L250.893 28.7935H251.738V35.3621H249.659Z" fill="white"/>
<path d="M64.4378 45.8259H68.8032V47.5202H64.4378V45.8259ZM64.5938 50.8436H62.489V41.7206H69.3619V43.4148H64.5938V50.8436Z" fill="white"/>
<path d="M75.1154 51C74.3965 51 73.7295 50.8827 73.1146 50.6481C72.5082 50.4135 71.9799 50.0834 71.5295 49.6576C71.0878 49.2319 70.7413 48.7323 70.4901 48.1588C70.2476 47.5854 70.1263 46.9598 70.1263 46.2821C70.1263 45.6044 70.2476 44.9788 70.4901 44.4053C70.7413 43.8319 71.0921 43.3323 71.5425 42.9066C71.9929 42.4808 72.5212 42.1507 73.1275 41.9161C73.7338 41.6815 74.3921 41.5642 75.1024 41.5642C75.8213 41.5642 76.4796 41.6815 77.0772 41.9161C77.6835 42.1507 78.2075 42.4808 78.6493 42.9066C79.0997 43.3323 79.4504 43.8319 79.7016 44.4053C79.9528 44.9701 80.0784 45.5957 80.0784 46.2821C80.0784 46.9598 79.9528 47.5897 79.7016 48.1719C79.4504 48.7453 79.0997 49.2449 78.6493 49.6706C78.2075 50.0877 77.6835 50.4135 77.0772 50.6481C76.4796 50.8827 75.8256 51 75.1154 51ZM75.1024 49.2015C75.5095 49.2015 75.8819 49.132 76.2197 48.9929C76.5662 48.8539 76.8693 48.6541 77.1292 48.3934C77.389 48.1328 77.5882 47.8243 77.7268 47.4681C77.8741 47.1119 77.9477 46.7165 77.9477 46.2821C77.9477 45.8477 77.8741 45.4523 77.7268 45.0961C77.5882 44.7399 77.389 44.4314 77.1292 44.1708C76.878 43.9101 76.5792 43.7103 76.2327 43.5712C75.8862 43.4322 75.5095 43.3627 75.1024 43.3627C74.6953 43.3627 74.3185 43.4322 73.972 43.5712C73.6342 43.7103 73.3354 43.9101 73.0756 44.1708C72.8157 44.4314 72.6122 44.7399 72.4649 45.0961C72.3264 45.4523 72.2571 45.8477 72.2571 46.2821C72.2571 46.7078 72.3264 47.1032 72.4649 47.4681C72.6122 47.8243 72.8114 48.1328 73.0626 48.3934C73.3224 48.6541 73.6256 48.8539 73.972 48.9929C74.3185 49.132 74.6953 49.2015 75.1024 49.2015Z" fill="white"/>
<path d="M81.6602 50.8436V41.7206H85.5969C86.4111 41.7206 87.1126 41.8552 87.7016 42.1246C88.2906 42.3853 88.7453 42.7632 89.0658 43.2585C89.3863 43.7537 89.5465 44.3445 89.5465 45.0309C89.5465 45.7086 89.3863 46.2951 89.0658 46.7904C88.7453 47.2769 88.2906 47.6505 87.7016 47.9112C87.1126 48.1719 86.4111 48.3022 85.5969 48.3022H82.8295L83.765 47.3769V50.8436H81.6602ZM87.4418 50.8436L85.1681 47.5332H87.4158L89.7154 50.8436H87.4418ZM83.765 47.6114L82.8295 46.6209H85.4799C86.1296 46.6209 86.6146 46.4819 86.9351 46.2039C87.2556 45.9172 87.4158 45.5262 87.4158 45.0309C87.4158 44.527 87.2556 44.136 86.9351 43.858C86.6146 43.5799 86.1296 43.4409 85.4799 43.4409H82.8295L83.765 42.4374V47.6114Z" fill="white"/>
<path d="M99.246 51C98.5444 51 97.8904 50.887 97.2841 50.6611C96.6865 50.4266 96.1668 50.0964 95.7251 49.6706C95.2833 49.2449 94.9369 48.7453 94.6857 48.1719C94.4432 47.5984 94.3219 46.9685 94.3219 46.2821C94.3219 45.5957 94.4432 44.9658 94.6857 44.3923C94.9369 43.8189 95.2833 43.3193 95.7251 42.8935C96.1755 42.4678 96.6995 42.142 97.2971 41.9161C97.8948 41.6815 98.5487 41.5642 99.259 41.5642C100.047 41.5642 100.757 41.7032 101.39 41.9812C102.031 42.2506 102.568 42.6503 103.001 43.1803L101.65 44.4314C101.338 44.0752 100.991 43.8102 100.61 43.6364C100.229 43.4539 99.8133 43.3627 99.3629 43.3627C98.9385 43.3627 98.5487 43.4322 98.1936 43.5712C97.8385 43.7103 97.531 43.9101 97.2711 44.1708C97.0113 44.4314 96.8078 44.7399 96.6605 45.0961C96.5219 45.4523 96.4526 45.8477 96.4526 46.2821C96.4526 46.7165 96.5219 47.1119 96.6605 47.4681C96.8078 47.8243 97.0113 48.1328 97.2711 48.3934C97.531 48.6541 97.8385 48.8539 98.1936 48.9929C98.5487 49.132 98.9385 49.2015 99.3629 49.2015C99.8133 49.2015 100.229 49.1146 100.61 48.9408C100.991 48.7583 101.338 48.4846 101.65 48.1197L103.001 49.3709C102.568 49.9009 102.031 50.3049 101.39 50.5829C100.757 50.861 100.043 51 99.246 51Z" fill="white"/>
<path d="M108.412 51C107.121 51 106.112 50.6394 105.385 49.9183C104.657 49.1971 104.293 48.1675 104.293 46.8295V41.7206H106.398V46.7513C106.398 47.6201 106.576 48.2457 106.931 48.628C107.286 49.0103 107.784 49.2015 108.425 49.2015C109.066 49.2015 109.564 49.0103 109.919 48.628C110.274 48.2457 110.452 47.6201 110.452 46.7513V41.7206H112.53V46.8295C112.53 48.1675 112.167 49.1971 111.439 49.9183C110.712 50.6394 109.702 51 108.412 51Z" fill="white"/>
<path d="M114.61 50.8436V41.7206H116.715V49.1233H121.275V50.8436H114.61Z" fill="white"/>
<path d="M123.485 50.8436V43.4409H120.575V41.7206H128.5V43.4409H125.59V50.8436H123.485Z" fill="white"/>
<path d="M133.521 51C132.23 51 131.221 50.6394 130.494 49.9183C129.766 49.1971 129.402 48.1675 129.402 46.8295V41.7206H131.507V46.7513C131.507 47.6201 131.685 48.2457 132.04 48.628C132.395 49.0103 132.893 49.2015 133.534 49.2015C134.175 49.2015 134.673 49.0103 135.028 48.628C135.383 48.2457 135.561 47.6201 135.561 46.7513V41.7206H137.64V46.8295C137.64 48.1675 137.276 49.1971 136.548 49.9183C135.821 50.6394 134.812 51 133.521 51Z" fill="white"/>
<path d="M139.719 50.8436V41.7206H143.656C144.47 41.7206 145.172 41.8552 145.761 42.1246C146.35 42.3853 146.805 42.7632 147.125 43.2585C147.446 43.7537 147.606 44.3445 147.606 45.0309C147.606 45.7086 147.446 46.2951 147.125 46.7904C146.805 47.2769 146.35 47.6505 145.761 47.9112C145.172 48.1719 144.47 48.3022 143.656 48.3022H140.889L141.824 47.3769V50.8436H139.719ZM145.501 50.8436L143.227 47.5332H145.475L147.775 50.8436H145.501ZM141.824 47.6114L140.889 46.6209H143.539C144.189 46.6209 144.674 46.4819 144.994 46.2039C145.315 45.9172 145.475 45.5262 145.475 45.0309C145.475 44.527 145.315 44.136 144.994 43.858C144.674 43.5799 144.189 43.4409 143.539 43.4409H140.889L141.824 42.4374V47.6114Z" fill="white"/>
<path d="M148.078 50.8436L152.132 41.7206H154.21L158.277 50.8436H156.068L152.742 42.7893H153.574L150.235 50.8436H148.078ZM150.105 48.8887L150.664 47.2856H155.341L155.912 48.8887H150.105Z" fill="white"/>
<path d="M159.221 50.8436V41.7206H161.325V49.1233H165.886V50.8436H159.221Z" fill="white"/>
<path d="M170.741 50.8436V41.7206H172.846V50.8436H170.741Z" fill="white"/>
<path d="M175.004 50.8436V41.7206H176.745L182.111 48.2892H181.266V41.7206H183.345V50.8436H181.617L176.238 44.275H177.083V50.8436H175.004Z" fill="white"/>
<path d="M185.497 50.8436V41.7206H187.602V50.8436H185.497Z" fill="white"/>
<path d="M191.644 50.8436V43.4409H188.734V41.7206H196.659V43.4409H193.749V50.8436H191.644Z" fill="white"/>
<path d="M197.791 50.8436V41.7206H199.896V50.8436H197.791Z" fill="white"/>
<path d="M200.859 50.8436L204.913 41.7206H206.992L211.058 50.8436H208.849L205.523 42.7893H206.355L203.016 50.8436H200.859ZM202.886 48.8887L203.445 47.2856H208.122L208.694 48.8887H202.886Z" fill="white"/>
<path d="M213.429 50.8436V43.4409H210.519V41.7206H218.444V43.4409H215.534V50.8436H213.429Z" fill="white"/>
<path d="M219.576 50.8436V41.7206H221.681V50.8436H219.576Z" fill="white"/>
<path d="M226.53 50.8436L222.606 41.7206H224.88L228.31 49.801H226.971L230.453 41.7206H232.545L228.608 50.8436H226.53Z" fill="white"/>
<path d="M235.24 45.3958H239.619V47.038H235.24V45.3958ZM235.396 49.1493H240.346V50.8436H233.304V41.7206H240.177V43.4148H235.396V49.1493Z" fill="white"/>
<path d="M245.009 51C244.282 51 243.584 50.9044 242.917 50.7133C242.25 50.5134 241.713 50.2571 241.306 49.9443L242.021 48.3543C242.411 48.6324 242.87 48.8626 243.398 49.0451C243.935 49.2188 244.476 49.3057 245.022 49.3057C245.438 49.3057 245.771 49.2666 246.023 49.1884C246.282 49.1015 246.473 48.9842 246.594 48.8365C246.715 48.6888 246.776 48.5194 246.776 48.3283C246.776 48.085 246.681 47.8938 246.49 47.7548C246.3 47.6071 246.049 47.4898 245.737 47.4029C245.425 47.3073 245.078 47.2205 244.697 47.1423C244.325 47.0554 243.948 46.9511 243.567 46.8295C243.195 46.7078 242.852 46.5514 242.541 46.3603C242.229 46.1691 241.973 45.9172 241.774 45.6044C241.584 45.2916 241.488 44.8919 241.488 44.4053C241.488 43.884 241.627 43.4105 241.904 42.9848C242.19 42.5503 242.614 42.2071 243.177 41.9552C243.749 41.6945 244.463 41.5642 245.321 41.5642C245.893 41.5642 246.456 41.6337 247.01 41.7727C247.564 41.903 248.054 42.1029 248.478 42.3722L247.828 43.9753C247.404 43.732 246.98 43.5539 246.555 43.4409C246.131 43.3193 245.715 43.2585 245.308 43.2585C244.901 43.2585 244.567 43.3062 244.308 43.4018C244.048 43.4974 243.861 43.6234 243.749 43.7798C243.636 43.9275 243.58 44.1012 243.58 44.3011C243.58 44.5357 243.675 44.7268 243.866 44.8745C244.056 45.0136 244.308 45.1265 244.619 45.2134C244.931 45.3003 245.273 45.3872 245.646 45.474C246.027 45.5609 246.404 45.6609 246.776 45.7738C247.157 45.8868 247.504 46.0388 247.815 46.23C248.127 46.4211 248.378 46.6731 248.569 46.9859C248.768 47.2987 248.868 47.694 248.868 48.1719C248.868 48.6845 248.725 49.1537 248.439 49.5794C248.153 50.0052 247.725 50.3484 247.153 50.609C246.59 50.8697 245.875 51 245.009 51Z" fill="white"/>
</svg>
