<svg width="152" height="60" viewBox="0 0 152 60" fill="none" xmlns="http://www.w3.org/2000/svg">
<g clip-path="url(#clip0_593_4192)">
<mask id="mask0_593_4192" style="mask-type:luminance" maskUnits="userSpaceOnUse" x="-290" y="-229" width="733" height="518">
<path d="M442.007 -228.695H-289.234V288.94H442.007V-228.695Z" fill="white"/>
</mask>
<g mask="url(#mask0_593_4192)">
<path d="M41.5792 17.8175C41.5792 18.3045 41.171 18.7132 40.6846 18.7132H39.3557C38.8693 18.7132 38.4611 18.3045 38.4611 17.8175V16.8784C34.8131 16.8349 32.3984 14.948 32.3984 11.5306C32.3984 8.15665 34.8739 6.27836 38.4611 6.18271V5.63491C38.4611 5.14795 38.8693 4.73926 39.3557 4.73926H40.6846C41.171 4.73926 41.5792 5.14795 41.5792 5.63491V6.18271C45.1317 6.26097 47.6853 8.19143 47.6853 11.5306C47.6853 14.9306 45.2099 16.8436 41.5792 16.8784V17.8175ZM35.7164 11.5306C35.7164 13.1132 36.5589 13.974 38.4698 14.0088V9.05229C36.4721 9.11316 35.7164 10.2088 35.7164 11.5306ZM44.3674 11.5306C44.3674 10.2436 43.6638 9.11316 41.5792 9.05229V14.0088C43.6291 13.974 44.3674 13.1393 44.3674 11.5306Z" fill="white"/>
</g>
<mask id="mask1_593_4192" style="mask-type:luminance" maskUnits="userSpaceOnUse" x="-290" y="-229" width="733" height="518">
<path d="M442.007 -228.695H-289.234V288.94H442.007V-228.695Z" fill="white"/>
</mask>
<g mask="url(#mask1_593_4192)">
<path d="M56.2916 4.66113C60.4434 4.66113 63.5442 7.37418 63.5442 11.7307C63.5442 15.8698 60.4434 18.8003 56.2916 18.8003C52.1399 18.8003 49.0391 16.0872 49.0391 11.7307C49.0391 7.76549 51.9488 4.66113 56.2916 4.66113ZM56.2916 15.8698C58.88 15.8698 60.2263 14.0351 60.2263 11.7307C60.2263 9.23505 58.4891 7.59159 56.2916 7.59159C54.0334 7.59159 52.357 9.23505 52.357 11.7307C52.357 14.0698 54.1115 15.8698 56.2916 15.8698Z" fill="white"/>
</g>
<mask id="mask2_593_4192" style="mask-type:luminance" maskUnits="userSpaceOnUse" x="-290" y="-229" width="733" height="518">
<path d="M442.007 -228.695H-289.234V288.94H442.007V-228.695Z" fill="white"/>
</mask>
<g mask="url(#mask2_593_4192)">
<path d="M77.2847 17.6617C77.2847 18.1487 76.8764 18.5573 76.39 18.5573H75.0611C74.5747 18.5573 74.1665 18.1487 74.1665 17.6617V13.053H69.1983V17.6617C69.1983 18.1487 68.79 18.5573 68.3036 18.5573H66.9747C66.4883 18.5573 66.0801 18.1487 66.0801 17.6617V5.79214C66.0801 5.30518 66.4883 4.89648 66.9747 4.89648H68.3036C68.79 4.89648 69.1983 5.30518 69.1983 5.79214V10.1226H74.1665V5.79214C74.1665 5.30518 74.5747 4.89648 75.0611 4.89648H76.39C76.8764 4.89648 77.2847 5.30518 77.2847 5.79214V17.6617Z" fill="white"/>
</g>
<mask id="mask3_593_4192" style="mask-type:luminance" maskUnits="userSpaceOnUse" x="-290" y="-229" width="733" height="518">
<path d="M442.007 -228.695H-289.234V288.94H442.007V-228.695Z" fill="white"/>
</mask>
<g mask="url(#mask3_593_4192)">
<path d="M82.1586 20.0097C82.1586 20.4967 81.7504 20.9054 81.264 20.9054H80.1349C79.6485 20.9054 79.2402 20.4967 79.2402 20.0097V16.5401C79.2402 16.0532 79.6485 15.6445 80.1349 15.6445H80.6994C81.2466 14.9401 82.4713 12.1141 82.6711 7.64451L82.7492 5.80971C82.7666 5.32276 83.2009 4.91406 83.6873 4.91406H90.8096C91.296 4.91406 91.7042 5.32276 91.7042 5.80971V15.6445H92.6596C93.146 15.6445 93.563 16.0532 93.563 16.5401V20.0097C93.563 20.4967 93.1547 20.9054 92.6596 20.9054H91.5305C91.0441 20.9054 90.6359 20.4967 90.6359 20.0097V18.5662H82.176V20.0097H82.1586ZM88.5687 7.82711H85.7979L85.5808 10.1315C85.3637 12.4967 84.5906 15.0271 84.1216 15.6358H88.5687V7.82711Z" fill="white"/>
</g>
<mask id="mask4_593_4192" style="mask-type:luminance" maskUnits="userSpaceOnUse" x="-290" y="-229" width="733" height="518">
<path d="M442.007 -228.695H-289.234V288.94H442.007V-228.695Z" fill="white"/>
</mask>
<g mask="url(#mask4_593_4192)">
<path d="M36.2375 54.7131L35.3603 56.9392C35.2039 57.3305 34.8305 57.5827 34.4222 57.5827H33.2323C32.7459 57.5827 32.3984 57.174 32.3984 56.7392C32.3984 56.6261 32.4158 56.5044 32.4592 56.4087L37.3754 44.5566C37.5491 44.1653 37.9226 43.9131 38.3308 43.9131H39.7552C40.1635 43.9131 40.537 44.1653 40.7107 44.5566L45.6268 56.4087C45.6702 56.5044 45.6876 56.6261 45.6876 56.7392C45.6876 57.1653 45.3315 57.5827 44.8538 57.5827H43.4641C43.0558 57.5827 42.6823 57.3305 42.526 56.9392L41.6487 54.7131H36.2375ZM37.4101 51.7913H40.4675L38.9475 47.9305L37.4101 51.7913Z" fill="white"/>
</g>
<mask id="mask5_593_4192" style="mask-type:luminance" maskUnits="userSpaceOnUse" x="-290" y="-229" width="733" height="518">
<path d="M442.007 -228.695H-289.234V288.94H442.007V-228.695Z" fill="white"/>
</mask>
<g mask="url(#mask5_593_4192)">
<path d="M59.0268 56.6871C59.0268 57.174 58.6186 57.5827 58.1322 57.5827H56.8033C56.3169 57.5827 55.9087 57.174 55.9087 56.6871V52.0784H50.9404V56.6871C50.9404 57.174 50.5322 57.5827 50.0458 57.5827H48.7169C48.2305 57.5827 47.8223 57.174 47.8223 56.6871V44.8175C47.8223 44.3306 48.2305 43.9219 48.7169 43.9219H50.0458C50.5322 43.9219 50.9404 44.3306 50.9404 44.8175V49.1479H55.9087V44.8175C55.9087 44.3306 56.3169 43.9219 56.8033 43.9219H58.1322C58.6186 43.9219 59.0268 44.3306 59.0268 44.8175V56.6871Z" fill="white"/>
</g>
<mask id="mask6_593_4192" style="mask-type:luminance" maskUnits="userSpaceOnUse" x="-290" y="-229" width="733" height="518">
<path d="M442.007 -228.695H-289.234V288.94H442.007V-228.695Z" fill="white"/>
</mask>
<g mask="url(#mask6_593_4192)">
<path d="M72.1965 57.5827C71.7101 57.5827 71.3019 57.174 71.3019 56.6871V49.0958L65.6475 57.0175C65.413 57.3654 65.0395 57.5827 64.6313 57.5827H63.4239C62.9375 57.5827 62.5293 57.174 62.5293 56.6871V44.8175C62.5293 44.3306 62.9375 43.9219 63.4239 43.9219H64.7528C65.2392 43.9219 65.6475 44.3306 65.6475 44.8175V52.4088L71.3019 44.4871C71.5364 44.1393 71.9099 43.9219 72.3181 43.9219H73.5254C74.0118 43.9219 74.4287 44.3306 74.4287 44.8175V56.6871C74.4287 57.174 74.0205 57.5827 73.5254 57.5827H72.1965Z" fill="white"/>
</g>
<mask id="mask7_593_4192" style="mask-type:luminance" maskUnits="userSpaceOnUse" x="-290" y="-229" width="733" height="518">
<path d="M442.007 -228.695H-289.234V288.94H442.007V-228.695Z" fill="white"/>
</mask>
<g mask="url(#mask7_593_4192)">
<path d="M81.0459 56.6871C81.0459 57.174 80.6377 57.5827 80.1513 57.5827H78.8224C78.336 57.5827 77.9277 57.174 77.9277 56.6871V44.8175C77.9277 44.3306 78.336 43.9219 78.8224 43.9219H80.464C80.8722 43.9219 81.2283 44.1393 81.4802 44.4697L85.2845 49.6784L88.8717 44.4871C89.1063 44.1306 89.4363 43.9219 89.8445 43.9219H91.3037C91.7901 43.9219 92.1984 44.3306 92.1984 44.8175V56.6871C92.1984 57.174 91.7901 57.5827 91.3037 57.5827H89.9748C89.4884 57.5827 89.0802 57.174 89.0802 56.6871V48.8784L86.2573 52.861C85.9273 53.3132 85.493 53.5479 85.0674 53.5479C84.6418 53.5479 84.2075 53.3132 83.8775 52.861L81.0546 48.9393V56.6871H81.0459Z" fill="white"/>
</g>
<mask id="mask8_593_4192" style="mask-type:luminance" maskUnits="userSpaceOnUse" x="-290" y="-229" width="733" height="518">
<path d="M442.007 -228.695H-289.234V288.94H442.007V-228.695Z" fill="white"/>
</mask>
<g mask="url(#mask8_593_4192)">
<path d="M98.175 54.7131L97.2978 56.9392C97.1414 57.3305 96.768 57.5827 96.3597 57.5827H95.1698C94.6834 57.5827 94.3359 57.174 94.3359 56.7392C94.3359 56.6261 94.3533 56.5044 94.3967 56.4087L99.3129 44.5566C99.4866 44.1653 99.8601 43.9131 100.268 43.9131H101.693C102.101 43.9131 102.474 44.1653 102.648 44.5566L107.564 56.4087C107.599 56.5044 107.625 56.6261 107.625 56.7392C107.625 57.1653 107.278 57.5827 106.783 57.5827H105.402C104.993 57.5827 104.62 57.3305 104.463 56.9392L103.586 54.7131H98.175ZM99.3476 51.7913H102.405L100.885 47.9305L99.3476 51.7913Z" fill="white"/>
</g>
<mask id="mask9_593_4192" style="mask-type:luminance" maskUnits="userSpaceOnUse" x="-290" y="-229" width="733" height="518">
<path d="M442.007 -228.695H-289.234V288.94H442.007V-228.695Z" fill="white"/>
</mask>
<g mask="url(#mask9_593_4192)">
<path d="M120.497 59.9308C120.011 59.9308 119.603 59.5221 119.603 59.0351V57.5916H110.656C110.17 57.5916 109.762 57.1829 109.762 56.696V44.8351C109.762 44.3481 110.17 43.9395 110.656 43.9395H111.985C112.472 43.9395 112.889 44.3481 112.889 44.8351V54.6699H117.57V44.8351C117.57 44.3481 117.978 43.9395 118.465 43.9395H119.785C120.271 43.9395 120.68 44.3481 120.68 44.8351V54.6699H121.635C122.122 54.6699 122.53 55.0786 122.53 55.5742V59.0438C122.53 59.5308 122.122 59.9394 121.635 59.9394H120.497V59.9308Z" fill="white"/>
</g>
<mask id="mask10_593_4192" style="mask-type:luminance" maskUnits="userSpaceOnUse" x="-290" y="-229" width="733" height="518">
<path d="M442.007 -228.695H-289.234V288.94H442.007V-228.695Z" fill="white"/>
</mask>
<g mask="url(#mask10_593_4192)">
<path d="M134.333 57.5827C133.847 57.5827 133.439 57.174 133.439 56.6871V49.0958L127.784 57.0175C127.55 57.3654 127.185 57.5827 126.768 57.5827H125.561C125.074 57.5827 124.666 57.174 124.666 56.6871V44.8175C124.666 44.3306 125.074 43.9219 125.561 43.9219H126.89C127.376 43.9219 127.784 44.3306 127.784 44.8175V52.4088L133.439 44.4871C133.673 44.1393 134.047 43.9219 134.455 43.9219H135.662C136.149 43.9219 136.557 44.3306 136.557 44.8175V56.6871C136.557 57.174 136.149 57.5827 135.662 57.5827H134.333Z" fill="white"/>
</g>
<mask id="mask11_593_4192" style="mask-type:luminance" maskUnits="userSpaceOnUse" x="-290" y="-229" width="733" height="518">
<path d="M442.007 -228.695H-289.234V288.94H442.007V-228.695Z" fill="white"/>
</mask>
<g mask="url(#mask11_593_4192)">
<path d="M149.734 57.5827C149.247 57.5827 148.839 57.174 148.839 56.6871V49.0958L143.185 57.0175C142.95 57.3654 142.577 57.5827 142.168 57.5827H140.961C140.475 57.5827 140.066 57.174 140.066 56.6871V44.8175C140.066 44.3306 140.475 43.9219 140.961 43.9219H142.29C142.776 43.9219 143.185 44.3306 143.185 44.8175V52.4088L148.839 44.4871C149.073 44.1393 149.447 43.9219 149.855 43.9219H151.063C151.549 43.9219 151.957 44.3306 151.957 44.8175V56.6871C151.957 57.174 151.549 57.5827 151.063 57.5827H149.734Z" fill="white"/>
</g>
<mask id="mask12_593_4192" style="mask-type:luminance" maskUnits="userSpaceOnUse" x="-290" y="-229" width="733" height="518">
<path d="M442.007 -228.695H-289.234V288.94H442.007V-228.695Z" fill="white"/>
</mask>
<g mask="url(#mask12_593_4192)">
<path d="M33.2911 25.7304V38.5738H32.3965V24.9043H38.4591V38.5738H37.5471V25.7304H33.2911Z" fill="white"/>
</g>
<mask id="mask13_593_4192" style="mask-type:luminance" maskUnits="userSpaceOnUse" x="-290" y="-229" width="733" height="518">
<path d="M442.007 -228.695H-289.234V288.94H442.007V-228.695Z" fill="white"/>
</mask>
<g mask="url(#mask13_593_4192)">
<path d="M41.7695 28.2432C41.7695 26.2519 42.6815 24.791 44.7487 24.791C46.8507 24.791 47.7714 26.2519 47.7714 28.2432V35.2345C47.7714 37.2258 46.8507 38.6867 44.7487 38.6867C42.6815 38.6867 41.7695 37.2258 41.7695 35.2345V28.2432ZM42.6729 35.2954C42.6729 36.7823 43.2548 37.8693 44.7574 37.8693C46.2774 37.8693 46.8854 36.7736 46.8854 35.2954V28.191C46.8854 26.7041 46.2774 25.6171 44.7574 25.6171C43.2548 25.6171 42.6729 26.7128 42.6729 28.191V35.2954Z" fill="white"/>
</g>
<mask id="mask14_593_4192" style="mask-type:luminance" maskUnits="userSpaceOnUse" x="-290" y="-229" width="733" height="518">
<path d="M442.007 -228.695H-289.234V288.94H442.007V-228.695Z" fill="white"/>
</mask>
<g mask="url(#mask14_593_4192)">
<path d="M58.2802 40.4608V38.5652H51.7659V40.4608H50.8887V37.7478H51.8267C52.3739 37.1825 52.4695 36.4347 52.5129 35.5565L53.0601 24.9043H58.0544V37.7478H59.1835V40.4608H58.2802ZM53.3902 35.5651C53.3294 36.5043 53.2512 37.2086 52.7474 37.7565H57.1337V25.7304H53.8939L53.3902 35.5651Z" fill="white"/>
</g>
<mask id="mask15_593_4192" style="mask-type:luminance" maskUnits="userSpaceOnUse" x="-290" y="-229" width="733" height="518">
<path d="M442.007 -228.695H-289.234V288.94H442.007V-228.695Z" fill="white"/>
</mask>
<g mask="url(#mask15_593_4192)">
<path d="M69.6259 40.4608V38.5652H63.1116V40.4608H62.2344V37.7478H63.1724C63.7196 37.1825 63.8152 36.4347 63.8586 35.5565L64.4058 24.9043H69.4001V37.7478H70.5292V40.4608H69.6259ZM64.7359 35.5651C64.6751 36.5043 64.5969 37.2086 64.0931 37.7565H68.4794V25.7304H65.2396L64.7359 35.5651Z" fill="white"/>
</g>
<mask id="mask16_593_4192" style="mask-type:luminance" maskUnits="userSpaceOnUse" x="-290" y="-229" width="733" height="518">
<path d="M442.007 -228.695H-289.234V288.94H442.007V-228.695Z" fill="white"/>
</mask>
<g mask="url(#mask16_593_4192)">
<path d="M78.3805 31.226V32.0521H74.6544V37.7478H79.1362V38.5652H73.7598V24.9043H79.1362V25.7304H74.6544V31.226H78.3805Z" fill="white"/>
</g>
<mask id="mask17_593_4192" style="mask-type:luminance" maskUnits="userSpaceOnUse" x="-290" y="-229" width="733" height="518">
<path d="M442.007 -228.695H-289.234V288.94H442.007V-228.695Z" fill="white"/>
</mask>
<g mask="url(#mask17_593_4192)">
<path d="M85.2408 24.9043C87.3428 24.9043 88.1679 26.2347 88.1679 28.226V29.7043C88.1679 31.8695 87.169 32.9478 85.0063 32.9478H83.3126V38.5652H82.418V24.9043H85.2408ZM85.0063 32.1304C86.5871 32.1304 87.2646 31.426 87.2646 29.7652V28.1652C87.2646 26.6869 86.7608 25.7304 85.2408 25.7304H83.3126V32.1304H85.0063Z" fill="white"/>
</g>
<mask id="mask18_593_4192" style="mask-type:luminance" maskUnits="userSpaceOnUse" x="-290" y="-229" width="733" height="518">
<path d="M442.007 -228.695H-289.234V288.94H442.007V-228.695Z" fill="white"/>
</mask>
<g mask="url(#mask18_593_4192)">
<path d="M97.9659 31.7391L97.0452 33.3043V38.5652H96.1506V33.2782L95.256 31.7391L92.0162 38.5652H91.0781L94.648 30.8956L91.2345 24.9043H92.1552L96.1506 31.9304V24.9043H97.0452V31.9304L101.041 24.9043H101.979L98.5913 30.8782L102.118 38.5652H101.206L97.9659 31.7391Z" fill="white"/>
</g>
<mask id="mask19_593_4192" style="mask-type:luminance" maskUnits="userSpaceOnUse" x="-290" y="-229" width="733" height="518">
<path d="M442.007 -228.695H-289.234V288.94H442.007V-228.695Z" fill="white"/>
</mask>
<g mask="url(#mask19_593_4192)">
<path d="M107.104 32.1478L106.166 33.6347V38.5738H105.271V24.9043H106.166V32.1304L110.613 24.9043H111.551L107.651 31.2695L111.803 38.5738H110.865L107.104 32.1478Z" fill="white"/>
</g>
<mask id="mask20_593_4192" style="mask-type:luminance" maskUnits="userSpaceOnUse" x="-290" y="-229" width="733" height="518">
<path d="M442.007 -228.695H-289.234V288.94H442.007V-228.695Z" fill="white"/>
</mask>
<g mask="url(#mask20_593_4192)">
<path d="M118.151 32.226L115.928 38.5738H114.955V24.9043H115.78V36.5999L117.352 32.0869L119.967 24.9043H121.035V38.5738H120.219V26.4869L118.151 32.226Z" fill="white"/>
</g>
<mask id="mask21_593_4192" style="mask-type:luminance" maskUnits="userSpaceOnUse" x="-290" y="-229" width="733" height="518">
<path d="M442.007 -228.695H-289.234V288.94H442.007V-228.695Z" fill="white"/>
</mask>
<g mask="url(#mask21_593_4192)">
<path d="M0.886408 56.3398H18.1623C18.501 56.3398 18.779 56.6181 18.779 56.9659C18.779 57.3051 18.501 57.5833 18.1623 57.5833H0.886408C0.538979 57.5833 0.269729 57.3051 0.269729 56.9659C0.261044 56.6181 0.538979 56.3398 0.886408 56.3398Z" fill="white"/>
</g>
<mask id="mask22_593_4192" style="mask-type:luminance" maskUnits="userSpaceOnUse" x="-290" y="-229" width="733" height="518">
<path d="M442.007 -228.695H-289.234V288.94H442.007V-228.695Z" fill="white"/>
</mask>
<g mask="url(#mask22_593_4192)">
<path d="M1.34579 46.5738L18.0224 51.1042C18.3524 51.1912 18.5522 51.539 18.4567 51.8694C18.3698 52.1999 18.0224 52.3912 17.6923 52.3042L1.01575 47.7738C0.685696 47.6781 0.494611 47.339 0.581468 47.0085C0.677011 46.6781 1.01573 46.4781 1.34579 46.5738Z" fill="white"/>
</g>
<mask id="mask23_593_4192" style="mask-type:luminance" maskUnits="userSpaceOnUse" x="-290" y="-229" width="733" height="518">
<path d="M442.007 -228.695H-289.234V288.94H442.007V-228.695Z" fill="white"/>
</mask>
<g mask="url(#mask23_593_4192)">
<path d="M2.68323 35.4182L17.0494 45.0269C17.336 45.2182 17.4142 45.6008 17.2231 45.8877C17.032 46.1747 16.6499 46.253 16.3632 46.0617L1.99705 36.453C1.71043 36.2617 1.63227 35.8791 1.82336 35.5921C2.01444 35.3051 2.3966 35.2269 2.68323 35.4182Z" fill="white"/>
</g>
<mask id="mask24_593_4192" style="mask-type:luminance" maskUnits="userSpaceOnUse" x="-290" y="-229" width="733" height="518">
<path d="M442.007 -228.695H-289.234V288.94H442.007V-228.695Z" fill="white"/>
</mask>
<g mask="url(#mask24_593_4192)">
<path d="M4.65617 22.5565L14.445 36.8086C14.6361 37.0869 14.5666 37.4782 14.28 37.6695C13.9933 37.8608 13.6112 37.7912 13.4201 37.513L3.63126 23.2608C3.44017 22.9738 3.50965 22.5912 3.78759 22.3999C4.07422 22.2086 4.46508 22.2782 4.65617 22.5565Z" fill="white"/>
</g>
<mask id="mask25_593_4192" style="mask-type:luminance" maskUnits="userSpaceOnUse" x="-290" y="-229" width="733" height="518">
<path d="M442.007 -228.695H-289.234V288.94H442.007V-228.695Z" fill="white"/>
</mask>
<g mask="url(#mask25_593_4192)">
<path d="M11.751 12.3656L16.007 29.1308C16.0939 29.4612 15.8941 29.8004 15.5641 29.8873C15.234 29.9743 14.8952 29.7743 14.8084 29.4352L10.5437 12.6699C10.4569 12.3395 10.6566 12.0004 10.9954 11.9134C11.3341 11.8352 11.6729 12.0352 11.751 12.3656Z" fill="white"/>
</g>
<mask id="mask26_593_4192" style="mask-type:luminance" maskUnits="userSpaceOnUse" x="-290" y="-229" width="733" height="518">
<path d="M442.007 -228.695H-289.234V288.94H442.007V-228.695Z" fill="white"/>
</mask>
<g mask="url(#mask26_593_4192)">
<path d="M20.0554 0.939565L20.0032 18.2352C20.0032 18.5744 19.725 18.8526 19.3771 18.8526C19.038 18.8526 18.7598 18.5744 18.7598 18.2265L18.8032 0.930887C18.8032 0.591757 19.0815 0.313477 19.4293 0.313477C19.7771 0.313477 20.0554 0.591738 20.0554 0.939565Z" fill="white"/>
</g>
</g>
<defs>
<clipPath id="clip0_593_4192">
<rect width="152" height="60" fill="white"/>
</clipPath>
</defs>
</svg>
