<svg width="77" height="30" viewBox="0 0 77 30" fill="none" xmlns="http://www.w3.org/2000/svg">
<g clip-path="url(#clip0_593_3119)">
<mask id="mask0_593_3119" style="mask-type:luminance" maskUnits="userSpaceOnUse" x="-145" y="-115" width="367" height="260">
<path d="M221.504 -114.348H-144.117V144.47H221.504V-114.348Z" fill="white"/>
</mask>
<g mask="url(#mask0_593_3119)">
<path d="M21.2896 8.90924C21.2896 9.15272 21.0855 9.35706 20.8423 9.35706H20.1779C19.9347 9.35706 19.7305 9.15272 19.7305 8.90924V8.43968C17.9065 8.41794 16.6992 7.47446 16.6992 5.76577C16.6992 4.07881 17.9369 3.13967 19.7305 3.09184V2.81794C19.7305 2.57446 19.9347 2.37012 20.1779 2.37012H20.8423C21.0855 2.37012 21.2896 2.57446 21.2896 2.81794V3.09184C23.0659 3.13098 24.3426 4.0962 24.3426 5.76577C24.3426 7.46577 23.1049 8.42229 21.2896 8.43968V8.90924ZM18.3582 5.76577C18.3582 6.55707 18.7795 6.9875 19.7349 7.00489V4.52664C18.736 4.55707 18.3582 5.1049 18.3582 5.76577ZM22.6837 5.76577C22.6837 5.12229 22.3319 4.55707 21.2896 4.52664V7.00489C22.3145 6.9875 22.6837 6.57012 22.6837 5.76577Z" fill="white"/>
</g>
<mask id="mask1_593_3119" style="mask-type:luminance" maskUnits="userSpaceOnUse" x="-145" y="-115" width="367" height="260">
<path d="M221.504 -114.348H-144.117V144.47H221.504V-114.348Z" fill="white"/>
</mask>
<g mask="url(#mask1_593_3119)">
<path d="M28.6458 2.33105C30.7217 2.33105 32.2721 3.68758 32.2721 5.86584C32.2721 7.9354 30.7217 9.40062 28.6458 9.40062C26.5699 9.40062 25.0195 8.0441 25.0195 5.86584C25.0195 3.88323 26.4744 2.33105 28.6458 2.33105ZM28.6458 7.93541C29.94 7.93541 30.6131 7.01801 30.6131 5.86584C30.6131 4.61801 29.7446 3.79628 28.6458 3.79628C27.5167 3.79628 26.6785 4.61801 26.6785 5.86584C26.6785 7.0354 27.5558 7.93541 28.6458 7.93541Z" fill="white"/>
</g>
<mask id="mask2_593_3119" style="mask-type:luminance" maskUnits="userSpaceOnUse" x="-145" y="-115" width="367" height="260">
<path d="M221.504 -114.348H-144.117V144.47H221.504V-114.348Z" fill="white"/>
</mask>
<g mask="url(#mask2_593_3119)">
<path d="M39.1423 8.83085C39.1423 9.07433 38.9382 9.27867 38.695 9.27867H38.0306C37.7874 9.27867 37.5833 9.07433 37.5833 8.83085V6.5265H35.0991V8.83085C35.0991 9.07433 34.895 9.27867 34.6518 9.27867H33.9874C33.7442 9.27867 33.54 9.07433 33.54 8.83085V2.89607C33.54 2.65259 33.7442 2.44824 33.9874 2.44824H34.6518C34.895 2.44824 35.0991 2.65259 35.0991 2.89607V5.06129H37.5833V2.89607C37.5833 2.65259 37.7874 2.44824 38.0306 2.44824H38.695C38.9382 2.44824 39.1423 2.65259 39.1423 2.89607V8.83085Z" fill="white"/>
</g>
<mask id="mask3_593_3119" style="mask-type:luminance" maskUnits="userSpaceOnUse" x="-145" y="-115" width="367" height="260">
<path d="M221.504 -114.348H-144.117V144.47H221.504V-114.348Z" fill="white"/>
</mask>
<g mask="url(#mask3_593_3119)">
<path d="M41.5793 10.0049C41.5793 10.2483 41.3752 10.4527 41.132 10.4527H40.5674C40.3242 10.4527 40.1201 10.2483 40.1201 10.0049V8.27007C40.1201 8.02659 40.3242 7.82225 40.5674 7.82225H40.8497C41.1233 7.47007 41.7357 6.05704 41.8355 3.82226L41.8746 2.90486C41.8833 2.66138 42.1005 2.45703 42.3437 2.45703H45.9048C46.148 2.45703 46.3521 2.66138 46.3521 2.90486V7.82225H46.8298C47.073 7.82225 47.2815 8.02659 47.2815 8.27007V10.0049C47.2815 10.2483 47.0774 10.4527 46.8298 10.4527H46.2653C46.0221 10.4527 45.8179 10.2483 45.8179 10.0049V9.28312H41.588V10.0049H41.5793ZM44.7843 3.91356H43.399L43.2904 5.06573C43.1818 6.24834 42.7953 7.51356 42.5608 7.81791H44.7843V3.91356Z" fill="white"/>
</g>
<mask id="mask4_593_3119" style="mask-type:luminance" maskUnits="userSpaceOnUse" x="-145" y="-115" width="367" height="260">
<path d="M221.504 -114.348H-144.117V144.47H221.504V-114.348Z" fill="white"/>
</mask>
<g mask="url(#mask4_593_3119)">
<path d="M18.6188 27.357L18.1801 28.4701C18.102 28.6657 17.9152 28.7918 17.7111 28.7918H17.1161C16.8729 28.7918 16.6992 28.5875 16.6992 28.3701C16.6992 28.3136 16.7079 28.2527 16.7296 28.2049L19.1877 22.2788C19.2745 22.0831 19.4613 21.957 19.6654 21.957H20.3776C20.5817 21.957 20.7685 22.0831 20.8553 22.2788L23.3134 28.2049C23.3351 28.2527 23.3438 28.3136 23.3438 28.3701C23.3438 28.5831 23.1657 28.7918 22.9269 28.7918H22.232C22.0279 28.7918 21.8412 28.6657 21.763 28.4701L21.3244 27.357H18.6188ZM19.2051 25.8962H20.7337L19.9737 23.9657L19.2051 25.8962Z" fill="white"/>
</g>
<mask id="mask5_593_3119" style="mask-type:luminance" maskUnits="userSpaceOnUse" x="-145" y="-115" width="367" height="260">
<path d="M221.504 -114.348H-144.117V144.47H221.504V-114.348Z" fill="white"/>
</mask>
<g mask="url(#mask5_593_3119)">
<path d="M30.0134 28.3435C30.0134 28.587 29.8093 28.7914 29.5661 28.7914H28.9016C28.6584 28.7914 28.4543 28.587 28.4543 28.3435V26.0392H25.9702V28.3435C25.9702 28.587 25.7661 28.7914 25.5229 28.7914H24.8584C24.6152 28.7914 24.4111 28.587 24.4111 28.3435V22.4088C24.4111 22.1653 24.6152 21.9609 24.8584 21.9609H25.5229C25.7661 21.9609 25.9702 22.1653 25.9702 22.4088V24.574H28.4543V22.4088C28.4543 22.1653 28.6584 21.9609 28.9016 21.9609H29.5661C29.8093 21.9609 30.0134 22.1653 30.0134 22.4088V28.3435Z" fill="white"/>
</g>
<mask id="mask6_593_3119" style="mask-type:luminance" maskUnits="userSpaceOnUse" x="-145" y="-115" width="367" height="260">
<path d="M221.504 -114.348H-144.117V144.47H221.504V-114.348Z" fill="white"/>
</mask>
<g mask="url(#mask6_593_3119)">
<path d="M36.5983 28.7914C36.3551 28.7914 36.1509 28.587 36.1509 28.3435V24.5479L33.3237 28.5088C33.2065 28.6827 33.0197 28.7914 32.8156 28.7914H32.212C31.9688 28.7914 31.7646 28.587 31.7646 28.3435V22.4088C31.7646 22.1653 31.9688 21.9609 32.212 21.9609H32.8764C33.1196 21.9609 33.3237 22.1653 33.3237 22.4088V26.2044L36.1509 22.2435C36.2682 22.0696 36.4549 21.9609 36.6591 21.9609H37.2627C37.5059 21.9609 37.7144 22.1653 37.7144 22.4088V28.3435C37.7144 28.587 37.5102 28.7914 37.2627 28.7914H36.5983Z" fill="white"/>
</g>
<mask id="mask7_593_3119" style="mask-type:luminance" maskUnits="userSpaceOnUse" x="-145" y="-115" width="367" height="260">
<path d="M221.504 -114.348H-144.117V144.47H221.504V-114.348Z" fill="white"/>
</mask>
<g mask="url(#mask7_593_3119)">
<path d="M41.023 28.3435C41.023 28.587 40.8188 28.7914 40.5756 28.7914H39.9112C39.668 28.7914 39.4639 28.587 39.4639 28.3435V22.4088C39.4639 22.1653 39.668 21.9609 39.9112 21.9609H40.732C40.9361 21.9609 41.1142 22.0696 41.2401 22.2349L43.1423 24.8392L44.9359 22.2435C45.0531 22.0653 45.2182 21.9609 45.4223 21.9609H46.1519C46.3951 21.9609 46.5992 22.1653 46.5992 22.4088V28.3435C46.5992 28.587 46.3951 28.7914 46.1519 28.7914H45.4874C45.2442 28.7914 45.0401 28.587 45.0401 28.3435V24.4392L43.6287 26.4305C43.4636 26.6566 43.2465 26.774 43.0337 26.774C42.8209 26.774 42.6038 26.6566 42.4387 26.4305L41.0273 24.4696V28.3435H41.023Z" fill="white"/>
</g>
<mask id="mask8_593_3119" style="mask-type:luminance" maskUnits="userSpaceOnUse" x="-145" y="-115" width="367" height="260">
<path d="M221.504 -114.348H-144.117V144.47H221.504V-114.348Z" fill="white"/>
</mask>
<g mask="url(#mask8_593_3119)">
<path d="M49.5875 27.357L49.1489 28.4701C49.0707 28.6657 48.884 28.7918 48.6799 28.7918H48.0849C47.8417 28.7918 47.668 28.5875 47.668 28.3701C47.668 28.3136 47.6767 28.2527 47.6984 28.2049L50.1564 22.2788C50.2433 22.0831 50.43 21.957 50.6341 21.957H51.3464C51.5505 21.957 51.7372 22.0831 51.8241 22.2788L54.2821 28.2049C54.2995 28.2527 54.3125 28.3136 54.3125 28.3701C54.3125 28.5831 54.1388 28.7918 53.8913 28.7918H53.2008C52.9967 28.7918 52.8099 28.6657 52.7317 28.4701L52.2931 27.357H49.5875ZM50.1738 25.8962H51.7025L50.9425 23.9657L50.1738 25.8962Z" fill="white"/>
</g>
<mask id="mask9_593_3119" style="mask-type:luminance" maskUnits="userSpaceOnUse" x="-145" y="-115" width="367" height="260">
<path d="M221.504 -114.348H-144.117V144.47H221.504V-114.348Z" fill="white"/>
</mask>
<g mask="url(#mask9_593_3119)">
<path d="M60.7486 29.9654C60.5054 29.9654 60.3013 29.761 60.3013 29.5176V28.7958H55.8282C55.585 28.7958 55.3809 28.5915 55.3809 28.348V22.4176C55.3809 22.1741 55.585 21.9697 55.8282 21.9697H56.4926C56.7358 21.9697 56.9443 22.1741 56.9443 22.4176V27.3349H59.2851V22.4176C59.2851 22.1741 59.4892 21.9697 59.7324 21.9697H60.3925C60.6357 21.9697 60.8398 22.1741 60.8398 22.4176V27.3349H61.3176C61.5608 27.3349 61.7649 27.5393 61.7649 27.7871V29.5219C61.7649 29.7654 61.5608 29.9697 61.3176 29.9697H60.7486V29.9654Z" fill="white"/>
</g>
<mask id="mask10_593_3119" style="mask-type:luminance" maskUnits="userSpaceOnUse" x="-145" y="-115" width="367" height="260">
<path d="M221.504 -114.348H-144.117V144.47H221.504V-114.348Z" fill="white"/>
</mask>
<g mask="url(#mask10_593_3119)">
<path d="M67.6666 28.7914C67.4234 28.7914 67.2193 28.587 67.2193 28.3435V24.5479L64.3921 28.5088C64.2748 28.6827 64.0924 28.7914 63.884 28.7914H63.2803C63.0371 28.7914 62.833 28.587 62.833 28.3435V22.4088C62.833 22.1653 63.0371 21.9609 63.2803 21.9609H63.9448C64.188 21.9609 64.3921 22.1653 64.3921 22.4088V26.2044L67.2193 22.2435C67.3366 22.0696 67.5233 21.9609 67.7274 21.9609H68.3311C68.5743 21.9609 68.7784 22.1653 68.7784 22.4088V28.3435C68.7784 28.587 68.5743 28.7914 68.3311 28.7914H67.6666Z" fill="white"/>
</g>
<mask id="mask11_593_3119" style="mask-type:luminance" maskUnits="userSpaceOnUse" x="-145" y="-115" width="367" height="260">
<path d="M221.504 -114.348H-144.117V144.47H221.504V-114.348Z" fill="white"/>
</mask>
<g mask="url(#mask11_593_3119)">
<path d="M75.3668 28.7914C75.1236 28.7914 74.9195 28.587 74.9195 28.3435V24.5479L72.0923 28.5088C71.975 28.6827 71.7883 28.7914 71.5842 28.7914H70.9805C70.7373 28.7914 70.5332 28.587 70.5332 28.3435V22.4088C70.5332 22.1653 70.7373 21.9609 70.9805 21.9609H71.645C71.8882 21.9609 72.0923 22.1653 72.0923 22.4088V26.2044L74.9195 22.2435C75.0367 22.0696 75.2235 21.9609 75.4276 21.9609H76.0313C76.2745 21.9609 76.4786 22.1653 76.4786 22.4088V28.3435C76.4786 28.587 76.2745 28.7914 76.0313 28.7914H75.3668Z" fill="white"/>
</g>
<mask id="mask12_593_3119" style="mask-type:luminance" maskUnits="userSpaceOnUse" x="-145" y="-115" width="367" height="260">
<path d="M221.504 -114.348H-144.117V144.47H221.504V-114.348Z" fill="white"/>
</mask>
<g mask="url(#mask12_593_3119)">
<path d="M17.1456 12.8652V19.2869H16.6982V12.4521H19.7296V19.2869H19.2736V12.8652H17.1456Z" fill="white"/>
</g>
<mask id="mask13_593_3119" style="mask-type:luminance" maskUnits="userSpaceOnUse" x="-145" y="-115" width="367" height="260">
<path d="M221.504 -114.348H-144.117V144.47H221.504V-114.348Z" fill="white"/>
</mask>
<g mask="url(#mask13_593_3119)">
<path d="M21.3848 14.1216C21.3848 13.1259 21.8408 12.3955 22.8744 12.3955C23.9253 12.3955 24.3857 13.1259 24.3857 14.1216V17.6172C24.3857 18.6129 23.9253 19.3433 22.8744 19.3433C21.8408 19.3433 21.3848 18.6129 21.3848 17.6172V14.1216ZM21.8364 17.6477C21.8364 18.3912 22.1274 18.9346 22.8787 18.9346C23.6387 18.9346 23.9427 18.3868 23.9427 17.6477V14.0955C23.9427 13.352 23.6387 12.8085 22.8787 12.8085C22.1274 12.8085 21.8364 13.3564 21.8364 14.0955V17.6477Z" fill="white"/>
</g>
<mask id="mask14_593_3119" style="mask-type:luminance" maskUnits="userSpaceOnUse" x="-145" y="-115" width="367" height="260">
<path d="M221.504 -114.348H-144.117V144.47H221.504V-114.348Z" fill="white"/>
</mask>
<g mask="url(#mask14_593_3119)">
<path d="M29.6401 20.2304V19.2826H26.383V20.2304H25.9443V18.8739H26.4134C26.687 18.5913 26.7347 18.2174 26.7564 17.7782L27.0301 12.4521H29.5272V18.8739H30.0918V20.2304H29.6401ZM27.1951 17.7826C27.1647 18.2521 27.1256 18.6043 26.8737 18.8782H29.0669V12.8652H27.447L27.1951 17.7826Z" fill="white"/>
</g>
<mask id="mask15_593_3119" style="mask-type:luminance" maskUnits="userSpaceOnUse" x="-145" y="-115" width="367" height="260">
<path d="M221.504 -114.348H-144.117V144.47H221.504V-114.348Z" fill="white"/>
</mask>
<g mask="url(#mask15_593_3119)">
<path d="M35.313 20.2304V19.2826H32.0558V20.2304H31.6172V18.8739H32.0862C32.3598 18.5913 32.4076 18.2174 32.4293 17.7782L32.7029 12.4521H35.2V18.8739H35.7646V20.2304H35.313ZM32.8679 17.7826C32.8375 18.2521 32.7985 18.6043 32.5466 18.8782H34.7397V12.8652H33.1198L32.8679 17.7826Z" fill="white"/>
</g>
<mask id="mask16_593_3119" style="mask-type:luminance" maskUnits="userSpaceOnUse" x="-145" y="-115" width="367" height="260">
<path d="M221.504 -114.348H-144.117V144.47H221.504V-114.348Z" fill="white"/>
</mask>
<g mask="url(#mask16_593_3119)">
<path d="M39.6903 15.613V16.026H37.8272V18.8739H40.0681V19.2826H37.3799V12.4521H40.0681V12.8652H37.8272V15.613H39.6903Z" fill="white"/>
</g>
<mask id="mask17_593_3119" style="mask-type:luminance" maskUnits="userSpaceOnUse" x="-145" y="-115" width="367" height="260">
<path d="M221.504 -114.348H-144.117V144.47H221.504V-114.348Z" fill="white"/>
</mask>
<g mask="url(#mask17_593_3119)">
<path d="M43.1204 12.4521C44.1714 12.4521 44.584 13.1174 44.584 14.113V14.8521C44.584 15.9348 44.0845 16.4739 43.0031 16.4739H42.1563V19.2826H41.709V12.4521H43.1204ZM43.0031 16.0652C43.7935 16.0652 44.1323 15.713 44.1323 14.8826V14.0826C44.1323 13.3435 43.8804 12.8652 43.1204 12.8652H42.1563V16.0652H43.0031Z" fill="white"/>
</g>
<mask id="mask18_593_3119" style="mask-type:luminance" maskUnits="userSpaceOnUse" x="-145" y="-115" width="367" height="260">
<path d="M221.504 -114.348H-144.117V144.47H221.504V-114.348Z" fill="white"/>
</mask>
<g mask="url(#mask18_593_3119)">
<path d="M49.483 15.8695L49.0226 16.6521V19.2826H48.5753V16.6391L48.128 15.8695L46.5081 19.2826H46.0391L47.824 15.4478L46.1172 12.4521H46.5776L48.5753 15.9652V12.4521H49.0226V15.9652L51.0203 12.4521H51.4894L49.7956 15.4391L51.5588 19.2826H51.1028L49.483 15.8695Z" fill="white"/>
</g>
<mask id="mask19_593_3119" style="mask-type:luminance" maskUnits="userSpaceOnUse" x="-145" y="-115" width="367" height="260">
<path d="M221.504 -114.348H-144.117V144.47H221.504V-114.348Z" fill="white"/>
</mask>
<g mask="url(#mask19_593_3119)">
<path d="M54.0521 16.0739L53.5831 16.8174V19.2869H53.1357V12.4521H53.5831V16.0652L55.8066 12.4521H56.2756L54.3257 15.6347L56.4016 19.2869H55.9325L54.0521 16.0739Z" fill="white"/>
</g>
<mask id="mask20_593_3119" style="mask-type:luminance" maskUnits="userSpaceOnUse" x="-145" y="-115" width="367" height="260">
<path d="M221.504 -114.348H-144.117V144.47H221.504V-114.348Z" fill="white"/>
</mask>
<g mask="url(#mask20_593_3119)">
<path d="M59.5757 16.113L58.4639 19.2869H57.9775V12.4521H58.3901V18.3L59.1762 16.0434L60.4834 12.4521H61.0175V19.2869H60.6093V13.2434L59.5757 16.113Z" fill="white"/>
</g>
<mask id="mask21_593_3119" style="mask-type:luminance" maskUnits="userSpaceOnUse" x="-145" y="-115" width="367" height="260">
<path d="M221.504 -114.348H-144.117V144.47H221.504V-114.348Z" fill="white"/>
</mask>
<g mask="url(#mask21_593_3119)">
<path d="M0.943204 28.1699H9.58115C9.75052 28.1699 9.88949 28.3091 9.88949 28.483C9.88949 28.6525 9.75052 28.7917 9.58115 28.7917H0.943204C0.76949 28.7917 0.634865 28.6525 0.634865 28.483C0.630522 28.3091 0.76949 28.1699 0.943204 28.1699Z" fill="white"/>
</g>
<mask id="mask22_593_3119" style="mask-type:luminance" maskUnits="userSpaceOnUse" x="-145" y="-115" width="367" height="260">
<path d="M221.504 -114.348H-144.117V144.47H221.504V-114.348Z" fill="white"/>
</mask>
<g mask="url(#mask22_593_3119)">
<path d="M1.17289 23.2874L9.51118 25.5526C9.67621 25.5961 9.7761 25.77 9.72833 25.9352C9.6849 26.1004 9.51118 26.1961 9.34615 26.1526L1.00788 23.8874C0.842848 23.8395 0.747305 23.67 0.790734 23.5048C0.838505 23.3395 1.00787 23.2395 1.17289 23.2874Z" fill="white"/>
</g>
<mask id="mask23_593_3119" style="mask-type:luminance" maskUnits="userSpaceOnUse" x="-145" y="-115" width="367" height="260">
<path d="M221.504 -114.348H-144.117V144.47H221.504V-114.348Z" fill="white"/>
</mask>
<g mask="url(#mask23_593_3119)">
<path d="M1.84162 17.7086L9.02471 22.513C9.16802 22.6086 9.2071 22.7999 9.11155 22.9434C9.01601 23.0869 8.82493 23.126 8.68162 23.0303L1.49853 18.226C1.35521 18.1304 1.31614 17.939 1.41168 17.7956C1.50722 17.6521 1.6983 17.613 1.84162 17.7086Z" fill="white"/>
</g>
<mask id="mask24_593_3119" style="mask-type:luminance" maskUnits="userSpaceOnUse" x="-145" y="-115" width="367" height="260">
<path d="M221.504 -114.348H-144.117V144.47H221.504V-114.348Z" fill="white"/>
</mask>
<g mask="url(#mask24_593_3119)">
<path d="M2.82808 11.2787L7.72249 18.4048C7.81803 18.5439 7.78329 18.7396 7.63998 18.8352C7.49666 18.9309 7.30558 18.8961 7.21004 18.757L2.31563 11.6309C2.22009 11.4874 2.25483 11.2961 2.3938 11.2005C2.53711 11.1048 2.73254 11.1396 2.82808 11.2787Z" fill="white"/>
</g>
<mask id="mask25_593_3119" style="mask-type:luminance" maskUnits="userSpaceOnUse" x="-145" y="-115" width="367" height="260">
<path d="M221.504 -114.348H-144.117V144.47H221.504V-114.348Z" fill="white"/>
</mask>
<g mask="url(#mask25_593_3119)">
<path d="M6.37551 6.1828L8.50351 14.5654C8.54694 14.7306 8.44706 14.9002 8.28203 14.9437C8.117 14.9871 7.94762 14.8871 7.90419 14.7176L5.77186 6.33497C5.72843 6.16976 5.82831 6.00019 5.99769 5.95671C6.16706 5.91758 6.33643 6.01758 6.37551 6.1828Z" fill="white"/>
</g>
<mask id="mask26_593_3119" style="mask-type:luminance" maskUnits="userSpaceOnUse" x="-145" y="-115" width="367" height="260">
<path d="M221.504 -114.348H-144.117V144.47H221.504V-114.348Z" fill="white"/>
</mask>
<g mask="url(#mask26_593_3119)">
<path d="M10.5277 0.470271L10.5016 9.1181C10.5016 9.28767 10.3625 9.4268 10.1886 9.4268C10.019 9.4268 9.87988 9.28766 9.87988 9.11375L9.90162 0.465932C9.90162 0.296367 10.0407 0.157227 10.2147 0.157227C10.3886 0.157227 10.5277 0.296358 10.5277 0.470271Z" fill="white"/>
</g>
</g>
<defs>
<clipPath id="clip0_593_3119">
<rect width="76" height="30" fill="white" transform="translate(0.5)"/>
</clipPath>
</defs>
</svg>
