<svg width="75" height="30" viewBox="0 0 75 30" fill="none" xmlns="http://www.w3.org/2000/svg">
<g clip-path="url(#clip0_640_723)">
<path d="M30.9176 22.1967L30.1349 25.2212H29.7953L29.0192 22.2195L24.8794 22.2717L24.0935 29.9445H26.9649L27.2898 26.338H27.6294L28.3465 29.9445H31.5838L32.3024 26.338H32.6404L32.9653 29.9445H35.8367L35.0376 22.1445L30.9176 22.1967Z" fill="white"/>
<path d="M4.4039 22.531L2.37915 29.9462H5.08811L5.34571 29.0169H8.3254L8.58301 29.9462H11.292L9.25081 22.4707L4.4039 22.531ZM6.15627 26.4865L6.65671 24.7093H7.00948L7.50993 26.4865H6.15627Z" fill="white"/>
<path d="M20.5804 22.3275V29.94H23.4404V22.29L20.5804 22.3275Z" fill="white"/>
<path d="M16.9823 22.3708V24.9371H16.6853L15.2037 22.3937L11.6333 22.4393V29.9442H14.4916V26.6067H14.8017L16.7395 29.9442H19.8537V22.335L16.9823 22.3708Z" fill="white"/>
<path d="M70.5773 21.696L70.5707 24.9406H70.2721L68.4065 21.7237L65.2266 21.7629L65.2102 29.9362L68.0685 29.9428L68.075 26.6036L68.3868 26.6053L70.3164 29.9477L73.4306 29.9525L73.4487 21.6602L70.5773 21.696Z" fill="white"/>
<path d="M63.5661 22.6561C63.3709 22.4702 62.9836 22.1001 62.1747 21.8018L58.1728 21.8523C57.8643 21.9713 57.4049 22.1849 56.9094 22.6496C56.7076 22.8371 56.3072 23.2153 55.9824 24.0289C55.8741 24.3012 55.6575 24.8425 55.6575 25.8664C55.6575 26.1893 55.6575 26.8349 55.9889 27.6028C56.0988 27.8588 56.3204 28.3691 56.916 28.9088C57.1145 29.0882 57.5116 29.4469 58.3582 29.7306C58.6404 29.8251 59.2049 30.0126 60.2337 30.0126C60.5766 30.0126 61.2624 30.0126 62.1091 29.7501C62.3913 29.6621 62.9557 29.4876 63.5579 28.9626C63.7581 28.7882 64.1601 28.4376 64.4932 27.6713C64.6031 27.4153 64.8246 26.9034 64.8246 25.8941C64.8246 25.5485 64.8246 24.8572 64.4932 24.0436C64.3832 23.7713 64.1634 23.2284 63.5661 22.6561ZM62.0631 26.2365C62.009 26.3099 61.9007 26.4583 61.63 26.6132C61.5397 26.6653 61.3592 26.7681 60.9999 26.8414C60.8801 26.8659 60.6406 26.9148 60.2353 26.9148C60.0991 26.9148 59.8284 26.9148 59.4707 26.8333C59.3509 26.8056 59.1113 26.7534 58.8341 26.605C58.7422 26.5561 58.5568 26.4566 58.3943 26.2349C58.3402 26.1615 58.2319 26.0132 58.2319 25.7164C58.2319 25.6186 58.2319 25.4213 58.3943 25.2045C58.4485 25.1327 58.5568 24.9893 58.8341 24.8409C58.9259 24.792 59.1114 24.6925 59.4772 24.6191C59.5987 24.5947 59.8431 24.5458 60.2353 24.5458C60.3666 24.5458 60.6274 24.5458 60.9933 24.6191C61.1148 24.6436 61.3592 24.6925 61.63 24.8344C61.7202 24.8816 61.9007 24.9762 62.0631 25.198C62.1173 25.2713 62.2256 25.4197 62.2256 25.7164C62.2256 25.8175 62.2256 26.0148 62.0631 26.2365Z" fill="white"/>
<path d="M44.0652 22.0304V24.569H46.4624V29.9397H49.3207V24.569H51.8393V21.9326L44.0652 22.0304Z" fill="white"/>
<path d="M52.4054 21.9262V29.9398H55.2653V21.8887L52.4054 21.9262Z" fill="white"/>
<path d="M38.2356 22.1036L36.0944 29.9444H38.8033L39.0609 29.015H42.0406L42.2982 29.9444H45.0072L42.8495 22.0449L38.2356 22.1036ZM39.8731 26.4862L40.3736 24.709H40.7263L41.2268 26.4862H39.8731Z" fill="white"/>
<path d="M41.3924 0.496094L38.8065 10.4792H37.8696L35.2821 0.496094H24.4479L22.3099 21.3787L30.2383 21.2907L30.934 13.5722H31.8709L33.4001 21.2564L43.2974 21.1472L44.8053 13.5722H45.7422L46.4215 21.1129L54.3301 21.0265L52.2266 0.496094H41.3924Z" fill="white"/>
<path d="M72.0623 16.5585V10.5552H63.0707V7.42804H74.8353V0.501953H55.2031V21.0161L63.0707 20.9297V16.5585H72.0623Z" fill="white"/>
<path d="M15.2299 9.65717L9.62333 8.77673C8.58307 8.59575 8.09903 7.9876 8.19912 7.44956C8.30413 6.88217 8.7291 6.53325 10.155 6.53325C14.7623 6.53325 18.8118 7.12999 21.2451 7.8376V2.13923C18.7724 0.984885 15.3251 0.128906 11.2412 0.128906C3.89531 0.128906 0.894287 2.80934 0.894287 6.97999C0.894287 10.9142 2.78777 13.4561 7.81025 14.211L13.4169 15.0914C14.4571 15.2724 14.9412 15.8805 14.8427 16.4186C14.7377 16.986 14.3127 17.3349 12.8869 17.3349C8.27952 17.3349 4.23003 16.7398 1.79673 16.0305V21.6034L20.3181 21.3996C21.5749 20.2452 22.1475 18.7093 22.1475 16.8881C22.1459 12.9539 20.2524 10.4121 15.2299 9.65717Z" fill="white"/>
</g>
<defs>
<clipPath id="clip0_640_723">
<rect width="74" height="30" fill="white" transform="translate(0.828613)"/>
</clipPath>
</defs>
</svg>
