<svg width="262" height="40" viewBox="0 0 262 40" fill="none" xmlns="http://www.w3.org/2000/svg">
<g clip-path="url(#clip0_460_3453)">
<g clip-path="url(#clip1_460_3453)">
<mask id="mask0_460_3453" style="mask-type:luminance" maskUnits="userSpaceOnUse" x="-14" y="-181" width="393" height="401">
<path d="M378.94 -180.4H-13.1738V219.6H378.94V-180.4Z" fill="white"/>
</mask>
<g mask="url(#mask0_460_3453)">
<path d="M74.0444 32.8399H77.3852V33.4199H74.0444V36.8439H73.417V33.4199H70.0762V32.8399H73.417V29.4199H74.0444V32.8399Z" fill="white"/>
</g>
<mask id="mask1_460_3453" style="mask-type:luminance" maskUnits="userSpaceOnUse" x="-14" y="-181" width="393" height="401">
<path d="M378.94 -180.4H-13.1738V219.6H378.94V-180.4Z" fill="white"/>
</mask>
<g mask="url(#mask1_460_3453)">
<path d="M88.544 30.6279L86.207 37.6839H85.1757L83.2583 32.0639L81.3409 37.6839H80.3253L77.9883 30.6279H79.1725L80.8507 36.2639L82.7211 30.6279H83.8151L85.6855 36.2639L87.348 30.6279H88.544Z" fill="white"/>
</g>
<mask id="mask2_460_3453" style="mask-type:luminance" maskUnits="userSpaceOnUse" x="-14" y="-181" width="393" height="401">
<path d="M378.94 -180.4H-13.1738V219.6H378.94V-180.4Z" fill="white"/>
</mask>
<g mask="url(#mask2_460_3453)">
<path d="M96.3585 34.1554C96.3585 36.3394 94.7861 37.9114 92.6138 37.9114C90.4572 37.9114 88.8691 36.3394 88.8691 34.1554C88.8691 31.9714 90.4572 30.3994 92.6138 30.3994C94.7861 30.3954 96.3585 31.9714 96.3585 34.1554ZM90.0102 34.1554C90.0102 35.7754 91.116 36.8274 92.6138 36.8274C94.1117 36.8274 95.2175 35.7714 95.2175 34.1554C95.2175 32.5354 94.1078 31.4834 92.6138 31.4834C91.116 31.4834 90.0102 32.5354 90.0102 34.1554Z" fill="white"/>
</g>
<mask id="mask3_460_3453" style="mask-type:luminance" maskUnits="userSpaceOnUse" x="-14" y="-181" width="393" height="401">
<path d="M378.94 -180.4H-13.1738V219.6H378.94V-180.4Z" fill="white"/>
</mask>
<g mask="url(#mask3_460_3453)">
<path d="M101.281 31.6801H101.069C99.6029 31.6801 98.7795 32.6281 98.7795 34.3681V37.6841H97.7012V30.6281H98.7795V32.2161H98.8069C99.0932 31.1641 99.9323 30.4121 101.097 30.4121H101.277V31.6801H101.281Z" fill="white"/>
</g>
<mask id="mask4_460_3453" style="mask-type:luminance" maskUnits="userSpaceOnUse" x="-14" y="-181" width="393" height="401">
<path d="M378.94 -180.4H-13.1738V219.6H378.94V-180.4Z" fill="white"/>
</mask>
<g mask="url(#mask4_460_3453)">
<path d="M103.404 26.9922H102.326V37.6842H103.404V26.9922Z" fill="white"/>
</g>
<mask id="mask5_460_3453" style="mask-type:luminance" maskUnits="userSpaceOnUse" x="-14" y="-181" width="393" height="401">
<path d="M378.94 -180.4H-13.1738V219.6H378.94V-180.4Z" fill="white"/>
</mask>
<g mask="url(#mask5_460_3453)">
<path d="M104.785 34.1562C104.785 31.8202 106.31 30.4002 108.212 30.4002C109.471 30.4002 110.353 30.9962 110.832 31.8802H110.863V26.9922H111.941V37.6842H110.863V36.4322H110.832C110.353 37.3162 109.467 37.9122 108.212 37.9122C106.31 37.9122 104.785 36.4922 104.785 34.1562ZM110.922 34.1562C110.922 32.6002 109.934 31.4842 108.42 31.4842C106.907 31.4842 105.918 32.6002 105.918 34.1562C105.918 35.7162 106.907 36.8282 108.42 36.8282C109.934 36.8282 110.922 35.7122 110.922 34.1562Z" fill="white"/>
</g>
<mask id="mask6_460_3453" style="mask-type:luminance" maskUnits="userSpaceOnUse" x="-14" y="-181" width="393" height="401">
<path d="M378.94 -180.4H-13.1738V219.6H378.94V-180.4Z" fill="white"/>
</mask>
<g mask="url(#mask6_460_3453)">
<path d="M45.5105 7.11133L44.5067 8.13533V10.3393C44.5067 10.3793 44.5067 10.4153 44.5067 10.4553C44.487 18.3913 38.6563 24.8393 31.4963 24.8393C24.3363 24.8393 18.5056 18.3913 18.486 10.4553V8.13533L17.4822 7.11133H2.11914V37.7033H8.45178V13.5673H12.3768C13.7885 23.5913 21.8268 31.2993 31.4963 31.2993C41.1658 31.2993 49.2042 23.5953 50.6158 13.5673H54.5408V37.7033H60.8735V7.11133H45.5105Z" fill="white"/>
</g>
<mask id="mask7_460_3453" style="mask-type:luminance" maskUnits="userSpaceOnUse" x="-14" y="-181" width="393" height="401">
<path d="M378.94 -180.4H-13.1738V219.6H378.94V-180.4Z" fill="white"/>
</mask>
<g mask="url(#mask7_460_3453)">
<path d="M105.194 17.4319L107.927 17.3199C108.312 19.1039 109.947 20.1079 111.915 20.1079C113.719 20.1079 115.468 19.2719 115.468 18.0479C115.468 17.1559 114.538 16.5439 111.645 15.8199C107.767 14.8719 105.633 13.4799 105.633 11.1959C105.633 8.74395 108.092 7.01595 111.805 7.01595C115.464 7.01595 117.652 9.01995 118.142 11.364L115.464 11.5319C115.134 10.3599 113.88 9.52395 111.805 9.52395C109.727 9.52395 108.472 10.304 108.472 11.364C108.472 12.368 109.672 12.592 112.131 13.316C115.899 14.264 118.303 15.0999 118.303 17.7199C118.303 20.7839 115.025 22.568 111.801 22.568C108.308 22.56 105.63 20.5519 105.194 17.4319ZM239.905 19.0479H231.604L240.125 9.35195V7.51195H228.051V10.4079H235.753L227.832 19.38V21.9439H239.905V19.0479ZM216.962 22.5599C212.32 22.5599 208.987 19.272 208.987 14.868C208.987 10.412 212.32 7.06796 216.908 7.06796C220.405 7.06796 224.558 9.35196 224.558 15.092V15.592H211.775C212.265 18.156 214.178 19.9959 216.911 19.9959C218.605 19.9959 220.68 19.272 221.334 17.712H224.228C223.464 20.888 220.021 22.5599 216.962 22.5599ZM211.881 13.4199H221.66C221.005 11.0799 219.421 9.63195 216.908 9.63195C214.284 9.63195 212.645 11.1919 211.881 13.4199ZM246.626 15.2599V21.948H243.787V0.771948H246.626V9.01995C247.445 7.90395 249.41 7.06796 251.433 7.06796C254.876 7.06796 258.26 9.35195 258.26 15.2599V21.948H255.256V15.2599C255.256 11.8039 253.837 9.79995 251.049 9.79995C248.481 9.79595 246.626 11.5239 246.626 15.2599ZM190.138 14.868C190.138 19.048 193.526 22.5599 197.729 22.5599C199.588 22.5599 201.607 21.948 202.976 20.664L203.086 22.224H205.764V0.0439453H202.98V9.12795C201.45 7.73595 199.266 7.06796 197.627 7.06796C193.526 7.06796 190.138 10.524 190.138 14.868ZM202.976 14.868C202.976 17.712 201.117 19.94 198.059 19.94C195.165 19.94 193.196 17.712 193.196 14.868C193.196 11.86 195.165 9.57595 198.059 9.57595C201.176 9.57595 202.976 12.084 202.976 14.868ZM165.611 21.948H168.56V0.0479492H165.611V21.948ZM84.7612 13.4199H81.9223C81.9223 10.6319 80.0637 9.57595 78.3698 9.57595C76.9503 9.57595 75.0368 10.6359 75.0368 13.4199V21.9439H72.0332V13.4199C72.0332 10.1319 74.5467 7.06796 78.3698 7.06796C82.2478 7.06796 84.7612 10.1319 84.7612 13.4199ZM86.8394 14.812C86.8394 10.3 90.4429 7.06796 94.7052 7.06796C98.9675 7.06796 102.461 10.3 102.681 14.812C102.681 19.216 98.9675 22.556 94.7052 22.556C90.4429 22.56 86.8394 19.216 86.8394 14.812ZM94.7052 19.94C97.7088 19.94 99.6223 17.544 99.6223 14.812C99.6223 11.916 97.7088 9.62795 94.7052 9.62795C91.8114 9.62795 89.7881 11.856 89.7881 14.812C89.7881 17.544 91.8075 19.94 94.7052 19.94ZM146.711 14.868C146.711 10.412 150.425 7.12395 154.742 7.12395C159.004 7.12395 162.662 10.412 162.662 14.868C162.662 19.328 159.004 22.5599 154.742 22.5599C150.425 22.5599 146.711 19.328 146.711 14.868ZM154.742 19.94C157.581 19.94 159.604 17.768 159.604 14.868C159.604 12.028 157.585 9.68395 154.742 9.68395C151.793 9.68395 149.825 12.024 149.825 14.868C149.825 17.768 151.789 19.94 154.742 19.94ZM171.512 14.868C171.512 10.412 175.171 7.12395 179.488 7.12395C183.911 7.12395 187.519 10.412 187.519 14.868C187.519 19.328 183.911 22.5599 179.488 22.5599C175.171 22.5599 171.512 19.328 171.512 14.868ZM179.488 19.94C182.382 19.94 184.405 17.768 184.405 14.868C184.405 12.028 182.382 9.68395 179.488 9.68395C176.649 9.68395 174.626 12.024 174.626 14.868C174.626 17.768 176.645 19.94 179.488 19.94ZM133.928 15.3719V21.948H130.98V15.3719C130.98 11.6959 130.105 9.68795 127.482 9.68795C124.969 9.68795 124.094 11.6399 124.094 15.3719V21.948H121.145V15.3719C121.145 9.35195 123.384 7.06796 127.482 7.06796C129.886 7.06796 131.36 7.95995 132.454 9.57595C133.548 7.95995 135.022 7.06796 137.371 7.06796C141.414 7.06796 143.817 9.40795 143.817 15.3719V21.948H140.759V15.3719C140.759 11.7479 139.994 9.68795 137.371 9.68795C134.803 9.68795 133.928 11.7479 133.928 15.3719Z" fill="white"/>
</g>
</g>
</g>
<defs>
<clipPath id="clip0_460_3453">
<rect width="261" height="40" fill="white" transform="translate(0.119141)"/>
</clipPath>
<clipPath id="clip1_460_3453">
<rect width="358" height="38" fill="white" transform="translate(2.11914)"/>
</clipPath>
</defs>
</svg>
