<svg width="84" height="31" viewBox="0 0 84 31" fill="none" xmlns="http://www.w3.org/2000/svg">
<g clip-path="url(#clip0_467_2757)">
<path d="M21.5573 5.56326L17.3658 9.75532C17.2695 9.85165 17.238 9.99645 17.2905 10.122C17.5737 10.7969 17.7267 11.5402 17.7138 12.3213C17.6689 15.1741 15.3831 17.5422 12.5333 17.6823C9.30634 17.8411 6.65565 15.1939 6.80745 11.9675C6.94232 9.13176 9.28415 6.84715 12.1228 6.77767C12.8953 6.75899 13.6321 6.90203 14.3029 7.17352C14.4279 7.22432 14.5703 7.19162 14.6655 7.09704L18.8669 2.89505C19.1758 2.58678 19.1191 2.06949 18.749 1.8377C16.7942 0.613943 14.4688 -0.0738351 11.9798 -0.0183691C5.50429 0.125259 0.215756 5.36008 0.0102396 11.8338C-0.214544 18.9171 5.57377 24.7054 12.6576 24.4807C19.1448 24.2746 24.3849 18.9638 24.5104 12.4749C24.5583 9.97251 23.8559 7.6371 22.6129 5.67828C22.38 5.31045 21.865 5.25615 21.5573 5.56326Z" fill="white"/>
<path d="M32.4372 16.7844C31.6782 16.3763 31.0821 15.8105 30.6477 15.0871C30.2133 14.3631 29.9961 13.5452 29.9961 12.6332C29.9961 11.7206 30.2133 10.9026 30.6477 10.1793C31.0821 9.45528 31.6782 8.89011 32.4372 8.48199C33.1956 8.07388 34.0486 7.87012 34.9962 7.87012C35.7943 7.87012 36.516 8.01024 37.1605 8.29107C37.8051 8.57191 38.3469 8.97535 38.7854 9.5014L37.4169 10.7649C36.7939 10.0456 36.0226 9.6859 35.1013 9.6859C34.5309 9.6859 34.0223 9.81084 33.5751 10.0607C33.1279 10.3106 32.7793 10.6592 32.5294 11.107C32.279 11.5542 32.154 12.0628 32.154 12.6332C32.154 13.2036 32.279 13.7116 32.5294 14.1594C32.7793 14.6066 33.1279 14.9552 33.5751 15.2056C34.0223 15.4555 34.5309 15.5805 35.1013 15.5805C36.0226 15.5805 36.7939 15.2161 37.4169 14.4881L38.7854 15.7515C38.3469 16.2863 37.8028 16.6945 37.1541 16.9753C36.5049 17.2555 35.7815 17.3957 34.9828 17.3957C34.0445 17.3957 33.1956 17.1925 32.4372 16.7844Z" fill="white"/>
<path d="M40.0879 10.1602H42.1273V14.3709L45.5744 10.1602H47.4561V17.2388H45.4167V13.0286L41.9825 17.2388H40.0879V10.1602Z" fill="white"/>
<path d="M55.4632 10.5083C56.0027 10.8114 56.426 11.2364 56.7325 11.7846C57.0396 12.3329 57.1932 12.971 57.1932 13.6991C57.1932 14.4272 57.0396 15.0653 56.7325 15.6135C56.426 16.1618 56.0027 16.5868 55.4632 16.8898C54.9237 17.1923 54.3247 17.3435 53.6673 17.3435C52.7635 17.3435 52.0529 17.0592 51.5356 16.4887V19.791H49.4834V10.1598H51.4434V10.9754C51.9519 10.3618 52.6934 10.0547 53.6673 10.0547C54.3247 10.0547 54.9237 10.2059 55.4632 10.5083ZM54.6079 15.1266C54.9453 14.7716 55.1147 14.2958 55.1147 13.6991C55.1147 13.103 54.9453 12.6266 54.6079 12.2716C54.2698 11.9166 53.8384 11.7385 53.3117 11.7385C52.7857 11.7385 52.3536 11.9166 52.0161 12.2716C51.6781 12.6266 51.5094 13.103 51.5094 13.6991C51.5094 14.2958 51.6781 14.7716 52.0161 15.1266C52.3536 15.4822 52.7857 15.6597 53.3117 15.6597C53.8384 15.6597 54.2698 15.4822 54.6079 15.1266Z" fill="white"/>
<path d="M58.6924 10.1602H60.7318V14.3709L64.1788 10.1602H66.0606V17.2388H64.0212V13.0286L60.587 17.2388H58.6924V10.1602Z" fill="white"/>
<path d="M75.192 10.1602L71.9948 17.6732C71.6702 18.4888 71.269 19.0633 70.7909 19.3967C70.3127 19.7301 69.7359 19.8965 69.0609 19.8965C68.6925 19.8965 68.3282 19.8393 67.9685 19.7254C67.6089 19.6116 67.3152 19.4539 67.0869 19.2519L67.8372 17.7917C67.9954 17.9318 68.177 18.0416 68.3831 18.1204C68.5892 18.1992 68.7935 18.2389 68.9949 18.2389C69.2758 18.2389 69.5035 18.1706 69.6792 18.0346C69.8544 17.8985 70.0126 17.6732 70.1527 17.3573L70.179 17.2913L67.1138 10.1602H69.232L71.2188 14.9629L73.2185 10.1602H75.192Z" fill="white"/>
<path d="M77.5805 16.8764C76.9797 16.5652 76.5103 16.1332 76.1728 15.5809C75.8347 15.0279 75.666 14.4009 75.666 13.6991C75.666 12.9973 75.8347 12.3702 76.1728 11.8173C76.5103 11.265 76.9797 10.833 77.5805 10.5218C78.1813 10.2106 78.8585 10.0547 79.6129 10.0547C80.3584 10.0547 81.01 10.2106 81.567 10.5218C82.124 10.833 82.5292 11.2784 82.7843 11.857L81.1922 12.7124C80.8238 12.0631 80.293 11.7385 79.6 11.7385C79.0646 11.7385 78.6215 11.9143 78.2712 12.2652C77.9203 12.616 77.7451 13.0942 77.7451 13.6991C77.7451 14.3045 77.9203 14.7827 78.2712 15.133C78.6215 15.4845 79.0646 15.6597 79.6 15.6597C80.3018 15.6597 80.8319 15.335 81.1922 14.6858L82.7843 15.554C82.5292 16.1157 82.124 16.5541 81.567 16.87C81.01 17.1859 80.3584 17.3435 79.6129 17.3435C78.8585 17.3435 78.1813 17.1882 77.5805 16.8764Z" fill="white"/>
<path d="M58.9149 30.0587H58.7246V22.3203H58.9149V30.0587Z" fill="white"/>
<path d="M62.5192 24.8988C62.3505 25.0441 62.1117 25.1235 61.8034 25.1364V25.7272H61.5874V25.1393C61.2809 25.127 61.0438 25.0471 60.8757 24.8999C60.7081 24.7528 60.624 24.5514 60.624 24.2951C60.624 24.0405 60.7081 23.8414 60.8757 23.6978C61.0438 23.5536 61.2809 23.4759 61.5874 23.4631V22.7998H61.8034V23.4631C62.1117 23.4777 62.3505 23.5571 62.5192 23.7007C62.6885 23.8449 62.7726 24.0428 62.7726 24.2951C62.7726 24.5514 62.6885 24.7528 62.5192 24.8988ZM61.0327 24.7545C61.1582 24.8649 61.3433 24.9279 61.5874 24.9425V23.6604C61.3457 23.6727 61.1612 23.734 61.0339 23.8431C60.9066 23.9523 60.843 24.103 60.843 24.2951C60.843 24.4906 60.906 24.6442 61.0327 24.7545ZM62.3616 24.7575C62.4894 24.6477 62.5537 24.493 62.5537 24.2951C62.5537 24.1012 62.4894 23.95 62.3616 23.8414C62.2331 23.7334 62.0475 23.6727 61.8034 23.6604V24.9425C62.0475 24.9297 62.2331 24.8684 62.3616 24.7575Z" fill="white"/>
<path d="M64.7582 24.3667H63.382C63.3949 24.5378 63.4603 24.6761 63.5794 24.7812C63.6979 24.8863 63.8479 24.9389 64.0301 24.9389C64.1317 24.9389 64.2257 24.9208 64.3115 24.884C64.3968 24.8478 64.4703 24.7941 64.5334 24.7234L64.6583 24.8671C64.5853 24.9546 64.4943 25.0218 64.3845 25.0673C64.2753 25.1129 64.155 25.1356 64.0237 25.1356C63.8544 25.1356 63.7049 25.1 63.5747 25.0282C63.4445 24.9564 63.3423 24.8565 63.2699 24.7299C63.1969 24.602 63.1602 24.4584 63.1602 24.2978C63.1602 24.1372 63.1952 23.9936 63.2652 23.8663C63.3347 23.7391 63.4311 23.6404 63.5531 23.5692C63.6745 23.4985 63.8117 23.4629 63.9641 23.4629C64.1159 23.4629 64.2525 23.4985 64.374 23.5692C64.4943 23.6404 64.5894 23.7385 64.6583 23.8646C64.7272 23.9907 64.7611 24.1355 64.7611 24.2978L64.7582 24.3667ZM63.5653 23.805C63.4579 23.9066 63.3966 24.038 63.382 24.2009H64.5491C64.534 24.038 64.4732 23.9066 64.3658 23.805C64.2584 23.704 64.1247 23.6538 63.9641 23.6538C63.8059 23.6538 63.6728 23.704 63.5653 23.805Z" fill="white"/>
<path d="M66.9014 24.927V25.5179H66.6918V25.1209H65.2194V25.5179H65.0098V24.927H65.1038C65.2141 24.9206 65.2888 24.8395 65.3285 24.683C65.3683 24.5265 65.3951 24.3076 65.4097 24.0262L65.4319 23.4756H66.6451V24.927H66.9014ZM65.5539 24.6158C65.5247 24.7671 65.4728 24.8704 65.3974 24.927H66.4233V23.6729H65.6322L65.6129 24.039C65.603 24.272 65.5831 24.4646 65.5539 24.6158Z" fill="white"/>
<path d="M68.849 24.3667H67.4728C67.4857 24.5378 67.5511 24.6761 67.6702 24.7812C67.7887 24.8863 67.9393 24.9389 68.1209 24.9389C68.2225 24.9389 68.3165 24.9208 68.4023 24.884C68.4876 24.8478 68.5617 24.7941 68.6242 24.7234L68.7491 24.8671C68.6762 24.9546 68.5851 25.0218 68.4753 25.0673C68.3661 25.1129 68.2459 25.1356 68.1145 25.1356C67.9458 25.1356 67.7957 25.1 67.6655 25.0282C67.5353 24.9564 67.4331 24.8565 67.3607 24.7299C67.2878 24.602 67.251 24.4584 67.251 24.2978C67.251 24.1372 67.286 23.9936 67.3561 23.8663C67.4255 23.7391 67.5219 23.6404 67.6439 23.5692C67.7654 23.4985 67.9026 23.4629 68.0549 23.4629C68.2073 23.4629 68.3434 23.4985 68.4648 23.5692C68.5851 23.6404 68.6802 23.7385 68.7491 23.8646C68.818 23.9907 68.8519 24.1355 68.8519 24.2978L68.849 24.3667ZM67.6562 23.805C67.5487 23.9066 67.4874 24.038 67.4728 24.2009H68.6394C68.6248 24.038 68.5641 23.9066 68.4566 23.805C68.3492 23.704 68.2155 23.6538 68.0549 23.6538C67.8967 23.6538 67.763 23.704 67.6562 23.805Z" fill="white"/>
<path d="M70.6879 23.5674C70.8128 23.6375 70.9109 23.7361 70.9821 23.8634C71.0528 23.9907 71.0878 24.1349 71.0878 24.2978C71.0878 24.4624 71.0528 24.6084 70.9821 24.7357C70.9109 24.863 70.8134 24.9611 70.6896 25.0311C70.5652 25.1012 70.4251 25.1362 70.2687 25.1362C70.1355 25.1362 70.0147 25.1082 69.9072 25.0533C69.7998 24.9978 69.7117 24.9173 69.6433 24.811V25.7271H69.4209V23.4752H69.634V23.8009C69.7006 23.6923 69.7887 23.6089 69.8979 23.5505C70.0077 23.4921 70.1309 23.4629 70.2687 23.4629C70.4228 23.4629 70.5623 23.4979 70.6879 23.5674ZM70.5658 24.8595C70.6598 24.8063 70.7334 24.7304 70.7859 24.6323C70.8391 24.5348 70.8659 24.4227 70.8659 24.2978C70.8659 24.1729 70.8391 24.0619 70.7859 23.965C70.7334 23.8675 70.6598 23.7922 70.5658 23.7385C70.4718 23.6836 70.3679 23.6567 70.2529 23.6567C70.1361 23.6567 70.0316 23.6836 69.9388 23.7385C69.8459 23.7922 69.773 23.8675 69.7198 23.965C69.6667 24.0619 69.6398 24.1729 69.6398 24.2978C69.6398 24.4227 69.6667 24.5348 69.7198 24.6323C69.773 24.7304 69.8459 24.8063 69.9388 24.8595C70.0316 24.9126 70.1361 24.9389 70.2529 24.9389C70.3679 24.9389 70.4718 24.9126 70.5658 24.8595Z" fill="white"/>
<path d="M72.6951 23.624C72.8101 23.7315 72.8673 23.8903 72.8673 24.101V25.1204H72.6548V24.8636C72.6046 24.9494 72.531 25.0165 72.4341 25.0638C72.3372 25.1123 72.2222 25.1362 72.0891 25.1362C71.9052 25.1362 71.7592 25.0924 71.6506 25.0048C71.5426 24.9173 71.4883 24.8017 71.4883 24.6575C71.4883 24.5179 71.5391 24.4052 71.6401 24.32C71.7411 24.2342 71.9022 24.1915 72.1235 24.1915H72.6455V24.0911C72.6455 23.9498 72.6058 23.8418 72.5264 23.7677C72.4476 23.6941 72.3314 23.6567 72.1796 23.6567C72.0751 23.6567 71.9752 23.6742 71.8789 23.7087C71.7831 23.7426 71.7008 23.7904 71.6319 23.8506L71.5321 23.6853C71.6156 23.6141 71.7154 23.5592 71.8322 23.5207C71.9489 23.4822 72.0721 23.4629 72.2012 23.4629C72.416 23.4629 72.5807 23.5166 72.6951 23.624ZM72.4452 24.8746C72.5345 24.8174 72.6017 24.7345 72.6455 24.6259V24.3574H72.1294C71.8479 24.3574 71.7072 24.4554 71.7072 24.651C71.7072 24.7474 71.7434 24.8227 71.8164 24.8776C71.8894 24.933 71.9916 24.9611 72.1235 24.9611C72.2479 24.9611 72.3559 24.9319 72.4452 24.8746Z" fill="white"/>
<path d="M74.882 23.4756V25.1203H74.6602V23.6723H73.872L73.8503 24.0787C73.8334 24.4208 73.7943 24.6836 73.7312 24.8669C73.6688 25.0502 73.5573 25.1419 73.3967 25.1419C73.3529 25.1419 73.2998 25.1337 73.2373 25.1174L73.2531 24.9265C73.2904 24.9346 73.3167 24.9387 73.3313 24.9387C73.4165 24.9387 73.4814 24.899 73.5251 24.8202C73.5689 24.7408 73.5981 24.6427 73.6127 24.5259C73.6273 24.4092 73.6396 24.255 73.6501 24.0629L73.6781 23.4756H74.882Z" fill="white"/>
<path d="M76.7694 24.1949C76.8769 24.2848 76.9306 24.4138 76.9306 24.5832C76.9306 24.7583 76.8728 24.8926 76.7566 24.9866C76.641 25.08 76.474 25.1261 76.2551 25.1238L75.5918 25.1209V23.4756H75.8142V24.0513L76.2988 24.0577C76.5055 24.0594 76.662 24.1056 76.7694 24.1949ZM76.5878 24.8628C76.6661 24.7992 76.7052 24.7058 76.7052 24.5832C76.7052 24.4617 76.6667 24.3724 76.5896 24.314C76.5125 24.2556 76.3963 24.2253 76.2428 24.2235L75.8142 24.2171V24.9486L76.2428 24.9551C76.3946 24.9574 76.5096 24.9265 76.5878 24.8628Z" fill="white"/>
<path d="M77.4307 23.4756H77.6525V24.2036H78.6877V23.4756H78.9096V25.1203H78.6877V24.3946H77.6525V25.1203H77.4307V23.4756Z" fill="white"/>
<path d="M80.6801 23.624C80.7945 23.7315 80.8517 23.8903 80.8517 24.101V25.1204H80.6392V24.8636C80.589 24.9494 80.5154 25.0165 80.4185 25.0638C80.3216 25.1123 80.2066 25.1362 80.0734 25.1362C79.8895 25.1362 79.7436 25.0924 79.6356 25.0048C79.527 24.9173 79.4727 24.8017 79.4727 24.6575C79.4727 24.5179 79.5235 24.4052 79.6245 24.32C79.7255 24.2342 79.8866 24.1915 80.1079 24.1915H80.6299V24.0911C80.6299 23.9498 80.5901 23.8418 80.5107 23.7677C80.4319 23.6941 80.3157 23.6567 80.1639 23.6567C80.0594 23.6567 79.9596 23.6742 79.8638 23.7087C79.7675 23.7426 79.6852 23.7904 79.6169 23.8506L79.5164 23.6853C79.5999 23.6141 79.6998 23.5592 79.8171 23.5207C79.9333 23.4822 80.0565 23.4629 80.1855 23.4629C80.4004 23.4629 80.565 23.5166 80.6801 23.624ZM80.4296 24.8746C80.5195 24.8174 80.5861 24.7345 80.6299 24.6259V24.3574H80.1137C79.8323 24.3574 79.6916 24.4554 79.6916 24.651C79.6916 24.7474 79.7278 24.8227 79.8014 24.8776C79.8743 24.933 79.9759 24.9611 80.1079 24.9611C80.2322 24.9611 80.3403 24.9319 80.4296 24.8746Z" fill="white"/>
<path d="M82.7835 23.4756V25.1203H82.5803V24.5761H82.0017L81.6204 25.1203H81.3799L81.7892 24.5446C81.6619 24.5096 81.5644 24.4489 81.4955 24.363C81.4266 24.2778 81.3921 24.1692 81.3921 24.0384C81.3921 23.8545 81.4546 23.715 81.5801 23.6192C81.7045 23.5229 81.8756 23.4756 82.0928 23.4756H82.7835ZM82.0834 24.4103H82.5803V23.6723H82.0986C81.7775 23.6723 81.6175 23.7961 81.6175 24.0443C81.6175 24.2883 81.7722 24.4103 82.0834 24.4103Z" fill="white"/>
<path d="M61.9442 28.0509H61.3218V29.4982H61.0999V28.0509H60.4775V27.8535H61.9442V28.0509Z" fill="white"/>
<path d="M63.7074 28.7456H62.3312C62.3435 28.9161 62.4095 29.0545 62.5286 29.1596C62.6471 29.2652 62.7972 29.3178 62.9787 29.3178C63.0809 29.3178 63.1749 29.2997 63.2601 29.2629C63.3454 29.2267 63.4195 29.1724 63.482 29.1018L63.607 29.246C63.534 29.3335 63.4429 29.4001 63.3337 29.4456C63.2239 29.4918 63.1037 29.5145 62.9723 29.5145C62.8036 29.5145 62.6535 29.4789 62.5239 29.4071C62.3931 29.3347 62.2915 29.2355 62.2186 29.1082C62.1456 28.9809 62.1094 28.8373 62.1094 28.6767C62.1094 28.5161 62.1438 28.3719 62.2139 28.2452C62.2839 28.118 62.3797 28.0187 62.5017 27.9481C62.6237 27.8774 62.7604 27.8418 62.9128 27.8418C63.0651 27.8418 63.2018 27.8774 63.3226 27.9481C63.4435 28.0187 63.5381 28.1174 63.607 28.2435C63.6759 28.3696 63.7103 28.5138 63.7103 28.6767L63.7074 28.7456ZM62.514 28.1839C62.4066 28.2855 62.3458 28.4169 62.3312 28.5798H63.4978C63.4832 28.4169 63.4225 28.2855 63.3144 28.1839C63.2076 28.0829 63.0733 28.0321 62.9128 28.0321C62.7545 28.0321 62.6214 28.0829 62.514 28.1839Z" fill="white"/>
<path d="M65.5476 27.9463C65.6726 28.0164 65.7707 28.1145 65.8419 28.2417C65.9125 28.369 65.9481 28.5138 65.9481 28.6767C65.9481 28.8414 65.9125 28.9873 65.8419 29.1146C65.7707 29.2413 65.6732 29.34 65.5494 29.41C65.425 29.4801 65.2849 29.5145 65.129 29.5145C64.9953 29.5145 64.875 29.4871 64.7676 29.4322C64.6596 29.3767 64.572 29.2956 64.5031 29.1899V30.106H64.2812V27.8541H64.4938V28.1793C64.5609 28.0713 64.6485 27.9878 64.7583 27.9294C64.8674 27.871 64.9912 27.8418 65.129 27.8418C65.2831 27.8418 65.4227 27.8768 65.5476 27.9463ZM65.4256 29.2384C65.5196 29.1847 65.5932 29.1093 65.6463 29.0113C65.6994 28.9137 65.7263 28.8016 65.7263 28.6767C65.7263 28.5518 65.6994 28.4408 65.6463 28.3439C65.5932 28.2464 65.5196 28.1711 65.4256 28.1168C65.3322 28.0625 65.2277 28.0356 65.1132 28.0356C64.9959 28.0356 64.8914 28.0625 64.7991 28.1168C64.7057 28.1711 64.6327 28.2464 64.5802 28.3439C64.5265 28.4408 64.5002 28.5518 64.5002 28.6767C64.5002 28.8016 64.5265 28.9137 64.5802 29.0113C64.6327 29.1093 64.7057 29.1847 64.7991 29.2384C64.8914 29.2909 64.9959 29.3178 65.1132 29.3178C65.2277 29.3178 65.3322 29.2909 65.4256 29.2384Z" fill="white"/>
<path d="M67.7703 27.9463C67.8958 28.0164 67.9939 28.1145 68.0645 28.2417C68.1352 28.369 68.1708 28.5138 68.1708 28.6767C68.1708 28.8414 68.1352 28.9873 68.0645 29.1146C67.9939 29.2413 67.8964 29.34 67.772 29.41C67.6483 29.4801 67.5075 29.5145 67.3517 29.5145C67.218 29.5145 67.0977 29.4871 66.9903 29.4322C66.8828 29.3767 66.7947 29.2956 66.7258 29.1899V30.106H66.5039V27.8541H66.7164V28.1793C66.7836 28.0713 66.8717 27.9878 66.9809 27.9294C67.0907 27.871 67.2139 27.8418 67.3517 27.8418C67.5058 27.8418 67.6453 27.8768 67.7703 27.9463ZM67.6488 29.2384C67.7423 29.1847 67.8158 29.1093 67.869 29.0113C67.9221 28.9137 67.9489 28.8016 67.9489 28.6767C67.9489 28.5518 67.9221 28.4408 67.869 28.3439C67.8158 28.2464 67.7423 28.1711 67.6488 28.1168C67.5548 28.0625 67.4503 28.0356 67.3359 28.0356C67.2191 28.0356 67.1146 28.0625 67.0218 28.1168C66.929 28.1711 66.856 28.2464 66.8028 28.3439C66.7497 28.4408 66.7229 28.5518 66.7229 28.6767C66.7229 28.8016 66.7497 28.9137 66.8028 29.0113C66.856 29.1093 66.929 29.1847 67.0218 29.2384C67.1146 29.2909 67.2191 29.3178 67.3359 29.3178C67.4503 29.3178 67.5548 29.2909 67.6488 29.2384Z" fill="white"/>
<path d="M68.7266 27.8545H68.949V29.1617L70.0467 27.8545H70.2434V29.4992H70.0215V28.1925L68.9268 29.4992H68.7266V27.8545Z" fill="white"/>
<path d="M72.1141 28.0509H71.4917V29.4982H71.2698V28.0509H70.6475V27.8535H72.1141V28.0509Z" fill="white"/>
<path d="M72.6892 29.4071C72.5619 29.3347 72.462 29.2355 72.3891 29.1082C72.3155 28.9809 72.2793 28.8373 72.2793 28.6767C72.2793 28.5161 72.3155 28.3725 72.3891 28.2452C72.462 28.118 72.5619 28.0187 72.6892 27.9481C72.8159 27.8774 72.9589 27.8418 73.1171 27.8418C73.2759 27.8418 73.4184 27.8774 73.5457 27.9481C73.673 28.0187 73.7728 28.118 73.8446 28.2452C73.9164 28.3725 73.9526 28.5161 73.9526 28.6767C73.9526 28.8373 73.9164 28.9809 73.8446 29.1082C73.7728 29.2355 73.673 29.3347 73.5457 29.4071C73.4184 29.4783 73.2759 29.5145 73.1171 29.5145C72.9589 29.5145 72.8159 29.4783 72.6892 29.4071ZM73.4318 29.2378C73.5247 29.1847 73.5971 29.1093 73.649 29.0113C73.701 28.9132 73.7273 28.8016 73.7273 28.6767C73.7273 28.5518 73.701 28.4402 73.649 28.3422C73.5971 28.2441 73.5247 28.1682 73.4318 28.115C73.339 28.0619 73.2345 28.0356 73.1171 28.0356C73.0009 28.0356 72.8958 28.0619 72.803 28.115C72.7102 28.1682 72.6372 28.2441 72.5841 28.3422C72.5309 28.4402 72.5047 28.5518 72.5047 28.6767C72.5047 28.8016 72.5309 28.9132 72.5841 29.0113C72.6372 29.1093 72.7102 29.1847 72.803 29.2378C72.8958 29.2909 73.0009 29.3178 73.1171 29.3178C73.2345 29.3178 73.339 29.2909 73.4318 29.2378Z" fill="white"/>
<path d="M75.7722 27.9463C75.8972 28.0164 75.9953 28.1145 76.0659 28.2417C76.1371 28.369 76.1722 28.5138 76.1722 28.6767C76.1722 28.8414 76.1371 28.9873 76.0659 29.1146C75.9953 29.2413 75.8978 29.34 75.774 29.41C75.6496 29.4801 75.5095 29.5145 75.353 29.5145C75.2199 29.5145 75.0991 29.4871 74.9922 29.4322C74.8842 29.3767 74.796 29.2956 74.7277 29.1899V30.106H74.5059V27.8541H74.7184V28.1793C74.7849 28.0713 74.8731 27.9878 74.9823 27.9294C75.092 27.871 75.2158 27.8418 75.353 27.8418C75.5072 27.8418 75.6467 27.8768 75.7722 27.9463ZM75.6502 29.2384C75.7442 29.1847 75.8178 29.1093 75.8709 29.0113C75.9235 28.9137 75.9503 28.8016 75.9503 28.6767C75.9503 28.5518 75.9235 28.4408 75.8709 28.3439C75.8178 28.2464 75.7442 28.1711 75.6502 28.1168C75.5562 28.0625 75.4523 28.0356 75.3373 28.0356C75.2205 28.0356 75.116 28.0625 75.0232 28.1168C74.9303 28.1711 74.8573 28.2464 74.8042 28.3439C74.7511 28.4408 74.7248 28.5518 74.7248 28.6767C74.7248 28.8016 74.7511 28.9137 74.8042 29.0113C74.8573 29.1093 74.9303 29.1847 75.0232 29.2384C75.116 29.2909 75.2205 29.3178 75.3373 29.3178C75.4523 29.3178 75.5562 29.2909 75.6502 29.2384Z" fill="white"/>
<path d="M76.7305 27.8545H76.9523V29.1617L78.05 27.8545H78.2467V29.4992H78.0249V28.1925L76.9307 29.4992H76.7305V27.8545Z" fill="white"/>
<path d="M80.2235 27.8535V29.4982H80.0203V28.9541H79.4417L79.0599 29.4982H78.8193L79.2286 28.9231C79.1019 28.8875 79.0038 28.8274 78.9349 28.7416C78.866 28.6563 78.8316 28.5477 78.8316 28.4163C78.8316 28.233 78.8941 28.0935 79.019 27.9977C79.1445 27.9014 79.315 27.8535 79.5322 27.8535H80.2235ZM79.5229 28.7888H80.0203V28.0509H79.5386C79.2175 28.0509 79.057 28.1746 79.057 28.4228C79.057 28.6668 79.2123 28.7888 79.5229 28.7888Z" fill="white"/>
</g>
<defs>
<clipPath id="clip0_467_2757">
<rect width="84" height="30.0427" fill="white"/>
</clipPath>
</defs>
</svg>
