<svg width="168" height="60" viewBox="0 0 168 60" fill="none" xmlns="http://www.w3.org/2000/svg">
<g clip-path="url(#clip0_516_5093)">
<path d="M43.0533 11.1106L34.6823 19.4828C34.4899 19.6752 34.4269 19.9644 34.5319 20.2151C35.0974 21.5631 35.4029 23.0474 35.3773 24.6076C35.2875 30.3049 30.7224 35.0344 25.031 35.3142C18.5862 35.6314 13.2924 30.3445 13.5956 23.901C13.8649 18.2375 18.5419 13.6748 24.2112 13.536C25.7539 13.4987 27.2255 13.7844 28.5652 14.3266C28.8148 14.428 29.0993 14.3627 29.2894 14.1738L37.6802 5.78182C38.2971 5.16614 38.1839 4.13303 37.4447 3.67011C33.5408 1.22608 28.8964 -0.147521 23.9255 -0.036747C10.9929 0.2501 0.430909 10.7049 0.0204611 23.634C-0.428466 37.7804 11.1317 49.3406 25.2793 48.8917C38.2352 48.48 48.7005 37.8737 48.9512 24.9143C49.0468 19.9166 47.6441 15.2524 45.1616 11.3404C44.6963 10.6057 43.6679 10.4973 43.0533 11.1106Z" fill="white"/>
<path d="M64.7834 33.5219C63.2676 32.7069 62.077 31.577 61.2095 30.1322C60.342 28.6863 59.9082 27.0527 59.9082 25.2313C59.9082 23.4088 60.342 21.7752 61.2095 20.3305C62.077 18.8846 63.2676 17.7558 64.7834 16.9408C66.2981 16.1257 68.0017 15.7188 69.8942 15.7188C71.4882 15.7188 72.9294 15.9986 74.2167 16.5595C75.5041 17.1203 76.5861 17.9261 77.4618 18.9767L74.7286 21.5C73.4845 20.0634 71.9441 19.3451 70.1041 19.3451C68.9649 19.3451 67.9492 19.5947 67.0561 20.0938C66.1629 20.5928 65.4667 21.2889 64.9677 22.1833C64.4674 23.0765 64.2179 24.0921 64.2179 25.2313C64.2179 26.3706 64.4674 27.385 64.9677 28.2794C65.4667 29.1726 66.1629 29.8687 67.0561 30.3689C67.9492 30.868 68.9649 31.1175 70.1041 31.1175C71.9441 31.1175 73.4845 30.3899 74.7286 28.9359L77.4618 31.4592C76.5861 32.5273 75.4994 33.3424 74.2039 33.9032C72.9073 34.4629 71.4625 34.7428 69.8674 34.7428C67.9936 34.7428 66.2981 34.337 64.7834 33.5219Z" fill="white"/>
<path d="M80.0625 20.291H84.1355V28.7005L91.0198 20.291H94.778V34.4281H90.705V26.0198L83.8463 34.4281H80.0625V20.291Z" fill="white"/>
<path d="M110.769 20.9861C111.846 21.5913 112.692 22.4402 113.304 23.5351C113.917 24.63 114.224 25.9045 114.224 27.3585C114.224 28.8126 113.917 30.0871 113.304 31.182C112.692 32.2769 111.846 33.1258 110.769 33.731C109.691 34.335 108.495 34.637 107.182 34.637C105.377 34.637 103.958 34.0691 102.925 32.9299V39.525H98.8262V20.29H102.741V21.9189C103.756 20.6934 105.237 20.0801 107.182 20.0801C108.495 20.0801 109.691 20.3821 110.769 20.9861ZM109.061 30.2095C109.735 29.5006 110.073 28.5502 110.073 27.3585C110.073 26.168 109.735 25.2165 109.061 24.5075C108.385 23.7986 107.524 23.443 106.472 23.443C105.421 23.443 104.558 23.7986 103.884 24.5075C103.209 25.2165 102.872 26.168 102.872 27.3585C102.872 28.5502 103.209 29.5006 103.884 30.2095C104.558 30.9196 105.421 31.2741 106.472 31.2741C107.524 31.2741 108.385 30.9196 109.061 30.2095Z" fill="white"/>
<path d="M117.219 20.291H121.292V28.7005L128.176 20.291H131.934V34.4281H127.861V26.0198L121.003 34.4281H117.219V20.291Z" fill="white"/>
<path d="M150.169 20.291L143.784 35.2957C143.136 36.9246 142.335 38.072 141.38 38.7378C140.425 39.4037 139.273 39.736 137.925 39.736C137.189 39.736 136.461 39.6217 135.743 39.3943C135.025 39.1669 134.438 38.8521 133.982 38.4487L135.481 35.5324C135.797 35.8122 136.159 36.0315 136.571 36.1889C136.983 36.3463 137.391 36.4256 137.793 36.4256C138.354 36.4256 138.809 36.2891 139.16 36.0175C139.509 35.7458 139.825 35.2957 140.105 34.6648L140.158 34.5331L134.036 20.291H138.266L142.235 29.8829L146.228 20.291H150.169Z" fill="white"/>
<path d="M154.941 33.7041C153.741 33.0826 152.803 32.2198 152.129 31.1167C151.454 30.0124 151.117 28.7601 151.117 27.3585C151.117 25.9569 151.454 24.7046 152.129 23.6004C152.803 22.4973 153.741 21.6344 154.941 21.0129C156.141 20.3914 157.493 20.0801 159 20.0801C160.489 20.0801 161.79 20.3914 162.902 21.0129C164.015 21.6344 164.824 22.5241 165.334 23.6797L162.154 25.3879C161.418 24.0913 160.358 23.443 158.974 23.443C157.905 23.443 157.02 23.7939 156.32 24.4947C155.619 25.1955 155.269 26.1505 155.269 27.3585C155.269 28.5677 155.619 29.5227 156.32 30.2223C157.02 30.9243 157.905 31.2741 158.974 31.2741C160.376 31.2741 161.434 30.6258 162.154 29.3291L165.334 31.0631C164.824 32.1848 164.015 33.0605 162.902 33.6913C161.79 34.3222 160.489 34.637 159 34.637C157.493 34.637 156.141 34.3268 154.941 33.7041Z" fill="white"/>
<path d="M117.663 60.0329H117.283V44.5781H117.663V60.0329Z" fill="white"/>
<path d="M124.861 49.7271C124.524 50.0174 124.047 50.176 123.432 50.2017V51.3817H123V50.2075C122.388 50.183 121.915 50.0233 121.579 49.7294C121.244 49.4356 121.076 49.0333 121.076 48.5214C121.076 48.013 121.244 47.6154 121.579 47.3285C121.915 47.0405 122.388 46.8854 123 46.8598V45.5352H123.432V46.8598C124.047 46.8889 124.524 47.0475 124.861 47.3344C125.199 47.6224 125.367 48.0177 125.367 48.5214C125.367 49.0333 125.199 49.4356 124.861 49.7271ZM121.892 49.4391C122.143 49.6595 122.513 49.7854 123 49.8145V47.2539C122.517 47.2784 122.149 47.4008 121.895 47.6189C121.641 47.8369 121.513 48.1378 121.513 48.5214C121.513 48.912 121.639 49.2187 121.892 49.4391ZM124.546 49.4449C124.802 49.2257 124.93 48.9167 124.93 48.5214C124.93 48.1343 124.802 47.8323 124.546 47.6154C124.29 47.3997 123.919 47.2784 123.432 47.2539V49.8145C123.919 49.7889 124.29 49.6665 124.546 49.4449Z" fill="white"/>
<path d="M129.332 48.6644H126.584C126.609 49.0061 126.74 49.2824 126.978 49.4923C127.215 49.7022 127.514 49.8071 127.878 49.8071C128.081 49.8071 128.269 49.771 128.44 49.6975C128.61 49.6252 128.757 49.518 128.883 49.3769L129.133 49.6637C128.987 49.8386 128.805 49.9727 128.586 50.0637C128.368 50.1546 128.128 50.2001 127.865 50.2001C127.527 50.2001 127.229 50.129 126.969 49.9855C126.708 49.8421 126.504 49.6427 126.36 49.3897C126.214 49.1343 126.141 48.8475 126.141 48.5268C126.141 48.2062 126.211 47.9193 126.351 47.6651C126.489 47.4109 126.682 47.2139 126.925 47.0716C127.168 46.9305 127.442 46.8594 127.746 46.8594C128.049 46.8594 128.322 46.9305 128.565 47.0716C128.805 47.2139 128.995 47.4097 129.133 47.6616C129.27 47.9135 129.338 48.2027 129.338 48.5268L129.332 48.6644ZM126.95 47.5427C126.735 47.7456 126.613 48.0079 126.584 48.3333H128.915C128.884 48.0079 128.763 47.7456 128.549 47.5427C128.334 47.341 128.067 47.2407 127.746 47.2407C127.43 47.2407 127.164 47.341 126.95 47.5427Z" fill="white"/>
<path d="M133.612 49.7836V50.9636H133.193V50.1707H130.253V50.9636H129.834V49.7836H130.022C130.242 49.7707 130.391 49.6086 130.471 49.2961C130.55 48.9836 130.604 48.5464 130.633 47.9843L130.677 46.8848H133.1V49.7836H133.612ZM130.921 49.1621C130.862 49.4641 130.759 49.6704 130.608 49.7836H132.657V47.2789H131.077L131.039 48.01C131.019 48.4753 130.979 48.86 130.921 49.1621Z" fill="white"/>
<path d="M137.502 48.6644H134.754C134.779 49.0061 134.91 49.2824 135.148 49.4923C135.384 49.7022 135.685 49.8071 136.048 49.8071C136.251 49.8071 136.439 49.771 136.61 49.6975C136.78 49.6252 136.928 49.518 137.053 49.3769L137.303 49.6637C137.157 49.8386 136.975 49.9727 136.756 50.0637C136.538 50.1546 136.297 50.2001 136.035 50.2001C135.698 50.2001 135.398 50.129 135.138 49.9855C134.878 49.8421 134.674 49.6427 134.53 49.3897C134.384 49.1343 134.311 48.8475 134.311 48.5268C134.311 48.2062 134.381 47.9193 134.52 47.6651C134.659 47.4109 134.852 47.2139 135.095 47.0716C135.338 46.9305 135.612 46.8594 135.916 46.8594C136.221 46.8594 136.492 46.9305 136.735 47.0716C136.975 47.2139 137.165 47.4097 137.303 47.6616C137.44 47.9135 137.508 48.2027 137.508 48.5268L137.502 48.6644ZM135.12 47.5427C134.905 47.7456 134.783 48.0079 134.754 48.3333H137.083C137.054 48.0079 136.933 47.7456 136.718 47.5427C136.504 47.341 136.237 47.2407 135.916 47.2407C135.6 47.2407 135.333 47.341 135.12 47.5427Z" fill="white"/>
<path d="M141.175 47.0681C141.424 47.208 141.62 47.4051 141.763 47.6593C141.904 47.9135 141.974 48.2015 141.974 48.5268C141.974 48.8556 141.904 49.1472 141.763 49.4014C141.62 49.6556 141.426 49.8514 141.178 49.9914C140.93 50.1313 140.65 50.2013 140.338 50.2013C140.072 50.2013 139.83 50.1453 139.616 50.0357C139.401 49.9249 139.225 49.764 139.089 49.5518V51.3813H138.645V46.8839H139.07V47.5345C139.203 47.3176 139.379 47.1509 139.597 47.0343C139.816 46.9177 140.062 46.8594 140.338 46.8594C140.645 46.8594 140.924 46.9293 141.175 47.0681ZM140.931 49.6486C141.119 49.5424 141.266 49.3909 141.371 49.195C141.477 49.0002 141.53 48.7764 141.53 48.5268C141.53 48.2773 141.477 48.0557 141.371 47.8622C141.266 47.6674 141.119 47.517 140.931 47.4097C140.743 47.3001 140.536 47.2465 140.306 47.2465C140.073 47.2465 139.864 47.3001 139.679 47.4097C139.493 47.517 139.348 47.6674 139.242 47.8622C139.135 48.0557 139.082 48.2773 139.082 48.5268C139.082 48.7764 139.135 49.0002 139.242 49.195C139.348 49.3909 139.493 49.5424 139.679 49.6486C139.864 49.7547 140.073 49.8071 140.306 49.8071C140.536 49.8071 140.743 49.7547 140.931 49.6486Z" fill="white"/>
<path d="M145.184 47.1812C145.413 47.3958 145.528 47.7129 145.528 48.1339V50.1698H145.103V49.6567C145.003 49.8281 144.856 49.9622 144.662 50.0567C144.469 50.1535 144.239 50.2013 143.973 50.2013C143.606 50.2013 143.314 50.1138 143.098 49.9389C142.882 49.764 142.773 49.5331 142.773 49.2451C142.773 48.9664 142.875 48.7414 143.077 48.5711C143.278 48.3997 143.6 48.3146 144.042 48.3146H145.085V48.114C145.085 47.8319 145.005 47.6161 144.847 47.4681C144.689 47.3211 144.457 47.2465 144.154 47.2465C143.945 47.2465 143.746 47.2815 143.554 47.3503C143.362 47.4179 143.198 47.5135 143.06 47.6336L142.861 47.3036C143.028 47.1614 143.227 47.0518 143.46 46.9748C143.693 46.8979 143.939 46.8594 144.197 46.8594C144.626 46.8594 144.955 46.9667 145.184 47.1812ZM144.685 49.6789C144.863 49.5646 144.997 49.399 145.085 49.1821V48.6458H144.054C143.492 48.6458 143.211 48.8417 143.211 49.2323C143.211 49.4247 143.283 49.5751 143.429 49.6847C143.575 49.7955 143.779 49.8514 144.042 49.8514C144.29 49.8514 144.506 49.7931 144.685 49.6789Z" fill="white"/>
<path d="M149.55 46.8848V50.1695H149.107V47.2777H147.533L147.49 48.0893C147.456 48.7726 147.378 49.2973 147.252 49.6635C147.127 50.0296 146.905 50.2127 146.584 50.2127C146.497 50.2127 146.39 50.1963 146.266 50.1637L146.297 49.7824C146.372 49.7987 146.424 49.8069 146.453 49.8069C146.624 49.8069 146.753 49.7276 146.84 49.5702C146.928 49.4116 146.986 49.2157 147.015 48.9825C147.045 48.7493 147.069 48.4414 147.09 48.0578L147.146 46.8848H149.55Z" fill="white"/>
<path d="M153.321 48.3213C153.535 48.5009 153.642 48.7586 153.642 49.0968C153.642 49.4466 153.527 49.7148 153.295 49.9025C153.064 50.0891 152.731 50.1812 152.293 50.1765L150.969 50.1707V46.8848H151.413V48.0345L152.381 48.0473C152.794 48.0508 153.106 48.1429 153.321 48.3213ZM152.958 49.6553C153.114 49.5282 153.192 49.3416 153.192 49.0968C153.192 48.8542 153.115 48.6758 152.962 48.5592C152.808 48.4426 152.576 48.382 152.269 48.3785L151.413 48.3656V49.8267L152.269 49.8395C152.572 49.8442 152.802 49.7824 152.958 49.6553Z" fill="white"/>
<path d="M154.641 46.8848H155.084V48.3388H157.151V46.8848H157.594V50.1695H157.151V48.7201H155.084V50.1695H154.641V46.8848Z" fill="white"/>
<path d="M161.13 47.1812C161.359 47.3958 161.473 47.7129 161.473 48.1339V50.1698H161.049V49.6567C160.948 49.8281 160.801 49.9622 160.608 50.0567C160.414 50.1535 160.184 50.2013 159.919 50.2013C159.551 50.2013 159.26 50.1138 159.044 49.9389C158.827 49.764 158.719 49.5331 158.719 49.2451C158.719 48.9664 158.82 48.7414 159.022 48.5711C159.224 48.3997 159.545 48.3146 159.987 48.3146H161.03V48.114C161.03 47.8319 160.951 47.6161 160.792 47.4681C160.635 47.3211 160.403 47.2465 160.099 47.2465C159.891 47.2465 159.691 47.2815 159.5 47.3503C159.308 47.4179 159.143 47.5135 159.007 47.6336L158.806 47.3036C158.973 47.1614 159.172 47.0518 159.407 46.9748C159.639 46.8979 159.885 46.8594 160.142 46.8594C160.572 46.8594 160.9 46.9667 161.13 47.1812ZM160.63 49.6789C160.809 49.5646 160.942 49.399 161.03 49.1821V48.6458H159.999C159.437 48.6458 159.156 48.8417 159.156 49.2323C159.156 49.4247 159.228 49.5751 159.375 49.6847C159.521 49.7955 159.724 49.8514 159.987 49.8514C160.236 49.8514 160.451 49.7931 160.63 49.6789Z" fill="white"/>
<path d="M165.332 46.8848V50.1695H164.927V49.0828H163.771L163.01 50.1695H162.529L163.347 49.0198C163.092 48.9498 162.898 48.8286 162.76 48.6572C162.623 48.4869 162.554 48.27 162.554 48.0088C162.554 47.6415 162.679 47.3628 162.929 47.1716C163.178 46.9792 163.519 46.8848 163.953 46.8848H165.332ZM163.934 48.7516H164.927V47.2777H163.965C163.323 47.2777 163.004 47.5249 163.004 48.0205C163.004 48.5079 163.313 48.7516 163.934 48.7516Z" fill="white"/>
<path d="M123.712 56.023H122.469V58.9137H122.026V56.023H120.783V55.6289H123.712V56.023Z" fill="white"/>
<path d="M127.234 57.4086H124.486C124.511 57.749 124.642 58.0254 124.88 58.2353C125.117 58.4463 125.417 58.5513 125.779 58.5513C125.983 58.5513 126.171 58.5151 126.341 58.4417C126.511 58.3694 126.66 58.2609 126.784 58.1198L127.034 58.4079C126.888 58.5828 126.706 58.7157 126.488 58.8066C126.269 58.8988 126.029 58.9442 125.766 58.9442C125.429 58.9442 125.13 58.8731 124.871 58.7297C124.61 58.5851 124.407 58.3869 124.261 58.1327C124.115 57.8785 124.043 57.5916 124.043 57.271C124.043 56.9503 124.112 56.6623 124.252 56.4093C124.392 56.1551 124.583 55.9568 124.827 55.8157C125.07 55.6746 125.343 55.6035 125.647 55.6035C125.952 55.6035 126.225 55.6746 126.466 55.8157C126.707 55.9568 126.896 56.1539 127.034 56.4058C127.171 56.6576 127.24 56.9456 127.24 57.271L127.234 57.4086ZM124.851 56.2868C124.636 56.4897 124.515 56.7521 124.486 57.0774H126.816C126.787 56.7521 126.665 56.4897 126.45 56.2868C126.236 56.0851 125.968 55.9836 125.647 55.9836C125.331 55.9836 125.066 56.0851 124.851 56.2868Z" fill="white"/>
<path d="M130.908 55.8122C131.158 55.9522 131.353 56.1481 131.496 56.4023C131.637 56.6565 131.708 56.9456 131.708 57.271C131.708 57.5998 131.637 57.8913 131.496 58.1455C131.353 58.3985 131.159 58.5956 130.912 58.7355C130.663 58.8754 130.383 58.9442 130.072 58.9442C129.805 58.9442 129.565 58.8894 129.35 58.7798C129.135 58.669 128.96 58.507 128.822 58.2959V60.1254H128.379V55.628H128.803V56.2775C128.937 56.0618 129.112 55.895 129.332 55.7784C129.55 55.6618 129.797 55.6035 130.072 55.6035C130.38 55.6035 130.659 55.6735 130.908 55.8122ZM130.664 58.3927C130.852 58.2854 130.999 58.135 131.105 57.9391C131.211 57.7444 131.265 57.5205 131.265 57.271C131.265 57.0214 131.211 56.7999 131.105 56.6063C130.999 56.4116 130.852 56.2612 130.664 56.1527C130.478 56.0443 130.269 55.9906 130.041 55.9906C129.806 55.9906 129.597 56.0443 129.413 56.1527C129.227 56.2612 129.081 56.4116 128.976 56.6063C128.869 56.7999 128.816 57.0214 128.816 57.271C128.816 57.5205 128.869 57.7444 128.976 57.9391C129.081 58.135 129.227 58.2854 129.413 58.3927C129.597 58.4976 129.806 58.5513 130.041 58.5513C130.269 58.5513 130.478 58.4976 130.664 58.3927Z" fill="white"/>
<path d="M135.348 55.8122C135.598 55.9522 135.794 56.1481 135.935 56.4023C136.076 56.6565 136.147 56.9456 136.147 57.271C136.147 57.5998 136.076 57.8913 135.935 58.1455C135.794 58.3985 135.599 58.5956 135.351 58.7355C135.104 58.8754 134.823 58.9442 134.511 58.9442C134.244 58.9442 134.004 58.8894 133.79 58.7798C133.575 58.669 133.399 58.507 133.261 58.2959V60.1254H132.818V55.628H133.243V56.2775C133.377 56.0618 133.553 55.895 133.771 55.7784C133.99 55.6618 134.236 55.6035 134.511 55.6035C134.819 55.6035 135.098 55.6735 135.348 55.8122ZM135.105 58.3927C135.292 58.2854 135.438 58.135 135.545 57.9391C135.651 57.7444 135.704 57.5205 135.704 57.271C135.704 57.0214 135.651 56.7999 135.545 56.6063C135.438 56.4116 135.292 56.2612 135.105 56.1527C134.917 56.0443 134.709 55.9906 134.48 55.9906C134.247 55.9906 134.038 56.0443 133.853 56.1527C133.667 56.2612 133.521 56.4116 133.415 56.6063C133.309 56.7999 133.256 57.0214 133.256 57.271C133.256 57.5205 133.309 57.7444 133.415 57.9391C133.521 58.135 133.667 58.2854 133.853 58.3927C134.038 58.4976 134.247 58.5513 134.48 58.5513C134.709 58.5513 134.917 58.4976 135.105 58.3927Z" fill="white"/>
<path d="M137.258 55.6289H137.702V58.2397L139.894 55.6289H140.287V58.9137H139.844V56.304L137.658 58.9137H137.258V55.6289Z" fill="white"/>
<path d="M144.023 56.023H142.78V58.9137H142.337V56.023H141.094V55.6289H144.023V56.023Z" fill="white"/>
<path d="M145.172 58.7297C144.918 58.5851 144.718 58.3869 144.573 58.1327C144.426 57.8785 144.354 57.5916 144.354 57.271C144.354 56.9503 144.426 56.6635 144.573 56.4093C144.718 56.1551 144.918 55.9568 145.172 55.8157C145.425 55.6746 145.711 55.6035 146.027 55.6035C146.344 55.6035 146.628 55.6746 146.883 55.8157C147.137 55.9568 147.336 56.1551 147.48 56.4093C147.623 56.6635 147.695 56.9503 147.695 57.271C147.695 57.5916 147.623 57.8785 147.48 58.1327C147.336 58.3869 147.137 58.5851 146.883 58.7297C146.628 58.8719 146.344 58.9442 146.027 58.9442C145.711 58.9442 145.425 58.8719 145.172 58.7297ZM146.655 58.3915C146.841 58.2854 146.985 58.135 147.089 57.9391C147.193 57.7432 147.245 57.5205 147.245 57.271C147.245 57.0214 147.193 56.7987 147.089 56.6028C146.985 56.4069 146.841 56.2553 146.655 56.1492C146.47 56.0431 146.261 55.9906 146.027 55.9906C145.795 55.9906 145.585 56.0431 145.399 56.1492C145.214 56.2553 145.068 56.4069 144.962 56.6028C144.856 56.7987 144.804 57.0214 144.804 57.271C144.804 57.5205 144.856 57.7432 144.962 57.9391C145.068 58.135 145.214 58.2854 145.399 58.3915C145.585 58.4976 145.795 58.5513 146.027 58.5513C146.261 58.5513 146.47 58.4976 146.655 58.3915Z" fill="white"/>
<path d="M151.33 55.8122C151.579 55.9522 151.775 56.1481 151.916 56.4023C152.059 56.6565 152.129 56.9456 152.129 57.271C152.129 57.5998 152.059 57.8913 151.916 58.1455C151.775 58.3985 151.581 58.5956 151.333 58.7355C151.085 58.8754 150.805 58.9442 150.493 58.9442C150.227 58.9442 149.985 58.8894 149.772 58.7798C149.556 58.669 149.38 58.507 149.244 58.2959V60.1254H148.801V55.628H149.225V56.2775C149.358 56.0618 149.534 55.895 149.752 55.7784C149.971 55.6618 150.219 55.6035 150.493 55.6035C150.801 55.6035 151.079 55.6735 151.33 55.8122ZM151.086 58.3927C151.274 58.2854 151.421 58.135 151.527 57.9391C151.632 57.7444 151.686 57.5205 151.686 57.271C151.686 57.0214 151.632 56.7999 151.527 56.6063C151.421 56.4116 151.274 56.2612 151.086 56.1527C150.898 56.0443 150.691 55.9906 150.461 55.9906C150.228 55.9906 150.019 56.0443 149.834 56.1527C149.648 56.2612 149.503 56.4116 149.397 56.6063C149.291 56.7999 149.238 57.0214 149.238 57.271C149.238 57.5205 149.291 57.7444 149.397 57.9391C149.503 58.135 149.648 58.2854 149.834 58.3927C150.019 58.4976 150.228 58.5513 150.461 58.5513C150.691 58.5513 150.898 58.4976 151.086 58.3927Z" fill="white"/>
<path d="M153.242 55.6289H153.685V58.2397L155.877 55.6289H156.27V58.9137H155.827V56.304L153.642 58.9137H153.242V55.6289Z" fill="white"/>
<path d="M160.218 55.6289V58.9137H159.813V57.8269H158.657L157.894 58.9137H157.414L158.231 57.7651C157.978 57.694 157.783 57.5739 157.645 57.4025C157.507 57.2322 157.439 57.0153 157.439 56.753C157.439 56.3868 157.563 56.1082 157.813 55.9169C158.064 55.7245 158.404 55.6289 158.838 55.6289H160.218ZM158.819 57.4969H159.813V56.023H158.851C158.209 56.023 157.889 56.2702 157.889 56.7658C157.889 57.2532 158.199 57.4969 158.819 57.4969Z" fill="white"/>
</g>
<defs>
<clipPath id="clip0_516_5093">
<rect width="167.761" height="60" fill="white"/>
</clipPath>
</defs>
</svg>
