<svg width="274" height="40" viewBox="0 0 274 40" fill="none" xmlns="http://www.w3.org/2000/svg">
<g clip-path="url(#clip0_692_3424)">
<mask id="mask0_692_3424" style="mask-type:luminance" maskUnits="userSpaceOnUse" x="-17" y="-190" width="421" height="422">
<path d="M403.237 -189.895H-16.3652V231.158H403.237V-189.895Z" fill="white"/>
</mask>
<g mask="url(#mask0_692_3424)">
<path d="M76.9671 34.5687H80.5421V35.1793H76.9671V38.7835H76.2957V35.1793H72.7207V34.5687H76.2957V30.9688H76.9671V34.5687Z" fill="white"/>
</g>
<mask id="mask1_692_3424" style="mask-type:luminance" maskUnits="userSpaceOnUse" x="-17" y="-190" width="421" height="422">
<path d="M403.237 -189.895H-16.3652V231.158H403.237V-189.895Z" fill="white"/>
</mask>
<g mask="url(#mask1_692_3424)">
<path d="M92.4832 32.2402L89.9824 39.6676H88.8788L86.8269 33.7518L84.7751 39.6676H83.6883L81.1875 32.2402H82.4547L84.2506 38.1729L86.2521 32.2402H87.4228L89.4243 38.1729L91.2034 32.2402H92.4832Z" fill="white"/>
</g>
<mask id="mask2_692_3424" style="mask-type:luminance" maskUnits="userSpaceOnUse" x="-17" y="-190" width="421" height="422">
<path d="M403.237 -189.895H-16.3652V231.158H403.237V-189.895Z" fill="white"/>
</mask>
<g mask="url(#mask2_692_3424)">
<path d="M100.846 35.9537C100.846 38.2526 99.1638 39.9074 96.8392 39.9074C94.5314 39.9074 92.832 38.2526 92.832 35.9537C92.832 33.6548 94.5314 32 96.8392 32C99.1638 31.9958 100.846 33.6548 100.846 35.9537ZM94.0531 35.9537C94.0531 37.659 95.2364 38.7663 96.8392 38.7663C98.4421 38.7663 99.6254 37.6548 99.6254 35.9537C99.6254 34.2484 98.4379 33.1411 96.8392 33.1411C95.2364 33.1411 94.0531 34.2484 94.0531 35.9537Z" fill="white"/>
</g>
<mask id="mask3_692_3424" style="mask-type:luminance" maskUnits="userSpaceOnUse" x="-17" y="-190" width="421" height="422">
<path d="M403.237 -189.895H-16.3652V231.158H403.237V-189.895Z" fill="white"/>
</mask>
<g mask="url(#mask3_692_3424)">
<path d="M106.112 33.3484H105.886C104.316 33.3484 103.435 34.3463 103.435 36.1779V39.6684H102.281V32.241H103.435V33.9126H103.465C103.771 32.8052 104.669 32.0137 105.915 32.0137H106.108V33.3484H106.112Z" fill="white"/>
</g>
<mask id="mask4_692_3424" style="mask-type:luminance" maskUnits="userSpaceOnUse" x="-17" y="-190" width="421" height="422">
<path d="M403.237 -189.895H-16.3652V231.158H403.237V-189.895Z" fill="white"/>
</mask>
<g mask="url(#mask4_692_3424)">
<path d="M108.386 28.4121H107.232V39.6669H108.386V28.4121Z" fill="white"/>
</g>
<mask id="mask5_692_3424" style="mask-type:luminance" maskUnits="userSpaceOnUse" x="-17" y="-190" width="421" height="422">
<path d="M403.237 -189.895H-16.3652V231.158H403.237V-189.895Z" fill="white"/>
</mask>
<g mask="url(#mask5_692_3424)">
<path d="M109.863 35.9532C109.863 33.4942 111.496 31.9995 113.531 31.9995C114.878 31.9995 115.822 32.6269 116.334 33.5574H116.367V28.4121H117.521V39.6669H116.367V38.349H116.334C115.822 39.2795 114.873 39.9069 113.531 39.9069C111.496 39.9069 109.863 38.4121 109.863 35.9532ZM116.43 35.9532C116.43 34.3153 115.373 33.1405 113.753 33.1405C112.133 33.1405 111.076 34.3153 111.076 35.9532C111.076 37.5953 112.133 38.7658 113.753 38.7658C115.373 38.7658 116.43 37.5911 116.43 35.9532Z" fill="white"/>
</g>
<mask id="mask6_692_3424" style="mask-type:luminance" maskUnits="userSpaceOnUse" x="-17" y="-190" width="421" height="422">
<path d="M403.237 -189.895H-16.3652V231.158H403.237V-189.895Z" fill="white"/>
</mask>
<g mask="url(#mask6_692_3424)">
<path d="M46.4331 7.48633L45.359 8.56422V10.8842C45.359 10.9263 45.359 10.9642 45.359 11.0063C45.338 19.36 39.0985 26.1474 31.4366 26.1474C23.7746 26.1474 17.5352 19.36 17.5142 11.0063V8.56422L16.44 7.48633H0V39.6884H6.77657V14.2821H10.9768C12.4874 24.8337 21.0892 32.9474 31.4366 32.9474C41.784 32.9474 50.3858 24.8379 51.8964 14.2821H56.0966V39.6884H62.8731V7.48633H46.4331Z" fill="white"/>
</g>
<mask id="mask7_692_3424" style="mask-type:luminance" maskUnits="userSpaceOnUse" x="-17" y="-190" width="421" height="422">
<path d="M403.237 -189.895H-16.3652V231.158H403.237V-189.895Z" fill="white"/>
</mask>
<g mask="url(#mask7_692_3424)">
<path d="M110.3 18.35L113.225 18.2321C113.636 20.11 115.386 21.1669 117.492 21.1669C119.422 21.1669 121.294 20.2869 121.294 18.9985C121.294 18.0595 120.299 17.4153 117.203 16.6532C113.053 15.6553 110.77 14.19 110.77 11.7858C110.77 9.20477 113.401 7.38583 117.375 7.38583C121.29 7.38583 123.631 9.4953 124.155 11.9627L121.29 12.1395C120.937 10.9058 119.594 10.0258 117.375 10.0258C115.151 10.0258 113.808 10.8469 113.808 11.9627C113.808 13.0195 115.092 13.2553 117.723 14.0174C121.755 15.0153 124.327 15.8953 124.327 18.6532C124.327 21.8785 120.82 23.7564 117.37 23.7564C113.632 23.7479 110.766 21.6342 110.3 18.35ZM254.454 20.0511H245.571L254.689 9.84478V7.90793H241.77V10.9564H250.011L241.535 20.4006V23.0995H254.454V20.0511ZM229.903 23.7479C224.935 23.7479 221.369 20.2869 221.369 15.6511C221.369 10.9606 224.935 7.44057 229.845 7.44057C233.588 7.44057 238.031 9.84478 238.031 15.8869V16.4132H224.352C224.877 19.1121 226.924 21.049 229.849 21.049C231.662 21.049 233.881 20.2869 234.582 18.6448H237.679C236.861 21.9879 233.176 23.7479 229.903 23.7479ZM224.465 14.1269H234.93C234.23 11.6637 232.534 10.1395 229.845 10.1395C227.038 10.1395 225.284 11.7816 224.465 14.1269ZM261.646 16.0637V23.1037H258.608V0.813194H261.646V9.4953C262.523 8.32056 264.626 7.44057 266.791 7.44057C270.475 7.44057 274.096 9.84477 274.096 16.0637V23.1037H270.882V16.0637C270.882 12.4258 269.363 10.3164 266.38 10.3164C263.631 10.3121 261.646 12.1311 261.646 16.0637ZM201.199 15.6511C201.199 20.0511 204.824 23.7479 209.322 23.7479C211.311 23.7479 213.472 23.1037 214.936 21.7521L215.054 23.3942H217.92V0.046875H214.941V9.60899C213.304 8.14373 210.967 7.44057 209.213 7.44057C204.824 7.44057 201.199 11.0785 201.199 15.6511ZM214.936 15.6511C214.936 18.6448 212.947 20.99 209.674 20.99C206.578 20.99 204.471 18.6448 204.471 15.6511C204.471 12.4848 206.578 10.0806 209.674 10.0806C213.01 10.0806 214.936 12.7206 214.936 15.6511ZM174.952 23.1037H178.108V0.0510896H174.952V23.1037ZM88.4347 14.1269H85.3968C85.3968 11.1921 83.4079 10.0806 81.5952 10.0806C80.0763 10.0806 78.0286 11.1964 78.0286 14.1269V23.0995H74.8145V14.1269C74.8145 10.6658 77.5041 7.44057 81.5952 7.44057C85.7451 7.44057 88.4347 10.6658 88.4347 14.1269ZM90.6586 15.5921C90.6586 10.8427 94.5148 7.44057 99.0758 7.44057C103.637 7.44057 107.376 10.8427 107.611 15.5921C107.611 20.2279 103.637 23.7437 99.0758 23.7437C94.5148 23.7479 90.6586 20.2279 90.6586 15.5921ZM99.0758 20.99C102.29 20.99 104.338 18.4679 104.338 15.5921C104.338 12.5437 102.29 10.1353 99.0758 10.1353C95.9792 10.1353 93.814 12.4806 93.814 15.5921C93.814 18.4679 95.975 20.99 99.0758 20.99ZM154.728 15.6511C154.728 10.9606 158.701 7.49951 163.321 7.49951C167.882 7.49951 171.797 10.9606 171.797 15.6511C171.797 20.3458 167.882 23.7479 163.321 23.7479C158.701 23.7479 154.728 20.3458 154.728 15.6511ZM163.321 20.99C166.359 20.99 168.524 18.7037 168.524 15.6511C168.524 12.6616 166.363 10.1942 163.321 10.1942C160.166 10.1942 158.059 12.6574 158.059 15.6511C158.059 18.7037 160.161 20.99 163.321 20.99ZM181.267 15.6511C181.267 10.9606 185.182 7.49951 189.802 7.49951C194.535 7.49951 198.396 10.9606 198.396 15.6511C198.396 20.3458 194.535 23.7479 189.802 23.7479C185.182 23.7479 181.267 20.3458 181.267 15.6511ZM189.802 20.99C192.899 20.99 195.064 18.7037 195.064 15.6511C195.064 12.6616 192.899 10.1942 189.802 10.1942C186.764 10.1942 184.599 12.6574 184.599 15.6511C184.599 18.7037 186.76 20.99 189.802 20.99ZM141.049 16.1816V23.1037H137.893V16.1816C137.893 12.3121 136.957 10.1985 134.15 10.1985C131.461 10.1985 130.525 12.2532 130.525 16.1816V23.1037H127.37V16.1816C127.37 9.84477 129.766 7.44057 134.15 7.44057C136.723 7.44057 138.3 8.37951 139.471 10.0806C140.642 8.37951 142.219 7.44057 144.733 7.44057C149.059 7.44057 151.631 9.90372 151.631 16.1816V23.1037H148.358V16.1816C148.358 12.3669 147.54 10.1985 144.733 10.1985C141.984 10.1985 141.049 12.3669 141.049 16.1816Z" fill="white"/>
</g>
</g>
<defs>
<clipPath id="clip0_692_3424">
<rect width="274" height="40" fill="white"/>
</clipPath>
</defs>
</svg>
