<svg width="197" height="60" viewBox="0 0 197 60" fill="none" xmlns="http://www.w3.org/2000/svg">
<g clip-path="url(#clip0_461_84)">
<mask id="mask0_461_84" style="mask-type:luminance" maskUnits="userSpaceOnUse" x="0" y="-10" width="197" height="80">
<path d="M196.901 -9.13086H0.0976562V69.13H196.901V-9.13086Z" fill="white"/>
</mask>
<g mask="url(#mask0_461_84)">
<mask id="mask1_461_84" style="mask-type:luminance" maskUnits="userSpaceOnUse" x="0" y="-10" width="197" height="80">
<path d="M196.811 -9.13086H0.0976562V69.13H196.811V-9.13086Z" fill="white"/>
</mask>
<g mask="url(#mask1_461_84)">
<path d="M176.63 34.3213C176.833 33.3234 176.935 32.3139 176.98 31.293H170.869C171.038 32.2004 171.129 33.1419 171.129 34.072C171.129 36.4879 170.543 38.7677 169.516 40.7864C170.757 41.6711 171.58 43.1229 171.58 44.7675C171.58 47.4671 169.404 49.6561 166.721 49.6561C165.086 49.6561 163.643 48.8281 162.752 47.5806C160.746 48.6011 158.48 49.2022 156.078 49.2022C155.143 49.2022 154.218 49.1118 153.316 48.9416V59.002C154.23 59.1041 155.154 59.1609 156.078 59.1609C162.955 59.1609 169.179 56.3251 173.665 51.7656C178.152 47.2969 180.948 41.1268 181.015 34.3099H176.63V34.3213Z" fill="white"/>
<path d="M169.516 40.7965C168.727 40.2295 167.769 39.9004 166.72 39.9004C164.037 39.9004 161.861 42.0897 161.861 44.789C161.861 45.8439 162.2 46.8081 162.752 47.6017C164.206 46.8644 165.536 45.9007 166.664 44.7436C167.825 43.5982 168.783 42.2596 169.516 40.7965Z" fill="white"/>
<path d="M178.084 9.402C172.763 3.92374 165.357 0.509766 157.161 0.509766C155.864 0.509766 154.59 0.611857 153.316 0.781957V7.47385C155.312 6.95212 157.398 6.66854 159.551 6.66854V10.6383C162.38 10.9899 165.018 11.954 167.341 13.3944C167.465 13.2357 167.578 13.0769 167.724 12.9294C169.618 11.024 172.696 11.024 174.59 12.9294C176.484 14.8349 176.484 17.9313 174.59 19.8368C174.443 19.9842 174.274 20.0977 174.116 20.2338C175.954 23.2054 177.036 26.6988 177.036 30.4529C177.036 30.7366 177.002 31.0089 176.991 31.2922H180.881C180.982 32.211 181.038 33.1411 181.038 34.0713C181.038 34.1507 181.038 34.2301 181.027 34.3096H186.664C186.833 33.0277 186.934 31.7461 186.934 30.4415C186.923 22.2187 183.53 14.7555 178.084 9.402Z" fill="white"/>
<path d="M167.33 13.3945C165.842 15.3113 165.955 18.0788 167.713 19.8368C169.46 21.5949 172.2 21.7083 174.105 20.2338C173.248 18.8501 172.245 17.5684 171.095 16.4456C169.968 15.2773 168.705 14.2565 167.33 13.3945Z" fill="white"/>
<path d="M159.55 10.6375C158.761 10.5354 157.972 10.4787 157.16 10.4787C155.864 10.4787 154.579 10.6262 153.316 10.8757V7.48438C149.066 8.60726 145.255 10.8643 142.245 13.8927C137.815 18.3502 135.064 24.509 135.064 31.3028H144.963C144.963 29.0118 145.504 26.8454 146.439 24.9173C145.199 24.0326 144.388 22.5808 144.388 20.9362C144.388 18.2368 146.563 16.0477 149.246 16.0477C150.881 16.0477 152.313 16.8644 153.203 18.112C155.131 17.1706 157.273 16.6262 159.55 16.6262V10.6375Z" fill="white"/>
<path d="M146.439 24.9069C147.229 25.474 148.198 25.8142 149.246 25.8142C151.93 25.8142 154.105 23.6252 154.105 20.9258C154.105 19.871 153.767 18.8955 153.203 18.1016C151.727 18.8161 150.385 19.7689 149.246 20.9258C148.097 22.0827 147.15 23.4324 146.439 24.9069Z" fill="white"/>
<path d="M9.91602 44.7677V37.9512H12.9261C13.2418 37.9512 13.5236 37.9852 13.7942 38.042C14.0534 38.11 14.2902 38.2231 14.4931 38.3933C14.651 38.5182 14.7862 38.6884 14.8989 38.904C15.0117 39.1079 15.0681 39.3689 15.0681 39.6639C15.0793 39.9813 15.023 40.2536 14.8989 40.5033C14.7862 40.7525 14.5833 40.9568 14.3015 41.1157C14.5044 41.1724 14.6735 41.2632 14.8088 41.3763C14.9441 41.4897 15.0568 41.6259 15.147 41.7848C15.2372 41.9436 15.2935 42.1025 15.3386 42.2837C15.3724 42.4653 15.395 42.6468 15.3837 42.8397C15.3724 43.1457 15.2935 43.4294 15.1357 43.6904C14.9891 43.951 14.7862 44.1553 14.5495 44.3255C14.2676 44.5294 13.952 44.6542 13.6025 44.6996C13.253 44.7563 12.9148 44.779 12.5766 44.779H9.91602V44.7677ZM12.5315 40.7185C12.6668 40.7185 12.8133 40.7071 12.9486 40.6958C13.0839 40.6844 13.2192 40.639 13.3432 40.5713C13.4447 40.5033 13.5349 40.4238 13.6025 40.3103C13.6701 40.1969 13.7152 40.072 13.7152 39.9245C13.7265 39.766 13.6927 39.6412 13.6363 39.5504C13.5799 39.4483 13.5123 39.3802 13.4221 39.3235C13.3207 39.2554 13.1966 39.2213 13.0726 39.21C12.9374 39.1987 12.8021 39.1987 12.6555 39.1987H11.3027V40.7185H12.5315ZM11.3027 43.5429H12.5653C12.7457 43.5429 12.9486 43.5316 13.1516 43.5089C13.3545 43.4862 13.5349 43.4181 13.6814 43.316C13.7716 43.2479 13.8392 43.1571 13.9069 43.055C13.9632 42.9528 13.9971 42.817 13.9971 42.6582C13.9971 42.5107 13.9632 42.3858 13.9069 42.2837C13.8392 42.1816 13.7603 42.1025 13.6701 42.0571C13.5574 41.989 13.4334 41.9436 13.2981 41.9323C13.1628 41.921 13.0163 41.9096 12.8697 41.9096L11.3139 41.921V43.5429H11.3027Z" fill="white"/>
<path d="M18.2583 41.3423C18.2583 41.6256 18.2922 41.9093 18.3711 42.1813C18.45 42.4536 18.5515 42.6919 18.7093 42.8962C18.8559 43.1001 19.0475 43.2703 19.2842 43.3951C19.521 43.5199 19.7916 43.588 20.1185 43.588C20.5243 43.588 20.8626 43.4973 21.1331 43.3157C21.3924 43.1341 21.5615 42.8735 21.6292 42.5558H22.9707C22.9369 42.9303 22.8354 43.2703 22.6776 43.554C22.5085 43.8373 22.2943 44.0756 22.035 44.2685C21.7757 44.4614 21.4713 44.6086 21.1444 44.6993C20.8174 44.7901 20.468 44.8469 20.1072 44.8469C19.5773 44.8469 19.1151 44.7561 18.7093 44.5859C18.3035 44.416 17.9652 44.1777 17.6834 43.86C17.4015 43.5426 17.1986 43.1909 17.0521 42.76C16.9168 42.3402 16.8379 41.8753 16.8379 41.365C16.8379 40.8657 16.9055 40.4122 17.0521 39.981C17.1986 39.5502 17.4128 39.187 17.6834 38.8697C17.9652 38.5633 18.3035 38.3136 18.7093 38.1438C19.1151 37.9622 19.5773 37.8828 20.1072 37.8828C20.4793 37.8828 20.8287 37.9282 21.1444 38.019C21.4713 38.1098 21.7644 38.2456 22.0125 38.4271C22.2718 38.6087 22.4747 38.8583 22.6438 39.1416C22.8016 39.4367 22.9031 39.7771 22.9482 40.1852H21.6066C21.539 39.8562 21.3698 39.5956 21.1106 39.4026C20.8513 39.2097 20.5131 39.1189 20.1072 39.1189C19.7803 39.1189 19.4984 39.1757 19.273 39.3005C19.0362 39.4253 18.8446 39.5842 18.698 39.7998C18.5515 40.0037 18.4387 40.242 18.3598 40.5143C18.2922 40.7749 18.2583 41.0586 18.2583 41.3423Z" fill="white"/>
<path d="M29.5434 37.9512V39.1873H26.0937V40.7752H29.1037V42.0231H26.0937V43.5316H29.5434V44.7677H24.707V37.9512H29.5434Z" fill="white"/>
<path d="M32.8803 37.9512L34.9095 41.161L36.9049 37.9512H38.393V44.7677H37.0064V40.0607L35.2026 43.0096H34.5826L32.7562 40.0607V44.7677H31.3809V37.9512H32.8803Z" fill="white"/>
<path d="M41.8768 42.3518L45.1913 37.9512H46.3076V44.7677H44.9206V40.4125L41.6065 44.7677H40.4902V37.9512H41.8768V42.3518Z" fill="white"/>
<path d="M51.02 37.9504C51.426 37.9504 51.7978 37.9958 52.1249 38.0753C52.452 38.166 52.7336 38.3018 52.9705 38.4834C53.2074 38.6763 53.3762 38.9146 53.5002 39.2206C53.6243 39.527 53.6807 39.9011 53.6807 40.3436C53.6694 40.7291 53.6017 41.0695 53.4777 41.3642C53.3536 41.6592 53.1735 41.9089 52.9479 42.1131C52.7223 42.317 52.452 42.4645 52.1362 42.578C51.8204 42.6801 51.4824 42.7369 51.1102 42.7369H49.8026V44.7443H48.416V37.9277H51.02V37.9504ZM51.0312 41.523C51.2004 41.523 51.3696 41.5003 51.5162 41.4549C51.6742 41.4096 51.7978 41.3419 51.9219 41.2397C52.0347 41.1376 52.1249 41.0241 52.2039 40.8879C52.2716 40.7518 52.3167 40.5816 52.3167 40.389C52.328 39.9578 52.2152 39.6405 51.967 39.4703C51.7306 39.2887 51.4035 39.1979 51.02 39.1979H49.7913V41.523H51.0312Z" fill="white"/>
<path d="M56.7459 40.7866H59.6093V37.9625H60.9963V44.779H59.6093V42.0231H56.7459V44.7677H55.3594V37.9512H56.7459V40.7866Z" fill="white"/>
<path d="M63.1055 44.7677V37.9512H64.492V40.4011H65.7888C66.2395 40.4011 66.6226 40.4579 66.961 40.56C67.2994 40.6617 67.5697 40.8433 67.7727 41.093C67.9081 41.2632 68.0209 41.467 68.0998 41.694C68.1784 41.921 68.2235 42.2043 68.2235 42.522C68.2122 42.9755 68.1337 43.3613 67.9645 43.6564C67.7953 43.9624 67.5697 44.1893 67.2881 44.3596C67.0513 44.5067 66.7693 44.6088 66.4538 44.6656C66.138 44.7223 65.8 44.7563 65.4391 44.7563H63.1055V44.7677ZM64.492 43.5429H65.4053C65.5857 43.5429 65.7662 43.5316 65.935 43.5089C66.1155 43.4862 66.2621 43.4408 66.4087 43.3613C66.5441 43.2819 66.6565 43.1798 66.7467 43.055C66.8369 42.9188 66.8708 42.749 66.8708 42.5333C66.8708 42.3404 66.837 42.1816 66.758 42.0685C66.679 41.955 66.5892 41.8642 66.4764 41.7961C66.3636 41.7394 66.217 41.694 66.0591 41.6713C65.9012 41.6486 65.7436 41.6373 65.5745 41.6373L64.4808 41.6486V43.5429H64.492ZM69.0916 37.9512H70.4786V44.7677H69.0916V37.9512Z" fill="white"/>
<path d="M73.9608 42.3518L77.2753 37.9511H78.3912V44.7677H77.0046V40.4124L73.6901 44.7677H72.5742V37.9511H73.9608V42.3518ZM75.5729 37.4972C75.0545 37.4972 74.6259 37.3728 74.2879 37.1118C73.9495 36.8508 73.7578 36.4654 73.6901 35.9434H74.8627C74.953 36.3178 75.1894 36.4994 75.5842 36.4994C75.7647 36.4994 75.9222 36.454 76.0463 36.3519C76.1703 36.2611 76.2493 36.1136 76.2831 35.9434H77.4667C77.3994 36.4654 77.1851 36.8508 76.8467 37.1118C76.5087 37.3728 76.0801 37.4972 75.5729 37.4972Z" fill="white"/>
<path d="M86.4635 38.6412V37.6543H87.8501V38.6412H88.1997C88.6054 38.6412 88.9776 38.6979 89.3269 38.8114C89.6653 38.9249 89.9581 39.0833 90.195 39.3103C90.4319 39.5259 90.6236 39.7983 90.7473 40.1269C90.8826 40.456 90.939 40.8188 90.939 41.2386C90.9278 42.1007 90.6913 42.7471 90.2176 43.2006C89.7442 43.6432 89.0904 43.8698 88.2336 43.8811H87.8388V44.9474H86.4522V43.8811H86.1026C85.6856 43.8811 85.3134 43.8244 84.9754 43.7113C84.6371 43.5978 84.3442 43.439 84.1073 43.212C83.8705 42.9964 83.6791 42.7244 83.555 42.3953C83.4197 42.0666 83.3633 41.7035 83.3633 41.284C83.3633 40.422 83.6114 39.7756 84.0848 39.3216C84.5581 38.8795 85.2123 38.6525 86.0687 38.6412H86.4635ZM86.4635 42.679V39.8092H86.0575C85.5954 39.8092 85.2461 39.9454 85.0318 40.2177C84.8175 40.4901 84.716 40.8528 84.7273 41.2954C84.7386 41.7149 84.8626 42.0439 85.1108 42.2932C85.3473 42.5429 85.6744 42.6677 86.1026 42.6677H86.4635V42.679ZM87.8614 39.8092V42.679H88.2674C88.7295 42.679 89.0791 42.5429 89.293 42.2705C89.5073 41.9986 89.6089 41.6468 89.5976 41.1933C89.5863 40.7734 89.4622 40.4447 89.2254 40.1837C88.9889 39.934 88.6618 39.7983 88.2336 39.7983H87.8614V39.8092Z" fill="white"/>
<path d="M97.479 37.9512V39.1873H94.0291V40.7752H97.0391V42.0231H94.0291V43.5316H97.479V44.7677H92.6426V37.9512H97.479Z" fill="white"/>
<path d="M100.262 41.3423C100.262 41.6256 100.296 41.9093 100.375 42.1813C100.454 42.4536 100.555 42.6919 100.713 42.8962C100.86 43.1001 101.051 43.2703 101.288 43.3951C101.525 43.5199 101.795 43.588 102.122 43.588C102.528 43.588 102.867 43.4973 103.137 43.3157C103.396 43.1341 103.565 42.8735 103.633 42.5558H104.975C104.941 42.9303 104.839 43.2703 104.682 43.554C104.513 43.8373 104.298 44.0756 104.039 44.2685C103.78 44.4614 103.475 44.6086 103.148 44.6993C102.821 44.7901 102.472 44.8469 102.111 44.8469C101.581 44.8469 101.119 44.7561 100.713 44.5859C100.307 44.416 99.9693 44.1777 99.6874 43.86C99.4054 43.5426 99.2027 43.1909 99.0561 42.76C98.9207 42.3402 98.8418 41.8753 98.8418 41.365C98.8418 40.8657 98.9095 40.4122 99.0561 39.981C99.2027 39.5502 99.4167 39.187 99.6874 38.8697C99.9693 38.5633 100.307 38.3136 100.713 38.1438C101.119 37.9622 101.581 37.8828 102.111 37.8828C102.483 37.8828 102.833 37.9282 103.148 38.019C103.475 38.1098 103.768 38.2456 104.016 38.4271C104.276 38.6087 104.479 38.8583 104.648 39.1416C104.805 39.4367 104.907 39.7771 104.952 40.1852H103.611C103.543 39.8562 103.374 39.5956 103.115 39.4026C102.855 39.2097 102.517 39.1189 102.111 39.1189C101.784 39.1189 101.503 39.1757 101.277 39.3005C101.04 39.4253 100.848 39.5842 100.702 39.7998C100.555 40.0037 100.443 40.242 100.364 40.5143C100.296 40.7749 100.262 41.0586 100.262 41.3423Z" fill="white"/>
<path d="M106.215 39.1971V37.9609H111.851V39.1971H109.732V44.7661H108.345V39.1971H106.215Z" fill="white"/>
<path d="M114.772 42.3518L118.086 37.9512H119.202V44.7677H117.816V40.4125L114.501 44.7677H113.385V37.9512H114.772V42.3518Z" fill="white"/>
<path d="M121.299 44.7677V37.9512H124.298C124.613 37.9512 124.895 37.9852 125.166 38.042C125.436 38.11 125.662 38.2231 125.865 38.3933C126.022 38.5182 126.158 38.6884 126.271 38.904C126.383 39.1079 126.44 39.3689 126.44 39.6639C126.44 39.9813 126.395 40.2536 126.271 40.5033C126.147 40.7525 125.955 40.9568 125.673 41.1157C125.865 41.1724 126.045 41.2632 126.18 41.3763C126.316 41.4897 126.429 41.6259 126.518 41.7848C126.609 41.9436 126.665 42.1025 126.71 42.2837C126.744 42.4653 126.767 42.6468 126.755 42.8397C126.744 43.1457 126.665 43.4294 126.507 43.6904C126.361 43.951 126.158 44.1553 125.921 44.3255C125.639 44.5294 125.312 44.6542 124.974 44.6996C124.636 44.7563 124.286 44.779 123.948 44.779H121.299V44.7677ZM123.914 40.7185C124.05 40.7185 124.196 40.7071 124.331 40.6958C124.467 40.6844 124.602 40.639 124.726 40.5713C124.828 40.5033 124.918 40.4238 124.985 40.3103C125.053 40.1969 125.098 40.072 125.098 39.9245C125.109 39.766 125.075 39.6412 125.019 39.5504C124.963 39.4483 124.895 39.3802 124.805 39.3235C124.704 39.2554 124.58 39.2213 124.455 39.21C124.32 39.1987 124.185 39.1987 124.05 39.1987H122.685V40.7185H123.914ZM122.685 43.5429H123.948C124.129 43.5429 124.331 43.5316 124.534 43.5089C124.737 43.4862 124.918 43.4181 125.064 43.316C125.154 43.2479 125.222 43.1571 125.29 43.055C125.346 42.9528 125.38 42.817 125.38 42.6582C125.38 42.5107 125.346 42.3858 125.29 42.2837C125.222 42.1816 125.143 42.1025 125.053 42.0571C124.94 41.989 124.816 41.9436 124.681 41.9323C124.546 41.921 124.399 41.9096 124.252 41.9096L122.697 41.921V43.5429H122.685Z" fill="white"/>
<path d="M129.81 43.4732L129.325 44.7775H127.814L130.441 37.9609H132.008L134.59 44.7775H133.068L132.595 43.4732H129.81ZM130.216 42.2367H132.188L131.208 39.4354L130.216 42.2367Z" fill="white"/>
<path d="M138.266 39.1983C138.255 39.6181 138.244 40.049 138.244 40.4802C138.244 40.911 138.232 41.3422 138.21 41.7617C138.198 41.9206 138.198 42.0908 138.187 42.272C138.176 42.4535 138.165 42.6351 138.142 42.8167C138.119 42.9978 138.086 43.1794 138.041 43.361C137.996 43.5425 137.928 43.7124 137.849 43.8712C137.759 44.0415 137.635 44.189 137.499 44.3025C137.364 44.4159 137.218 44.5063 137.049 44.5858C136.891 44.6538 136.71 44.7106 136.53 44.7333C136.35 44.7673 136.158 44.7787 135.966 44.7787H135.764V43.5425H135.887C136.011 43.5425 136.113 43.5198 136.214 43.4745C136.305 43.4291 136.395 43.3723 136.463 43.3042C136.53 43.2361 136.586 43.1567 136.631 43.0659C136.677 42.9752 136.71 42.8961 136.722 42.8053C136.755 42.6578 136.789 42.4876 136.812 42.2947C136.834 42.1021 136.846 41.9092 136.846 41.705C136.857 41.5007 136.857 41.3082 136.868 41.1153C136.868 40.9224 136.88 40.7521 136.891 40.5933C136.902 40.1738 136.913 39.743 136.902 39.3231C136.902 38.8923 136.902 38.4384 136.913 37.9395H141.705V44.756H140.318V39.1869H138.266V39.1983Z" fill="white"/>
<path d="M143.812 44.7677V37.9512H145.199V40.4011H146.777C147.229 40.4011 147.612 40.4579 147.95 40.56C148.277 40.6617 148.547 40.8433 148.75 41.0816C148.886 41.2518 148.999 41.4557 149.088 41.694C149.167 41.9323 149.213 42.2043 149.213 42.522C149.201 42.9755 149.122 43.3613 148.954 43.6564C148.784 43.9624 148.559 44.1893 148.277 44.3596C148.04 44.5067 147.758 44.6088 147.443 44.6656C147.127 44.7223 146.789 44.7563 146.439 44.7563H143.812V44.7677ZM145.199 43.5429H146.394C146.575 43.5429 146.744 43.5316 146.924 43.5089C147.093 43.4862 147.251 43.4408 147.398 43.3613C147.533 43.2819 147.645 43.1798 147.736 43.055C147.815 42.9188 147.86 42.749 147.86 42.5333C147.86 42.3404 147.826 42.1816 147.747 42.0685C147.668 41.955 147.578 41.8642 147.454 41.7961C147.33 41.728 147.195 41.694 147.037 41.6713C146.879 41.6486 146.721 41.6373 146.563 41.6373L145.199 41.6486V43.5429Z" fill="white"/>
<path d="M11.4384 48.9531L13.4676 52.163L15.4631 48.9531H16.9512V55.7696H15.5645V51.0626L13.7607 54.0115H13.1407L11.3144 51.0626V55.7696H9.92773V48.9531H11.4384Z" fill="white"/>
<path d="M22.0588 48.873C22.5774 48.873 23.0396 48.9525 23.4567 49.1227C23.8738 49.2925 24.2233 49.5308 24.5051 49.8259C24.787 50.1319 25.0124 50.495 25.159 50.9145C25.3168 51.3344 25.3845 51.8106 25.3845 52.3208C25.3845 52.8201 25.3056 53.285 25.159 53.7162C25.0012 54.147 24.787 54.5215 24.5051 54.8275C24.2233 55.1453 23.8625 55.3836 23.4454 55.5647C23.0283 55.7463 22.5548 55.8257 22.025 55.8144C21.4951 55.8144 21.0216 55.7236 20.6158 55.5534C20.1986 55.3722 19.8604 55.1339 19.5786 54.8275C19.2967 54.5215 19.0826 54.1584 18.9247 53.7276C18.7781 53.3077 18.6992 52.8428 18.6992 52.3435C18.6992 51.8333 18.7782 51.3571 18.936 50.9372C19.0938 50.5064 19.3193 50.1432 19.6011 49.8372C19.8942 49.5308 20.2437 49.2925 20.6608 49.1227C21.078 48.9525 21.5402 48.873 22.0588 48.873ZM20.1197 52.3322C20.1197 52.6272 20.1648 52.9109 20.2437 53.1715C20.3226 53.4325 20.4354 53.6708 20.5932 53.8747C20.751 54.079 20.954 54.2492 21.1907 54.374C21.4274 54.4988 21.7206 54.5669 22.0475 54.5669C22.3631 54.5783 22.6337 54.5215 22.8818 54.3967C23.1185 54.2832 23.3214 54.113 23.4792 53.9087C23.6371 53.7049 23.7611 53.4552 23.84 53.1829C23.9189 52.9109 23.964 52.6272 23.964 52.3322C23.964 52.0489 23.9189 51.7652 23.84 51.4932C23.7611 51.2209 23.6371 50.9826 23.4905 50.7783C23.3327 50.5744 23.1298 50.4042 22.893 50.2794C22.6563 50.1546 22.3631 50.0978 22.0475 50.0978C21.7319 50.0978 21.45 50.1546 21.202 50.2794C20.9652 50.4042 20.7623 50.5631 20.6045 50.767C20.4466 50.9712 20.3226 51.2095 20.2437 51.4705C20.1648 51.7538 20.1197 52.0375 20.1197 52.3322Z" fill="white"/>
<path d="M28.9793 50.2002C28.9681 50.6201 28.9568 51.0509 28.9568 51.4821C28.9568 51.913 28.9455 52.3438 28.9229 52.7637C28.9117 52.9225 28.9117 53.0928 28.9004 53.2739C28.8891 53.4555 28.8779 53.6371 28.8553 53.8186C28.8328 53.9998 28.799 54.1814 28.7538 54.3629C28.7088 54.5445 28.6411 54.7143 28.5622 54.8732C28.472 55.0434 28.348 55.1909 28.2127 55.3044C28.0774 55.4179 27.9309 55.5083 27.7618 55.5877C27.6039 55.6558 27.4236 55.7125 27.2432 55.7352C27.0628 55.7693 26.8711 55.7806 26.6795 55.7806H26.4766V54.5445H26.6006C26.7246 54.5445 26.8261 54.5218 26.9275 54.4764C27.029 54.431 27.1079 54.3743 27.1756 54.3062C27.2432 54.2381 27.2996 54.1587 27.3446 54.0679C27.3898 53.9771 27.4236 53.8977 27.4348 53.8073C27.4687 53.6598 27.5025 53.4895 27.525 53.2966C27.5476 53.1041 27.5589 52.9112 27.5589 52.7069C27.5701 52.5027 27.5701 52.3101 27.5814 52.1172C27.5814 51.9243 27.5927 51.7541 27.6039 51.5952C27.6152 51.1758 27.6265 50.7449 27.6152 50.3251C27.6152 49.8942 27.6152 49.4403 27.6265 48.9414H32.4178V55.7579H31.0311V50.1889H28.9793V50.2002Z" fill="white"/>
<path d="M37.5353 48.873C38.0539 48.873 38.5161 48.9525 38.9332 49.1227C39.3505 49.2925 39.6998 49.5308 39.9818 49.8259C40.2634 50.1319 40.489 50.495 40.6356 50.9145C40.7935 51.3344 40.8612 51.8106 40.8612 52.3208C40.8612 52.8201 40.7822 53.285 40.6356 53.7162C40.4777 54.147 40.2634 54.5215 39.9818 54.8275C39.6998 55.1453 39.3393 55.3836 38.922 55.5647C38.5048 55.7463 38.0313 55.8257 37.5015 55.8144C36.9716 55.8144 36.4981 55.7236 36.0923 55.5534C35.6751 55.3722 35.337 55.1339 35.0551 54.8275C34.7733 54.5215 34.5591 54.1584 34.4013 53.7276C34.2547 53.3077 34.1758 52.8428 34.1758 52.3435C34.1758 51.8333 34.2547 51.3571 34.4125 50.9372C34.5704 50.5064 34.7958 50.1432 35.0777 49.8372C35.3708 49.5308 35.7203 49.2925 36.1374 49.1227C36.5545 48.9525 37.028 48.873 37.5353 48.873ZM35.6075 52.3322C35.6075 52.6272 35.6526 52.9109 35.7315 53.1715C35.8105 53.4325 35.9232 53.6708 36.081 53.8747C36.2388 54.079 36.4418 54.2492 36.6785 54.374C36.9153 54.4988 37.2084 54.5669 37.5353 54.5669C37.851 54.5783 38.1215 54.5215 38.3696 54.3967C38.6063 54.2832 38.8092 54.113 38.967 53.9087C39.125 53.7049 39.249 53.4552 39.328 53.1829C39.4065 52.9109 39.4517 52.6272 39.4517 52.3322C39.4517 52.0489 39.4065 51.7652 39.328 51.4932C39.249 51.2209 39.125 50.9826 38.9783 50.7783C38.8205 50.5744 38.6176 50.4042 38.3808 50.2794C38.1441 50.1546 37.851 50.0978 37.5353 50.0978C37.2197 50.0978 36.9378 50.1546 36.6898 50.2794C36.453 50.4042 36.2501 50.5631 36.0923 50.767C35.9344 50.9712 35.8105 51.2095 35.7315 51.4705C35.6413 51.7538 35.6075 52.0375 35.6075 52.3322Z" fill="white"/>
<path d="M48.8779 57.4937H47.5139V55.7696H43.3425V57.4937H41.9785V54.5449H42.2267C42.3395 54.5449 42.441 54.5335 42.5195 54.5108C42.5985 54.4881 42.6774 54.4541 42.7451 54.3973C42.7902 54.352 42.8353 54.2952 42.8692 54.2158C42.903 54.1363 42.9256 54.0569 42.9481 53.9775C42.9707 53.8984 42.982 53.8076 42.9933 53.7282C43.0045 53.6488 43.0158 53.5693 43.0271 53.5013C43.0609 53.0818 43.0948 52.6392 43.1061 52.197C43.1173 51.7545 43.1399 51.3237 43.1512 50.8924C43.1737 50.2573 43.185 49.6109 43.185 48.9531H48.0662V54.5335H48.8892V57.4937H48.8779ZM46.6683 54.5449V50.2006H44.4926L44.4362 52.3896C44.4362 52.5371 44.4362 52.7073 44.4249 52.9002C44.4137 53.0931 44.4024 53.2857 44.3911 53.4899C44.3685 53.6942 44.346 53.8871 44.3121 54.0683C44.2783 54.2498 44.2332 54.42 44.1768 54.5449H46.6683Z" fill="white"/>
<path d="M55.2818 48.9522V50.1883H51.8319V51.7762H54.8423V53.0241H51.8319V54.5326H55.2818V55.7687H50.4453V48.9522H55.2818ZM51.7533 46.8086C51.9898 46.8086 52.1928 46.8763 52.3507 47.0238C52.5086 47.16 52.5759 47.3529 52.5759 47.6025C52.5759 47.8405 52.4974 48.0447 52.3507 48.1809C52.1928 48.3284 52.0011 48.3965 51.7533 48.3965C51.5164 48.3965 51.3134 48.3284 51.1555 48.1809C50.998 48.0334 50.9303 47.8405 50.9303 47.6025C50.9303 47.3642 51.0089 47.1713 51.1555 47.0238C51.3134 46.8763 51.5164 46.8086 51.7533 46.8086ZM54.0757 46.8086C54.3121 46.8086 54.5152 46.8763 54.6731 47.0238C54.831 47.16 54.8983 47.3529 54.8983 47.6025C54.8983 47.8405 54.8197 48.0447 54.6731 48.1809C54.5152 48.3284 54.3234 48.3965 54.0757 48.3965C53.8275 48.3965 53.6245 48.3284 53.4779 48.1809C53.3203 48.0334 53.2527 47.8405 53.2527 47.6025C53.2527 47.3642 53.3316 47.1713 53.4779 47.0238C53.6245 46.8763 53.8162 46.8086 54.0757 46.8086Z" fill="white"/>
<path d="M61.8421 53.0023V55.7696H60.4552V53.0023H59.6547L58.1779 55.7696H56.5996L58.5727 52.2197L56.6334 48.9531H58.223L59.7675 51.7658H60.4552V48.9531H61.8421V51.7658H62.5185L64.0742 48.9531H65.6526L63.7246 52.2197L65.6864 55.7696H64.1081L62.6313 53.0023H61.8421Z" fill="white"/>
<path d="M68.5838 53.3537L71.8984 48.9531H73.0142V55.7696H71.6277V51.4144L68.3131 55.7696H67.1973V48.9531H68.5838V53.3537Z" fill="white"/>
<path d="M79.6891 53.0577C79.8466 52.9329 79.9932 52.7967 80.1511 52.6492C80.309 52.5017 80.4557 52.3428 80.6019 52.1843C80.7485 52.0368 80.8726 51.8779 80.9741 51.7077C81.0756 51.5375 81.132 51.345 81.1433 51.1294C81.1546 50.7889 81.0643 50.5397 80.8726 50.3694C80.6808 50.1992 80.4218 50.1198 80.106 50.1311C79.824 50.1425 79.5875 50.1992 79.4071 50.3354C79.2266 50.4602 79.1251 50.6531 79.0913 50.8911H77.7949C77.8062 50.517 77.8964 50.1879 78.0656 49.9046C78.2344 49.6209 78.46 49.4053 78.742 49.235C78.945 49.1106 79.1702 49.0198 79.4071 48.9744C79.6439 48.9177 79.903 48.895 80.1737 48.895C80.8952 48.8837 81.4587 49.0766 81.8761 49.4734C82.0565 49.6436 82.2028 49.8478 82.3043 50.0971C82.4171 50.3467 82.4622 50.6304 82.4622 50.9705C82.4622 51.2088 82.4396 51.4471 82.3832 51.6623C82.3268 51.8779 82.2479 52.0822 82.1238 52.2637C82.0452 52.3882 81.9663 52.513 81.8761 52.6151C81.7858 52.7173 81.7069 52.8194 81.6166 52.9102C81.5264 53.001 81.4362 53.0914 81.335 53.1821C81.2335 53.2729 81.1207 53.3751 81.0079 53.4772C80.7711 53.6814 80.5459 53.874 80.3316 54.0442C80.1173 54.2144 79.9143 54.3846 79.7229 54.5548H82.372V55.791H77.8175V54.6566L79.6891 53.0577Z" fill="white"/>
<path d="M86.7564 48.873C87.1508 48.873 87.5005 48.9411 87.8385 49.0773C88.1656 49.2131 88.4472 49.4174 88.684 49.7124C88.9209 49.9957 89.1013 50.3588 89.225 50.7897C89.3604 51.2209 89.4168 51.7425 89.4168 52.3435C89.4168 52.9563 89.3491 53.4779 89.225 53.9087C89.1013 54.34 88.9209 54.7027 88.6953 54.9864C88.4697 55.2701 88.1881 55.474 87.861 55.6101C87.5343 55.7463 87.1621 55.8144 86.7677 55.8144C86.3617 55.8144 86.0007 55.7463 85.674 55.6101C85.3469 55.474 85.0653 55.2701 84.8285 54.9864C84.5916 54.7027 84.4115 54.34 84.2875 53.9087C84.1634 53.4779 84.0957 52.945 84.0957 52.3435C84.0957 51.7425 84.1634 51.2209 84.2875 50.7897C84.4115 50.3588 84.5916 49.9957 84.8285 49.7124C85.0653 49.4287 85.3469 49.2131 85.674 49.0773C86.0007 48.9411 86.3617 48.873 86.7564 48.873ZM86.7564 54.5896C87.1621 54.5896 87.4892 54.4194 87.7144 54.0676C87.94 53.7162 88.064 53.1488 88.064 52.3435C88.064 51.5496 87.9513 50.9712 87.7144 50.6312C87.4892 50.2794 87.1621 50.1092 86.7564 50.1092C86.3391 50.1092 86.0233 50.2794 85.7981 50.6312C85.5725 50.9826 85.4597 51.5496 85.4597 52.3435C85.4597 53.1488 85.5725 53.7162 85.7981 54.0676C86.0233 54.4194 86.3504 54.5896 86.7564 54.5896Z" fill="white"/>
<path d="M92.6637 53.0577C92.8216 52.9329 92.9682 52.7967 93.1257 52.6492C93.2836 52.5017 93.4303 52.3428 93.5769 52.1843C93.7235 52.0368 93.8472 51.8779 93.9487 51.7077C94.0502 51.5375 94.1066 51.345 94.1179 51.1294C94.1292 50.7889 94.0389 50.5397 93.8472 50.3694C93.6558 50.1992 93.3964 50.1198 93.0806 50.1311C92.799 50.1425 92.5621 50.1992 92.3817 50.3354C92.2016 50.4602 92.1001 50.6531 92.0663 50.8911H90.7695C90.7808 50.517 90.871 50.1879 91.0402 49.9046C91.2094 49.6209 91.435 49.4053 91.7166 49.235C91.9196 49.1106 92.1452 49.0198 92.3817 48.9744C92.6185 48.9177 92.878 48.895 93.1483 48.895C93.8698 48.8837 94.4337 49.0766 94.8507 49.4734C95.0311 49.6436 95.1778 49.8478 95.2793 50.0971C95.3917 50.3467 95.4368 50.6304 95.4368 50.9705C95.4368 51.2088 95.4142 51.4471 95.3578 51.6623C95.3018 51.8779 95.2229 52.0822 95.0988 52.2637C95.0199 52.3882 94.9409 52.513 94.8507 52.6151C94.7604 52.7173 94.6815 52.8194 94.5912 52.9102C94.5014 53.001 94.4112 53.0914 94.3096 53.1821C94.2081 53.2729 94.0953 53.3751 93.9826 53.4772C93.7461 53.6814 93.5205 53.874 93.3062 54.0442C93.0919 54.2144 92.8892 54.3846 92.6975 54.5548H95.3466V55.791H90.8485V54.6566L92.6637 53.0577Z" fill="white"/>
<path d="M101.593 53.297H102.359V54.4995H101.593V55.7696H100.229V54.4995H96.9141V53.524L99.9357 48.9531H101.581V53.297H101.593ZM98.5037 53.297H100.24V50.5637L98.5037 53.297Z" fill="white"/>
</g>
</g>
</g>
<defs>
<clipPath id="clip0_461_84">
<rect width="197" height="60" fill="white"/>
</clipPath>
</defs>
</svg>
