<svg width="63" height="30" viewBox="0 0 63 30" fill="none" xmlns="http://www.w3.org/2000/svg">
<g clip-path="url(#clip0_640_458)">
<mask id="mask0_640_458" style="mask-type:luminance" maskUnits="userSpaceOnUse" x="-6" y="-5" width="74" height="40">
<path d="M67.0028 -4.56543H-5.25037V34.565H67.0028V-4.56543Z" fill="white"/>
</mask>
<g mask="url(#mask0_640_458)">
<path d="M56.5763 17.1315C56.6788 16.6322 56.7302 16.1271 56.7529 15.6162H53.6631C53.7485 16.0703 53.7942 16.5413 53.7942 17.0067C53.7942 18.2156 53.4977 19.3563 52.979 20.3665C53.6062 20.8092 54.0222 21.5357 54.0222 22.3586C54.0222 23.7094 52.9221 24.8046 51.5652 24.8046C50.7387 24.8046 50.0089 24.3904 49.5586 23.7661C48.5438 24.2768 47.3979 24.5777 46.1836 24.5777C45.7105 24.5777 45.2431 24.5323 44.787 24.4472V29.4811C45.2489 29.5322 45.7162 29.5605 46.1836 29.5605C49.6612 29.5605 52.8081 28.1417 55.0769 25.8602C57.3458 23.6243 58.7596 20.5369 58.7939 17.1259H56.5763V17.1315Z" fill="white"/>
<path d="M52.9854 20.3721C52.5863 20.0884 52.1018 19.9238 51.5716 19.9238C50.215 19.9238 49.1146 21.0191 49.1146 22.3699C49.1146 22.8977 49.2857 23.38 49.5649 23.7774C50.3004 23.4084 50.9731 22.9261 51.5431 22.3472C52.1304 21.7739 52.6149 21.1042 52.9854 20.3721Z" fill="white"/>
<path d="M57.3174 4.66352C54.6268 1.92233 50.8812 0.219727 46.7368 0.219727C46.0812 0.219727 45.437 0.270811 44.7928 0.355939V3.70439C45.8018 3.44333 46.8565 3.30144 47.9454 3.30144V5.2878C49.3763 5.46373 50.7103 5.94615 51.8847 6.66692C51.9473 6.58746 52.0044 6.50801 52.0784 6.43423C53.0362 5.48077 54.5925 5.48077 55.5501 6.43423C56.5079 7.38768 56.5079 8.93705 55.5501 9.8905C55.4761 9.96428 55.3906 10.021 55.3107 10.0891C56.2399 11.5761 56.7873 13.3241 56.7873 15.2027C56.7873 15.3445 56.7701 15.4807 56.7644 15.6225H58.7312C58.7826 16.0823 58.8109 16.5478 58.8109 17.013C58.8109 17.0527 58.8109 17.0925 58.8054 17.1322H61.6558C61.7412 16.4908 61.7926 15.8497 61.7926 15.197C61.7812 11.0766 60.0709 7.34227 57.3174 4.66352Z" fill="white"/>
<path d="M51.8785 6.66211C51.1259 7.62124 51.183 9.00602 52.0723 9.88569C52.9558 10.7654 54.3412 10.8221 55.3046 10.0843C54.8714 9.39193 54.3641 8.75062 53.7825 8.18876C53.2124 7.60421 52.5739 7.09342 51.8785 6.66211Z" fill="white"/>
<path d="M47.9458 5.28184C47.5467 5.23076 47.1476 5.20239 46.7372 5.20239C46.0816 5.20239 45.4317 5.27617 44.7932 5.40101V3.7041C42.6441 4.26596 40.7171 5.39534 39.1951 6.91066C36.9546 9.14106 35.5637 12.2228 35.5637 15.6222H40.5689C40.5689 14.4759 40.8425 13.3919 41.3158 12.4271C40.6888 11.9844 40.2783 11.258 40.2783 10.435C40.2783 9.0843 41.3784 7.98896 42.7353 7.98896C43.562 7.98896 44.2859 8.3976 44.7361 9.02189C45.7053 8.55084 46.7885 8.27841 47.9458 8.27841V5.28184Z" fill="white"/>
<path d="M41.3103 12.4218C41.7094 12.7056 42.1996 12.8758 42.7298 12.8758C44.0866 12.8758 45.1868 11.7805 45.1868 10.4298C45.1868 9.90195 45.0157 9.41387 44.7308 9.0166C43.9839 9.37414 43.3056 9.85086 42.7298 10.4298C42.1482 11.0086 41.6751 11.684 41.3103 12.4218Z" fill="white"/>
<path d="M1.872 22.342L1.00549 18.9482H1.8036L2.36228 21.5532L2.88675 18.9482H3.82736L4.34044 21.5532L4.86491 18.9482H5.61741L4.8079 22.3477H3.88438L3.3485 19.6974L2.81834 22.3477H1.872V22.342Z" fill="white"/>
<path d="M7.84739 18.9023C8.10963 18.9023 8.34336 18.9421 8.54858 19.0272C8.75952 19.1123 8.93623 19.2258 9.07877 19.379C9.22129 19.5321 9.3353 19.7139 9.4094 19.9238C9.48352 20.1338 9.52341 20.3664 9.52341 20.6219C9.52341 20.8716 9.48352 21.1042 9.4094 21.32C9.3353 21.5356 9.22129 21.7172 9.07877 21.8761C8.93623 22.0351 8.75383 22.1543 8.54858 22.2451C8.33765 22.3302 8.09823 22.3756 7.83029 22.3699C7.56236 22.3699 7.32863 22.3245 7.1177 22.2394C6.90676 22.1543 6.73574 22.0295 6.59322 21.8761C6.4507 21.7229 6.34238 21.5413 6.26259 21.3314C6.18278 21.1212 6.14856 20.8886 6.14856 20.639C6.14856 20.3834 6.18847 20.1508 6.26828 19.9352C6.34809 19.7196 6.45641 19.5378 6.60462 19.3846C6.75285 19.2314 6.92956 19.1123 7.1348 19.0272C7.35143 18.9477 7.58516 18.9023 7.84739 18.9023ZM6.87257 20.6333C6.87257 20.7808 6.89537 20.9226 6.93527 21.0531C6.97518 21.1836 7.03219 21.303 7.11199 21.4051C7.1918 21.5073 7.28872 21.5924 7.41413 21.6548C7.53385 21.7172 7.67637 21.7512 7.84168 21.7512C8.00131 21.7569 8.13814 21.7285 8.26355 21.6661C8.38898 21.6037 8.48588 21.5243 8.56569 21.4221C8.6455 21.32 8.70821 21.2007 8.74812 21.0645C8.78802 20.9283 8.81082 20.7865 8.81082 20.639C8.81082 20.4971 8.78802 20.3551 8.74812 20.2189C8.70821 20.0827 8.65119 19.9636 8.57138 19.8614C8.49159 19.7593 8.39467 19.6742 8.26926 19.6116C8.14954 19.5492 8.00131 19.5208 7.84168 19.5208C7.68208 19.5208 7.53956 19.5492 7.41984 19.6116C7.30012 19.6742 7.19751 19.7536 7.1177 19.8558C7.03788 19.9579 6.97518 20.077 6.93527 20.2075C6.88966 20.3437 6.87257 20.4858 6.87257 20.6333Z" fill="white"/>
<path d="M11.8265 18.9482C11.9177 18.9482 12.009 18.9482 12.0945 18.9539C12.1857 18.9596 12.2712 18.9709 12.3567 18.988C12.4422 19.005 12.5277 19.0334 12.6075 19.0731C12.6873 19.1071 12.7672 19.1582 12.8356 19.2263C12.9496 19.3284 13.0294 19.4532 13.075 19.5951C13.1206 19.7371 13.1434 19.8846 13.1434 20.0265C13.1377 20.2251 13.1035 20.3953 13.0408 20.5317C12.9724 20.6678 12.8869 20.787 12.7728 20.8834C12.6702 20.9685 12.5505 21.0253 12.4137 21.0593L13.1719 22.3477H12.3909L11.7011 21.1274H11.1538V22.3477H10.4526V18.9482H11.8265ZM11.8265 20.543C11.9121 20.543 11.9976 20.5373 12.0717 20.5203C12.1515 20.5033 12.2142 20.4806 12.2712 20.4407C12.3282 20.401 12.3738 20.3556 12.408 20.2932C12.4422 20.2307 12.4593 20.1513 12.465 20.0549C12.4707 19.9527 12.4536 19.8676 12.4194 19.8052C12.3852 19.7428 12.3396 19.6917 12.2826 19.6575C12.2256 19.6234 12.1629 19.6007 12.0888 19.5894C12.0147 19.578 11.9291 19.5724 11.8379 19.5724H11.1595V20.5487H11.8265V20.543Z" fill="white"/>
<path d="M14.8125 21.729H16.4828V22.342H14.1169V18.9482H14.8125V21.729Z" fill="white"/>
<path d="M17.3156 22.342V18.9482H18.5754C18.7407 18.9482 18.9004 18.9596 19.0599 18.988C19.2195 19.0163 19.3678 19.0674 19.5103 19.1412C19.7668 19.2717 19.9608 19.4646 20.0919 19.7201C20.223 19.9754 20.2856 20.2875 20.2856 20.6451C20.2856 21.1898 20.1431 21.6099 19.858 21.8993C19.5731 22.1888 19.1569 22.3363 18.6096 22.3363H17.3156V22.342ZM18.6153 21.729C18.661 21.729 18.7065 21.7234 18.7579 21.7177C18.809 21.712 18.8604 21.7007 18.9118 21.6893C18.963 21.678 19.0087 21.6666 19.0544 21.6496C19.0998 21.6326 19.1398 21.6156 19.1683 21.5985C19.2995 21.5078 19.3963 21.3829 19.4646 21.2182C19.5332 21.0537 19.5617 20.8664 19.5617 20.6508C19.5617 20.4806 19.5446 20.3272 19.5046 20.191C19.4646 20.0549 19.4077 19.9357 19.3278 19.8392C19.2367 19.7314 19.1227 19.6632 18.9858 19.6234C18.849 19.5837 18.7065 19.5667 18.5754 19.5667H18.0166V21.729H18.6153Z" fill="white"/>
<path d="M24.8978 18.9482H25.6902L24.4302 21.0764V22.3477H23.7292V21.0877L22.452 18.9482H23.2559L24.0825 20.418L24.8978 18.9482Z" fill="white"/>
<path d="M27.7591 18.9023C28.0214 18.9023 28.2551 18.9421 28.4602 19.0272C28.6713 19.1123 28.8479 19.2258 28.9904 19.379C29.1329 19.5321 29.2469 19.7139 29.3211 19.9238C29.3952 20.1338 29.4351 20.3664 29.4351 20.6219C29.4351 20.8716 29.3952 21.1042 29.3211 21.32C29.2469 21.5356 29.1329 21.7172 28.9904 21.8761C28.8479 22.0351 28.6656 22.1543 28.4602 22.2451C28.2494 22.3302 28.01 22.3756 27.742 22.3699C27.4741 22.3699 27.2404 22.3245 27.0293 22.2394C26.8185 22.1543 26.6474 22.0295 26.5048 21.8761C26.3623 21.7229 26.254 21.5413 26.1743 21.3314C26.0946 21.1212 26.0603 20.8886 26.0603 20.639C26.0603 20.3834 26.1003 20.1508 26.18 19.9352C26.2597 19.7196 26.368 19.5378 26.5163 19.3846C26.6645 19.2314 26.8413 19.1123 27.0465 19.0272C27.2632 18.9477 27.4969 18.9023 27.7591 18.9023ZM26.7842 20.6333C26.7842 20.7808 26.8071 20.9226 26.847 21.0531C26.8868 21.1836 26.9439 21.303 27.0236 21.4051C27.1035 21.5073 27.2004 21.5924 27.3258 21.6548C27.4455 21.7172 27.5881 21.7512 27.7534 21.7512C27.9131 21.7569 28.0499 21.7285 28.1753 21.6661C28.3007 21.6037 28.3976 21.5243 28.4773 21.4221C28.5573 21.32 28.6199 21.2007 28.6598 21.0645C28.6998 20.9283 28.7224 20.7865 28.7224 20.639C28.7224 20.4971 28.6998 20.3551 28.6598 20.2189C28.6199 20.0827 28.563 19.9636 28.483 19.8614C28.4033 19.7593 28.3065 19.6742 28.181 19.6116C28.0611 19.5492 27.9131 19.5208 27.7534 19.5208C27.5938 19.5208 27.4512 19.5492 27.3315 19.6116C27.2118 19.6742 27.1093 19.7536 27.0293 19.8558C26.9496 19.9579 26.8868 20.077 26.847 20.2075C26.8013 20.3437 26.7842 20.4858 26.7842 20.6333Z" fill="white"/>
<path d="M31.8125 22.3817C31.5446 22.3817 31.3164 22.342 31.1284 22.2683C30.9401 22.1945 30.7862 22.081 30.6722 21.9447C30.5525 21.8028 30.4728 21.6326 30.4157 21.4397C30.3645 21.2411 30.3359 21.0196 30.3359 20.7756V18.9482H31.037V20.821C31.037 20.9459 31.0484 21.065 31.077 21.1785C31.1055 21.2922 31.1455 21.3943 31.2081 21.4794C31.2709 21.5645 31.3506 21.6326 31.4475 21.6893C31.5446 21.7404 31.67 21.7688 31.8237 21.7688C31.972 21.7688 32.0974 21.7404 32.1944 21.6893C32.2913 21.6383 32.371 21.5645 32.4338 21.4794C32.4907 21.3886 32.5364 21.2922 32.5592 21.1785C32.5821 21.065 32.5935 20.9459 32.5935 20.8267V18.9539H33.2889V20.7756C33.2889 21.0139 33.2603 21.2352 33.2091 21.434C33.1577 21.6326 33.0723 21.8028 32.9526 21.9447C32.8329 22.0867 32.6847 22.1945 32.4964 22.2683C32.3027 22.342 32.0803 22.3817 31.8125 22.3817Z" fill="white"/>
<path d="M34.0524 19.5667V18.9482H36.8915V19.5667H35.8197V22.3477H35.1184V19.5667H34.0524Z" fill="white"/>
<path d="M38.363 20.3556H39.8738V18.9482H40.5749V22.3477H39.8738V20.9799H38.363V22.3477H37.6676V18.9482H38.3687V20.3556H38.363Z" fill="white"/>
<path d="M3.73038 24.4531V25.0716H2.04865V25.9514H3.46245V26.5585H2.04865V27.8469H1.35315V24.4531H3.73038Z" fill="white"/>
<path d="M7.00939 24.4541V25.0726H5.27067V25.8671H6.78706V26.4858H5.27067V27.2349H7.00939V27.8479H4.56946V24.4541H7.00939Z" fill="white"/>
<path d="M9.71594 25.4291C9.69883 25.2873 9.63041 25.1795 9.52209 25.1169C9.41379 25.0545 9.27696 25.0204 9.11165 25.0148C9.05463 25.0148 8.99193 25.0204 8.92922 25.0318C8.86652 25.0431 8.8095 25.0601 8.75249 25.0885C8.69549 25.1169 8.65559 25.1566 8.61568 25.2022C8.58148 25.2476 8.56437 25.31 8.56437 25.3781C8.55866 25.4518 8.58148 25.5143 8.62139 25.5653C8.66128 25.6164 8.71829 25.6561 8.781 25.6901C8.82661 25.7128 8.88361 25.7299 8.93493 25.7526C8.98624 25.7753 9.04894 25.7866 9.10025 25.7979C9.15724 25.815 9.20857 25.8263 9.25987 25.832C9.31118 25.8433 9.35678 25.849 9.39668 25.8604C9.53351 25.8887 9.67032 25.9228 9.79573 25.9627C9.92685 26.0024 10.0409 26.0535 10.1378 26.1216C10.2347 26.1896 10.3202 26.2804 10.3772 26.3882C10.4342 26.496 10.4684 26.6436 10.4741 26.8253C10.4741 27.0182 10.4399 27.1885 10.3658 27.3246C10.2917 27.4608 10.1948 27.5745 10.0694 27.6539C9.94967 27.739 9.81284 27.7958 9.65321 27.8355C9.4936 27.8695 9.32258 27.8865 9.13444 27.8809C8.95202 27.8752 8.781 27.8525 8.62139 27.8071C8.46176 27.7617 8.31925 27.6936 8.19382 27.6028C8.06841 27.5119 7.97148 27.4041 7.89738 27.2679C7.82328 27.1317 7.78337 26.9728 7.77197 26.7913H8.48456C8.50167 26.8764 8.53587 26.9445 8.58148 26.9955C8.62708 27.0466 8.67839 27.092 8.74109 27.1317C8.80381 27.1658 8.87221 27.1941 8.94633 27.2055C9.02043 27.2225 9.10025 27.2282 9.17435 27.2338C9.25417 27.2395 9.33398 27.2338 9.40808 27.2225C9.48219 27.2111 9.54491 27.1941 9.60191 27.1658C9.65892 27.1374 9.70452 27.1033 9.73302 27.0523C9.76724 27.0069 9.77864 26.9445 9.77864 26.8707C9.77864 26.7686 9.74442 26.6946 9.68172 26.6436C9.61901 26.5925 9.5506 26.5641 9.4765 26.5414C9.42519 26.5301 9.37957 26.5187 9.33967 26.5074C9.29978 26.496 9.25987 26.4847 9.21997 26.479C9.18006 26.4733 9.14015 26.462 9.10025 26.4506C9.06034 26.4393 9.00904 26.428 8.95773 26.4166C8.83801 26.3826 8.70689 26.3485 8.58148 26.3088C8.45036 26.2691 8.33633 26.2123 8.23372 26.1386C8.10831 26.0535 8.0171 25.9398 7.9544 25.8093C7.89167 25.6731 7.86318 25.5256 7.86887 25.3611C7.88027 25.168 7.92589 25.0091 8.0057 24.8843C8.08551 24.7594 8.18813 24.6573 8.31354 24.5835C8.43896 24.5098 8.57577 24.4587 8.72969 24.4303C8.87792 24.402 9.03183 24.3906 9.18006 24.3906C9.34538 24.3906 9.49929 24.419 9.64752 24.4587C9.79573 24.4984 9.91545 24.5665 10.0238 24.6459C10.1321 24.7311 10.2176 24.8332 10.286 24.9637C10.3544 25.0942 10.3943 25.2419 10.4114 25.4121H9.71594V25.4291Z" fill="white"/>
<path d="M11.1189 25.0716V24.4531H13.9579V25.0716H12.8861V27.8526H12.1849V25.0716H11.1189Z" fill="white"/>
<path d="M15.4284 27.8479H14.7273V24.4541H15.4284V27.8479Z" fill="white"/>
<path d="M18.7864 24.4531H19.539L18.245 27.8526H17.4923L16.1982 24.4531H16.9735L17.8857 27.0183L18.7864 24.4531Z" fill="white"/>
<path d="M20.7016 27.1997L20.4565 27.8467H19.6926L21.015 24.4473H21.8075L23.1072 27.8467H22.3434L22.1097 27.1997H20.7016ZM20.901 26.5867H21.8931L21.4027 25.1851L20.901 26.5867Z" fill="white"/>
<path d="M24.5613 27.2339H26.2316V27.8469H23.866V24.4531H24.5613V27.2339Z" fill="white"/>
<path d="M29.5323 26.496C29.6121 26.4336 29.6863 26.3655 29.766 26.2918C29.846 26.218 29.92 26.1443 29.9942 26.0591C30.0682 25.9854 30.1308 25.9058 30.1822 25.8207C30.2336 25.7355 30.262 25.6391 30.2677 25.5313C30.2734 25.3611 30.2279 25.2362 30.1308 25.1511C30.034 25.0658 29.9029 25.0261 29.7432 25.0318C29.6009 25.0375 29.481 25.0658 29.3955 25.1341C29.3044 25.1965 29.253 25.293 29.2416 25.4121H28.5917C28.5974 25.2249 28.6431 25.0602 28.7285 24.9183C28.8141 24.7765 28.9281 24.6686 29.0707 24.5835C29.1732 24.5211 29.2872 24.4814 29.4069 24.453C29.5266 24.4247 29.6578 24.4133 29.7946 24.4133C30.1594 24.4076 30.4445 24.5041 30.6496 24.7027C30.741 24.7878 30.8093 24.8899 30.8664 25.0091C30.9233 25.1341 30.9461 25.276 30.9461 25.4462C30.9461 25.5653 30.9347 25.6845 30.9063 25.7923C30.8778 25.9001 30.8378 26.0024 30.7752 26.0932C30.7352 26.1556 30.6953 26.218 30.6496 26.2691C30.6041 26.3201 30.5642 26.3712 30.5185 26.4166C30.473 26.462 30.4273 26.5074 30.3761 26.5528C30.3248 26.5982 30.2677 26.6492 30.2108 26.7005C30.0911 26.8026 29.9771 26.8991 29.8686 26.9842C29.7603 27.0693 29.6578 27.1544 29.5609 27.2395H30.8949V27.8525H28.6031V27.2849L29.5323 26.496Z" fill="white"/>
<path d="M33.0952 24.4082C33.2889 24.4082 33.4714 24.4422 33.6368 24.5103C33.802 24.5784 33.9445 24.6805 34.0585 24.8224C34.1782 24.9642 34.2696 25.1458 34.3322 25.3616C34.4007 25.5772 34.429 25.8382 34.429 26.1391C34.429 26.4455 34.395 26.7065 34.3322 26.9223C34.2696 27.1379 34.1782 27.3195 34.0642 27.4614C33.9502 27.6034 33.8077 27.7055 33.6423 27.7736C33.4771 27.8417 33.2946 27.8757 33.0895 27.8757C32.8842 27.8757 32.7018 27.8417 32.5365 27.7736C32.3711 27.7055 32.2286 27.6034 32.1146 27.4614C31.9949 27.3195 31.9094 27.1436 31.8466 26.9223C31.784 26.7065 31.7498 26.4455 31.7498 26.1391C31.7498 25.8382 31.784 25.5772 31.8466 25.3616C31.9094 25.1458 32.0006 24.9642 32.1203 24.8224C32.24 24.6805 32.3825 24.5784 32.5422 24.5103C32.7133 24.4422 32.8956 24.4082 33.0952 24.4082ZM33.0952 27.2571C33.3003 27.2571 33.46 27.172 33.5797 26.9961C33.6937 26.8259 33.7508 26.5363 33.7508 26.1391C33.7508 25.7418 33.6937 25.4581 33.5797 25.2822C33.4657 25.1061 33.3061 25.021 33.0952 25.021C32.8841 25.021 32.7247 25.1061 32.6105 25.2822C32.4965 25.4581 32.4396 25.7418 32.4396 26.1391C32.4396 26.5363 32.4965 26.8259 32.6105 26.9961C32.7247 27.172 32.8841 27.2571 33.0952 27.2571Z" fill="white"/>
<path d="M36.071 26.496C36.1508 26.4336 36.225 26.3655 36.3047 26.2918C36.3847 26.218 36.4587 26.1443 36.5327 26.0591C36.6069 25.9854 36.6695 25.9058 36.7209 25.8207C36.7723 25.7355 36.8007 25.6391 36.8064 25.5313C36.8121 25.3611 36.7666 25.2362 36.6695 25.1511C36.5727 25.0658 36.4416 25.0261 36.2819 25.0318C36.1394 25.0375 36.0197 25.0658 35.9342 25.1341C35.8431 25.1965 35.7917 25.293 35.7803 25.4121H35.1304C35.1361 25.2249 35.1818 25.0602 35.2672 24.9183C35.3526 24.7765 35.4668 24.6686 35.6092 24.5835C35.7119 24.5211 35.8259 24.4814 35.9456 24.453C36.0653 24.4247 36.1964 24.4133 36.3333 24.4133C36.6981 24.4076 36.9832 24.5041 37.1883 24.7027C37.2797 24.7878 37.348 24.8899 37.4051 25.0091C37.462 25.1341 37.4848 25.276 37.4848 25.4462C37.4848 25.5653 37.4734 25.6845 37.4448 25.7923C37.4165 25.9001 37.3765 26.0024 37.3137 26.0932C37.2739 26.1556 37.234 26.218 37.1883 26.2691C37.1428 26.3201 37.1029 26.3712 37.0572 26.4166C37.0117 26.462 36.966 26.5074 36.9146 26.5528C36.8635 26.5982 36.8064 26.6492 36.7495 26.7005C36.6298 26.8026 36.5158 26.8991 36.4073 26.9842C36.299 27.0693 36.1965 27.1544 36.0996 27.2395H37.4334V27.8525H35.1418V27.2849L36.071 26.496Z" fill="white"/>
<path d="M40.5624 26.6163H40.9501V27.2179H40.5624V27.8536H39.8783V27.2179H38.208V26.7356L39.73 24.4541H40.5567V26.6163H40.5624ZM39.0061 26.6163H39.8783V25.2543L39.0061 26.6163Z" fill="white"/>
</g>
</g>
<defs>
<clipPath id="clip0_640_458">
<rect width="63" height="30" fill="white"/>
</clipPath>
</defs>
</svg>
