<svg width="169" height="60" viewBox="0 0 169 60" fill="none" xmlns="http://www.w3.org/2000/svg">
<g clip-path="url(#clip0_593_2249)">
<mask id="mask0_593_2249" style="mask-type:luminance" maskUnits="userSpaceOnUse" x="-44" y="-30" width="251" height="125">
<path d="M206.999 -29.4854H-43.2285V94.2484H206.999V-29.4854Z" fill="white"/>
</mask>
<g mask="url(#mask0_593_2249)">
<path d="M0.862846 58.502H18.9108C19.2674 58.502 19.5588 58.7934 19.5588 59.1499C19.5588 59.5065 19.2674 59.798 18.9108 59.798H0.862846C0.502846 59.798 0.214844 59.5065 0.214844 59.1499C0.214844 58.7934 0.506275 58.502 0.862846 58.502Z" fill="white"/>
</g>
<mask id="mask1_593_2249" style="mask-type:luminance" maskUnits="userSpaceOnUse" x="-44" y="-30" width="251" height="125">
<path d="M206.999 -29.4854H-43.2285V94.2484H206.999V-29.4854Z" fill="white"/>
</mask>
<g mask="url(#mask1_593_2249)">
<path d="M1.3491 48.3088L18.7662 53.0402C19.1125 53.1328 19.3148 53.4893 19.2222 53.8356C19.1297 54.1819 18.7731 54.3842 18.4268 54.2916L1.00967 49.5602C0.663384 49.4676 0.461098 49.111 0.553669 48.7648C0.646241 48.4185 1.00281 48.2128 1.3491 48.3088Z" fill="white"/>
</g>
<mask id="mask2_593_2249" style="mask-type:luminance" maskUnits="userSpaceOnUse" x="-44" y="-30" width="251" height="125">
<path d="M206.999 -29.4854H-43.2285V94.2484H206.999V-29.4854Z" fill="white"/>
</mask>
<g mask="url(#mask2_593_2249)">
<path d="M2.74472 36.672L17.755 46.7005C18.0533 46.8994 18.1322 47.3005 17.9333 47.5988C17.7344 47.8971 17.3333 47.976 17.035 47.7771L2.02815 37.752C1.72987 37.5531 1.65101 37.1485 1.84987 36.8537C2.04529 36.552 2.44644 36.4731 2.74472 36.672Z" fill="white"/>
</g>
<mask id="mask3_593_2249" style="mask-type:luminance" maskUnits="userSpaceOnUse" x="-44" y="-30" width="251" height="125">
<path d="M206.999 -29.4854H-43.2285V94.2484H206.999V-29.4854Z" fill="white"/>
</mask>
<g mask="url(#mask3_593_2249)">
<path d="M4.80626 23.2561L15.0303 38.1293C15.2325 38.4241 15.1571 38.8287 14.8623 39.031C14.5674 39.2332 14.1628 39.1578 13.9605 38.863L3.73654 23.9898C3.53426 23.695 3.60969 23.2904 3.90455 23.0881C4.1994 22.8858 4.60398 22.9613 4.80626 23.2561Z" fill="white"/>
</g>
<mask id="mask4_593_2249" style="mask-type:luminance" maskUnits="userSpaceOnUse" x="-44" y="-30" width="251" height="125">
<path d="M206.999 -29.4854H-43.2285V94.2484H206.999V-29.4854Z" fill="white"/>
</mask>
<g mask="url(#mask4_593_2249)">
<path d="M12.2215 12.6209L16.6718 30.1135C16.761 30.4598 16.5518 30.8129 16.2055 30.9021C15.8592 30.9912 15.5061 30.7786 15.417 30.4323L10.9667 12.9398C10.881 12.5935 11.0867 12.2403 11.4364 12.1512C11.7792 12.062 12.1324 12.2746 12.2215 12.6209Z" fill="white"/>
</g>
<mask id="mask5_593_2249" style="mask-type:luminance" maskUnits="userSpaceOnUse" x="-44" y="-30" width="251" height="125">
<path d="M206.999 -29.4854H-43.2285V94.2484H206.999V-29.4854Z" fill="white"/>
</mask>
<g mask="url(#mask5_593_2249)">
<path d="M20.8885 0.692952L20.837 18.741C20.837 19.0975 20.5456 19.389 20.1856 19.3855C19.829 19.3855 19.5376 19.0941 19.541 18.7375L19.589 0.689525C19.589 0.332954 19.8805 0.0415232 20.2405 0.0449518C20.6005 0.0415232 20.8885 0.332952 20.8885 0.692952Z" fill="white"/>
</g>
<mask id="mask6_593_2249" style="mask-type:luminance" maskUnits="userSpaceOnUse" x="-44" y="-30" width="251" height="125">
<path d="M206.999 -29.4854H-43.2285V94.2484H206.999V-29.4854Z" fill="white"/>
</mask>
<g mask="url(#mask6_593_2249)">
<path d="M37.0964 18.1405C37.0964 18.6479 36.6713 19.0697 36.1673 19.0697H34.7924C34.285 19.0697 33.8633 18.6445 33.8633 18.1405V5.84223C33.8633 5.33823 34.2884 4.91309 34.7924 4.91309H41.1216C41.629 4.91309 42.0507 5.33823 42.0507 5.84223V7.0148C42.0507 7.52223 41.6256 7.94737 41.1216 7.94737H37.0964V10.9405H40.5147C41.0221 10.9405 41.4439 11.3657 41.4439 11.8697V13.0422C41.4439 13.5497 41.0187 13.9714 40.5147 13.9714H37.0964V18.1405Z" fill="white"/>
</g>
<mask id="mask7_593_2249" style="mask-type:luminance" maskUnits="userSpaceOnUse" x="-44" y="-30" width="251" height="125">
<path d="M206.999 -29.4854H-43.2285V94.2484H206.999V-29.4854Z" fill="white"/>
</mask>
<g mask="url(#mask7_593_2249)">
<path d="M51.4417 4.66992C55.7514 4.66992 58.9674 7.48135 58.9674 11.9934C58.9674 16.2825 55.7514 19.3168 51.4417 19.3168C47.132 19.3168 43.916 16.5054 43.916 11.9934C43.916 7.88592 46.9332 4.66992 51.4417 4.66992ZM51.4417 16.2825C54.1332 16.2825 55.5286 14.3796 55.5286 11.9934C55.5286 9.40478 53.7286 7.70421 51.4417 7.70421C49.0966 7.70421 47.3549 9.40135 47.3549 11.9934C47.3549 14.4208 49.1754 16.2825 51.4417 16.2825Z" fill="white"/>
</g>
<mask id="mask8_593_2249" style="mask-type:luminance" maskUnits="userSpaceOnUse" x="-44" y="-30" width="251" height="125">
<path d="M206.999 -29.4854H-43.2285V94.2484H206.999V-29.4854Z" fill="white"/>
</mask>
<g mask="url(#mask8_593_2249)">
<path d="M70.1173 5.84223C70.1173 5.33823 70.5424 4.91309 71.0464 4.91309H72.4213C72.9253 4.91309 73.3504 5.33823 73.3504 5.84223V13.2274C73.3504 17.5542 70.6007 19.3165 67.5664 19.3165C63.9253 19.3165 61.3984 17.2319 61.3984 13.0868V5.84566C61.3984 5.34166 61.8236 4.91651 62.3276 4.91651H63.7024C64.2064 4.91651 64.6316 5.34166 64.6316 5.84566V12.4011C64.6316 14.6057 65.3001 16.2857 67.5664 16.2857C69.5276 16.2857 70.1139 14.8491 70.1139 12.5828V5.84223H70.1173Z" fill="white"/>
</g>
<mask id="mask9_593_2249" style="mask-type:luminance" maskUnits="userSpaceOnUse" x="-44" y="-30" width="251" height="125">
<path d="M206.999 -29.4854H-43.2285V94.2484H206.999V-29.4854Z" fill="white"/>
</mask>
<g mask="url(#mask9_593_2249)">
<path d="M87.798 4.91359C88.302 4.91359 88.7271 5.33873 88.7271 5.84273V18.141C88.7271 18.6484 88.302 19.0702 87.798 19.0702H86.8483C86.4231 19.0702 85.9568 18.8473 85.6962 18.5044L79.4254 10.5742V18.1376C79.4254 18.645 79.0002 19.0667 78.4962 19.0667H77.3237C76.8162 19.0667 76.3945 18.6416 76.3945 18.1376V5.8393C76.3945 5.3353 76.8197 4.91016 77.3237 4.91016H78.2734C78.6985 4.91016 79.1614 5.13301 79.4254 5.47587L85.6962 13.4439V5.8393C85.6962 5.3353 86.1214 4.91016 86.6288 4.91016H87.798V4.91359Z" fill="white"/>
</g>
<mask id="mask10_593_2249" style="mask-type:luminance" maskUnits="userSpaceOnUse" x="-44" y="-30" width="251" height="125">
<path d="M206.999 -29.4854H-43.2285V94.2484H206.999V-29.4854Z" fill="white"/>
</mask>
<g mask="url(#mask10_593_2249)">
<path d="M96.4416 4.85156C102.106 4.85156 104.389 8.10871 104.389 11.8698C104.389 15.8367 101.677 19.111 96.277 19.111C95.6701 19.111 94.3159 19.0904 92.8999 19.0698C92.3924 19.0698 91.9707 18.6447 91.9707 18.1201V5.86299C91.9707 5.33842 92.3959 4.91328 92.8999 4.91328C94.093 4.89271 95.7318 4.85156 96.4416 4.85156ZM95.2073 16.039C95.6324 16.0801 95.9136 16.0801 96.3799 16.0801C99.1707 16.0801 100.95 14.5647 100.95 11.8733C100.95 9.26413 99.0301 7.88928 96.4004 7.88928C96.0576 7.88928 95.6118 7.88928 95.2073 7.95099V16.039Z" fill="white"/>
</g>
<mask id="mask11_593_2249" style="mask-type:luminance" maskUnits="userSpaceOnUse" x="-44" y="-30" width="251" height="125">
<path d="M206.999 -29.4854H-43.2285V94.2484H206.999V-29.4854Z" fill="white"/>
</mask>
<g mask="url(#mask11_593_2249)">
<path d="M109.107 16.0971L108.195 18.4045C108.033 18.8091 107.649 19.0731 107.224 19.0731H105.99C105.483 19.0731 105.119 18.6479 105.119 18.2022C105.119 18.0822 105.14 17.9588 105.181 17.8594L110.279 5.58166C110.461 5.17708 110.845 4.91309 111.27 4.91309H112.748C113.173 4.91309 113.557 5.17708 113.739 5.58166L118.837 17.8594C118.878 17.9588 118.899 18.0822 118.899 18.2022C118.899 18.6479 118.535 19.0731 118.028 19.0731H116.591C116.166 19.0731 115.782 18.8091 115.621 18.4045L114.712 16.0971H109.107ZM110.32 13.0662H113.495L111.918 9.06166L110.32 13.0662Z" fill="white"/>
</g>
<mask id="mask12_593_2249" style="mask-type:luminance" maskUnits="userSpaceOnUse" x="-44" y="-30" width="251" height="125">
<path d="M206.999 -29.4854H-43.2285V94.2484H206.999V-29.4854Z" fill="white"/>
</mask>
<g mask="url(#mask12_593_2249)">
<path d="M123.592 19.0736C123.088 19.0736 122.663 18.6484 122.663 18.1444V7.95128H119.347C118.843 7.95128 118.418 7.52614 118.418 7.01871V5.84614C118.418 5.34214 118.843 4.91699 119.347 4.91699H129.218C129.722 4.91699 130.147 5.34214 130.147 5.84614V7.01871C130.147 7.52614 129.722 7.95128 129.218 7.95128H125.899V18.1444C125.899 18.6519 125.474 19.0736 124.97 19.0736H123.592Z" fill="white"/>
</g>
<mask id="mask13_593_2249" style="mask-type:luminance" maskUnits="userSpaceOnUse" x="-44" y="-30" width="251" height="125">
<path d="M206.999 -29.4854H-43.2285V94.2484H206.999V-29.4854Z" fill="white"/>
</mask>
<g mask="url(#mask13_593_2249)">
<path d="M136.014 18.1405C136.014 18.6479 135.589 19.0697 135.085 19.0697H133.71C133.203 19.0697 132.781 18.6445 132.781 18.1405V5.84223C132.781 5.33823 133.206 4.91309 133.71 4.91309H135.085C135.593 4.91309 136.014 5.33823 136.014 5.84223V18.1405Z" fill="white"/>
</g>
<mask id="mask14_593_2249" style="mask-type:luminance" maskUnits="userSpaceOnUse" x="-44" y="-30" width="251" height="125">
<path d="M206.999 -29.4854H-43.2285V94.2484H206.999V-29.4854Z" fill="white"/>
</mask>
<g mask="url(#mask14_593_2249)">
<path d="M146.371 4.66992C150.681 4.66992 153.897 7.48135 153.897 11.9934C153.897 16.2825 150.681 19.3168 146.371 19.3168C142.062 19.3168 138.846 16.5054 138.846 11.9934C138.849 7.88592 141.863 4.66992 146.371 4.66992ZM146.371 16.2825C149.063 16.2825 150.458 14.3796 150.458 11.9934C150.458 9.40478 148.658 7.70421 146.371 7.70421C144.026 7.70421 142.285 9.40135 142.285 11.9934C142.288 14.4208 144.109 16.2825 146.371 16.2825Z" fill="white"/>
</g>
<mask id="mask15_593_2249" style="mask-type:luminance" maskUnits="userSpaceOnUse" x="-44" y="-30" width="251" height="125">
<path d="M206.999 -29.4854H-43.2285V94.2484H206.999V-29.4854Z" fill="white"/>
</mask>
<g mask="url(#mask15_593_2249)">
<path d="M167.941 4.91359C168.445 4.91359 168.87 5.33873 168.87 5.84273V18.141C168.87 18.6484 168.445 19.0702 167.941 19.0702H166.991C166.566 19.0702 166.099 18.8473 165.839 18.5044L159.568 10.5742V18.1376C159.568 18.645 159.143 19.0667 158.639 19.0667H157.466C156.959 19.0667 156.537 18.6416 156.537 18.1376V5.8393C156.537 5.3353 156.962 4.91016 157.466 4.91016H158.416C158.841 4.91016 159.304 5.13301 159.568 5.47587L165.839 13.4439V5.8393C165.839 5.3353 166.264 4.91016 166.771 4.91016H167.941V4.91359Z" fill="white"/>
</g>
<mask id="mask16_593_2249" style="mask-type:luminance" maskUnits="userSpaceOnUse" x="-44" y="-30" width="251" height="125">
<path d="M206.999 -29.4854H-43.2285V94.2484H206.999V-29.4854Z" fill="white"/>
</mask>
<g mask="url(#mask16_593_2249)">
<path d="M34.6044 56.2763C34.7861 55.9918 35.0707 55.8512 35.3518 55.8512C35.5747 55.8512 35.7769 55.9129 35.9792 56.0535C36.8089 56.5986 37.7792 57.0032 38.5301 57.0032C39.3804 57.0032 39.8638 56.5781 39.8638 55.9095C39.8638 53.7838 33.9564 54.0478 33.9564 49.4775C33.9564 47.2935 35.6947 45.3906 38.5301 45.3906C39.9872 45.3906 41.0158 45.6752 42.0272 46.3198C42.2912 46.4809 42.4112 46.8066 42.4112 47.1083C42.4112 47.2695 42.3701 47.4512 42.2912 47.5952L41.7632 48.4866C41.5609 48.8089 41.2764 48.9735 40.9541 48.9735C40.7929 48.9735 40.5907 48.9118 40.4089 48.8123C39.9221 48.5689 39.3975 48.4283 38.8112 48.4283C37.9232 48.4283 37.3952 48.8329 37.3952 49.4809C37.3952 51.8261 43.3027 51.2603 43.3027 55.8718C43.3027 58.3403 41.1769 60.0375 38.4478 60.0375C37.0318 60.0375 35.5369 59.4923 34.1587 58.4192C33.9564 58.2581 33.8535 57.9735 33.8535 57.7095C33.8535 57.4866 33.8947 57.2843 34.0147 57.1232L34.6044 56.2763Z" fill="white"/>
</g>
<mask id="mask17_593_2249" style="mask-type:luminance" maskUnits="userSpaceOnUse" x="-44" y="-30" width="251" height="125">
<path d="M206.999 -29.4854H-43.2285V94.2484H206.999V-29.4854Z" fill="white"/>
</mask>
<g mask="url(#mask17_593_2249)">
<path d="M54.1056 46.5707C54.1056 46.0667 54.5307 45.6416 55.0347 45.6416H56.4096C56.9136 45.6416 57.3387 46.0667 57.3387 46.5707V53.9559C57.3387 58.2827 54.589 60.045 51.5547 60.045C47.9136 60.045 45.3867 57.9605 45.3867 53.8153V46.5742C45.3867 46.0702 45.8119 45.645 46.3159 45.645H47.6907C48.1947 45.645 48.6199 46.0702 48.6199 46.5742V53.1296C48.6199 55.3342 49.2884 57.0142 51.5547 57.0142C53.5159 57.0142 54.1022 55.5776 54.1022 53.3113V46.5707H54.1056Z" fill="white"/>
</g>
<mask id="mask18_593_2249" style="mask-type:luminance" maskUnits="userSpaceOnUse" x="-44" y="-30" width="251" height="125">
<path d="M206.999 -29.4854H-43.2285V94.2484H206.999V-29.4854Z" fill="white"/>
</mask>
<g mask="url(#mask18_593_2249)">
<path d="M70.1878 50.2909C70.1878 52.8177 68.2267 55.0429 64.949 55.0429C64.6438 55.0429 63.8758 55.0429 63.3718 54.9846V58.8692C63.3718 59.3766 62.9467 59.7983 62.4427 59.7983H61.0678C60.5604 59.7983 60.1387 59.3732 60.1387 58.8692V46.5914C60.1387 46.0669 60.5638 45.6417 61.0678 45.6417C62.141 45.6212 63.677 45.6006 64.4655 45.6006C68.7718 45.6006 70.1878 47.8429 70.1878 50.2909ZM63.3718 51.9092C63.8381 51.9709 64.3832 52.012 64.8461 52.012C65.6964 52.012 66.749 51.6486 66.749 50.2737C66.749 49.0189 65.9398 48.6349 64.7878 48.6349C64.3627 48.6349 64.0404 48.6554 63.3718 48.676V51.9092Z" fill="white"/>
</g>
<mask id="mask19_593_2249" style="mask-type:luminance" maskUnits="userSpaceOnUse" x="-44" y="-30" width="251" height="125">
<path d="M206.999 -29.4854H-43.2285V94.2484H206.999V-29.4854Z" fill="white"/>
</mask>
<g mask="url(#mask19_593_2249)">
<path d="M82.7503 50.2909C82.7503 52.8177 80.7892 55.0429 77.5115 55.0429C77.2063 55.0429 76.4383 55.0429 75.9343 54.9846V58.8692C75.9343 59.3766 75.5092 59.7983 75.0052 59.7983H73.6303C73.1229 59.7983 72.7012 59.3732 72.7012 58.8692V46.5914C72.7012 46.0669 73.1263 45.6417 73.6303 45.6417C74.7035 45.6212 76.2395 45.6006 77.028 45.6006C81.3343 45.6006 82.7503 47.8429 82.7503 50.2909ZM75.9343 51.9092C76.4006 51.9709 76.9457 52.012 77.4086 52.012C78.2589 52.012 79.3115 51.6486 79.3115 50.2737C79.3115 49.0189 78.5023 48.6349 77.3503 48.6349C76.9252 48.6349 76.6029 48.6554 75.9343 48.676V51.9092Z" fill="white"/>
</g>
<mask id="mask20_593_2249" style="mask-type:luminance" maskUnits="userSpaceOnUse" x="-44" y="-30" width="251" height="125">
<path d="M206.999 -29.4854H-43.2285V94.2484H206.999V-29.4854Z" fill="white"/>
</mask>
<g mask="url(#mask20_593_2249)">
<path d="M92.1448 45.3945C96.4546 45.3945 99.6706 48.206 99.6706 52.718C99.6706 57.0071 96.4546 60.0414 92.1448 60.0414C87.8351 60.0414 84.6191 57.23 84.6191 52.718C84.6226 48.614 87.6363 45.3945 92.1448 45.3945ZM92.1448 57.0071C94.8363 57.0071 96.2317 55.1042 96.2317 52.718C96.2317 50.1294 94.4317 48.4288 92.1448 48.4288C89.7997 48.4288 88.058 50.126 88.058 52.718C88.0614 55.1454 89.8786 57.0071 92.1448 57.0071Z" fill="white"/>
</g>
<mask id="mask21_593_2249" style="mask-type:luminance" maskUnits="userSpaceOnUse" x="-44" y="-30" width="251" height="125">
<path d="M206.999 -29.4854H-43.2285V94.2484H206.999V-29.4854Z" fill="white"/>
</mask>
<g mask="url(#mask21_593_2249)">
<path d="M106.551 54.844H105.358V58.8692C105.358 59.3766 104.933 59.7983 104.429 59.7983H103.054C102.547 59.7983 102.125 59.3732 102.125 58.8692V46.5709C102.125 46.0669 102.55 45.6417 103.054 45.6417C104.429 45.6212 106.634 45.6006 106.939 45.6006C110.803 45.6006 112.178 47.5206 112.178 50.1297C112.178 52.7594 110.559 53.8326 109.791 54.2166L112.908 58.4234C113.028 58.5846 113.09 58.7663 113.09 58.9274C113.09 59.3732 112.726 59.7983 112.202 59.7983H110.707C110.282 59.7983 109.836 59.5754 109.592 59.212L106.551 54.844ZM106.531 51.8097C107.765 51.8097 108.735 51.364 108.735 50.1709C108.735 49.3823 108.331 48.6349 106.774 48.6349C106.287 48.6349 106.027 48.6554 105.358 48.676V51.8097H106.531Z" fill="white"/>
</g>
<mask id="mask22_593_2249" style="mask-type:luminance" maskUnits="userSpaceOnUse" x="-44" y="-30" width="251" height="125">
<path d="M206.999 -29.4854H-43.2285V94.2484H206.999V-29.4854Z" fill="white"/>
</mask>
<g mask="url(#mask22_593_2249)">
<path d="M119.283 59.7982C118.779 59.7982 118.354 59.373 118.354 58.869V48.6759H115.039C114.535 48.6759 114.109 48.2507 114.109 47.7433V46.5707C114.109 46.0667 114.535 45.6416 115.039 45.6416H124.909C125.413 45.6416 125.839 46.0667 125.839 46.5707V47.7433C125.839 48.2507 125.413 48.6759 124.909 48.6759H121.591V58.869C121.591 59.3765 121.165 59.7982 120.661 59.7982H119.283Z" fill="white"/>
</g>
<mask id="mask23_593_2249" style="mask-type:luminance" maskUnits="userSpaceOnUse" x="-44" y="-30" width="251" height="125">
<path d="M206.999 -29.4854H-43.2285V94.2484H206.999V-29.4854Z" fill="white"/>
</mask>
<g mask="url(#mask23_593_2249)">
<path d="M33.7637 39.912V25.7246H41.1214V26.7703H34.9328V33.1372H40.0757V34.1829H34.9328V39.912H33.7637Z" fill="white"/>
</g>
<mask id="mask24_593_2249" style="mask-type:luminance" maskUnits="userSpaceOnUse" x="-44" y="-30" width="251" height="125">
<path d="M206.999 -29.4854H-43.2285V94.2484H206.999V-29.4854Z" fill="white"/>
</mask>
<g mask="url(#mask24_593_2249)">
<path d="M46.5831 40.0875C45.318 40.0875 44.3614 39.6726 43.7169 38.836C43.0723 38.0029 42.75 36.7686 42.75 35.1366V30.5595C42.75 28.9035 43.0757 27.6555 43.7271 26.8086C44.3786 25.9618 45.3351 25.54 46.6003 25.54C47.8654 25.54 48.8151 25.9618 49.4563 26.8086C50.094 27.652 50.4129 28.9035 50.4129 30.5595V35.1366C50.4129 36.7686 50.0906 37.9995 49.446 38.836C48.8014 39.6726 47.8483 40.0875 46.5831 40.0875ZM46.5831 39.0417C47.5397 39.0417 48.222 38.7332 48.63 38.1195C49.038 37.5057 49.2437 36.5183 49.2437 35.1572V30.5492C49.2437 29.1675 49.0414 28.1629 48.63 27.5355C48.222 26.908 47.5397 26.596 46.5831 26.596C45.6266 26.596 44.9409 26.908 44.5329 27.5355C44.1249 28.1629 43.9191 29.1675 43.9191 30.5492V35.1606C43.9191 36.5218 44.1249 37.5092 44.5329 38.1229C44.9409 38.7366 45.6266 39.0417 46.5831 39.0417Z" fill="white"/>
</g>
<mask id="mask25_593_2249" style="mask-type:luminance" maskUnits="userSpaceOnUse" x="-44" y="-30" width="251" height="125">
<path d="M206.999 -29.4854H-43.2285V94.2484H206.999V-29.4854Z" fill="white"/>
</mask>
<g mask="url(#mask25_593_2249)">
<path d="M54.6359 39.912H53.4668V25.7246H57.7594C58.9285 25.7246 59.8028 26.04 60.3822 26.6743C60.9617 27.3086 61.2531 28.2378 61.2531 29.4686V30.5692C61.2531 31.704 61.0165 32.5852 60.5434 33.2126C60.0702 33.84 59.3674 34.2035 58.4348 34.3098L61.4314 39.9155H60.1354L57.1388 34.3475H54.6394V39.912H54.6359ZM54.6359 33.3155H57.7217C58.5617 33.3155 59.1651 33.0995 59.5388 32.6675C59.9125 32.2355 60.0977 31.5292 60.0977 30.5486V29.5029C60.0977 28.536 59.9125 27.8332 59.5388 27.4012C59.1651 26.9692 58.5582 26.7532 57.7217 26.7532H54.6359V33.3155Z" fill="white"/>
</g>
<mask id="mask26_593_2249" style="mask-type:luminance" maskUnits="userSpaceOnUse" x="-44" y="-30" width="251" height="125">
<path d="M206.999 -29.4854H-43.2285V94.2484H206.999V-29.4854Z" fill="white"/>
</mask>
<g mask="url(#mask26_593_2249)">
<path d="M73.9669 39.912L72.8492 35.568H68.6287L67.4938 39.912H66.3418L70.1887 25.7246H71.3064L75.1909 39.912H73.9669ZM72.5818 34.5189L70.7372 27.408L68.8927 34.5189H72.5818Z" fill="white"/>
</g>
<mask id="mask27_593_2249" style="mask-type:luminance" maskUnits="userSpaceOnUse" x="-44" y="-30" width="251" height="125">
<path d="M206.999 -29.4854H-43.2285V94.2484H206.999V-29.4854Z" fill="white"/>
</mask>
<g mask="url(#mask27_593_2249)">
<path d="M83.42 39.912L78.932 27.6583V39.912H77.8691V25.7246H79.3057L83.8966 38.2458V25.7246H84.9594V39.912H83.42Z" fill="white"/>
</g>
<mask id="mask28_593_2249" style="mask-type:luminance" maskUnits="userSpaceOnUse" x="-44" y="-30" width="251" height="125">
<path d="M206.999 -29.4854H-43.2285V94.2484H206.999V-29.4854Z" fill="white"/>
</mask>
<g mask="url(#mask28_593_2249)">
<path d="M88.0781 39.912V38.8663H91.0404V26.7703H88.0781V25.7246H95.1718V26.7703H92.2095V38.8663H95.1718V39.912H88.0781Z" fill="white"/>
</g>
<mask id="mask29_593_2249" style="mask-type:luminance" maskUnits="userSpaceOnUse" x="-44" y="-30" width="251" height="125">
<path d="M206.999 -29.4854H-43.2285V94.2484H206.999V-29.4854Z" fill="white"/>
</mask>
<g mask="url(#mask29_593_2249)">
<path d="M101.537 36.4012L99.123 27.7098V39.912H98.043V25.7246H99.5653L102.12 34.9475L104.657 25.7246H106.128V39.912H105.048V27.7269L102.634 36.4012H101.537Z" fill="white"/>
</g>
<mask id="mask30_593_2249" style="mask-type:luminance" maskUnits="userSpaceOnUse" x="-44" y="-30" width="251" height="125">
<path d="M206.999 -29.4854H-43.2285V94.2484H206.999V-29.4854Z" fill="white"/>
</mask>
<g mask="url(#mask30_593_2249)">
<path d="M116.184 39.912L115.066 35.568H110.845L109.711 39.912H108.559L112.405 25.7246H113.523L117.408 39.912H116.184ZM114.802 34.5189L112.957 27.408L111.113 34.5189H114.802Z" fill="white"/>
</g>
<mask id="mask31_593_2249" style="mask-type:luminance" maskUnits="userSpaceOnUse" x="-44" y="-30" width="251" height="125">
<path d="M206.999 -29.4854H-43.2285V94.2484H206.999V-29.4854Z" fill="white"/>
</mask>
<g mask="url(#mask31_593_2249)">
<path d="M121.213 39.912V26.7703H117.559V25.7246H126.055V26.7703H122.383V39.912H121.213Z" fill="white"/>
</g>
<mask id="mask32_593_2249" style="mask-type:luminance" maskUnits="userSpaceOnUse" x="-44" y="-30" width="251" height="125">
<path d="M206.999 -29.4854H-43.2285V94.2484H206.999V-29.4854Z" fill="white"/>
</mask>
<g mask="url(#mask32_593_2249)">
<path d="M128.816 39.912V38.8663H131.779V26.7703H128.816V25.7246H135.91V26.7703H132.951V38.8663H135.91V39.912H128.816Z" fill="white"/>
</g>
<mask id="mask33_593_2249" style="mask-type:luminance" maskUnits="userSpaceOnUse" x="-44" y="-30" width="251" height="125">
<path d="M206.999 -29.4854H-43.2285V94.2484H206.999V-29.4854Z" fill="white"/>
</mask>
<g mask="url(#mask33_593_2249)">
<path d="M142.329 40.0875C141.064 40.0875 140.108 39.6726 139.463 38.836C138.818 38.0029 138.496 36.7686 138.496 35.1366V30.5595C138.496 28.9035 138.822 27.6555 139.473 26.8086C140.125 25.9618 141.081 25.54 142.346 25.54C143.612 25.54 144.561 25.9618 145.202 26.8086C145.84 27.652 146.159 28.9035 146.159 30.5595V35.1366C146.159 36.7686 145.837 37.9995 145.192 38.836C144.548 39.6726 143.594 40.0875 142.329 40.0875ZM142.329 39.0417C143.286 39.0417 143.968 38.7332 144.376 38.1195C144.784 37.5057 144.99 36.5183 144.99 35.1572V30.5492C144.99 29.1675 144.788 28.1629 144.376 27.5355C143.968 26.908 143.286 26.596 142.329 26.596C141.373 26.596 140.687 26.908 140.279 27.5355C139.871 28.1629 139.665 29.1675 139.665 30.5492V35.1606C139.665 36.5218 139.871 37.5092 140.279 38.1229C140.687 38.7366 141.369 39.0417 142.329 39.0417Z" fill="white"/>
</g>
<mask id="mask34_593_2249" style="mask-type:luminance" maskUnits="userSpaceOnUse" x="-44" y="-30" width="251" height="125">
<path d="M206.999 -29.4854H-43.2285V94.2484H206.999V-29.4854Z" fill="white"/>
</mask>
<g mask="url(#mask34_593_2249)">
<path d="M154.76 39.912L150.276 27.6583V39.912H149.213V25.7246H150.646L155.24 38.2458V25.7246H156.303V39.912H154.76Z" fill="white"/>
</g>
</g>
<defs>
<clipPath id="clip0_593_2249">
<rect width="168.686" height="60" fill="white" transform="translate(0.314453)"/>
</clipPath>
</defs>
</svg>
