<svg width="138" height="20" viewBox="0 0 138 20" fill="none" xmlns="http://www.w3.org/2000/svg">
<g clip-path="url(#clip0_640_492)">
<mask id="mask0_640_492" style="mask-type:luminance" maskUnits="userSpaceOnUse" x="-8" y="-95" width="211" height="211">
<path d="M202.118 -94.9473H-7.68262V115.579H202.118V-94.9473Z" fill="white"/>
</mask>
<g mask="url(#mask0_640_492)">
<path d="M38.9833 17.2844H40.7708V17.5896H38.9833V19.3917H38.6476V17.5896H36.8601V17.2844H38.6476V15.4844H38.9833V17.2844Z" fill="white"/>
</g>
<mask id="mask1_640_492" style="mask-type:luminance" maskUnits="userSpaceOnUse" x="-8" y="-95" width="211" height="211">
<path d="M202.118 -94.9473H-7.68262V115.579H202.118V-94.9473Z" fill="white"/>
</mask>
<g mask="url(#mask1_640_492)">
<path d="M46.7416 16.1201L45.4912 19.8338H44.9394L43.9135 16.8759L42.8875 19.8338H42.3442L41.0938 16.1201H41.7273L42.6253 19.0864L43.626 16.1201H44.2114L45.2121 19.0864L46.1017 16.1201H46.7416Z" fill="white"/>
</g>
<mask id="mask2_640_492" style="mask-type:luminance" maskUnits="userSpaceOnUse" x="-8" y="-95" width="211" height="211">
<path d="M202.118 -94.9473H-7.68262V115.579H202.118V-94.9473Z" fill="white"/>
</mask>
<g mask="url(#mask2_640_492)">
<path d="M50.9232 17.9768C50.9232 19.1263 50.0819 19.9537 48.9196 19.9537C47.7657 19.9537 46.916 19.1263 46.916 17.9768C46.916 16.8274 47.7657 16 48.9196 16C50.0819 15.9979 50.9232 16.8274 50.9232 17.9768ZM47.5265 17.9768C47.5265 18.8295 48.1182 19.3832 48.9196 19.3832C49.7211 19.3832 50.3127 18.8274 50.3127 17.9768C50.3127 17.1242 49.719 16.5705 48.9196 16.5705C48.1182 16.5705 47.5265 17.1242 47.5265 17.9768Z" fill="white"/>
</g>
<mask id="mask3_640_492" style="mask-type:luminance" maskUnits="userSpaceOnUse" x="-8" y="-95" width="211" height="211">
<path d="M202.118 -94.9473H-7.68262V115.579H202.118V-94.9473Z" fill="white"/>
</mask>
<g mask="url(#mask3_640_492)">
<path d="M53.5561 16.6742H53.4428C52.6582 16.6742 52.2176 17.1731 52.2176 18.0889V19.8342H51.6406V16.1205H52.2176V16.9563H52.2323C52.3854 16.4026 52.8344 16.0068 53.4575 16.0068H53.554V16.6742H53.5561Z" fill="white"/>
</g>
<mask id="mask4_640_492" style="mask-type:luminance" maskUnits="userSpaceOnUse" x="-8" y="-95" width="211" height="211">
<path d="M202.118 -94.9473H-7.68262V115.579H202.118V-94.9473Z" fill="white"/>
</mask>
<g mask="url(#mask4_640_492)">
<path d="M54.6932 14.2061H54.1162V19.8334H54.6932V14.2061Z" fill="white"/>
</g>
<mask id="mask5_640_492" style="mask-type:luminance" maskUnits="userSpaceOnUse" x="-8" y="-95" width="211" height="211">
<path d="M202.118 -94.9473H-7.68262V115.579H202.118V-94.9473Z" fill="white"/>
</mask>
<g mask="url(#mask5_640_492)">
<path d="M55.4316 17.9766C55.4316 16.7471 56.2478 15.9997 57.2653 15.9997C57.9388 15.9997 58.4108 16.3134 58.6668 16.7787H58.6836V14.2061H59.2605V19.8334H58.6836V19.1745H58.6668C58.4108 19.6397 57.9367 19.9534 57.2653 19.9534C56.2478 19.9534 55.4316 19.2061 55.4316 17.9766ZM58.715 17.9766C58.715 17.1576 58.1863 16.5703 57.3765 16.5703C56.5667 16.5703 56.038 17.1576 56.038 17.9766C56.038 18.7976 56.5667 19.3829 57.3765 19.3829C58.1863 19.3829 58.715 18.7955 58.715 17.9766Z" fill="white"/>
</g>
<mask id="mask6_640_492" style="mask-type:luminance" maskUnits="userSpaceOnUse" x="-8" y="-95" width="211" height="211">
<path d="M202.118 -94.9473H-7.68262V115.579H202.118V-94.9473Z" fill="white"/>
</mask>
<g mask="url(#mask6_640_492)">
<path d="M23.7166 3.74316L23.1795 4.28211V5.44211C23.1795 5.46317 23.1795 5.48211 23.1795 5.50317C23.169 9.68001 20.0492 13.0737 16.2183 13.0737C12.3873 13.0737 9.26758 9.68001 9.25709 5.50317V4.28211L8.72 3.74316H0.5V19.8442H3.88829V7.14106H5.98839C6.74368 12.4169 11.0446 16.4737 16.2183 16.4737C21.392 16.4737 25.6929 12.419 26.4482 7.14106H28.5483V19.8442H31.9366V3.74316H23.7166Z" fill="white"/>
</g>
<mask id="mask7_640_492" style="mask-type:luminance" maskUnits="userSpaceOnUse" x="-8" y="-95" width="211" height="211">
<path d="M202.118 -94.9473H-7.68262V115.579H202.118V-94.9473Z" fill="white"/>
</mask>
<g mask="url(#mask7_640_492)">
<path d="M55.65 9.17502L57.1123 9.11607C57.3179 10.055 58.1928 10.5834 59.246 10.5834C60.211 10.5834 61.1468 10.1434 61.1468 9.49923C61.1468 9.02976 60.6495 8.70765 59.1012 8.3266C57.0263 7.82765 55.8849 7.09502 55.8849 5.89291C55.8849 4.60239 57.2004 3.69292 59.1872 3.69292C61.1447 3.69292 62.3153 4.74765 62.5776 5.98134L61.1447 6.06975C60.9684 5.45291 60.2971 5.01291 59.1872 5.01291C58.0753 5.01291 57.4039 5.42344 57.4039 5.98134C57.4039 6.50976 58.0459 6.62765 59.3613 7.00871C61.3775 7.50765 62.6636 7.94765 62.6636 9.3266C62.6636 10.9392 60.9097 11.8782 59.1851 11.8782C57.3158 11.874 55.8828 10.8171 55.65 9.17502ZM127.727 10.0255H123.286L127.845 4.92239V3.95397H121.385V5.47818H125.505L121.267 10.2003V11.5498H127.727V10.0255ZM115.452 11.874C112.968 11.874 111.184 10.1434 111.184 7.82555C111.184 5.48029 112.968 3.72029 115.422 3.72029C117.294 3.72029 119.515 4.92239 119.515 7.94344V8.2066H112.676C112.938 9.55607 113.962 10.5245 115.424 10.5245C116.331 10.5245 117.441 10.1434 117.791 9.32239H119.339C118.93 10.994 117.088 11.874 115.452 11.874ZM112.733 7.06344H117.965C117.615 5.83186 116.767 5.06975 115.422 5.06975C114.019 5.06975 113.142 5.89081 112.733 7.06344ZM131.323 8.03186V11.5519H129.804V0.406597H131.323V4.74765C131.762 4.16028 132.813 3.72029 133.895 3.72029C135.737 3.72029 137.548 4.92239 137.548 8.03186V11.5519H135.941V8.03186C135.941 6.21291 135.181 5.15818 133.69 5.15818C132.315 5.15607 131.323 6.06554 131.323 8.03186ZM101.099 7.82555C101.099 10.0255 102.912 11.874 105.161 11.874C106.155 11.874 107.236 11.5519 107.968 10.8761L108.027 11.6971H109.46V0.0234375H107.97V4.80449C107.152 4.07186 105.983 3.72029 105.106 3.72029C102.912 3.72029 101.099 5.53923 101.099 7.82555ZM107.968 7.82555C107.968 9.32239 106.974 10.495 105.337 10.495C103.789 10.495 102.736 9.32239 102.736 7.82555C102.736 6.24239 103.789 5.04028 105.337 5.04028C107.005 5.04028 107.968 6.36029 107.968 7.82555ZM87.9761 11.5519H89.5538V0.0255448H87.9761V11.5519ZM44.7172 7.06344H43.1983C43.1983 5.59607 42.2038 5.04028 41.2975 5.04028C40.538 5.04028 39.5142 5.59818 39.5142 7.06344V11.5498H37.9071V7.06344C37.9071 5.33291 39.2519 3.72029 41.2975 3.72029C43.3724 3.72029 44.7172 5.33291 44.7172 7.06344ZM45.8292 7.79607C45.8292 5.42134 47.7573 3.72029 50.0378 3.72029C52.3183 3.72029 54.1877 5.42134 54.3051 7.79607C54.3051 10.114 52.3183 11.8719 50.0378 11.8719C47.7573 11.874 45.8292 10.114 45.8292 7.79607ZM50.0378 10.495C51.6449 10.495 52.6687 9.23397 52.6687 7.79607C52.6687 6.27186 51.6449 5.06765 50.0378 5.06765C48.4895 5.06765 47.4069 6.24028 47.4069 7.79607C47.4069 9.23397 48.4874 10.495 50.0378 10.495ZM77.8637 7.82555C77.8637 5.48029 79.8505 3.74976 82.1604 3.74976C84.441 3.74976 86.3984 5.48029 86.3984 7.82555C86.3984 10.1729 84.441 11.874 82.1604 11.874C79.8505 11.874 77.8637 10.1729 77.8637 7.82555ZM82.1604 10.495C83.6794 10.495 84.7619 9.35186 84.7619 7.82555C84.7619 6.33081 83.6815 5.09712 82.1604 5.09712C80.5827 5.09712 79.5295 6.32871 79.5295 7.82555C79.5295 9.35186 80.5806 10.495 82.1604 10.495ZM91.1336 7.82555C91.1336 5.48029 93.091 3.74976 95.4009 3.74976C97.7675 3.74976 99.6977 5.48029 99.6977 7.82555C99.6977 10.1729 97.7675 11.874 95.4009 11.874C93.091 11.874 91.1336 10.1729 91.1336 7.82555ZM95.4009 10.495C96.9493 10.495 98.0319 9.35186 98.0319 7.82555C98.0319 6.33081 96.9493 5.09712 95.4009 5.09712C93.882 5.09712 92.7994 6.32871 92.7994 7.82555C92.7994 9.35186 93.8799 10.495 95.4009 10.495ZM71.0242 8.09081V11.5519H69.4465V8.09081C69.4465 6.15607 68.9786 5.09923 67.5751 5.09923C66.2302 5.09923 65.7624 6.1266 65.7624 8.09081V11.5519H64.1847V8.09081C64.1847 4.92239 65.3826 3.72029 67.5751 3.72029C68.8611 3.72029 69.65 4.18976 70.2353 5.04028C70.8207 4.18976 71.6095 3.72029 72.8662 3.72029C75.0293 3.72029 76.3154 4.95186 76.3154 8.09081V11.5519H74.6789V8.09081C74.6789 6.18344 74.2698 5.09923 72.8662 5.09923C71.492 5.09923 71.0242 6.18344 71.0242 8.09081Z" fill="white"/>
</g>
</g>
<defs>
<clipPath id="clip0_640_492">
<rect width="137" height="20" fill="white" transform="translate(0.5)"/>
</clipPath>
</defs>
</svg>
