<svg width="260" height="61" viewBox="0 0 260 61" fill="none" xmlns="http://www.w3.org/2000/svg">
<g clip-path="url(#clip0_700_502)">
<path d="M13.0548 29.405H15.2981C16.1793 29.4052 17.0394 29.1402 17.7631 28.6457C18.4867 28.1511 19.0393 27.4506 19.3467 26.6382L24.4759 13.0821V5.61534C24.4749 4.37729 23.9756 3.19002 23.0873 2.31308C22.199 1.43614 20.994 0.940869 19.7356 0.935547H1.31445V1.08456C2.33431 1.34505 3.23739 1.93131 3.88196 2.75133C4.52654 3.57135 4.87613 4.57872 4.87587 5.61534V55.9171C4.87543 56.9535 4.52557 57.9605 3.88111 58.7804C3.23664 59.6003 2.33396 60.1867 1.31445 60.4478V60.5969H19.7356C20.9975 60.5969 22.2078 60.1039 23.1005 59.2264C23.9932 58.3489 24.4953 57.1586 24.4964 55.9171V48.4826L19.3262 34.8983C19.0235 34.0857 18.4744 33.3842 17.7533 32.8887C17.0321 32.3931 16.1737 32.1274 15.294 32.1274H13.0548C12.6879 32.1274 12.3359 31.984 12.0765 31.7287C11.817 31.4735 11.6712 31.1272 11.6712 30.7662C11.6712 30.4052 11.817 30.0589 12.0765 29.8037C12.3359 29.5484 12.6879 29.405 13.0548 29.405Z" fill="#F8F7FF"/>
<path d="M19.7343 60.7808H1.31316C1.26393 60.7798 1.21708 60.7598 1.18265 60.7252C1.14822 60.6906 1.12894 60.644 1.12895 60.5956V60.4466C1.12862 60.406 1.14215 60.3664 1.16739 60.3343C1.19263 60.3022 1.22811 60.2793 1.26813 60.2694C2.24788 60.0179 3.11507 59.4535 3.73369 58.6649C4.3523 57.8763 4.68735 56.9079 4.68627 55.9118V5.61407C4.68714 4.61842 4.35194 3.65067 3.73329 2.86271C3.11464 2.07475 2.24755 1.5112 1.26813 1.2605C1.22811 1.25057 1.19263 1.22771 1.16739 1.19558C1.14215 1.16344 1.12862 1.1239 1.12895 1.0833V0.934282C1.12841 0.910145 1.13277 0.886146 1.14178 0.863691C1.15079 0.841236 1.16428 0.820779 1.18144 0.803521C1.1986 0.786263 1.21909 0.772553 1.24171 0.763194C1.26433 0.753836 1.28862 0.749017 1.31316 0.749023H19.7343C21.0458 0.750088 22.3034 1.26287 23.2312 2.1749C24.159 3.08692 24.6812 4.32374 24.6834 5.61407V13.0647C24.6877 13.086 24.6877 13.1079 24.6834 13.1291L19.5255 26.6852C19.2036 27.534 18.6265 28.2662 17.871 28.7842C17.1156 29.3022 16.2177 29.5815 15.2968 29.5849H13.0536C12.7354 29.5849 12.4304 29.7092 12.2054 29.9305C11.9805 30.1518 11.8541 30.452 11.8541 30.7649C11.8541 31.0779 11.9805 31.378 12.2054 31.5993C12.4304 31.8206 12.7354 31.945 13.0536 31.945H15.2968C16.2135 31.9487 17.1071 32.2275 17.8583 32.7442C18.6096 33.261 19.1826 33.9909 19.5009 34.8366L24.6466 48.4169C24.6501 48.4382 24.6501 48.46 24.6466 48.4813V55.9118C24.6455 57.1965 24.1288 58.4289 23.2089 59.3408C22.2889 60.2527 21.0401 60.7702 19.7343 60.7808ZM2.00088 60.4144H19.7343C20.9474 60.4122 22.1102 59.9372 22.968 59.0932C23.8259 58.2493 24.3087 57.1053 24.3109 55.9118V48.5175L19.153 34.9614C18.8621 34.1852 18.3367 33.5152 17.6473 33.0415C16.958 32.5678 16.1377 32.313 15.2968 32.3114H13.0536C12.6366 32.3114 12.2368 32.1485 11.942 31.8585C11.6472 31.5685 11.4816 31.1751 11.4816 30.7649C11.4816 30.3548 11.6472 29.9614 11.942 29.6714C12.2368 29.3814 12.6366 29.2184 13.0536 29.2184H15.2968C16.1391 29.2165 16.9607 28.9623 17.6525 28.4896C18.3443 28.0169 18.8734 27.3482 19.1694 26.5725L24.2945 13.0325V5.61407C24.2924 4.42372 23.8116 3.28255 22.9572 2.43971C22.1028 1.59687 20.9442 1.12083 19.7343 1.11551H1.98451C2.88937 1.48364 3.66291 2.10756 4.20724 2.90833C4.75156 3.70911 5.04222 4.65074 5.04242 5.61407V55.9118C5.04303 56.8758 4.75275 57.8183 4.20838 58.6199C3.664 59.4214 2.89002 60.046 1.98451 60.4144H2.00088Z" fill="white"/>
<path d="M32.6043 0.935054C31.5676 0.934811 30.5556 1.24639 29.7039 1.82801C28.8523 2.40963 28.2017 3.2335 27.8394 4.18916L24.4786 13.0493L19.3493 26.6216C19.042 27.434 18.4894 28.1345 17.7657 28.6291C17.042 29.1236 16.1819 29.3886 15.3008 29.3884H36.3295C37.2655 29.387 38.1787 29.1048 38.9475 28.5795C39.7162 28.0542 40.3038 27.3108 40.6319 26.4484L49.2652 3.68977C49.478 3.1047 49.8211 2.5739 50.2695 2.13626C50.7179 1.69862 51.2601 1.36525 51.8565 1.16059V0.918945L32.6043 0.935054Z" fill="#D7D0FF"/>
<path d="M36.3248 29.585H15.2961C15.2693 29.5889 15.242 29.5871 15.216 29.5797C15.19 29.5722 15.1659 29.5594 15.1454 29.542C15.1249 29.5246 15.1085 29.5031 15.0972 29.4789C15.0859 29.4547 15.0801 29.4283 15.0801 29.4017C15.0801 29.3751 15.0859 29.3488 15.0972 29.3246C15.1085 29.3003 15.1249 29.2788 15.1454 29.2614C15.1659 29.244 15.19 29.2312 15.216 29.2238C15.242 29.2164 15.2693 29.2146 15.2961 29.2185C16.1383 29.2165 16.96 28.9623 17.6518 28.4896C18.3435 28.017 18.8726 27.3483 19.1686 26.5725L27.6669 4.124C28.0442 3.13488 28.7187 2.28221 29.6005 1.67935C30.4824 1.0765 31.5299 0.75202 32.6037 0.749069H51.8436C51.8684 0.748519 51.8932 0.752934 51.9163 0.76205C51.9394 0.771165 51.9604 0.784791 51.978 0.802104C51.9956 0.819418 52.0094 0.840062 52.0187 0.862787C52.0279 0.885513 52.0324 0.909848 52.0319 0.934327V1.17597C52.0315 1.21419 52.019 1.25135 51.9963 1.28235C51.9736 1.31335 51.9417 1.33669 51.905 1.34915C51.336 1.54711 50.8185 1.8664 50.3897 2.28415C49.9608 2.70191 49.6311 3.20778 49.4243 3.76556L40.795 26.5282C40.4519 27.423 39.8409 28.1942 39.0427 28.74C38.2446 29.2858 37.2968 29.5805 36.3248 29.585ZM17.085 29.2185H36.3248C37.2221 29.2161 38.0975 28.9451 38.8345 28.4415C39.5716 27.938 40.1354 27.2257 40.4511 26.3993L49.0845 3.64071C49.2891 3.07975 49.6087 2.56614 50.0235 2.13176C50.4382 1.69738 50.9393 1.35149 51.4956 1.11556H32.6037C31.6054 1.11779 30.6315 1.41923 29.8117 1.97971C28.9918 2.5402 28.3651 3.33312 28.0148 4.25287L19.5247 26.6853C19.3121 27.2483 18.9861 27.7633 18.5661 28.1993C18.1461 28.6353 17.6409 28.9834 17.0809 29.2225L17.085 29.2185Z" fill="white"/>
<path d="M49.2449 57.8175L40.7467 35.3851C40.3821 34.4306 39.7311 33.6078 38.88 33.0259C38.029 32.4439 37.0181 32.1304 35.9817 32.127H15.2969C16.1758 32.1277 17.0334 32.3938 17.7537 32.8893C18.474 33.3848 19.0225 34.0859 19.325 34.8978L24.4747 48.4821L27.9542 57.6564C28.2813 58.5194 28.8687 59.2635 29.6376 59.789C30.4066 60.3144 31.3203 60.5961 32.2566 60.5964H51.8484V60.3547C51.2521 60.1452 50.7098 59.8094 50.2599 59.371C49.81 58.9325 49.4635 58.4022 49.2449 57.8175Z" fill="#CBC2FF"/>
<path d="M51.8534 60.7812H32.2615C31.2881 60.7778 30.3389 60.4832 29.5397 59.9365C28.7406 59.3898 28.1294 58.6169 27.7872 57.7204L19.1538 34.9618C18.863 34.1856 18.3375 33.5156 17.6482 33.0419C16.9588 32.5681 16.1386 32.3134 15.2977 32.3118C15.2481 32.3108 15.2008 32.2909 15.1657 32.2564C15.1306 32.2219 15.1104 32.1754 15.1094 32.1265C15.1104 32.0781 15.1308 32.032 15.166 31.9981C15.2012 31.9643 15.2484 31.9453 15.2977 31.9453H35.9825C37.0568 31.9486 38.1047 32.2731 38.9872 32.8759C39.8696 33.4786 40.5449 34.3311 40.9235 35.3202L49.4177 57.7687C49.629 58.3273 49.9625 58.8334 50.3948 59.251C50.827 59.6685 51.3473 59.9875 51.9189 60.1852C51.9555 60.1972 51.9872 60.2206 52.0093 60.2518C52.0315 60.283 52.0428 60.3203 52.0417 60.3583V60.6C52.0406 60.6484 52.0203 60.6945 51.9851 60.7284C51.9499 60.7623 51.9026 60.7812 51.8534 60.7812ZM17.0784 32.3118C17.6355 32.5486 18.1378 32.8947 18.5544 33.3288C18.9711 33.763 19.2934 34.2761 19.5018 34.837L28.1351 57.5915C28.4514 58.4176 29.0153 59.1296 29.7523 59.633C30.4892 60.1365 31.3643 60.4077 32.2615 60.4107H51.5013C50.9442 60.1734 50.4416 59.8278 50.0237 59.3945C49.6059 58.9613 49.2814 58.4494 49.0697 57.8896L40.5714 35.4491C40.2212 34.5294 39.5944 33.7364 38.7746 33.176C37.9548 32.6155 36.9809 32.314 35.9825 32.3118H17.0784Z" fill="white"/>
</g>
<path d="M65.768 20.2889C65.1109 20.2889 64.479 20.1823 63.8725 19.9692C63.2743 19.7475 62.811 19.4662 62.4824 19.1252L62.8489 18.3962C63.1606 18.7032 63.5776 18.9632 64.0999 19.1763C64.6307 19.3809 65.1867 19.4832 65.768 19.4832C66.324 19.4832 66.7747 19.415 67.1201 19.2786C67.4739 19.1337 67.7309 18.9419 67.8909 18.7032C68.0594 18.4644 68.1437 18.2001 68.1437 17.9103C68.1437 17.5607 68.0426 17.2794 67.8404 17.0662C67.6466 16.8531 67.3897 16.6869 67.0696 16.5675C66.7494 16.4396 66.3956 16.3288 66.0081 16.235C65.6205 16.1412 65.233 16.0432 64.8455 15.9409C64.458 15.83 64.0999 15.6851 63.7714 15.5061C63.4512 15.327 63.1901 15.0926 62.9879 14.8027C62.7941 14.5043 62.6972 14.1164 62.6972 13.639C62.6972 13.1956 62.811 12.7907 63.0384 12.4241C63.2743 12.0489 63.6324 11.7505 64.1126 11.5289C64.5928 11.2987 65.2077 11.1836 65.9575 11.1836C66.4546 11.1836 66.9474 11.2561 67.436 11.401C67.9246 11.5374 68.3459 11.7292 68.6997 11.9765L68.3838 12.731C68.0047 12.4752 67.6003 12.2877 67.1706 12.1683C66.7494 12.0489 66.3408 11.9893 65.9449 11.9893C65.4141 11.9893 64.9761 12.0617 64.6307 12.2067C64.2853 12.3516 64.0283 12.5477 63.8598 12.7949C63.6998 13.0336 63.6197 13.3065 63.6197 13.6134C63.6197 13.9629 63.7166 14.2443 63.9104 14.4574C64.1126 14.6706 64.3737 14.8368 64.6938 14.9562C65.0224 15.0755 65.3804 15.1821 65.768 15.2759C66.1555 15.3697 66.5388 15.472 66.9179 15.5828C67.3054 15.6936 67.6593 15.8386 67.9794 16.0176C68.3079 16.1881 68.5691 16.4183 68.7629 16.7082C68.9651 16.998 69.0662 17.3774 69.0662 17.8463C69.0662 18.2811 68.9482 18.6861 68.7123 19.0612C68.4764 19.4278 68.1142 19.7262 67.6256 19.9564C67.1454 20.1781 66.5262 20.2889 65.768 20.2889Z" fill="white"/>
<path d="M74.9199 20.2889C73.791 20.2889 72.9023 19.9607 72.2536 19.3042C71.6049 18.6477 71.2805 17.6758 71.2805 16.3885V11.2603H72.2157V16.3501C72.2157 17.4073 72.4515 18.1874 72.9233 18.6904C73.3951 19.1934 74.0606 19.4449 74.9199 19.4449C75.7876 19.4449 76.4574 19.1934 76.9292 18.6904C77.4009 18.1874 77.6368 17.4073 77.6368 16.3501V11.2603H78.5467V16.3885C78.5467 17.6758 78.2223 18.6477 77.5736 19.3042C76.9334 19.9607 76.0488 20.2889 74.9199 20.2889Z" fill="white"/>
<path d="M81.6173 20.2122V11.2603H84.9281C85.6779 11.2603 86.3224 11.3839 86.8615 11.6312C87.4007 11.8699 87.8135 12.2195 88.0999 12.6798C88.3948 13.1317 88.5422 13.6816 88.5422 14.3295C88.5422 14.9604 88.3948 15.5061 88.0999 15.9664C87.8135 16.4183 87.4007 16.7679 86.8615 17.0151C86.3224 17.2623 85.6779 17.386 84.9281 17.386H82.1354L82.5524 16.9384V20.2122H81.6173ZM82.5524 17.0151L82.1354 16.5547H84.9028C85.7874 16.5547 86.4571 16.3629 86.9121 15.9792C87.3754 15.5871 87.6071 15.0372 87.6071 14.3295C87.6071 13.6134 87.3754 13.0592 86.9121 12.667C86.4571 12.2749 85.7874 12.0788 84.9028 12.0788H82.1354L82.5524 11.6312V17.0151Z" fill="white"/>
<path d="M90.8169 20.2122V11.2603H94.1277C94.8775 11.2603 95.522 11.3839 96.0611 11.6312C96.6003 11.8699 97.0131 12.2195 97.2995 12.6798C97.5944 13.1317 97.7418 13.6816 97.7418 14.3295C97.7418 14.9604 97.5944 15.5061 97.2995 15.9664C97.0131 16.4183 96.6003 16.7679 96.0611 17.0151C95.522 17.2623 94.8775 17.386 94.1277 17.386H91.335L91.752 16.9384V20.2122H90.8169ZM91.752 17.0151L91.335 16.5547H94.1025C94.987 16.5547 95.6568 16.3629 96.1117 15.9792C96.575 15.5871 96.8067 15.0372 96.8067 14.3295C96.8067 13.6134 96.575 13.0592 96.1117 12.667C95.6568 12.2749 94.987 12.0788 94.1025 12.0788H91.335L91.752 11.6312V17.0151Z" fill="white"/>
<path d="M104.007 20.2889C103.341 20.2889 102.722 20.1781 102.149 19.9564C101.585 19.7262 101.092 19.4065 100.671 18.9973C100.258 18.5795 99.9335 18.0978 99.6977 17.5522C99.4702 16.998 99.3565 16.3927 99.3565 15.7363C99.3565 15.0798 99.4702 14.4787 99.6977 13.9331C99.9335 13.3789 100.258 12.8972 100.671 12.488C101.092 12.0703 101.585 11.7505 102.149 11.5289C102.714 11.2987 103.333 11.1836 104.007 11.1836C104.672 11.1836 105.287 11.2987 105.852 11.5289C106.416 11.7505 106.905 12.066 107.318 12.4752C107.739 12.8844 108.063 13.3661 108.291 13.9203C108.527 14.4745 108.644 15.0798 108.644 15.7363C108.644 16.3927 108.527 16.998 108.291 17.5522C108.063 18.1064 107.739 18.5881 107.318 18.9973C106.905 19.4065 106.416 19.7262 105.852 19.9564C105.287 20.1781 104.672 20.2889 104.007 20.2889ZM104.007 19.4449C104.538 19.4449 105.026 19.3554 105.473 19.1763C105.928 18.9888 106.319 18.7287 106.648 18.3962C106.985 18.0552 107.246 17.663 107.431 17.2197C107.617 16.7678 107.709 16.2734 107.709 15.7363C107.709 15.1991 107.617 14.7089 107.431 14.2656C107.246 13.8137 106.985 13.4216 106.648 13.0891C106.319 12.748 105.928 12.488 105.473 12.309C105.026 12.1214 104.538 12.0276 104.007 12.0276C103.476 12.0276 102.983 12.1214 102.528 12.309C102.073 12.488 101.677 12.748 101.34 13.0891C101.012 13.4216 100.751 13.8137 100.557 14.2656C100.372 14.7089 100.279 15.1991 100.279 15.7363C100.279 16.2648 100.372 16.7551 100.557 17.2069C100.751 17.6588 101.012 18.0552 101.34 18.3962C101.677 18.7287 102.073 18.9888 102.528 19.1763C102.983 19.3554 103.476 19.4449 104.007 19.4449Z" fill="white"/>
<path d="M110.993 20.2122V11.2603H114.304C115.054 11.2603 115.698 11.3839 116.237 11.6312C116.777 11.8699 117.189 12.2195 117.476 12.6798C117.771 13.1317 117.918 13.6816 117.918 14.3295C117.918 14.9604 117.771 15.5061 117.476 15.9664C117.189 16.4183 116.777 16.7679 116.237 17.0151C115.698 17.2538 115.054 17.3732 114.304 17.3732H111.511L111.928 16.9384V20.2122H110.993ZM117.034 20.2122L114.759 16.9639H115.77L118.057 20.2122H117.034ZM111.928 17.0151L111.511 16.5675H114.279C115.163 16.5675 115.833 16.3714 116.288 15.9792C116.751 15.5871 116.983 15.0372 116.983 14.3295C116.983 13.6134 116.751 13.0592 116.288 12.667C115.833 12.2749 115.163 12.0788 114.279 12.0788H111.511L111.928 11.6312V17.0151Z" fill="white"/>
<path d="M121.973 20.2122V12.0788H118.865V11.2603H126.017V12.0788H122.908V20.2122H121.973Z" fill="white"/>
<path d="M128.598 15.2631H133.273V16.0688H128.598V15.2631ZM128.699 19.3937H134.019V20.2122H127.764V11.2603H133.829V12.0788H128.699V19.3937Z" fill="white"/>
<path d="M136.47 20.2122V11.2603H140.071C141.015 11.2603 141.84 11.4521 142.548 11.8358C143.264 12.2109 143.82 12.7353 144.216 13.4088C144.612 14.0823 144.81 14.8581 144.81 15.7363C144.81 16.6144 144.612 17.3902 144.216 18.0637C143.82 18.7373 143.264 19.2658 142.548 19.6495C141.84 20.0246 141.015 20.2122 140.071 20.2122H136.47ZM137.405 19.3937H140.02C140.804 19.3937 141.482 19.2403 142.055 18.9333C142.636 18.6179 143.087 18.1874 143.407 17.6417C143.727 17.0876 143.887 16.4524 143.887 15.7363C143.887 15.0116 143.727 14.3764 143.407 13.8308C143.087 13.2851 142.636 12.8589 142.055 12.5519C141.482 12.2365 140.804 12.0788 140.02 12.0788H137.405V19.3937Z" fill="white"/>
<path d="M150.722 20.2122V11.2603H154.539C155.524 11.2603 156.287 11.4607 156.826 11.8614C157.373 12.2621 157.647 12.829 157.647 13.5622C157.647 14.0482 157.534 14.4574 157.306 14.7899C157.087 15.1224 156.784 15.3739 156.396 15.5444C156.017 15.7149 155.6 15.8002 155.145 15.8002L155.36 15.4933C155.924 15.4933 156.409 15.5828 156.813 15.7618C157.226 15.9323 157.546 16.1924 157.774 16.5419C158.001 16.8829 158.115 17.3092 158.115 17.8208C158.115 18.5795 157.837 19.1678 157.281 19.5856C156.733 20.0033 155.903 20.2122 154.791 20.2122H150.722ZM151.657 19.4321H154.779C155.554 19.4321 156.148 19.2999 156.561 19.0357C156.973 18.7628 157.18 18.3323 157.18 17.744C157.18 17.1643 156.973 16.7423 156.561 16.478C156.148 16.2052 155.554 16.0688 154.779 16.0688H151.556V15.2887H154.475C155.183 15.2887 155.731 15.1523 156.118 14.8794C156.514 14.6066 156.712 14.2016 156.712 13.6645C156.712 13.1189 156.514 12.7139 156.118 12.4496C155.731 12.1768 155.183 12.0404 154.475 12.0404H151.657V19.4321Z" fill="white"/>
<path d="M162.427 20.2122V16.8872L162.642 17.4755L158.889 11.2603H159.887L163.185 16.721H162.655L165.953 11.2603H166.888L163.135 17.4755L163.35 16.8872V20.2122H162.427Z" fill="white"/>
<path d="M62.9752 35.9517V26.6766H66.9424C67.7629 26.6766 68.4699 26.8136 69.0635 27.0874C69.657 27.3524 70.1153 27.7366 70.4382 28.2402C70.7612 28.7437 70.9227 29.3443 70.9227 30.0422C70.9227 30.7312 70.7612 31.3274 70.4382 31.8309C70.1153 32.3344 69.657 32.7231 69.0635 32.9969C68.4699 33.2619 67.7629 33.3944 66.9424 33.3944H64.1536L65.0963 32.4272V35.9517H62.9752ZM65.0963 32.6657L64.1536 31.6454H66.8246C67.4792 31.6454 67.968 31.5041 68.291 31.2214C68.6139 30.9388 68.7754 30.5457 68.7754 30.0422C68.7754 29.5298 68.6139 29.1323 68.291 28.8497C67.968 28.567 67.4792 28.4257 66.8246 28.4257H64.1536L65.0963 27.4054V32.6657Z" fill="white"/>
<path d="M72.4369 35.9517V26.6766H76.4041C77.2246 26.6766 77.9316 26.8136 78.5252 27.0874C79.1187 27.3524 79.577 27.7366 79.9 28.2402C80.2229 28.7437 80.3844 29.3443 80.3844 30.0422C80.3844 30.7312 80.2229 31.3274 79.9 31.8309C79.577 32.3256 79.1187 32.7054 78.5252 32.9704C77.9316 33.2354 77.2246 33.3679 76.4041 33.3679H73.6153L74.558 32.4272V35.9517H72.4369ZM78.2633 35.9517L75.9721 32.5862H78.2371L80.5546 35.9517H78.2633ZM74.558 32.6657L73.6153 31.6587H76.2863C76.9409 31.6587 77.4297 31.5173 77.7527 31.2347C78.0757 30.9432 78.2371 30.5457 78.2371 30.0422C78.2371 29.5298 78.0757 29.1323 77.7527 28.8497C77.4297 28.567 76.9409 28.4257 76.2863 28.4257H73.6153L74.558 27.4054V32.6657Z" fill="white"/>
<path d="M84.0158 30.4132H88.4281V32.0827H84.0158V30.4132ZM84.1729 34.2292H89.1613V35.9517H82.0649V26.6766H88.9911V28.3992H84.1729V34.2292Z" fill="white"/>
<path d="M93.8604 36.1107C93.1271 36.1107 92.4245 36.0136 91.7524 35.8192C91.0803 35.6161 90.5391 35.3555 90.1289 35.0375L90.849 33.4209C91.2418 33.7036 91.7044 33.9377 92.2368 34.1232C92.778 34.2999 93.3235 34.3882 93.8734 34.3882C94.2924 34.3882 94.6285 34.3485 94.8816 34.269C95.1435 34.1806 95.3355 34.0614 95.4577 33.9112C95.5799 33.761 95.641 33.5888 95.641 33.3944C95.641 33.1471 95.545 32.9528 95.353 32.8114C95.1609 32.6613 94.9078 32.542 94.5936 32.4537C94.2793 32.3565 93.9302 32.2682 93.5461 32.1887C93.1708 32.1004 92.7911 31.9944 92.407 31.8707C92.0317 31.747 91.6869 31.588 91.3727 31.3937C91.0585 31.1993 90.801 30.9432 90.6002 30.6252C90.4082 30.3072 90.3122 29.9008 90.3122 29.4062C90.3122 28.8762 90.4518 28.3947 90.7311 27.9619C91.0192 27.5202 91.4469 27.1713 92.0142 26.9151C92.5903 26.6501 93.3104 26.5176 94.1746 26.5176C94.7507 26.5176 95.318 26.5883 95.8767 26.7296C96.4353 26.8621 96.9285 27.0653 97.3562 27.3391L96.7015 28.9689C96.2738 28.7216 95.8461 28.5405 95.4184 28.4257C94.9907 28.302 94.5717 28.2402 94.1615 28.2402C93.7512 28.2402 93.4152 28.2887 93.1533 28.3859C92.8915 28.4831 92.7038 28.6112 92.5903 28.7702C92.4769 28.9203 92.4201 29.097 92.4201 29.3002C92.4201 29.5387 92.5161 29.733 92.7082 29.8832C92.9002 30.0245 93.1533 30.1393 93.4676 30.2277C93.7818 30.316 94.1266 30.4043 94.5019 30.4927C94.886 30.581 95.2657 30.6826 95.641 30.7974C96.0251 30.9123 96.3742 31.0668 96.6884 31.2612C97.0027 31.4555 97.2558 31.7117 97.4478 32.0297C97.6486 32.3477 97.749 32.7496 97.749 33.2354C97.749 33.7566 97.6049 34.2336 97.3169 34.6665C97.0289 35.0993 96.5968 35.4482 96.0207 35.7132C95.4533 35.9782 94.7332 36.1107 93.8604 36.1107Z" fill="white"/>
<path d="M99.1983 35.9517V26.6766H101.319V35.9517H99.1983Z" fill="white"/>
<path d="M103.494 35.9517V26.6766H107.658C108.653 26.6766 109.53 26.871 110.29 27.2596C111.049 27.6395 111.643 28.1739 112.07 28.8629C112.498 29.5519 112.712 30.369 112.712 31.3142C112.712 32.2505 112.498 33.0676 112.07 33.7655C111.643 34.4545 111.049 34.9933 110.29 35.382C109.53 35.7618 108.653 35.9517 107.658 35.9517H103.494ZM105.616 34.1895H107.553C108.164 34.1895 108.692 34.0746 109.138 33.845C109.591 33.6065 109.941 33.2708 110.185 32.8379C110.438 32.4051 110.565 31.8972 110.565 31.3142C110.565 30.7223 110.438 30.2144 110.185 29.7904C109.941 29.3576 109.591 29.0263 109.138 28.7967C108.692 28.5582 108.164 28.4389 107.553 28.4389H105.616V34.1895Z" fill="white"/>
<path d="M116.262 30.4132H120.675V32.0827H116.262V30.4132ZM116.419 34.2292H121.408V35.9517H114.312V26.6766H121.238V28.3992H116.419V34.2292Z" fill="white"/>
<path d="M123.096 35.9517V26.6766H124.85L130.257 33.3547H129.406V26.6766H131.501V35.9517H129.76L124.339 29.2737H125.19V35.9517H123.096Z" fill="white"/>
<path d="M135.568 35.9517V28.4257H132.635V26.6766H140.622V28.4257H137.689V35.9517H135.568Z" fill="white"/>
<path d="M141.763 35.9517V26.6766H143.884V35.9517H141.763Z" fill="white"/>
<path d="M144.855 35.9517L148.94 26.6766H151.035L155.133 35.9517H152.907L149.555 27.7631H150.393L147.028 35.9517H144.855ZM146.897 33.9642L147.46 32.3344H152.174L152.75 33.9642H146.897Z" fill="white"/>
<path d="M156.084 35.9517V26.6766H158.205V34.2027H162.8V35.9517H156.084Z" fill="white"/>
<path d="M169.658 30.8504H174.057V32.5729H169.658V30.8504ZM169.815 35.9517H167.694V26.6766H174.62V28.3992H169.815V35.9517Z" fill="white"/>
<path d="M180.418 36.1107C179.693 36.1107 179.021 35.9915 178.401 35.753C177.79 35.5145 177.258 35.1788 176.804 34.746C176.359 34.3131 176.01 33.8052 175.757 33.2222C175.512 32.6392 175.39 32.0032 175.39 31.3142C175.39 30.6252 175.512 29.9892 175.757 29.4062C176.01 28.8232 176.363 28.3152 176.817 27.8824C177.271 27.4496 177.804 27.1139 178.415 26.8754C179.026 26.6369 179.689 26.5176 180.405 26.5176C181.129 26.5176 181.793 26.6369 182.395 26.8754C183.006 27.1139 183.534 27.4496 183.979 27.8824C184.433 28.3152 184.787 28.8232 185.04 29.4062C185.293 29.9803 185.419 30.6163 185.419 31.3142C185.419 32.0032 185.293 32.6436 185.04 33.2354C184.787 33.8185 184.433 34.3264 183.979 34.7592C183.534 35.1832 183.006 35.5145 182.395 35.753C181.793 35.9915 181.134 36.1107 180.418 36.1107ZM180.405 34.2822C180.815 34.2822 181.19 34.2115 181.531 34.0702C181.88 33.9289 182.185 33.7257 182.447 33.4607C182.709 33.1957 182.91 32.8821 183.049 32.5199C183.198 32.1578 183.272 31.7559 183.272 31.3142C183.272 30.8725 183.198 30.4706 183.049 30.1084C182.91 29.7462 182.709 29.4327 182.447 29.1677C182.194 28.9027 181.893 28.6995 181.544 28.5582C181.195 28.4168 180.815 28.3462 180.405 28.3462C179.994 28.3462 179.615 28.4168 179.266 28.5582C178.925 28.6995 178.624 28.9027 178.362 29.1677C178.1 29.4327 177.895 29.7462 177.747 30.1084C177.607 30.4706 177.537 30.8725 177.537 31.3142C177.537 31.747 177.607 32.1489 177.747 32.5199C177.895 32.8821 178.096 33.1957 178.349 33.4607C178.611 33.7257 178.916 33.9289 179.266 34.0702C179.615 34.2115 179.994 34.2822 180.405 34.2822Z" fill="white"/>
<path d="M191.085 36.1107C189.785 36.1107 188.768 35.7441 188.035 35.011C187.301 34.2778 186.935 33.231 186.935 31.8707V26.6766H189.056V31.7912C189.056 32.6745 189.235 33.3105 189.593 33.6992C189.951 34.0879 190.452 34.2822 191.098 34.2822C191.744 34.2822 192.246 34.0879 192.604 33.6992C192.962 33.3105 193.141 32.6745 193.141 31.7912V26.6766H195.236V31.8707C195.236 33.231 194.869 34.2778 194.136 35.011C193.403 35.7441 192.386 36.1107 191.085 36.1107Z" fill="white"/>
<path d="M197.332 35.9517V26.6766H199.086L204.494 33.3547H203.643V26.6766H205.738V35.9517H203.996L198.576 29.2737H199.427V35.9517H197.332Z" fill="white"/>
<path d="M207.906 35.9517V26.6766H212.069C213.065 26.6766 213.942 26.871 214.701 27.2596C215.461 27.6395 216.054 28.1739 216.482 28.8629C216.91 29.5519 217.123 30.369 217.123 31.3142C217.123 32.2505 216.91 33.0676 216.482 33.7655C216.054 34.4545 215.461 34.9933 214.701 35.382C213.942 35.7618 213.065 35.9517 212.069 35.9517H207.906ZM210.027 34.1895H211.965C212.576 34.1895 213.104 34.0746 213.549 33.845C214.003 33.6065 214.352 33.2708 214.596 32.8379C214.85 32.4051 214.976 31.8972 214.976 31.3142C214.976 30.7223 214.85 30.2144 214.596 29.7904C214.352 29.3576 214.003 29.0263 213.549 28.7967C213.104 28.5582 212.576 28.4389 211.965 28.4389H210.027V34.1895Z" fill="white"/>
<path d="M217.391 35.9517L221.476 26.6766H223.57L227.669 35.9517H225.443L222.091 27.7631H222.929L219.564 35.9517H217.391ZM219.433 33.9642L219.996 32.3344H224.71L225.286 33.9642H219.433Z" fill="white"/>
<path d="M230.058 35.9517V28.4257H227.125V26.6766H235.112V28.4257H232.179V35.9517H230.058Z" fill="white"/>
<path d="M236.253 35.9517V26.6766H238.374V35.9517H236.253Z" fill="white"/>
<path d="M245.001 36.1107C244.276 36.1107 243.604 35.9915 242.984 35.753C242.373 35.5145 241.841 35.1788 241.387 34.746C240.942 34.3131 240.593 33.8052 240.339 33.2222C240.095 32.6392 239.973 32.0032 239.973 31.3142C239.973 30.6252 240.095 29.9892 240.339 29.4062C240.593 28.8232 240.946 28.3152 241.4 27.8824C241.854 27.4496 242.386 27.1139 242.997 26.8754C243.608 26.6369 244.272 26.5176 244.987 26.5176C245.712 26.5176 246.375 26.6369 246.978 26.8754C247.589 27.1139 248.117 27.4496 248.562 27.8824C249.016 28.3152 249.369 28.8232 249.622 29.4062C249.875 29.9803 250.002 30.6163 250.002 31.3142C250.002 32.0032 249.875 32.6436 249.622 33.2354C249.369 33.8185 249.016 34.3264 248.562 34.7592C248.117 35.1832 247.589 35.5145 246.978 35.753C246.375 35.9915 245.716 36.1107 245.001 36.1107ZM244.987 34.2822C245.398 34.2822 245.773 34.2115 246.113 34.0702C246.463 33.9289 246.768 33.7257 247.03 33.4607C247.292 33.1957 247.493 32.8821 247.632 32.5199C247.781 32.1578 247.855 31.7559 247.855 31.3142C247.855 30.8725 247.781 30.4706 247.632 30.1084C247.493 29.7462 247.292 29.4327 247.03 29.1677C246.777 28.9027 246.476 28.6995 246.127 28.5582C245.777 28.4168 245.398 28.3462 244.987 28.3462C244.577 28.3462 244.197 28.4168 243.848 28.5582C243.508 28.6995 243.207 28.9027 242.945 29.1677C242.683 29.4327 242.478 29.7462 242.33 30.1084C242.19 30.4706 242.12 30.8725 242.12 31.3142C242.12 31.747 242.19 32.1489 242.33 32.5199C242.478 32.8821 242.679 33.1957 242.932 33.4607C243.194 33.7257 243.499 33.9289 243.848 34.0702C244.197 34.2115 244.577 34.2822 244.987 34.2822Z" fill="white"/>
<path d="M251.596 35.9517V26.6766H253.351L258.758 33.3547H257.907V26.6766H260.002V35.9517H258.26L252.84 29.2737H253.691V35.9517H251.596Z" fill="white"/>
<path d="M64.9392 46.59H69.3384V48.3125H64.9392V46.59ZM65.0963 51.6913H62.9752V42.4162H69.9014V44.1387H65.0963V51.6913Z" fill="white"/>
<path d="M75.6995 51.8503C74.975 51.8503 74.3029 51.731 73.6831 51.4925C73.0721 51.254 72.5397 50.9183 72.0858 50.4855C71.6406 50.0527 71.2915 49.5447 71.0383 48.9617C70.7939 48.3787 70.6717 47.7427 70.6717 47.0537C70.6717 46.3647 70.7939 45.7287 71.0383 45.1457C71.2915 44.5627 71.645 44.0548 72.0989 43.6219C72.5528 43.1891 73.0852 42.8534 73.6962 42.6149C74.3072 42.3764 74.9706 42.2572 75.6864 42.2572C76.4108 42.2572 77.0742 42.3764 77.6765 42.6149C78.2875 42.8534 78.8156 43.1891 79.2607 43.6219C79.7146 44.0548 80.0681 44.5627 80.3213 45.1457C80.5744 45.7199 80.701 46.3559 80.701 47.0537C80.701 47.7427 80.5744 48.3831 80.3213 48.975C80.0681 49.558 79.7146 50.0659 79.2607 50.4987C78.8156 50.9228 78.2875 51.254 77.6765 51.4925C77.0742 51.731 76.4152 51.8503 75.6995 51.8503ZM75.6864 50.0217C76.0966 50.0217 76.4719 49.9511 76.8124 49.8097C77.1615 49.6684 77.467 49.4652 77.7289 49.2002C77.9907 48.9352 78.1915 48.6216 78.3311 48.2595C78.4795 47.8973 78.5537 47.4954 78.5537 47.0537C78.5537 46.612 78.4795 46.2101 78.3311 45.848C78.1915 45.4858 77.9907 45.1722 77.7289 44.9072C77.4757 44.6422 77.1746 44.439 76.8254 44.2977C76.4763 44.1564 76.0966 44.0857 75.6864 44.0857C75.2761 44.0857 74.8964 44.1564 74.5473 44.2977C74.2069 44.439 73.9057 44.6422 73.6439 44.9072C73.382 45.1722 73.1769 45.4858 73.0285 45.848C72.8888 46.2101 72.819 46.612 72.819 47.0537C72.819 47.4866 72.8888 47.8885 73.0285 48.2595C73.1769 48.6216 73.3776 48.9352 73.6308 49.2002C73.8926 49.4652 74.1981 49.6684 74.5473 49.8097C74.8964 49.9511 75.2761 50.0217 75.6864 50.0217Z" fill="white"/>
<path d="M82.295 51.6913V42.4162H86.2622C87.0827 42.4162 87.7897 42.5531 88.3833 42.8269C88.9768 43.0919 89.4351 43.4762 89.7581 43.9797C90.081 44.4832 90.2425 45.0839 90.2425 45.7817C90.2425 46.4707 90.081 47.067 89.7581 47.5705C89.4351 48.0651 88.9768 48.445 88.3833 48.71C87.7897 48.975 87.0827 49.1075 86.2622 49.1075H83.4734L84.4161 48.1667V51.6913H82.295ZM88.1214 51.6913L85.8302 48.3257H88.0952L90.4127 51.6913H88.1214ZM84.4161 48.4052L83.4734 47.3982H86.1444C86.799 47.3982 87.2878 47.2569 87.6108 46.9742C87.9338 46.6827 88.0952 46.2852 88.0952 45.7817C88.0952 45.2694 87.9338 44.8719 87.6108 44.5892C87.2878 44.3065 86.799 44.1652 86.1444 44.1652H83.4734L84.4161 43.1449V48.4052Z" fill="white"/>
<path d="M100.017 51.8503C99.3101 51.8503 98.6511 51.7354 98.0401 51.5058C97.4378 51.2673 96.9141 50.9316 96.4689 50.4987C96.0238 50.0659 95.6746 49.558 95.4215 48.975C95.1771 48.392 95.0549 47.7516 95.0549 47.0537C95.0549 46.3559 95.1771 45.7155 95.4215 45.1325C95.6746 44.5494 96.0238 44.0415 96.4689 43.6087C96.9228 43.1758 97.4509 42.8446 98.0532 42.6149C98.6555 42.3764 99.3145 42.2572 100.03 42.2572C100.825 42.2572 101.54 42.3985 102.177 42.6812C102.823 42.955 103.365 43.3613 103.801 43.9002L102.439 45.1722C102.125 44.81 101.776 44.5406 101.392 44.3639C101.008 44.1784 100.589 44.0857 100.135 44.0857C99.7073 44.0857 99.3145 44.1564 98.9566 44.2977C98.5987 44.439 98.2888 44.6422 98.027 44.9072C97.7651 45.1722 97.56 45.4858 97.4116 45.848C97.272 46.2101 97.2021 46.612 97.2021 47.0537C97.2021 47.4954 97.272 47.8973 97.4116 48.2595C97.56 48.6216 97.7651 48.9352 98.027 49.2002C98.2888 49.4652 98.5987 49.6684 98.9566 49.8097C99.3145 49.9511 99.7073 50.0217 100.135 50.0217C100.589 50.0217 101.008 49.9334 101.392 49.7567C101.776 49.5712 102.125 49.293 102.439 48.922L103.801 50.194C103.365 50.7328 102.823 51.1436 102.177 51.4263C101.54 51.7089 100.82 51.8503 100.017 51.8503Z" fill="white"/>
<path d="M109.254 51.8503C107.954 51.8503 106.937 51.4837 106.203 50.7505C105.47 50.0173 105.104 48.9706 105.104 47.6102V42.4162H107.225V47.5307C107.225 48.4141 107.404 49.0501 107.762 49.4387C108.119 49.8274 108.621 50.0217 109.267 50.0217C109.913 50.0217 110.415 49.8274 110.773 49.4387C111.131 49.0501 111.31 48.4141 111.31 47.5307V42.4162H113.405V47.6102C113.405 48.9706 113.038 50.0173 112.305 50.7505C111.572 51.4837 110.555 51.8503 109.254 51.8503Z" fill="white"/>
<path d="M115.501 51.6913V42.4162H117.622V49.9422H122.217V51.6913H115.501Z" fill="white"/>
<path d="M124.444 51.6913V44.1652H121.511V42.4162H129.498V44.1652H126.565V51.6913H124.444Z" fill="white"/>
<path d="M134.558 51.8503C133.257 51.8503 132.24 51.4837 131.507 50.7505C130.774 50.0173 130.407 48.9706 130.407 47.6102V42.4162H132.528V47.5307C132.528 48.4141 132.707 49.0501 133.065 49.4387C133.423 49.8274 133.925 50.0217 134.571 50.0217C135.217 50.0217 135.719 49.8274 136.077 49.4387C136.435 49.0501 136.613 48.4141 136.613 47.5307V42.4162H138.708V47.6102C138.708 48.9706 138.342 50.0173 137.609 50.7505C136.875 51.4837 135.858 51.8503 134.558 51.8503Z" fill="white"/>
<path d="M140.804 51.6913V42.4162H144.772C145.592 42.4162 146.299 42.5531 146.893 42.8269C147.486 43.0919 147.944 43.4762 148.267 43.9797C148.59 44.4832 148.752 45.0839 148.752 45.7817C148.752 46.4707 148.59 47.067 148.267 47.5705C147.944 48.0651 147.486 48.445 146.893 48.71C146.299 48.975 145.592 49.1075 144.772 49.1075H141.983L142.925 48.1667V51.6913H140.804ZM146.631 51.6913L144.339 48.3257H146.605L148.922 51.6913H146.631ZM142.925 48.4052L141.983 47.3982H144.654C145.308 47.3982 145.797 47.2569 146.12 46.9742C146.443 46.6827 146.605 46.2852 146.605 45.7817C146.605 45.2694 146.443 44.8719 146.12 44.5892C145.797 44.3065 145.308 44.1652 144.654 44.1652H141.983L142.925 43.1449V48.4052Z" fill="white"/>
<path d="M149.228 51.6913L153.313 42.4162H155.408L159.506 51.6913H157.28L153.928 43.5027H154.766L151.401 51.6913H149.228ZM151.27 49.7037L151.833 48.074H156.547L157.123 49.7037H151.27Z" fill="white"/>
<path d="M160.457 51.6913V42.4162H162.578V49.9422H167.173V51.6913H160.457Z" fill="white"/>
<path d="M172.066 51.6913V42.4162H174.187V51.6913H172.066Z" fill="white"/>
<path d="M176.363 51.6913V42.4162H178.117L183.524 49.0942H182.673V42.4162H184.768V51.6913H183.027L177.606 45.0132H178.457V51.6913H176.363Z" fill="white"/>
<path d="M186.937 51.6913V42.4162H189.058V51.6913H186.937Z" fill="white"/>
<path d="M193.131 51.6913V44.1652H190.198V42.4162H198.185V44.1652H195.252V51.6913H193.131Z" fill="white"/>
<path d="M199.326 51.6913V42.4162H201.447V51.6913H199.326Z" fill="white"/>
<path d="M202.418 51.6913L206.503 42.4162H208.598L212.696 51.6913H210.47L207.118 43.5027H207.956L204.591 51.6913H202.418ZM204.461 49.7037L205.024 48.074H209.737L210.313 49.7037H204.461Z" fill="white"/>
<path d="M215.085 51.6913V44.1652H212.152V42.4162H220.139V44.1652H217.206V51.6913H215.085Z" fill="white"/>
<path d="M221.28 51.6913V42.4162H223.401V51.6913H221.28Z" fill="white"/>
<path d="M228.288 51.6913L224.333 42.4162H226.625L230.081 50.6312H228.733L232.242 42.4162H234.35L230.382 51.6913H228.288Z" fill="white"/>
<path d="M237.066 46.1527H241.478V47.8222H237.066V46.1527ZM237.223 49.9687H242.211V51.6913H235.115V42.4162H242.041V44.1387H237.223V49.9687Z" fill="white"/>
<path d="M246.91 51.8503C246.177 51.8503 245.474 51.7531 244.802 51.5588C244.13 51.3556 243.589 51.095 243.179 50.777L243.899 49.1605C244.292 49.4432 244.754 49.6772 245.287 49.8627C245.828 50.0394 246.373 50.1277 246.923 50.1277C247.342 50.1277 247.678 50.088 247.932 50.0085C248.193 49.9202 248.385 49.8009 248.508 49.6507C248.63 49.5006 248.691 49.3283 248.691 49.134C248.691 48.8866 248.595 48.6923 248.403 48.551C248.211 48.4008 247.958 48.2816 247.643 48.1932C247.329 48.0961 246.98 48.0077 246.596 47.9282C246.221 47.8399 245.841 47.7339 245.457 47.6102C245.082 47.4866 244.737 47.3275 244.423 47.1332C244.108 46.9389 243.851 46.6827 243.65 46.3647C243.458 46.0467 243.362 45.6404 243.362 45.1457C243.362 44.6157 243.502 44.1343 243.781 43.7014C244.069 43.2598 244.497 42.9108 245.064 42.6547C245.64 42.3897 246.36 42.2572 247.224 42.2572C247.801 42.2572 248.368 42.3278 248.927 42.4692C249.485 42.6017 249.978 42.8048 250.406 43.0787L249.751 44.7084C249.324 44.4611 248.896 44.28 248.468 44.1652C248.041 44.0415 247.622 43.9797 247.211 43.9797C246.801 43.9797 246.465 44.0283 246.203 44.1254C245.941 44.2226 245.754 44.3507 245.64 44.5097C245.527 44.6599 245.47 44.8365 245.47 45.0397C245.47 45.2782 245.566 45.4725 245.758 45.6227C245.95 45.764 246.203 45.8789 246.517 45.9672C246.832 46.0555 247.176 46.1439 247.552 46.2322C247.936 46.3205 248.316 46.4221 248.691 46.537C249.075 46.6518 249.424 46.8064 249.738 47.0007C250.053 47.195 250.306 47.4512 250.498 47.7692C250.698 48.0872 250.799 48.4891 250.799 48.975C250.799 49.4962 250.655 49.9732 250.367 50.406C250.079 50.8388 249.647 51.1878 249.071 51.4528C248.503 51.7178 247.783 51.8503 246.91 51.8503Z" fill="white"/>
<defs>
<clipPath id="clip0_700_502">
<rect width="52.4031" height="61" fill="white"/>
</clipPath>
</defs>
</svg>
