<svg width="85" height="30" viewBox="0 0 85 30" fill="none" xmlns="http://www.w3.org/2000/svg">
<g clip-path="url(#clip0_593_1360)">
<mask id="mask0_593_1360" style="mask-type:luminance" maskUnits="userSpaceOnUse" x="-22" y="-15" width="126" height="63">
<path d="M103.999 -14.7432H-21.1143V47.1237H103.999V-14.7432Z" fill="white"/>
</mask>
<g mask="url(#mask0_593_1360)">
<path d="M0.931423 29.251H9.95542C10.1337 29.251 10.2794 29.3967 10.2794 29.575C10.2794 29.7533 10.1337 29.899 9.95542 29.899H0.931423C0.751423 29.899 0.607422 29.7533 0.607422 29.575C0.607422 29.3967 0.753137 29.251 0.931423 29.251Z" fill="white"/>
</g>
<mask id="mask1_593_1360" style="mask-type:luminance" maskUnits="userSpaceOnUse" x="-22" y="-15" width="126" height="63">
<path d="M103.999 -14.7432H-21.1143V47.1237H103.999V-14.7432Z" fill="white"/>
</mask>
<g mask="url(#mask1_593_1360)">
<path d="M1.17455 24.1544L9.88312 26.5201C10.0563 26.5664 10.1574 26.7447 10.1111 26.9178C10.0648 27.091 9.88655 27.1921 9.71341 27.1458L1.00483 24.7801C0.831692 24.7338 0.730549 24.5555 0.776835 24.3824C0.82312 24.2092 1.00141 24.1064 1.17455 24.1544Z" fill="white"/>
</g>
<mask id="mask2_593_1360" style="mask-type:luminance" maskUnits="userSpaceOnUse" x="-22" y="-15" width="126" height="63">
<path d="M103.999 -14.7432H-21.1143V47.1237H103.999V-14.7432Z" fill="white"/>
</mask>
<g mask="url(#mask2_593_1360)">
<path d="M1.87236 18.336L9.3775 23.3503C9.52665 23.4497 9.56608 23.6503 9.46665 23.7994C9.36722 23.9485 9.16665 23.988 9.01751 23.8885L1.51408 18.876C1.36493 18.7765 1.3255 18.5743 1.42493 18.4268C1.52265 18.276 1.72322 18.2365 1.87236 18.336Z" fill="white"/>
</g>
<mask id="mask3_593_1360" style="mask-type:luminance" maskUnits="userSpaceOnUse" x="-22" y="-15" width="126" height="63">
<path d="M103.999 -14.7432H-21.1143V47.1237H103.999V-14.7432Z" fill="white"/>
</mask>
<g mask="url(#mask3_593_1360)">
<path d="M2.90313 11.6281L8.01513 19.0646C8.11627 19.2121 8.07856 19.4143 7.93113 19.5155C7.7837 19.6166 7.58142 19.5789 7.48027 19.4315L2.36827 11.9949C2.26713 11.8475 2.30484 11.6452 2.45227 11.5441C2.5997 11.4429 2.80199 11.4806 2.90313 11.6281Z" fill="white"/>
</g>
<mask id="mask4_593_1360" style="mask-type:luminance" maskUnits="userSpaceOnUse" x="-22" y="-15" width="126" height="63">
<path d="M103.999 -14.7432H-21.1143V47.1237H103.999V-14.7432Z" fill="white"/>
</mask>
<g mask="url(#mask4_593_1360)">
<path d="M6.61076 6.31045L8.83591 15.0567C8.88048 15.2299 8.77591 15.4065 8.60276 15.451C8.42962 15.4956 8.25305 15.3893 8.20848 15.2162L5.98334 6.46988C5.94048 6.29674 6.04333 6.12017 6.21819 6.0756C6.38962 6.03102 6.56619 6.13731 6.61076 6.31045Z" fill="white"/>
</g>
<mask id="mask5_593_1360" style="mask-type:luminance" maskUnits="userSpaceOnUse" x="-22" y="-15" width="126" height="63">
<path d="M103.999 -14.7432H-21.1143V47.1237H103.999V-14.7432Z" fill="white"/>
</mask>
<g mask="url(#mask5_593_1360)">
<path d="M10.9442 0.345499L10.9185 9.3695C10.9185 9.54779 10.7728 9.6935 10.5928 9.69178C10.4145 9.69178 10.2688 9.54607 10.2705 9.36778L10.2945 0.343786C10.2945 0.1655 10.4402 0.0197851 10.6202 0.0214993C10.8002 0.0197851 10.9442 0.165499 10.9442 0.345499Z" fill="white"/>
</g>
<mask id="mask6_593_1360" style="mask-type:luminance" maskUnits="userSpaceOnUse" x="-22" y="-15" width="126" height="63">
<path d="M103.999 -14.7432H-21.1143V47.1237H103.999V-14.7432Z" fill="white"/>
</mask>
<g mask="url(#mask6_593_1360)">
<path d="M19.0482 9.06977C19.0482 9.32348 18.8356 9.53434 18.5836 9.53434H17.8962C17.6425 9.53434 17.4316 9.32177 17.4316 9.06977V2.92063C17.4316 2.66863 17.6442 2.45605 17.8962 2.45605H21.0608C21.3145 2.45605 21.5254 2.66863 21.5254 2.92063V3.50691C21.5254 3.76063 21.3128 3.9732 21.0608 3.9732H19.0482V5.46977H20.7574C21.0111 5.46977 21.2219 5.68234 21.2219 5.93434V6.52063C21.2219 6.77434 21.0094 6.9852 20.7574 6.9852H19.0482V9.06977Z" fill="white"/>
</g>
<mask id="mask7_593_1360" style="mask-type:luminance" maskUnits="userSpaceOnUse" x="-22" y="-15" width="126" height="63">
<path d="M103.999 -14.7432H-21.1143V47.1237H103.999V-14.7432Z" fill="white"/>
</mask>
<g mask="url(#mask7_593_1360)">
<path d="M26.2209 2.33496C28.3757 2.33496 29.9837 3.74068 29.9837 5.99668C29.9837 8.14125 28.3757 9.65839 26.2209 9.65839C24.066 9.65839 22.458 8.25268 22.458 5.99668C22.458 3.94296 23.9666 2.33496 26.2209 2.33496ZM26.2209 8.14125C27.5666 8.14125 28.2643 7.18982 28.2643 5.99668C28.2643 4.70239 27.3643 3.8521 26.2209 3.8521C25.0483 3.8521 24.1774 4.70068 24.1774 5.99668C24.1774 7.21039 25.0877 8.14125 26.2209 8.14125Z" fill="white"/>
</g>
<mask id="mask8_593_1360" style="mask-type:luminance" maskUnits="userSpaceOnUse" x="-22" y="-15" width="126" height="63">
<path d="M103.999 -14.7432H-21.1143V47.1237H103.999V-14.7432Z" fill="white"/>
</mask>
<g mask="url(#mask8_593_1360)">
<path d="M35.5586 2.92063C35.5586 2.66863 35.7712 2.45605 36.0232 2.45605H36.7106C36.9626 2.45605 37.1752 2.66863 37.1752 2.92063V6.6132C37.1752 8.77663 35.8004 9.65777 34.2832 9.65777C32.4626 9.65777 31.1992 8.61548 31.1992 6.54291V2.92234C31.1992 2.67034 31.4118 2.45777 31.6638 2.45777H32.3512C32.6032 2.45777 32.8158 2.67034 32.8158 2.92234V6.20005C32.8158 7.30234 33.1501 8.14234 34.2832 8.14234C35.2638 8.14234 35.5569 7.42405 35.5569 6.29091V2.92063H35.5586Z" fill="white"/>
</g>
<mask id="mask9_593_1360" style="mask-type:luminance" maskUnits="userSpaceOnUse" x="-22" y="-15" width="126" height="63">
<path d="M103.999 -14.7432H-21.1143V47.1237H103.999V-14.7432Z" fill="white"/>
</mask>
<g mask="url(#mask9_593_1360)">
<path d="M44.399 2.45679C44.651 2.45679 44.8636 2.66936 44.8636 2.92136V9.07051C44.8636 9.32422 44.651 9.53508 44.399 9.53508H43.9241C43.7116 9.53508 43.4784 9.42365 43.3481 9.25222L40.2127 5.28708V9.06879C40.2127 9.32251 40.0001 9.53336 39.7481 9.53336H39.1618C38.9081 9.53336 38.6973 9.32079 38.6973 9.06879V2.91965C38.6973 2.66765 38.9098 2.45508 39.1618 2.45508H39.6367C39.8493 2.45508 40.0807 2.56651 40.2127 2.73794L43.3481 6.72194V2.91965C43.3481 2.66765 43.5607 2.45508 43.8144 2.45508H44.399V2.45679Z" fill="white"/>
</g>
<mask id="mask10_593_1360" style="mask-type:luminance" maskUnits="userSpaceOnUse" x="-22" y="-15" width="126" height="63">
<path d="M103.999 -14.7432H-21.1143V47.1237H103.999V-14.7432Z" fill="white"/>
</mask>
<g mask="url(#mask10_593_1360)">
<path d="M48.7208 2.42578C51.5528 2.42578 52.6945 4.05435 52.6945 5.93492C52.6945 7.91835 51.3385 9.5555 48.6385 9.5555C48.3351 9.5555 47.6579 9.54521 46.9499 9.53492C46.6962 9.53492 46.4854 9.32235 46.4854 9.06007V2.9315C46.4854 2.66921 46.6979 2.45664 46.9499 2.45664C47.5465 2.44635 48.3659 2.42578 48.7208 2.42578ZM48.1036 8.0195C48.3162 8.04007 48.4568 8.04007 48.6899 8.04007C50.0854 8.04007 50.9751 7.28235 50.9751 5.93664C50.9751 4.63207 50.0151 3.94464 48.7002 3.94464C48.5288 3.94464 48.3059 3.94464 48.1036 3.9755V8.0195Z" fill="white"/>
</g>
<mask id="mask11_593_1360" style="mask-type:luminance" maskUnits="userSpaceOnUse" x="-22" y="-15" width="126" height="63">
<path d="M103.999 -14.7432H-21.1143V47.1237H103.999V-14.7432Z" fill="white"/>
</mask>
<g mask="url(#mask11_593_1360)">
<path d="M55.0533 8.04805L54.5973 9.20177C54.5167 9.40405 54.3247 9.53605 54.1121 9.53605H53.495C53.2413 9.53605 53.0596 9.32348 53.0596 9.10062C53.0596 9.04062 53.0699 8.97891 53.0904 8.9292L55.6396 2.79034C55.7304 2.58805 55.9224 2.45605 56.135 2.45605H56.8739C57.0864 2.45605 57.2784 2.58805 57.3693 2.79034L59.9184 8.9292C59.939 8.97891 59.9493 9.04062 59.9493 9.10062C59.9493 9.32348 59.7676 9.53605 59.5139 9.53605H58.7956C58.583 9.53605 58.391 9.40405 58.3104 9.20177L57.8561 8.04805H55.0533ZM55.6601 6.53263H57.2476L56.459 4.53034L55.6601 6.53263Z" fill="white"/>
</g>
<mask id="mask12_593_1360" style="mask-type:luminance" maskUnits="userSpaceOnUse" x="-22" y="-15" width="126" height="63">
<path d="M103.999 -14.7432H-21.1143V47.1237H103.999V-14.7432Z" fill="white"/>
</mask>
<g mask="url(#mask12_593_1360)">
<path d="M62.2958 9.5363C62.0438 9.5363 61.8313 9.32372 61.8313 9.07172V3.97515H60.1736C59.9216 3.97515 59.709 3.76258 59.709 3.50887V2.92258C59.709 2.67058 59.9216 2.45801 60.1736 2.45801H65.109C65.361 2.45801 65.5736 2.67058 65.5736 2.92258V3.50887C65.5736 3.76258 65.361 3.97515 65.109 3.97515H63.4496V9.07172C63.4496 9.32544 63.237 9.5363 62.985 9.5363H62.2958Z" fill="white"/>
</g>
<mask id="mask13_593_1360" style="mask-type:luminance" maskUnits="userSpaceOnUse" x="-22" y="-15" width="126" height="63">
<path d="M103.999 -14.7432H-21.1143V47.1237H103.999V-14.7432Z" fill="white"/>
</mask>
<g mask="url(#mask13_593_1360)">
<path d="M68.5072 9.06977C68.5072 9.32348 68.2946 9.53434 68.0426 9.53434H67.3552C67.1015 9.53434 66.8906 9.32177 66.8906 9.06977V2.92063C66.8906 2.66863 67.1032 2.45605 67.3552 2.45605H68.0426C68.2963 2.45605 68.5072 2.66863 68.5072 2.92063V9.06977Z" fill="white"/>
</g>
<mask id="mask14_593_1360" style="mask-type:luminance" maskUnits="userSpaceOnUse" x="-22" y="-15" width="126" height="63">
<path d="M103.999 -14.7432H-21.1143V47.1237H103.999V-14.7432Z" fill="white"/>
</mask>
<g mask="url(#mask14_593_1360)">
<path d="M73.6857 2.33496C75.8406 2.33496 77.4486 3.74068 77.4486 5.99668C77.4486 8.14125 75.8406 9.65839 73.6857 9.65839C71.5309 9.65839 69.9229 8.25268 69.9229 5.99668C69.9246 3.94296 71.4314 2.33496 73.6857 2.33496ZM73.6857 8.14125C75.0314 8.14125 75.7291 7.18982 75.7291 5.99668C75.7291 4.70239 74.8291 3.8521 73.6857 3.8521C72.5131 3.8521 71.6423 4.70068 71.6423 5.99668C71.644 7.21039 72.5543 8.14125 73.6857 8.14125Z" fill="white"/>
</g>
<mask id="mask15_593_1360" style="mask-type:luminance" maskUnits="userSpaceOnUse" x="-22" y="-15" width="126" height="63">
<path d="M103.999 -14.7432H-21.1143V47.1237H103.999V-14.7432Z" fill="white"/>
</mask>
<g mask="url(#mask15_593_1360)">
<path d="M84.4703 2.45679C84.7223 2.45679 84.9348 2.66936 84.9348 2.92136V9.07051C84.9348 9.32422 84.7223 9.53508 84.4703 9.53508H83.9954C83.7828 9.53508 83.5497 9.42365 83.4194 9.25222L80.284 5.28708V9.06879C80.284 9.32251 80.0714 9.53336 79.8194 9.53336H79.2331C78.9794 9.53336 78.7686 9.32079 78.7686 9.06879V2.91965C78.7686 2.66765 78.9811 2.45508 79.2331 2.45508H79.708C79.9206 2.45508 80.152 2.56651 80.284 2.73794L83.4194 6.72194V2.91965C83.4194 2.66765 83.632 2.45508 83.8857 2.45508H84.4703V2.45679Z" fill="white"/>
</g>
<mask id="mask16_593_1360" style="mask-type:luminance" maskUnits="userSpaceOnUse" x="-22" y="-15" width="126" height="63">
<path d="M103.999 -14.7432H-21.1143V47.1237H103.999V-14.7432Z" fill="white"/>
</mask>
<g mask="url(#mask16_593_1360)">
<path d="M17.8022 28.1382C17.893 27.9959 18.0353 27.9256 18.1759 27.9256C18.2873 27.9256 18.3885 27.9565 18.4896 28.0267C18.9045 28.2993 19.3896 28.5016 19.765 28.5016C20.1902 28.5016 20.4319 28.289 20.4319 27.9547C20.4319 26.8919 17.4782 27.0239 17.4782 24.7387C17.4782 23.6467 18.3473 22.6953 19.765 22.6953C20.4936 22.6953 21.0079 22.8376 21.5136 23.1599C21.6456 23.2405 21.7056 23.4033 21.7056 23.5542C21.7056 23.6347 21.685 23.7256 21.6456 23.7976L21.3816 24.2433C21.2805 24.4045 21.1382 24.4867 20.977 24.4867C20.8965 24.4867 20.7953 24.4559 20.7045 24.4062C20.461 24.2845 20.1988 24.2142 19.9056 24.2142C19.4616 24.2142 19.1976 24.4165 19.1976 24.7405C19.1976 25.913 22.1513 25.6302 22.1513 27.9359C22.1513 29.1702 21.0885 30.0187 19.7239 30.0187C19.0159 30.0187 18.2685 29.7462 17.5793 29.2096C17.4782 29.129 17.4268 28.9867 17.4268 28.8547C17.4268 28.7433 17.4473 28.6422 17.5073 28.5616L17.8022 28.1382Z" fill="white"/>
</g>
<mask id="mask17_593_1360" style="mask-type:luminance" maskUnits="userSpaceOnUse" x="-22" y="-15" width="126" height="63">
<path d="M103.999 -14.7432H-21.1143V47.1237H103.999V-14.7432Z" fill="white"/>
</mask>
<g mask="url(#mask17_593_1360)">
<path d="M27.5528 23.2849C27.5528 23.0329 27.7654 22.8203 28.0174 22.8203H28.7048C28.9568 22.8203 29.1694 23.0329 29.1694 23.2849V26.9775C29.1694 29.1409 27.7945 30.022 26.2774 30.022C24.4568 30.022 23.1934 28.9797 23.1934 26.9072V23.2866C23.1934 23.0346 23.4059 22.822 23.6579 22.822H24.3454C24.5974 22.822 24.8099 23.0346 24.8099 23.2866V26.5643C24.8099 27.6666 25.1442 28.5066 26.2774 28.5066C27.2579 28.5066 27.5511 27.7883 27.5511 26.6552V23.2849H27.5528Z" fill="white"/>
</g>
<mask id="mask18_593_1360" style="mask-type:luminance" maskUnits="userSpaceOnUse" x="-22" y="-15" width="126" height="63">
<path d="M103.999 -14.7432H-21.1143V47.1237H103.999V-14.7432Z" fill="white"/>
</mask>
<g mask="url(#mask18_593_1360)">
<path d="M35.5939 25.1449C35.5939 26.4084 34.6133 27.5209 32.9745 27.5209C32.8219 27.5209 32.4379 27.5209 32.1859 27.4918V29.4341C32.1859 29.6878 31.9733 29.8987 31.7213 29.8987H31.0339C30.7802 29.8987 30.5693 29.6861 30.5693 29.4341V23.2952C30.5693 23.0329 30.7819 22.8204 31.0339 22.8204C31.5705 22.8101 32.3385 22.7998 32.7328 22.7998C34.8859 22.7998 35.5939 23.9209 35.5939 25.1449ZM32.1859 25.9541C32.4191 25.9849 32.6916 26.0055 32.9231 26.0055C33.3482 26.0055 33.8745 25.8238 33.8745 25.1364C33.8745 24.5089 33.4699 24.3169 32.8939 24.3169C32.6813 24.3169 32.5202 24.3272 32.1859 24.3375V25.9541Z" fill="white"/>
</g>
<mask id="mask19_593_1360" style="mask-type:luminance" maskUnits="userSpaceOnUse" x="-22" y="-15" width="126" height="63">
<path d="M103.999 -14.7432H-21.1143V47.1237H103.999V-14.7432Z" fill="white"/>
</mask>
<g mask="url(#mask19_593_1360)">
<path d="M41.8752 25.1449C41.8752 26.4084 40.8946 27.5209 39.2557 27.5209C39.1032 27.5209 38.7192 27.5209 38.4672 27.4918V29.4341C38.4672 29.6878 38.2546 29.8987 38.0026 29.8987H37.3152C37.0614 29.8987 36.8506 29.6861 36.8506 29.4341V23.2952C36.8506 23.0329 37.0632 22.8204 37.3152 22.8204C37.8517 22.8101 38.6197 22.7998 39.014 22.7998C41.1672 22.7998 41.8752 23.9209 41.8752 25.1449ZM38.4672 25.9541C38.7003 25.9849 38.9729 26.0055 39.2043 26.0055C39.6294 26.0055 40.1557 25.8238 40.1557 25.1364C40.1557 24.5089 39.7512 24.3169 39.1752 24.3169C38.9626 24.3169 38.8014 24.3272 38.4672 24.3375V25.9541Z" fill="white"/>
</g>
<mask id="mask20_593_1360" style="mask-type:luminance" maskUnits="userSpaceOnUse" x="-22" y="-15" width="126" height="63">
<path d="M103.999 -14.7432H-21.1143V47.1237H103.999V-14.7432Z" fill="white"/>
</mask>
<g mask="url(#mask20_593_1360)">
<path d="M46.5724 22.6973C48.7273 22.6973 50.3353 24.103 50.3353 26.359C50.3353 28.5036 48.7273 30.0207 46.5724 30.0207C44.4176 30.0207 42.8096 28.615 42.8096 26.359C42.8113 24.307 44.3181 22.6973 46.5724 22.6973ZM46.5724 28.5036C47.9181 28.5036 48.6159 27.5521 48.6159 26.359C48.6159 25.0647 47.7159 24.2144 46.5724 24.2144C45.3999 24.2144 44.529 25.063 44.529 26.359C44.5307 27.5727 45.4393 28.5036 46.5724 28.5036Z" fill="white"/>
</g>
<mask id="mask21_593_1360" style="mask-type:luminance" maskUnits="userSpaceOnUse" x="-22" y="-15" width="126" height="63">
<path d="M103.999 -14.7432H-21.1143V47.1237H103.999V-14.7432Z" fill="white"/>
</mask>
<g mask="url(#mask21_593_1360)">
<path d="M53.7756 27.4215H53.1791V29.4341C53.1791 29.6878 52.9665 29.8987 52.7145 29.8987H52.0271C51.7734 29.8987 51.5625 29.6861 51.5625 29.4341V23.2849C51.5625 23.0329 51.7751 22.8204 52.0271 22.8204C52.7145 22.8101 53.8168 22.7998 53.9694 22.7998C55.9014 22.7998 56.5888 23.7598 56.5888 25.0644C56.5888 26.3792 55.7796 26.9158 55.3956 27.1078L56.9539 29.2112C57.0139 29.2918 57.0448 29.3827 57.0448 29.4632C57.0448 29.6861 56.8631 29.8987 56.6008 29.8987H55.8534C55.6408 29.8987 55.4179 29.7872 55.2962 29.6055L53.7756 27.4215ZM53.7654 25.9044C54.3825 25.9044 54.8676 25.6815 54.8676 25.0849C54.8676 24.6907 54.6654 24.3169 53.8871 24.3169C53.6436 24.3169 53.5134 24.3272 53.1791 24.3375V25.9044H53.7654Z" fill="white"/>
</g>
<mask id="mask22_593_1360" style="mask-type:luminance" maskUnits="userSpaceOnUse" x="-22" y="-15" width="126" height="63">
<path d="M103.999 -14.7432H-21.1143V47.1237H103.999V-14.7432Z" fill="white"/>
</mask>
<g mask="url(#mask22_593_1360)">
<path d="M60.1415 29.8986C59.8895 29.8986 59.677 29.686 59.677 29.434V24.3375H58.0193C57.7673 24.3375 57.5547 24.1249 57.5547 23.8712V23.2849C57.5547 23.0329 57.7673 22.8203 58.0193 22.8203H62.9547C63.2067 22.8203 63.4193 23.0329 63.4193 23.2849V23.8712C63.4193 24.1249 63.2067 24.3375 62.9547 24.3375H61.2953V29.434C61.2953 29.6877 61.0827 29.8986 60.8307 29.8986H60.1415Z" fill="white"/>
</g>
<mask id="mask23_593_1360" style="mask-type:luminance" maskUnits="userSpaceOnUse" x="-22" y="-15" width="126" height="63">
<path d="M103.999 -14.7432H-21.1143V47.1237H103.999V-14.7432Z" fill="white"/>
</mask>
<g mask="url(#mask23_593_1360)">
<path d="M17.3818 19.956V12.8623H21.0607V13.3852H17.9664V16.5686H20.5378V17.0914H17.9664V19.956H17.3818Z" fill="white"/>
</g>
<mask id="mask24_593_1360" style="mask-type:luminance" maskUnits="userSpaceOnUse" x="-22" y="-15" width="126" height="63">
<path d="M103.999 -14.7432H-21.1143V47.1237H103.999V-14.7432Z" fill="white"/>
</mask>
<g mask="url(#mask24_593_1360)">
<path d="M23.7916 20.0432C23.159 20.0432 22.6807 19.8358 22.3584 19.4175C22.0361 19.001 21.875 18.3838 21.875 17.5678V15.2792C21.875 14.4512 22.0379 13.8272 22.3636 13.4038C22.6893 12.9804 23.1676 12.7695 23.8001 12.7695C24.4327 12.7695 24.9076 12.9804 25.2281 13.4038C25.547 13.8255 25.7064 14.4512 25.7064 15.2792V17.5678C25.7064 18.3838 25.5453 18.9992 25.223 19.4175C24.9007 19.8358 24.4241 20.0432 23.7916 20.0432ZM23.7916 19.5204C24.2699 19.5204 24.611 19.3661 24.815 19.0592C25.019 18.7524 25.1219 18.2587 25.1219 17.5781V15.2741C25.1219 14.5832 25.0207 14.081 24.815 13.7672C24.611 13.4535 24.2699 13.2975 23.7916 13.2975C23.3133 13.2975 22.9704 13.4535 22.7664 13.7672C22.5624 14.081 22.4596 14.5832 22.4596 15.2741V17.5798C22.4596 18.2604 22.5624 18.7541 22.7664 19.061C22.9704 19.3678 23.3133 19.5204 23.7916 19.5204Z" fill="white"/>
</g>
<mask id="mask25_593_1360" style="mask-type:luminance" maskUnits="userSpaceOnUse" x="-22" y="-15" width="126" height="63">
<path d="M103.999 -14.7432H-21.1143V47.1237H103.999V-14.7432Z" fill="white"/>
</mask>
<g mask="url(#mask25_593_1360)">
<path d="M27.818 19.956H27.2334V12.8623H29.3797C29.9643 12.8623 30.4014 13.02 30.6911 13.3372C30.9808 13.6543 31.1265 14.1189 31.1265 14.7343V15.2846C31.1265 15.852 31.0083 16.2926 30.7717 16.6063C30.5351 16.92 30.1837 17.1017 29.7174 17.1549L31.2157 19.9577H30.5677L29.0694 17.1737H27.8197V19.956H27.818ZM27.818 16.6577H29.3608C29.7808 16.6577 30.0825 16.5497 30.2694 16.3337C30.4563 16.1177 30.5488 15.7646 30.5488 15.2743V14.7514C30.5488 14.268 30.4563 13.9166 30.2694 13.7006C30.0825 13.4846 29.7791 13.3766 29.3608 13.3766H27.818V16.6577Z" fill="white"/>
</g>
<mask id="mask26_593_1360" style="mask-type:luminance" maskUnits="userSpaceOnUse" x="-22" y="-15" width="126" height="63">
<path d="M103.999 -14.7432H-21.1143V47.1237H103.999V-14.7432Z" fill="white"/>
</mask>
<g mask="url(#mask26_593_1360)">
<path d="M37.4835 19.956L36.9246 17.784H34.8143L34.2469 19.956H33.6709L35.5943 12.8623H36.1532L38.0955 19.956H37.4835ZM36.7909 17.2594L35.8686 13.704L34.9463 17.2594H36.7909Z" fill="white"/>
</g>
<mask id="mask27_593_1360" style="mask-type:luminance" maskUnits="userSpaceOnUse" x="-22" y="-15" width="126" height="63">
<path d="M103.999 -14.7432H-21.1143V47.1237H103.999V-14.7432Z" fill="white"/>
</mask>
<g mask="url(#mask27_593_1360)">
<path d="M42.21 19.956L39.966 13.8292V19.956H39.4346V12.8623H40.1529L42.4483 19.1229V12.8623H42.9797V19.956H42.21Z" fill="white"/>
</g>
<mask id="mask28_593_1360" style="mask-type:luminance" maskUnits="userSpaceOnUse" x="-22" y="-15" width="126" height="63">
<path d="M103.999 -14.7432H-21.1143V47.1237H103.999V-14.7432Z" fill="white"/>
</mask>
<g mask="url(#mask28_593_1360)">
<path d="M44.5391 19.956V19.4332H46.0202V13.3852H44.5391V12.8623H48.0859V13.3852H46.6048V19.4332H48.0859V19.956H44.5391Z" fill="white"/>
</g>
<mask id="mask29_593_1360" style="mask-type:luminance" maskUnits="userSpaceOnUse" x="-22" y="-15" width="126" height="63">
<path d="M103.999 -14.7432H-21.1143V47.1237H103.999V-14.7432Z" fill="white"/>
</mask>
<g mask="url(#mask29_593_1360)">
<path d="M51.2683 18.2006L50.0615 13.8549V19.956H49.5215V12.8623H50.2826L51.5598 17.4737L52.8283 12.8623H53.5638V19.956H53.0238V13.8634L51.8169 18.2006H51.2683Z" fill="white"/>
</g>
<mask id="mask30_593_1360" style="mask-type:luminance" maskUnits="userSpaceOnUse" x="-22" y="-15" width="126" height="63">
<path d="M103.999 -14.7432H-21.1143V47.1237H103.999V-14.7432Z" fill="white"/>
</mask>
<g mask="url(#mask30_593_1360)">
<path d="M58.5919 19.956L58.033 17.784H55.9227L55.3553 19.956H54.7793L56.7027 12.8623H57.2616L59.2039 19.956H58.5919ZM57.901 17.2594L56.9787 13.704L56.0564 17.2594H57.901Z" fill="white"/>
</g>
<mask id="mask31_593_1360" style="mask-type:luminance" maskUnits="userSpaceOnUse" x="-22" y="-15" width="126" height="63">
<path d="M103.999 -14.7432H-21.1143V47.1237H103.999V-14.7432Z" fill="white"/>
</mask>
<g mask="url(#mask31_593_1360)">
<path d="M61.1067 19.956V13.3852H59.2793V12.8623H63.5273V13.3852H61.6913V19.956H61.1067Z" fill="white"/>
</g>
<mask id="mask32_593_1360" style="mask-type:luminance" maskUnits="userSpaceOnUse" x="-22" y="-15" width="126" height="63">
<path d="M103.999 -14.7432H-21.1143V47.1237H103.999V-14.7432Z" fill="white"/>
</mask>
<g mask="url(#mask32_593_1360)">
<path d="M64.9082 19.956V19.4332H66.3893V13.3852H64.9082V12.8623H68.4551V13.3852H66.9756V19.4332H68.4551V19.956H64.9082Z" fill="white"/>
</g>
<mask id="mask33_593_1360" style="mask-type:luminance" maskUnits="userSpaceOnUse" x="-22" y="-15" width="126" height="63">
<path d="M103.999 -14.7432H-21.1143V47.1237H103.999V-14.7432Z" fill="white"/>
</mask>
<g mask="url(#mask33_593_1360)">
<path d="M71.6646 20.0432C71.032 20.0432 70.5538 19.8358 70.2315 19.4175C69.9092 19.001 69.748 18.3838 69.748 17.5678V15.2792C69.748 14.4512 69.9109 13.8272 70.2366 13.4038C70.5623 12.9804 71.0406 12.7695 71.6732 12.7695C72.3058 12.7695 72.7806 12.9804 73.1012 13.4038C73.42 13.8255 73.5795 14.4512 73.5795 15.2792V17.5678C73.5795 18.3838 73.4183 18.9992 73.096 19.4175C72.7738 19.8358 72.2972 20.0432 71.6646 20.0432ZM71.6646 19.5204C72.1429 19.5204 72.484 19.3661 72.688 19.0592C72.892 18.7524 72.9949 18.2587 72.9949 17.5781V15.2741C72.9949 14.5832 72.8938 14.081 72.688 13.7672C72.484 13.4535 72.1429 13.2975 71.6646 13.2975C71.1863 13.2975 70.8435 13.4535 70.6395 13.7672C70.4355 14.081 70.3326 14.5832 70.3326 15.2741V17.5798C70.3326 18.2604 70.4355 18.7541 70.6395 19.061C70.8435 19.3678 71.1846 19.5204 71.6646 19.5204Z" fill="white"/>
</g>
<mask id="mask34_593_1360" style="mask-type:luminance" maskUnits="userSpaceOnUse" x="-22" y="-15" width="126" height="63">
<path d="M103.999 -14.7432H-21.1143V47.1237H103.999V-14.7432Z" fill="white"/>
</mask>
<g mask="url(#mask34_593_1360)">
<path d="M77.8802 19.956L75.6379 13.8292V19.956H75.1064V12.8623H75.823L78.1202 19.1229V12.8623H78.6516V19.956H77.8802Z" fill="white"/>
</g>
</g>
<defs>
<clipPath id="clip0_593_1360">
<rect width="84.3429" height="30" fill="white" transform="translate(0.657227)"/>
</clipPath>
</defs>
</svg>
