<svg width="142" height="60" viewBox="0 0 142 60" fill="none" xmlns="http://www.w3.org/2000/svg">
<g clip-path="url(#clip0_692_3599)">
<path d="M44.1446 11.5707L35.5613 20.1117C35.3641 20.308 35.2995 20.6031 35.4071 20.8589C35.9881 22.2342 36.3001 23.7487 36.275 25.3406C36.1817 31.1535 31.5028 35.979 25.6678 36.2646C19.0594 36.5882 13.632 31.194 13.944 24.6196C14.219 18.8411 19.0151 14.1857 24.8262 14.0442C26.409 14.0061 27.9164 14.2976 29.2912 14.852C29.5458 14.9543 29.8387 14.8877 30.0336 14.6949L38.636 6.1337C39.2672 5.50434 39.1524 4.45024 38.3945 3.97792C34.391 1.48427 29.6307 0.0827776 24.5333 0.195801C11.2758 0.488472 0.446241 11.1555 0.0266395 24.3471C-0.433608 38.7808 11.4181 50.5757 25.9212 50.1177C39.2038 49.6977 49.933 38.8772 50.19 25.6534C50.2892 20.5543 48.8499 15.7954 46.306 11.8039C45.829 11.0556 44.7746 10.9437 44.1446 11.5707Z" fill="white"/>
<path d="M64.9595 35.034C63.4927 34.6104 62.314 34.0596 61.4258 33.3815L62.9858 29.9348C63.8382 30.5559 64.8495 31.0556 66.0235 31.4315C67.1962 31.8086 68.3701 31.9966 69.5429 31.9966C70.8495 31.9966 71.8142 31.8039 72.4382 31.4172C73.0635 31.0318 73.3755 30.5178 73.3755 29.8777C73.3755 29.4078 73.1902 29.0164 72.822 28.7059C72.4526 28.3953 71.9792 28.1455 71.403 27.9575C70.8256 27.7695 70.045 27.5613 69.0611 27.3353C67.5465 26.9784 66.308 26.6203 65.3421 26.2622C64.3773 25.9052 63.5489 25.3294 62.8591 24.5394C62.1682 23.7483 61.8227 22.6942 61.8227 21.3748C61.8227 20.2267 62.1347 19.1857 62.7587 18.2542C63.3839 17.3214 64.3247 16.5826 65.5835 16.0365C66.8412 15.4904 68.3797 15.2168 70.1968 15.2168C71.464 15.2168 72.7036 15.3679 73.9146 15.6689C75.1256 15.9699 76.1848 16.4029 77.0933 16.9681L75.6743 20.4432C73.8381 19.407 72.0031 18.8895 70.1681 18.8895C68.8806 18.8895 67.9302 19.0965 67.3158 19.5117C66.7001 19.9245 66.3929 20.4718 66.3929 21.1499C66.3929 21.8269 66.7479 22.3313 67.4568 22.6609C68.1669 22.9904 69.25 23.3152 70.7072 23.6353C72.2207 23.9934 73.4603 24.3515 74.4251 24.7084C75.391 25.0665 76.2182 25.6316 76.9092 26.4037C77.6002 27.1759 77.9457 28.2216 77.9457 29.5398C77.9457 30.6689 77.6277 31.7004 76.9941 32.6319C76.3605 33.5647 75.4089 34.3035 74.1418 34.8496C72.8734 35.3957 71.3313 35.6693 69.5154 35.6693C67.9446 35.6693 66.4251 35.4575 64.9595 35.034Z" fill="white"/>
<path d="M80.7833 20.1344H85.2112V35.3319H80.7833V20.1344ZM81.0104 17.3088C80.4988 16.8389 80.2441 16.2547 80.2441 15.5576C80.2441 14.8604 80.4988 14.2774 81.0104 13.8063C81.5209 13.3352 82.1832 13.0996 82.9973 13.0996C83.8102 13.0996 84.4736 13.3268 84.9841 13.7778C85.4945 14.2298 85.7504 14.795 85.7504 15.4731C85.7504 16.2072 85.4945 16.8151 84.9841 17.2946C84.4736 17.7752 83.8102 18.0155 82.9973 18.0155C82.1832 18.0155 81.5209 17.78 81.0104 17.3088Z" fill="white"/>
<path d="M95.6999 20.4721C96.5988 20.0962 97.6353 19.9082 98.808 19.9082V23.9759C98.3167 23.9378 97.9856 23.9188 97.8146 23.9188C96.5474 23.9188 95.554 24.2721 94.8344 24.9788C94.1147 25.6855 93.7561 26.7443 93.7561 28.1565V35.3317H89.3281V20.1343H93.5576V22.1401C94.0872 21.4049 94.8009 20.8505 95.6999 20.4721Z" fill="white"/>
<path d="M101.563 20.1344H105.991V35.3319H101.563V20.1344ZM101.79 17.3088C101.278 16.8389 101.023 16.2547 101.023 15.5576C101.023 14.8604 101.278 14.2774 101.79 13.8063C102.3 13.3352 102.962 13.0996 103.777 13.0996C104.589 13.0996 105.252 13.3268 105.763 13.7778C106.274 14.2298 106.53 14.795 106.53 15.4731C106.53 16.2072 106.274 16.8151 105.763 17.2946C105.252 17.7752 104.589 18.0155 103.777 18.0155C102.962 18.0155 102.3 17.78 101.79 17.3088Z" fill="white"/>
<path d="M125.49 20.1328V35.3303H121.289V33.5231C120.702 34.1822 120.002 34.6855 119.189 35.0341C118.375 35.3815 117.495 35.5564 116.548 35.5564C114.543 35.5564 112.953 34.9817 111.779 33.8324C110.606 32.6844 110.02 30.9795 110.02 28.7202V20.1328H114.447V28.0706C114.447 30.5191 115.479 31.7433 117.541 31.7433C118.602 31.7433 119.453 31.3995 120.096 30.7118C120.739 30.0242 121.062 29.0022 121.062 27.6471V20.1328H125.49Z" fill="white"/>
<path d="M131.024 35.0914C129.812 34.7809 128.847 34.3895 128.129 33.9195L129.605 30.7561C130.285 31.1891 131.109 31.5425 132.074 31.8149C133.04 32.0874 133.985 32.2242 134.913 32.2242C136.786 32.2242 137.722 31.7638 137.722 30.8405C137.722 30.4075 137.468 30.097 136.956 29.9078C136.446 29.7198 135.66 29.5592 134.6 29.4272C133.352 29.2404 132.32 29.0227 131.506 28.7776C130.693 28.5337 129.988 28.0994 129.391 27.4784C128.796 26.8574 128.498 25.9722 128.498 24.8229C128.498 23.8628 128.777 23.011 129.335 22.2674C129.893 21.5227 130.706 20.9433 131.776 20.5292C132.845 20.1152 134.109 19.9082 135.566 19.9082C136.644 19.9082 137.718 20.026 138.788 20.2604C139.856 20.4959 140.741 20.8219 141.441 21.2359L139.965 24.3708C138.621 23.6178 137.156 23.2406 135.566 23.2406C134.619 23.2406 133.909 23.3739 133.437 23.6368C132.963 23.8997 132.727 24.24 132.727 24.654C132.727 25.1251 132.982 25.4547 133.494 25.6427C134.005 25.8306 134.817 26.0091 135.934 26.1792C137.183 26.3862 138.205 26.6075 139 26.8431C139.795 27.0787 140.485 27.5069 141.072 28.128C141.659 28.7502 141.952 29.6163 141.952 30.7275C141.952 31.6686 141.669 32.5073 141.101 33.2414C140.533 33.9755 139.704 34.5453 138.617 34.9498C137.529 35.3555 136.238 35.5578 134.742 35.5578C133.474 35.5578 132.234 35.4019 131.024 35.0914Z" fill="white"/>
<path d="M106.663 59.4558H106.35V43.7324H106.663V59.4558Z" fill="white"/>
<path d="M111.798 45.0371C111.691 45.1489 111.639 45.3143 111.639 45.5356V45.9532H112.734V46.3565H111.652V49.4938H111.172V46.3565H110.535V45.9532H111.172V45.5154C111.172 45.1918 111.266 44.936 111.452 44.748C111.64 44.5588 111.904 44.4648 112.247 44.4648C112.382 44.4648 112.512 44.4839 112.639 44.522C112.766 44.56 112.871 44.6147 112.957 44.6861L112.795 45.0442C112.655 44.9265 112.479 44.8682 112.267 44.8682C112.059 44.8682 111.903 44.9241 111.798 45.0371Z" fill="white"/>
<path d="M116.419 47.871H113.443C113.47 48.2398 113.612 48.536 113.869 48.7633C114.126 48.9905 114.45 49.1035 114.843 49.1035C115.064 49.1035 115.267 49.0631 115.452 48.9846C115.637 48.9072 115.797 48.7906 115.932 48.6383L116.203 48.9489C116.045 49.1368 115.848 49.2796 115.611 49.3795C115.374 49.4783 115.114 49.5271 114.83 49.5271C114.464 49.5271 114.142 49.4497 113.858 49.2951C113.577 49.1392 113.357 48.9263 113.2 48.6526C113.042 48.3778 112.963 48.0685 112.963 47.7234C112.963 47.3772 113.038 47.0679 113.189 46.7943C113.339 46.5206 113.547 46.3065 113.812 46.1542C114.076 46.0019 114.372 45.9258 114.701 45.9258C115.031 45.9258 115.325 46.0019 115.587 46.1542C115.849 46.3065 116.054 46.5183 116.203 46.7907C116.352 47.062 116.426 47.3725 116.426 47.7234L116.419 47.871ZM113.838 46.6622C113.606 46.8799 113.475 47.1643 113.443 47.5141H115.966C115.935 47.1643 115.802 46.8799 115.57 46.6622C115.338 46.4457 115.048 46.3362 114.701 46.3362C114.358 46.3362 114.071 46.4457 113.838 46.6622Z" fill="white"/>
<path d="M120.655 44.498V49.4937H120.195V48.7929C120.051 49.0309 119.861 49.2129 119.624 49.339C119.387 49.4639 119.119 49.527 118.822 49.527C118.488 49.527 118.186 49.4509 117.916 49.2986C117.644 49.1463 117.433 48.9321 117.28 48.6585C117.127 48.3849 117.049 48.0732 117.049 47.7234C117.049 47.3724 117.127 47.0607 117.28 46.7871C117.433 46.5134 117.644 46.3017 117.916 46.1506C118.186 46.0007 118.488 45.9257 118.822 45.9257C119.11 45.9257 119.37 45.9852 119.602 46.103C119.835 46.2231 120.025 46.3968 120.175 46.6253V44.498H120.655ZM119.535 48.9309C119.736 48.8167 119.894 48.6537 120.009 48.4432C120.124 48.2326 120.181 47.9923 120.181 47.7234C120.181 47.4533 120.124 47.2142 120.009 47.0024C119.894 46.7918 119.736 46.6288 119.535 46.5146C119.335 46.4004 119.11 46.3433 118.862 46.3433C118.609 46.3433 118.383 46.4004 118.182 46.5146C117.981 46.6288 117.823 46.7918 117.709 47.0024C117.594 47.2142 117.537 47.4533 117.537 47.7234C117.537 47.9923 117.594 48.2326 117.709 48.4432C117.823 48.6537 117.981 48.8167 118.182 48.9309C118.383 49.0463 118.609 49.1035 118.862 49.1035C119.11 49.1035 119.335 49.0463 119.535 48.9309Z" fill="white"/>
<path d="M125.092 47.871H122.115C122.142 48.2398 122.284 48.536 122.541 48.7633C122.799 48.9905 123.123 49.1035 123.515 49.1035C123.736 49.1035 123.938 49.0631 124.125 48.9846C124.309 48.9072 124.469 48.7906 124.604 48.6383L124.874 48.9489C124.717 49.1368 124.519 49.2796 124.283 49.3795C124.046 49.4783 123.785 49.5271 123.502 49.5271C123.136 49.5271 122.813 49.4497 122.531 49.2951C122.249 49.1392 122.029 48.9263 121.871 48.6526C121.714 48.3778 121.635 48.0685 121.635 47.7234C121.635 47.3772 121.71 47.0679 121.862 46.7943C122.013 46.5206 122.221 46.3065 122.484 46.1542C122.748 46.0019 123.044 45.9258 123.373 45.9258C123.702 45.9258 123.998 46.0019 124.26 46.1542C124.522 46.3065 124.726 46.5183 124.874 46.7907C125.024 47.062 125.098 47.3725 125.098 47.7234L125.092 47.871ZM122.511 46.6622C122.278 46.8799 122.146 47.1643 122.115 47.5141H124.638C124.607 47.1643 124.474 46.8799 124.242 46.6622C124.01 46.4457 123.72 46.3362 123.373 46.3362C123.031 46.3362 122.743 46.4457 122.511 46.6622Z" fill="white"/>
<path d="M127.043 46.1066C127.266 45.9853 127.543 45.9258 127.871 45.9258V46.3898L127.757 46.3838C127.382 46.3838 127.088 46.498 126.877 46.7265C126.665 46.9561 126.559 47.2761 126.559 47.6889V49.4938H126.078V45.952H126.538V46.6456C126.652 46.4088 126.819 46.2292 127.043 46.1066Z" fill="white"/>
<path d="M131.044 46.2712C131.293 46.502 131.416 46.8447 131.416 47.298V49.493H130.957V48.9398C130.848 49.1254 130.689 49.2681 130.48 49.3716C130.27 49.474 130.021 49.5263 129.733 49.5263C129.335 49.5263 129.019 49.4323 128.785 49.2431C128.551 49.0552 128.434 48.8053 128.434 48.496C128.434 48.1962 128.542 47.9535 128.761 47.7691C128.98 47.5859 129.329 47.4931 129.806 47.4931H130.937V47.2777C130.937 46.9732 130.851 46.74 130.679 46.5806C130.508 46.4223 130.258 46.3414 129.928 46.3414C129.702 46.3414 129.487 46.3783 129.279 46.4533C129.072 46.527 128.893 46.6293 128.744 46.759L128.528 46.4021C128.709 46.2498 128.925 46.132 129.177 46.0487C129.429 45.9667 129.696 45.9238 129.976 45.9238C130.44 45.9238 130.796 46.0404 131.044 46.2712ZM130.503 48.9636C130.698 48.8398 130.841 48.6626 130.937 48.4294V47.85H129.82C129.211 47.85 128.907 48.0606 128.907 48.4829C128.907 48.6887 128.986 48.8517 129.144 48.9707C129.301 49.0897 129.523 49.1492 129.806 49.1492C130.077 49.1492 130.309 49.0873 130.503 48.9636Z" fill="white"/>
<path d="M132.723 49.4937H133.203V44.498H132.723V49.4937Z" fill="white"/>
<path d="M112.964 58.34C112.873 58.4209 112.761 58.4828 112.63 58.5256C112.496 58.5672 112.357 58.5899 112.214 58.5899C111.879 58.5899 111.622 58.4994 111.443 58.3198C111.262 58.1401 111.171 57.8867 111.171 57.5596V55.4181H110.535V55.0147H111.171V54.2402H111.652V55.0147H112.734V55.4181H111.652V57.5322C111.652 57.744 111.704 57.9034 111.811 58.0128C111.916 58.1235 112.069 58.1782 112.267 58.1782C112.367 58.1782 112.462 58.1627 112.554 58.1318C112.648 58.0997 112.726 58.0557 112.795 57.9962L112.964 58.34Z" fill="white"/>
<path d="M116.807 56.9335H113.83C113.856 57.3011 114 57.5997 114.257 57.8258C114.514 58.053 114.838 58.166 115.23 58.166C115.451 58.166 115.654 58.1268 115.839 58.0482C116.024 57.9697 116.184 57.8543 116.319 57.7008L116.59 58.0114C116.433 58.1993 116.235 58.3433 115.998 58.442C115.762 58.5408 115.5 58.5908 115.217 58.5908C114.852 58.5908 114.528 58.5122 114.246 58.3576C113.964 58.2029 113.744 57.9888 113.586 57.7151C113.429 57.4415 113.35 57.1322 113.35 56.7859C113.35 56.4409 113.426 56.1304 113.577 55.8568C113.727 55.5831 113.935 55.3702 114.198 55.2179C114.463 55.0644 114.759 54.9883 115.088 54.9883C115.418 54.9883 115.713 55.0644 115.975 55.2179C116.237 55.3702 116.441 55.582 116.59 55.8532C116.739 56.1257 116.814 56.4362 116.814 56.7859L116.807 56.9335ZM114.226 55.7259C113.994 55.9436 113.862 56.2268 113.83 56.5777H116.354C116.323 56.2268 116.19 55.9436 115.957 55.7259C115.725 55.5082 115.436 55.3987 115.088 55.3987C114.746 55.3987 114.458 55.5082 114.226 55.7259Z" fill="white"/>
<path d="M118.756 55.1703C118.98 55.049 119.256 54.9883 119.585 54.9883V55.4535L119.47 55.4463C119.096 55.4463 118.803 55.5605 118.59 55.7902C118.379 56.0186 118.272 56.3386 118.272 56.7526V58.5563H117.793V55.0156H118.253V55.7081C118.366 55.4713 118.534 55.2917 118.756 55.1703Z" fill="white"/>
<path d="M121.416 55.1703C121.639 55.049 121.916 54.9883 122.244 54.9883V55.4535L122.13 55.4463C121.755 55.4463 121.461 55.5605 121.25 55.7902C121.038 56.0186 120.932 56.3386 120.932 56.7526V58.5563H120.451V55.0156H120.911V55.7081C121.025 55.4713 121.192 55.2917 121.416 55.1703Z" fill="white"/>
<path d="M123.104 54.1388C123.035 54.0721 123.002 53.9912 123.002 53.8972C123.002 53.8068 123.035 53.7283 123.104 53.6605C123.171 53.5939 123.254 53.5605 123.353 53.5605C123.453 53.5605 123.536 53.5927 123.604 53.6569C123.671 53.7223 123.706 53.7997 123.706 53.8901C123.706 53.9888 123.671 54.0721 123.604 54.1388C123.536 54.2066 123.453 54.2399 123.353 54.2399C123.254 54.2399 123.171 54.2066 123.104 54.1388ZM123.111 55.0144H123.591V58.5562H123.111V55.0144Z" fill="white"/>
<path d="M126.803 58.34C126.713 58.4209 126.601 58.4828 126.468 58.5256C126.336 58.5672 126.197 58.5899 126.052 58.5899C125.717 58.5899 125.46 58.4994 125.281 58.3198C125.101 58.1401 125.011 57.8867 125.011 57.5596V55.4181H124.375V55.0147H125.011V54.2402H125.492V55.0147H126.572V55.4181H125.492V57.5322C125.492 57.744 125.544 57.9034 125.649 58.0128C125.756 58.1235 125.908 58.1782 126.106 58.1782C126.205 58.1782 126.301 58.1627 126.394 58.1318C126.486 58.0997 126.566 58.0557 126.633 57.9962L126.803 58.34Z" fill="white"/>
<path d="M128.075 58.3576C127.799 58.2029 127.584 57.9888 127.425 57.7151C127.268 57.4415 127.189 57.1322 127.189 56.7859C127.189 56.4397 127.268 56.1304 127.425 55.8568C127.584 55.5831 127.799 55.3702 128.075 55.2167C128.35 55.0656 128.66 54.9883 129.002 54.9883C129.345 54.9883 129.653 55.0656 129.928 55.2167C130.203 55.3702 130.42 55.5831 130.575 55.8568C130.73 56.1304 130.808 56.4397 130.808 56.7859C130.808 57.1322 130.73 57.4415 130.575 57.7151C130.42 57.9888 130.203 58.2029 129.928 58.3576C129.653 58.5122 129.345 58.5908 129.002 58.5908C128.66 58.5908 128.35 58.5122 128.075 58.3576ZM129.681 57.9947C129.882 57.8793 130.039 57.7175 130.152 57.5057C130.265 57.2952 130.32 57.0548 130.32 56.7859C130.32 56.5159 130.265 56.2767 130.152 56.0662C130.039 55.8544 129.882 55.6914 129.681 55.5772C129.481 55.463 129.254 55.4059 129.002 55.4059C128.75 55.4059 128.522 55.463 128.322 55.5772C128.121 55.6914 127.963 55.8544 127.848 56.0662C127.733 56.2767 127.676 56.5159 127.676 56.7859C127.676 57.0548 127.733 57.2952 127.848 57.5057C127.963 57.7175 128.121 57.8793 128.322 57.9947C128.522 58.1089 128.75 58.166 129.002 58.166C129.254 58.166 129.481 58.1089 129.681 57.9947Z" fill="white"/>
<path d="M132.754 55.1703C132.976 55.049 133.253 54.9883 133.582 54.9883V55.4535L133.467 55.4463C133.093 55.4463 132.799 55.5605 132.588 55.7902C132.376 56.0186 132.27 56.3386 132.27 56.7526V58.5563H131.789V55.0156H132.249V55.7081C132.363 55.4713 132.53 55.2917 132.754 55.1703Z" fill="white"/>
<path d="M137.591 55.0156L135.813 58.981C135.669 59.3129 135.502 59.5485 135.313 59.6877C135.123 59.8269 134.896 59.8959 134.629 59.8959C134.458 59.8959 134.297 59.8697 134.149 59.815C134 59.7614 133.871 59.6805 133.764 59.5734L133.986 59.2165C134.167 59.3962 134.383 59.4854 134.636 59.4854C134.799 59.4854 134.936 59.4402 135.051 59.351C135.167 59.2605 135.275 59.1083 135.373 58.8929L135.529 58.5491L133.939 55.0156H134.439L135.779 58.0244L137.118 55.0156H137.591Z" fill="white"/>
</g>
<defs>
<clipPath id="clip0_692_3599">
<rect width="142" height="60" fill="white"/>
</clipPath>
</defs>
</svg>
