<svg width="122" height="21" viewBox="0 0 122 21" fill="none" xmlns="http://www.w3.org/2000/svg">
<path d="M39.4914 16.7792H40.9643V17.027H39.4914V18.4907H39.2131V17.027H37.7402V16.7792H39.2131V15.3154H39.4914V16.7792Z" fill="white"/>
<path d="M45.8923 15.832L44.8622 18.8507H44.4056L43.56 16.4461L42.7144 18.8507H42.2655L41.2354 15.832H41.7581L42.4976 18.2427L43.3232 15.832H43.806L44.6316 18.2427L45.365 15.832H45.8923Z" fill="white"/>
<path d="M49.3407 17.342C49.3407 18.2768 48.6473 18.9486 47.6879 18.9486C46.7362 18.9486 46.0352 18.2753 46.0352 17.342C46.0352 16.4072 46.7362 15.7354 47.6879 15.7354C48.6458 15.7338 49.3407 16.4072 49.3407 17.342ZM46.5379 17.342C46.5379 18.0351 47.0268 18.485 47.6879 18.485C48.3491 18.485 48.838 18.0336 48.838 17.342C48.838 16.6489 48.3491 16.199 47.6879 16.199C47.0268 16.199 46.5379 16.6489 46.5379 17.342Z" fill="white"/>
<path d="M51.5116 16.2823H51.4194C50.7721 16.2823 50.4077 16.6882 50.4077 17.433V18.8511H49.9326V15.8324H50.4077V16.5119H50.4215C50.5476 16.0604 50.9166 15.7412 51.4332 15.7412H51.5131V16.2823H51.5116Z" fill="white"/>
<path d="M52.4507 18.851H51.9756V14.2773H52.4507V18.851Z" fill="white"/>
<path d="M53.0596 17.3421C53.0596 16.3419 53.733 15.7355 54.5724 15.7355C55.1275 15.7355 55.518 15.9908 55.7286 16.3693H55.7425V14.2793H56.2175V18.853H55.7425V18.3179H55.7286C55.5165 18.6964 55.1275 18.9518 54.5724 18.9518C53.733 18.9487 53.0596 18.3407 53.0596 17.3421ZM55.7686 17.3421C55.7686 16.6763 55.332 16.1991 54.6647 16.1991C53.9974 16.1991 53.5608 16.6763 53.5608 17.3421C53.5608 18.0079 53.9974 18.4851 54.6647 18.4851C55.332 18.4851 55.7686 18.0079 55.7686 17.3421Z" fill="white"/>
<path d="M40.8587 4.03516C42.6099 4.03516 44.0274 5.30435 44.0274 7.03563C44.0274 8.7502 42.5853 10.0528 40.9494 10.0528C40.1822 10.0528 39.4396 9.83852 38.8815 9.21228H38.8154V13.5823H37.6484V7.51443C37.6484 5.39555 38.883 4.03516 40.8587 4.03516ZM40.8433 9.04052C42.0026 9.04052 42.7944 8.13308 42.7944 7.03716C42.7944 5.94884 42.0195 5.05052 40.8433 5.05052C39.6594 5.05052 38.8584 5.94123 38.8584 7.02955C38.8584 8.13307 39.6748 9.04052 40.8433 9.04052Z" fill="white"/>
<path d="M45.1133 7.04475C45.1133 5.31347 46.5816 4.03516 48.3066 4.03516C50.0332 4.03516 51.4999 5.31347 51.4999 7.04475C51.4999 8.77603 50.0316 10.0544 48.3066 10.0544C46.58 10.0544 45.1133 8.77603 45.1133 7.04475ZM48.3066 9.04052C49.4735 9.04052 50.2669 8.14979 50.2669 7.04475C50.2669 5.93971 49.4751 5.04899 48.3066 5.04899C47.1397 5.04899 46.3463 5.93059 46.3463 7.04475C46.3463 8.14979 47.1397 9.04052 48.3066 9.04052Z" fill="white"/>
<path d="M55.8121 10.0544C53.9779 10.0544 52.585 8.78515 52.585 7.04475C52.585 5.31347 53.9441 4.03516 55.7706 4.03516C57.1712 4.03516 58.4812 4.78603 58.8148 6.21179H57.614C57.3219 5.44571 56.6224 5.04899 55.8044 5.04899C54.5698 5.04899 53.8195 5.95644 53.8195 7.05996C53.8195 8.18172 54.5944 9.03899 55.829 9.03899C56.63 9.03899 57.3557 8.67571 57.6386 7.84275H58.8471C58.4135 9.36123 57.162 10.0544 55.8121 10.0544Z" fill="white"/>
<path d="M63.1747 9.22176L61.2559 5.25608H61.2221V9.9316H60.0967V4.16016H61.8894L63.7912 8.10912H63.825L65.7269 4.16016H67.5196V9.9316H66.3942V5.25608H66.3603L64.4431 9.22176H63.1747Z" fill="white"/>
<path d="M68.7715 7.04475C68.7715 5.31347 70.2398 4.03516 71.9648 4.03516C73.6914 4.03516 75.1581 5.31347 75.1581 7.04475C75.1581 8.77603 73.6899 10.0544 71.9648 10.0544C70.2382 10.0544 68.7715 8.77603 68.7715 7.04475ZM71.9648 9.04052C73.1318 9.04052 73.9251 8.14979 73.9251 7.04475C73.9251 5.93971 73.1333 5.04899 71.9648 5.04899C70.7979 5.04899 70.0045 5.93059 70.0045 7.04475C70.0045 8.14979 70.7979 9.04052 71.9648 9.04052Z" fill="white"/>
<path d="M75.752 9.97971V8.78499H75.7765C76.001 8.78499 76.2762 8.68619 76.4438 8.49619C76.6606 8.25755 76.7698 7.82891 76.8851 7.20115L77.0511 6.27699C77.2433 5.21299 77.6261 4.13379 79.2451 4.13379H81.5221V9.92955H80.3551V5.20539H79.4465C78.5378 5.20539 78.3457 5.45315 78.1289 6.68131L77.9782 7.54771C77.8444 8.33963 77.6446 9.02363 77.2279 9.45987C76.9112 9.78971 76.4684 9.97971 75.8765 9.97971H75.752Z" fill="white"/>
<path d="M82.8145 7.04475C82.8145 5.31347 84.2827 4.03516 86.0078 4.03516C87.7344 4.03516 89.2011 5.31347 89.2011 7.04475C89.2011 8.77603 87.7328 10.0544 86.0078 10.0544C84.2827 10.0544 82.8145 8.77603 82.8145 7.04475ZM86.0078 9.04052C87.1747 9.04052 87.9681 8.14979 87.9681 7.04475C87.9681 5.93971 87.1763 5.04899 86.0078 5.04899C84.8393 5.04899 84.0475 5.93059 84.0475 7.04475C84.049 8.14979 84.8408 9.04052 86.0078 9.04052Z" fill="white"/>
<path d="M90.5541 11.3329H89.4287V8.8599H90.1882C90.5219 8.48902 90.6971 7.93726 90.8555 7.26846L91.1061 6.19686C91.3475 5.1663 91.798 4.13574 93.2416 4.13574H95.5094V8.8599H96.3519V11.3329H95.2265V9.9315H90.5557V11.3329H90.5541ZM94.3563 8.88422V5.19062H93.2632C92.5544 5.19062 92.313 5.7515 92.17 6.3443L91.9117 7.45694C91.7703 8.07558 91.5535 8.5863 91.3367 8.80062V8.8827H94.3563V8.88422Z" fill="white"/>
<path d="M100.428 10.0547C98.5677 10.0547 97.2178 8.78547 97.2178 7.04507C97.2178 5.31379 98.5769 4.03547 100.386 4.03547C101.787 4.03547 103.472 4.94291 103.472 7.13475V7.37339H98.3847C98.5092 8.33859 99.2688 9.03931 100.419 9.03931C101.103 9.03931 101.919 8.79155 102.145 8.20635H103.346C102.979 9.47707 101.62 10.0547 100.428 10.0547ZM98.4016 2.04883H99.6101V3.24355H98.4016V2.04883ZM102.255 6.49331C102.072 5.61931 101.387 5.03411 100.37 5.03411C99.3518 5.03411 98.6522 5.66035 98.4354 6.49331H102.255ZM101.028 2.04883H102.236V3.24355H101.028V2.04883Z" fill="white"/>
<path d="M108.975 4.16016V6.45232H109.951L111.327 4.16016H112.611L110.902 6.9144L112.753 9.9316H111.443L109.967 7.4996H108.975V9.9316H107.874V7.4996H106.883L105.407 9.9316H104.097L105.948 6.9144L104.238 4.16016H105.522L106.898 6.45232H107.874V4.16016H108.975Z" fill="white"/>
<path d="M113.571 7.33392L113.554 4.16016H114.721L114.728 5.80024H114.762C115.254 5.20592 115.88 4.91864 116.63 4.91864C118.065 4.91864 119.224 5.97352 119.224 7.44944C119.224 8.94208 118.04 10.0547 116.413 10.0547C114.779 10.0547 113.578 8.90864 113.571 7.33392ZM116.389 9.04088C117.314 9.04088 117.989 8.39792 117.989 7.4996C117.989 6.60128 117.314 5.9416 116.389 5.9416C115.471 5.9416 114.796 6.60128 114.796 7.4996C114.796 8.39792 115.472 9.04088 116.389 9.04088Z" fill="white"/>
<path d="M24.1632 4.23633L23.6681 4.72577V5.77913C23.6681 5.79737 23.6681 5.81561 23.6696 5.83385C23.6589 9.62473 20.7869 12.7058 17.2568 12.7058C13.7268 12.7058 10.8548 9.62473 10.844 5.83385V4.72577L10.349 4.23633H2.77539V18.8511H5.89646V7.32193H7.83059C8.52707 12.1099 12.4891 15.7914 17.2553 15.7914C22.0215 15.7914 25.9835 12.1099 26.68 7.32193H28.6141V18.8511H31.7352V4.23633H24.1632Z" fill="white"/>
</svg>
